<svg height="53.70195802270356mm" viewBox="-26.85097901135178 -26.85097901135178 53.70195802270356 53.70195802270356" width="53.70195802270356mm" xmlns="http://www.w3.org/2000/svg">
<path d="M18,0 L18.150402,0.11404384 L18.299862,0.22997496 L18.448147,0.3477806 L18.595028,0.46744245 L18.740274,0.5889368 L18.883656,0.7122345 L19.02495,0.83730096 L19.16393,0.9640963 L19.300379,1.0925756 L19.434074,1.2226883 L19.564802,1.3543794 L19.692356,1.4875886 L19.816525,1.6222512 L19.937109,1.7582971 L20.053911,1.8956527 L20.166739,2.0342393 L20.275404,2.173974 L20.379728,2.314771 L20.479538,2.456539 L20.574661,2.5991843 L20.66494,2.7426095 L20.75022,2.8867137 L20.830349,3.0313938 L20.905193,3.1765432 L20.974617,3.322053 L21.038496,3.467812 L21.096716,3.6137073 L21.149166,3.759624 L21.195747,3.9054456 L21.23637,4.0510545 L21.270952,4.196332 L21.29942,4.341159 L21.321705,4.4854155 L21.337757,4.6289816 L21.347528,4.771738 L21.35098,4.913564 L21.348085,5.0543427 L21.338827,5.1939545 L21.323193,5.3322835 L21.301184,5.4692144 L21.272812,5.6046343 L21.23809,5.738431 L21.197052,5.8704953 L21.14973,6.0007215 L21.096172,6.1290045 L21.036432,6.2552447 L20.970573,6.379344 L20.898668,6.501209 L20.820799,6.620748 L20.737051,6.7378764 L20.647526,6.8525114 L20.552326,6.9645753 L20.451565,7.0739956 L20.345366,7.180703 L20.233854,7.2846355 L20.117167,7.3857346 L19.995445,7.4839473 L19.86884,7.579226 L19.737501,7.6715293 L19.601597,7.7608213 L19.46129,7.847072 L19.316755,7.930257 L19.168169,8.010358 L19.015715,8.087364 L18.85958,8.161268 L18.699953,8.232072 L18.537031,8.299782 L18.371014,8.36441 L18.202103,8.425978 L18.030502,8.48451 L17.856419,8.540039 L17.680061,8.592605 L17.50164,8.642249 L17.32137,8.689026 L17.139462,8.732992 L16.956131,8.77421 L16.77159,8.812751 L16.586052,8.848688 L16.39973,8.882104 L16.212841,8.913085 L16.025593,8.941724 L15.838195,8.96812 L15.650855,8.9923725 L15.637464,9.115842 L15.709542,9.290597 L15.779731,9.466432 L15.847838,9.643215 L15.913675,9.820814 L15.977057,9.99909 L16.037806,10.177901 L16.095743,10.357102 L16.150702,10.536546 L16.202513,10.716078 L16.25102,10.895547 L16.296066,11.074795 L16.337503,11.253663 L16.375189,11.43199 L16.408989,11.609614 L16.438774,11.786373 L16.464418,11.962101 L16.485811,12.136632 L16.50284,12.309802 L16.515408,12.481444 L16.523417,12.651394 L16.526783,12.819487 L16.525429,12.9855585 L16.519281,13.149447 L16.50828,13.310991 L16.492369,13.470032 L16.471502,13.626411 L16.445639,13.779976 L16.414751,13.930574 L16.378813,14.078057 L16.337812,14.2222805 L16.291742,14.363103 L16.240602,14.500385 L16.184404,14.633996 L16.123163,14.763806 L16.056904,14.889692 L15.9856615,15.011536 L15.909474,15.129223 L15.828391,15.242646 L15.742466,15.351705 L15.651763,15.456303 L15.556349,15.556349 L15.456303,15.651763 L15.351705,15.742466 L15.242646,15.828391 L15.129223,15.909474 L15.011536,15.9856615 L14.889692,16.056904 L14.763806,16.123163 L14.633996,16.184404 L14.500385,16.240602 L14.363103,16.291742 L14.2222805,16.337812 L14.078057,16.378813 L13.930574,16.414751 L13.779976,16.445639 L13.626411,16.471502 L13.470032,16.492369 L13.310991,16.50828 L13.149447,16.519281 L12.9855585,16.525429 L12.819487,16.526783 L12.651394,16.523417 L12.481444,16.515408 L12.309802,16.50284 L12.136632,16.485811 L11.962101,16.464418 L11.786373,16.438774 L11.609614,16.408989 L11.43199,16.375189 L11.253663,16.337503 L11.074795,16.296066 L10.895547,16.25102 L10.716078,16.202513 L10.536546,16.150702 L10.357102,16.095743 L10.177901,16.037806 L9.99909,15.977057 L9.820814,15.913675 L9.643215,15.847838 L9.466432,15.779731 L9.290597,15.709542 L9.115842,15.637464 L8.9923725,15.650855 L8.96812,15.838195 L8.941724,16.025593 L8.913085,16.212841 L8.882104,16.39973 L8.848688,16.586052 L8.812751,16.77159 L8.77421,16.956131 L8.732992,17.139462 L8.689026,17.32137 L8.642249,17.50164 L8.592605,17.680061 L8.540039,17.856419 L8.48451,18.030502 L8.425978,18.202103 L8.36441,18.371014 L8.299782,18.537031 L8.232072,18.699953 L8.161268,18.85958 L8.087364,19.015715 L8.010358,19.168169 L7.930257,19.316755 L7.847072,19.46129 L7.7608213,19.601597 L7.6715293,19.737501 L7.579226,19.86884 L7.4839473,19.995445 L7.3857346,20.117167 L7.2846355,20.233854 L7.180703,20.345366 L7.0739956,20.451565 L6.9645753,20.552326 L6.8525114,20.647526 L6.7378764,20.737051 L6.620748,20.820799 L6.501209,20.898668 L6.379344,20.970573 L6.2552447,21.036432 L6.1290045,21.096172 L6.0007215,21.14973 L5.8704953,21.197052 L5.738431,21.23809 L5.6046343,21.272812 L5.4692144,21.301184 L5.3322835,21.323193 L5.1939545,21.338827 L5.0543427,21.348085 L4.913564,21.35098 L4.771738,21.347528 L4.6289816,21.337757 L4.4854155,21.321705 L4.341159,21.29942 L4.196332,21.270952 L4.0510545,21.23637 L3.9054456,21.195747 L3.759624,21.149166 L3.6137073,21.096716 L3.467812,21.038496 L3.322053,20.974617 L3.1765432,20.905193 L3.0313938,20.830349 L2.8867137,20.75022 L2.7426095,20.66494 L2.5991843,20.574661 L2.456539,20.479538 L2.314771,20.379728 L2.173974,20.275404 L2.0342393,20.166739 L1.8956527,20.053911 L1.7582971,19.937109 L1.6222512,19.816525 L1.4875886,19.692356 L1.3543794,19.564802 L1.2226883,19.434074 L1.0925756,19.300379 L0.9640963,19.16393 L0.83730096,19.02495 L0.7122345,18.883656 L0.5889368,18.740274 L0.46744245,18.595028 L0.3477806,18.448147 L0.22997496,18.299862 L0.11404384,18.150402 L0.0000000000000011021821,18 L-0.11404384,18.150402 L-0.22997496,18.299862 L-0.3477806,18.448147 L-0.46744245,18.595028 L-0.5889368,18.740274 L-0.7122345,18.883656 L-0.83730096,19.02495 L-0.9640963,19.16393 L-1.0925756,19.300379 L-1.2226883,19.434074 L-1.3543794,19.564802 L-1.4875886,19.692356 L-1.6222512,19.816525 L-1.7582971,19.937109 L-1.8956527,20.053911 L-2.0342393,20.166739 L-2.173974,20.275404 L-2.314771,20.379728 L-2.456539,20.479538 L-2.5991843,20.574661 L-2.7426095,20.66494 L-2.8867137,20.75022 L-3.0313938,20.830349 L-3.1765432,20.905193 L-3.322053,20.974617 L-3.467812,21.038496 L-3.6137073,21.096716 L-3.759624,21.149166 L-3.9054456,21.195747 L-4.0510545,21.23637 L-4.196332,21.270952 L-4.341159,21.29942 L-4.4854155,21.321705 L-4.6289816,21.337757 L-4.771738,21.347528 L-4.913564,21.35098 L-5.0543427,21.348085 L-5.1939545,21.338827 L-5.3322835,21.323193 L-5.4692144,21.301184 L-5.6046343,21.272812 L-5.738431,21.23809 L-5.8704953,21.197052 L-6.0007215,21.14973 L-6.1290045,21.096172 L-6.2552447,21.036432 L-6.379344,20.970573 L-6.501209,20.898668 L-6.620748,20.820799 L-6.7378764,20.737051 L-6.8525114,20.647526 L-6.9645753,20.552326 L-7.0739956,20.451565 L-7.180703,20.345366 L-7.2846355,20.233854 L-7.3857346,20.117167 L-7.4839473,19.995445 L-7.579226,19.86884 L-7.6715293,19.737501 L-7.7608213,19.601597 L-7.847072,19.46129 L-7.930257,19.316755 L-8.010358,19.168169 L-8.087364,19.015715 L-8.161268,18.85958 L-8.232072,18.699953 L-8.299782,18.537031 L-8.36441,18.371014 L-8.425978,18.202103 L-8.48451,18.030502 L-8.540039,17.856419 L-8.592605,17.680061 L-8.642249,17.50164 L-8.689026,17.32137 L-8.732992,17.139462 L-8.77421,16.956131 L-8.812751,16.77159 L-8.848688,16.586052 L-8.882104,16.39973 L-8.913085,16.212841 L-8.941724,16.025593 L-8.96812,15.838195 L-8.9923725,15.650855 L-9.115842,15.637464 L-9.290597,15.709542 L-9.466432,15.779731 L-9.643215,15.847838 L-9.820814,15.913675 L-9.99909,15.977057 L-10.177901,16.037806 L-10.357102,16.095743 L-10.536546,16.150702 L-10.716078,16.202513 L-10.895547,16.25102 L-11.074795,16.296066 L-11.253663,16.337503 L-11.43199,16.375189 L-11.609614,16.408989 L-11.786373,16.438774 L-11.962101,16.464418 L-12.136632,16.485811 L-12.309802,16.50284 L-12.481444,16.515408 L-12.651394,16.523417 L-12.819487,16.526783 L-12.9855585,16.525429 L-13.149447,16.519281 L-13.310991,16.50828 L-13.470032,16.492369 L-13.626411,16.471502 L-13.779976,16.445639 L-13.930574,16.414751 L-14.078057,16.378813 L-14.2222805,16.337812 L-14.363103,16.291742 L-14.500385,16.240602 L-14.633996,16.184404 L-14.763806,16.123163 L-14.889692,16.056904 L-15.011536,15.9856615 L-15.129223,15.909474 L-15.242646,15.828391 L-15.351705,15.742466 L-15.456303,15.651763 L-15.556349,15.556349 L-15.651763,15.456303 L-15.742466,15.351705 L-15.828391,15.242646 L-15.909474,15.129223 L-15.9856615,15.011536 L-16.056904,14.889692 L-16.123163,14.763806 L-16.184404,14.633996 L-16.240602,14.500385 L-16.291742,14.363103 L-16.337812,14.2222805 L-16.378813,14.078057 L-16.414751,13.930574 L-16.445639,13.779976 L-16.471502,13.626411 L-16.492369,13.470032 L-16.50828,13.310991 L-16.519281,13.149447 L-16.525429,12.9855585 L-16.526783,12.819487 L-16.523417,12.651394 L-16.515408,12.481444 L-16.50284,12.309802 L-16.485811,12.136632 L-16.464418,11.962101 L-16.438774,11.786373 L-16.408989,11.609614 L-16.375189,11.43199 L-16.337503,11.253663 L-16.296066,11.074795 L-16.25102,10.895547 L-16.202513,10.716078 L-16.150702,10.536546 L-16.095743,10.357102 L-16.037806,10.177901 L-15.977057,9.99909 L-15.913675,9.820814 L-15.847838,9.643215 L-15.779731,9.466432 L-15.709542,9.290597 L-15.637464,9.115842 L-15.650855,8.9923725 L-15.838195,8.96812 L-16.025593,8.941724 L-16.212841,8.913085 L-16.39973,8.882104 L-16.586052,8.848688 L-16.77159,8.812751 L-16.956131,8.77421 L-17.139462,8.732992 L-17.32137,8.689026 L-17.50164,8.642249 L-17.680061,8.592605 L-17.856419,8.540039 L-18.030502,8.48451 L-18.202103,8.425978 L-18.371014,8.36441 L-18.537031,8.299782 L-18.699953,8.232072 L-18.85958,8.161268 L-19.015715,8.087364 L-19.168169,8.010358 L-19.316755,7.930257 L-19.46129,7.847072 L-19.601597,7.7608213 L-19.737501,7.6715293 L-19.86884,7.579226 L-19.995445,7.4839473 L-20.117167,7.3857346 L-20.233854,7.2846355 L-20.345366,7.180703 L-20.451565,7.0739956 L-20.552326,6.9645753 L-20.647526,6.8525114 L-20.737051,6.7378764 L-20.820799,6.620748 L-20.898668,6.501209 L-20.970573,6.379344 L-21.036432,6.2552447 L-21.096172,6.1290045 L-21.14973,6.0007215 L-21.197052,5.8704953 L-21.23809,5.738431 L-21.272812,5.6046343 L-21.301184,5.4692144 L-21.323193,5.3322835 L-21.338827,5.1939545 L-21.348085,5.0543427 L-21.35098,4.913564 L-21.347528,4.771738 L-21.337757,4.6289816 L-21.321705,4.4854155 L-21.29942,4.341159 L-21.270952,4.196332 L-21.23637,4.0510545 L-21.195747,3.9054456 L-21.149166,3.759624 L-21.096716,3.6137073 L-21.038496,3.467812 L-20.974617,3.322053 L-20.905193,3.1765432 L-20.830349,3.0313938 L-20.75022,2.8867137 L-20.66494,2.7426095 L-20.574661,2.5991843 L-20.479538,2.456539 L-20.379728,2.314771 L-20.275404,2.173974 L-20.166739,2.0342393 L-20.053911,1.8956527 L-19.937109,1.7582971 L-19.816525,1.6222512 L-19.692356,1.4875886 L-19.564802,1.3543794 L-19.434074,1.2226883 L-19.300379,1.0925756 L-19.16393,0.9640963 L-19.02495,0.83730096 L-18.883656,0.7122345 L-18.740274,0.5889368 L-18.595028,0.46744245 L-18.448147,0.3477806 L-18.299862,0.22997496 L-18.150402,0.11404384 L-18,0.0000000000000022043643 L-18.150402,-0.11404384 L-18.299862,-0.22997496 L-18.448147,-0.3477806 L-18.595028,-0.46744245 L-18.740274,-0.5889368 L-18.883656,-0.7122345 L-19.02495,-0.83730096 L-19.16393,-0.9640963 L-19.300379,-1.0925756 L-19.434074,-1.2226883 L-19.564802,-1.3543794 L-19.692356,-1.4875886 L-19.816525,-1.6222512 L-19.937109,-1.7582971 L-20.053911,-1.8956527 L-20.166739,-2.0342393 L-20.275404,-2.173974 L-20.379728,-2.314771 L-20.479538,-2.456539 L-20.574661,-2.5991843 L-20.66494,-2.7426095 L-20.75022,-2.8867137 L-20.830349,-3.0313938 L-20.905193,-3.1765432 L-20.974617,-3.322053 L-21.038496,-3.467812 L-21.096716,-3.6137073 L-21.149166,-3.759624 L-21.195747,-3.9054456 L-21.23637,-4.0510545 L-21.270952,-4.196332 L-21.29942,-4.341159 L-21.321705,-4.4854155 L-21.337757,-4.6289816 L-21.347528,-4.771738 L-21.35098,-4.913564 L-21.348085,-5.0543427 L-21.338827,-5.1939545 L-21.323193,-5.3322835 L-21.301184,-5.4692144 L-21.272812,-5.6046343 L-21.23809,-5.738431 L-21.197052,-5.8704953 L-21.14973,-6.0007215 L-21.096172,-6.1290045 L-21.036432,-6.2552447 L-20.970573,-6.379344 L-20.898668,-6.501209 L-20.820799,-6.620748 L-20.737051,-6.7378764 L-20.647526,-6.8525114 L-20.552326,-6.9645753 L-20.451565,-7.0739956 L-20.345366,-7.180703 L-20.233854,-7.2846355 L-20.117167,-7.3857346 L-19.995445,-7.4839473 L-19.86884,-7.579226 L-19.737501,-7.6715293 L-19.601597,-7.7608213 L-19.46129,-7.847072 L-19.316755,-7.930257 L-19.168169,-8.010358 L-19.015715,-8.087364 L-18.85958,-8.161268 L-18.699953,-8.232072 L-18.537031,-8.299782 L-18.371014,-8.36441 L-18.202103,-8.425978 L-18.030502,-8.48451 L-17.856419,-8.540039 L-17.680061,-8.592605 L-17.50164,-8.642249 L-17.32137,-8.689026 L-17.139462,-8.732992 L-16.956131,-8.77421 L-16.77159,-8.812751 L-16.586052,-8.848688 L-16.39973,-8.882104 L-16.212841,-8.913085 L-16.025593,-8.941724 L-15.838195,-8.96812 L-15.650855,-8.9923725 L-15.637464,-9.115842 L-15.709542,-9.290597 L-15.779731,-9.466432 L-15.847838,-9.643215 L-15.913675,-9.820814 L-15.977057,-9.99909 L-16.037806,-10.177901 L-16.095743,-10.357102 L-16.150702,-10.536546 L-16.202513,-10.716078 L-16.25102,-10.895547 L-16.296066,-11.074795 L-16.337503,-11.253663 L-16.375189,-11.43199 L-16.408989,-11.609614 L-16.438774,-11.786373 L-16.464418,-11.962101 L-16.485811,-12.136632 L-16.50284,-12.309802 L-16.515408,-12.481444 L-16.523417,-12.651394 L-16.526783,-12.819487 L-16.525429,-12.9855585 L-16.519281,-13.149447 L-16.50828,-13.310991 L-16.492369,-13.470032 L-16.471502,-13.626411 L-16.445639,-13.779976 L-16.414751,-13.930574 L-16.378813,-14.078057 L-16.337812,-14.2222805 L-16.291742,-14.363103 L-16.240602,-14.500385 L-16.184404,-14.633996 L-16.123163,-14.763806 L-16.056904,-14.889692 L-15.9856615,-15.011536 L-15.909474,-15.129223 L-15.828391,-15.242646 L-15.742466,-15.351705 L-15.651763,-15.456303 L-15.556349,-15.556349 L-15.456303,-15.651763 L-15.351705,-15.742466 L-15.242646,-15.828391 L-15.129223,-15.909474 L-15.011536,-15.9856615 L-14.889692,-16.056904 L-14.763806,-16.123163 L-14.633996,-16.184404 L-14.500385,-16.240602 L-14.363103,-16.291742 L-14.2222805,-16.337812 L-14.078057,-16.378813 L-13.930574,-16.414751 L-13.779976,-16.445639 L-13.626411,-16.471502 L-13.470032,-16.492369 L-13.310991,-16.50828 L-13.149447,-16.519281 L-12.9855585,-16.525429 L-12.819487,-16.526783 L-12.651394,-16.523417 L-12.481444,-16.515408 L-12.309802,-16.50284 L-12.136632,-16.485811 L-11.962101,-16.464418 L-11.786373,-16.438774 L-11.609614,-16.408989 L-11.43199,-16.375189 L-11.253663,-16.337503 L-11.074795,-16.296066 L-10.895547,-16.25102 L-10.716078,-16.202513 L-10.536546,-16.150702 L-10.357102,-16.095743 L-10.177901,-16.037806 L-9.99909,-15.977057 L-9.820814,-15.913675 L-9.643215,-15.847838 L-9.466432,-15.779731 L-9.290597,-15.709542 L-9.115842,-15.637464 L-8.9923725,-15.650855 L-8.96812,-15.838195 L-8.941724,-16.025593 L-8.913085,-16.212841 L-8.882104,-16.39973 L-8.848688,-16.586052 L-8.812751,-16.77159 L-8.77421,-16.956131 L-8.732992,-17.139462 L-8.689026,-17.32137 L-8.642249,-17.50164 L-8.592605,-17.680061 L-8.540039,-17.856419 L-8.48451,-18.030502 L-8.425978,-18.202103 L-8.36441,-18.371014 L-8.299782,-18.537031 L-8.232072,-18.699953 L-8.161268,-18.85958 L-8.087364,-19.015715 L-8.010358,-19.168169 L-7.930257,-19.316755 L-7.847072,-19.46129 L-7.7608213,-19.601597 L-7.6715293,-19.737501 L-7.579226,-19.86884 L-7.4839473,-19.995445 L-7.3857346,-20.117167 L-7.2846355,-20.233854 L-7.180703,-20.345366 L-7.0739956,-20.451565 L-6.9645753,-20.552326 L-6.8525114,-20.647526 L-6.7378764,-20.737051 L-6.620748,-20.820799 L-6.501209,-20.898668 L-6.379344,-20.970573 L-6.2552447,-21.036432 L-6.1290045,-21.096172 L-6.0007215,-21.14973 L-5.8704953,-21.197052 L-5.738431,-21.23809 L-5.6046343,-21.272812 L-5.4692144,-21.301184 L-5.3322835,-21.323193 L-5.1939545,-21.338827 L-5.0543427,-21.348085 L-4.913564,-21.35098 L-4.771738,-21.347528 L-4.6289816,-21.337757 L-4.4854155,-21.321705 L-4.341159,-21.29942 L-4.196332,-21.270952 L-4.0510545,-21.23637 L-3.9054456,-21.195747 L-3.759624,-21.149166 L-3.6137073,-21.096716 L-3.467812,-21.038496 L-3.322053,-20.974617 L-3.1765432,-20.905193 L-3.0313938,-20.830349 L-2.8867137,-20.75022 L-2.7426095,-20.66494 L-2.5991843,-20.574661 L-2.456539,-20.479538 L-2.314771,-20.379728 L-2.173974,-20.275404 L-2.0342393,-20.166739 L-1.8956527,-20.053911 L-1.7582971,-19.937109 L-1.6222512,-19.816525 L-1.4875886,-19.692356 L-1.3543794,-19.564802 L-1.2226883,-19.434074 L-1.0925756,-19.300379 L-0.9640963,-19.16393 L-0.83730096,-19.02495 L-0.7122345,-18.883656 L-0.5889368,-18.740274 L-0.46744245,-18.595028 L-0.3477806,-18.448147 L-0.22997496,-18.299862 L-0.11404384,-18.150402 L-0.0000000000000033065464,-18 L0.11404384,-18.150402 L0.22997496,-18.299862 L0.3477806,-18.448147 L0.46744245,-18.595028 L0.5889368,-18.740274 L0.7122345,-18.883656 L0.83730096,-19.02495 L0.9640963,-19.16393 L1.0925756,-19.300379 L1.2226883,-19.434074 L1.3543794,-19.564802 L1.4875886,-19.692356 L1.6222512,-19.816525 L1.7582971,-19.937109 L1.8956527,-20.053911 L2.0342393,-20.166739 L2.173974,-20.275404 L2.314771,-20.379728 L2.456539,-20.479538 L2.5991843,-20.574661 L2.7426095,-20.66494 L2.8867137,-20.75022 L3.0313938,-20.830349 L3.1765432,-20.905193 L3.322053,-20.974617 L3.467812,-21.038496 L3.6137073,-21.096716 L3.759624,-21.149166 L3.9054456,-21.195747 L4.0510545,-21.23637 L4.196332,-21.270952 L4.341159,-21.29942 L4.4854155,-21.321705 L4.6289816,-21.337757 L4.771738,-21.347528 L4.913564,-21.35098 L5.0543427,-21.348085 L5.1939545,-21.338827 L5.3322835,-21.323193 L5.4692144,-21.301184 L5.6046343,-21.272812 L5.738431,-21.23809 L5.8704953,-21.197052 L6.0007215,-21.14973 L6.1290045,-21.096172 L6.2552447,-21.036432 L6.379344,-20.970573 L6.501209,-20.898668 L6.620748,-20.820799 L6.7378764,-20.737051 L6.8525114,-20.647526 L6.9645753,-20.552326 L7.0739956,-20.451565 L7.180703,-20.345366 L7.2846355,-20.233854 L7.3857346,-20.117167 L7.4839473,-19.995445 L7.579226,-19.86884 L7.6715293,-19.737501 L7.7608213,-19.601597 L7.847072,-19.46129 L7.930257,-19.316755 L8.010358,-19.168169 L8.087364,-19.015715 L8.161268,-18.85958 L8.232072,-18.699953 L8.299782,-18.537031 L8.36441,-18.371014 L8.425978,-18.202103 L8.48451,-18.030502 L8.540039,-17.856419 L8.592605,-17.680061 L8.642249,-17.50164 L8.689026,-17.32137 L8.732992,-17.139462 L8.77421,-16.956131 L8.812751,-16.77159 L8.848688,-16.586052 L8.882104,-16.39973 L8.913085,-16.212841 L8.941724,-16.025593 L8.96812,-15.838195 L8.9923725,-15.650855 L9.115842,-15.637464 L9.290597,-15.709542 L9.466432,-15.779731 L9.643215,-15.847838 L9.820814,-15.913675 L9.99909,-15.977057 L10.177901,-16.037806 L10.357102,-16.095743 L10.536546,-16.150702 L10.716078,-16.202513 L10.895547,-16.25102 L11.074795,-16.296066 L11.253663,-16.337503 L11.43199,-16.375189 L11.609614,-16.408989 L11.786373,-16.438774 L11.962101,-16.464418 L12.136632,-16.485811 L12.309802,-16.50284 L12.481444,-16.515408 L12.651394,-16.523417 L12.819487,-16.526783 L12.9855585,-16.525429 L13.149447,-16.519281 L13.310991,-16.50828 L13.470032,-16.492369 L13.626411,-16.471502 L13.779976,-16.445639 L13.930574,-16.414751 L14.078057,-16.378813 L14.2222805,-16.337812 L14.363103,-16.291742 L14.500385,-16.240602 L14.633996,-16.184404 L14.763806,-16.123163 L14.889692,-16.056904 L15.011536,-15.9856615 L15.129223,-15.909474 L15.242646,-15.828391 L15.351705,-15.742466 L15.456303,-15.651763 L15.556349,-15.556349 L15.651763,-15.456303 L15.742466,-15.351705 L15.828391,-15.242646 L15.909474,-15.129223 L15.9856615,-15.011536 L16.056904,-14.889692 L16.123163,-14.763806 L16.184404,-14.633996 L16.240602,-14.500385 L16.291742,-14.363103 L16.337812,-14.2222805 L16.378813,-14.078057 L16.414751,-13.930574 L16.445639,-13.779976 L16.471502,-13.626411 L16.492369,-13.470032 L16.50828,-13.310991 L16.519281,-13.149447 L16.525429,-12.9855585 L16.526783,-12.819487 L16.523417,-12.651394 L16.515408,-12.481444 L16.50284,-12.309802 L16.485811,-12.136632 L16.464418,-11.962101 L16.438774,-11.786373 L16.408989,-11.609614 L16.375189,-11.43199 L16.337503,-11.253663 L16.296066,-11.074795 L16.25102,-10.895547 L16.202513,-10.716078 L16.150702,-10.536546 L16.095743,-10.357102 L16.037806,-10.177901 L15.977057,-9.99909 L15.913675,-9.820814 L15.847838,-9.643215 L15.779731,-9.466432 L15.709542,-9.290597 L15.637464,-9.115842 L15.650855,-8.9923725 L15.838195,-8.96812 L16.025593,-8.941724 L16.212841,-8.913085 L16.39973,-8.882104 L16.586052,-8.848688 L16.77159,-8.812751 L16.956131,-8.77421 L17.139462,-8.732992 L17.32137,-8.689026 L17.50164,-8.642249 L17.680061,-8.592605 L17.856419,-8.540039 L18.030502,-8.48451 L18.202103,-8.425978 L18.371014,-8.36441 L18.537031,-8.299782 L18.699953,-8.232072 L18.85958,-8.161268 L19.015715,-8.087364 L19.168169,-8.010358 L19.316755,-7.930257 L19.46129,-7.847072 L19.601597,-7.7608213 L19.737501,-7.6715293 L19.86884,-7.579226 L19.995445,-7.4839473 L20.117167,-7.3857346 L20.233854,-7.2846355 L20.345366,-7.180703 L20.451565,-7.0739956 L20.552326,-6.9645753 L20.647526,-6.8525114 L20.737051,-6.7378764 L20.820799,-6.620748 L20.898668,-6.501209 L20.970573,-6.379344 L21.036432,-6.2552447 L21.096172,-6.1290045 L21.14973,-6.0007215 L21.197052,-5.8704953 L21.23809,-5.738431 L21.272812,-5.6046343 L21.301184,-5.4692144 L21.323193,-5.3322835 L21.338827,-5.1939545 L21.348085,-5.0543427 L21.35098,-4.913564 L21.347528,-4.771738 L21.337757,-4.6289816 L21.321705,-4.4854155 L21.29942,-4.341159 L21.270952,-4.196332 L21.23637,-4.0510545 L21.195747,-3.9054456 L21.149166,-3.759624 L21.096716,-3.6137073 L21.038496,-3.467812 L20.974617,-3.322053 L20.905193,-3.1765432 L20.830349,-3.0313938 L20.75022,-2.8867137 L20.66494,-2.7426095 L20.574661,-2.5991843 L20.479538,-2.456539 L20.379728,-2.314771 L20.275404,-2.173974 L20.166739,-2.0342393 L20.053911,-1.8956527 L19.937109,-1.7582971 L19.816525,-1.6222512 L19.692356,-1.4875886 L19.564802,-1.3543794 L19.434074,-1.2226883 L19.300379,-1.0925756 L19.16393,-0.9640963 L19.02495,-0.83730096 L18.883656,-0.7122345 L18.740274,-0.5889368 L18.595028,-0.46744245 L18.448147,-0.3477806 L18.299862,-0.22997496 L18.150402,-0.11404384 L18,-0.0000000000000044087286" fill="none" stroke="black" stroke-width="0.1"/>
<path d="M18.302101,-0.39841524 L18.454683,-0.28270963 L18.608603,-0.16331744 L18.761568,-0.04179326 L18.91334,0.08185512 L19.063684,0.2076156 L19.212366,0.33547187 L19.359154,0.4654035 L19.503819,0.597386 L19.646132,0.731391 L19.78587,0.8673864 L19.92281,1.0053363 L20.056734,1.1452013 L20.187424,1.2869389 L20.314669,1.430503 L20.438257,1.5758444 L20.557985,1.722911 L20.673649,1.8716477 L20.785048,2.0219963 L20.891985,2.1738958 L20.994268,2.327282 L21.091705,2.4820874 L21.18411,2.6382415 L21.271296,2.795669 L21.353083,2.9542916 L21.429287,3.1140249 L21.499731,3.2747788 L21.564243,3.4364579 L21.622648,3.5989573 L21.674778,3.762165 L21.720469,3.9259584 L21.75956,4.0902033 L21.791897,4.254754 L21.817335,4.419451 L21.835741,4.5841217 L21.84699,4.7485785 L21.850979,4.9126196 L21.847614,5.076031 L21.83683,5.2385864 L21.818579,5.4000497 L21.792841,5.5601788 L21.75962,5.718728 L21.71895,5.875452 L21.67089,6.030111 L21.615528,6.1824713 L21.55297,6.332314 L21.483355,6.4794335 L21.406828,6.623643 L21.32356,6.764773 L21.233734,6.902676 L21.137539,7.0372252 L21.035172,7.1683125 L20.926836,7.2958493 L20.812737,7.4197645 L20.693077,7.5400033 L20.568066,7.656526 L20.437906,7.7693043 L20.302803,7.878322 L20.162954,7.9835725 L20.018562,8.085056 L19.869827,8.182784 L19.716946,8.276771 L19.560116,8.367036 L19.399536,8.453607 L19.235403,8.536515 L19.067917,8.615796 L18.897276,8.691488 L18.72368,8.763638 L18.54733,8.832291 L18.368435,8.897501 L18.187191,8.959325 L18.003809,9.017822 L17.818493,9.073059 L17.631453,9.125104 L17.442898,9.174032 L17.253036,9.219922 L17.06208,9.2628565 L16.87024,9.302922 L16.677727,9.340212 L16.48475,9.374823 L16.291525,9.406856 L16.098259,9.436416 L15.905162,9.463614 L16.00805,9.342247 L16.132462,9.045289 L16.172848,9.102588 L16.24521,9.283871 L16.315546,9.466438 L16.383654,9.650166 L16.449337,9.83492 L16.512407,10.020569 L16.572676,10.206979 L16.629955,10.394011 L16.684069,10.581526 L16.73484,10.7693815 L16.782097,10.957437 L16.825674,11.145544 L16.865404,11.33356 L16.901134,11.521337 L16.932707,11.708726 L16.959974,11.895579 L16.98279,12.081746 L17.00101,12.2670765 L17.014505,12.451418 L17.023134,12.634618 L17.026773,12.81652 L17.025297,12.996969 L17.018587,13.175806 L17.006523,13.352869 L16.988998,13.527993 L16.965906,13.701008 L16.937147,13.87174 L16.902628,14.0400095 L16.862265,14.205629 L16.815983,14.368406 L16.76372,14.528141 L16.705421,14.684624 L16.641054,14.83764 L16.570599,14.986968 L16.494057,15.132381 L16.41145,15.27365 L16.322824,15.410544 L16.22825,15.542835 L16.127821,15.670299 L16.021658,15.792721 L15.909903,15.909903 L15.792721,16.021658 L15.670299,16.127821 L15.542835,16.22825 L15.410544,16.322824 L15.27365,16.41145 L15.132381,16.494057 L14.986968,16.570599 L14.83764,16.641054 L14.684624,16.705421 L14.528141,16.76372 L14.368406,16.815983 L14.205629,16.862265 L14.0400095,16.902628 L13.87174,16.937147 L13.701008,16.965906 L13.527993,16.988998 L13.352869,17.006523 L13.175806,17.018587 L12.996969,17.025297 L12.822454,16.026793 L12.634618,17.023134 L12.451418,17.014505 L12.2670765,17.00101 L12.081746,16.98279 L11.895579,16.959974 L11.708726,16.932707 L11.521337,16.901134 L11.33356,16.865404 L11.145544,16.825674 L10.957437,16.782097 L10.7693815,16.73484 L10.581526,16.684069 L10.394011,16.629955 L10.206979,16.572676 L10.020569,16.512407 L9.83492,16.449337 L9.650166,16.383654 L9.466438,16.315546 L9.283871,16.24521 L9.102588,16.172848 L9.186395,15.142467 L9.342247,16.00805 L9.463614,15.905162 L9.436416,16.098259 L9.406856,16.291525 L9.374823,16.48475 L9.340212,16.677727 L9.302922,16.87024 L9.2628565,17.06208 L9.219922,17.253036 L9.174032,17.442898 L9.125104,17.631453 L9.073059,17.818493 L9.017822,18.003809 L8.959325,18.187191 L8.897501,18.368435 L8.832291,18.54733 L8.763638,18.72368 L8.691488,18.897276 L8.615796,19.067917 L8.536515,19.235403 L8.453607,19.399536 L8.367036,19.560116 L8.276771,19.716946 L8.182784,19.869827 L8.085056,20.018562 L7.9835725,20.162954 L7.878322,20.302803 L7.7693043,20.437906 L7.656526,20.568066 L7.5400033,20.693077 L7.4197645,20.812737 L7.2958493,20.926836 L7.1683125,21.035172 L7.0372252,21.137539 L6.902676,21.233734 L6.764773,21.32356 L6.623643,21.406828 L6.4794335,21.483355 L6.332314,21.55297 L6.1824713,21.615528 L6.030111,21.67089 L5.875452,21.71895 L5.718728,21.75962 L5.5601788,21.792841 L5.4000497,21.818579 L5.2385864,21.83683 L5.076031,21.847614 L4.914509,20.85098 L4.7485785,21.84699 L4.5841217,21.835741 L4.419451,21.817335 L4.254754,21.791897 L4.0902033,21.75956 L3.9259584,21.720469 L3.762165,21.674778 L3.5989573,21.622648 L3.4364579,21.564243 L3.2747788,21.499731 L3.1140249,21.429287 L2.9542916,21.353083 L2.795669,21.271296 L2.6382415,21.18411 L2.4820874,21.091705 L2.327282,20.994268 L2.1738958,20.891985 L2.0219963,20.785048 L1.8716477,20.673649 L1.722911,20.557985 L1.5758444,20.438257 L1.430503,20.314669 L1.2869389,20.187424 L1.1452013,20.056734 L1.0053363,19.92281 L0.8673864,19.78587 L0.731391,19.646132 L0.597386,19.503819 L0.4654035,19.359154 L0.33547187,19.212366 L0.2076156,19.063684 L0.08185512,18.91334 L-0.04179326,18.761568 L-0.16331744,18.608603 L-0.28270963,18.454683 L0.0000000000000025148559,17.5 L0.28270963,18.454683 L0.16331744,18.608603 L0.04179326,18.761568 L-0.08185512,18.91334 L-0.2076156,19.063684 L-0.33547187,19.212366 L-0.4654035,19.359154 L-0.597386,19.503819 L-0.731391,19.646132 L-0.8673864,19.78587 L-1.0053363,19.92281 L-1.1452013,20.056734 L-1.2869389,20.187424 L-1.430503,20.314669 L-1.5758444,20.438257 L-1.722911,20.557985 L-1.8716477,20.673649 L-2.0219963,20.785048 L-2.1738958,20.891985 L-2.327282,20.994268 L-2.4820874,21.091705 L-2.6382415,21.18411 L-2.795669,21.271296 L-2.9542916,21.353083 L-3.1140249,21.429287 L-3.2747788,21.499731 L-3.4364579,21.564243 L-3.5989573,21.622648 L-3.762165,21.674778 L-3.9259584,21.720469 L-4.0902033,21.75956 L-4.254754,21.791897 L-4.419451,21.817335 L-4.5841217,21.835741 L-4.7485785,21.84699 L-4.914509,20.85098 L-5.076031,21.847614 L-5.2385864,21.83683 L-5.4000497,21.818579 L-5.5601788,21.792841 L-5.718728,21.75962 L-5.875452,21.71895 L-6.030111,21.67089 L-6.1824713,21.615528 L-6.332314,21.55297 L-6.4794335,21.483355 L-6.623643,21.406828 L-6.764773,21.32356 L-6.902676,21.233734 L-7.0372252,21.137539 L-7.1683125,21.035172 L-7.2958493,20.926836 L-7.4197645,20.812737 L-7.5400033,20.693077 L-7.656526,20.568066 L-7.7693043,20.437906 L-7.878322,20.302803 L-7.9835725,20.162954 L-8.085056,20.018562 L-8.182784,19.869827 L-8.276771,19.716946 L-8.367036,19.560116 L-8.453607,19.399536 L-8.536515,19.235403 L-8.615796,19.067917 L-8.691488,18.897276 L-8.763638,18.72368 L-8.832291,18.54733 L-8.897501,18.368435 L-8.959325,18.187191 L-9.017822,18.003809 L-9.073059,17.818493 L-9.125104,17.631453 L-9.174032,17.442898 L-9.219922,17.253036 L-9.2628565,17.06208 L-9.302922,16.87024 L-9.340212,16.677727 L-9.374823,16.48475 L-9.406856,16.291525 L-9.436416,16.098259 L-9.463614,15.905162 L-9.342247,16.00805 L-9.186395,15.142467 L-9.102588,16.172848 L-9.283871,16.24521 L-9.466438,16.315546 L-9.650166,16.383654 L-9.83492,16.449337 L-10.020569,16.512407 L-10.206979,16.572676 L-10.394011,16.629955 L-10.581526,16.684069 L-10.7693815,16.73484 L-10.957437,16.782097 L-11.145544,16.825674 L-11.33356,16.865404 L-11.521337,16.901134 L-11.708726,16.932707 L-11.895579,16.959974 L-12.081746,16.98279 L-12.2670765,17.00101 L-12.451418,17.014505 L-12.634618,17.023134 L-12.822454,16.026793 L-12.996969,17.025297 L-13.175806,17.018587 L-13.352869,17.006523 L-13.527993,16.988998 L-13.701008,16.965906 L-13.87174,16.937147 L-14.0400095,16.902628 L-14.205629,16.862265 L-14.368406,16.815983 L-14.528141,16.76372 L-14.684624,16.705421 L-14.83764,16.641054 L-14.986968,16.570599 L-15.132381,16.494057 L-15.27365,16.41145 L-15.410544,16.322824 L-15.542835,16.22825 L-15.670299,16.127821 L-15.792721,16.021658 L-15.909903,15.909903 L-16.021658,15.792721 L-16.127821,15.670299 L-16.22825,15.542835 L-16.322824,15.410544 L-16.41145,15.27365 L-16.494057,15.132381 L-16.570599,14.986968 L-16.641054,14.83764 L-16.705421,14.684624 L-16.76372,14.528141 L-16.815983,14.368406 L-16.862265,14.205629 L-16.902628,14.0400095 L-16.937147,13.87174 L-16.965906,13.701008 L-16.988998,13.527993 L-17.006523,13.352869 L-17.018587,13.175806 L-17.025297,12.996969 L-17.026773,12.81652 L-17.023134,12.634618 L-17.014505,12.451418 L-17.00101,12.2670765 L-16.98279,12.081746 L-16.959974,11.895579 L-16.932707,11.708726 L-16.901134,11.521337 L-16.865404,11.33356 L-16.825674,11.145544 L-16.782097,10.957437 L-16.73484,10.7693815 L-16.684069,10.581526 L-16.629955,10.394011 L-16.572676,10.206979 L-16.512407,10.020569 L-16.449337,9.83492 L-16.383654,9.650166 L-16.315546,9.466438 L-16.24521,9.283871 L-16.172848,9.102588 L-16.132462,9.045289 L-16.00805,9.342247 L-15.905162,9.463614 L-16.098259,9.436416 L-16.291525,9.406856 L-16.48475,9.374823 L-16.677727,9.340212 L-16.87024,9.302922 L-17.06208,9.2628565 L-17.253036,9.219922 L-17.442898,9.174032 L-17.631453,9.125104 L-17.818493,9.073059 L-18.003809,9.017822 L-18.187191,8.959325 L-18.368435,8.897501 L-18.54733,8.832291 L-18.72368,8.763638 L-18.897276,8.691488 L-19.067917,8.615796 L-19.235403,8.536515 L-19.399536,8.453607 L-19.560116,8.367036 L-19.716946,8.276771 L-19.869827,8.182784 L-20.018562,8.085056 L-20.162954,7.9835725 L-20.302803,7.878322 L-20.437906,7.7693043 L-20.568066,7.656526 L-20.693077,7.5400033 L-20.812737,7.4197645 L-20.926836,7.2958493 L-21.035172,7.1683125 L-21.137539,7.0372252 L-21.233734,6.902676 L-21.32356,6.764773 L-21.406828,6.623643 L-21.483355,6.4794335 L-21.55297,6.332314 L-21.615528,6.1824713 L-21.67089,6.030111 L-21.71895,5.875452 L-21.75962,5.718728 L-21.792841,5.5601788 L-21.818579,5.4000497 L-21.83683,5.2385864 L-21.847614,5.076031 L-21.850979,4.9126196 L-21.84699,4.7485785 L-21.835741,4.5841217 L-21.817335,4.419451 L-21.791897,4.254754 L-21.75956,4.0902033 L-21.720469,3.9259584 L-21.674778,3.762165 L-21.622648,3.5989573 L-21.564243,3.4364579 L-21.499731,3.2747788 L-21.429287,3.1140249 L-21.353083,2.9542916 L-21.271296,2.795669 L-21.18411,2.6382415 L-21.091705,2.4820874 L-20.994268,2.327282 L-20.891985,2.1738958 L-20.785048,2.0219963 L-20.673649,1.8716477 L-20.557985,1.722911 L-20.438257,1.5758444 L-20.314669,1.430503 L-20.187424,1.2869389 L-20.056734,1.1452013 L-19.92281,1.0053363 L-19.78587,0.8673864 L-19.646132,0.731391 L-19.503819,0.597386 L-19.359154,0.4654035 L-19.212366,0.33547187 L-19.063684,0.2076156 L-18.91334,0.08185512 L-18.761568,-0.04179326 L-18.608603,-0.16331744 L-18.454683,-0.28270963 L-18.5,-0.00000000000000057119333 L-18.454683,0.28270963 L-18.608603,0.16331744 L-18.761568,0.04179326 L-18.91334,-0.08185512 L-19.063684,-0.2076156 L-19.212366,-0.33547187 L-19.359154,-0.4654035 L-19.503819,-0.597386 L-19.646132,-0.731391 L-19.78587,-0.8673864 L-19.92281,-1.0053363 L-20.056734,-1.1452013 L-20.187424,-1.2869389 L-20.314669,-1.430503 L-20.438257,-1.5758444 L-20.557985,-1.722911 L-20.673649,-1.8716477 L-20.785048,-2.0219963 L-20.891985,-2.1738958 L-20.994268,-2.327282 L-21.091705,-2.4820874 L-21.18411,-2.6382415 L-21.271296,-2.795669 L-21.353083,-2.9542916 L-21.429287,-3.1140249 L-21.499731,-3.2747788 L-21.564243,-3.4364579 L-21.622648,-3.5989573 L-21.674778,-3.762165 L-21.720469,-3.9259584 L-21.75956,-4.0902033 L-21.791897,-4.254754 L-21.817335,-4.419451 L-21.835741,-4.5841217 L-21.84699,-4.7485785 L-21.850979,-4.9126196 L-21.847614,-5.076031 L-21.83683,-5.2385864 L-21.818579,-5.4000497 L-21.792841,-5.5601788 L-21.75962,-5.718728 L-21.71895,-5.875452 L-21.67089,-6.030111 L-21.615528,-6.1824713 L-21.55297,-6.332314 L-21.483355,-6.4794335 L-21.406828,-6.623643 L-21.32356,-6.764773 L-21.233734,-6.902676 L-21.137539,-7.0372252 L-21.035172,-7.1683125 L-20.926836,-7.2958493 L-20.812737,-7.4197645 L-20.693077,-7.5400033 L-20.568066,-7.656526 L-20.437906,-7.7693043 L-20.302803,-7.878322 L-20.162954,-7.9835725 L-20.018562,-8.085056 L-19.869827,-8.182784 L-19.716946,-8.276771 L-19.560116,-8.367036 L-19.399536,-8.453607 L-19.235403,-8.536515 L-19.067917,-8.615796 L-18.897276,-8.691488 L-18.72368,-8.763638 L-18.54733,-8.832291 L-18.368435,-8.897501 L-18.187191,-8.959325 L-18.003809,-9.017822 L-17.818493,-9.073059 L-17.631453,-9.125104 L-17.442898,-9.174032 L-17.253036,-9.219922 L-17.06208,-9.2628565 L-16.87024,-9.302922 L-16.677727,-9.340212 L-16.48475,-9.374823 L-16.291525,-9.406856 L-16.098259,-9.436416 L-15.905162,-9.463614 L-16.00805,-9.342247 L-16.132462,-9.045289 L-16.172848,-9.102588 L-16.24521,-9.283871 L-16.315546,-9.466438 L-16.383654,-9.650166 L-16.449337,-9.83492 L-16.512407,-10.020569 L-16.572676,-10.206979 L-16.629955,-10.394011 L-16.684069,-10.581526 L-16.73484,-10.7693815 L-16.782097,-10.957437 L-16.825674,-11.145544 L-16.865404,-11.33356 L-16.901134,-11.521337 L-16.932707,-11.708726 L-16.959974,-11.895579 L-16.98279,-12.081746 L-17.00101,-12.2670765 L-17.014505,-12.451418 L-17.023134,-12.634618 L-17.026773,-12.81652 L-17.025297,-12.996969 L-17.018587,-13.175806 L-17.006523,-13.352869 L-16.988998,-13.527993 L-16.965906,-13.701008 L-16.937147,-13.87174 L-16.902628,-14.0400095 L-16.862265,-14.205629 L-16.815983,-14.368406 L-16.76372,-14.528141 L-16.705421,-14.684624 L-16.641054,-14.83764 L-16.570599,-14.986968 L-16.494057,-15.132381 L-16.41145,-15.27365 L-16.322824,-15.410544 L-16.22825,-15.542835 L-16.127821,-15.670299 L-16.021658,-15.792721 L-15.909903,-15.909903 L-15.792721,-16.021658 L-15.670299,-16.127821 L-15.542835,-16.22825 L-15.410544,-16.322824 L-15.27365,-16.41145 L-15.132381,-16.494057 L-14.986968,-16.570599 L-14.83764,-16.641054 L-14.684624,-16.705421 L-14.528141,-16.76372 L-14.368406,-16.815983 L-14.205629,-16.862265 L-14.0400095,-16.902628 L-13.87174,-16.937147 L-13.701008,-16.965906 L-13.527993,-16.988998 L-13.352869,-17.006523 L-13.175806,-17.018587 L-12.996969,-17.025297 L-12.81652,-17.026773 L-12.634618,-17.023134 L-12.451418,-17.014505 L-12.2670765,-17.00101 L-12.081746,-16.98279 L-11.895579,-16.959974 L-11.708726,-16.932707 L-11.521337,-16.901134 L-11.33356,-16.865404 L-11.145544,-16.825674 L-10.957437,-16.782097 L-10.7693815,-16.73484 L-10.581526,-16.684069 L-10.394011,-16.629955 L-10.206979,-16.572676 L-10.020569,-16.512407 L-9.83492,-16.449337 L-9.650166,-16.383654 L-9.466438,-16.315546 L-9.283871,-16.24521 L-9.102588,-16.172848 L-9.045289,-16.132462 L-9.342247,-16.00805 L-9.463614,-15.905162 L-9.436416,-16.098259 L-9.406856,-16.291525 L-9.374823,-16.48475 L-9.340212,-16.677727 L-9.302922,-16.87024 L-9.2628565,-17.06208 L-9.219922,-17.253036 L-9.174032,-17.442898 L-9.125104,-17.631453 L-9.073059,-17.818493 L-9.017822,-18.003809 L-8.959325,-18.187191 L-8.897501,-18.368435 L-8.832291,-18.54733 L-8.763638,-18.72368 L-8.691488,-18.897276 L-8.615796,-19.067917 L-8.536515,-19.235403 L-8.453607,-19.399536 L-8.367036,-19.560116 L-8.276771,-19.716946 L-8.182784,-19.869827 L-8.085056,-20.018562 L-7.9835725,-20.162954 L-7.878322,-20.302803 L-7.7693043,-20.437906 L-7.656526,-20.568066 L-7.5400033,-20.693077 L-7.4197645,-20.812737 L-7.2958493,-20.926836 L-7.1683125,-21.035172 L-7.0372252,-21.137539 L-6.902676,-21.233734 L-6.764773,-21.32356 L-6.623643,-21.406828 L-6.4794335,-21.483355 L-6.332314,-21.55297 L-6.1824713,-21.615528 L-6.030111,-21.67089 L-5.875452,-21.71895 L-5.718728,-21.75962 L-5.5601788,-21.792841 L-5.4000497,-21.818579 L-5.2385864,-21.83683 L-5.076031,-21.847614 L-4.9126196,-21.850979 L-4.7485785,-21.84699 L-4.5841217,-21.835741 L-4.419451,-21.817335 L-4.254754,-21.791897 L-4.0902033,-21.75956 L-3.9259584,-21.720469 L-3.762165,-21.674778 L-3.5989573,-21.622648 L-3.4364579,-21.564243 L-3.2747788,-21.499731 L-3.1140249,-21.429287 L-2.9542916,-21.353083 L-2.795669,-21.271296 L-2.6382415,-21.18411 L-2.4820874,-21.091705 L-2.327282,-20.994268 L-2.1738958,-20.891985 L-2.0219963,-20.785048 L-1.8716477,-20.673649 L-1.722911,-20.557985 L-1.5758444,-20.438257 L-1.430503,-20.314669 L-1.2869389,-20.187424 L-1.1452013,-20.056734 L-1.0053363,-19.92281 L-0.8673864,-19.78587 L-0.731391,-19.646132 L-0.597386,-19.503819 L-0.4654035,-19.359154 L-0.33547187,-19.212366 L-0.2076156,-19.063684 L-0.08185512,-18.91334 L0.04179326,-18.761568 L0.16331744,-18.608603 L0.28270963,-18.454683 L0.000000000000007987112,-18.5 L-0.28270963,-18.454683 L-0.16331744,-18.608603 L-0.04179326,-18.761568 L0.08185512,-18.91334 L0.2076156,-19.063684 L0.33547187,-19.212366 L0.4654035,-19.359154 L0.597386,-19.503819 L0.731391,-19.646132 L0.8673864,-19.78587 L1.0053363,-19.92281 L1.1452013,-20.056734 L1.2869389,-20.187424 L1.430503,-20.314669 L1.5758444,-20.438257 L1.722911,-20.557985 L1.8716477,-20.673649 L2.0219963,-20.785048 L2.1738958,-20.891985 L2.327282,-20.994268 L2.4820874,-21.091705 L2.6382415,-21.18411 L2.795669,-21.271296 L2.9542916,-21.353083 L3.1140249,-21.429287 L3.2747788,-21.499731 L3.4364579,-21.564243 L3.5989573,-21.622648 L3.762165,-21.674778 L3.9259584,-21.720469 L4.0902033,-21.75956 L4.254754,-21.791897 L4.419451,-21.817335 L4.5841217,-21.835741 L4.7485785,-21.84699 L4.9126196,-21.850979 L5.076031,-21.847614 L5.2385864,-21.83683 L5.4000497,-21.818579 L5.5601788,-21.792841 L5.718728,-21.75962 L5.875452,-21.71895 L6.030111,-21.67089 L6.1824713,-21.615528 L6.332314,-21.55297 L6.4794335,-21.483355 L6.623643,-21.406828 L6.764773,-21.32356 L6.902676,-21.233734 L7.0372252,-21.137539 L7.1683125,-21.035172 L7.2958493,-20.926836 L7.4197645,-20.812737 L7.5400033,-20.693077 L7.656526,-20.568066 L7.7693043,-20.437906 L7.878322,-20.302803 L7.9835725,-20.162954 L8.085056,-20.018562 L8.182784,-19.869827 L8.276771,-19.716946 L8.367036,-19.560116 L8.453607,-19.399536 L8.536515,-19.235403 L8.615796,-19.067917 L8.691488,-18.897276 L8.763638,-18.72368 L8.832291,-18.54733 L8.897501,-18.368435 L8.959325,-18.187191 L9.017822,-18.003809 L9.073059,-17.818493 L9.125104,-17.631453 L9.174032,-17.442898 L9.219922,-17.253036 L9.2628565,-17.06208 L9.302922,-16.87024 L9.340212,-16.677727 L9.374823,-16.48475 L9.406856,-16.291525 L9.436416,-16.098259 L9.463614,-15.905162 L9.342247,-16.00805 L9.045289,-16.132462 L9.102588,-16.172848 L9.283871,-16.24521 L9.466438,-16.315546 L9.650166,-16.383654 L9.83492,-16.449337 L10.020569,-16.512407 L10.206979,-16.572676 L10.394011,-16.629955 L10.581526,-16.684069 L10.7693815,-16.73484 L10.957437,-16.782097 L11.145544,-16.825674 L11.33356,-16.865404 L11.521337,-16.901134 L11.708726,-16.932707 L11.895579,-16.959974 L12.081746,-16.98279 L12.2670765,-17.00101 L12.451418,-17.014505 L12.634618,-17.023134 L12.81652,-17.026773 L12.996969,-17.025297 L13.175806,-17.018587 L13.352869,-17.006523 L13.527993,-16.988998 L13.701008,-16.965906 L13.87174,-16.937147 L14.0400095,-16.902628 L14.205629,-16.862265 L14.368406,-16.815983 L14.528141,-16.76372 L14.684624,-16.705421 L14.83764,-16.641054 L14.986968,-16.570599 L15.132381,-16.494057 L15.27365,-16.41145 L15.410544,-16.322824 L15.542835,-16.22825 L15.670299,-16.127821 L15.792721,-16.021658 L15.909903,-15.909903 L16.021658,-15.792721 L16.127821,-15.670299 L16.22825,-15.542835 L16.322824,-15.410544 L16.41145,-15.27365 L16.494057,-15.132381 L16.570599,-14.986968 L16.641054,-14.83764 L16.705421,-14.684624 L16.76372,-14.528141 L16.815983,-14.368406 L16.862265,-14.205629 L16.902628,-14.0400095 L16.937147,-13.87174 L16.965906,-13.701008 L16.988998,-13.527993 L17.006523,-13.352869 L17.018587,-13.175806 L17.025297,-12.996969 L17.026773,-12.81652 L17.023134,-12.634618 L17.014505,-12.451418 L17.00101,-12.2670765 L16.98279,-12.081746 L16.959974,-11.895579 L16.932707,-11.708726 L16.901134,-11.521337 L16.865404,-11.33356 L16.825674,-11.145544 L16.782097,-10.957437 L16.73484,-10.7693815 L16.684069,-10.581526 L16.629955,-10.394011 L16.572676,-10.206979 L16.512407,-10.020569 L16.449337,-9.83492 L16.383654,-9.650166 L16.315546,-9.466438 L16.24521,-9.283871 L16.172848,-9.102588 L16.132462,-9.045289 L16.00805,-9.342247 L15.905162,-9.463614 L16.098259,-9.436416 L16.291525,-9.406856 L16.48475,-9.374823 L16.677727,-9.340212 L16.87024,-9.302922 L17.06208,-9.2628565 L17.253036,-9.219922 L17.442898,-9.174032 L17.631453,-9.125104 L17.818493,-9.073059 L18.003809,-9.017822 L18.187191,-8.959325 L18.368435,-8.897501 L18.54733,-8.832291 L18.72368,-8.763638 L18.897276,-8.691488 L19.067917,-8.615796 L19.235403,-8.536515 L19.399536,-8.453607 L19.560116,-8.367036 L19.716946,-8.276771 L19.869827,-8.182784 L20.018562,-8.085056 L20.162954,-7.9835725 L20.302803,-7.878322 L20.437906,-7.7693043 L20.568066,-7.656526 L20.693077,-7.5400033 L20.812737,-7.4197645 L20.926836,-7.2958493 L21.035172,-7.1683125 L21.137539,-7.0372252 L21.233734,-6.902676 L21.32356,-6.764773 L21.406828,-6.623643 L21.483355,-6.4794335 L21.55297,-6.332314 L21.615528,-6.1824713 L21.67089,-6.030111 L21.71895,-5.875452 L21.75962,-5.718728 L21.792841,-5.5601788 L21.818579,-5.4000497 L21.83683,-5.2385864 L21.847614,-5.076031 L21.850979,-4.9126196 L21.84699,-4.7485785 L21.835741,-4.5841217 L21.817335,-4.419451 L21.791897,-4.254754 L21.75956,-4.0902033 L21.720469,-3.9259584 L21.674778,-3.762165 L21.622648,-3.5989573 L21.564243,-3.4364579 L21.499731,-3.2747788 L21.429287,-3.1140249 L21.353083,-2.9542916 L21.271296,-2.795669 L21.18411,-2.6382415 L21.091705,-2.4820874 L20.994268,-2.327282 L20.891985,-2.1738958 L20.785048,-2.0219963 L20.673649,-1.8716477 L20.557985,-1.722911 L20.438257,-1.5758444 L20.314669,-1.430503 L20.187424,-1.2869389 L20.056734,-1.1452013 L19.92281,-1.0053363 L19.78587,-0.8673864 L19.646132,-0.731391 L19.503819,-0.597386 L19.359154,-0.4654035 L19.212366,-0.33547187 L19.063684,-0.2076156 L18.91334,-0.08185512 L18.761568,0.04179326 L18.608603,0.16331744 L18.454683,0.28270963 L18.302101,0.39841524" fill="none" stroke="black" stroke-width="0.05"/>
<path d="M17.697899,0.39841524 L17.846123,0.5107973 L17.991121,0.62326735 L18.134727,0.7373544 L18.276716,0.8530298 L18.416862,0.97025806 L18.554947,1.0889971 L18.690746,1.2091985 L18.824043,1.3308067 L18.954624,1.45376 L19.082277,1.5779902 L19.206797,1.7034224 L19.327978,1.829976 L19.445627,1.9575633 L19.55955,2.0860913 L19.669563,2.215461 L19.77549,2.3455675 L19.87716,2.4763005 L19.97441,2.6075454 L20.06709,2.739182 L20.155056,2.8710866 L20.238176,3.0031314 L20.316328,3.1351862 L20.389402,3.2671185 L20.457304,3.3987947 L20.519947,3.530081 L20.577261,3.660845 L20.629187,3.790957 L20.675682,3.9202905 L20.716717,4.048726 L20.752274,4.1761503 L20.782345,4.3024607 L20.806942,4.4275637 L20.826077,4.5513797 L20.839773,4.6738415 L20.848064,4.794897 L20.85098,4.914509 L20.848557,5.032654 L20.840822,5.1493225 L20.827806,5.2645173 L20.809528,5.3782506 L20.786003,5.4905405 L20.757233,5.6014094 L20.723213,5.71088 L20.683933,5.818971 L20.639374,5.925695 L20.58951,6.031056 L20.534319,6.1350455 L20.473776,6.237644 L20.407862,6.33882 L20.336563,6.4385276 L20.259878,6.5367103 L20.177816,6.6333017 L20.090395,6.7282267 L19.997654,6.8214035 L19.899643,6.9127455 L19.796427,7.002165 L19.688087,7.089572 L19.574722,7.1748796 L19.456442,7.258002 L19.333366,7.3388586 L19.205635,7.4173737 L19.073395,7.4934783 L18.936802,7.5671096 L18.796026,7.6382127 L18.651241,7.706741 L18.50263,7.7726555 L18.350384,7.8359256 L18.194696,7.8965297 L18.035772,7.954455 L17.873814,8.009696 L17.709028,8.062257 L17.541628,8.112149 L17.371828,8.159394 L17.199842,8.20402 L17.025888,8.246062 L16.850182,8.285564 L16.67294,8.322579 L16.494377,8.357164 L16.314713,8.389385 L16.134157,8.419315 L15.952926,8.447033 L15.771228,8.472624 L15.29366,8.642499 L15.142467,9.186395 L15.246237,9.478607 L15.314252,9.6489935 L15.380131,9.819992 L15.443698,9.991463 L15.504778,10.16326 L15.563205,10.335233 L15.6188135,10.507226 L15.671449,10.67908 L15.720958,10.850631 L15.767199,11.021712 L15.810034,11.192153 L15.849332,11.361781 L15.884974,11.53042 L15.916844,11.697893 L15.9448395,11.86402 L15.9688635,12.028622 L15.988832,12.191518 L16.00467,12.352527 L16.01631,12.51147 L16.023699,12.668171 L16.026793,12.822454 L16.025558,12.974149 L16.019978,13.123088 L16.010036,13.269114 L15.99574,13.41207 L15.9770975,13.551814 L15.954132,13.688212 L15.926873,13.821139 L15.895362,13.950486 L15.859642,14.076155 L15.819765,14.198065 L15.775784,14.316147 L15.727754,14.430352 L15.675727,14.540645 L15.619752,14.647003 L15.559874,14.74942 L15.496125,14.847901 L15.428533,14.942458 L15.357112,15.033112 L15.281868,15.119884 L15.202796,15.202796 L15.119884,15.281868 L15.033112,15.357112 L14.942458,15.428533 L14.847901,15.496125 L14.74942,15.559874 L14.647003,15.619752 L14.540645,15.675727 L14.430352,15.727754 L14.316147,15.775784 L14.198065,15.819765 L14.076155,15.859642 L13.950486,15.895362 L13.821139,15.926873 L13.688212,15.954132 L13.551814,15.9770975 L13.41207,15.99574 L13.269114,16.010036 L13.123088,16.019978 L12.974149,16.025558 L12.81652,17.026773 L12.668171,16.023699 L12.51147,16.01631 L12.352527,16.00467 L12.191518,15.988832 L12.028622,15.9688635 L11.86402,15.9448395 L11.697893,15.916844 L11.53042,15.884974 L11.361781,15.849332 L11.192153,15.810034 L11.021712,15.767199 L10.850631,15.720958 L10.67908,15.671449 L10.507226,15.6188135 L10.335233,15.563205 L10.16326,15.504778 L9.991463,15.443698 L9.819992,15.380131 L9.6489935,15.314252 L9.478607,15.246237 L9.045289,16.132462 L8.642499,15.29366 L8.472624,15.771228 L8.447033,15.952926 L8.419315,16.134157 L8.389385,16.314713 L8.357164,16.494377 L8.322579,16.67294 L8.285564,16.850182 L8.246062,17.025888 L8.20402,17.199842 L8.159394,17.371828 L8.112149,17.541628 L8.062257,17.709028 L8.009696,17.873814 L7.954455,18.035772 L7.8965297,18.194696 L7.8359256,18.350384 L7.7726555,18.50263 L7.706741,18.651241 L7.6382127,18.796026 L7.5671096,18.936802 L7.4934783,19.073395 L7.4173737,19.205635 L7.3388586,19.333366 L7.258002,19.456442 L7.1748796,19.574722 L7.089572,19.688087 L7.002165,19.796427 L6.9127455,19.899643 L6.8214035,19.997654 L6.7282267,20.090395 L6.6333017,20.177816 L6.5367103,20.259878 L6.4385276,20.336563 L6.33882,20.407862 L6.237644,20.473776 L6.1350455,20.534319 L6.031056,20.58951 L5.925695,20.639374 L5.818971,20.683933 L5.71088,20.723213 L5.6014094,20.757233 L5.4905405,20.786003 L5.3782506,20.809528 L5.2645173,20.827806 L5.1493225,20.840822 L5.032654,20.848557 L4.9126196,21.850979 L4.794897,20.848064 L4.6738415,20.839773 L4.5513797,20.826077 L4.4275637,20.806942 L4.3024607,20.782345 L4.1761503,20.752274 L4.048726,20.716717 L3.9202905,20.675682 L3.790957,20.629187 L3.660845,20.577261 L3.530081,20.519947 L3.3987947,20.457304 L3.2671185,20.389402 L3.1351862,20.316328 L3.0031314,20.238176 L2.8710866,20.155056 L2.739182,20.06709 L2.6075454,19.97441 L2.4763005,19.87716 L2.3455675,19.77549 L2.215461,19.669563 L2.0860913,19.55955 L1.9575633,19.445627 L1.829976,19.327978 L1.7034224,19.206797 L1.5779902,19.082277 L1.45376,18.954624 L1.3308067,18.824043 L1.2091985,18.690746 L1.0889971,18.554947 L0.97025806,18.416862 L0.8530298,18.276716 L0.7373544,18.134727 L0.62326735,17.991121 L0.5107973,17.846123 L-0.00000000000000031049165,18.5 L-0.5107973,17.846123 L-0.62326735,17.991121 L-0.7373544,18.134727 L-0.8530298,18.276716 L-0.97025806,18.416862 L-1.0889971,18.554947 L-1.2091985,18.690746 L-1.3308067,18.824043 L-1.45376,18.954624 L-1.5779902,19.082277 L-1.7034224,19.206797 L-1.829976,19.327978 L-1.9575633,19.445627 L-2.0860913,19.55955 L-2.215461,19.669563 L-2.3455675,19.77549 L-2.4763005,19.87716 L-2.6075454,19.97441 L-2.739182,20.06709 L-2.8710866,20.155056 L-3.0031314,20.238176 L-3.1351862,20.316328 L-3.2671185,20.389402 L-3.3987947,20.457304 L-3.530081,20.519947 L-3.660845,20.577261 L-3.790957,20.629187 L-3.9202905,20.675682 L-4.048726,20.716717 L-4.1761503,20.752274 L-4.3024607,20.782345 L-4.4275637,20.806942 L-4.5513797,20.826077 L-4.6738415,20.839773 L-4.794897,20.848064 L-4.9126196,21.850979 L-5.032654,20.848557 L-5.1493225,20.840822 L-5.2645173,20.827806 L-5.3782506,20.809528 L-5.4905405,20.786003 L-5.6014094,20.757233 L-5.71088,20.723213 L-5.818971,20.683933 L-5.925695,20.639374 L-6.031056,20.58951 L-6.1350455,20.534319 L-6.237644,20.473776 L-6.33882,20.407862 L-6.4385276,20.336563 L-6.5367103,20.259878 L-6.6333017,20.177816 L-6.7282267,20.090395 L-6.8214035,19.997654 L-6.9127455,19.899643 L-7.002165,19.796427 L-7.089572,19.688087 L-7.1748796,19.574722 L-7.258002,19.456442 L-7.3388586,19.333366 L-7.4173737,19.205635 L-7.4934783,19.073395 L-7.5671096,18.936802 L-7.6382127,18.796026 L-7.706741,18.651241 L-7.7726555,18.50263 L-7.8359256,18.350384 L-7.8965297,18.194696 L-7.954455,18.035772 L-8.009696,17.873814 L-8.062257,17.709028 L-8.112149,17.541628 L-8.159394,17.371828 L-8.20402,17.199842 L-8.246062,17.025888 L-8.285564,16.850182 L-8.322579,16.67294 L-8.357164,16.494377 L-8.389385,16.314713 L-8.419315,16.134157 L-8.447033,15.952926 L-8.472624,15.771228 L-8.642499,15.29366 L-9.045289,16.132462 L-9.478607,15.246237 L-9.6489935,15.314252 L-9.819992,15.380131 L-9.991463,15.443698 L-10.16326,15.504778 L-10.335233,15.563205 L-10.507226,15.6188135 L-10.67908,15.671449 L-10.850631,15.720958 L-11.021712,15.767199 L-11.192153,15.810034 L-11.361781,15.849332 L-11.53042,15.884974 L-11.697893,15.916844 L-11.86402,15.9448395 L-12.028622,15.9688635 L-12.191518,15.988832 L-12.352527,16.00467 L-12.51147,16.01631 L-12.668171,16.023699 L-12.81652,17.026773 L-12.974149,16.025558 L-13.123088,16.019978 L-13.269114,16.010036 L-13.41207,15.99574 L-13.551814,15.9770975 L-13.688212,15.954132 L-13.821139,15.926873 L-13.950486,15.895362 L-14.076155,15.859642 L-14.198065,15.819765 L-14.316147,15.775784 L-14.430352,15.727754 L-14.540645,15.675727 L-14.647003,15.619752 L-14.74942,15.559874 L-14.847901,15.496125 L-14.942458,15.428533 L-15.033112,15.357112 L-15.119884,15.281868 L-15.202796,15.202796 L-15.281868,15.119884 L-15.357112,15.033112 L-15.428533,14.942458 L-15.496125,14.847901 L-15.559874,14.74942 L-15.619752,14.647003 L-15.675727,14.540645 L-15.727754,14.430352 L-15.775784,14.316147 L-15.819765,14.198065 L-15.859642,14.076155 L-15.895362,13.950486 L-15.926873,13.821139 L-15.954132,13.688212 L-15.9770975,13.551814 L-15.99574,13.41207 L-16.010036,13.269114 L-16.019978,13.123088 L-16.025558,12.974149 L-16.026793,12.822454 L-16.023699,12.668171 L-16.01631,12.51147 L-16.00467,12.352527 L-15.988832,12.191518 L-15.9688635,12.028622 L-15.9448395,11.86402 L-15.916844,11.697893 L-15.884974,11.53042 L-15.849332,11.361781 L-15.810034,11.192153 L-15.767199,11.021712 L-15.720958,10.850631 L-15.671449,10.67908 L-15.6188135,10.507226 L-15.563205,10.335233 L-15.504778,10.16326 L-15.443698,9.991463 L-15.380131,9.819992 L-15.314252,9.6489935 L-15.246237,9.478607 L-15.142467,9.186395 L-15.29366,8.642499 L-15.771228,8.472624 L-15.952926,8.447033 L-16.134157,8.419315 L-16.314713,8.389385 L-16.494377,8.357164 L-16.67294,8.322579 L-16.850182,8.285564 L-17.025888,8.246062 L-17.199842,8.20402 L-17.371828,8.159394 L-17.541628,8.112149 L-17.709028,8.062257 L-17.873814,8.009696 L-18.035772,7.954455 L-18.194696,7.8965297 L-18.350384,7.8359256 L-18.50263,7.7726555 L-18.651241,7.706741 L-18.796026,7.6382127 L-18.936802,7.5671096 L-19.073395,7.4934783 L-19.205635,7.4173737 L-19.333366,7.3388586 L-19.456442,7.258002 L-19.574722,7.1748796 L-19.688087,7.089572 L-19.796427,7.002165 L-19.899643,6.9127455 L-19.997654,6.8214035 L-20.090395,6.7282267 L-20.177816,6.6333017 L-20.259878,6.5367103 L-20.336563,6.4385276 L-20.407862,6.33882 L-20.473776,6.237644 L-20.534319,6.1350455 L-20.58951,6.031056 L-20.639374,5.925695 L-20.683933,5.818971 L-20.723213,5.71088 L-20.757233,5.6014094 L-20.786003,5.4905405 L-20.809528,5.3782506 L-20.827806,5.2645173 L-20.840822,5.1493225 L-20.848557,5.032654 L-20.85098,4.914509 L-20.848064,4.794897 L-20.839773,4.6738415 L-20.826077,4.5513797 L-20.806942,4.4275637 L-20.782345,4.3024607 L-20.752274,4.1761503 L-20.716717,4.048726 L-20.675682,3.9202905 L-20.629187,3.790957 L-20.577261,3.660845 L-20.519947,3.530081 L-20.457304,3.3987947 L-20.389402,3.2671185 L-20.316328,3.1351862 L-20.238176,3.0031314 L-20.155056,2.8710866 L-20.06709,2.739182 L-19.97441,2.6075454 L-19.87716,2.4763005 L-19.77549,2.3455675 L-19.669563,2.215461 L-19.55955,2.0860913 L-19.445627,1.9575633 L-19.327978,1.829976 L-19.206797,1.7034224 L-19.082277,1.5779902 L-18.954624,1.45376 L-18.824043,1.3308067 L-18.690746,1.2091985 L-18.554947,1.0889971 L-18.416862,0.97025806 L-18.276716,0.8530298 L-18.134727,0.7373544 L-17.991121,0.62326735 L-17.846123,0.5107973 L-17.5,0.000000000000004979922 L-17.846123,-0.5107973 L-17.991121,-0.62326735 L-18.134727,-0.7373544 L-18.276716,-0.8530298 L-18.416862,-0.97025806 L-18.554947,-1.0889971 L-18.690746,-1.2091985 L-18.824043,-1.3308067 L-18.954624,-1.45376 L-19.082277,-1.5779902 L-19.206797,-1.7034224 L-19.327978,-1.829976 L-19.445627,-1.9575633 L-19.55955,-2.0860913 L-19.669563,-2.215461 L-19.77549,-2.3455675 L-19.87716,-2.4763005 L-19.97441,-2.6075454 L-20.06709,-2.739182 L-20.155056,-2.8710866 L-20.238176,-3.0031314 L-20.316328,-3.1351862 L-20.389402,-3.2671185 L-20.457304,-3.3987947 L-20.519947,-3.530081 L-20.577261,-3.660845 L-20.629187,-3.790957 L-20.675682,-3.9202905 L-20.716717,-4.048726 L-20.752274,-4.1761503 L-20.782345,-4.3024607 L-20.806942,-4.4275637 L-20.826077,-4.5513797 L-20.839773,-4.6738415 L-20.848064,-4.794897 L-20.85098,-4.914509 L-20.848557,-5.032654 L-20.840822,-5.1493225 L-20.827806,-5.2645173 L-20.809528,-5.3782506 L-20.786003,-5.4905405 L-20.757233,-5.6014094 L-20.723213,-5.71088 L-20.683933,-5.818971 L-20.639374,-5.925695 L-20.58951,-6.031056 L-20.534319,-6.1350455 L-20.473776,-6.237644 L-20.407862,-6.33882 L-20.336563,-6.4385276 L-20.259878,-6.5367103 L-20.177816,-6.6333017 L-20.090395,-6.7282267 L-19.997654,-6.8214035 L-19.899643,-6.9127455 L-19.796427,-7.002165 L-19.688087,-7.089572 L-19.574722,-7.1748796 L-19.456442,-7.258002 L-19.333366,-7.3388586 L-19.205635,-7.4173737 L-19.073395,-7.4934783 L-18.936802,-7.5671096 L-18.796026,-7.6382127 L-18.651241,-7.706741 L-18.50263,-7.7726555 L-18.350384,-7.8359256 L-18.194696,-7.8965297 L-18.035772,-7.954455 L-17.873814,-8.009696 L-17.709028,-8.062257 L-17.541628,-8.112149 L-17.371828,-8.159394 L-17.199842,-8.20402 L-17.025888,-8.246062 L-16.850182,-8.285564 L-16.67294,-8.322579 L-16.494377,-8.357164 L-16.314713,-8.389385 L-16.134157,-8.419315 L-15.952926,-8.447033 L-15.771228,-8.472624 L-15.29366,-8.642499 L-15.142467,-9.186395 L-15.246237,-9.478607 L-15.314252,-9.6489935 L-15.380131,-9.819992 L-15.443698,-9.991463 L-15.504778,-10.16326 L-15.563205,-10.335233 L-15.6188135,-10.507226 L-15.671449,-10.67908 L-15.720958,-10.850631 L-15.767199,-11.021712 L-15.810034,-11.192153 L-15.849332,-11.361781 L-15.884974,-11.53042 L-15.916844,-11.697893 L-15.9448395,-11.86402 L-15.9688635,-12.028622 L-15.988832,-12.191518 L-16.00467,-12.352527 L-16.01631,-12.51147 L-16.023699,-12.668171 L-16.026793,-12.822454 L-16.025558,-12.974149 L-16.019978,-13.123088 L-16.010036,-13.269114 L-15.99574,-13.41207 L-15.9770975,-13.551814 L-15.954132,-13.688212 L-15.926873,-13.821139 L-15.895362,-13.950486 L-15.859642,-14.076155 L-15.819765,-14.198065 L-15.775784,-14.316147 L-15.727754,-14.430352 L-15.675727,-14.540645 L-15.619752,-14.647003 L-15.559874,-14.74942 L-15.496125,-14.847901 L-15.428533,-14.942458 L-15.357112,-15.033112 L-15.281868,-15.119884 L-15.202796,-15.202796 L-15.119884,-15.281868 L-15.033112,-15.357112 L-14.942458,-15.428533 L-14.847901,-15.496125 L-14.74942,-15.559874 L-14.647003,-15.619752 L-14.540645,-15.675727 L-14.430352,-15.727754 L-14.316147,-15.775784 L-14.198065,-15.819765 L-14.076155,-15.859642 L-13.950486,-15.895362 L-13.821139,-15.926873 L-13.688212,-15.954132 L-13.551814,-15.9770975 L-13.41207,-15.99574 L-13.269114,-16.010036 L-13.123088,-16.019978 L-12.974149,-16.025558 L-12.822454,-16.026793 L-12.668171,-16.023699 L-12.51147,-16.01631 L-12.352527,-16.00467 L-12.191518,-15.988832 L-12.028622,-15.9688635 L-11.86402,-15.9448395 L-11.697893,-15.916844 L-11.53042,-15.884974 L-11.361781,-15.849332 L-11.192153,-15.810034 L-11.021712,-15.767199 L-10.850631,-15.720958 L-10.67908,-15.671449 L-10.507226,-15.6188135 L-10.335233,-15.563205 L-10.16326,-15.504778 L-9.991463,-15.443698 L-9.819992,-15.380131 L-9.6489935,-15.314252 L-9.478607,-15.246237 L-9.186395,-15.142467 L-8.642499,-15.29366 L-8.472624,-15.771228 L-8.447033,-15.952926 L-8.419315,-16.134157 L-8.389385,-16.314713 L-8.357164,-16.494377 L-8.322579,-16.67294 L-8.285564,-16.850182 L-8.246062,-17.025888 L-8.20402,-17.199842 L-8.159394,-17.371828 L-8.112149,-17.541628 L-8.062257,-17.709028 L-8.009696,-17.873814 L-7.954455,-18.035772 L-7.8965297,-18.194696 L-7.8359256,-18.350384 L-7.7726555,-18.50263 L-7.706741,-18.651241 L-7.6382127,-18.796026 L-7.5671096,-18.936802 L-7.4934783,-19.073395 L-7.4173737,-19.205635 L-7.3388586,-19.333366 L-7.258002,-19.456442 L-7.1748796,-19.574722 L-7.089572,-19.688087 L-7.002165,-19.796427 L-6.9127455,-19.899643 L-6.8214035,-19.997654 L-6.7282267,-20.090395 L-6.6333017,-20.177816 L-6.5367103,-20.259878 L-6.4385276,-20.336563 L-6.33882,-20.407862 L-6.237644,-20.473776 L-6.1350455,-20.534319 L-6.031056,-20.58951 L-5.925695,-20.639374 L-5.818971,-20.683933 L-5.71088,-20.723213 L-5.6014094,-20.757233 L-5.4905405,-20.786003 L-5.3782506,-20.809528 L-5.2645173,-20.827806 L-5.1493225,-20.840822 L-5.032654,-20.848557 L-4.914509,-20.85098 L-4.794897,-20.848064 L-4.6738415,-20.839773 L-4.5513797,-20.826077 L-4.4275637,-20.806942 L-4.3024607,-20.782345 L-4.1761503,-20.752274 L-4.048726,-20.716717 L-3.9202905,-20.675682 L-3.790957,-20.629187 L-3.660845,-20.577261 L-3.530081,-20.519947 L-3.3987947,-20.457304 L-3.2671185,-20.389402 L-3.1351862,-20.316328 L-3.0031314,-20.238176 L-2.8710866,-20.155056 L-2.739182,-20.06709 L-2.6075454,-19.97441 L-2.4763005,-19.87716 L-2.3455675,-19.77549 L-2.215461,-19.669563 L-2.0860913,-19.55955 L-1.9575633,-19.445627 L-1.829976,-19.327978 L-1.7034224,-19.206797 L-1.5779902,-19.082277 L-1.45376,-18.954624 L-1.3308067,-18.824043 L-1.2091985,-18.690746 L-1.0889971,-18.554947 L-0.97025806,-18.416862 L-0.8530298,-18.276716 L-0.7373544,-18.134727 L-0.62326735,-17.991121 L-0.5107973,-17.846123 L-0.000000000000014600205,-17.5 L0.5107973,-17.846123 L0.62326735,-17.991121 L0.7373544,-18.134727 L0.8530298,-18.276716 L0.97025806,-18.416862 L1.0889971,-18.554947 L1.2091985,-18.690746 L1.3308067,-18.824043 L1.45376,-18.954624 L1.5779902,-19.082277 L1.7034224,-19.206797 L1.829976,-19.327978 L1.9575633,-19.445627 L2.0860913,-19.55955 L2.215461,-19.669563 L2.3455675,-19.77549 L2.4763005,-19.87716 L2.6075454,-19.97441 L2.739182,-20.06709 L2.8710866,-20.155056 L3.0031314,-20.238176 L3.1351862,-20.316328 L3.2671185,-20.389402 L3.3987947,-20.457304 L3.530081,-20.519947 L3.660845,-20.577261 L3.790957,-20.629187 L3.9202905,-20.675682 L4.048726,-20.716717 L4.1761503,-20.752274 L4.3024607,-20.782345 L4.4275637,-20.806942 L4.5513797,-20.826077 L4.6738415,-20.839773 L4.794897,-20.848064 L4.914509,-20.85098 L5.032654,-20.848557 L5.1493225,-20.840822 L5.2645173,-20.827806 L5.3782506,-20.809528 L5.4905405,-20.786003 L5.6014094,-20.757233 L5.71088,-20.723213 L5.818971,-20.683933 L5.925695,-20.639374 L6.031056,-20.58951 L6.1350455,-20.534319 L6.237644,-20.473776 L6.33882,-20.407862 L6.4385276,-20.336563 L6.5367103,-20.259878 L6.6333017,-20.177816 L6.7282267,-20.090395 L6.8214035,-19.997654 L6.9127455,-19.899643 L7.002165,-19.796427 L7.089572,-19.688087 L7.1748796,-19.574722 L7.258002,-19.456442 L7.3388586,-19.333366 L7.4173737,-19.205635 L7.4934783,-19.073395 L7.5671096,-18.936802 L7.6382127,-18.796026 L7.706741,-18.651241 L7.7726555,-18.50263 L7.8359256,-18.350384 L7.8965297,-18.194696 L7.954455,-18.035772 L8.009696,-17.873814 L8.062257,-17.709028 L8.112149,-17.541628 L8.159394,-17.371828 L8.20402,-17.199842 L8.246062,-17.025888 L8.285564,-16.850182 L8.322579,-16.67294 L8.357164,-16.494377 L8.389385,-16.314713 L8.419315,-16.134157 L8.447033,-15.952926 L8.472624,-15.771228 L8.642499,-15.29366 L9.186395,-15.142467 L9.478607,-15.246237 L9.6489935,-15.314252 L9.819992,-15.380131 L9.991463,-15.443698 L10.16326,-15.504778 L10.335233,-15.563205 L10.507226,-15.6188135 L10.67908,-15.671449 L10.850631,-15.720958 L11.021712,-15.767199 L11.192153,-15.810034 L11.361781,-15.849332 L11.53042,-15.884974 L11.697893,-15.916844 L11.86402,-15.9448395 L12.028622,-15.9688635 L12.191518,-15.988832 L12.352527,-16.00467 L12.51147,-16.01631 L12.668171,-16.023699 L12.822454,-16.026793 L12.974149,-16.025558 L13.123088,-16.019978 L13.269114,-16.010036 L13.41207,-15.99574 L13.551814,-15.9770975 L13.688212,-15.954132 L13.821139,-15.926873 L13.950486,-15.895362 L14.076155,-15.859642 L14.198065,-15.819765 L14.316147,-15.775784 L14.430352,-15.727754 L14.540645,-15.675727 L14.647003,-15.619752 L14.74942,-15.559874 L14.847901,-15.496125 L14.942458,-15.428533 L15.033112,-15.357112 L15.119884,-15.281868 L15.202796,-15.202796 L15.281868,-15.119884 L15.357112,-15.033112 L15.428533,-14.942458 L15.496125,-14.847901 L15.559874,-14.74942 L15.619752,-14.647003 L15.675727,-14.540645 L15.727754,-14.430352 L15.775784,-14.316147 L15.819765,-14.198065 L15.859642,-14.076155 L15.895362,-13.950486 L15.926873,-13.821139 L15.954132,-13.688212 L15.9770975,-13.551814 L15.99574,-13.41207 L16.010036,-13.269114 L16.019978,-13.123088 L16.025558,-12.974149 L16.026793,-12.822454 L16.023699,-12.668171 L16.01631,-12.51147 L16.00467,-12.352527 L15.988832,-12.191518 L15.9688635,-12.028622 L15.9448395,-11.86402 L15.916844,-11.697893 L15.884974,-11.53042 L15.849332,-11.361781 L15.810034,-11.192153 L15.767199,-11.021712 L15.720958,-10.850631 L15.671449,-10.67908 L15.6188135,-10.507226 L15.563205,-10.335233 L15.504778,-10.16326 L15.443698,-9.991463 L15.380131,-9.819992 L15.314252,-9.6489935 L15.246237,-9.478607 L15.142467,-9.186395 L15.29366,-8.642499 L15.771228,-8.472624 L15.952926,-8.447033 L16.134157,-8.419315 L16.314713,-8.389385 L16.494377,-8.357164 L16.67294,-8.322579 L16.850182,-8.285564 L17.025888,-8.246062 L17.199842,-8.20402 L17.371828,-8.159394 L17.541628,-8.112149 L17.709028,-8.062257 L17.873814,-8.009696 L18.035772,-7.954455 L18.194696,-7.8965297 L18.350384,-7.8359256 L18.50263,-7.7726555 L18.651241,-7.706741 L18.796026,-7.6382127 L18.936802,-7.5671096 L19.073395,-7.4934783 L19.205635,-7.4173737 L19.333366,-7.3388586 L19.456442,-7.258002 L19.574722,-7.1748796 L19.688087,-7.089572 L19.796427,-7.002165 L19.899643,-6.9127455 L19.997654,-6.8214035 L20.090395,-6.7282267 L20.177816,-6.6333017 L20.259878,-6.5367103 L20.336563,-6.4385276 L20.407862,-6.33882 L20.473776,-6.237644 L20.534319,-6.1350455 L20.58951,-6.031056 L20.639374,-5.925695 L20.683933,-5.818971 L20.723213,-5.71088 L20.757233,-5.6014094 L20.786003,-5.4905405 L20.809528,-5.3782506 L20.827806,-5.2645173 L20.840822,-5.1493225 L20.848557,-5.032654 L20.85098,-4.914509 L20.848064,-4.794897 L20.839773,-4.6738415 L20.826077,-4.5513797 L20.806942,-4.4275637 L20.782345,-4.3024607 L20.752274,-4.1761503 L20.716717,-4.048726 L20.675682,-3.9202905 L20.629187,-3.790957 L20.577261,-3.660845 L20.519947,-3.530081 L20.457304,-3.3987947 L20.389402,-3.2671185 L20.316328,-3.1351862 L20.238176,-3.0031314 L20.155056,-2.8710866 L20.06709,-2.739182 L19.97441,-2.6075454 L19.87716,-2.4763005 L19.77549,-2.3455675 L19.669563,-2.215461 L19.55955,-2.0860913 L19.445627,-1.9575633 L19.327978,-1.829976 L19.206797,-1.7034224 L19.082277,-1.5779902 L18.954624,-1.45376 L18.824043,-1.3308067 L18.690746,-1.2091985 L18.554947,-1.0889971 L18.416862,-0.97025806 L18.276716,-0.8530298 L18.134727,-0.7373544 L17.991121,-0.62326735 L17.846123,-0.5107973 L17.697899,-0.39841524" fill="none" stroke="black" stroke-width="0.05"/>
</svg>