<svg height="53.99537533998496mm" viewBox="-26.999653387813474 -26.9999982942913 53.99930677562695 53.99537533998496" width="53.99930677562695mm" xmlns="http://www.w3.org/2000/svg">
<path d="M-5.7033916,-21.247854 L-4.2088833,-20.385 L-1.500335,-21.948782" fill="none" stroke="black" stroke-width="0.05"/>
<path d="M1.500335,-21.948782 L4.2088833,-20.385 L5.7033916,-21.247854" fill="none" stroke="black" stroke-width="0.05"/>
<path d="M-6.0196314,-21.160437 L-4.2088833,-20.115 L-0.9819426,-21.978075" fill="none" stroke="black" stroke-width="0.05"/>
<path d="M0.9819426,-21.978075 L4.2088833,-20.115 L6.0196314,-21.160437" fill="none" stroke="black" stroke-width="0.05"/>
<path d="M-6.3300514,-21.069656 L-4.2088833,-19.845 L-0.48559752,-21.99464" fill="none" stroke="black" stroke-width="0.05"/>
<path d="M0.48559752,-21.99464 L4.2088833,-19.845 L6.3300514,-21.069656" fill="none" stroke="black" stroke-width="0.05"/>
<path d="M-6.634893,-20.975657 L-4.2088833,-19.575 L-0.008663208,-21.999998" fill="none" stroke="black" stroke-width="0.05"/>
<path d="M0.008663208,-21.999998 L4.2088833,-19.575 L6.634893,-20.975657" fill="none" stroke="black" stroke-width="0.05"/>
<path d="M-6.9343762,-20.878563 L-4.2088833,-19.305 L0,-21.735 L4.2088833,-19.305 L6.9343762,-20.878563" fill="none" stroke="black" stroke-width="0.05"/>
<path d="M-7.2287045,-20.778494 L-4.2088833,-19.035 L0,-21.465 L4.2088833,-19.035 L7.2287045,-20.778494" fill="none" stroke="black" stroke-width="0.05"/>
<path d="M-7.5180664,-20.675558 L-4.2088833,-18.765 L0,-21.195 L4.2088833,-18.765 L7.5180664,-20.675558" fill="none" stroke="black" stroke-width="0.05"/>
<path d="M-7.8026357,-20.569853 L-4.2088833,-18.495 L0,-20.925 L4.2088833,-18.495 L7.8026357,-20.569853" fill="none" stroke="black" stroke-width="0.05"/>
<path d="M-12.247128,-18.275883 L-8.417767,-16.065 L-4.2088833,-18.495 L0,-16.065 L4.2088833,-18.495 L8.417767,-16.065 L12.247128,-18.275883" fill="none" stroke="black" stroke-width="0.05"/>
<path d="M-12.462085,-18.129988 L-8.417767,-15.795 L-4.2088833,-18.225 L0,-15.795 L4.2088833,-18.225 L8.417767,-15.795 L12.462085,-18.129988" fill="none" stroke="black" stroke-width="0.05"/>
<path d="M-13.055814,-17.707222 L-12.626651,-17.955 L-8.417767,-15.525 L-4.2088833,-17.955 L0,-15.525 L4.2088833,-17.955 L8.417767,-15.525 L12.626651,-17.955 L13.055814,-17.707222" fill="none" stroke="black" stroke-width="0.05"/>
<path d="M-14.298781,-16.719595 L-12.626651,-17.685 L-8.417767,-15.255 L-4.2088833,-17.685 L0,-15.255 L4.2088833,-17.685 L8.417767,-15.255 L12.626651,-17.685 L14.298781,-16.719595" fill="none" stroke="black" stroke-width="0.05"/>
<path d="M-15.134404,-15.967148 L-12.626651,-17.415 L-8.417767,-14.985 L-4.2088833,-17.415 L0,-14.985 L4.2088833,-17.415 L8.417767,-14.985 L12.626651,-17.415 L15.134404,-15.967148" fill="none" stroke="black" stroke-width="0.05"/>
<path d="M-15.791094,-15.318007 L-12.626651,-17.145 L-8.417767,-14.715 L-4.2088833,-17.145 L0,-14.715 L4.2088833,-17.145 L8.417767,-14.715 L12.626651,-17.145 L15.791094,-15.318007" fill="none" stroke="black" stroke-width="0.05"/>
<path d="M-16.339949,-14.731127 L-12.626651,-16.875 L-8.417767,-14.445 L-4.2088833,-16.875 L0,-14.445 L4.2088833,-16.875 L8.417767,-14.445 L12.626651,-16.875 L16.339949,-14.731127" fill="none" stroke="black" stroke-width="0.05"/>
<path d="M-16.814358,-14.187226 L-12.626651,-16.605 L-8.417767,-14.175 L-4.2088833,-16.605 L0,-14.175 L4.2088833,-16.605 L8.417767,-14.175 L12.626651,-16.605 L16.814358,-14.187226" fill="none" stroke="black" stroke-width="0.05"/>
<path d="M-16.828222,-14.170778 L-12.626651,-11.745 L-8.417767,-14.175 L-4.2088833,-11.745 L0,-14.175 L4.2088833,-11.745 L8.417767,-14.175 L12.626651,-11.745 L16.828222,-14.170778" fill="none" stroke="black" stroke-width="0.05"/>
<path d="M-17.233202,-13.6754055 L-16.835533,-13.905 L-12.626651,-11.475 L-8.417767,-13.905 L-4.2088833,-11.475 L0,-13.905 L4.2088833,-11.475 L8.417767,-13.905 L12.626651,-11.475 L16.835533,-13.905 L17.233202,-13.6754055" fill="none" stroke="black" stroke-width="0.05"/>
<path d="M-17.60841,-13.18878 L-16.835533,-13.635 L-12.626651,-11.205 L-8.417767,-13.635 L-4.2088833,-11.205 L0,-13.635 L4.2088833,-11.205 L8.417767,-13.635 L12.626651,-11.205 L16.835533,-13.635 L17.60841,-13.18878" fill="none" stroke="black" stroke-width="0.05"/>
<path d="M-17.948084,-12.72267 L-16.835533,-13.365 L-12.626651,-10.935 L-8.417767,-13.365 L-4.2088833,-10.935 L0,-13.365 L4.2088833,-10.935 L8.417767,-13.365 L12.626651,-10.935 L16.835533,-13.365 L17.948084,-12.72267" fill="none" stroke="black" stroke-width="0.05"/>
<path d="M-18.258034,-12.273719 L-16.835533,-13.095 L-12.626651,-10.665 L-8.417767,-13.095 L-4.2088833,-10.665 L0,-13.095 L4.2088833,-10.665 L8.417767,-13.095 L12.626651,-10.665 L16.835533,-13.095 L18.258034,-12.273719" fill="none" stroke="black" stroke-width="0.05"/>
<path d="M-18.5426,-11.839425 L-16.835533,-12.825 L-12.626651,-10.395 L-8.417767,-12.825 L-4.2088833,-10.395 L0,-12.825 L4.2088833,-10.395 L8.417767,-12.825 L12.626651,-10.395 L16.835533,-12.825 L18.5426,-11.839425" fill="none" stroke="black" stroke-width="0.05"/>
<path d="M-18.805119,-11.41786 L-16.835533,-12.555 L-12.626651,-10.125 L-8.417767,-12.555 L-4.2088833,-10.125 L0,-12.555 L4.2088833,-10.125 L8.417767,-12.555 L12.626651,-10.125 L16.835533,-12.555 L18.805119,-11.41786" fill="none" stroke="black" stroke-width="0.05"/>
<path d="M-19.048225,-11.007502 L-16.835533,-12.285 L-12.626651,-9.855 L-8.417767,-12.285 L-4.2088833,-9.855 L0,-12.285 L4.2088833,-9.855 L8.417767,-12.285 L12.626651,-9.855 L16.835533,-12.285 L19.048225,-11.007502" fill="none" stroke="black" stroke-width="0.05"/>
<path d="M-19.968412,-9.233768 L-16.835533,-7.425 L-12.626651,-9.855 L-8.417767,-7.425 L-4.2088833,-9.855 L0,-7.425 L4.2088833,-9.855 L8.417767,-7.425 L12.626651,-9.855 L16.835533,-7.425 L19.968412,-9.233768" fill="none" stroke="black" stroke-width="0.05"/>
<path d="M-20.065866,-9.020034 L-16.835533,-7.155 L-12.626651,-9.585 L-8.417767,-7.155 L-4.2088833,-9.585 L0,-7.155 L4.2088833,-9.585 L8.417767,-7.155 L12.626651,-9.585 L16.835533,-7.155 L20.065866,-9.020034" fill="none" stroke="black" stroke-width="0.05"/>
<path d="M-20.161135,-8.805037 L-16.835533,-6.885 L-12.626651,-9.315 L-8.417767,-6.885 L-4.2088833,-9.315 L0,-6.885 L4.2088833,-9.315 L8.417767,-6.885 L12.626651,-9.315 L16.835533,-6.885 L20.161135,-8.805037" fill="none" stroke="black" stroke-width="0.05"/>
<path d="M-20.25421,-8.588773 L-16.835533,-6.615 L-12.626651,-9.045 L-8.417767,-6.615 L-4.2088833,-9.045 L0,-6.615 L4.2088833,-9.045 L8.417767,-6.615 L12.626651,-9.045 L16.835533,-6.615 L20.25421,-8.588773" fill="none" stroke="black" stroke-width="0.05"/>
<path d="M-20.345081,-8.371239 L-16.835533,-6.345 L-12.626651,-8.775 L-8.417767,-6.345 L-4.2088833,-8.775 L0,-6.345 L4.2088833,-8.775 L8.417767,-6.345 L12.626651,-8.775 L16.835533,-6.345 L20.345081,-8.371239" fill="none" stroke="black" stroke-width="0.05"/>
<path d="M-20.433744,-8.152428 L-16.835533,-6.075 L-12.626651,-8.505 L-8.417767,-6.075 L-4.2088833,-8.505 L0,-6.075 L4.2088833,-8.505 L8.417767,-6.075 L12.626651,-8.505 L16.835533,-6.075 L20.433744,-8.152428" fill="none" stroke="black" stroke-width="0.05"/>
<path d="M-20.520187,-7.9323354 L-16.835533,-5.805 L-12.626651,-8.235 L-8.417767,-5.805 L-4.2088833,-8.235 L0,-5.805 L4.2088833,-8.235 L8.417767,-5.805 L12.626651,-8.235 L16.835533,-5.805 L20.520187,-7.9323354" fill="none" stroke="black" stroke-width="0.05"/>
<path d="M-20.604397,-7.710954 L-16.835533,-5.535 L-12.626651,-7.965 L-8.417767,-5.535 L-4.2088833,-7.965 L0,-5.535 L4.2088833,-7.965 L8.417767,-5.535 L12.626651,-7.965 L16.835533,-5.535 L20.604397,-7.710954" fill="none" stroke="black" stroke-width="0.05"/>
<path d="M-21.720552,-3.495367 L-21.044416,-3.105 L-16.835533,-5.535 L-12.626651,-3.105 L-8.417767,-5.535 L-4.2088833,-3.105 L0,-5.535 L4.2088833,-3.105 L8.417767,-5.535 L12.626651,-3.105 L16.835533,-5.535 L21.044416,-3.105 L21.720552,-3.495367" fill="none" stroke="black" stroke-width="0.05"/>
<path d="M-21.758984,-3.2475553 L-21.044416,-2.835 L-16.835533,-5.265 L-12.626651,-2.835 L-8.417767,-5.265 L-4.2088833,-2.835 L0,-5.265 L4.2088833,-2.835 L8.417767,-5.265 L12.626651,-2.835 L16.835533,-5.265 L21.044416,-2.835 L21.758984,-3.2475553" fill="none" stroke="black" stroke-width="0.05"/>
<path d="M-21.794743,-2.9982004 L-21.044416,-2.565 L-16.835533,-4.995 L-12.626651,-2.565 L-8.417767,-4.995 L-4.2088833,-2.565 L0,-4.995 L4.2088833,-2.565 L8.417767,-4.995 L12.626651,-2.565 L16.835533,-4.995 L21.044416,-2.565 L21.794743,-2.9982004" fill="none" stroke="black" stroke-width="0.05"/>
<path d="M-21.827791,-2.7472808 L-21.044416,-2.295 L-16.835533,-4.725 L-12.626651,-2.295 L-8.417767,-4.725 L-4.2088833,-2.295 L0,-4.725 L4.2088833,-2.295 L8.417767,-4.725 L12.626651,-2.295 L16.835533,-4.725 L21.044416,-2.295 L21.827791,-2.7472808" fill="none" stroke="black" stroke-width="0.05"/>
<path d="M-21.85809,-2.494774 L-21.044416,-2.025 L-16.835533,-4.455 L-12.626651,-2.025 L-8.417767,-4.455 L-4.2088833,-2.025 L0,-4.455 L4.2088833,-2.025 L8.417767,-4.455 L12.626651,-2.025 L16.835533,-4.455 L21.044416,-2.025 L21.85809,-2.494774" fill="none" stroke="black" stroke-width="0.05"/>
<path d="M-21.8856,-2.2406566 L-21.044416,-1.755 L-16.835533,-4.185 L-12.626651,-1.755 L-8.417767,-4.185 L-4.2088833,-1.755 L0,-4.185 L4.2088833,-1.755 L8.417767,-4.185 L12.626651,-1.755 L16.835533,-4.185 L21.044416,-1.755 L21.8856,-2.2406566" fill="none" stroke="black" stroke-width="0.05"/>
<path d="M-21.910275,-1.9849033 L-21.044416,-1.485 L-16.835533,-3.915 L-12.626651,-1.485 L-8.417767,-3.915 L-4.2088833,-1.485 L0,-3.915 L4.2088833,-1.485 L8.417767,-3.915 L12.626651,-1.485 L16.835533,-3.915 L21.044416,-1.485 L21.910275,-1.9849033" fill="none" stroke="black" stroke-width="0.05"/>
<path d="M-21.932072,-1.7274877 L-21.044416,-1.215 L-16.835533,-3.645 L-12.626651,-1.215 L-8.417767,-3.645 L-4.2088833,-1.215 L0,-3.645 L4.2088833,-1.215 L8.417767,-3.645 L12.626651,-1.215 L16.835533,-3.645 L21.044416,-1.215 L21.932072,-1.7274877" fill="none" stroke="black" stroke-width="0.05"/>
<path d="M-21.98982,-0.66917115 L-21.044416,-1.215 L-16.835533,1.215 L-12.626651,-1.215 L-8.417767,1.215 L-4.2088833,-1.215 L0,1.215 L4.2088833,-1.215 L8.417767,1.215 L12.626651,-1.215 L16.835533,1.215 L21.044416,-1.215 L21.98982,-0.66917115" fill="none" stroke="black" stroke-width="0.05"/>
<path d="M-21.996447,-0.39534512 L-21.044416,-0.945 L-16.835533,1.485 L-12.626651,-0.945 L-8.417767,1.485 L-4.2088833,-0.945 L0,1.485 L4.2088833,-0.945 L8.417767,1.485 L12.626651,-0.945 L16.835533,1.485 L21.044416,-0.945 L21.996447,-0.39534512" fill="none" stroke="black" stroke-width="0.05"/>
<path d="M-21.999653,-0.12349419 L-21.044416,-0.675 L-16.835533,1.755 L-12.626651,-0.675 L-8.417767,1.755 L-4.2088833,-0.675 L0,1.755 L4.2088833,-0.675 L8.417767,1.755 L12.626651,-0.675 L16.835533,1.755 L21.044416,-0.675 L21.999653,-0.12349419" fill="none" stroke="black" stroke-width="0.05"/>
<path d="M-21.999514,0.14642459 L-21.044416,-0.405 L-16.835533,2.025 L-12.626651,-0.405 L-8.417767,2.025 L-4.2088833,-0.405 L0,2.025 L4.2088833,-0.405 L8.417767,2.025 L12.626651,-0.405 L16.835533,2.025 L21.044416,-0.405 L21.999514,0.14642459" fill="none" stroke="black" stroke-width="0.05"/>
<path d="M-21.996096,0.4144518 L-21.044416,-0.135 L-16.835533,2.295 L-12.626651,-0.135 L-8.417767,2.295 L-4.2088833,-0.135 L0,2.295 L4.2088833,-0.135 L8.417767,2.295 L12.626651,-0.135 L16.835533,2.295 L21.044416,-0.135 L21.996096,0.4144518" fill="none" stroke="black" stroke-width="0.05"/>
<path d="M-21.98947,0.68062586 L-21.044416,0.135 L-16.835533,2.565 L-12.626651,0.135 L-8.417767,2.565 L-4.2088833,0.135 L0,2.565 L4.2088833,0.135 L8.417767,2.565 L12.626651,0.135 L16.835533,2.565 L21.044416,0.135 L21.98947,0.68062586" fill="none" stroke="black" stroke-width="0.05"/>
<path d="M-21.979696,0.944983 L-21.044416,0.405 L-16.835533,2.835 L-12.626651,0.405 L-8.417767,2.835 L-4.2088833,0.405 L0,2.835 L4.2088833,0.405 L8.417767,2.835 L12.626651,0.405 L16.835533,2.835 L21.044416,0.405 L21.979696,0.944983" fill="none" stroke="black" stroke-width="0.05"/>
<path d="M-21.966835,1.2075577 L-21.044416,0.675 L-16.835533,3.105 L-12.626651,0.675 L-8.417767,3.105 L-4.2088833,0.675 L0,3.105 L4.2088833,0.675 L8.417767,3.105 L12.626651,0.675 L16.835533,3.105 L21.044416,0.675 L21.966835,1.2075577" fill="none" stroke="black" stroke-width="0.05"/>
<path d="M-21.33529,5.3670645 L-21.044416,5.535 L-16.835533,3.105 L-12.626651,5.535 L-8.417767,3.105 L-4.2088833,5.535 L0,3.105 L4.2088833,5.535 L8.417767,3.105 L12.626651,5.535 L16.835533,3.105 L21.044416,5.535 L21.33529,5.3670645" fill="none" stroke="black" stroke-width="0.05"/>
<path d="M-21.252878,5.684645 L-21.044416,5.805 L-16.835533,3.375 L-12.626651,5.805 L-8.417767,3.375 L-4.2088833,5.805 L0,3.375 L4.2088833,5.805 L8.417767,3.375 L12.626651,5.805 L16.835533,3.375 L21.044416,5.805 L21.252878,5.684645" fill="none" stroke="black" stroke-width="0.05"/>
<path d="M-21.164383,6.005738 L-21.044416,6.075 L-16.835533,3.645 L-12.626651,6.075 L-8.417767,3.645 L-4.2088833,6.075 L0,3.645 L4.2088833,6.075 L8.417767,3.645 L12.626651,6.075 L16.835533,3.645 L21.044416,6.075 L21.164383,6.005738" fill="none" stroke="black" stroke-width="0.05"/>
<path d="M-21.06952,6.330507 L-21.044416,6.345 L-16.835533,3.915 L-12.626651,6.345 L-8.417767,3.915 L-4.2088833,6.345 L0,3.915 L4.2088833,6.345 L8.417767,3.915 L12.626651,6.345 L16.835533,3.915 L21.044416,6.345 L21.06952,6.330507" fill="none" stroke="black" stroke-width="0.05"/>
<path d="M-20.991539,6.584471 L-16.835533,4.185 L-12.626651,6.615 L-8.417767,4.185 L-4.2088833,6.615 L0,4.185 L4.2088833,6.615 L8.417767,4.185 L12.626651,6.615 L16.835533,4.185 L20.991539,6.584471" fill="none" stroke="black" stroke-width="0.05"/>
<path d="M-20.918678,6.812405 L-16.835533,4.455 L-12.626651,6.885 L-8.417767,4.455 L-4.2088833,6.885 L0,4.455 L4.2088833,6.885 L8.417767,4.455 L12.626651,6.885 L16.835533,4.455 L20.918678,6.812405" fill="none" stroke="black" stroke-width="0.05"/>
<path d="M-20.84352,7.039012 L-16.835533,4.725 L-12.626651,7.155 L-8.417767,4.725 L-4.2088833,7.155 L0,4.725 L4.2088833,7.155 L8.417767,4.725 L12.626651,7.155 L16.835533,4.725 L20.84352,7.039012" fill="none" stroke="black" stroke-width="0.05"/>
<path d="M-20.766077,7.2643 L-16.835533,4.995 L-12.626651,7.425 L-8.417767,4.995 L-4.2088833,7.425 L0,4.995 L4.2088833,7.425 L8.417767,4.995 L12.626651,7.425 L16.835533,4.995 L20.766077,7.2643" fill="none" stroke="black" stroke-width="0.05"/>
<path d="M-20.619572,7.6702847 L-16.835533,9.855 L-12.626651,7.425 L-8.417767,9.855 L-4.2088833,7.425 L0,9.855 L4.2088833,7.425 L8.417767,9.855 L12.626651,7.425 L16.835533,9.855 L20.619572,7.6702847" fill="none" stroke="black" stroke-width="0.05"/>
<path d="M-20.487421,8.0165825 L-16.835533,10.125 L-12.626651,7.695 L-8.417767,10.125 L-4.2088833,7.695 L0,10.125 L4.2088833,7.695 L8.417767,10.125 L12.626651,7.695 L16.835533,10.125 L20.487421,8.0165825" fill="none" stroke="black" stroke-width="0.05"/>
<path d="M-20.346418,8.36799 L-16.835533,10.395 L-12.626651,7.965 L-8.417767,10.395 L-4.2088833,7.965 L0,10.395 L4.2088833,7.965 L8.417767,10.395 L12.626651,7.965 L16.835533,10.395 L20.346418,8.36799" fill="none" stroke="black" stroke-width="0.05"/>
<path d="M-20.195963,8.724855 L-16.835533,10.665 L-12.626651,8.235 L-8.417767,10.665 L-4.2088833,8.235 L0,10.665 L4.2088833,8.235 L8.417767,10.665 L12.626651,8.235 L16.835533,10.665 L20.195963,8.724855" fill="none" stroke="black" stroke-width="0.05"/>
<path d="M-20.035368,9.087575 L-16.835533,10.935 L-12.626651,8.505 L-8.417767,10.935 L-4.2088833,8.505 L0,10.935 L4.2088833,8.505 L8.417767,10.935 L12.626651,8.505 L16.835533,10.935 L20.035368,9.087575" fill="none" stroke="black" stroke-width="0.05"/>
<path d="M-19.863855,9.456597 L-16.835533,11.205 L-12.626651,8.775 L-8.417767,11.205 L-4.2088833,8.775 L0,11.205 L4.2088833,8.775 L8.417767,11.205 L12.626651,8.775 L16.835533,11.205 L19.863855,9.456597" fill="none" stroke="black" stroke-width="0.05"/>
<path d="M-19.680525,9.832444 L-16.835533,11.475 L-12.626651,9.045 L-8.417767,11.475 L-4.2088833,9.045 L0,11.475 L4.2088833,9.045 L8.417767,11.475 L12.626651,9.045 L16.835533,11.475 L19.680525,9.832444" fill="none" stroke="black" stroke-width="0.05"/>
<path d="M-19.484331,10.215716 L-16.835533,11.745 L-12.626651,9.315 L-8.417767,11.745 L-4.2088833,9.315 L0,11.745 L4.2088833,9.315 L8.417767,11.745 L12.626651,9.315 L16.835533,11.745 L19.484331,10.215716" fill="none" stroke="black" stroke-width="0.05"/>
<path d="M-18.11508,12.483746 L-16.835533,11.745 L-12.626651,14.175 L-8.417767,11.745 L-4.2088833,14.175 L0,11.745 L4.2088833,14.175 L8.417767,11.745 L12.626651,14.175 L16.835533,11.745 L18.11508,12.483746" fill="none" stroke="black" stroke-width="0.05"/>
<path d="M-17.980885,12.676269 L-16.835533,12.015 L-12.626651,14.445 L-8.417767,12.015 L-4.2088833,14.445 L0,12.015 L4.2088833,14.445 L8.417767,12.015 L12.626651,14.445 L16.835533,12.015 L17.980885,12.676269" fill="none" stroke="black" stroke-width="0.05"/>
<path d="M-17.844511,12.867534 L-16.835533,12.285 L-12.626651,14.715 L-8.417767,12.285 L-4.2088833,14.715 L0,12.285 L4.2088833,14.715 L8.417767,12.285 L12.626651,14.715 L16.835533,12.285 L17.844511,12.867534" fill="none" stroke="black" stroke-width="0.05"/>
<path d="M-17.705952,13.057536 L-16.835533,12.555 L-12.626651,14.985 L-8.417767,12.555 L-4.2088833,14.985 L0,12.555 L4.2088833,14.985 L8.417767,12.555 L12.626651,14.985 L16.835533,12.555 L17.705952,13.057536" fill="none" stroke="black" stroke-width="0.05"/>
<path d="M-17.5652,13.246273 L-16.835533,12.825 L-12.626651,15.255 L-8.417767,12.825 L-4.2088833,15.255 L0,12.825 L4.2088833,15.255 L8.417767,12.825 L12.626651,15.255 L16.835533,12.825 L17.5652,13.246273" fill="none" stroke="black" stroke-width="0.05"/>
<path d="M-17.422247,13.433739 L-16.835533,13.095 L-12.626651,15.525 L-8.417767,13.095 L-4.2088833,15.525 L0,13.095 L4.2088833,15.525 L8.417767,13.095 L12.626651,15.525 L16.835533,13.095 L17.422247,13.433739" fill="none" stroke="black" stroke-width="0.05"/>
<path d="M-17.277082,13.619928 L-16.835533,13.365 L-12.626651,15.795 L-8.417767,13.365 L-4.2088833,15.795 L0,13.365 L4.2088833,15.795 L8.417767,13.365 L12.626651,15.795 L16.835533,13.365 L17.277082,13.619928" fill="none" stroke="black" stroke-width="0.05"/>
<path d="M-17.129698,13.804835 L-16.835533,13.635 L-12.626651,16.065 L-8.417767,13.635 L-4.2088833,16.065 L0,13.635 L4.2088833,16.065 L8.417767,13.635 L12.626651,16.065 L16.835533,13.635 L17.129698,13.804835" fill="none" stroke="black" stroke-width="0.05"/>
<path d="M-14.080111,16.904156 L-12.626651,16.065 L-8.417767,18.495 L-4.2088833,16.065 L0,18.495 L4.2088833,16.065 L8.417767,18.495 L12.626651,16.065 L14.080111,16.904156" fill="none" stroke="black" stroke-width="0.05"/>
<path d="M-13.887353,17.062866 L-12.626651,16.335 L-8.417767,18.765 L-4.2088833,16.335 L0,18.765 L4.2088833,16.335 L8.417767,18.765 L12.626651,16.335 L13.887353,17.062866" fill="none" stroke="black" stroke-width="0.05"/>
<path d="M-13.691957,17.220055 L-12.626651,16.605 L-8.417767,19.035 L-4.2088833,16.605 L0,19.035 L4.2088833,16.605 L8.417767,19.035 L12.626651,16.605 L13.691957,17.220055" fill="none" stroke="black" stroke-width="0.05"/>
<path d="M-13.493889,17.3757 L-12.626651,16.875 L-8.417767,19.305 L-4.2088833,16.875 L0,19.305 L4.2088833,16.875 L8.417767,19.305 L12.626651,16.875 L13.493889,17.3757" fill="none" stroke="black" stroke-width="0.05"/>
<path d="M-13.29311,17.529781 L-12.626651,17.145 L-8.417767,19.575 L-4.2088833,17.145 L0,19.575 L4.2088833,17.145 L8.417767,19.575 L12.626651,17.145 L13.29311,17.529781" fill="none" stroke="black" stroke-width="0.05"/>
<path d="M-13.089582,17.682274 L-12.626651,17.415 L-8.417767,19.845 L-4.2088833,17.415 L0,19.845 L4.2088833,17.415 L8.417767,19.845 L12.626651,17.415 L13.089582,17.682274" fill="none" stroke="black" stroke-width="0.05"/>
<path d="M-12.8832655,17.833157 L-12.626651,17.685 L-8.417767,20.115 L-4.2088833,17.685 L0,20.115 L4.2088833,17.685 L8.417767,20.115 L12.626651,17.685 L12.8832655,17.833157" fill="none" stroke="black" stroke-width="0.05"/>
<path d="M-12.674114,17.982403 L-12.626651,17.955 L-8.806997,20.160278" fill="none" stroke="black" stroke-width="0.05"/>
<path d="M-8.358031,20.350512 L-4.2088833,17.955 L0,20.385 L4.2088833,17.955 L8.358031,20.350512" fill="none" stroke="black" stroke-width="0.05"/>
<path d="M8.806997,20.160278 L12.626651,17.955 L12.674114,17.982403" fill="none" stroke="black" stroke-width="0.05"/>
<path d="M-2.5420344,21.852644 L0,20.385 L2.5420344,21.852644" fill="none" stroke="black" stroke-width="0.05"/>
<path d="M-2.1476138,21.894926 L0,20.655 L2.1476138,21.894926" fill="none" stroke="black" stroke-width="0.05"/>
<path d="M-1.742274,21.930902 L0,20.925 L1.742274,21.930902" fill="none" stroke="black" stroke-width="0.05"/>
<path d="M-1.3251162,21.960056 L0,21.195 L1.3251162,21.960056" fill="none" stroke="black" stroke-width="0.05"/>
<path d="M-0.8950952,21.981783 L0,21.465 L0.8950952,21.981783" fill="none" stroke="black" stroke-width="0.05"/>
<path d="M-0.45098627,21.995377 L0,21.735 L0.45098627,21.995377" fill="none" stroke="black" stroke-width="0.05"/>
</svg>