<svg height="190mm" viewBox="-95 -95 190 190" width="190mm" xmlns="http://www.w3.org/2000/svg">
<circle cx="0" cy="0" fill="#fafaf5" r="38" stroke="#2c2c2c" stroke-width="0.3"/>
<clipPath id="dial-clip">
<circle cx="0" cy="0" r="38"/>
</clipPath>
<g clip-path="url(#dial-clip)">
<path d="M5.545572,-37.593174 L6.625,-35.72355 L12.954849,-35.72355" fill="none" stroke="#1a1a1a" stroke-linecap="round" stroke-linejoin="round" stroke-width="0.03"/>
<path d="M13.81102,-35.401352 L17.125,-29.66137 L23.75296,-29.66137" fill="none" stroke="#1a1a1a" stroke-linecap="round" stroke-linejoin="round" stroke-width="0.03"/>
<path d="M24.460075,-29.081003 L27.625,-23.599192 L29.783857,-23.599192" fill="none" stroke="#1a1a1a" stroke-linecap="round" stroke-linejoin="round" stroke-width="0.03"/>
<path d="M5.001556,-37.66941 L6.375,-35.290535 L13.375,-35.290535 L16.875,-29.228357 L23.875,-29.228357 L27.375,-23.16618 L30.121887,-23.16618" fill="none" stroke="#1a1a1a" stroke-linecap="round" stroke-linejoin="round" stroke-width="0.03"/>
<path d="M4.462495,-37.737064 L6.125,-34.85752 L13.125,-34.85752 L16.625,-28.795345 L23.625,-28.795345 L27.125,-22.733168 L30.45001,-22.733168" fill="none" stroke="#1a1a1a" stroke-linecap="round" stroke-linejoin="round" stroke-width="0.03"/>
<path d="M3.9282293,-37.796417 L5.875,-34.42451 L12.875,-34.42451 L16.375,-28.362331 L23.375,-28.362331 L26.875,-22.300154 L30.768541,-22.300154" fill="none" stroke="#1a1a1a" stroke-linecap="round" stroke-linejoin="round" stroke-width="0.03"/>
<path d="M3.3986123,-37.847713 L5.625,-33.991497 L12.625,-33.991497 L16.125,-27.92932 L23.125,-27.92932 L26.625,-21.867142 L31.077776,-21.867142" fill="none" stroke="#1a1a1a" stroke-linecap="round" stroke-linejoin="round" stroke-width="0.03"/>
<path d="M2.873506,-37.891197 L5.375,-33.558483 L12.375,-33.558483 L15.875,-27.496307 L22.875,-27.496307 L26.375,-21.434128 L31.377989,-21.434128" fill="none" stroke="#1a1a1a" stroke-linecap="round" stroke-linejoin="round" stroke-width="0.03"/>
<path d="M2.3527825,-37.927094 L5.125,-33.125473 L12.125,-33.125473 L15.625,-27.063293 L22.625,-27.063293 L26.125,-21.001116 L31.669436,-21.001116" fill="none" stroke="#1a1a1a" stroke-linecap="round" stroke-linejoin="round" stroke-width="0.03"/>
<path d="M1.8363215,-37.955605 L4.875,-32.69246 L11.875,-32.69246 L15.375,-26.630281 L22.375,-26.630281 L25.875,-20.568104 L31.952356,-20.568104" fill="none" stroke="#1a1a1a" stroke-linecap="round" stroke-linejoin="round" stroke-width="0.03"/>
<path d="M1.3240108,-37.97693 L4.625,-32.259445 L11.625,-32.259445 L15.125,-26.197268 L22.125,-26.197268 L25.625,-20.13509 L32.22698,-20.13509" fill="none" stroke="#1a1a1a" stroke-linecap="round" stroke-linejoin="round" stroke-width="0.03"/>
<path d="M-2.9074259,-37.88861 L0.875,-37.88861 L4.375,-31.826433 L11.375,-31.826433 L14.875,-25.764256 L21.875,-25.764256 L25.375,-19.702078 L32.375,-19.702078 L34.266212,-16.426401" fill="none" stroke="#1a1a1a" stroke-linecap="round" stroke-linejoin="round" stroke-width="0.03"/>
<path d="M-6.37807,-37.460915 L-6.375,-37.455597 L0.625,-37.455597 L4.125,-31.393421 L11.125,-31.393421 L14.625,-25.331244 L21.625,-25.331244 L25.125,-19.269066 L32.125,-19.269066 L35.625,-13.206887 L35.63114,-13.206887" fill="none" stroke="#1a1a1a" stroke-linecap="round" stroke-linejoin="round" stroke-width="0.03"/>
<path d="M-6.8318295,-37.380825 L-6.625,-37.022587 L0.375,-37.022587 L3.875,-30.960407 L10.875,-30.960407 L14.375,-24.89823 L21.375,-24.89823 L24.875,-18.836052 L31.875,-18.836052 L35.375,-12.773874 L35.78866,-12.773874" fill="none" stroke="#1a1a1a" stroke-linecap="round" stroke-linejoin="round" stroke-width="0.03"/>
<path d="M-8.563185,-37.022587 L-6.625,-37.022587 L-3.125,-30.960407 L3.875,-30.960407 L7.375,-24.89823 L14.375,-24.89823 L17.875,-18.836052 L24.875,-18.836052 L28.375,-12.773874 L35.375,-12.773874 L36.344093,-11.095358" fill="none" stroke="#1a1a1a" stroke-linecap="round" stroke-linejoin="round" stroke-width="0.03"/>
<path d="M-10.256858,-36.589573 L-6.875,-36.589573 L-3.375,-30.527395 L3.625,-30.527395 L7.125,-24.465218 L14.125,-24.465218 L17.625,-18.40304 L24.625,-18.40304 L28.125,-12.340862 L35.125,-12.340862 L36.81593,-9.412087" fill="none" stroke="#1a1a1a" stroke-linecap="round" stroke-linejoin="round" stroke-width="0.03"/>
<path d="M-11.692011,-36.15656 L-7.125,-36.15656 L-3.625,-30.094383 L3.375,-30.094383 L6.875,-24.032206 L13.875,-24.032206 L17.375,-17.970028 L24.375,-17.970028 L27.875,-11.907849 L34.875,-11.907849 L37.158504,-7.9527016" fill="none" stroke="#1a1a1a" stroke-linecap="round" stroke-linejoin="round" stroke-width="0.03"/>
<path d="M-12.954849,-35.72355 L-7.375,-35.72355 L-3.875,-29.66137 L3.125,-29.66137 L6.625,-23.599192 L13.625,-23.599192 L17.125,-17.537014 L24.125,-17.537014 L27.625,-11.474836 L34.625,-11.474836 L37.414925,-6.642545" fill="none" stroke="#1a1a1a" stroke-linecap="round" stroke-linejoin="round" stroke-width="0.03"/>
<path d="M-14.091775,-35.290535 L-7.625,-35.290535 L-4.125,-29.228357 L2.875,-29.228357 L6.375,-23.16618 L13.375,-23.16618 L16.875,-17.104002 L23.875,-17.104002 L27.375,-11.041824 L34.375,-11.041824 L37.608387,-5.4414325" fill="none" stroke="#1a1a1a" stroke-linecap="round" stroke-linejoin="round" stroke-width="0.03"/>
<path d="M-14.92601,-34.945877 L-14.875,-34.85752 L-7.875,-34.85752 L-4.375,-28.795345 L2.625,-28.795345 L6.125,-22.733168 L13.125,-22.733168 L16.625,-16.670988 L23.625,-16.670988 L27.125,-10.608811 L34.125,-10.608811 L37.625,-4.5466332 L37.72702,-4.5466332" fill="none" stroke="#1a1a1a" stroke-linecap="round" stroke-linejoin="round" stroke-width="0.03"/>
<path d="M-15.325844,-34.77238 L-15.125,-34.42451 L-8.125,-34.42451 L-4.625,-28.362331 L2.375,-28.362331 L5.875,-22.300154 L12.875,-22.300154 L16.375,-16.237976 L23.375,-16.237976 L26.875,-10.175798 L33.875,-10.175798 L37.375,-4.1136208 L37.776688,-4.1136208" fill="none" stroke="#1a1a1a" stroke-linecap="round" stroke-linejoin="round" stroke-width="0.03"/>
<path d="M-15.7231655,-34.59454 L-15.375,-33.991497 L-8.375,-33.991497 L-4.875,-27.92932 L2.125,-27.92932 L5.625,-21.867142 L12.625,-21.867142 L16.125,-15.804964 L23.125,-15.804964 L26.625,-9.742785 L33.625,-9.742785 L37.125,-3.680608 L37.82133,-3.680608" fill="none" stroke="#1a1a1a" stroke-linecap="round" stroke-linejoin="round" stroke-width="0.03"/>
<path d="M-16.117985,-34.41236 L-15.625,-33.558483 L-8.625,-33.558483 L-5.125,-27.496307 L1.875,-27.496307 L5.375,-21.434128 L12.375,-21.434128 L15.875,-15.371951 L22.875,-15.371951 L26.375,-9.309773 L33.375,-9.309773 L36.875,-3.2475953 L37.86097,-3.2475953" fill="none" stroke="#1a1a1a" stroke-linecap="round" stroke-linejoin="round" stroke-width="0.03"/>
<path d="M-16.510311,-34.22586 L-15.875,-33.125473 L-8.875,-33.125473 L-5.375,-27.063293 L1.625,-27.063293 L5.125,-21.001116 L12.125,-21.001116 L15.625,-14.938938 L22.625,-14.938938 L26.125,-8.8767605 L33.125,-8.8767605 L36.625,-2.8145826 L37.895622,-2.8145826" fill="none" stroke="#1a1a1a" stroke-linecap="round" stroke-linejoin="round" stroke-width="0.03"/>
<path d="M-16.900148,-34.035057 L-16.125,-32.69246 L-9.125,-32.69246 L-5.625,-26.630281 L1.375,-26.630281 L4.875,-20.568104 L11.875,-20.568104 L15.375,-14.505925 L22.375,-14.505925 L25.875,-8.4437475 L32.875,-8.4437475 L36.375,-2.3815699 L37.925297,-2.3815699" fill="none" stroke="#1a1a1a" stroke-linecap="round" stroke-linejoin="round" stroke-width="0.03"/>
<path d="M-17.287504,-33.83995 L-16.375,-32.259445 L-9.375,-32.259445 L-5.875,-26.197268 L1.125,-26.197268 L4.625,-20.13509 L11.625,-20.13509 L15.125,-14.072913 L22.125,-14.072913 L25.625,-8.010735 L32.625,-8.010735 L36.125,-1.9485571 L37.95001,-1.9485571" fill="none" stroke="#1a1a1a" stroke-linecap="round" stroke-linejoin="round" stroke-width="0.03"/>
<path d="M-20.08303,-32.259445 L-16.375,-32.259445 L-12.875,-26.197268 L-5.875,-26.197268 L-2.375,-20.13509 L4.625,-20.13509 L8.125,-14.072913 L15.125,-14.072913 L18.625,-8.010735 L25.625,-8.010735 L29.125,-1.9485571 L36.125,-1.9485571 L37.979015,1.2626917" fill="none" stroke="#1a1a1a" stroke-linecap="round" stroke-linejoin="round" stroke-width="0.03"/>
<path d="M-20.76242,-31.826433 L-16.625,-31.826433 L-13.125,-25.764256 L-6.125,-25.764256 L-2.625,-19.702078 L4.375,-19.702078 L7.875,-13.6399 L14.875,-13.6399 L18.375,-7.577722 L25.375,-7.577722 L28.875,-1.5155444 L35.875,-1.5155444 L37.94371,2.067567" fill="none" stroke="#1a1a1a" stroke-linecap="round" stroke-linejoin="round" stroke-width="0.03"/>
<path d="M-21.411518,-31.393421 L-16.875,-31.393421 L-13.375,-25.331244 L-6.375,-25.331244 L-2.875,-19.269066 L4.125,-19.269066 L7.625,-13.206887 L14.625,-13.206887 L18.125,-7.1447096 L25.125,-7.1447096 L28.625,-1.0825318 L35.625,-1.0825318 L37.89326,2.8462086" fill="none" stroke="#1a1a1a" stroke-linecap="round" stroke-linejoin="round" stroke-width="0.03"/>
<path d="M-22.033,-30.960407 L-17.125,-30.960407 L-13.625,-24.89823 L-6.625,-24.89823 L-3.125,-18.836052 L3.875,-18.836052 L7.375,-12.773874 L14.375,-12.773874 L17.875,-6.711697 L24.875,-6.711697 L28.375,-0.649519 L35.375,-0.649519 L37.829,3.6009343" fill="none" stroke="#1a1a1a" stroke-linecap="round" stroke-linejoin="round" stroke-width="0.03"/>
<path d="M-22.629143,-30.527395 L-17.375,-30.527395 L-13.875,-24.465218 L-6.875,-24.465218 L-3.375,-18.40304 L3.625,-18.40304 L7.125,-12.340862 L14.125,-12.340862 L17.625,-6.278684 L24.625,-6.278684 L28.125,-0.21650635 L35.125,-0.21650635 L37.75207,4.333715" fill="none" stroke="#1a1a1a" stroke-linecap="round" stroke-linejoin="round" stroke-width="0.03"/>
<path d="M-23.201899,-30.094383 L-17.625,-30.094383 L-14.125,-24.032206 L-7.125,-24.032206 L-3.625,-17.970028 L3.375,-17.970028 L6.875,-11.907849 L13.875,-11.907849 L17.375,-5.8456717 L24.375,-5.8456717 L27.875,0.21650635 L34.875,0.21650635 L37.66345,5.0462427" fill="none" stroke="#1a1a1a" stroke-linecap="round" stroke-linejoin="round" stroke-width="0.03"/>
<path d="M-23.75296,-29.66137 L-17.875,-29.66137 L-14.375,-23.599192 L-7.375,-23.599192 L-3.875,-17.537014 L3.125,-17.537014 L6.625,-11.474836 L13.625,-11.474836 L17.125,-5.4126587 L24.125,-5.4126587 L27.625,0.649519 L34.625,0.649519 L37.56398,5.739982" fill="none" stroke="#1a1a1a" stroke-linecap="round" stroke-linejoin="round" stroke-width="0.03"/>
<path d="M-24.283804,-29.228357 L-18.125,-29.228357 L-14.625,-23.16618 L-7.625,-23.16618 L-4.125,-17.104002 L2.875,-17.104002 L6.375,-11.041824 L13.375,-11.041824 L16.875,-4.979646 L23.875,-4.979646 L27.375,1.0825318 L34.375,1.0825318 L37.454403,6.416212" fill="none" stroke="#1a1a1a" stroke-linecap="round" stroke-linejoin="round" stroke-width="0.03"/>
<path d="M-24.795729,-28.795345 L-18.375,-28.795345 L-14.875,-22.733168 L-7.875,-22.733168 L-4.375,-16.670988 L2.625,-16.670988 L6.125,-10.608811 L13.125,-10.608811 L16.625,-4.5466332 L23.625,-4.5466332 L27.125,1.5155444 L34.125,1.5155444 L37.335365,7.076058" fill="none" stroke="#1a1a1a" stroke-linecap="round" stroke-linejoin="round" stroke-width="0.03"/>
<path d="M-25.289883,-28.362331 L-18.625,-28.362331 L-15.125,-22.300154 L-8.125,-22.300154 L-4.625,-16.237976 L2.375,-16.237976 L5.875,-10.175798 L12.875,-10.175798 L16.375,-4.1136208 L23.375,-4.1136208 L26.875,1.9485571 L33.875,1.9485571 L37.20744,7.7205143" fill="none" stroke="#1a1a1a" stroke-linecap="round" stroke-linejoin="round" stroke-width="0.03"/>
<path d="M-25.767288,-27.92932 L-18.875,-27.92932 L-15.375,-21.867142 L-8.375,-21.867142 L-4.875,-15.804964 L2.125,-15.804964 L5.625,-9.742785 L12.625,-9.742785 L16.125,-3.680608 L23.125,-3.680608 L26.625,2.3815699 L33.625,2.3815699 L37.071144,8.350467" fill="none" stroke="#1a1a1a" stroke-linecap="round" stroke-linejoin="round" stroke-width="0.03"/>
<path d="M-26.161827,-27.560095 L-26.125,-27.496307 L-19.125,-27.496307 L-15.625,-21.434128 L-8.625,-21.434128 L-5.125,-15.371951 L1.875,-15.371951 L5.375,-9.309773 L12.375,-9.309773 L15.875,-3.2475953 L22.875,-3.2475953 L26.375,2.8145826 L33.375,2.8145826 L36.875,8.8767605 L36.948654,8.8767605" fill="none" stroke="#1a1a1a" stroke-linecap="round" stroke-linejoin="round" stroke-width="0.03"/>
<path d="M-26.22886,-27.496307 L-26.125,-27.496307 L-22.625,-21.434128 L-15.625,-21.434128 L-12.125,-15.371951 L-5.125,-15.371951 L-1.625,-9.309773 L5.375,-9.309773 L8.875,-3.2475953 L15.875,-3.2475953 L19.375,2.8145826 L26.375,2.8145826 L29.875,8.8767605 L36.875,8.8767605 L36.92693,8.966706" fill="none" stroke="#1a1a1a" stroke-linecap="round" stroke-linejoin="round" stroke-width="0.03"/>
<path d="M-26.675423,-27.063293 L-26.375,-27.063293 L-22.875,-21.001116 L-15.875,-21.001116 L-12.375,-14.938938 L-5.375,-14.938938 L-1.875,-8.8767605 L5.125,-8.8767605 L8.625,-2.8145826 L15.625,-2.8145826 L19.125,3.2475953 L26.125,3.2475953 L29.625,9.309773 L36.625,9.309773 L36.77521,9.569946" fill="none" stroke="#1a1a1a" stroke-linecap="round" stroke-linejoin="round" stroke-width="0.03"/>
<path d="M-27.107714,-26.630281 L-26.625,-26.630281 L-23.125,-20.568104 L-16.125,-20.568104 L-12.625,-14.505925 L-5.625,-14.505925 L-2.125,-8.4437475 L4.875,-8.4437475 L8.375,-2.3815699 L15.375,-2.3815699 L18.875,3.680608 L25.875,3.680608 L29.375,9.742785 L36.375,9.742785 L36.616356,10.160828" fill="none" stroke="#1a1a1a" stroke-linecap="round" stroke-linejoin="round" stroke-width="0.03"/>
<path d="M-27.526407,-26.197268 L-26.875,-26.197268 L-23.375,-20.13509 L-16.375,-20.13509 L-12.875,-14.072913 L-5.875,-14.072913 L-2.375,-8.010735 L4.625,-8.010735 L8.125,-1.9485571 L15.125,-1.9485571 L18.625,4.1136208 L25.625,4.1136208 L29.125,10.175798 L36.125,10.175798 L36.450703,10.739934" fill="none" stroke="#1a1a1a" stroke-linecap="round" stroke-linejoin="round" stroke-width="0.03"/>
<path d="M-27.932116,-25.764256 L-27.125,-25.764256 L-23.625,-19.702078 L-16.625,-19.702078 L-13.125,-13.6399 L-6.125,-13.6399 L-2.625,-7.577722 L4.375,-7.577722 L7.875,-1.5155444 L14.875,-1.5155444 L18.375,4.5466332 L25.375,4.5466332 L28.875,10.608811 L35.875,10.608811 L36.278557,11.307795" fill="none" stroke="#1a1a1a" stroke-linecap="round" stroke-linejoin="round" stroke-width="0.03"/>
<path d="M-28.325397,-25.331244 L-27.375,-25.331244 L-23.875,-19.269066 L-16.875,-19.269066 L-13.375,-13.206887 L-6.375,-13.206887 L-2.875,-7.1447096 L4.125,-7.1447096 L7.625,-1.0825318 L14.625,-1.0825318 L18.125,4.979646 L25.125,4.979646 L28.625,11.041824 L35.625,11.041824 L36.100197,11.864892" fill="none" stroke="#1a1a1a" stroke-linecap="round" stroke-linejoin="round" stroke-width="0.03"/>
<path d="M-28.70676,-24.89823 L-27.625,-24.89823 L-24.125,-18.836052 L-17.125,-18.836052 L-13.625,-12.773874 L-6.625,-12.773874 L-3.125,-6.711697 L3.875,-6.711697 L7.375,-0.649519 L14.375,-0.649519 L17.875,5.4126587 L24.875,5.4126587 L28.375,11.474836 L35.375,11.474836 L35.915882,12.411669" fill="none" stroke="#1a1a1a" stroke-linecap="round" stroke-linejoin="round" stroke-width="0.03"/>
<path d="M-29.076677,-24.465218 L-27.875,-24.465218 L-24.375,-18.40304 L-17.375,-18.40304 L-13.875,-12.340862 L-6.875,-12.340862 L-3.375,-6.278684 L3.625,-6.278684 L7.125,-0.21650635 L14.125,-0.21650635 L17.625,5.8456717 L24.625,5.8456717 L28.125,11.907849 L35.125,11.907849 L35.725838,12.948532" fill="none" stroke="#1a1a1a" stroke-linecap="round" stroke-linejoin="round" stroke-width="0.03"/>
<path d="M-29.435575,-24.032206 L-28.125,-24.032206 L-24.625,-17.970028 L-17.625,-17.970028 L-14.125,-11.907849 L-7.125,-11.907849 L-3.625,-5.8456717 L3.375,-5.8456717 L6.875,0.21650635 L13.875,0.21650635 L17.375,6.278684 L24.375,6.278684 L27.875,12.340862 L34.875,12.340862 L35.53029,13.475854" fill="none" stroke="#1a1a1a" stroke-linecap="round" stroke-linejoin="round" stroke-width="0.03"/>
<path d="M-29.783857,-23.599192 L-28.375,-23.599192 L-24.875,-17.537014 L-17.875,-17.537014 L-14.375,-11.474836 L-7.375,-11.474836 L-3.875,-5.4126587 L3.125,-5.4126587 L6.625,0.649519 L13.625,0.649519 L17.125,6.711697 L24.125,6.711697 L27.625,12.773874 L34.625,12.773874 L35.32943,13.99398" fill="none" stroke="#1a1a1a" stroke-linecap="round" stroke-linejoin="round" stroke-width="0.03"/>
<path d="M-30.121887,-23.16618 L-28.625,-23.16618 L-25.125,-17.104002 L-18.125,-17.104002 L-14.625,-11.041824 L-7.625,-11.041824 L-4.125,-4.979646 L2.875,-4.979646 L6.375,1.0825318 L13.375,1.0825318 L16.875,7.1447096 L23.875,7.1447096 L27.375,13.206887 L34.375,13.206887 L35.123444,14.50323" fill="none" stroke="#1a1a1a" stroke-linecap="round" stroke-linejoin="round" stroke-width="0.03"/>
<path d="M-30.45001,-22.733168 L-28.875,-22.733168 L-25.375,-16.670988 L-18.375,-16.670988 L-14.875,-10.608811 L-7.875,-10.608811 L-4.375,-4.5466332 L2.625,-4.5466332 L6.125,1.5155444 L13.125,1.5155444 L16.625,7.577722 L23.625,7.577722 L27.125,13.6399 L34.125,13.6399 L34.912506,15.003899" fill="none" stroke="#1a1a1a" stroke-linecap="round" stroke-linejoin="round" stroke-width="0.03"/>
<path d="M-33.309254,-18.289165 L-32.375,-16.670988 L-25.375,-16.670988 L-21.875,-10.608811 L-14.875,-10.608811 L-11.375,-4.5466332 L-4.375,-4.5466332 L-0.875,1.5155444 L6.125,1.5155444 L9.625,7.577722 L16.625,7.577722 L20.125,13.6399 L27.125,13.6399 L30.625,19.702078 L32.493507,19.702078" fill="none" stroke="#1a1a1a" stroke-linecap="round" stroke-linejoin="round" stroke-width="0.03"/>
<path d="M-33.550987,-17.841837 L-32.625,-16.237976 L-25.625,-16.237976 L-22.125,-10.175798 L-15.125,-10.175798 L-11.625,-4.1136208 L-4.625,-4.1136208 L-1.125,1.9485571 L5.875,1.9485571 L9.375,8.010735 L16.375,8.010735 L19.875,14.072913 L26.875,14.072913 L30.375,20.13509 L32.22698,20.13509" fill="none" stroke="#1a1a1a" stroke-linecap="round" stroke-linejoin="round" stroke-width="0.03"/>
<path d="M-33.788677,-17.3875 L-32.875,-15.804964 L-25.875,-15.804964 L-22.375,-9.742785 L-15.375,-9.742785 L-11.875,-3.680608 L-4.875,-3.680608 L-1.375,2.3815699 L5.625,2.3815699 L9.125,8.4437475 L16.125,8.4437475 L19.625,14.505925 L26.625,14.505925 L30.125,20.568104 L31.952356,20.568104" fill="none" stroke="#1a1a1a" stroke-linecap="round" stroke-linejoin="round" stroke-width="0.03"/>
<path d="M-34.022217,-16.925978 L-33.125,-15.371951 L-26.125,-15.371951 L-22.625,-9.309773 L-15.625,-9.309773 L-12.125,-3.2475953 L-5.125,-3.2475953 L-1.625,2.8145826 L5.375,2.8145826 L8.875,8.8767605 L15.875,8.8767605 L19.375,14.938938 L26.375,14.938938 L29.875,21.001116 L31.669436,21.001116" fill="none" stroke="#1a1a1a" stroke-linecap="round" stroke-linejoin="round" stroke-width="0.03"/>
<path d="M-34.251495,-16.45707 L-33.375,-14.938938 L-26.375,-14.938938 L-22.875,-8.8767605 L-15.875,-8.8767605 L-12.375,-2.8145826 L-5.375,-2.8145826 L-1.875,3.2475953 L5.125,3.2475953 L8.625,9.309773 L15.625,9.309773 L19.125,15.371951 L26.125,15.371951 L29.625,21.434128 L31.377989,21.434128" fill="none" stroke="#1a1a1a" stroke-linecap="round" stroke-linejoin="round" stroke-width="0.03"/>
<path d="M-34.476387,-15.980573 L-33.625,-14.505925 L-26.625,-14.505925 L-23.125,-8.4437475 L-16.125,-8.4437475 L-12.625,-2.3815699 L-5.625,-2.3815699 L-2.125,3.680608 L4.875,3.680608 L8.375,9.742785 L15.375,9.742785 L18.875,15.804964 L25.875,15.804964 L29.375,21.867142 L31.077776,21.867142" fill="none" stroke="#1a1a1a" stroke-linecap="round" stroke-linejoin="round" stroke-width="0.03"/>
<path d="M-34.69677,-15.496262 L-33.875,-14.072913 L-26.875,-14.072913 L-23.375,-8.010735 L-16.375,-8.010735 L-12.875,-1.9485571 L-5.875,-1.9485571 L-2.375,4.1136208 L4.625,4.1136208 L8.125,10.175798 L15.125,10.175798 L18.625,16.237976 L25.625,16.237976 L29.125,22.300154 L30.768541,22.300154" fill="none" stroke="#1a1a1a" stroke-linecap="round" stroke-linejoin="round" stroke-width="0.03"/>
<path d="M-34.912506,-15.003899 L-34.125,-13.6399 L-27.125,-13.6399 L-23.625,-7.577722 L-16.625,-7.577722 L-13.125,-1.5155444 L-6.125,-1.5155444 L-2.625,4.5466332 L4.375,4.5466332 L7.875,10.608811 L14.875,10.608811 L18.375,16.670988 L25.375,16.670988 L28.875,22.733168 L30.45001,22.733168" fill="none" stroke="#1a1a1a" stroke-linecap="round" stroke-linejoin="round" stroke-width="0.03"/>
<path d="M-35.123444,-14.50323 L-34.375,-13.206887 L-27.375,-13.206887 L-23.875,-7.1447096 L-16.875,-7.1447096 L-13.375,-1.0825318 L-6.375,-1.0825318 L-2.875,4.979646 L4.125,4.979646 L7.625,11.041824 L14.625,11.041824 L18.125,17.104002 L25.125,17.104002 L28.625,23.16618 L30.121887,23.16618" fill="none" stroke="#1a1a1a" stroke-linecap="round" stroke-linejoin="round" stroke-width="0.03"/>
<path d="M-35.32943,-13.99398 L-34.625,-12.773874 L-27.625,-12.773874 L-24.125,-6.711697 L-17.125,-6.711697 L-13.625,-0.649519 L-6.625,-0.649519 L-3.125,5.4126587 L3.875,5.4126587 L7.375,11.474836 L14.375,11.474836 L17.875,17.537014 L24.875,17.537014 L28.375,23.599192 L29.783857,23.599192" fill="none" stroke="#1a1a1a" stroke-linecap="round" stroke-linejoin="round" stroke-width="0.03"/>
<path d="M-35.53029,-13.475854 L-34.875,-12.340862 L-27.875,-12.340862 L-24.375,-6.278684 L-17.375,-6.278684 L-13.875,-0.21650635 L-6.875,-0.21650635 L-3.375,5.8456717 L3.625,5.8456717 L7.125,11.907849 L14.125,11.907849 L17.625,17.970028 L24.625,17.970028 L28.125,24.032206 L29.435575,24.032206" fill="none" stroke="#1a1a1a" stroke-linecap="round" stroke-linejoin="round" stroke-width="0.03"/>
<path d="M-35.725838,-12.948532 L-35.125,-11.907849 L-28.125,-11.907849 L-24.625,-5.8456717 L-17.625,-5.8456717 L-14.125,0.21650635 L-7.125,0.21650635 L-3.625,6.278684 L3.375,6.278684 L6.875,12.340862 L13.875,12.340862 L17.375,18.40304 L24.375,18.40304 L27.875,24.465218 L29.076677,24.465218" fill="none" stroke="#1a1a1a" stroke-linecap="round" stroke-linejoin="round" stroke-width="0.03"/>
<path d="M-36.086052,-11.907849 L-35.125,-11.907849 L-31.625,-5.8456717 L-24.625,-5.8456717 L-21.125,0.21650635 L-14.125,0.21650635 L-10.625,6.278684 L-3.625,6.278684 L-0.125,12.340862 L6.875,12.340862 L10.375,18.40304 L17.375,18.40304 L20.875,24.465218 L27.875,24.465218 L28.355526,25.297512" fill="none" stroke="#1a1a1a" stroke-linecap="round" stroke-linejoin="round" stroke-width="0.03"/>
<path d="M-36.22607,-11.474836 L-35.375,-11.474836 L-31.875,-5.4126587 L-24.875,-5.4126587 L-21.375,0.649519 L-14.375,0.649519 L-10.875,6.711697 L-3.875,6.711697 L-0.375,12.773874 L6.625,12.773874 L10.125,18.836052 L17.125,18.836052 L20.625,24.89823 L27.625,24.89823 L28.050535,25.635279" fill="none" stroke="#1a1a1a" stroke-linecap="round" stroke-linejoin="round" stroke-width="0.03"/>
<path d="M-36.360394,-11.041824 L-35.625,-11.041824 L-32.125,-4.979646 L-25.125,-4.979646 L-21.625,1.0825318 L-14.625,1.0825318 L-11.125,7.1447096 L-4.125,7.1447096 L-0.625,13.206887 L6.375,13.206887 L9.875,19.269066 L16.875,19.269066 L20.375,25.331244 L27.375,25.331244 L27.742697,25.968111" fill="none" stroke="#1a1a1a" stroke-linecap="round" stroke-linejoin="round" stroke-width="0.03"/>
<path d="M-36.489082,-10.608811 L-35.875,-10.608811 L-32.375,-4.5466332 L-25.375,-4.5466332 L-21.875,1.5155444 L-14.875,1.5155444 L-11.375,7.577722 L-4.375,7.577722 L-0.875,13.6399 L6.125,13.6399 L9.625,19.702078 L16.625,19.702078 L20.125,25.764256 L27.125,25.764256 L27.432041,26.296066" fill="none" stroke="#1a1a1a" stroke-linecap="round" stroke-linejoin="round" stroke-width="0.03"/>
<path d="M-36.612198,-10.175798 L-36.125,-10.175798 L-32.625,-4.1136208 L-25.625,-4.1136208 L-22.125,1.9485571 L-15.125,1.9485571 L-11.625,8.010735 L-4.625,8.010735 L-1.125,14.072913 L5.875,14.072913 L9.375,20.13509 L16.375,20.13509 L19.875,26.197268 L26.875,26.197268 L27.118599,26.619196" fill="none" stroke="#1a1a1a" stroke-linecap="round" stroke-linejoin="round" stroke-width="0.03"/>
<path d="M-36.729797,-9.742785 L-36.375,-9.742785 L-32.875,-3.680608 L-25.875,-3.680608 L-22.375,2.3815699 L-15.375,2.3815699 L-11.875,8.4437475 L-4.875,8.4437475 L-1.375,14.505925 L5.625,14.505925 L9.125,20.568104 L16.125,20.568104 L19.625,26.630281 L26.625,26.630281 L26.802399,26.937546" fill="none" stroke="#1a1a1a" stroke-linecap="round" stroke-linejoin="round" stroke-width="0.03"/>
<path d="M-36.841934,-9.309773 L-36.625,-9.309773 L-33.125,-3.2475953 L-26.125,-3.2475953 L-22.625,2.8145826 L-15.625,2.8145826 L-12.125,8.8767605 L-5.125,8.8767605 L-1.625,14.938938 L5.375,14.938938 L8.875,21.001116 L15.875,21.001116 L19.375,27.063293 L26.375,27.063293 L26.483467,27.251165" fill="none" stroke="#1a1a1a" stroke-linecap="round" stroke-linejoin="round" stroke-width="0.03"/>
<path d="M-36.948654,-8.8767605 L-36.875,-8.8767605 L-33.375,-2.8145826 L-26.375,-2.8145826 L-22.875,3.2475953 L-15.875,3.2475953 L-12.375,9.309773 L-5.375,9.309773 L-1.875,15.371951 L5.125,15.371951 L8.625,21.434128 L15.625,21.434128 L19.125,27.496307 L26.125,27.496307 L26.161827,27.560095" fill="none" stroke="#1a1a1a" stroke-linecap="round" stroke-linejoin="round" stroke-width="0.03"/>
<path d="M-37.071144,-8.350467 L-33.625,-2.3815699 L-26.625,-2.3815699 L-23.125,3.680608 L-16.125,3.680608 L-12.625,9.742785 L-5.625,9.742785 L-2.125,15.804964 L4.875,15.804964 L8.375,21.867142 L15.375,21.867142 L18.875,27.92932 L25.767288,27.92932" fill="none" stroke="#1a1a1a" stroke-linecap="round" stroke-linejoin="round" stroke-width="0.03"/>
<path d="M-37.20744,-7.7205143 L-33.875,-1.9485571 L-26.875,-1.9485571 L-23.375,4.1136208 L-16.375,4.1136208 L-12.875,10.175798 L-5.875,10.175798 L-2.375,16.237976 L4.625,16.237976 L8.125,22.300154 L15.125,22.300154 L18.625,28.362331 L25.289883,28.362331" fill="none" stroke="#1a1a1a" stroke-linecap="round" stroke-linejoin="round" stroke-width="0.03"/>
<path d="M-37.335365,-7.076058 L-34.125,-1.5155444 L-27.125,-1.5155444 L-23.625,4.5466332 L-16.625,4.5466332 L-13.125,10.608811 L-6.125,10.608811 L-2.625,16.670988 L4.375,16.670988 L7.875,22.733168 L14.875,22.733168 L18.375,28.795345 L24.795729,28.795345" fill="none" stroke="#1a1a1a" stroke-linecap="round" stroke-linejoin="round" stroke-width="0.03"/>
<path d="M-37.454403,-6.416212 L-34.375,-1.0825318 L-27.375,-1.0825318 L-23.875,4.979646 L-16.875,4.979646 L-13.375,11.041824 L-6.375,11.041824 L-2.875,17.104002 L4.125,17.104002 L7.625,23.16618 L14.625,23.16618 L18.125,29.228357 L24.283804,29.228357" fill="none" stroke="#1a1a1a" stroke-linecap="round" stroke-linejoin="round" stroke-width="0.03"/>
<path d="M-37.984577,-1.0825318 L-34.375,-1.0825318 L-30.875,4.979646 L-23.875,4.979646 L-20.375,11.041824 L-13.375,11.041824 L-9.875,17.104002 L-2.875,17.104002 L0.625,23.16618 L7.625,23.16618 L11.125,29.228357 L18.125,29.228357 L19.929789,32.354343" fill="none" stroke="#1a1a1a" stroke-linecap="round" stroke-linejoin="round" stroke-width="0.03"/>
<path d="M-37.99445,-0.649519 L-34.625,-0.649519 L-31.125,5.4126587 L-24.125,5.4126587 L-20.625,11.474836 L-13.625,11.474836 L-10.125,17.537014 L-3.125,17.537014 L0.375,23.599192 L7.375,23.599192 L10.875,29.66137 L17.875,29.66137 L19.559725,32.5794" fill="none" stroke="#1a1a1a" stroke-linecap="round" stroke-linejoin="round" stroke-width="0.03"/>
<path d="M-37.999382,-0.21650635 L-34.875,-0.21650635 L-31.375,5.8456717 L-24.375,5.8456717 L-20.875,11.907849 L-13.875,11.907849 L-10.375,17.970028 L-3.375,17.970028 L0.125,24.032206 L7.125,24.032206 L10.625,30.094383 L17.625,30.094383 L19.187191,32.80018" fill="none" stroke="#1a1a1a" stroke-linecap="round" stroke-linejoin="round" stroke-width="0.03"/>
<path d="M-37.999382,0.21650635 L-35.125,0.21650635 L-31.625,6.278684 L-24.625,6.278684 L-21.125,12.340862 L-14.125,12.340862 L-10.625,18.40304 L-3.625,18.40304 L-0.125,24.465218 L6.875,24.465218 L10.375,30.527395 L17.375,30.527395 L18.812191,33.016685" fill="none" stroke="#1a1a1a" stroke-linecap="round" stroke-linejoin="round" stroke-width="0.03"/>
<path d="M-37.99445,0.649519 L-35.375,0.649519 L-31.875,6.711697 L-24.875,6.711697 L-21.375,12.773874 L-14.375,12.773874 L-10.875,18.836052 L-3.875,18.836052 L-0.375,24.89823 L6.625,24.89823 L10.125,30.960407 L17.125,30.960407 L18.434725,33.228916" fill="none" stroke="#1a1a1a" stroke-linecap="round" stroke-linejoin="round" stroke-width="0.03"/>
<path d="M-37.984577,1.0825318 L-35.625,1.0825318 L-32.125,7.1447096 L-25.125,7.1447096 L-21.625,13.206887 L-14.625,13.206887 L-11.125,19.269066 L-4.125,19.269066 L-0.625,25.331244 L6.375,25.331244 L9.875,31.393421 L16.875,31.393421 L18.054789,33.436874" fill="none" stroke="#1a1a1a" stroke-linecap="round" stroke-linejoin="round" stroke-width="0.03"/>
<path d="M-37.969765,1.5155444 L-35.875,1.5155444 L-32.375,7.577722 L-25.375,7.577722 L-21.875,13.6399 L-14.875,13.6399 L-11.375,19.702078 L-4.375,19.702078 L-0.875,25.764256 L6.125,25.764256 L9.625,31.826433 L16.625,31.826433 L17.672382,33.640553" fill="none" stroke="#1a1a1a" stroke-linecap="round" stroke-linejoin="round" stroke-width="0.03"/>
<path d="M-37.95001,1.9485571 L-36.125,1.9485571 L-32.625,8.010735 L-25.625,8.010735 L-22.125,14.072913 L-15.125,14.072913 L-11.625,20.13509 L-4.625,20.13509 L-1.125,26.197268 L5.875,26.197268 L9.375,32.259445 L16.375,32.259445 L17.287504,33.83995" fill="none" stroke="#1a1a1a" stroke-linecap="round" stroke-linejoin="round" stroke-width="0.03"/>
<path d="M-37.925297,2.3815699 L-36.375,2.3815699 L-32.875,8.4437475 L-25.875,8.4437475 L-22.375,14.505925 L-15.375,14.505925 L-11.875,20.568104 L-4.875,20.568104 L-1.375,26.630281 L5.625,26.630281 L9.125,32.69246 L16.125,32.69246 L16.900148,34.035057" fill="none" stroke="#1a1a1a" stroke-linecap="round" stroke-linejoin="round" stroke-width="0.03"/>
<path d="M-37.895622,2.8145826 L-36.625,2.8145826 L-33.125,8.8767605 L-26.125,8.8767605 L-22.625,14.938938 L-15.625,14.938938 L-12.125,21.001116 L-5.125,21.001116 L-1.625,27.063293 L5.375,27.063293 L8.875,33.125473 L15.875,33.125473 L16.510311,34.22586" fill="none" stroke="#1a1a1a" stroke-linecap="round" stroke-linejoin="round" stroke-width="0.03"/>
<path d="M-37.86097,3.2475953 L-36.875,3.2475953 L-33.375,9.309773 L-26.375,9.309773 L-22.875,15.371951 L-15.875,15.371951 L-12.375,21.434128 L-5.375,21.434128 L-1.875,27.496307 L5.125,27.496307 L8.625,33.558483 L15.625,33.558483 L16.117985,34.41236" fill="none" stroke="#1a1a1a" stroke-linecap="round" stroke-linejoin="round" stroke-width="0.03"/>
<path d="M-37.82133,3.680608 L-37.125,3.680608 L-33.625,9.742785 L-26.625,9.742785 L-23.125,15.804964 L-16.125,15.804964 L-12.625,21.867142 L-5.625,21.867142 L-2.125,27.92932 L4.875,27.92932 L8.375,33.991497 L15.375,33.991497 L15.7231655,34.59454" fill="none" stroke="#1a1a1a" stroke-linecap="round" stroke-linejoin="round" stroke-width="0.03"/>
<path d="M-36.729797,9.742785 L-33.625,9.742785 L-30.125,15.804964 L-23.125,15.804964 L-19.625,21.867142 L-12.625,21.867142 L-9.125,27.92932 L-2.125,27.92932 L1.375,33.991497 L8.375,33.991497 L9.9274,36.680332" fill="none" stroke="#1a1a1a" stroke-linecap="round" stroke-linejoin="round" stroke-width="0.03"/>
<path d="M-36.612198,10.175798 L-33.875,10.175798 L-30.375,16.237976 L-23.375,16.237976 L-19.875,22.300154 L-12.875,22.300154 L-9.375,28.362331 L-2.375,28.362331 L1.125,34.42451 L8.125,34.42451 L9.4936,36.794994" fill="none" stroke="#1a1a1a" stroke-linecap="round" stroke-linejoin="round" stroke-width="0.03"/>
<path d="M-36.489082,10.608811 L-34.125,10.608811 L-30.625,16.670988 L-23.625,16.670988 L-20.125,22.733168 L-13.125,22.733168 L-9.625,28.795345 L-2.625,28.795345 L0.875,34.85752 L7.875,34.85752 L9.057041,36.904877" fill="none" stroke="#1a1a1a" stroke-linecap="round" stroke-linejoin="round" stroke-width="0.03"/>
<path d="M-36.360394,11.041824 L-34.375,11.041824 L-30.875,17.104002 L-23.875,17.104002 L-20.375,23.16618 L-13.375,23.16618 L-9.875,29.228357 L-2.875,29.228357 L0.625,35.290535 L7.625,35.290535 L8.617696,37.009933" fill="none" stroke="#1a1a1a" stroke-linecap="round" stroke-linejoin="round" stroke-width="0.03"/>
<path d="M-36.22607,11.474836 L-34.625,11.474836 L-31.125,17.537014 L-24.125,17.537014 L-20.625,23.599192 L-13.625,23.599192 L-10.125,29.66137 L-3.125,29.66137 L0.375,35.72355 L7.375,35.72355 L8.175535,37.110115" fill="none" stroke="#1a1a1a" stroke-linecap="round" stroke-linejoin="round" stroke-width="0.03"/>
<path d="M-36.086052,11.907849 L-34.875,11.907849 L-31.375,17.970028 L-24.375,17.970028 L-20.875,24.032206 L-13.875,24.032206 L-10.375,30.094383 L-3.375,30.094383 L0.125,36.15656 L7.125,36.15656 L7.730526,37.20536" fill="none" stroke="#1a1a1a" stroke-linecap="round" stroke-linejoin="round" stroke-width="0.03"/>
<path d="M-35.940273,12.340862 L-35.125,12.340862 L-31.625,18.40304 L-24.625,18.40304 L-21.125,24.465218 L-14.125,24.465218 L-10.625,30.527395 L-3.625,30.527395 L-0.125,36.589573 L6.875,36.589573 L7.2826357,37.29562" fill="none" stroke="#1a1a1a" stroke-linecap="round" stroke-linejoin="round" stroke-width="0.03"/>
<path d="M-35.78866,12.773874 L-35.375,12.773874 L-31.875,18.836052 L-24.875,18.836052 L-21.375,24.89823 L-14.375,24.89823 L-10.875,30.960407 L-3.875,30.960407 L-0.375,37.022587 L6.625,37.022587 L6.8318295,37.380825" fill="none" stroke="#1a1a1a" stroke-linecap="round" stroke-linejoin="round" stroke-width="0.03"/>
<path d="M-35.63114,13.206887 L-35.625,13.206887 L-32.125,19.269066 L-25.125,19.269066 L-21.625,25.331244 L-14.625,25.331244 L-11.125,31.393421 L-4.125,31.393421 L-0.625,37.455597 L6.375,37.455597 L6.37807,37.460915" fill="none" stroke="#1a1a1a" stroke-linecap="round" stroke-linejoin="round" stroke-width="0.03"/>
<path d="M-34.266212,16.426401 L-32.375,19.702078 L-25.375,19.702078 L-21.875,25.764256 L-14.875,25.764256 L-11.375,31.826433 L-4.375,31.826433 L-0.875,37.88861 L2.9074259,37.88861" fill="none" stroke="#1a1a1a" stroke-linecap="round" stroke-linejoin="round" stroke-width="0.03"/>
<path d="M-32.22698,20.13509 L-25.625,20.13509 L-22.125,26.197268 L-15.125,26.197268 L-11.625,32.259445 L-4.625,32.259445 L-1.3240108,37.97693" fill="none" stroke="#1a1a1a" stroke-linecap="round" stroke-linejoin="round" stroke-width="0.03"/>
<path d="M-31.952356,20.568104 L-25.875,20.568104 L-22.375,26.630281 L-15.375,26.630281 L-11.875,32.69246 L-4.875,32.69246 L-1.8363215,37.955605" fill="none" stroke="#1a1a1a" stroke-linecap="round" stroke-linejoin="round" stroke-width="0.03"/>
<path d="M-27.107714,26.630281 L-22.375,26.630281 L-18.875,32.69246 L-11.875,32.69246 L-9.508643,36.791107" fill="none" stroke="#1a1a1a" stroke-linecap="round" stroke-linejoin="round" stroke-width="0.03"/>
<path d="M-26.675423,27.063293 L-22.625,27.063293 L-19.377518,32.6881" fill="none" stroke="#1a1a1a" stroke-linecap="round" stroke-linejoin="round" stroke-width="0.03"/>
<path d="M-18.619967,33.125473 L-12.125,33.125473 L-10.099789,36.63324" fill="none" stroke="#1a1a1a" stroke-linecap="round" stroke-linejoin="round" stroke-width="0.03"/>
<path d="M-26.22886,27.496307 L-22.875,27.496307 L-20.148632,32.218513" fill="none" stroke="#1a1a1a" stroke-linecap="round" stroke-linejoin="round" stroke-width="0.03"/>
<path d="M-17.827734,33.558483 L-12.375,33.558483 L-10.69807,36.463013" fill="none" stroke="#1a1a1a" stroke-linecap="round" stroke-linejoin="round" stroke-width="0.03"/>
<path d="M-25.767288,27.92932 L-23.125,27.92932 L-20.943707,31.70743" fill="none" stroke="#1a1a1a" stroke-linecap="round" stroke-linejoin="round" stroke-width="0.03"/>
<path d="M-16.987587,33.991497 L-12.625,33.991497 L-11.303856,36.279785" fill="none" stroke="#1a1a1a" stroke-linecap="round" stroke-linejoin="round" stroke-width="0.03"/>
<path d="M-25.289883,28.362331 L-23.375,28.362331 L-21.766489,31.148354" fill="none" stroke="#1a1a1a" stroke-linecap="round" stroke-linejoin="round" stroke-width="0.03"/>
<path d="M-16.09202,34.42451 L-12.875,34.42451 L-11.917559,36.082848" fill="none" stroke="#1a1a1a" stroke-linecap="round" stroke-linejoin="round" stroke-width="0.03"/>
<path d="M-24.795729,28.795345 L-23.625,28.795345 L-22.6219,30.532763" fill="none" stroke="#1a1a1a" stroke-linecap="round" stroke-linejoin="round" stroke-width="0.03"/>
<path d="M-15.131197,34.85752 L-13.125,34.85752 L-12.539636,35.871403" fill="none" stroke="#1a1a1a" stroke-linecap="round" stroke-linejoin="round" stroke-width="0.03"/>
<path d="M-24.283804,29.228357 L-23.875,29.228357 L-23.516613,29.849102" fill="none" stroke="#1a1a1a" stroke-linecap="round" stroke-linejoin="round" stroke-width="0.03"/>
<path d="M-14.091775,35.290535 L-13.375,35.290535 L-13.170598,35.64457" fill="none" stroke="#1a1a1a" stroke-linecap="round" stroke-linejoin="round" stroke-width="0.03"/>
</g>
<circle cx="0" cy="0" fill="none" r="39.9" stroke="#1a1a1a" stroke-width="0.8"/>
<circle cx="0" cy="0" fill="#1a1a1a" r="0.8"/>
</svg>