<svg height="53.95296966812727mm" viewBox="-26.999946925422194 -26.95709204122264 53.99989385084439 53.95296966812727" width="53.99989385084439mm" xmlns="http://www.w3.org/2000/svg">
<path d="M-8.128791,-20.44316 L-7.7942286,-20.25 L-6.4236283,-21.041317" fill="none" stroke="black" stroke-width="0.05"/>
<path d="M6.4236283,-21.041317 L7.7942286,-20.25 L8.128791,-20.44316" fill="none" stroke="black" stroke-width="0.05"/>
<path d="M-8.634128,-20.234917 L-7.7942286,-19.75 L-4.8247457,-21.464432" fill="none" stroke="black" stroke-width="0.05"/>
<path d="M4.8247457,-21.464432 L7.7942286,-19.75 L8.634128,-20.234917" fill="none" stroke="black" stroke-width="0.05"/>
<path d="M-9.125029,-20.018337 L-7.7942286,-19.25 L-3.5227764,-21.716124" fill="none" stroke="black" stroke-width="0.05"/>
<path d="M3.5227764,-21.716124 L7.7942286,-19.25 L9.125029,-20.018337" fill="none" stroke="black" stroke-width="0.05"/>
<path d="M-9.602246,-19.79386 L-7.7942286,-18.75 L-2.3907235,-21.869715" fill="none" stroke="black" stroke-width="0.05"/>
<path d="M2.3907235,-21.869715 L7.7942286,-18.75 L9.602246,-19.79386" fill="none" stroke="black" stroke-width="0.05"/>
<path d="M-10.066448,-19.561867 L-7.7942286,-18.25 L-1.3733568,-21.957092" fill="none" stroke="black" stroke-width="0.05"/>
<path d="M1.3733568,-21.957092 L7.7942286,-18.25 L10.066448,-19.561867" fill="none" stroke="black" stroke-width="0.05"/>
<path d="M-16.659721,-14.368495 L-15.588457,-13.75 L-7.7942286,-18.25 L0,-13.75 L7.7942286,-18.25 L15.588457,-13.75 L16.659721,-14.368495" fill="none" stroke="black" stroke-width="0.05"/>
<path d="M-16.943727,-14.032466 L-15.588457,-13.25 L-7.7942286,-17.75 L0,-13.25 L7.7942286,-17.75 L15.588457,-13.25 L16.943727,-14.032466" fill="none" stroke="black" stroke-width="0.05"/>
<path d="M-17.22003,-13.691989 L-15.588457,-12.75 L-7.7942286,-17.25 L0,-12.75 L7.7942286,-17.25 L15.588457,-12.75 L17.22003,-13.691989" fill="none" stroke="black" stroke-width="0.05"/>
<path d="M-17.488703,-13.347107 L-15.588457,-12.25 L-7.7942286,-16.75 L0,-12.25 L7.7942286,-16.75 L15.588457,-12.25 L17.488703,-13.347107" fill="none" stroke="black" stroke-width="0.05"/>
<path d="M-17.74981,-12.997857 L-15.588457,-11.75 L-7.7942286,-16.25 L0,-11.75 L7.7942286,-16.25 L15.588457,-11.75 L17.74981,-12.997857" fill="none" stroke="black" stroke-width="0.05"/>
<path d="M-18.0034,-12.644269 L-15.588457,-11.25 L-7.7942286,-15.75 L0,-11.25 L7.7942286,-15.75 L15.588457,-11.25 L18.0034,-12.644269" fill="none" stroke="black" stroke-width="0.05"/>
<path d="M-18.249525,-12.286368 L-15.588457,-10.75 L-7.7942286,-15.25 L0,-10.75 L7.7942286,-15.25 L15.588457,-10.75 L18.249525,-12.286368" fill="none" stroke="black" stroke-width="0.05"/>
<path d="M-18.488214,-11.924175 L-15.588457,-10.25 L-7.7942286,-14.75 L0,-10.25 L7.7942286,-14.75 L15.588457,-10.25 L18.488214,-11.924175" fill="none" stroke="black" stroke-width="0.05"/>
<path d="M-20.767654,-7.2597895 L-15.588457,-10.25 L-7.7942286,-5.75 L0,-10.25 L7.7942286,-5.75 L15.588457,-10.25 L20.767654,-7.2597895" fill="none" stroke="black" stroke-width="0.05"/>
<path d="M-20.973797,-6.640773 L-15.588457,-9.75 L-7.7942286,-5.25 L0,-9.75 L7.7942286,-5.25 L15.588457,-9.75 L20.973797,-6.640773" fill="none" stroke="black" stroke-width="0.05"/>
<path d="M-21.155872,-6.0356517 L-15.588457,-9.25 L-7.7942286,-4.75 L0,-9.25 L7.7942286,-4.75 L15.588457,-9.25 L21.155872,-6.0356517" fill="none" stroke="black" stroke-width="0.05"/>
<path d="M-21.315992,-5.4432063 L-15.588457,-8.75 L-7.7942286,-4.25 L0,-8.75 L7.7942286,-4.25 L15.588457,-8.75 L21.315992,-5.4432063" fill="none" stroke="black" stroke-width="0.05"/>
<path d="M-21.45593,-4.862413 L-15.588457,-8.25 L-7.7942286,-3.75 L0,-8.25 L7.7942286,-3.75 L15.588457,-8.25 L21.45593,-4.862413" fill="none" stroke="black" stroke-width="0.05"/>
<path d="M-21.577194,-4.2924013 L-15.588457,-7.75 L-7.7942286,-3.25 L0,-7.75 L7.7942286,-3.25 L15.588457,-7.75 L21.577194,-4.2924013" fill="none" stroke="black" stroke-width="0.05"/>
<path d="M-21.681074,-3.7324257 L-15.588457,-7.25 L-7.7942286,-2.75 L0,-7.25 L7.7942286,-2.75 L15.588457,-7.25 L21.681074,-3.7324257" fill="none" stroke="black" stroke-width="0.05"/>
<path d="M-21.76869,-3.1818407 L-15.588457,-6.75 L-7.7942286,-2.25 L0,-6.75 L7.7942286,-2.25 L15.588457,-6.75 L21.76869,-3.1818407" fill="none" stroke="black" stroke-width="0.05"/>
<path d="M-21.953798,-1.4250317 L-15.588457,2.25 L-7.7942286,-2.25 L0,2.25 L7.7942286,-2.25 L15.588457,2.25 L21.953798,-1.4250317" fill="none" stroke="black" stroke-width="0.05"/>
<path d="M-21.979904,-0.9401038 L-15.588457,2.75 L-7.7942286,-1.75 L0,2.75 L7.7942286,-1.75 L15.588457,2.75 L21.979904,-0.9401038" fill="none" stroke="black" stroke-width="0.05"/>
<path d="M-21.995417,-0.4490596 L-15.588457,3.25 L-7.7942286,-1.25 L0,3.25 L7.7942286,-1.25 L15.588457,3.25 L21.995417,-0.4490596" fill="none" stroke="black" stroke-width="0.05"/>
<path d="M-21.999947,0.04832472 L-15.588457,3.75 L-7.7942286,-0.75 L0,3.75 L7.7942286,-0.75 L15.588457,3.75 L21.999947,0.04832472" fill="none" stroke="black" stroke-width="0.05"/>
<path d="M-21.993067,0.55229723 L-15.588457,4.25 L-7.7942286,-0.25 L0,4.25 L7.7942286,-0.25 L15.588457,4.25 L21.993067,0.55229723" fill="none" stroke="black" stroke-width="0.05"/>
<path d="M-21.974297,1.0631335 L-15.588457,4.75 L-7.7942286,0.25 L0,4.75 L7.7942286,0.25 L15.588457,4.75 L21.974297,1.0631335" fill="none" stroke="black" stroke-width="0.05"/>
<path d="M-21.943108,1.5811406 L-15.588457,5.25 L-7.7942286,0.75 L0,5.25 L7.7942286,0.75 L15.588457,5.25 L21.943108,1.5811406" fill="none" stroke="black" stroke-width="0.05"/>
<path d="M-21.898903,2.1066623 L-15.588457,5.75 L-7.7942286,1.25 L0,5.75 L7.7942286,1.25 L15.588457,5.75 L21.898903,2.1066623" fill="none" stroke="black" stroke-width="0.05"/>
<path d="M-20.303286,8.472107 L-15.588457,5.75 L-7.7942286,10.25 L0,5.75 L7.7942286,10.25 L15.588457,5.75 L20.303286,8.472107" fill="none" stroke="black" stroke-width="0.05"/>
<path d="M-20.131378,8.872857 L-15.588457,6.25 L-7.7942286,10.75 L0,6.25 L7.7942286,10.75 L15.588457,6.25 L20.131378,8.872857" fill="none" stroke="black" stroke-width="0.05"/>
<path d="M-19.95196,9.269269 L-15.588457,6.75 L-7.7942286,11.25 L0,6.75 L7.7942286,11.25 L15.588457,6.75 L19.95196,9.269269" fill="none" stroke="black" stroke-width="0.05"/>
<path d="M-19.76507,9.661368 L-15.588457,7.25 L-7.7942286,11.75 L0,7.25 L7.7942286,11.75 L15.588457,7.25 L19.76507,9.661368" fill="none" stroke="black" stroke-width="0.05"/>
<path d="M-19.570745,10.049175 L-15.588457,7.75 L-7.7942286,12.25 L0,7.75 L7.7942286,12.25 L15.588457,7.75 L19.570745,10.049175" fill="none" stroke="black" stroke-width="0.05"/>
<path d="M-19.369013,10.432705 L-15.588457,8.25 L-7.7942286,12.75 L0,8.25 L7.7942286,12.75 L15.588457,8.25 L19.369013,10.432705" fill="none" stroke="black" stroke-width="0.05"/>
<path d="M-19.15989,10.811967 L-15.588457,8.75 L-7.7942286,13.25 L0,8.75 L7.7942286,13.25 L15.588457,8.75 L19.15989,10.811967" fill="none" stroke="black" stroke-width="0.05"/>
<path d="M-18.943382,11.186967 L-15.588457,9.25 L-7.7942286,13.75 L0,9.25 L7.7942286,13.75 L15.588457,9.25 L18.943382,11.186967" fill="none" stroke="black" stroke-width="0.05"/>
<path d="M-13.73924,17.182354 L-7.7942286,13.75 L0,18.25 L7.7942286,13.75 L13.73924,17.182354" fill="none" stroke="black" stroke-width="0.05"/>
<path d="M-13.371515,17.470049 L-7.7942286,14.25 L0,18.75 L7.7942286,14.25 L13.371515,17.470049" fill="none" stroke="black" stroke-width="0.05"/>
<path d="M-12.994415,17.752329 L-7.7942286,14.75 L0,19.25 L7.7942286,14.75 L12.994415,17.752329" fill="none" stroke="black" stroke-width="0.05"/>
<path d="M-12.6076765,18.029045 L-7.7942286,15.25 L0,19.75 L7.7942286,15.25 L12.6076765,18.029045" fill="none" stroke="black" stroke-width="0.05"/>
<path d="M-12.211013,18.300032 L-7.7942286,15.75 L0,20.25 L7.7942286,15.75 L12.211013,18.300032" fill="none" stroke="black" stroke-width="0.05"/>
<path d="M-11.804106,18.565104 L-7.7942286,16.25 L0,20.75 L7.7942286,16.25 L11.804106,18.565104" fill="none" stroke="black" stroke-width="0.05"/>
<path d="M-11.386605,18.82406 L-7.7942286,16.75 L0,21.25 L7.7942286,16.75 L11.386605,18.82406" fill="none" stroke="black" stroke-width="0.05"/>
<path d="M-10.958123,19.076675 L-7.7942286,17.25 L0,21.75 L7.7942286,17.25 L10.958123,19.076675" fill="none" stroke="black" stroke-width="0.05"/>
<path d="M-0.42587253,21.995878 L0,21.75 L0.42587253,21.995878" fill="none" stroke="black" stroke-width="0.05"/>
</svg>