<svg height="53.88948237258956mm" viewBox="-26.99759461255252 -26.998952415871955 53.99518922510504 53.88948237258956" width="53.99518922510504mm" xmlns="http://www.w3.org/2000/svg">
<path d="M-0.21469188,-21.998953 L0,-21.875 L0.21469188,-21.998953" fill="none" stroke="black" stroke-width="0.05"/>
<path d="M-0.63370746,-21.990871 L0,-21.625 L0.63370746,-21.990871" fill="none" stroke="black" stroke-width="0.05"/>
<path d="M-1.0399362,-21.975407 L0,-21.375 L1.0399362,-21.975407" fill="none" stroke="black" stroke-width="0.05"/>
<path d="M-1.4344584,-21.953184 L0,-21.125 L1.4344584,-21.953184" fill="none" stroke="black" stroke-width="0.05"/>
<path d="M-7.207075,-20.786007 L-3.8971143,-18.875 L0,-21.125 L3.8971143,-18.875 L7.207075,-20.786007" fill="none" stroke="black" stroke-width="0.05"/>
<path d="M-11.700739,-18.630424 L-11.691343,-18.625 L-10.086851,-19.551353" fill="none" stroke="black" stroke-width="0.05"/>
<path d="M-7.4755044,-20.690985 L-3.8971143,-18.625 L0,-20.875 L3.8971143,-18.625 L7.4755044,-20.690985" fill="none" stroke="black" stroke-width="0.05"/>
<path d="M10.086851,-19.551353 L11.691343,-18.625 L11.700739,-18.630424" fill="none" stroke="black" stroke-width="0.05"/>
<path d="M-11.906812,-18.499401 L-11.691343,-18.375 L-8.066423,-20.467848" fill="none" stroke="black" stroke-width="0.05"/>
<path d="M-7.7398033,-20.593578 L-3.8971143,-18.375 L0,-20.625 L3.8971143,-18.375 L7.7398033,-20.593578" fill="none" stroke="black" stroke-width="0.05"/>
<path d="M8.066423,-20.467848 L11.691343,-18.375 L11.906812,-18.499401" fill="none" stroke="black" stroke-width="0.05"/>
<path d="M-12.11026,-18.366861 L-11.691343,-18.125 L-7.7942286,-20.375 L-3.8971143,-18.125 L0,-20.375 L3.8971143,-18.125 L7.7942286,-20.375 L11.691343,-18.125 L12.11026,-18.366861" fill="none" stroke="black" stroke-width="0.05"/>
<path d="M-12.311127,-18.232832 L-11.691343,-17.875 L-7.7942286,-20.125 L-3.8971143,-17.875 L0,-20.125 L3.8971143,-17.875 L7.7942286,-20.125 L11.691343,-17.875 L12.311127,-18.232832" fill="none" stroke="black" stroke-width="0.05"/>
<path d="M-12.509453,-18.097336 L-11.691343,-17.625 L-7.7942286,-19.875 L-3.8971143,-17.625 L0,-19.875 L3.8971143,-17.625 L7.7942286,-19.875 L11.691343,-17.625 L12.509453,-18.097336" fill="none" stroke="black" stroke-width="0.05"/>
<path d="M-12.70528,-17.960398 L-11.691343,-17.375 L-7.7942286,-19.625 L-3.8971143,-17.375 L0,-19.625 L3.8971143,-17.375 L7.7942286,-19.625 L11.691343,-17.375 L12.70528,-17.960398" fill="none" stroke="black" stroke-width="0.05"/>
<path d="M-12.898644,-17.822037 L-11.691343,-17.125 L-7.7942286,-19.375 L-3.8971143,-17.125 L0,-19.375 L3.8971143,-17.125 L7.7942286,-19.375 L11.691343,-17.125 L12.898644,-17.822037" fill="none" stroke="black" stroke-width="0.05"/>
<path d="M-15.992095,-15.108041 L-15.588457,-14.875 L-11.691343,-17.125 L-7.7942286,-14.875 L-3.8971143,-17.125 L0,-14.875 L3.8971143,-17.125 L7.7942286,-14.875 L11.691343,-17.125 L15.588457,-14.875 L15.992095,-15.108041" fill="none" stroke="black" stroke-width="0.05"/>
<path d="M-16.14392,-14.945697 L-15.588457,-14.625 L-11.691343,-16.875 L-7.7942286,-14.625 L-3.8971143,-16.875 L0,-14.625 L3.8971143,-16.875 L7.7942286,-14.625 L11.691343,-16.875 L15.588457,-14.625 L16.14392,-14.945697" fill="none" stroke="black" stroke-width="0.05"/>
<path d="M-16.293755,-14.782204 L-15.588457,-14.375 L-11.691343,-16.625 L-7.7942286,-14.375 L-3.8971143,-16.625 L0,-14.375 L3.8971143,-16.625 L7.7942286,-14.375 L11.691343,-16.625 L15.588457,-14.375 L16.293755,-14.782204" fill="none" stroke="black" stroke-width="0.05"/>
<path d="M-16.441614,-14.61757 L-15.588457,-14.125 L-11.691343,-16.375 L-7.7942286,-14.125 L-3.8971143,-16.375 L0,-14.125 L3.8971143,-16.375 L7.7942286,-14.125 L11.691343,-16.375 L15.588457,-14.125 L16.441614,-14.61757" fill="none" stroke="black" stroke-width="0.05"/>
<path d="M-16.587507,-14.451802 L-15.588457,-13.875 L-11.691343,-16.125 L-7.7942286,-13.875 L-3.8971143,-16.125 L0,-13.875 L3.8971143,-16.125 L7.7942286,-13.875 L11.691343,-16.125 L15.588457,-13.875 L16.587507,-14.451802" fill="none" stroke="black" stroke-width="0.05"/>
<path d="M-16.731451,-14.284907 L-15.588457,-13.625 L-11.691343,-15.875 L-7.7942286,-13.625 L-3.8971143,-15.875 L0,-13.625 L3.8971143,-15.875 L7.7942286,-13.625 L11.691343,-15.875 L15.588457,-13.625 L16.731451,-14.284907" fill="none" stroke="black" stroke-width="0.05"/>
<path d="M-16.873451,-14.116892 L-15.588457,-13.375 L-11.691343,-15.625 L-7.7942286,-13.375 L-3.8971143,-15.625 L0,-13.375 L3.8971143,-15.625 L7.7942286,-13.375 L11.691343,-15.625 L15.588457,-13.375 L16.873451,-14.116892" fill="none" stroke="black" stroke-width="0.05"/>
<path d="M-17.013523,-13.947762 L-15.588457,-13.125 L-11.691343,-15.375 L-7.7942286,-13.125 L-3.8971143,-15.375 L0,-13.125 L3.8971143,-15.375 L7.7942286,-13.125 L11.691343,-15.375 L15.588457,-13.125 L17.013523,-13.947762" fill="none" stroke="black" stroke-width="0.05"/>
<path d="M-18.942429,-11.188584 L-15.588457,-13.125 L-11.691343,-10.875 L-7.7942286,-13.125 L-3.8971143,-10.875 L0,-13.125 L3.8971143,-10.875 L7.7942286,-13.125 L11.691343,-10.875 L15.588457,-13.125 L18.942429,-11.188584" fill="none" stroke="black" stroke-width="0.05"/>
<path d="M-19.158998,-10.813547 L-15.588457,-12.875 L-11.691343,-10.625 L-7.7942286,-12.875 L-3.8971143,-10.625 L0,-12.875 L3.8971143,-10.625 L7.7942286,-12.875 L11.691343,-10.625 L15.588457,-12.875 L19.158998,-10.813547" fill="none" stroke="black" stroke-width="0.05"/>
<path d="M-19.361507,-10.446629 L-15.588457,-12.625 L-11.691343,-10.375 L-7.7942286,-12.625 L-3.8971143,-10.375 L0,-12.625 L3.8971143,-10.375 L7.7942286,-12.625 L11.691343,-10.375 L15.588457,-12.625 L19.361507,-10.446629" fill="none" stroke="black" stroke-width="0.05"/>
<path d="M-19.521006,-10.145458 L-19.48557,-10.125 L-15.588457,-12.375 L-11.691343,-10.125 L-7.7942286,-12.375 L-3.8971143,-10.125 L0,-12.375 L3.8971143,-10.125 L7.7942286,-12.375 L11.691343,-10.125 L15.588457,-12.375 L19.48557,-10.125 L19.521006,-10.145458" fill="none" stroke="black" stroke-width="0.05"/>
<path d="M-19.620022,-9.952625 L-19.48557,-9.875 L-15.588457,-12.125 L-11.691343,-9.875 L-7.7942286,-12.125 L-3.8971143,-9.875 L0,-12.125 L3.8971143,-9.875 L7.7942286,-12.125 L11.691343,-9.875 L15.588457,-12.125 L19.48557,-9.875 L19.620022,-9.952625" fill="none" stroke="black" stroke-width="0.05"/>
<path d="M-19.717184,-9.758721 L-19.48557,-9.625 L-15.588457,-11.875 L-11.691343,-9.625 L-7.7942286,-11.875 L-3.8971143,-9.625 L0,-11.875 L3.8971143,-9.625 L7.7942286,-11.875 L11.691343,-9.625 L15.588457,-11.875 L19.48557,-9.625 L19.717184,-9.758721" fill="none" stroke="black" stroke-width="0.05"/>
<path d="M-19.81249,-9.563746 L-19.48557,-9.375 L-15.588457,-11.625 L-11.691343,-9.375 L-7.7942286,-11.625 L-3.8971143,-9.375 L0,-11.625 L3.8971143,-9.375 L7.7942286,-11.625 L11.691343,-9.375 L15.588457,-11.625 L19.48557,-9.375 L19.81249,-9.563746" fill="none" stroke="black" stroke-width="0.05"/>
<path d="M-19.905935,-9.367697 L-19.48557,-9.125 L-15.588457,-11.375 L-11.691343,-9.125 L-7.7942286,-11.375 L-3.8971143,-9.125 L0,-11.375 L3.8971143,-9.125 L7.7942286,-11.375 L11.691343,-9.125 L15.588457,-11.375 L19.48557,-9.125 L19.905935,-9.367697" fill="none" stroke="black" stroke-width="0.05"/>
<path d="M-20.201712,-8.711536 L-19.48557,-9.125 L-15.588457,-6.875 L-11.691343,-9.125 L-7.7942286,-6.875 L-3.8971143,-9.125 L0,-6.875 L3.8971143,-9.125 L7.7942286,-6.875 L11.691343,-9.125 L15.588457,-6.875 L19.48557,-9.125 L20.201712,-8.711536" fill="none" stroke="black" stroke-width="0.05"/>
<path d="M-20.341019,-8.381107 L-19.48557,-8.875 L-15.588457,-6.625 L-11.691343,-8.875 L-7.7942286,-6.625 L-3.8971143,-8.875 L0,-6.625 L3.8971143,-8.875 L7.7942286,-6.625 L11.691343,-8.875 L15.588457,-6.625 L19.48557,-8.875 L20.341019,-8.381107" fill="none" stroke="black" stroke-width="0.05"/>
<path d="M-20.472202,-8.055369 L-19.48557,-8.625 L-15.588457,-6.375 L-11.691343,-8.625 L-7.7942286,-6.375 L-3.8971143,-8.625 L0,-6.375 L3.8971143,-8.625 L7.7942286,-6.375 L11.691343,-8.625 L15.588457,-6.375 L19.48557,-8.625 L20.472202,-8.055369" fill="none" stroke="black" stroke-width="0.05"/>
<path d="M-20.595741,-7.734043 L-19.48557,-8.375 L-15.588457,-6.125 L-11.691343,-8.375 L-7.7942286,-6.125 L-3.8971143,-8.375 L0,-6.125 L3.8971143,-8.375 L7.7942286,-6.125 L11.691343,-8.375 L15.588457,-6.125 L19.48557,-8.375 L20.595741,-7.734043" fill="none" stroke="black" stroke-width="0.05"/>
<path d="M-20.71207,-7.41688 L-19.48557,-8.125 L-15.588457,-5.875 L-11.691343,-8.125 L-7.7942286,-5.875 L-3.8971143,-8.125 L0,-5.875 L3.8971143,-8.125 L7.7942286,-5.875 L11.691343,-8.125 L15.588457,-5.875 L19.48557,-8.125 L20.71207,-7.41688" fill="none" stroke="black" stroke-width="0.05"/>
<path d="M-20.821577,-7.1036572 L-19.48557,-7.875 L-15.588457,-5.625 L-11.691343,-7.875 L-7.7942286,-5.625 L-3.8971143,-7.875 L0,-5.625 L3.8971143,-7.875 L7.7942286,-5.625 L11.691343,-7.875 L15.588457,-5.625 L19.48557,-7.875 L20.821577,-7.1036572" fill="none" stroke="black" stroke-width="0.05"/>
<path d="M-20.924608,-6.794172 L-19.48557,-7.625 L-15.588457,-5.375 L-11.691343,-7.625 L-7.7942286,-5.375 L-3.8971143,-7.625 L0,-5.375 L3.8971143,-7.625 L7.7942286,-5.375 L11.691343,-7.625 L15.588457,-5.375 L19.48557,-7.625 L20.924608,-6.794172" fill="none" stroke="black" stroke-width="0.05"/>
<path d="M-21.021482,-6.4882417 L-19.48557,-7.375 L-15.588457,-5.125 L-11.691343,-7.375 L-7.7942286,-5.125 L-3.8971143,-7.375 L0,-5.125 L3.8971143,-7.375 L7.7942286,-5.125 L11.691343,-7.375 L15.588457,-5.125 L19.48557,-7.375 L21.021482,-6.4882417" fill="none" stroke="black" stroke-width="0.05"/>
<path d="M-21.613863,-4.10377 L-19.48557,-2.875 L-15.588457,-5.125 L-11.691343,-2.875 L-7.7942286,-5.125 L-3.8971143,-2.875 L0,-5.125 L3.8971143,-2.875 L7.7942286,-5.125 L11.691343,-2.875 L15.588457,-5.125 L19.48557,-2.875 L21.613863,-4.10377" fill="none" stroke="black" stroke-width="0.05"/>
<path d="M-21.65554,-3.877832 L-19.48557,-2.625 L-15.588457,-4.875 L-11.691343,-2.625 L-7.7942286,-4.875 L-3.8971143,-2.625 L0,-4.875 L3.8971143,-2.625 L7.7942286,-4.875 L11.691343,-2.625 L15.588457,-4.875 L19.48557,-2.625 L21.65554,-3.877832" fill="none" stroke="black" stroke-width="0.05"/>
<path d="M-21.695,-3.650614 L-19.48557,-2.375 L-15.588457,-4.625 L-11.691343,-2.375 L-7.7942286,-4.625 L-3.8971143,-2.375 L0,-4.625 L3.8971143,-2.375 L7.7942286,-4.625 L11.691343,-2.375 L15.588457,-4.625 L19.48557,-2.375 L21.695,-3.650614" fill="none" stroke="black" stroke-width="0.05"/>
<path d="M-21.732216,-3.422101 L-19.48557,-2.125 L-15.588457,-4.375 L-11.691343,-2.125 L-7.7942286,-4.375 L-3.8971143,-2.125 L0,-4.375 L3.8971143,-2.125 L7.7942286,-4.375 L11.691343,-2.125 L15.588457,-4.375 L19.48557,-2.125 L21.732216,-3.422101" fill="none" stroke="black" stroke-width="0.05"/>
<path d="M-21.767162,-3.1922772 L-19.48557,-1.875 L-15.588457,-4.125 L-11.691343,-1.875 L-7.7942286,-4.125 L-3.8971143,-1.875 L0,-4.125 L3.8971143,-1.875 L7.7942286,-4.125 L11.691343,-1.875 L15.588457,-4.125 L19.48557,-1.875 L21.767162,-3.1922772" fill="none" stroke="black" stroke-width="0.05"/>
<path d="M-21.79981,-2.9611263 L-19.48557,-1.625 L-15.588457,-3.875 L-11.691343,-1.625 L-7.7942286,-3.875 L-3.8971143,-1.625 L0,-3.875 L3.8971143,-1.625 L7.7942286,-3.875 L11.691343,-1.625 L15.588457,-3.875 L19.48557,-1.625 L21.79981,-2.9611263" fill="none" stroke="black" stroke-width="0.05"/>
<path d="M-21.83013,-2.7286313 L-19.48557,-1.375 L-15.588457,-3.625 L-11.691343,-1.375 L-7.7942286,-3.625 L-3.8971143,-1.375 L0,-3.625 L3.8971143,-1.375 L7.7942286,-3.625 L11.691343,-1.375 L15.588457,-3.625 L19.48557,-1.375 L21.83013,-2.7286313" fill="none" stroke="black" stroke-width="0.05"/>
<path d="M-21.85809,-2.494774 L-19.48557,-1.125 L-15.588457,-3.375 L-11.691343,-1.125 L-7.7942286,-3.375 L-3.8971143,-1.125 L0,-3.375 L3.8971143,-1.125 L7.7942286,-3.375 L11.691343,-1.125 L15.588457,-3.375 L19.48557,-1.125 L21.85809,-2.494774" fill="none" stroke="black" stroke-width="0.05"/>
<path d="M-21.997595,0.32531717 L-19.48557,-1.125 L-15.588457,1.125 L-11.691343,-1.125 L-7.7942286,1.125 L-3.8971143,-1.125 L0,1.125 L3.8971143,-1.125 L7.7942286,1.125 L11.691343,-1.125 L15.588457,1.125 L19.48557,-1.125 L21.997595,0.32531717" fill="none" stroke="black" stroke-width="0.05"/>
<path d="M-21.992552,0.57240593 L-19.48557,-0.875 L-15.588457,1.375 L-11.691343,-0.875 L-7.7942286,1.375 L-3.8971143,-0.875 L0,1.375 L3.8971143,-0.875 L7.7942286,1.375 L11.691343,-0.875 L15.588457,1.375 L19.48557,-0.875 L21.992552,0.57240593" fill="none" stroke="black" stroke-width="0.05"/>
<path d="M-21.98479,0.81792456 L-19.48557,-0.625 L-15.588457,1.625 L-11.691343,-0.625 L-7.7942286,1.625 L-3.8971143,-0.625 L0,1.625 L3.8971143,-0.625 L7.7942286,1.625 L11.691343,-0.625 L15.588457,1.625 L19.48557,-0.625 L21.98479,0.81792456" fill="none" stroke="black" stroke-width="0.05"/>
<path d="M-21.974358,1.061901 L-19.48557,-0.375 L-15.588457,1.875 L-11.691343,-0.375 L-7.7942286,1.875 L-3.8971143,-0.375 L0,1.875 L3.8971143,-0.375 L7.7942286,1.875 L11.691343,-0.375 L15.588457,1.875 L19.48557,-0.375 L21.974358,1.061901" fill="none" stroke="black" stroke-width="0.05"/>
<path d="M-21.961298,1.3043617 L-19.48557,-0.125 L-15.588457,2.125 L-11.691343,-0.125 L-7.7942286,2.125 L-3.8971143,-0.125 L0,2.125 L3.8971143,-0.125 L7.7942286,2.125 L11.691343,-0.125 L15.588457,2.125 L19.48557,-0.125 L21.961298,1.3043617" fill="none" stroke="black" stroke-width="0.05"/>
<path d="M-21.94566,1.5453321 L-19.48557,0.125 L-15.588457,2.375 L-11.691343,0.125 L-7.7942286,2.375 L-3.8971143,0.125 L0,2.375 L3.8971143,0.125 L7.7942286,2.375 L11.691343,0.125 L15.588457,2.375 L19.48557,0.125 L21.94566,1.5453321" fill="none" stroke="black" stroke-width="0.05"/>
<path d="M-21.927479,1.7848362 L-19.48557,0.375 L-15.588457,2.625 L-11.691343,0.375 L-7.7942286,2.625 L-3.8971143,0.375 L0,2.625 L3.8971143,0.375 L7.7942286,2.625 L11.691343,0.375 L15.588457,2.625 L19.48557,0.375 L21.927479,1.7848362" fill="none" stroke="black" stroke-width="0.05"/>
<path d="M-21.9068,2.022897 L-19.48557,0.625 L-15.588457,2.875 L-11.691343,0.625 L-7.7942286,2.875 L-3.8971143,0.625 L0,2.875 L3.8971143,0.625 L7.7942286,2.875 L11.691343,0.625 L15.588457,2.875 L19.48557,0.625 L21.9068,2.022897" fill="none" stroke="black" stroke-width="0.05"/>
<path d="M-21.65667,3.8715155 L-19.48557,5.125 L-15.588457,2.875 L-11.691343,5.125 L-7.7942286,2.875 L-3.8971143,5.125 L0,2.875 L3.8971143,5.125 L7.7942286,2.875 L11.691343,5.125 L15.588457,2.875 L19.48557,5.125 L21.65667,3.8715155" fill="none" stroke="black" stroke-width="0.05"/>
<path d="M-21.604748,4.1514935 L-19.48557,5.375 L-15.588457,3.125 L-11.691343,5.375 L-7.7942286,3.125 L-3.8971143,5.375 L0,3.125 L3.8971143,5.375 L7.7942286,3.125 L11.691343,5.375 L15.588457,3.125 L19.48557,5.375 L21.604748,4.1514935" fill="none" stroke="black" stroke-width="0.05"/>
<path d="M-21.548555,4.433936 L-19.48557,5.625 L-15.588457,3.375 L-11.691343,5.625 L-7.7942286,3.375 L-3.8971143,5.625 L0,3.375 L3.8971143,5.625 L7.7942286,3.375 L11.691343,5.625 L15.588457,3.375 L19.48557,5.625 L21.548555,4.433936" fill="none" stroke="black" stroke-width="0.05"/>
<path d="M-21.487944,4.7189302 L-19.48557,5.875 L-15.588457,3.625 L-11.691343,5.875 L-7.7942286,3.625 L-3.8971143,5.875 L0,3.625 L3.8971143,5.875 L7.7942286,3.625 L11.691343,5.875 L15.588457,3.625 L19.48557,5.875 L21.487944,4.7189302" fill="none" stroke="black" stroke-width="0.05"/>
<path d="M-21.42275,5.006569 L-19.48557,6.125 L-15.588457,3.875 L-11.691343,6.125 L-7.7942286,3.875 L-3.8971143,6.125 L0,3.875 L3.8971143,6.125 L7.7942286,3.875 L11.691343,6.125 L15.588457,3.875 L19.48557,6.125 L21.42275,5.006569" fill="none" stroke="black" stroke-width="0.05"/>
<path d="M-21.352806,5.2969522 L-19.48557,6.375 L-15.588457,4.125 L-11.691343,6.375 L-7.7942286,4.125 L-3.8971143,6.375 L0,4.125 L3.8971143,6.375 L7.7942286,4.125 L11.691343,6.375 L15.588457,4.125 L19.48557,6.375 L21.352806,5.2969522" fill="none" stroke="black" stroke-width="0.05"/>
<path d="M-21.277918,5.5901885 L-19.48557,6.625 L-15.588457,4.375 L-11.691343,6.625 L-7.7942286,4.375 L-3.8971143,6.625 L0,4.375 L3.8971143,6.625 L7.7942286,4.375 L11.691343,6.625 L15.588457,4.375 L19.48557,6.625 L21.277918,5.5901885" fill="none" stroke="black" stroke-width="0.05"/>
<path d="M-21.197886,5.886395 L-19.48557,6.875 L-15.588457,4.625 L-11.691343,6.875 L-7.7942286,4.625 L-3.8971143,6.875 L0,4.625 L3.8971143,6.875 L7.7942286,4.625 L11.691343,6.875 L15.588457,4.625 L19.48557,6.875 L21.197886,5.886395" fill="none" stroke="black" stroke-width="0.05"/>
<path d="M-20.662313,7.554392 L-19.48557,6.875 L-15.588457,9.125 L-11.691343,6.875 L-7.7942286,9.125 L-3.8971143,6.875 L0,9.125 L3.8971143,6.875 L7.7942286,9.125 L11.691343,6.875 L15.588457,9.125 L19.48557,6.875 L20.662313,7.554392" fill="none" stroke="black" stroke-width="0.05"/>
<path d="M-20.585876,7.7602615 L-19.48557,7.125 L-15.588457,9.375 L-11.691343,7.125 L-7.7942286,9.375 L-3.8971143,7.125 L0,9.375 L3.8971143,7.125 L7.7942286,9.375 L11.691343,7.125 L15.588457,9.375 L19.48557,7.125 L20.585876,7.7602615" fill="none" stroke="black" stroke-width="0.05"/>
<path d="M-20.50752,7.9650226 L-19.48557,7.375 L-15.588457,9.625 L-11.691343,7.375 L-7.7942286,9.625 L-3.8971143,7.375 L0,9.625 L3.8971143,7.375 L7.7942286,9.625 L11.691343,7.375 L15.588457,9.625 L19.48557,7.375 L20.50752,7.9650226" fill="none" stroke="black" stroke-width="0.05"/>
<path d="M-20.427254,8.16868 L-19.48557,7.625 L-15.588457,9.875 L-11.691343,7.625 L-7.7942286,9.875 L-3.8971143,7.625 L0,9.875 L3.8971143,7.625 L7.7942286,9.875 L11.691343,7.625 L15.588457,9.875 L19.48557,7.625 L20.427254,8.16868" fill="none" stroke="black" stroke-width="0.05"/>
<path d="M-20.345081,8.371239 L-19.48557,7.875 L-15.588457,10.125 L-11.691343,7.875 L-7.7942286,10.125 L-3.8971143,7.875 L0,10.125 L3.8971143,7.875 L7.7942286,10.125 L11.691343,7.875 L15.588457,10.125 L19.48557,7.875 L20.345081,8.371239" fill="none" stroke="black" stroke-width="0.05"/>
<path d="M-20.261015,8.572703 L-19.48557,8.125 L-15.588457,10.375 L-11.691343,8.125 L-7.7942286,10.375 L-3.8971143,8.125 L0,10.375 L3.8971143,8.125 L7.7942286,10.375 L11.691343,8.125 L15.588457,10.375 L19.48557,8.125 L20.261015,8.572703" fill="none" stroke="black" stroke-width="0.05"/>
<path d="M-20.175062,8.773077 L-19.48557,8.375 L-15.588457,10.625 L-11.691343,8.375 L-7.7942286,10.625 L-3.8971143,8.375 L0,10.625 L3.8971143,8.375 L7.7942286,10.625 L11.691343,8.375 L15.588457,10.625 L19.48557,8.375 L20.175062,8.773077" fill="none" stroke="black" stroke-width="0.05"/>
<path d="M-20.087227,8.972365 L-19.48557,8.625 L-15.588457,10.875 L-11.691343,8.625 L-7.7942286,10.875 L-3.8971143,8.625 L0,10.875 L3.8971143,8.625 L7.7942286,10.875 L11.691343,8.625 L15.588457,10.875 L19.48557,8.625 L20.087227,8.972365" fill="none" stroke="black" stroke-width="0.05"/>
<path d="M-18.188692,12.376246 L-15.588457,10.875 L-11.691343,13.125 L-7.7942286,10.875 L-3.8971143,13.125 L0,10.875 L3.8971143,13.125 L7.7942286,10.875 L11.691343,13.125 L15.588457,10.875 L18.188692,12.376246" fill="none" stroke="black" stroke-width="0.05"/>
<path d="M-18.065632,12.555197 L-15.588457,11.125 L-11.691343,13.375 L-7.7942286,11.125 L-3.8971143,13.375 L0,11.125 L3.8971143,13.375 L7.7942286,11.125 L11.691343,13.375 L15.588457,11.125 L18.065632,12.555197" fill="none" stroke="black" stroke-width="0.05"/>
<path d="M-17.940704,12.733071 L-15.588457,11.375 L-11.691343,13.625 L-7.7942286,11.375 L-3.8971143,13.625 L0,11.375 L3.8971143,13.625 L7.7942286,11.375 L11.691343,13.625 L15.588457,11.375 L17.940704,12.733071" fill="none" stroke="black" stroke-width="0.05"/>
<path d="M-17.81391,12.909865 L-15.588457,11.625 L-11.691343,13.875 L-7.7942286,11.625 L-3.8971143,13.875 L0,11.625 L3.8971143,13.875 L7.7942286,11.625 L11.691343,13.875 L15.588457,11.625 L17.81391,12.909865" fill="none" stroke="black" stroke-width="0.05"/>
<path d="M-17.685238,13.085577 L-15.588457,11.875 L-11.691343,14.125 L-7.7942286,11.875 L-3.8971143,14.125 L0,11.875 L3.8971143,14.125 L7.7942286,11.875 L11.691343,14.125 L15.588457,11.875 L17.685238,13.085577" fill="none" stroke="black" stroke-width="0.05"/>
<path d="M-17.554686,13.260203 L-15.588457,12.125 L-11.691343,14.375 L-7.7942286,12.125 L-3.8971143,14.375 L0,12.125 L3.8971143,14.375 L7.7942286,12.125 L11.691343,14.375 L15.588457,12.125 L17.554686,13.260203" fill="none" stroke="black" stroke-width="0.05"/>
<path d="M-17.422247,13.433739 L-15.588457,12.375 L-11.691343,14.625 L-7.7942286,12.375 L-3.8971143,14.625 L0,12.375 L3.8971143,14.625 L7.7942286,12.375 L11.691343,14.625 L15.588457,12.375 L17.422247,13.433739" fill="none" stroke="black" stroke-width="0.05"/>
<path d="M-17.28791,13.60618 L-15.588457,12.625 L-11.691343,14.875 L-7.7942286,12.625 L-3.8971143,14.875 L0,12.625 L3.8971143,14.875 L7.7942286,12.625 L11.691343,14.875 L15.588457,12.625 L17.28791,13.60618" fill="none" stroke="black" stroke-width="0.05"/>
<path d="M-14.533537,16.515942 L-11.691343,14.875 L-7.7942286,17.125 L-3.8971143,14.875 L0,17.125 L3.8971143,14.875 L7.7942286,17.125 L11.691343,14.875 L14.533537,16.515942" fill="none" stroke="black" stroke-width="0.05"/>
<path d="M-14.3609,16.66627 L-11.691343,15.125 L-7.7942286,17.375 L-3.8971143,15.125 L0,17.375 L3.8971143,15.125 L7.7942286,17.375 L11.691343,15.125 L14.3609,16.66627" fill="none" stroke="black" stroke-width="0.05"/>
<path d="M-14.186071,16.815332 L-11.691343,15.375 L-7.7942286,17.625 L-3.8971143,15.375 L0,17.625 L3.8971143,15.375 L7.7942286,17.625 L11.691343,15.375 L14.186071,16.815332" fill="none" stroke="black" stroke-width="0.05"/>
<path d="M-14.009025,16.963114 L-11.691343,15.625 L-7.7942286,17.875 L-3.8971143,15.625 L0,17.875 L3.8971143,15.625 L7.7942286,17.875 L11.691343,15.625 L14.009025,16.963114" fill="none" stroke="black" stroke-width="0.05"/>
<path d="M-13.829735,17.1096 L-11.691343,15.875 L-7.7942286,18.125 L-3.8971143,15.875 L0,18.125 L3.8971143,15.875 L7.7942286,18.125 L11.691343,15.875 L13.829735,17.1096" fill="none" stroke="black" stroke-width="0.05"/>
<path d="M-13.648174,17.254778 L-11.691343,16.125 L-7.7942286,18.375 L-3.8971143,16.125 L0,18.375 L3.8971143,16.125 L7.7942286,18.375 L11.691343,16.125 L13.648174,17.254778" fill="none" stroke="black" stroke-width="0.05"/>
<path d="M-13.464315,17.398626 L-11.691343,16.375 L-7.7942286,18.625 L-3.8971143,16.375 L0,18.625 L3.8971143,16.375 L7.7942286,18.625 L11.691343,16.375 L13.464315,17.398626" fill="none" stroke="black" stroke-width="0.05"/>
<path d="M-13.278129,17.541132 L-11.691343,16.625 L-7.7942286,18.875 L-3.8971143,16.625 L0,18.875 L3.8971143,16.625 L7.7942286,18.875 L11.691343,16.625 L13.278129,17.541132" fill="none" stroke="black" stroke-width="0.05"/>
<path d="M-9.484187,19.850698 L-7.7942286,18.875 L-3.8971143,21.125 L0,18.875 L3.8971143,21.125 L7.7942286,18.875 L9.484187,19.850698" fill="none" stroke="black" stroke-width="0.05"/>
<path d="M-9.245588,19.962942 L-7.7942286,19.125 L-3.8971143,21.375 L0,19.125 L3.8971143,21.375 L7.7942286,19.125 L9.245588,19.962942" fill="none" stroke="black" stroke-width="0.05"/>
<path d="M-9.003614,20.073238 L-7.7942286,19.375 L-3.8971143,21.625 L0,19.375 L3.8971143,21.625 L7.7942286,19.375 L9.003614,20.073238" fill="none" stroke="black" stroke-width="0.05"/>
<path d="M-8.758176,20.181536 L-7.7942286,19.625 L-4.4784994,21.539337" fill="none" stroke="black" stroke-width="0.05"/>
<path d="M-3.5999932,21.703457 L0,19.625 L3.5999932,21.703457" fill="none" stroke="black" stroke-width="0.05"/>
<path d="M4.4784994,21.539337 L7.7942286,19.625 L8.758176,20.181536" fill="none" stroke="black" stroke-width="0.05"/>
<path d="M-8.509179,20.287777 L-7.7942286,19.875 L-5.1885037,21.379416" fill="none" stroke="black" stroke-width="0.05"/>
<path d="M-3.2599466,21.757132 L0,19.875 L3.2599466,21.757132" fill="none" stroke="black" stroke-width="0.05"/>
<path d="M5.1885037,21.379416 L7.7942286,19.875 L8.509179,20.287777" fill="none" stroke="black" stroke-width="0.05"/>
<path d="M-8.256523,20.391907 L-7.7942286,20.125 L-5.9826307,21.170927" fill="none" stroke="black" stroke-width="0.05"/>
<path d="M-2.9122574,21.806393 L0,20.125 L2.9122574,21.806393" fill="none" stroke="black" stroke-width="0.05"/>
<path d="M5.9826307,21.170927 L7.7942286,20.125 L8.256523,20.391907" fill="none" stroke="black" stroke-width="0.05"/>
<path d="M-8.000103,20.493862 L-7.7942286,20.375 L-6.9054003,20.888165" fill="none" stroke="black" stroke-width="0.05"/>
<path d="M-2.5564435,21.850964 L0,20.375 L2.5564435,21.850964" fill="none" stroke="black" stroke-width="0.05"/>
<path d="M6.9054003,20.888165 L7.7942286,20.375 L8.000103,20.493862" fill="none" stroke="black" stroke-width="0.05"/>
<path d="M-2.1919622,21.89053 L0,20.625 L2.1919622,21.89053" fill="none" stroke="black" stroke-width="0.05"/>
</svg>