<svg height="53.91809210469872mm" viewBox="-26.939992735869357 -26.98479018460998 53.93894515174131 53.91809210469872" width="53.93894515174131mm" xmlns="http://www.w3.org/2000/svg">
<path d="M10.813547,-19.158998 L10.9375,-18.944305 L11.185405,-18.944305" fill="none" stroke="black" stroke-width="0.05"/>
<path d="M10.446629,-19.361507 L10.8125,-18.727798 L11.544242,-18.727798" fill="none" stroke="black" stroke-width="0.05"/>
<path d="M10.087092,-19.55123 L10.6875,-18.511293 L11.888315,-18.511293" fill="none" stroke="black" stroke-width="0.05"/>
<path d="M9.734315,-19.729244 L10.5625,-18.294786 L12.21887,-18.294786" fill="none" stroke="black" stroke-width="0.05"/>
<path d="M4.1514935,-21.604748 L6.0625,-18.294786 L10.5625,-18.294786 L12.8125,-14.397673 L16.634514,-14.397673" fill="none" stroke="black" stroke-width="0.05"/>
<path d="M-0.81792456,-21.98479 L-0.8125,-21.975395 L1.0402073,-21.975395" fill="none" stroke="black" stroke-width="0.05"/>
<path d="M3.8715155,-21.65667 L5.9375,-18.07828 L10.4375,-18.07828 L12.6875,-14.181166 L16.81947,-14.181166" fill="none" stroke="black" stroke-width="0.05"/>
<path d="M18.511147,-11.888543 L19.4375,-10.284052 L19.448349,-10.284052" fill="none" stroke="black" stroke-width="0.05"/>
<path d="M-1.061901,-21.974358 L-0.9375,-21.758888 L3.2481966,-21.758888" fill="none" stroke="black" stroke-width="0.05"/>
<path d="M3.5939224,-21.704464 L5.8125,-17.861774 L10.3125,-17.861774 L12.5625,-13.96466 L16.999655,-13.96466" fill="none" stroke="black" stroke-width="0.05"/>
<path d="M17.219652,-13.692465 L19.3125,-10.067545 L19.561302,-10.067545" fill="none" stroke="black" stroke-width="0.05"/>
<path d="M-1.3043617,-21.961298 L-1.0625,-21.542381 L3.4375,-21.542381 L5.6875,-17.645267 L10.1875,-17.645267 L12.4375,-13.748154 L16.9375,-13.748154 L19.1875,-9.851039 L19.671223,-9.851039" fill="none" stroke="black" stroke-width="0.05"/>
<path d="M-1.5453321,-21.94566 L-1.1875,-21.325876 L3.3125,-21.325876 L5.5625,-17.42876 L10.0625,-17.42876 L12.3125,-13.531647 L16.8125,-13.531647 L19.0625,-9.634533 L19.778164,-9.634533" fill="none" stroke="black" stroke-width="0.05"/>
<path d="M-1.7848362,-21.927479 L-1.3125,-21.10937 L3.1875,-21.10937 L5.4375,-17.212255 L9.9375,-17.212255 L12.1875,-13.315141 L16.6875,-13.315141 L18.9375,-9.418026 L19.882172,-9.418026" fill="none" stroke="black" stroke-width="0.05"/>
<path d="M-2.022897,-21.9068 L-1.4375,-20.892862 L3.0625,-20.892862 L5.3125,-16.995749 L9.8125,-16.995749 L12.0625,-13.098634 L16.5625,-13.098634 L18.8125,-9.20152 L19.983294,-9.20152" fill="none" stroke="black" stroke-width="0.05"/>
<path d="M-2.259536,-21.883657 L-1.5625,-20.676357 L2.9375,-20.676357 L5.1875,-16.779242 L9.6875,-16.779242 L11.9375,-12.882128 L16.4375,-12.882128 L18.6875,-8.985014 L20.081572,-8.985014" fill="none" stroke="black" stroke-width="0.05"/>
<path d="M-6.2955403,-21.079994 L-6.0625,-20.676357 L-1.5625,-20.676357 L0.6875,-16.779242 L5.1875,-16.779242 L7.4375,-12.882128 L11.9375,-12.882128 L14.1875,-8.985014 L18.6875,-8.985014 L20.9375,-5.087899 L21.403582,-5.087899" fill="none" stroke="black" stroke-width="0.05"/>
<path d="M-6.5081964,-21.015312 L-6.1875,-20.45985 L-1.6875,-20.45985 L0.5625,-16.562737 L5.0625,-16.562737 L7.3125,-12.665622 L11.8125,-12.665622 L14.0625,-8.768507 L18.5625,-8.768507 L20.8125,-4.8713927 L21.453894,-4.8713927" fill="none" stroke="black" stroke-width="0.05"/>
<path d="M-6.7197037,-20.94864 L-6.3125,-20.243343 L-1.8125,-20.243343 L0.4375,-16.34623 L4.9375,-16.34623 L7.1875,-12.449115 L11.6875,-12.449115 L13.9375,-8.552001 L18.4375,-8.552001 L20.6875,-4.6548867 L21.501907,-4.6548867" fill="none" stroke="black" stroke-width="0.05"/>
<path d="M-6.93007,-20.879993 L-6.4375,-20.026838 L-1.9375,-20.026838 L0.3125,-16.129723 L4.8125,-16.129723 L7.0625,-12.232609 L11.5625,-12.232609 L13.8125,-8.335494 L18.3125,-8.335494 L20.5625,-4.4383802 L21.54764,-4.4383802" fill="none" stroke="black" stroke-width="0.05"/>
<path d="M-7.1393023,-20.809381 L-6.5625,-19.810331 L-2.0625,-19.810331 L0.1875,-15.913217 L4.6875,-15.913217 L6.9375,-12.016103 L11.4375,-12.016103 L13.6875,-8.118988 L18.1875,-8.118988 L20.4375,-4.2218738 L21.591105,-4.2218738" fill="none" stroke="black" stroke-width="0.05"/>
<path d="M-7.3474073,-20.736818 L-6.6875,-19.593824 L-2.1875,-19.593824 L0.0625,-15.696711 L4.5625,-15.696711 L6.8125,-11.799596 L11.3125,-11.799596 L13.5625,-7.902482 L18.0625,-7.902482 L20.3125,-4.0053673 L21.632315,-4.0053673" fill="none" stroke="black" stroke-width="0.05"/>
<path d="M-7.554392,-20.662313 L-6.8125,-19.37732 L-2.3125,-19.37732 L-0.0625,-15.480204 L4.4375,-15.480204 L6.6875,-11.58309 L11.1875,-11.58309 L13.4375,-7.6859756 L17.9375,-7.6859756 L20.1875,-3.788861 L21.671284,-3.788861" fill="none" stroke="black" stroke-width="0.05"/>
<path d="M-7.7602615,-20.585876 L-6.9375,-19.160812 L-2.4375,-19.160812 L-0.1875,-15.263698 L4.3125,-15.263698 L6.5625,-11.366584 L11.0625,-11.366584 L13.3125,-7.469469 L17.8125,-7.469469 L20.0625,-3.5723548 L21.708023,-3.5723548" fill="none" stroke="black" stroke-width="0.05"/>
<path d="M-10.810332,-19.160812 L-6.9375,-19.160812 L-4.6875,-15.263698 L-0.1875,-15.263698 L2.0625,-11.366584 L6.5625,-11.366584 L8.8125,-7.469469 L13.3125,-7.469469 L15.5625,-3.5723548 L20.0625,-3.5723548 L21.998917,-0.21838376" fill="none" stroke="black" stroke-width="0.05"/>
<path d="M-11.185405,-18.944305 L-7.0625,-18.944305 L-4.8125,-15.047192 L-0.3125,-15.047192 L1.9375,-11.150077 L6.4375,-11.150077 L8.6875,-7.2529626 L13.1875,-7.2529626 L15.4375,-3.3558486 L19.9375,-3.3558486 L21.998953,0.21469188" fill="none" stroke="black" stroke-width="0.05"/>
<path d="M-11.544242,-18.727798 L-7.1875,-18.727798 L-4.9375,-14.830685 L-0.4375,-14.830685 L1.8125,-10.933571 L6.3125,-10.933571 L8.5625,-7.0364566 L13.0625,-7.0364566 L15.3125,-3.139342 L19.8125,-3.139342 L21.990871,0.63370746" fill="none" stroke="black" stroke-width="0.05"/>
<path d="M-11.832958,-18.546728 L-11.8125,-18.511293 L-7.3125,-18.511293 L-5.0625,-14.614179 L-0.5625,-14.614179 L1.6875,-10.717064 L6.1875,-10.717064 L8.4375,-6.81995 L12.9375,-6.81995 L15.1875,-2.9228358 L19.6875,-2.9228358 L21.9375,0.97427857 L21.978416,0.97427857" fill="none" stroke="black" stroke-width="0.05"/>
<path d="M-12.015125,-18.429237 L-11.9375,-18.294786 L-7.4375,-18.294786 L-5.1875,-14.397673 L-0.6875,-14.397673 L1.5625,-10.500558 L6.0625,-10.500558 L8.3125,-6.6034436 L12.8125,-6.6034436 L15.0625,-2.7063293 L19.5625,-2.7063293 L21.8125,1.1907849 L21.96775,1.1907849" fill="none" stroke="black" stroke-width="0.05"/>
<path d="M-12.196221,-18.309893 L-12.0625,-18.07828 L-7.5625,-18.07828 L-5.3125,-14.181166 L-0.8125,-14.181166 L1.4375,-10.284052 L5.9375,-10.284052 L8.1875,-6.386937 L12.6875,-6.386937 L14.9375,-2.489823 L19.4375,-2.489823 L21.6875,1.4072913 L21.954943,1.4072913" fill="none" stroke="black" stroke-width="0.05"/>
<path d="M-12.376246,-18.188692 L-12.1875,-17.861774 L-7.6875,-17.861774 L-5.4375,-13.96466 L-0.9375,-13.96466 L1.3125,-10.067545 L5.8125,-10.067545 L8.0625,-6.170431 L12.5625,-6.170431 L14.8125,-2.2733166 L19.3125,-2.2733166 L21.5625,1.6237977 L21.939993,1.6237977" fill="none" stroke="black" stroke-width="0.05"/>
<path d="M-12.555197,-18.065632 L-12.3125,-17.645267 L-7.8125,-17.645267 L-5.5625,-13.748154 L-1.0625,-13.748154 L1.1875,-9.851039 L5.6875,-9.851039 L7.9375,-5.9539247 L12.4375,-5.9539247 L14.6875,-2.0568104 L19.1875,-2.0568104 L21.4375,1.840304 L21.922894,1.840304" fill="none" stroke="black" stroke-width="0.05"/>
<path d="M-13.139426,-17.645267 L-12.3125,-17.645267 L-10.0625,-13.748154 L-5.5625,-13.748154 L-3.3125,-9.851039 L1.1875,-9.851039 L3.4375,-5.9539247 L7.9375,-5.9539247 L10.1875,-2.0568104 L14.6875,-2.0568104 L16.9375,1.840304 L21.4375,1.840304 L21.850964,2.5564435" fill="none" stroke="black" stroke-width="0.05"/>
<path d="M-13.425285,-17.42876 L-12.4375,-17.42876 L-10.1875,-13.531647 L-5.6875,-13.531647 L-3.4375,-9.634533 L1.0625,-9.634533 L3.3125,-5.737418 L7.8125,-5.737418 L10.0625,-1.840304 L14.5625,-1.840304 L16.8125,2.0568104 L21.3125,2.0568104 L21.806393,2.9122574" fill="none" stroke="black" stroke-width="0.05"/>
<path d="M-13.701762,-17.212255 L-12.5625,-17.212255 L-10.3125,-13.315141 L-5.8125,-13.315141 L-3.5625,-9.418026 L0.9375,-9.418026 L3.1875,-5.520912 L7.6875,-5.520912 L9.9375,-1.6237977 L14.4375,-1.6237977 L16.6875,2.2733166 L21.1875,2.2733166 L21.757132,3.2599466" fill="none" stroke="black" stroke-width="0.05"/>
<path d="M-13.969414,-16.995749 L-12.6875,-16.995749 L-10.4375,-13.098634 L-5.9375,-13.098634 L-3.6875,-9.20152 L0.8125,-9.20152 L3.0625,-5.3044057 L7.5625,-5.3044057 L9.8125,-1.4072913 L14.3125,-1.4072913 L16.5625,2.489823 L21.0625,2.489823 L21.703457,3.5999932" fill="none" stroke="black" stroke-width="0.05"/>
<path d="M-14.22874,-16.779242 L-12.8125,-16.779242 L-10.5625,-12.882128 L-6.0625,-12.882128 L-3.8125,-8.985014 L0.6875,-8.985014 L2.9375,-5.087899 L7.4375,-5.087899 L9.6875,-1.1907849 L14.1875,-1.1907849 L16.4375,2.7063293 L20.9375,2.7063293 L21.64562,3.932829" fill="none" stroke="black" stroke-width="0.05"/>
<path d="M-14.4801855,-16.562737 L-12.9375,-16.562737 L-10.6875,-12.665622 L-6.1875,-12.665622 L-3.9375,-8.768507 L0.5625,-8.768507 L2.8125,-4.8713927 L7.3125,-4.8713927 L9.5625,-0.97427857 L14.0625,-0.97427857 L16.3125,2.9228358 L20.8125,2.9228358 L21.583843,4.258841" fill="none" stroke="black" stroke-width="0.05"/>
<path d="M-14.724156,-16.34623 L-13.0625,-16.34623 L-10.8125,-12.449115 L-6.3125,-12.449115 L-4.0625,-8.552001 L0.4375,-8.552001 L2.6875,-4.6548867 L7.1875,-4.6548867 L9.4375,-0.7577722 L13.9375,-0.7577722 L16.1875,3.139342 L20.6875,3.139342 L21.518328,4.5783787" fill="none" stroke="black" stroke-width="0.05"/>
<path d="M-14.961017,-16.129723 L-13.1875,-16.129723 L-10.9375,-12.232609 L-6.4375,-12.232609 L-4.1875,-8.335494 L0.3125,-8.335494 L2.5625,-4.4383802 L7.0625,-4.4383802 L9.3125,-0.5412659 L13.8125,-0.5412659 L16.0625,3.3558486 L20.5625,3.3558486 L21.449259,4.8917594" fill="none" stroke="black" stroke-width="0.05"/>
<path d="M-16.66627,-14.3609 L-15.4375,-12.232609 L-10.9375,-12.232609 L-8.6875,-8.335494 L-4.1875,-8.335494 L-1.9375,-4.4383802 L2.5625,-4.4383802 L4.8125,-0.5412659 L9.3125,-0.5412659 L11.5625,3.3558486 L16.0625,3.3558486 L18.3125,7.2529626 L20.770039,7.2529626" fill="none" stroke="black" stroke-width="0.05"/>
<path d="M-16.815332,-14.186071 L-15.5625,-12.016103 L-11.0625,-12.016103 L-8.8125,-8.118988 L-4.3125,-8.118988 L-2.0625,-4.2218738 L2.4375,-4.2218738 L4.6875,-0.3247595 L9.1875,-0.3247595 L11.4375,3.5723548 L15.9375,3.5723548 L18.1875,7.469469 L20.693165,7.469469" fill="none" stroke="black" stroke-width="0.05"/>
<path d="M-16.963114,-14.009025 L-15.6875,-11.799596 L-11.1875,-11.799596 L-8.9375,-7.902482 L-4.4375,-7.902482 L-2.1875,-4.0053673 L2.3125,-4.0053673 L4.5625,-0.10825317 L9.0625,-0.10825317 L11.3125,3.788861 L15.8125,3.788861 L18.0625,7.6859756 L20.613728,7.6859756" fill="none" stroke="black" stroke-width="0.05"/>
<path d="M-17.1096,-13.829735 L-15.8125,-11.58309 L-11.3125,-11.58309 L-9.0625,-7.6859756 L-4.5625,-7.6859756 L-2.3125,-3.788861 L2.1875,-3.788861 L4.4375,0.10825317 L8.9375,0.10825317 L11.1875,4.0053673 L15.6875,4.0053673 L17.9375,7.902482 L20.531702,7.902482" fill="none" stroke="black" stroke-width="0.05"/>
<path d="M-17.254778,-13.648174 L-15.9375,-11.366584 L-11.4375,-11.366584 L-9.1875,-7.469469 L-4.6875,-7.469469 L-2.4375,-3.5723548 L2.0625,-3.5723548 L4.3125,0.3247595 L8.8125,0.3247595 L11.0625,4.2218738 L15.5625,4.2218738 L17.8125,8.118988 L20.447054,8.118988" fill="none" stroke="black" stroke-width="0.05"/>
<path d="M-17.398626,-13.464315 L-16.0625,-11.150077 L-11.5625,-11.150077 L-9.3125,-7.2529626 L-4.8125,-7.2529626 L-2.5625,-3.3558486 L1.9375,-3.3558486 L4.1875,0.5412659 L8.6875,0.5412659 L10.9375,4.4383802 L15.4375,4.4383802 L17.6875,8.335494 L20.359753,8.335494" fill="none" stroke="black" stroke-width="0.05"/>
<path d="M-17.541132,-13.278129 L-16.1875,-10.933571 L-11.6875,-10.933571 L-9.4375,-7.0364566 L-4.9375,-7.0364566 L-2.6875,-3.139342 L1.8125,-3.139342 L4.0625,0.7577722 L8.5625,0.7577722 L10.8125,4.6548867 L15.3125,4.6548867 L17.5625,8.552001 L20.269762,8.552001" fill="none" stroke="black" stroke-width="0.05"/>
<path d="M-17.682274,-13.089582 L-16.3125,-10.717064 L-11.8125,-10.717064 L-9.5625,-6.81995 L-5.0625,-6.81995 L-2.8125,-2.9228358 L1.6875,-2.9228358 L3.9375,0.97427857 L8.4375,0.97427857 L10.6875,4.8713927 L15.1875,4.8713927 L17.4375,8.768507 L20.177048,8.768507" fill="none" stroke="black" stroke-width="0.05"/>
<path d="M-19.213135,-10.717064 L-16.3125,-10.717064 L-14.0625,-6.81995 L-9.5625,-6.81995 L-7.3125,-2.9228358 L-2.8125,-2.9228358 L-0.5625,0.97427857 L3.9375,0.97427857 L6.1875,4.8713927 L10.6875,4.8713927 L12.9375,8.768507 L17.4375,8.768507 L18.887817,11.28053" fill="none" stroke="black" stroke-width="0.05"/>
<path d="M-19.332312,-10.500558 L-16.4375,-10.500558 L-14.1875,-6.6034436 L-9.6875,-6.6034436 L-7.4375,-2.7063293 L-2.9375,-2.7063293 L-0.6875,1.1907849 L3.8125,1.1907849 L6.0625,5.087899 L10.5625,5.087899 L12.8125,8.985014 L17.3125,8.985014 L18.759907,11.491994" fill="none" stroke="black" stroke-width="0.05"/>
<path d="M-19.448349,-10.284052 L-16.5625,-10.284052 L-14.3125,-6.386937 L-9.8125,-6.386937 L-7.5625,-2.489823 L-3.0625,-2.489823 L-0.8125,1.4072913 L3.6875,1.4072913 L5.9375,5.3044057 L10.4375,5.3044057 L12.6875,9.20152 L17.1875,9.20152 L18.630424,11.700739" fill="none" stroke="black" stroke-width="0.05"/>
<path d="M-19.561302,-10.067545 L-16.6875,-10.067545 L-14.4375,-6.170431 L-9.9375,-6.170431 L-7.6875,-2.2733166 L-3.1875,-2.2733166 L-0.9375,1.6237977 L3.5625,1.6237977 L5.8125,5.520912 L10.3125,5.520912 L12.5625,9.418026 L17.0625,9.418026 L18.499401,11.906812" fill="none" stroke="black" stroke-width="0.05"/>
<path d="M-19.671223,-9.851039 L-16.8125,-9.851039 L-14.5625,-5.9539247 L-10.0625,-5.9539247 L-7.8125,-2.0568104 L-3.3125,-2.0568104 L-1.0625,1.840304 L3.4375,1.840304 L5.6875,5.737418 L10.1875,5.737418 L12.4375,9.634533 L16.9375,9.634533 L18.366861,12.11026" fill="none" stroke="black" stroke-width="0.05"/>
<path d="M-19.778164,-9.634533 L-16.9375,-9.634533 L-14.6875,-5.737418 L-10.1875,-5.737418 L-7.9375,-1.840304 L-3.4375,-1.840304 L-1.1875,2.0568104 L3.3125,2.0568104 L5.5625,5.9539247 L10.0625,5.9539247 L12.3125,9.851039 L16.8125,9.851039 L18.232832,12.311127" fill="none" stroke="black" stroke-width="0.05"/>
<path d="M-19.882172,-9.418026 L-17.0625,-9.418026 L-14.8125,-5.520912 L-10.3125,-5.520912 L-8.0625,-1.6237977 L-3.5625,-1.6237977 L-1.3125,2.2733166 L3.1875,2.2733166 L5.4375,6.170431 L9.9375,6.170431 L12.1875,10.067545 L16.6875,10.067545 L18.097336,12.509453" fill="none" stroke="black" stroke-width="0.05"/>
<path d="M-19.983294,-9.20152 L-17.1875,-9.20152 L-14.9375,-5.3044057 L-10.4375,-5.3044057 L-8.1875,-1.4072913 L-3.6875,-1.4072913 L-1.4375,2.489823 L3.0625,2.489823 L5.3125,6.386937 L9.8125,6.386937 L12.0625,10.284052 L16.5625,10.284052 L17.960398,12.70528" fill="none" stroke="black" stroke-width="0.05"/>
<path d="M-20.690985,-7.4755044 L-19.4375,-5.3044057 L-14.9375,-5.3044057 L-12.6875,-1.4072913 L-8.1875,-1.4072913 L-5.9375,2.489823 L-1.4375,2.489823 L0.8125,6.386937 L5.3125,6.386937 L7.5625,10.284052 L12.0625,10.284052 L14.3125,14.181166 L16.81947,14.181166" fill="none" stroke="black" stroke-width="0.05"/>
<path d="M-20.786007,-7.207075 L-19.5625,-5.087899 L-15.0625,-5.087899 L-12.8125,-1.1907849 L-8.3125,-1.1907849 L-6.0625,2.7063293 L-1.5625,2.7063293 L0.6875,6.6034436 L5.1875,6.6034436 L7.4375,10.500558 L11.9375,10.500558 L14.1875,14.397673 L16.634514,14.397673" fill="none" stroke="black" stroke-width="0.05"/>
<path d="M-20.878563,-6.9343762 L-19.6875,-4.8713927 L-15.1875,-4.8713927 L-12.9375,-0.97427857 L-8.4375,-0.97427857 L-6.1875,2.9228358 L-1.6875,2.9228358 L0.5625,6.81995 L5.0625,6.81995 L7.3125,10.717064 L11.8125,10.717064 L14.0625,14.614179 L16.444628,14.614179" fill="none" stroke="black" stroke-width="0.05"/>
<path d="M-20.968569,-6.657258 L-19.8125,-4.6548867 L-15.3125,-4.6548867 L-13.0625,-0.7577722 L-8.5625,-0.7577722 L-6.3125,3.139342 L-1.8125,3.139342 L0.4375,7.0364566 L4.9375,7.0364566 L7.1875,10.933571 L11.6875,10.933571 L13.9375,14.830685 L16.24964,14.830685" fill="none" stroke="black" stroke-width="0.05"/>
<path d="M-21.055931,-6.37556 L-19.9375,-4.4383802 L-15.4375,-4.4383802 L-13.1875,-0.5412659 L-8.6875,-0.5412659 L-6.4375,3.3558486 L-1.9375,3.3558486 L0.3125,7.2529626 L4.8125,7.2529626 L7.0625,11.150077 L11.5625,11.150077 L13.8125,15.047192 L16.049362,15.047192" fill="none" stroke="black" stroke-width="0.05"/>
<path d="M-21.140549,-6.0891075 L-20.0625,-4.2218738 L-15.5625,-4.2218738 L-13.3125,-0.3247595 L-8.8125,-0.3247595 L-6.5625,3.5723548 L-2.0625,3.5723548 L0.1875,7.469469 L4.6875,7.469469 L6.9375,11.366584 L11.4375,11.366584 L13.6875,15.263698 L15.8435955,15.263698" fill="none" stroke="black" stroke-width="0.05"/>
<path d="M-21.222311,-5.7977138 L-20.1875,-4.0053673 L-15.6875,-4.0053673 L-13.4375,-0.10825317 L-8.9375,-0.10825317 L-6.6875,3.788861 L-2.1875,3.788861 L0.0625,7.6859756 L4.5625,7.6859756 L6.8125,11.58309 L11.3125,11.58309 L13.5625,15.480204 L15.632123,15.480204" fill="none" stroke="black" stroke-width="0.05"/>
<path d="M-21.301105,-5.501175 L-20.3125,-3.788861 L-15.8125,-3.788861 L-13.5625,0.10825317 L-9.0625,0.10825317 L-6.8125,4.0053673 L-2.3125,4.0053673 L-0.0625,7.902482 L4.4375,7.902482 L6.6875,11.799596 L11.1875,11.799596 L13.4375,15.696711 L15.41471,15.696711" fill="none" stroke="black" stroke-width="0.05"/>
<path d="M-21.671284,-3.788861 L-20.3125,-3.788861 L-18.0625,0.10825317 L-13.5625,0.10825317 L-11.3125,4.0053673 L-6.8125,4.0053673 L-4.5625,7.902482 L-0.0625,7.902482 L2.1875,11.799596 L6.6875,11.799596 L8.9375,15.696711 L13.4375,15.696711 L14.116892,16.873451" fill="none" stroke="black" stroke-width="0.05"/>
<path d="M-21.708023,-3.5723548 L-20.4375,-3.5723548 L-18.1875,0.3247595 L-13.6875,0.3247595 L-11.4375,4.2218738 L-6.9375,4.2218738 L-4.6875,8.118988 L-0.1875,8.118988 L2.0625,12.016103 L6.5625,12.016103 L8.8125,15.913217 L13.3125,15.913217 L13.947762,17.013523" fill="none" stroke="black" stroke-width="0.05"/>
<path d="M-21.742546,-3.3558486 L-20.5625,-3.3558486 L-18.3125,0.5412659 L-13.8125,0.5412659 L-11.5625,4.4383802 L-7.0625,4.4383802 L-4.8125,8.335494 L-0.3125,8.335494 L1.9375,12.232609 L6.4375,12.232609 L8.6875,16.129723 L13.1875,16.129723 L13.777523,17.151672" fill="none" stroke="black" stroke-width="0.05"/>
<path d="M-21.77486,-3.139342 L-20.6875,-3.139342 L-18.4375,0.7577722 L-13.9375,0.7577722 L-11.6875,4.6548867 L-7.1875,4.6548867 L-4.9375,8.552001 L-0.4375,8.552001 L1.8125,12.449115 L6.3125,12.449115 L8.5625,16.34623 L13.0625,16.34623 L13.60618,17.28791" fill="none" stroke="black" stroke-width="0.05"/>
<path d="M-21.804977,-2.9228358 L-20.8125,-2.9228358 L-18.5625,0.97427857 L-14.0625,0.97427857 L-11.8125,4.8713927 L-7.3125,4.8713927 L-5.0625,8.768507 L-0.5625,8.768507 L1.6875,12.665622 L6.1875,12.665622 L8.4375,16.562737 L12.9375,16.562737 L13.433739,17.422247" fill="none" stroke="black" stroke-width="0.05"/>
<path d="M-21.832907,-2.7063293 L-20.9375,-2.7063293 L-18.6875,1.1907849 L-14.1875,1.1907849 L-11.9375,5.087899 L-7.4375,5.087899 L-5.1875,8.985014 L-0.6875,8.985014 L1.5625,12.882128 L6.0625,12.882128 L8.3125,16.779242 L12.8125,16.779242 L13.260203,17.554686" fill="none" stroke="black" stroke-width="0.05"/>
<path d="M-21.858654,-2.489823 L-21.0625,-2.489823 L-18.8125,1.4072913 L-14.3125,1.4072913 L-12.0625,5.3044057 L-7.5625,5.3044057 L-5.3125,9.20152 L-0.8125,9.20152 L1.4375,13.098634 L5.9375,13.098634 L8.1875,16.995749 L12.6875,16.995749 L13.085577,17.685238" fill="none" stroke="black" stroke-width="0.05"/>
<path d="M-21.88223,-2.2733166 L-21.1875,-2.2733166 L-18.9375,1.6237977 L-14.4375,1.6237977 L-12.1875,5.520912 L-7.6875,5.520912 L-5.4375,9.418026 L-0.9375,9.418026 L1.3125,13.315141 L5.8125,13.315141 L8.0625,17.212255 L12.5625,17.212255 L12.909865,17.81391" fill="none" stroke="black" stroke-width="0.05"/>
<path d="M-21.939993,1.6237977 L-18.9375,1.6237977 L-16.6875,5.520912 L-12.1875,5.520912 L-9.9375,9.418026 L-5.4375,9.418026 L-3.1875,13.315141 L1.3125,13.315141 L3.5625,17.212255 L8.0625,17.212255 L9.563746,19.81249" fill="none" stroke="black" stroke-width="0.05"/>
<path d="M-21.922894,1.840304 L-19.0625,1.840304 L-16.8125,5.737418 L-12.3125,5.737418 L-10.0625,9.634533 L-5.5625,9.634533 L-3.3125,13.531647 L1.1875,13.531647 L3.4375,17.42876 L7.9375,17.42876 L9.367697,19.905935" fill="none" stroke="black" stroke-width="0.05"/>
<path d="M-21.903643,2.0568104 L-19.1875,2.0568104 L-16.9375,5.9539247 L-12.4375,5.9539247 L-10.1875,9.851039 L-5.6875,9.851039 L-3.4375,13.748154 L1.0625,13.748154 L3.3125,17.645267 L7.8125,17.645267 L9.170571,19.997515" fill="none" stroke="black" stroke-width="0.05"/>
<path d="M-21.88223,2.2733166 L-19.3125,2.2733166 L-17.0625,6.170431 L-12.5625,6.170431 L-10.3125,10.067545 L-5.8125,10.067545 L-3.5625,13.96466 L0.9375,13.96466 L3.1875,17.861774 L7.6875,17.861774 L8.972365,20.087227" fill="none" stroke="black" stroke-width="0.05"/>
<path d="M-21.858654,2.489823 L-19.4375,2.489823 L-17.1875,6.386937 L-12.6875,6.386937 L-10.4375,10.284052 L-5.9375,10.284052 L-3.6875,14.181166 L0.8125,14.181166 L3.0625,18.07828 L7.5625,18.07828 L8.773077,20.175062" fill="none" stroke="black" stroke-width="0.05"/>
<path d="M-21.832907,2.7063293 L-19.5625,2.7063293 L-17.3125,6.6034436 L-12.8125,6.6034436 L-10.5625,10.500558 L-6.0625,10.500558 L-3.8125,14.397673 L0.6875,14.397673 L2.9375,18.294786 L7.4375,18.294786 L8.572703,20.261015" fill="none" stroke="black" stroke-width="0.05"/>
<path d="M-21.804977,2.9228358 L-19.6875,2.9228358 L-17.4375,6.81995 L-12.9375,6.81995 L-10.6875,10.717064 L-6.1875,10.717064 L-3.9375,14.614179 L0.5625,14.614179 L2.8125,18.511293 L7.3125,18.511293 L8.371239,20.345081" fill="none" stroke="black" stroke-width="0.05"/>
<path d="M-21.77486,3.139342 L-19.8125,3.139342 L-17.5625,7.0364566 L-13.0625,7.0364566 L-10.8125,10.933571 L-6.3125,10.933571 L-4.0625,14.830685 L0.4375,14.830685 L2.6875,18.727798 L7.1875,18.727798 L8.16868,20.427254" fill="none" stroke="black" stroke-width="0.05"/>
<path d="M-20.844383,7.0364566 L-17.5625,7.0364566 L-15.3125,10.933571 L-10.8125,10.933571 L-8.5625,14.830685 L-4.0625,14.830685 L-1.8125,18.727798 L2.6875,18.727798 L4.328441,21.569992" fill="none" stroke="black" stroke-width="0.05"/>
<path d="M-20.770039,7.2529626 L-17.6875,7.2529626 L-15.4375,11.150077 L-10.9375,11.150077 L-8.6875,15.047192 L-4.1875,15.047192 L-1.9375,18.944305 L2.5625,18.944305 L4.10377,21.613863" fill="none" stroke="black" stroke-width="0.05"/>
<path d="M-20.693165,7.469469 L-17.8125,7.469469 L-15.5625,11.366584 L-11.0625,11.366584 L-8.8125,15.263698 L-4.3125,15.263698 L-2.0625,19.160812 L2.4375,19.160812 L3.877832,21.65554" fill="none" stroke="black" stroke-width="0.05"/>
<path d="M-20.613728,7.6859756 L-17.9375,7.6859756 L-15.6875,11.58309 L-11.1875,11.58309 L-8.9375,15.480204 L-4.4375,15.480204 L-2.1875,19.37732 L2.3125,19.37732 L3.650614,21.695" fill="none" stroke="black" stroke-width="0.05"/>
<path d="M-20.531702,7.902482 L-18.0625,7.902482 L-15.8125,11.799596 L-11.3125,11.799596 L-9.0625,15.696711 L-4.5625,15.696711 L-2.3125,19.593824 L2.1875,19.593824 L3.422101,21.732216" fill="none" stroke="black" stroke-width="0.05"/>
<path d="M-20.447054,8.118988 L-18.1875,8.118988 L-15.9375,12.016103 L-11.4375,12.016103 L-9.1875,15.913217 L-4.6875,15.913217 L-2.4375,19.810331 L2.0625,19.810331 L3.1922772,21.767162" fill="none" stroke="black" stroke-width="0.05"/>
<path d="M-20.359753,8.335494 L-18.3125,8.335494 L-16.0625,12.232609 L-11.5625,12.232609 L-9.3125,16.129723 L-4.8125,16.129723 L-2.5625,20.026838 L1.9375,20.026838 L2.9611263,21.79981" fill="none" stroke="black" stroke-width="0.05"/>
<path d="M-20.269762,8.552001 L-18.4375,8.552001 L-16.1875,12.449115 L-11.6875,12.449115 L-9.4375,16.34623 L-4.9375,16.34623 L-2.6875,20.243343 L1.8125,20.243343 L2.7286313,21.83013" fill="none" stroke="black" stroke-width="0.05"/>
<path d="M-18.138895,12.449115 L-16.1875,12.449115 L-13.9375,16.34623 L-9.4375,16.34623 L-7.1875,20.243343 L-2.6875,20.243343 L-1.7118022,21.933302" fill="none" stroke="black" stroke-width="0.05"/>
<path d="M-17.988386,12.665622 L-16.3125,12.665622 L-14.0625,16.562737 L-9.5625,16.562737 L-7.3125,20.45985 L-2.8125,20.45985 L-1.974557,21.91121" fill="none" stroke="black" stroke-width="0.05"/>
<path d="M-17.833979,12.882128 L-16.4375,12.882128 L-14.1875,16.779242 L-9.6875,16.779242 L-7.4375,20.676357 L-2.9375,20.676357 L-2.239261,21.885742" fill="none" stroke="black" stroke-width="0.05"/>
<path d="M-17.67557,13.098634 L-16.5625,13.098634 L-14.648163,16.414364" fill="none" stroke="black" stroke-width="0.05"/>
<path d="M-13.969414,16.995749 L-9.8125,16.995749 L-7.734043,20.595741" fill="none" stroke="black" stroke-width="0.05"/>
<path d="M-6.8911743,20.892862 L-3.0625,20.892862 L-2.505965,21.85681" fill="none" stroke="black" stroke-width="0.05"/>
<path d="M-17.513054,13.315141 L-16.6875,13.315141 L-15.183084,15.920866" fill="none" stroke="black" stroke-width="0.05"/>
<path d="M-13.701762,17.212255 L-9.9375,17.212255 L-8.055369,20.472202" fill="none" stroke="black" stroke-width="0.05"/>
<path d="M-6.196332,21.10937 L-3.1875,21.10937 L-2.7747235,21.82432" fill="none" stroke="black" stroke-width="0.05"/>
<path d="M-17.346312,13.531647 L-16.8125,13.531647 L-15.766574,15.343245" fill="none" stroke="black" stroke-width="0.05"/>
<path d="M-13.425285,17.42876 L-10.0625,17.42876 L-8.381107,20.341019" fill="none" stroke="black" stroke-width="0.05"/>
<path d="M-5.404353,21.325876 L-3.3125,21.325876 L-3.0455942,21.78817" fill="none" stroke="black" stroke-width="0.05"/>
<path d="M-17.175222,13.748154 L-16.9375,13.748154 L-16.424335,14.636981" fill="none" stroke="black" stroke-width="0.05"/>
<path d="M-13.139426,17.645267 L-10.1875,17.645267 L-8.711536,20.201712" fill="none" stroke="black" stroke-width="0.05"/>
<path d="M-4.4638305,21.542381 L-3.4375,21.542381 L-3.3186386,21.748257" fill="none" stroke="black" stroke-width="0.05"/>
<path d="M-12.84356,17.861774 L-10.3125,17.861774 L-9.04697,20.053736" fill="none" stroke="black" stroke-width="0.05"/>
</svg>