<svg height="190mm" viewBox="-95 -95 190 190" width="190mm" xmlns="http://www.w3.org/2000/svg">
<circle cx="0" cy="0" fill="#fafaf5" r="38" stroke="#2c2c2c" stroke-width="0.3"/>
<clipPath id="dial-clip">
<circle cx="0" cy="0" r="38"/>
</clipPath>
<g clip-path="url(#dial-clip)">
<path d="M-13.99398,-35.32943 L-12.124355,-34.25 L-6.642545,-37.414925" fill="none" stroke="#1a1a1a" stroke-linecap="round" stroke-linejoin="round" stroke-width="0.03"/>
<path d="M-5.739982,-37.56398 L0,-34.25 L5.739982,-37.56398" fill="none" stroke="#1a1a1a" stroke-linecap="round" stroke-linejoin="round" stroke-width="0.03"/>
<path d="M6.642545,-37.414925 L12.124355,-34.25 L13.99398,-35.32943" fill="none" stroke="#1a1a1a" stroke-linecap="round" stroke-linejoin="round" stroke-width="0.03"/>
<path d="M-14.50323,-35.123444 L-12.124355,-33.75 L-6.0621777,-37.25 L0,-33.75 L6.0621777,-37.25 L12.124355,-33.75 L14.50323,-35.123444" fill="none" stroke="#1a1a1a" stroke-linecap="round" stroke-linejoin="round" stroke-width="0.03"/>
<path d="M-15.003899,-34.912506 L-12.124355,-33.25 L-6.0621777,-36.75 L0,-33.25 L6.0621777,-36.75 L12.124355,-33.25 L15.003899,-34.912506" fill="none" stroke="#1a1a1a" stroke-linecap="round" stroke-linejoin="round" stroke-width="0.03"/>
<path d="M-15.496262,-34.69677 L-12.124355,-32.75 L-6.0621777,-36.25 L0,-32.75 L6.0621777,-36.25 L12.124355,-32.75 L15.496262,-34.69677" fill="none" stroke="#1a1a1a" stroke-linecap="round" stroke-linejoin="round" stroke-width="0.03"/>
<path d="M-15.980573,-34.476387 L-12.124355,-32.25 L-6.0621777,-35.75 L0,-32.25 L6.0621777,-35.75 L12.124355,-32.25 L15.980573,-34.476387" fill="none" stroke="#1a1a1a" stroke-linecap="round" stroke-linejoin="round" stroke-width="0.03"/>
<path d="M-16.45707,-34.251495 L-12.124355,-31.75 L-6.0621777,-35.25 L0,-31.75 L6.0621777,-35.25 L12.124355,-31.75 L16.45707,-34.251495" fill="none" stroke="#1a1a1a" stroke-linecap="round" stroke-linejoin="round" stroke-width="0.03"/>
<path d="M-16.925978,-34.022217 L-12.124355,-31.25 L-6.0621777,-34.75 L0,-31.25 L6.0621777,-34.75 L12.124355,-31.25 L16.925978,-34.022217" fill="none" stroke="#1a1a1a" stroke-linecap="round" stroke-linejoin="round" stroke-width="0.03"/>
<path d="M-17.3875,-33.788677 L-12.124355,-30.75 L-6.0621777,-34.25 L0,-30.75 L6.0621777,-34.25 L12.124355,-30.75 L17.3875,-33.788677" fill="none" stroke="#1a1a1a" stroke-linecap="round" stroke-linejoin="round" stroke-width="0.03"/>
<path d="M-17.841837,-33.550987 L-12.124355,-30.25 L-6.0621777,-33.75 L0,-30.25 L6.0621777,-33.75 L12.124355,-30.25 L17.841837,-33.550987" fill="none" stroke="#1a1a1a" stroke-linecap="round" stroke-linejoin="round" stroke-width="0.03"/>
<path d="M-21.46221,-31.358788 L-18.186533,-33.25 L-12.124355,-29.75 L-6.0621777,-33.25 L0,-29.75 L6.0621777,-33.25 L12.124355,-29.75 L18.186533,-33.25 L21.46221,-31.358788" fill="none" stroke="#1a1a1a" stroke-linecap="round" stroke-linejoin="round" stroke-width="0.03"/>
<path d="M-24.254028,-29.25307 L-24.24871,-29.25 L-18.186533,-32.75 L-12.124355,-29.25 L-6.0621777,-32.75 L0,-29.25 L6.0621777,-32.75 L12.124355,-29.25 L18.186533,-32.75 L24.24871,-29.25 L24.254028,-29.25307" fill="none" stroke="#1a1a1a" stroke-linecap="round" stroke-linejoin="round" stroke-width="0.03"/>
<path d="M-24.60695,-28.95683 L-24.24871,-28.75 L-18.186533,-32.25 L-12.124355,-28.75 L-6.0621777,-32.25 L0,-28.75 L6.0621777,-32.25 L12.124355,-28.75 L18.186533,-32.25 L24.24871,-28.75 L24.60695,-28.95683" fill="none" stroke="#1a1a1a" stroke-linecap="round" stroke-linejoin="round" stroke-width="0.03"/>
<path d="M-25.927229,-27.780909 L-24.24871,-28.75 L-18.186533,-25.25 L-12.124355,-28.75 L-6.0621777,-25.25 L0,-28.75 L6.0621777,-25.25 L12.124355,-28.75 L18.186533,-25.25 L24.24871,-28.75 L25.927229,-27.780909" fill="none" stroke="#1a1a1a" stroke-linecap="round" stroke-linejoin="round" stroke-width="0.03"/>
<path d="M-27.177486,-26.55907 L-24.24871,-28.25 L-18.186533,-24.75 L-12.124355,-28.25 L-6.0621777,-24.75 L0,-28.25 L6.0621777,-24.75 L12.124355,-28.25 L18.186533,-24.75 L24.24871,-28.25 L27.177486,-26.55907" fill="none" stroke="#1a1a1a" stroke-linecap="round" stroke-linejoin="round" stroke-width="0.03"/>
<path d="M-28.20386,-25.466494 L-24.24871,-27.75 L-18.186533,-24.25 L-12.124355,-27.75 L-6.0621777,-24.25 L0,-27.75 L6.0621777,-24.25 L12.124355,-27.75 L18.186533,-24.25 L24.24871,-27.75 L28.20386,-25.466494" fill="none" stroke="#1a1a1a" stroke-linecap="round" stroke-linejoin="round" stroke-width="0.03"/>
<path d="M-29.081003,-24.460075 L-24.24871,-27.25 L-18.186533,-23.75 L-12.124355,-27.25 L-6.0621777,-23.75 L0,-27.25 L6.0621777,-23.75 L12.124355,-27.25 L18.186533,-23.75 L24.24871,-27.25 L29.081003,-24.460075" fill="none" stroke="#1a1a1a" stroke-linecap="round" stroke-linejoin="round" stroke-width="0.03"/>
<path d="M-29.849102,-23.516613 L-24.24871,-26.75 L-18.186533,-23.25 L-12.124355,-26.75 L-6.0621777,-23.25 L0,-26.75 L6.0621777,-23.25 L12.124355,-26.75 L18.186533,-23.25 L24.24871,-26.75 L29.849102,-23.516613" fill="none" stroke="#1a1a1a" stroke-linecap="round" stroke-linejoin="round" stroke-width="0.03"/>
<path d="M-30.399242,-22.80101 L-30.310888,-22.75 L-24.24871,-26.25 L-18.186533,-22.75 L-12.124355,-26.25 L-6.0621777,-22.75 L0,-26.25 L6.0621777,-22.75 L12.124355,-26.25 L18.186533,-22.75 L24.24871,-26.25 L30.310888,-22.75 L30.399242,-22.80101" fill="none" stroke="#1a1a1a" stroke-linecap="round" stroke-linejoin="round" stroke-width="0.03"/>
<path d="M-30.65876,-22.450844 L-30.310888,-22.25 L-24.24871,-25.75 L-18.186533,-22.25 L-12.124355,-25.75 L-6.0621777,-22.25 L0,-25.75 L6.0621777,-22.25 L12.124355,-25.75 L18.186533,-22.25 L24.24871,-25.75 L30.310888,-22.25 L30.65876,-22.450844" fill="none" stroke="#1a1a1a" stroke-linecap="round" stroke-linejoin="round" stroke-width="0.03"/>
<path d="M-30.91393,-22.098166 L-30.310888,-21.75 L-24.24871,-25.25 L-18.186533,-21.75 L-12.124355,-25.25 L-6.0621777,-21.75 L0,-25.25 L6.0621777,-21.75 L12.124355,-25.25 L18.186533,-21.75 L24.24871,-25.25 L30.310888,-21.75 L30.91393,-22.098166" fill="none" stroke="#1a1a1a" stroke-linecap="round" stroke-linejoin="round" stroke-width="0.03"/>
<path d="M-31.164764,-21.742985 L-30.310888,-21.25 L-24.24871,-24.75 L-18.186533,-21.25 L-12.124355,-24.75 L-6.0621777,-21.25 L0,-24.75 L6.0621777,-21.25 L12.124355,-24.75 L18.186533,-21.25 L24.24871,-24.75 L30.310888,-21.25 L31.164764,-21.742985" fill="none" stroke="#1a1a1a" stroke-linecap="round" stroke-linejoin="round" stroke-width="0.03"/>
<path d="M-31.41128,-21.385311 L-30.310888,-20.75 L-24.24871,-24.25 L-18.186533,-20.75 L-12.124355,-24.25 L-6.0621777,-20.75 L0,-24.25 L6.0621777,-20.75 L12.124355,-24.25 L18.186533,-20.75 L24.24871,-24.25 L30.310888,-20.75 L31.41128,-21.385311" fill="none" stroke="#1a1a1a" stroke-linecap="round" stroke-linejoin="round" stroke-width="0.03"/>
<path d="M-31.653486,-21.025148 L-30.310888,-20.25 L-24.24871,-23.75 L-18.186533,-20.25 L-12.124355,-23.75 L-6.0621777,-20.25 L0,-23.75 L6.0621777,-20.25 L12.124355,-23.75 L18.186533,-20.25 L24.24871,-23.75 L30.310888,-20.25 L31.653486,-21.025148" fill="none" stroke="#1a1a1a" stroke-linecap="round" stroke-linejoin="round" stroke-width="0.03"/>
<path d="M-31.891392,-20.662504 L-30.310888,-19.75 L-24.24871,-23.25 L-18.186533,-19.75 L-12.124355,-23.25 L-6.0621777,-19.75 L0,-23.25 L6.0621777,-19.75 L12.124355,-23.25 L18.186533,-19.75 L24.24871,-23.25 L30.310888,-19.75 L31.891392,-20.662504" fill="none" stroke="#1a1a1a" stroke-linecap="round" stroke-linejoin="round" stroke-width="0.03"/>
<path d="M-33.522137,-17.895985 L-30.310888,-19.75 L-24.24871,-16.25 L-18.186533,-19.75 L-12.124355,-16.25 L-6.0621777,-19.75 L0,-16.25 L6.0621777,-19.75 L12.124355,-16.25 L18.186533,-19.75 L24.24871,-16.25 L30.310888,-19.75 L33.522137,-17.895985" fill="none" stroke="#1a1a1a" stroke-linecap="round" stroke-linejoin="round" stroke-width="0.03"/>
<path d="M-33.894,-17.18129 L-30.310888,-19.25 L-24.24871,-15.75 L-18.186533,-19.25 L-12.124355,-15.75 L-6.0621777,-19.25 L0,-15.75 L6.0621777,-19.25 L12.124355,-15.75 L18.186533,-19.25 L24.24871,-15.75 L30.310888,-19.25 L33.894,-17.18129" fill="none" stroke="#1a1a1a" stroke-linecap="round" stroke-linejoin="round" stroke-width="0.03"/>
<path d="M-34.239628,-16.48174 L-30.310888,-18.75 L-24.24871,-15.25 L-18.186533,-18.75 L-12.124355,-15.25 L-6.0621777,-18.75 L0,-15.25 L6.0621777,-18.75 L12.124355,-15.25 L18.186533,-18.75 L24.24871,-15.25 L30.310888,-18.75 L34.239628,-16.48174" fill="none" stroke="#1a1a1a" stroke-linecap="round" stroke-linejoin="round" stroke-width="0.03"/>
<path d="M-34.561344,-15.796 L-30.310888,-18.25 L-24.24871,-14.75 L-18.186533,-18.25 L-12.124355,-14.75 L-6.0621777,-18.25 L0,-14.75 L6.0621777,-18.25 L12.124355,-14.75 L18.186533,-18.25 L24.24871,-14.75 L30.310888,-18.25 L34.561344,-15.796" fill="none" stroke="#1a1a1a" stroke-linecap="round" stroke-linejoin="round" stroke-width="0.03"/>
<path d="M-34.86111,-15.122929 L-30.310888,-17.75 L-24.24871,-14.25 L-18.186533,-17.75 L-12.124355,-14.25 L-6.0621777,-17.75 L0,-14.25 L6.0621777,-17.75 L12.124355,-14.25 L18.186533,-17.75 L24.24871,-14.25 L30.310888,-17.75 L34.86111,-15.122929" fill="none" stroke="#1a1a1a" stroke-linecap="round" stroke-linejoin="round" stroke-width="0.03"/>
<path d="M-35.140625,-14.461551 L-30.310888,-17.25 L-24.24871,-13.75 L-18.186533,-17.25 L-12.124355,-13.75 L-6.0621777,-17.25 L0,-13.75 L6.0621777,-17.25 L12.124355,-13.75 L18.186533,-17.25 L24.24871,-13.75 L30.310888,-17.25 L35.140625,-14.461551" fill="none" stroke="#1a1a1a" stroke-linecap="round" stroke-linejoin="round" stroke-width="0.03"/>
<path d="M-35.401352,-13.81102 L-30.310888,-16.75 L-24.24871,-13.25 L-18.186533,-16.75 L-12.124355,-13.25 L-6.0621777,-16.75 L0,-13.25 L6.0621777,-16.75 L12.124355,-13.25 L18.186533,-16.75 L24.24871,-13.25 L30.310888,-16.75 L35.401352,-13.81102" fill="none" stroke="#1a1a1a" stroke-linecap="round" stroke-linejoin="round" stroke-width="0.03"/>
<path d="M-35.64457,-13.170598 L-30.310888,-16.25 L-24.24871,-12.75 L-18.186533,-16.25 L-12.124355,-12.75 L-6.0621777,-16.25 L0,-12.75 L6.0621777,-16.25 L12.124355,-12.75 L18.186533,-16.25 L24.24871,-12.75 L30.310888,-16.25 L35.64457,-13.170598" fill="none" stroke="#1a1a1a" stroke-linecap="round" stroke-linejoin="round" stroke-width="0.03"/>
<path d="M-35.871403,-12.539636 L-30.310888,-15.75 L-24.24871,-12.25 L-18.186533,-15.75 L-12.124355,-12.25 L-6.0621777,-15.75 L0,-12.25 L6.0621777,-15.75 L12.124355,-12.25 L18.186533,-15.75 L24.24871,-12.25 L30.310888,-15.75 L35.871403,-12.539636" fill="none" stroke="#1a1a1a" stroke-linecap="round" stroke-linejoin="round" stroke-width="0.03"/>
<path d="M-36.082848,-11.917559 L-30.310888,-15.25 L-24.24871,-11.75 L-18.186533,-15.25 L-12.124355,-11.75 L-6.0621777,-15.25 L0,-11.75 L6.0621777,-15.25 L12.124355,-11.75 L18.186533,-15.25 L24.24871,-11.75 L30.310888,-15.25 L36.082848,-11.917559" fill="none" stroke="#1a1a1a" stroke-linecap="round" stroke-linejoin="round" stroke-width="0.03"/>
<path d="M-36.279785,-11.303856 L-30.310888,-14.75 L-24.24871,-11.25 L-18.186533,-14.75 L-12.124355,-11.25 L-6.0621777,-14.75 L0,-11.25 L6.0621777,-14.75 L12.124355,-11.25 L18.186533,-14.75 L24.24871,-11.25 L30.310888,-14.75 L36.279785,-11.303856" fill="none" stroke="#1a1a1a" stroke-linecap="round" stroke-linejoin="round" stroke-width="0.03"/>
<path d="M-36.436855,-10.786828 L-36.373066,-10.75 L-30.310888,-14.25 L-24.24871,-10.75 L-18.186533,-14.25 L-12.124355,-10.75 L-6.0621777,-14.25 L0,-10.75 L6.0621777,-14.25 L12.124355,-10.75 L18.186533,-14.25 L24.24871,-10.75 L30.310888,-14.25 L36.373066,-10.75 L36.436855,-10.786828" fill="none" stroke="#1a1a1a" stroke-linecap="round" stroke-linejoin="round" stroke-width="0.03"/>
<path d="M-36.463013,-10.69807 L-36.373066,-10.75 L-30.310888,-7.25 L-24.24871,-10.75 L-18.186533,-7.25 L-12.124355,-10.75 L-6.0621777,-7.25 L0,-10.75 L6.0621777,-7.25 L12.124355,-10.75 L18.186533,-7.25 L24.24871,-10.75 L30.310888,-7.25 L36.373066,-10.75 L36.463013,-10.69807" fill="none" stroke="#1a1a1a" stroke-linecap="round" stroke-linejoin="round" stroke-width="0.03"/>
<path d="M-36.63324,-10.099789 L-36.373066,-10.25 L-30.310888,-6.75 L-24.24871,-10.25 L-18.186533,-6.75 L-12.124355,-10.25 L-6.0621777,-6.75 L0,-10.25 L6.0621777,-6.75 L12.124355,-10.25 L18.186533,-6.75 L24.24871,-10.25 L30.310888,-6.75 L36.373066,-10.25 L36.63324,-10.099789" fill="none" stroke="#1a1a1a" stroke-linecap="round" stroke-linejoin="round" stroke-width="0.03"/>
<path d="M-36.791107,-9.508643 L-36.373066,-9.75 L-30.310888,-6.25 L-24.24871,-9.75 L-18.186533,-6.25 L-12.124355,-9.75 L-6.0621777,-6.25 L0,-9.75 L6.0621777,-6.25 L12.124355,-9.75 L18.186533,-6.25 L24.24871,-9.75 L30.310888,-6.25 L36.373066,-9.75 L36.791107,-9.508643" fill="none" stroke="#1a1a1a" stroke-linecap="round" stroke-linejoin="round" stroke-width="0.03"/>
<path d="M-36.937202,-8.924296 L-36.373066,-9.25 L-30.310888,-5.75 L-24.24871,-9.25 L-18.186533,-5.75 L-12.124355,-9.25 L-6.0621777,-5.75 L0,-9.25 L6.0621777,-5.75 L12.124355,-9.25 L18.186533,-5.75 L24.24871,-9.25 L30.310888,-5.75 L36.373066,-9.25 L36.937202,-8.924296" fill="none" stroke="#1a1a1a" stroke-linecap="round" stroke-linejoin="round" stroke-width="0.03"/>
<path d="M-37.072052,-8.346442 L-36.373066,-8.75 L-30.310888,-5.25 L-24.24871,-8.75 L-18.186533,-5.25 L-12.124355,-8.75 L-6.0621777,-5.25 L0,-8.75 L6.0621777,-5.25 L12.124355,-8.75 L18.186533,-5.25 L24.24871,-8.75 L30.310888,-5.25 L36.373066,-8.75 L37.072052,-8.346442" fill="none" stroke="#1a1a1a" stroke-linecap="round" stroke-linejoin="round" stroke-width="0.03"/>
<path d="M-37.196136,-7.7748013 L-36.373066,-8.25 L-30.310888,-4.75 L-24.24871,-8.25 L-18.186533,-4.75 L-12.124355,-8.25 L-6.0621777,-4.75 L0,-8.25 L6.0621777,-4.75 L12.124355,-8.25 L18.186533,-4.75 L24.24871,-8.25 L30.310888,-4.75 L36.373066,-8.25 L37.196136,-7.7748013" fill="none" stroke="#1a1a1a" stroke-linecap="round" stroke-linejoin="round" stroke-width="0.03"/>
<path d="M-37.3099,-7.2091193 L-36.373066,-7.75 L-30.310888,-4.25 L-24.24871,-7.75 L-18.186533,-4.25 L-12.124355,-7.75 L-6.0621777,-4.25 L0,-7.75 L6.0621777,-4.25 L12.124355,-7.75 L18.186533,-4.25 L24.24871,-7.75 L30.310888,-4.25 L36.373066,-7.75 L37.3099,-7.2091193" fill="none" stroke="#1a1a1a" stroke-linecap="round" stroke-linejoin="round" stroke-width="0.03"/>
<path d="M-37.41375,-6.649162 L-36.373066,-7.25 L-30.310888,-3.75 L-24.24871,-7.25 L-18.186533,-3.75 L-12.124355,-7.25 L-6.0621777,-3.75 L0,-7.25 L6.0621777,-3.75 L12.124355,-7.25 L18.186533,-3.75 L24.24871,-7.25 L30.310888,-3.75 L36.373066,-7.25 L37.41375,-6.649162" fill="none" stroke="#1a1a1a" stroke-linecap="round" stroke-linejoin="round" stroke-width="0.03"/>
<path d="M-37.50806,-6.0947123 L-36.373066,-6.75 L-30.310888,-3.25 L-24.24871,-6.75 L-18.186533,-3.25 L-12.124355,-6.75 L-6.0621777,-3.25 L0,-6.75 L6.0621777,-3.25 L12.124355,-6.75 L18.186533,-3.25 L24.24871,-6.75 L30.310888,-3.25 L36.373066,-6.75 L37.50806,-6.0947123" fill="none" stroke="#1a1a1a" stroke-linecap="round" stroke-linejoin="round" stroke-width="0.03"/>
<path d="M-37.593174,-5.545572 L-36.373066,-6.25 L-30.310888,-2.75 L-24.24871,-6.25 L-18.186533,-2.75 L-12.124355,-6.25 L-6.0621777,-2.75 L0,-6.25 L6.0621777,-2.75 L12.124355,-6.25 L18.186533,-2.75 L24.24871,-6.25 L30.310888,-2.75 L36.373066,-6.25 L37.593174,-5.545572" fill="none" stroke="#1a1a1a" stroke-linecap="round" stroke-linejoin="round" stroke-width="0.03"/>
<path d="M-37.66941,-5.001556 L-36.373066,-5.75 L-30.310888,-2.25 L-24.24871,-5.75 L-18.186533,-2.25 L-12.124355,-5.75 L-6.0621777,-2.25 L0,-5.75 L6.0621777,-2.25 L12.124355,-5.75 L18.186533,-2.25 L24.24871,-5.75 L30.310888,-2.25 L36.373066,-5.75 L37.66941,-5.001556" fill="none" stroke="#1a1a1a" stroke-linecap="round" stroke-linejoin="round" stroke-width="0.03"/>
<path d="M-37.737064,-4.462495 L-36.373066,-5.25 L-30.310888,-1.75 L-24.24871,-5.25 L-18.186533,-1.75 L-12.124355,-5.25 L-6.0621777,-1.75 L0,-5.25 L6.0621777,-1.75 L12.124355,-5.25 L18.186533,-1.75 L24.24871,-5.25 L30.310888,-1.75 L36.373066,-5.25 L37.737064,-4.462495" fill="none" stroke="#1a1a1a" stroke-linecap="round" stroke-linejoin="round" stroke-width="0.03"/>
<path d="M-37.99124,0.81574553 L-36.373066,1.75 L-30.310888,-1.75 L-24.24871,1.75 L-18.186533,-1.75 L-12.124355,1.75 L-6.0621777,-1.75 L0,1.75 L6.0621777,-1.75 L12.124355,1.75 L18.186533,-1.75 L24.24871,1.75 L30.310888,-1.75 L36.373066,1.75 L37.99124,0.81574553" fill="none" stroke="#1a1a1a" stroke-linecap="round" stroke-linejoin="round" stroke-width="0.03"/>
<path d="M-37.97693,1.3240108 L-36.373066,2.25 L-30.310888,-1.25 L-24.24871,2.25 L-18.186533,-1.25 L-12.124355,2.25 L-6.0621777,-1.25 L0,2.25 L6.0621777,-1.25 L12.124355,2.25 L18.186533,-1.25 L24.24871,2.25 L30.310888,-1.25 L36.373066,2.25 L37.97693,1.3240108" fill="none" stroke="#1a1a1a" stroke-linecap="round" stroke-linejoin="round" stroke-width="0.03"/>
<path d="M-37.955605,1.8363215 L-36.373066,2.75 L-30.310888,-0.75 L-24.24871,2.75 L-18.186533,-0.75 L-12.124355,2.75 L-6.0621777,-0.75 L0,2.75 L6.0621777,-0.75 L12.124355,2.75 L18.186533,-0.75 L24.24871,2.75 L30.310888,-0.75 L36.373066,2.75 L37.955605,1.8363215" fill="none" stroke="#1a1a1a" stroke-linecap="round" stroke-linejoin="round" stroke-width="0.03"/>
<path d="M-37.927094,2.3527825 L-36.373066,3.25 L-30.310888,-0.25 L-24.24871,3.25 L-18.186533,-0.25 L-12.124355,3.25 L-6.0621777,-0.25 L0,3.25 L6.0621777,-0.25 L12.124355,3.25 L18.186533,-0.25 L24.24871,3.25 L30.310888,-0.25 L36.373066,3.25 L37.927094,2.3527825" fill="none" stroke="#1a1a1a" stroke-linecap="round" stroke-linejoin="round" stroke-width="0.03"/>
<path d="M-37.891197,2.873506 L-36.373066,3.75 L-30.310888,0.25 L-24.24871,3.75 L-18.186533,0.25 L-12.124355,3.75 L-6.0621777,0.25 L0,3.75 L6.0621777,0.25 L12.124355,3.75 L18.186533,0.25 L24.24871,3.75 L30.310888,0.25 L36.373066,3.75 L37.891197,2.873506" fill="none" stroke="#1a1a1a" stroke-linecap="round" stroke-linejoin="round" stroke-width="0.03"/>
<path d="M-37.847713,3.3986123 L-36.373066,4.25 L-30.310888,0.75 L-24.24871,4.25 L-18.186533,0.75 L-12.124355,4.25 L-6.0621777,0.75 L0,4.25 L6.0621777,0.75 L12.124355,4.25 L18.186533,0.75 L24.24871,4.25 L30.310888,0.75 L36.373066,4.25 L37.847713,3.3986123" fill="none" stroke="#1a1a1a" stroke-linecap="round" stroke-linejoin="round" stroke-width="0.03"/>
<path d="M-37.796417,3.9282293 L-36.373066,4.75 L-30.310888,1.25 L-24.24871,4.75 L-18.186533,1.25 L-12.124355,4.75 L-6.0621777,1.25 L0,4.75 L6.0621777,1.25 L12.124355,4.75 L18.186533,1.25 L24.24871,4.75 L30.310888,1.25 L36.373066,4.75 L37.796417,3.9282293" fill="none" stroke="#1a1a1a" stroke-linecap="round" stroke-linejoin="round" stroke-width="0.03"/>
<path d="M-37.737064,4.462495 L-36.373066,5.25 L-30.310888,1.75 L-24.24871,5.25 L-18.186533,1.75 L-12.124355,5.25 L-6.0621777,1.75 L0,5.25 L6.0621777,1.75 L12.124355,5.25 L18.186533,1.75 L24.24871,5.25 L30.310888,1.75 L36.373066,5.25 L37.737064,4.462495" fill="none" stroke="#1a1a1a" stroke-linecap="round" stroke-linejoin="round" stroke-width="0.03"/>
<path d="M-37.66941,5.001556 L-36.373066,5.75 L-30.310888,2.25 L-24.24871,5.75 L-18.186533,2.25 L-12.124355,5.75 L-6.0621777,2.25 L0,5.75 L6.0621777,2.25 L12.124355,5.75 L18.186533,2.25 L24.24871,5.75 L30.310888,2.25 L36.373066,5.75 L37.66941,5.001556" fill="none" stroke="#1a1a1a" stroke-linecap="round" stroke-linejoin="round" stroke-width="0.03"/>
<path d="M-37.593174,5.545572 L-36.373066,6.25 L-30.310888,2.75 L-24.24871,6.25 L-18.186533,2.75 L-12.124355,6.25 L-6.0621777,2.75 L0,6.25 L6.0621777,2.75 L12.124355,6.25 L18.186533,2.75 L24.24871,6.25 L30.310888,2.75 L36.373066,6.25 L37.593174,5.545572" fill="none" stroke="#1a1a1a" stroke-linecap="round" stroke-linejoin="round" stroke-width="0.03"/>
<path d="M-37.50806,6.0947123 L-36.373066,6.75 L-30.310888,3.25 L-24.24871,6.75 L-18.186533,3.25 L-12.124355,6.75 L-6.0621777,3.25 L0,6.75 L6.0621777,3.25 L12.124355,6.75 L18.186533,3.25 L24.24871,6.75 L30.310888,3.25 L36.373066,6.75 L37.50806,6.0947123" fill="none" stroke="#1a1a1a" stroke-linecap="round" stroke-linejoin="round" stroke-width="0.03"/>
<path d="M-37.41375,6.649162 L-36.373066,7.25 L-30.310888,3.75 L-24.24871,7.25 L-18.186533,3.75 L-12.124355,7.25 L-6.0621777,3.75 L0,7.25 L6.0621777,3.75 L12.124355,7.25 L18.186533,3.75 L24.24871,7.25 L30.310888,3.75 L36.373066,7.25 L37.41375,6.649162" fill="none" stroke="#1a1a1a" stroke-linecap="round" stroke-linejoin="round" stroke-width="0.03"/>
<path d="M-37.20536,7.730526 L-36.373066,7.25 L-30.310888,10.75 L-24.24871,7.25 L-18.186533,10.75 L-12.124355,7.25 L-6.0621777,10.75 L0,7.25 L6.0621777,10.75 L12.124355,7.25 L18.186533,10.75 L24.24871,7.25 L30.310888,10.75 L36.373066,7.25 L37.20536,7.730526" fill="none" stroke="#1a1a1a" stroke-linecap="round" stroke-linejoin="round" stroke-width="0.03"/>
<path d="M-37.110115,8.175535 L-36.373066,7.75 L-30.310888,11.25 L-24.24871,7.75 L-18.186533,11.25 L-12.124355,7.75 L-6.0621777,11.25 L0,7.75 L6.0621777,11.25 L12.124355,7.75 L18.186533,11.25 L24.24871,7.75 L30.310888,11.25 L36.373066,7.75 L37.110115,8.175535" fill="none" stroke="#1a1a1a" stroke-linecap="round" stroke-linejoin="round" stroke-width="0.03"/>
<path d="M-37.009933,8.617696 L-36.373066,8.25 L-30.310888,11.75 L-24.24871,8.25 L-18.186533,11.75 L-12.124355,8.25 L-6.0621777,11.75 L0,8.25 L6.0621777,11.75 L12.124355,8.25 L18.186533,11.75 L24.24871,8.25 L30.310888,11.75 L36.373066,8.25 L37.009933,8.617696" fill="none" stroke="#1a1a1a" stroke-linecap="round" stroke-linejoin="round" stroke-width="0.03"/>
<path d="M-36.904877,9.057041 L-36.373066,8.75 L-30.310888,12.25 L-24.24871,8.75 L-18.186533,12.25 L-12.124355,8.75 L-6.0621777,12.25 L0,8.75 L6.0621777,12.25 L12.124355,8.75 L18.186533,12.25 L24.24871,8.75 L30.310888,12.25 L36.373066,8.75 L36.904877,9.057041" fill="none" stroke="#1a1a1a" stroke-linecap="round" stroke-linejoin="round" stroke-width="0.03"/>
<path d="M-36.794994,9.4936 L-36.373066,9.25 L-30.310888,12.75 L-24.24871,9.25 L-18.186533,12.75 L-12.124355,9.25 L-6.0621777,12.75 L0,9.25 L6.0621777,12.75 L12.124355,9.25 L18.186533,12.75 L24.24871,9.25 L30.310888,12.75 L36.373066,9.25 L36.794994,9.4936" fill="none" stroke="#1a1a1a" stroke-linecap="round" stroke-linejoin="round" stroke-width="0.03"/>
<path d="M-36.680332,9.9274 L-36.373066,9.75 L-30.310888,13.25 L-24.24871,9.75 L-18.186533,13.25 L-12.124355,9.75 L-6.0621777,13.25 L0,9.75 L6.0621777,13.25 L12.124355,9.75 L18.186533,13.25 L24.24871,9.75 L30.310888,13.25 L36.373066,9.75 L36.680332,9.9274" fill="none" stroke="#1a1a1a" stroke-linecap="round" stroke-linejoin="round" stroke-width="0.03"/>
<path d="M-36.560936,10.358467 L-36.373066,10.25 L-30.310888,13.75 L-24.24871,10.25 L-18.186533,13.75 L-12.124355,10.25 L-6.0621777,13.75 L0,10.25 L6.0621777,13.75 L12.124355,10.25 L18.186533,13.75 L24.24871,10.25 L30.310888,13.75 L36.373066,10.25 L36.560936,10.358467" fill="none" stroke="#1a1a1a" stroke-linecap="round" stroke-linejoin="round" stroke-width="0.03"/>
<path d="M-36.436855,10.786828 L-36.373066,10.75 L-30.310888,14.25 L-24.24871,10.75 L-18.186533,14.25 L-12.124355,10.75 L-6.0621777,14.25 L0,10.75 L6.0621777,14.25 L12.124355,10.75 L18.186533,14.25 L24.24871,10.75 L30.310888,14.25 L36.373066,10.75 L36.436855,10.786828" fill="none" stroke="#1a1a1a" stroke-linecap="round" stroke-linejoin="round" stroke-width="0.03"/>
<path d="M-36.279785,11.303856 L-30.310888,14.75 L-24.24871,11.25 L-18.186533,14.75 L-12.124355,11.25 L-6.0621777,14.75 L0,11.25 L6.0621777,14.75 L12.124355,11.25 L18.186533,14.75 L24.24871,11.25 L30.310888,14.75 L36.279785,11.303856" fill="none" stroke="#1a1a1a" stroke-linecap="round" stroke-linejoin="round" stroke-width="0.03"/>
<path d="M-36.082848,11.917559 L-30.310888,15.25 L-24.24871,11.75 L-18.186533,15.25 L-12.124355,11.75 L-6.0621777,15.25 L0,11.75 L6.0621777,15.25 L12.124355,11.75 L18.186533,15.25 L24.24871,11.75 L30.310888,15.25 L36.082848,11.917559" fill="none" stroke="#1a1a1a" stroke-linecap="round" stroke-linejoin="round" stroke-width="0.03"/>
<path d="M-35.871403,12.539636 L-30.310888,15.75 L-24.24871,12.25 L-18.186533,15.75 L-12.124355,12.25 L-6.0621777,15.75 L0,12.25 L6.0621777,15.75 L12.124355,12.25 L18.186533,15.75 L24.24871,12.25 L30.310888,15.75 L35.871403,12.539636" fill="none" stroke="#1a1a1a" stroke-linecap="round" stroke-linejoin="round" stroke-width="0.03"/>
<path d="M-35.64457,13.170598 L-30.310888,16.25 L-24.24871,12.75 L-18.186533,16.25 L-12.124355,12.75 L-6.0621777,16.25 L0,12.75 L6.0621777,16.25 L12.124355,12.75 L18.186533,16.25 L24.24871,12.75 L30.310888,16.25 L35.64457,13.170598" fill="none" stroke="#1a1a1a" stroke-linecap="round" stroke-linejoin="round" stroke-width="0.03"/>
<path d="M-33.436874,18.054789 L-30.310888,16.25 L-24.24871,19.75 L-18.186533,16.25 L-12.124355,19.75 L-6.0621777,16.25 L0,19.75 L6.0621777,16.25 L12.124355,19.75 L18.186533,16.25 L24.24871,19.75 L30.310888,16.25 L33.436874,18.054789" fill="none" stroke="#1a1a1a" stroke-linecap="round" stroke-linejoin="round" stroke-width="0.03"/>
<path d="M-33.228916,18.434725 L-30.310888,16.75 L-24.24871,20.25 L-18.186533,16.75 L-12.124355,20.25 L-6.0621777,16.75 L0,20.25 L6.0621777,16.75 L12.124355,20.25 L18.186533,16.75 L24.24871,20.25 L30.310888,16.75 L33.228916,18.434725" fill="none" stroke="#1a1a1a" stroke-linecap="round" stroke-linejoin="round" stroke-width="0.03"/>
<path d="M-33.016685,18.812191 L-30.310888,17.25 L-24.24871,20.75 L-18.186533,17.25 L-12.124355,20.75 L-6.0621777,17.25 L0,20.75 L6.0621777,17.25 L12.124355,20.75 L18.186533,17.25 L24.24871,20.75 L30.310888,17.25 L33.016685,18.812191" fill="none" stroke="#1a1a1a" stroke-linecap="round" stroke-linejoin="round" stroke-width="0.03"/>
<path d="M-32.80018,19.187191 L-30.310888,17.75 L-24.24871,21.25 L-18.186533,17.75 L-12.124355,21.25 L-6.0621777,17.75 L0,21.25 L6.0621777,17.75 L12.124355,21.25 L18.186533,17.75 L24.24871,21.25 L30.310888,17.75 L32.80018,19.187191" fill="none" stroke="#1a1a1a" stroke-linecap="round" stroke-linejoin="round" stroke-width="0.03"/>
<path d="M-32.5794,19.559725 L-30.310888,18.25 L-24.24871,21.75 L-18.186533,18.25 L-12.124355,21.75 L-6.0621777,18.25 L0,21.75 L6.0621777,18.25 L12.124355,21.75 L18.186533,18.25 L24.24871,21.75 L30.310888,18.25 L32.5794,19.559725" fill="none" stroke="#1a1a1a" stroke-linecap="round" stroke-linejoin="round" stroke-width="0.03"/>
<path d="M-32.354343,19.929789 L-30.310888,18.75 L-24.24871,22.25 L-18.186533,18.75 L-12.124355,22.25 L-6.0621777,18.75 L0,22.25 L6.0621777,18.75 L12.124355,22.25 L18.186533,18.75 L24.24871,22.25 L30.310888,18.75 L32.354343,19.929789" fill="none" stroke="#1a1a1a" stroke-linecap="round" stroke-linejoin="round" stroke-width="0.03"/>
<path d="M-32.12501,20.297382 L-30.310888,19.25 L-24.24871,22.75 L-18.186533,19.25 L-12.124355,22.75 L-6.0621777,19.25 L0,22.75 L6.0621777,19.25 L12.124355,22.75 L18.186533,19.25 L24.24871,22.75 L30.310888,19.25 L32.12501,20.297382" fill="none" stroke="#1a1a1a" stroke-linecap="round" stroke-linejoin="round" stroke-width="0.03"/>
<path d="M-31.891392,20.662504 L-30.310888,19.75 L-24.24871,23.25 L-18.186533,19.75 L-12.124355,23.25 L-6.0621777,19.75 L0,23.25 L6.0621777,19.75 L12.124355,23.25 L18.186533,19.75 L24.24871,23.25 L30.310888,19.75 L31.891392,20.662504" fill="none" stroke="#1a1a1a" stroke-linecap="round" stroke-linejoin="round" stroke-width="0.03"/>
<path d="M-31.653486,21.025148 L-30.310888,20.25 L-24.24871,23.75 L-18.186533,20.25 L-12.124355,23.75 L-6.0621777,20.25 L0,23.75 L6.0621777,20.25 L12.124355,23.75 L18.186533,20.25 L24.24871,23.75 L30.310888,20.25 L31.653486,21.025148" fill="none" stroke="#1a1a1a" stroke-linecap="round" stroke-linejoin="round" stroke-width="0.03"/>
<path d="M-31.41128,21.385311 L-30.310888,20.75 L-24.24871,24.25 L-18.186533,20.75 L-12.124355,24.25 L-6.0621777,20.75 L0,24.25 L6.0621777,20.75 L12.124355,24.25 L18.186533,20.75 L24.24871,24.25 L30.310888,20.75 L31.41128,21.385311" fill="none" stroke="#1a1a1a" stroke-linecap="round" stroke-linejoin="round" stroke-width="0.03"/>
<path d="M-31.164764,21.742985 L-30.310888,21.25 L-24.24871,24.75 L-18.186533,21.25 L-12.124355,24.75 L-6.0621777,21.25 L0,24.75 L6.0621777,21.25 L12.124355,24.75 L18.186533,21.25 L24.24871,24.75 L30.310888,21.25 L31.164764,21.742985" fill="none" stroke="#1a1a1a" stroke-linecap="round" stroke-linejoin="round" stroke-width="0.03"/>
<path d="M-30.91393,22.098166 L-30.310888,21.75 L-24.24871,25.25 L-18.186533,21.75 L-12.124355,25.25 L-6.0621777,21.75 L0,25.25 L6.0621777,21.75 L12.124355,25.25 L18.186533,21.75 L24.24871,25.25 L30.310888,21.75 L30.91393,22.098166" fill="none" stroke="#1a1a1a" stroke-linecap="round" stroke-linejoin="round" stroke-width="0.03"/>
<path d="M-26.937546,26.802399 L-24.24871,25.25 L-18.186533,28.75 L-12.124355,25.25 L-6.0621777,28.75 L0,25.25 L6.0621777,28.75 L12.124355,25.25 L18.186533,28.75 L24.24871,25.25 L26.937546,26.802399" fill="none" stroke="#1a1a1a" stroke-linecap="round" stroke-linejoin="round" stroke-width="0.03"/>
<path d="M-26.619196,27.118599 L-24.24871,25.75 L-18.186533,29.25 L-12.124355,25.75 L-6.0621777,29.25 L0,25.75 L6.0621777,29.25 L12.124355,25.75 L18.186533,29.25 L24.24871,25.75 L26.619196,27.118599" fill="none" stroke="#1a1a1a" stroke-linecap="round" stroke-linejoin="round" stroke-width="0.03"/>
<path d="M-26.296066,27.432041 L-24.24871,26.25 L-18.186533,29.75 L-12.124355,26.25 L-6.0621777,29.75 L0,26.25 L6.0621777,29.75 L12.124355,26.25 L18.186533,29.75 L24.24871,26.25 L26.296066,27.432041" fill="none" stroke="#1a1a1a" stroke-linecap="round" stroke-linejoin="round" stroke-width="0.03"/>
<path d="M-25.968111,27.742697 L-24.24871,26.75 L-18.186533,30.25 L-12.124355,26.75 L-6.0621777,30.25 L0,26.75 L6.0621777,30.25 L12.124355,26.75 L18.186533,30.25 L24.24871,26.75 L25.968111,27.742697" fill="none" stroke="#1a1a1a" stroke-linecap="round" stroke-linejoin="round" stroke-width="0.03"/>
<path d="M-25.635279,28.050535 L-24.24871,27.25 L-18.186533,30.75 L-12.124355,27.25 L-6.0621777,30.75 L0,27.25 L6.0621777,30.75 L12.124355,27.25 L18.186533,30.75 L24.24871,27.25 L25.635279,28.050535" fill="none" stroke="#1a1a1a" stroke-linecap="round" stroke-linejoin="round" stroke-width="0.03"/>
<path d="M-25.297512,28.355526 L-24.24871,27.75 L-18.186533,31.25 L-12.124355,27.75 L-6.0621777,31.25 L0,27.75 L6.0621777,31.25 L12.124355,27.75 L18.186533,31.25 L24.24871,27.75 L25.297512,28.355526" fill="none" stroke="#1a1a1a" stroke-linecap="round" stroke-linejoin="round" stroke-width="0.03"/>
<path d="M-24.954758,28.657637 L-24.24871,28.25 L-18.186533,31.75 L-12.124355,28.25 L-6.0621777,31.75 L0,28.25 L6.0621777,31.75 L12.124355,28.25 L18.186533,31.75 L24.24871,28.25 L24.954758,28.657637" fill="none" stroke="#1a1a1a" stroke-linecap="round" stroke-linejoin="round" stroke-width="0.03"/>
<path d="M-24.60695,28.95683 L-24.24871,28.75 L-18.186533,32.25 L-12.124355,28.75 L-6.0621777,32.25 L0,28.75 L6.0621777,32.25 L12.124355,28.75 L18.186533,32.25 L24.24871,28.75 L24.60695,28.95683" fill="none" stroke="#1a1a1a" stroke-linecap="round" stroke-linejoin="round" stroke-width="0.03"/>
<path d="M-24.254028,29.25307 L-24.24871,29.25 L-18.186533,32.75 L-12.124355,29.25 L-6.0621777,32.75 L0,29.25 L6.0621777,32.75 L12.124355,29.25 L18.186533,32.75 L24.24871,29.25 L24.254028,29.25307" fill="none" stroke="#1a1a1a" stroke-linecap="round" stroke-linejoin="round" stroke-width="0.03"/>
<path d="M-21.46221,31.358788 L-18.186533,33.25 L-12.124355,29.75 L-6.0621777,33.25 L0,29.75 L6.0621777,33.25 L12.124355,29.75 L18.186533,33.25 L21.46221,31.358788" fill="none" stroke="#1a1a1a" stroke-linecap="round" stroke-linejoin="round" stroke-width="0.03"/>
<path d="M-17.841837,33.550987 L-12.124355,30.25 L-6.0621777,33.75 L0,30.25 L6.0621777,33.75 L12.124355,30.25 L17.841837,33.550987" fill="none" stroke="#1a1a1a" stroke-linecap="round" stroke-linejoin="round" stroke-width="0.03"/>
<path d="M-17.3875,33.788677 L-12.124355,30.75 L-6.0621777,34.25 L0,30.75 L6.0621777,34.25 L12.124355,30.75 L17.3875,33.788677" fill="none" stroke="#1a1a1a" stroke-linecap="round" stroke-linejoin="round" stroke-width="0.03"/>
<path d="M-10.160828,36.616356 L-6.0621777,34.25 L0,37.75 L6.0621777,34.25 L10.160828,36.616356" fill="none" stroke="#1a1a1a" stroke-linecap="round" stroke-linejoin="round" stroke-width="0.03"/>
<path d="M-9.569946,36.77521 L-6.0621777,34.75 L-0.43737248,37.997482" fill="none" stroke="#1a1a1a" stroke-linecap="round" stroke-linejoin="round" stroke-width="0.03"/>
<path d="M0.43737248,37.997482 L6.0621777,34.75 L9.569946,36.77521" fill="none" stroke="#1a1a1a" stroke-linecap="round" stroke-linejoin="round" stroke-width="0.03"/>
<path d="M-8.966706,36.92693 L-6.0621777,35.25 L-1.3399711,37.976368" fill="none" stroke="#1a1a1a" stroke-linecap="round" stroke-linejoin="round" stroke-width="0.03"/>
<path d="M1.3399711,37.976368 L6.0621777,35.25 L8.966706,36.92693" fill="none" stroke="#1a1a1a" stroke-linecap="round" stroke-linejoin="round" stroke-width="0.03"/>
<path d="M-8.350467,37.071144 L-6.0621777,35.75 L-2.2840664,37.931293" fill="none" stroke="#1a1a1a" stroke-linecap="round" stroke-linejoin="round" stroke-width="0.03"/>
<path d="M2.2840664,37.931293 L6.0621777,35.75 L8.350467,37.071144" fill="none" stroke="#1a1a1a" stroke-linecap="round" stroke-linejoin="round" stroke-width="0.03"/>
<path d="M-7.7205143,37.20744 L-6.0621777,36.25 L-3.2761564,37.85851" fill="none" stroke="#1a1a1a" stroke-linecap="round" stroke-linejoin="round" stroke-width="0.03"/>
<path d="M3.2761564,37.85851 L6.0621777,36.25 L7.7205143,37.20744" fill="none" stroke="#1a1a1a" stroke-linecap="round" stroke-linejoin="round" stroke-width="0.03"/>
<path d="M-7.076058,37.335365 L-6.0621777,36.75 L-4.32476,37.753098" fill="none" stroke="#1a1a1a" stroke-linecap="round" stroke-linejoin="round" stroke-width="0.03"/>
<path d="M4.32476,37.753098 L6.0621777,36.75 L7.076058,37.335365" fill="none" stroke="#1a1a1a" stroke-linecap="round" stroke-linejoin="round" stroke-width="0.03"/>
<path d="M-6.416212,37.454403 L-6.0621777,37.25 L-5.4414325,37.608387" fill="none" stroke="#1a1a1a" stroke-linecap="round" stroke-linejoin="round" stroke-width="0.03"/>
<path d="M5.4414325,37.608387 L6.0621777,37.25 L6.416212,37.454403" fill="none" stroke="#1a1a1a" stroke-linecap="round" stroke-linejoin="round" stroke-width="0.03"/>
</g>
<circle cx="0" cy="0" fill="none" r="39.9" stroke="#1a1a1a" stroke-width="0.8"/>
<circle cx="0" cy="0" fill="#1a1a1a" r="0.8"/>
</svg>