<svg height="51.74511724028081mm" viewBox="-25.872558620140406 -25.872558620140406 51.74511724028082 51.74511724028081" width="51.74511724028082mm" xmlns="http://www.w3.org/2000/svg">
<path d="M20,0 L20.050053,0.083985955 L20.09953,0.16838937 L20.148209,0.25320318 L20.195866,0.33841667 L20.242289,0.4240155 L20.287262,0.5099819 L20.33058,0.59629464 L20.372046,0.68292946 L20.411469,0.76985896 L20.448666,0.85705304 L20.483469,0.944479 L20.51572,1.032102 L20.54527,1.119885 L20.57199,1.2077893 L20.595755,1.295775 L20.616463,1.3838011 L20.634022,1.4718257 L20.648361,1.5598066 L20.659418,1.6477017 L20.667152,1.7354693 L20.671537,1.823068 L20.672564,1.9104578 L20.670238,1.9976001 L20.664585,2.0844576 L20.655643,2.1709957 L20.643469,2.2571814 L20.628132,2.3429852 L20.60972,2.4283795 L20.588333,2.5133407 L20.564087,2.5978484 L20.53711,2.6818857 L20.507542,2.7654393 L20.475533,2.8485003 L20.44125,2.9310637 L20.404863,3.013128 L20.366554,3.094697 L20.326511,3.175778 L20.284931,3.2563825 L20.242014,3.3365264 L20.197962,3.4162295 L20.152985,3.4955158 L20.107292,3.574413 L20.06109,3.6529524 L20.014593,3.731169 L19.968002,3.8091002 L19.921524,3.8867874 L19.875357,3.964274 L19.829693,4.0416055 L19.784721,4.1188307 L19.740618,4.195998 L19.697556,4.2731586 L19.655691,4.350364 L19.615177,4.4276667 L19.57615,4.5051174 L19.538734,4.582769 L19.503044,4.6606717 L19.469177,4.738875 L19.437218,4.817426 L19.407236,4.896372 L19.379286,4.9757547 L19.353407,5.0556154 L19.32962,5.13599 L19.307938,5.2169123 L19.28835,5.298412 L19.270832,5.3805127 L19.255346,5.4632354 L19.241838,5.5465956 L19.23024,5.630603 L19.220469,5.7152624 L19.212425,5.8005733 L19.206001,5.886529 L19.201075,5.9731174 L19.19751,6.06032 L19.195162,6.1481137 L19.193876,6.2364683 L19.193487,6.325349 L19.19382,6.414714 L19.1947,6.5045166 L19.19594,6.5947056 L19.197348,6.6852236 L19.19873,6.776009 L19.19989,6.866996 L19.200632,6.958113 L19.200754,7.049287 L19.200064,7.1404395 L19.19836,7.23149 L19.195457,7.3223557 L19.191164,7.4129515 L19.185303,7.503191 L19.177694,7.592986 L19.168173,7.6822495 L19.156582,7.770893 L19.14277,7.85883 L19.126602,7.945974 L19.107946,8.032241 L19.08669,8.11755 L19.06273,8.201822 L19.035978,8.284982 L19.00636,8.366958 L18.97381,8.447684 L18.938286,8.5271 L18.899752,8.605147 L18.858194,8.681777 L18.81361,8.756946 L18.766014,8.830616 L18.715431,8.902758 L18.66191,8.973349 L18.605501,9.042373 L18.54628,9.109824 L18.484335,9.175703 L18.41976,9.240018 L18.352669,9.302787 L18.283186,9.364034 L18.211445,9.423792 L18.13759,9.482103 L18.061779,9.539017 L17.984175,9.594588 L17.904947,9.648884 L17.824274,9.701974 L17.742344,9.753936 L17.659342,9.804855 L17.575462,9.854823 L17.490898,9.903935 L17.405848,9.952292 L17.320509,10 L17.235075,10.047168 L17.149742,10.093908 L17.064701,10.140337 L16.98014,10.186571 L16.896242,10.232728 L16.81318,10.278928 L16.731127,10.325289 L16.650242,10.371929 L16.570679,10.418964 L16.49258,10.466509 L16.416077,10.514674 L16.341293,10.563567 L16.268337,10.61329 L16.197308,10.66394 L16.12829,10.7156105 L16.061356,10.768387 L15.996565,10.822347 L15.93396,10.8775625 L15.873574,10.934097 L15.815424,10.992006 L15.759514,11.051335 L15.705833,11.112121 L15.654359,11.174392 L15.605053,11.238166 L15.557865,11.303451 L15.512734,11.370245 L15.4695835,11.438536 L15.428328,11.508301 L15.388869,11.579509 L15.351099,11.652118 L15.3149,11.726076 L15.280147,11.801321 L15.246702,11.877784 L15.214427,11.955384 L15.183172,12.034034 L15.152784,12.113639 L15.123105,12.194095 L15.093974,12.2752905 L15.065226,12.357113 L15.036696,12.439437 L15.00822,12.522139 L14.9796295,12.605085 L14.950762,12.688143 L14.921456,12.771176 L14.891555,12.854045 L14.860903,12.936611 L14.829351,13.018735 L14.79676,13.100278 L14.76299,13.181102 L14.727915,13.261074 L14.691415,13.340062 L14.6533785,13.41794 L14.613705,13.494586 L14.572301,13.569883 L14.529089,13.643723 L14.483996,13.7160015 L14.436965,13.786626 L14.387949,13.85551 L14.336912,13.922577 L14.283831,13.987761 L14.228693,14.051004 L14.1715,14.112263 L14.112263,14.1715 L14.051004,14.228693 L13.987761,14.283831 L13.922577,14.336912 L13.85551,14.387949 L13.786626,14.436965 L13.7160015,14.483996 L13.643723,14.529089 L13.569883,14.572301 L13.494586,14.613705 L13.41794,14.6533785 L13.340062,14.691415 L13.261074,14.727915 L13.181102,14.76299 L13.100278,14.79676 L13.018735,14.829351 L12.936611,14.860903 L12.854045,14.891555 L12.771176,14.921456 L12.688143,14.950762 L12.605085,14.9796295 L12.522139,15.00822 L12.439437,15.036696 L12.357113,15.065226 L12.2752905,15.093974 L12.194095,15.123105 L12.113639,15.152784 L12.034034,15.183172 L11.955384,15.214427 L11.877784,15.246702 L11.801321,15.280147 L11.726076,15.3149 L11.652118,15.351099 L11.579509,15.388869 L11.508301,15.428328 L11.438536,15.4695835 L11.370245,15.512734 L11.303451,15.557865 L11.238166,15.605053 L11.174392,15.654359 L11.112121,15.705833 L11.051335,15.759514 L10.992006,15.815424 L10.934097,15.873574 L10.8775625,15.93396 L10.822347,15.996565 L10.768387,16.061356 L10.7156105,16.12829 L10.66394,16.197308 L10.61329,16.268337 L10.563567,16.341293 L10.514674,16.416077 L10.466509,16.49258 L10.418964,16.570679 L10.371929,16.650242 L10.325289,16.731127 L10.278928,16.81318 L10.232728,16.896242 L10.186571,16.98014 L10.140337,17.064701 L10.093908,17.149742 L10.047168,17.235075 L10,17.320509 L9.952292,17.405848 L9.903935,17.490898 L9.854823,17.575462 L9.804855,17.659342 L9.753936,17.742344 L9.701974,17.824274 L9.648884,17.904947 L9.594588,17.984175 L9.539017,18.061779 L9.482103,18.13759 L9.423792,18.211445 L9.364034,18.283186 L9.302787,18.352669 L9.240018,18.41976 L9.175703,18.484335 L9.109824,18.54628 L9.042373,18.605501 L8.973349,18.66191 L8.902758,18.715431 L8.830616,18.766014 L8.756946,18.81361 L8.681777,18.858194 L8.605147,18.899752 L8.5271,18.938286 L8.447684,18.97381 L8.366958,19.00636 L8.284982,19.035978 L8.201822,19.06273 L8.11755,19.08669 L8.032241,19.107946 L7.945974,19.126602 L7.85883,19.14277 L7.770893,19.156582 L7.6822495,19.168173 L7.592986,19.177694 L7.503191,19.185303 L7.4129515,19.191164 L7.3223557,19.195457 L7.23149,19.19836 L7.1404395,19.200064 L7.049287,19.200754 L6.958113,19.200632 L6.866996,19.19989 L6.776009,19.19873 L6.6852236,19.197348 L6.5947056,19.19594 L6.5045166,19.1947 L6.414714,19.19382 L6.325349,19.193487 L6.2364683,19.193876 L6.1481137,19.195162 L6.06032,19.19751 L5.9731174,19.201075 L5.886529,19.206001 L5.8005733,19.212425 L5.7152624,19.220469 L5.630603,19.23024 L5.5465956,19.241838 L5.4632354,19.255346 L5.3805127,19.270832 L5.298412,19.28835 L5.2169123,19.307938 L5.13599,19.32962 L5.0556154,19.353407 L4.9757547,19.379286 L4.896372,19.407236 L4.817426,19.437218 L4.738875,19.469177 L4.6606717,19.503044 L4.582769,19.538734 L4.5051174,19.57615 L4.4276667,19.615177 L4.350364,19.655691 L4.2731586,19.697556 L4.195998,19.740618 L4.1188307,19.784721 L4.0416055,19.829693 L3.964274,19.875357 L3.8867874,19.921524 L3.8091002,19.968002 L3.731169,20.014593 L3.6529524,20.06109 L3.574413,20.107292 L3.4955158,20.152985 L3.4162295,20.197962 L3.3365264,20.242014 L3.2563825,20.284931 L3.175778,20.326511 L3.094697,20.366554 L3.013128,20.404863 L2.9310637,20.44125 L2.8485003,20.475533 L2.7654393,20.507542 L2.6818857,20.53711 L2.5978484,20.564087 L2.5133407,20.588333 L2.4283795,20.60972 L2.3429852,20.628132 L2.2571814,20.643469 L2.1709957,20.655643 L2.0844576,20.664585 L1.9976001,20.670238 L1.9104578,20.672564 L1.823068,20.671537 L1.7354693,20.667152 L1.6477017,20.659418 L1.5598066,20.648361 L1.4718257,20.634022 L1.3838011,20.616463 L1.295775,20.595755 L1.2077893,20.57199 L1.119885,20.54527 L1.032102,20.51572 L0.944479,20.483469 L0.85705304,20.448666 L0.76985896,20.411469 L0.68292946,20.372046 L0.59629464,20.33058 L0.5099819,20.287262 L0.4240155,20.242289 L0.33841667,20.195866 L0.25320318,20.148209 L0.16838937,20.09953 L0.083985955,20.050053 L0.0000000000000056655387,20 L-0.08356516,19.949596 L-0.16670993,19.899067 L-0.24943842,19.848635 L-0.3317584,19.79852 L-0.4136813,19.74894 L-0.49522194,19.700106 L-0.57639855,19.652225 L-0.6572326,19.605497 L-0.7377483,19.560112 L-0.81797314,19.516247 L-0.8979366,19.474077 L-0.9776708,19.433758 L-1.0572096,19.39544 L-1.1365889,19.359251 L-1.2158457,19.325315 L-1.2950182,19.293736 L-1.374145,19.264605 L-1.4532655,19.237995 L-1.5324191,19.213966 L-1.6116445,19.192562 L-1.6909798,19.173807 L-1.7704625,19.157711 L-1.8501282,19.144268 L-1.9300109,19.133455 L-2.0101428,19.125233 L-2.0905538,19.119543 L-2.1712704,19.11632 L-2.252317,19.115475 L-2.3337147,19.116905 L-2.4154809,19.1205 L-2.4976296,19.126131 L-2.580171,19.133656 L-2.6631112,19.142923 L-2.7464526,19.153772 L-2.830193,19.16603 L-2.9143267,19.179516 L-2.9988427,19.19404 L-3.083727,19.20941 L-3.1689603,19.225424 L-3.2545204,19.24188 L-3.3403802,19.258568 L-3.4265091,19.275282 L-3.5128732,19.291811 L-3.5994346,19.30795 L-3.6861525,19.323488 L-3.7729828,19.338224 L-3.8598795,19.351963 L-3.9467936,19.364508 L-4.0336742,19.375675 L-4.1204696,19.385286 L-4.2071257,19.39317 L-4.293588,19.399168 L-4.379802,19.403131 L-4.465713,19.404924 L-4.5512657,19.40442 L-4.6364074,19.401508 L-4.721085,19.396091 L-4.8052487,19.388084 L-4.8888493,19.377419 L-4.9718404,19.36404 L-5.05418,19.347912 L-5.135828,19.32901 L-5.2167478,19.307327 L-5.296908,19.282873 L-5.3762803,19.25567 L-5.4548416,19.225761 L-5.5325747,19.193197 L-5.609466,19.15805 L-5.685508,19.120403 L-5.760699,19.080355 L-5.8350415,19.038013 L-5.908546,18.993507 L-5.9812274,18.946966 L-6.0531073,18.89854 L-6.1242113,18.848385 L-6.1945734,18.796665 L-6.2642307,18.743553 L-6.3332276,18.689232 L-6.4016137,18.633886 L-6.469442,18.577707 L-6.5367727,18.520891 L-6.603668,18.463634 L-6.670197,18.406137 L-6.73643,18.3486 L-6.8024426,18.291216 L-6.8683124,18.234186 L-6.934119,18.1777 L-6.9999466,18.121948 L-7.065877,18.067112 L-7.131996,18.013365 L-7.1983886,17.96088 L-7.2651396,17.909813 L-7.332334,17.860317 L-7.4000545,17.81253 L-7.4683824,17.76658 L-7.537397,17.722584 L-7.6071734,17.680645 L-7.677785,17.640854 L-7.7492995,17.603287 L-7.821781,17.568008 L-7.895289,17.535063 L-7.9698763,17.504486 L-8.04559,17.476295 L-8.122472,17.450493 L-8.200556,17.427069 L-8.279869,17.405993 L-8.360433,17.387226 L-8.442258,17.37071 L-8.52535,17.356375 L-8.609704,17.344137 L-8.695311,17.333897 L-8.782148,17.325546 L-8.870192,17.318964 L-8.959402,17.314014 L-9.049738,17.310553 L-9.141147,17.308428 L-9.233568,17.307476 L-9.326937,17.307526 L-9.421178,17.308403 L-9.516211,17.309923 L-9.611948,17.3119 L-9.708297,17.31414 L-9.805159,17.316452 L-9.902429,17.31864 L-10,17.320509 L-10.09776,17.321861 L-10.195594,17.322508 L-10.293385,17.322258 L-10.39101,17.320925 L-10.488353,17.318329 L-10.585288,17.314293 L-10.681697,17.308651 L-10.777457,17.301245 L-10.872452,17.29192 L-10.966562,17.280537 L-11.059677,17.266966 L-11.151687,17.251083 L-11.242484,17.232784 L-11.33197,17.211971 L-11.420052,17.188559 L-11.506639,17.16248 L-11.59165,17.133675 L-11.675013,17.102102 L-11.75666,17.06773 L-11.836536,17.030544 L-11.914592,16.990543 L-11.9907875,16.947737 L-12.065092,16.902153 L-12.137486,16.853827 L-12.207959,16.802814 L-12.276511,16.749178 L-12.343151,16.692993 L-12.407898,16.634352 L-12.470783,16.573349 L-12.531846,16.510098 L-12.591136,16.444715 L-12.648711,16.377333 L-12.70464,16.308083 L-12.759001,16.23711 L-12.811877,16.164566 L-12.863363,16.090605 L-12.91356,16.015387 L-12.962576,15.9390745 L-13.010523,15.861835 L-13.057523,15.7838335 L-13.103698,15.705239 L-13.1491785,15.626219 L-13.194096,15.546938 L-13.238584,15.467562 L-13.282779,15.3882475 L-13.326818,15.309153 L-13.37084,15.230427 L-13.41498,15.152216 L-13.4593725,15.074656 L-13.50415,14.997878 L-13.549441,14.922004 L-13.595372,14.847146 L-13.64206,14.773409 L-13.689621,14.700885 L-13.738162,14.629657 L-13.787783,14.559796 L-13.838574,14.491365 L-13.890623,14.424412 L-13.944,14.3589735 L-13.998773,14.295076 L-14.054995,14.232734 L-14.112708,14.1719475 L-14.1719475,14.112708 L-14.232734,14.054995 L-14.295076,13.998773 L-14.3589735,13.944 L-14.424412,13.890623 L-14.491365,13.838574 L-14.559796,13.787783 L-14.629657,13.738162 L-14.700885,13.689621 L-14.773409,13.64206 L-14.847146,13.595372 L-14.922004,13.549441 L-14.997878,13.50415 L-15.074656,13.4593725 L-15.152216,13.41498 L-15.230427,13.37084 L-15.309153,13.326818 L-15.3882475,13.282779 L-15.467562,13.238584 L-15.546938,13.194096 L-15.626219,13.1491785 L-15.705239,13.103698 L-15.7838335,13.057523 L-15.861835,13.010523 L-15.9390745,12.962576 L-16.015387,12.91356 L-16.090605,12.863363 L-16.164566,12.811877 L-16.23711,12.759001 L-16.308083,12.70464 L-16.377333,12.648711 L-16.444715,12.591136 L-16.510098,12.531846 L-16.573349,12.470783 L-16.634352,12.407898 L-16.692993,12.343151 L-16.749178,12.276511 L-16.802814,12.207959 L-16.853827,12.137486 L-16.902153,12.065092 L-16.947737,11.9907875 L-16.990543,11.914592 L-17.030544,11.836536 L-17.06773,11.75666 L-17.102102,11.675013 L-17.133675,11.59165 L-17.16248,11.506639 L-17.188559,11.420052 L-17.211971,11.33197 L-17.232784,11.242484 L-17.251083,11.151687 L-17.266966,11.059677 L-17.280537,10.966562 L-17.29192,10.872452 L-17.301245,10.777457 L-17.308651,10.681697 L-17.314293,10.585288 L-17.318329,10.488353 L-17.320925,10.39101 L-17.322258,10.293385 L-17.322508,10.195594 L-17.321861,10.09776 L-17.320509,10 L-17.31864,9.902429 L-17.316452,9.805159 L-17.31414,9.708297 L-17.3119,9.611948 L-17.309923,9.516211 L-17.308403,9.421178 L-17.307526,9.326937 L-17.307476,9.233568 L-17.308428,9.141147 L-17.310553,9.049738 L-17.314014,8.959402 L-17.318964,8.870192 L-17.325546,8.782148 L-17.333897,8.695311 L-17.344137,8.609704 L-17.356375,8.52535 L-17.37071,8.442258 L-17.387226,8.360433 L-17.405993,8.279869 L-17.427069,8.200556 L-17.450493,8.122472 L-17.476295,8.04559 L-17.504486,7.9698763 L-17.535063,7.895289 L-17.568008,7.821781 L-17.603287,7.7492995 L-17.640854,7.677785 L-17.680645,7.6071734 L-17.722584,7.537397 L-17.76658,7.4683824 L-17.81253,7.4000545 L-17.860317,7.332334 L-17.909813,7.2651396 L-17.96088,7.1983886 L-18.013365,7.131996 L-18.067112,7.065877 L-18.121948,6.9999466 L-18.1777,6.934119 L-18.234186,6.8683124 L-18.291216,6.8024426 L-18.3486,6.73643 L-18.406137,6.670197 L-18.463634,6.603668 L-18.520891,6.5367727 L-18.577707,6.469442 L-18.633886,6.4016137 L-18.689232,6.3332276 L-18.743553,6.2642307 L-18.796665,6.1945734 L-18.848385,6.1242113 L-18.89854,6.0531073 L-18.946966,5.9812274 L-18.993507,5.908546 L-19.038013,5.8350415 L-19.080355,5.760699 L-19.120403,5.685508 L-19.15805,5.609466 L-19.193197,5.5325747 L-19.225761,5.4548416 L-19.25567,5.3762803 L-19.282873,5.296908 L-19.307327,5.2167478 L-19.32901,5.135828 L-19.347912,5.05418 L-19.36404,4.9718404 L-19.377419,4.8888493 L-19.388084,4.8052487 L-19.396091,4.721085 L-19.401508,4.6364074 L-19.40442,4.5512657 L-19.404924,4.465713 L-19.403131,4.379802 L-19.399168,4.293588 L-19.39317,4.2071257 L-19.385286,4.1204696 L-19.375675,4.0336742 L-19.364508,3.9467936 L-19.351963,3.8598795 L-19.338224,3.7729828 L-19.323488,3.6861525 L-19.30795,3.5994346 L-19.291811,3.5128732 L-19.275282,3.4265091 L-19.258568,3.3403802 L-19.24188,3.2545204 L-19.225424,3.1689603 L-19.20941,3.083727 L-19.19404,2.9988427 L-19.179516,2.9143267 L-19.16603,2.830193 L-19.153772,2.7464526 L-19.142923,2.6631112 L-19.133656,2.580171 L-19.126131,2.4976296 L-19.1205,2.4154809 L-19.116905,2.3337147 L-19.115475,2.252317 L-19.11632,2.1712704 L-19.119543,2.0905538 L-19.125233,2.0101428 L-19.133455,1.9300109 L-19.144268,1.8501282 L-19.157711,1.7704625 L-19.173807,1.6909798 L-19.192562,1.6116445 L-19.213966,1.5324191 L-19.237995,1.4532655 L-19.264605,1.374145 L-19.293736,1.2950182 L-19.325315,1.2158457 L-19.359251,1.1365889 L-19.39544,1.0572096 L-19.433758,0.9776708 L-19.474077,0.8979366 L-19.516247,0.81797314 L-19.560112,0.7377483 L-19.605497,0.6572326 L-19.652225,0.57639855 L-19.700106,0.49522194 L-19.74894,0.4136813 L-19.79852,0.3317584 L-19.848635,0.24943842 L-19.899067,0.16670993 L-19.949596,0.08356516 L-20,0.000000000000011331077 L-20.050053,-0.083985955 L-20.09953,-0.16838937 L-20.148209,-0.25320318 L-20.195866,-0.33841667 L-20.242289,-0.4240155 L-20.287262,-0.5099819 L-20.33058,-0.59629464 L-20.372046,-0.68292946 L-20.411469,-0.76985896 L-20.448666,-0.85705304 L-20.483469,-0.944479 L-20.51572,-1.032102 L-20.54527,-1.119885 L-20.57199,-1.2077893 L-20.595755,-1.295775 L-20.616463,-1.3838011 L-20.634022,-1.4718257 L-20.648361,-1.5598066 L-20.659418,-1.6477017 L-20.667152,-1.7354693 L-20.671537,-1.823068 L-20.672564,-1.9104578 L-20.670238,-1.9976001 L-20.664585,-2.0844576 L-20.655643,-2.1709957 L-20.643469,-2.2571814 L-20.628132,-2.3429852 L-20.60972,-2.4283795 L-20.588333,-2.5133407 L-20.564087,-2.5978484 L-20.53711,-2.6818857 L-20.507542,-2.7654393 L-20.475533,-2.8485003 L-20.44125,-2.9310637 L-20.404863,-3.013128 L-20.366554,-3.094697 L-20.326511,-3.175778 L-20.284931,-3.2563825 L-20.242014,-3.3365264 L-20.197962,-3.4162295 L-20.152985,-3.4955158 L-20.107292,-3.574413 L-20.06109,-3.6529524 L-20.014593,-3.731169 L-19.968002,-3.8091002 L-19.921524,-3.8867874 L-19.875357,-3.964274 L-19.829693,-4.0416055 L-19.784721,-4.1188307 L-19.740618,-4.195998 L-19.697556,-4.2731586 L-19.655691,-4.350364 L-19.615177,-4.4276667 L-19.57615,-4.5051174 L-19.538734,-4.582769 L-19.503044,-4.6606717 L-19.469177,-4.738875 L-19.437218,-4.817426 L-19.407236,-4.896372 L-19.379286,-4.9757547 L-19.353407,-5.0556154 L-19.32962,-5.13599 L-19.307938,-5.2169123 L-19.28835,-5.298412 L-19.270832,-5.3805127 L-19.255346,-5.4632354 L-19.241838,-5.5465956 L-19.23024,-5.630603 L-19.220469,-5.7152624 L-19.212425,-5.8005733 L-19.206001,-5.886529 L-19.201075,-5.9731174 L-19.19751,-6.06032 L-19.195162,-6.1481137 L-19.193876,-6.2364683 L-19.193487,-6.325349 L-19.19382,-6.414714 L-19.1947,-6.5045166 L-19.19594,-6.5947056 L-19.197348,-6.6852236 L-19.19873,-6.776009 L-19.19989,-6.866996 L-19.200632,-6.958113 L-19.200754,-7.049287 L-19.200064,-7.1404395 L-19.19836,-7.23149 L-19.195457,-7.3223557 L-19.191164,-7.4129515 L-19.185303,-7.503191 L-19.177694,-7.592986 L-19.168173,-7.6822495 L-19.156582,-7.770893 L-19.14277,-7.85883 L-19.126602,-7.945974 L-19.107946,-8.032241 L-19.08669,-8.11755 L-19.06273,-8.201822 L-19.035978,-8.284982 L-19.00636,-8.366958 L-18.97381,-8.447684 L-18.938286,-8.5271 L-18.899752,-8.605147 L-18.858194,-8.681777 L-18.81361,-8.756946 L-18.766014,-8.830616 L-18.715431,-8.902758 L-18.66191,-8.973349 L-18.605501,-9.042373 L-18.54628,-9.109824 L-18.484335,-9.175703 L-18.41976,-9.240018 L-18.352669,-9.302787 L-18.283186,-9.364034 L-18.211445,-9.423792 L-18.13759,-9.482103 L-18.061779,-9.539017 L-17.984175,-9.594588 L-17.904947,-9.648884 L-17.824274,-9.701974 L-17.742344,-9.753936 L-17.659342,-9.804855 L-17.575462,-9.854823 L-17.490898,-9.903935 L-17.405848,-9.952292 L-17.320509,-10 L-17.235075,-10.047168 L-17.149742,-10.093908 L-17.064701,-10.140337 L-16.98014,-10.186571 L-16.896242,-10.232728 L-16.81318,-10.278928 L-16.731127,-10.325289 L-16.650242,-10.371929 L-16.570679,-10.418964 L-16.49258,-10.466509 L-16.416077,-10.514674 L-16.341293,-10.563567 L-16.268337,-10.61329 L-16.197308,-10.66394 L-16.12829,-10.7156105 L-16.061356,-10.768387 L-15.996565,-10.822347 L-15.93396,-10.8775625 L-15.873574,-10.934097 L-15.815424,-10.992006 L-15.759514,-11.051335 L-15.705833,-11.112121 L-15.654359,-11.174392 L-15.605053,-11.238166 L-15.557865,-11.303451 L-15.512734,-11.370245 L-15.4695835,-11.438536 L-15.428328,-11.508301 L-15.388869,-11.579509 L-15.351099,-11.652118 L-15.3149,-11.726076 L-15.280147,-11.801321 L-15.246702,-11.877784 L-15.214427,-11.955384 L-15.183172,-12.034034 L-15.152784,-12.113639 L-15.123105,-12.194095 L-15.093974,-12.2752905 L-15.065226,-12.357113 L-15.036696,-12.439437 L-15.00822,-12.522139 L-14.9796295,-12.605085 L-14.950762,-12.688143 L-14.921456,-12.771176 L-14.891555,-12.854045 L-14.860903,-12.936611 L-14.829351,-13.018735 L-14.79676,-13.100278 L-14.76299,-13.181102 L-14.727915,-13.261074 L-14.691415,-13.340062 L-14.6533785,-13.41794 L-14.613705,-13.494586 L-14.572301,-13.569883 L-14.529089,-13.643723 L-14.483996,-13.7160015 L-14.436965,-13.786626 L-14.387949,-13.85551 L-14.336912,-13.922577 L-14.283831,-13.987761 L-14.228693,-14.051004 L-14.1715,-14.112263 L-14.112263,-14.1715 L-14.051004,-14.228693 L-13.987761,-14.283831 L-13.922577,-14.336912 L-13.85551,-14.387949 L-13.786626,-14.436965 L-13.7160015,-14.483996 L-13.643723,-14.529089 L-13.569883,-14.572301 L-13.494586,-14.613705 L-13.41794,-14.6533785 L-13.340062,-14.691415 L-13.261074,-14.727915 L-13.181102,-14.76299 L-13.100278,-14.79676 L-13.018735,-14.829351 L-12.936611,-14.860903 L-12.854045,-14.891555 L-12.771176,-14.921456 L-12.688143,-14.950762 L-12.605085,-14.9796295 L-12.522139,-15.00822 L-12.439437,-15.036696 L-12.357113,-15.065226 L-12.2752905,-15.093974 L-12.194095,-15.123105 L-12.113639,-15.152784 L-12.034034,-15.183172 L-11.955384,-15.214427 L-11.877784,-15.246702 L-11.801321,-15.280147 L-11.726076,-15.3149 L-11.652118,-15.351099 L-11.579509,-15.388869 L-11.508301,-15.428328 L-11.438536,-15.4695835 L-11.370245,-15.512734 L-11.303451,-15.557865 L-11.238166,-15.605053 L-11.174392,-15.654359 L-11.112121,-15.705833 L-11.051335,-15.759514 L-10.992006,-15.815424 L-10.934097,-15.873574 L-10.8775625,-15.93396 L-10.822347,-15.996565 L-10.768387,-16.061356 L-10.7156105,-16.12829 L-10.66394,-16.197308 L-10.61329,-16.268337 L-10.563567,-16.341293 L-10.514674,-16.416077 L-10.466509,-16.49258 L-10.418964,-16.570679 L-10.371929,-16.650242 L-10.325289,-16.731127 L-10.278928,-16.81318 L-10.232728,-16.896242 L-10.186571,-16.98014 L-10.140337,-17.064701 L-10.093908,-17.149742 L-10.047168,-17.235075 L-10,-17.320509 L-9.952292,-17.405848 L-9.903935,-17.490898 L-9.854823,-17.575462 L-9.804855,-17.659342 L-9.753936,-17.742344 L-9.701974,-17.824274 L-9.648884,-17.904947 L-9.594588,-17.984175 L-9.539017,-18.061779 L-9.482103,-18.13759 L-9.423792,-18.211445 L-9.364034,-18.283186 L-9.302787,-18.352669 L-9.240018,-18.41976 L-9.175703,-18.484335 L-9.109824,-18.54628 L-9.042373,-18.605501 L-8.973349,-18.66191 L-8.902758,-18.715431 L-8.830616,-18.766014 L-8.756946,-18.81361 L-8.681777,-18.858194 L-8.605147,-18.899752 L-8.5271,-18.938286 L-8.447684,-18.97381 L-8.366958,-19.00636 L-8.284982,-19.035978 L-8.201822,-19.06273 L-8.11755,-19.08669 L-8.032241,-19.107946 L-7.945974,-19.126602 L-7.85883,-19.14277 L-7.770893,-19.156582 L-7.6822495,-19.168173 L-7.592986,-19.177694 L-7.503191,-19.185303 L-7.4129515,-19.191164 L-7.3223557,-19.195457 L-7.23149,-19.19836 L-7.1404395,-19.200064 L-7.049287,-19.200754 L-6.958113,-19.200632 L-6.866996,-19.19989 L-6.776009,-19.19873 L-6.6852236,-19.197348 L-6.5947056,-19.19594 L-6.5045166,-19.1947 L-6.414714,-19.19382 L-6.325349,-19.193487 L-6.2364683,-19.193876 L-6.1481137,-19.195162 L-6.06032,-19.19751 L-5.9731174,-19.201075 L-5.886529,-19.206001 L-5.8005733,-19.212425 L-5.7152624,-19.220469 L-5.630603,-19.23024 L-5.5465956,-19.241838 L-5.4632354,-19.255346 L-5.3805127,-19.270832 L-5.298412,-19.28835 L-5.2169123,-19.307938 L-5.13599,-19.32962 L-5.0556154,-19.353407 L-4.9757547,-19.379286 L-4.896372,-19.407236 L-4.817426,-19.437218 L-4.738875,-19.469177 L-4.6606717,-19.503044 L-4.582769,-19.538734 L-4.5051174,-19.57615 L-4.4276667,-19.615177 L-4.350364,-19.655691 L-4.2731586,-19.697556 L-4.195998,-19.740618 L-4.1188307,-19.784721 L-4.0416055,-19.829693 L-3.964274,-19.875357 L-3.8867874,-19.921524 L-3.8091002,-19.968002 L-3.731169,-20.014593 L-3.6529524,-20.06109 L-3.574413,-20.107292 L-3.4955158,-20.152985 L-3.4162295,-20.197962 L-3.3365264,-20.242014 L-3.2563825,-20.284931 L-3.175778,-20.326511 L-3.094697,-20.366554 L-3.013128,-20.404863 L-2.9310637,-20.44125 L-2.8485003,-20.475533 L-2.7654393,-20.507542 L-2.6818857,-20.53711 L-2.5978484,-20.564087 L-2.5133407,-20.588333 L-2.4283795,-20.60972 L-2.3429852,-20.628132 L-2.2571814,-20.643469 L-2.1709957,-20.655643 L-2.0844576,-20.664585 L-1.9976001,-20.670238 L-1.9104578,-20.672564 L-1.823068,-20.671537 L-1.7354693,-20.667152 L-1.6477017,-20.659418 L-1.5598066,-20.648361 L-1.4718257,-20.634022 L-1.3838011,-20.616463 L-1.295775,-20.595755 L-1.2077893,-20.57199 L-1.119885,-20.54527 L-1.032102,-20.51572 L-0.944479,-20.483469 L-0.85705304,-20.448666 L-0.76985896,-20.411469 L-0.68292946,-20.372046 L-0.59629464,-20.33058 L-0.5099819,-20.287262 L-0.4240155,-20.242289 L-0.33841667,-20.195866 L-0.25320318,-20.148209 L-0.16838937,-20.09953 L-0.083985955,-20.050053 L-0.00000000000000367394,-20 L0.08356516,-19.949596 L0.16670993,-19.899067 L0.24943842,-19.848635 L0.3317584,-19.79852 L0.4136813,-19.74894 L0.49522194,-19.700106 L0.57639855,-19.652225 L0.6572326,-19.605497 L0.7377483,-19.560112 L0.81797314,-19.516247 L0.8979366,-19.474077 L0.9776708,-19.433758 L1.0572096,-19.39544 L1.1365889,-19.359251 L1.2158457,-19.325315 L1.2950182,-19.293736 L1.374145,-19.264605 L1.4532655,-19.237995 L1.5324191,-19.213966 L1.6116445,-19.192562 L1.6909798,-19.173807 L1.7704625,-19.157711 L1.8501282,-19.144268 L1.9300109,-19.133455 L2.0101428,-19.125233 L2.0905538,-19.119543 L2.1712704,-19.11632 L2.252317,-19.115475 L2.3337147,-19.116905 L2.4154809,-19.1205 L2.4976296,-19.126131 L2.580171,-19.133656 L2.6631112,-19.142923 L2.7464526,-19.153772 L2.830193,-19.16603 L2.9143267,-19.179516 L2.9988427,-19.19404 L3.083727,-19.20941 L3.1689603,-19.225424 L3.2545204,-19.24188 L3.3403802,-19.258568 L3.4265091,-19.275282 L3.5128732,-19.291811 L3.5994346,-19.30795 L3.6861525,-19.323488 L3.7729828,-19.338224 L3.8598795,-19.351963 L3.9467936,-19.364508 L4.0336742,-19.375675 L4.1204696,-19.385286 L4.2071257,-19.39317 L4.293588,-19.399168 L4.379802,-19.403131 L4.465713,-19.404924 L4.5512657,-19.40442 L4.6364074,-19.401508 L4.721085,-19.396091 L4.8052487,-19.388084 L4.8888493,-19.377419 L4.9718404,-19.36404 L5.05418,-19.347912 L5.135828,-19.32901 L5.2167478,-19.307327 L5.296908,-19.282873 L5.3762803,-19.25567 L5.4548416,-19.225761 L5.5325747,-19.193197 L5.609466,-19.15805 L5.685508,-19.120403 L5.760699,-19.080355 L5.8350415,-19.038013 L5.908546,-18.993507 L5.9812274,-18.946966 L6.0531073,-18.89854 L6.1242113,-18.848385 L6.1945734,-18.796665 L6.2642307,-18.743553 L6.3332276,-18.689232 L6.4016137,-18.633886 L6.469442,-18.577707 L6.5367727,-18.520891 L6.603668,-18.463634 L6.670197,-18.406137 L6.73643,-18.3486 L6.8024426,-18.291216 L6.8683124,-18.234186 L6.934119,-18.1777 L6.9999466,-18.121948 L7.065877,-18.067112 L7.131996,-18.013365 L7.1983886,-17.96088 L7.2651396,-17.909813 L7.332334,-17.860317 L7.4000545,-17.81253 L7.4683824,-17.76658 L7.537397,-17.722584 L7.6071734,-17.680645 L7.677785,-17.640854 L7.7492995,-17.603287 L7.821781,-17.568008 L7.895289,-17.535063 L7.9698763,-17.504486 L8.04559,-17.476295 L8.122472,-17.450493 L8.200556,-17.427069 L8.279869,-17.405993 L8.360433,-17.387226 L8.442258,-17.37071 L8.52535,-17.356375 L8.609704,-17.344137 L8.695311,-17.333897 L8.782148,-17.325546 L8.870192,-17.318964 L8.959402,-17.314014 L9.049738,-17.310553 L9.141147,-17.308428 L9.233568,-17.307476 L9.326937,-17.307526 L9.421178,-17.308403 L9.516211,-17.309923 L9.611948,-17.3119 L9.708297,-17.31414 L9.805159,-17.316452 L9.902429,-17.31864 L10,-17.320509 L10.09776,-17.321861 L10.195594,-17.322508 L10.293385,-17.322258 L10.39101,-17.320925 L10.488353,-17.318329 L10.585288,-17.314293 L10.681697,-17.308651 L10.777457,-17.301245 L10.872452,-17.29192 L10.966562,-17.280537 L11.059677,-17.266966 L11.151687,-17.251083 L11.242484,-17.232784 L11.33197,-17.211971 L11.420052,-17.188559 L11.506639,-17.16248 L11.59165,-17.133675 L11.675013,-17.102102 L11.75666,-17.06773 L11.836536,-17.030544 L11.914592,-16.990543 L11.9907875,-16.947737 L12.065092,-16.902153 L12.137486,-16.853827 L12.207959,-16.802814 L12.276511,-16.749178 L12.343151,-16.692993 L12.407898,-16.634352 L12.470783,-16.573349 L12.531846,-16.510098 L12.591136,-16.444715 L12.648711,-16.377333 L12.70464,-16.308083 L12.759001,-16.23711 L12.811877,-16.164566 L12.863363,-16.090605 L12.91356,-16.015387 L12.962576,-15.9390745 L13.010523,-15.861835 L13.057523,-15.7838335 L13.103698,-15.705239 L13.1491785,-15.626219 L13.194096,-15.546938 L13.238584,-15.467562 L13.282779,-15.3882475 L13.326818,-15.309153 L13.37084,-15.230427 L13.41498,-15.152216 L13.4593725,-15.074656 L13.50415,-14.997878 L13.549441,-14.922004 L13.595372,-14.847146 L13.64206,-14.773409 L13.689621,-14.700885 L13.738162,-14.629657 L13.787783,-14.559796 L13.838574,-14.491365 L13.890623,-14.424412 L13.944,-14.3589735 L13.998773,-14.295076 L14.054995,-14.232734 L14.112708,-14.1719475 L14.1719475,-14.112708 L14.232734,-14.054995 L14.295076,-13.998773 L14.3589735,-13.944 L14.424412,-13.890623 L14.491365,-13.838574 L14.559796,-13.787783 L14.629657,-13.738162 L14.700885,-13.689621 L14.773409,-13.64206 L14.847146,-13.595372 L14.922004,-13.549441 L14.997878,-13.50415 L15.074656,-13.4593725 L15.152216,-13.41498 L15.230427,-13.37084 L15.309153,-13.326818 L15.3882475,-13.282779 L15.467562,-13.238584 L15.546938,-13.194096 L15.626219,-13.1491785 L15.705239,-13.103698 L15.7838335,-13.057523 L15.861835,-13.010523 L15.9390745,-12.962576 L16.015387,-12.91356 L16.090605,-12.863363 L16.164566,-12.811877 L16.23711,-12.759001 L16.308083,-12.70464 L16.377333,-12.648711 L16.444715,-12.591136 L16.510098,-12.531846 L16.573349,-12.470783 L16.634352,-12.407898 L16.692993,-12.343151 L16.749178,-12.276511 L16.802814,-12.207959 L16.853827,-12.137486 L16.902153,-12.065092 L16.947737,-11.9907875 L16.990543,-11.914592 L17.030544,-11.836536 L17.06773,-11.75666 L17.102102,-11.675013 L17.133675,-11.59165 L17.16248,-11.506639 L17.188559,-11.420052 L17.211971,-11.33197 L17.232784,-11.242484 L17.251083,-11.151687 L17.266966,-11.059677 L17.280537,-10.966562 L17.29192,-10.872452 L17.301245,-10.777457 L17.308651,-10.681697 L17.314293,-10.585288 L17.318329,-10.488353 L17.320925,-10.39101 L17.322258,-10.293385 L17.322508,-10.195594 L17.321861,-10.09776 L17.320509,-10 L17.31864,-9.902429 L17.316452,-9.805159 L17.31414,-9.708297 L17.3119,-9.611948 L17.309923,-9.516211 L17.308403,-9.421178 L17.307526,-9.326937 L17.307476,-9.233568 L17.308428,-9.141147 L17.310553,-9.049738 L17.314014,-8.959402 L17.318964,-8.870192 L17.325546,-8.782148 L17.333897,-8.695311 L17.344137,-8.609704 L17.356375,-8.52535 L17.37071,-8.442258 L17.387226,-8.360433 L17.405993,-8.279869 L17.427069,-8.200556 L17.450493,-8.122472 L17.476295,-8.04559 L17.504486,-7.9698763 L17.535063,-7.895289 L17.568008,-7.821781 L17.603287,-7.7492995 L17.640854,-7.677785 L17.680645,-7.6071734 L17.722584,-7.537397 L17.76658,-7.4683824 L17.81253,-7.4000545 L17.860317,-7.332334 L17.909813,-7.2651396 L17.96088,-7.1983886 L18.013365,-7.131996 L18.067112,-7.065877 L18.121948,-6.9999466 L18.1777,-6.934119 L18.234186,-6.8683124 L18.291216,-6.8024426 L18.3486,-6.73643 L18.406137,-6.670197 L18.463634,-6.603668 L18.520891,-6.5367727 L18.577707,-6.469442 L18.633886,-6.4016137 L18.689232,-6.3332276 L18.743553,-6.2642307 L18.796665,-6.1945734 L18.848385,-6.1242113 L18.89854,-6.0531073 L18.946966,-5.9812274 L18.993507,-5.908546 L19.038013,-5.8350415 L19.080355,-5.760699 L19.120403,-5.685508 L19.15805,-5.609466 L19.193197,-5.5325747 L19.225761,-5.4548416 L19.25567,-5.3762803 L19.282873,-5.296908 L19.307327,-5.2167478 L19.32901,-5.135828 L19.347912,-5.05418 L19.36404,-4.9718404 L19.377419,-4.8888493 L19.388084,-4.8052487 L19.396091,-4.721085 L19.401508,-4.6364074 L19.40442,-4.5512657 L19.404924,-4.465713 L19.403131,-4.379802 L19.399168,-4.293588 L19.39317,-4.2071257 L19.385286,-4.1204696 L19.375675,-4.0336742 L19.364508,-3.9467936 L19.351963,-3.8598795 L19.338224,-3.7729828 L19.323488,-3.6861525 L19.30795,-3.5994346 L19.291811,-3.5128732 L19.275282,-3.4265091 L19.258568,-3.3403802 L19.24188,-3.2545204 L19.225424,-3.1689603 L19.20941,-3.083727 L19.19404,-2.9988427 L19.179516,-2.9143267 L19.16603,-2.830193 L19.153772,-2.7464526 L19.142923,-2.6631112 L19.133656,-2.580171 L19.126131,-2.4976296 L19.1205,-2.4154809 L19.116905,-2.3337147 L19.115475,-2.252317 L19.11632,-2.1712704 L19.119543,-2.0905538 L19.125233,-2.0101428 L19.133455,-1.9300109 L19.144268,-1.8501282 L19.157711,-1.7704625 L19.173807,-1.6909798 L19.192562,-1.6116445 L19.213966,-1.5324191 L19.237995,-1.4532655 L19.264605,-1.374145 L19.293736,-1.2950182 L19.325315,-1.2158457 L19.359251,-1.1365889 L19.39544,-1.0572096 L19.433758,-0.9776708 L19.474077,-0.8979366 L19.516247,-0.81797314 L19.560112,-0.7377483 L19.605497,-0.6572326 L19.652225,-0.57639855 L19.700106,-0.49522194 L19.74894,-0.4136813 L19.79852,-0.3317584 L19.848635,-0.24943842 L19.899067,-0.16670993 L19.949596,-0.08356516 L20,-0.000000000000022662155" fill="none" stroke="black" stroke-width="0.1"/>
<path d="M20.171804,-0.10238876 L20.222225,-0.017780425 L20.272532,0.068038814 L20.322218,0.15461066 L20.371052,0.24192905 L20.418806,0.32998535 L20.46525,0.4187681 L20.510164,0.50826293 L20.55333,0.59845185 L20.594532,0.68931335 L20.633568,0.78082156 L20.670238,0.87294585 L20.704357,0.9656503 L20.735744,1.0588931 L20.76423,1.1526257 L20.789663,1.2467927 L20.811901,1.3413315 L20.830818,1.4361717 L20.84631,1.5312353 L20.858284,1.626438 L20.866676,1.7216889 L20.871443,1.8168926 L20.872559,1.9119508 L20.87003,2.006764 L20.86388,2.101234 L20.854166,2.1952655 L20.84096,2.2887695 L20.824356,2.3816633 L20.804478,2.4738736 L20.781456,2.565337 L20.755447,2.6559997 L20.726616,2.7458198 L20.69514,2.834765 L20.661215,2.9228132 L20.625034,3.0099518 L20.586805,3.0961769 L20.54674,3.1814916 L20.505053,3.2659068 L20.461964,3.349439 L20.417694,3.4321096 L20.372465,3.5139446 L20.326502,3.5949748 L20.28002,3.6752331 L20.233242,3.754756 L20.186382,3.8335826 L20.139648,3.911754 L20.093246,3.989313 L20.047373,4.0663047 L20.002218,4.142776 L19.957958,4.2187753 L19.914762,4.294353 L19.872787,4.369561 L19.832176,4.444454 L19.793058,4.51909 L19.755548,4.593528 L19.719744,4.6678314 L19.685732,4.742067 L19.653582,4.8163056 L19.623343,4.8906217 L19.595058,4.965092 L19.568754,5.039799 L19.544441,5.1148243 L19.52212,5.1902533 L19.501778,5.2661686 L19.483395,5.3426523 L19.466938,5.419783 L19.452366,5.4976335 L19.439625,5.576269 L19.428654,5.6557474 L19.419378,5.736116 L19.411715,5.817412 L19.405571,5.8996625 L19.400837,5.9828825 L19.397396,6.067078 L19.39512,6.152243 L19.393867,6.238363 L19.393486,6.3254123 L19.393816,6.4133596 L19.394688,6.5021634 L19.395918,6.591777 L19.397324,6.682146 L19.39871,6.773211 L19.39988,6.8649073 L19.400629,6.9571652 L19.400753,7.049911 L19.400045,7.143068 L19.398296,7.236553 L19.3953,7.3302827 L19.39085,7.424168 L19.384745,7.518117 L19.376785,7.612035 L19.36678,7.7058225 L19.354544,7.799377 L19.339901,7.8925924 L19.322685,7.9853578 L19.302744,8.07756 L19.279938,8.169082 L19.254143,8.259801 L19.225254,8.349597 L19.193184,8.438347 L19.15787,8.525928 L19.119268,8.612219 L19.077358,8.697106 L19.03214,8.780481 L18.983646,8.862246 L18.931917,8.942312 L18.877024,9.020606 L18.819052,9.097066 L18.758104,9.171648 L18.694302,9.244324 L18.627773,9.315078 L18.558664,9.383912 L18.487127,9.450844 L18.413324,9.515902 L18.337425,9.579126 L18.259605,9.640573 L18.180044,9.700303 L18.09893,9.758389 L18.016455,9.814914 L17.932812,9.869962 L17.848198,9.923627 L17.762814,9.976009 L17.676863,10.027212 L17.590548,10.077343 L17.50407,10.126512 L17.417637,10.174831 L17.331448,10.222417 L17.245703,10.269384 L17.160595,10.315849 L17.076317,10.361929 L16.993053,10.407736 L16.910982,10.453384 L16.830273,10.498984 L16.751087,10.544644 L16.67357,10.590467 L16.59786,10.636556 L16.52408,10.683004 L16.452337,10.729907 L16.382723,10.777351 L16.315308,10.825422 L16.250147,10.874201 L16.187279,10.923768 L16.126719,10.974201 L16.068466,11.025577 L16.012499,11.077972 L15.958782,11.131464 L15.907266,11.18613 L15.857885,11.242044 L15.810568,11.299287 L15.765232,11.357926 L15.72179,11.418031 L15.68015,11.47966 L15.640217,11.542864 L15.60189,11.607681 L15.565067,11.674135 L15.529646,11.742235 L15.495514,11.811975 L15.46256,11.883329 L15.430662,11.956263 L15.399696,12.030719 L15.369533,12.106629 L15.340032,12.183912 L15.311052,12.262474 L15.282447,12.34221 L15.25406,12.423005 L15.225735,12.50474 L15.197312,12.587283 L15.168629,12.670501 L15.13952,12.754254 L15.10982,12.838399 L15.079369,12.922791 L15.048002,13.007279 L15.015561,13.091715 L14.981893,13.175946 L14.946846,13.259823 L14.910279,13.343191 L14.872057,13.425901 L14.832053,13.507802 L14.790153,13.588745 L14.74625,13.668584 L14.700255,13.747172 L14.652091,13.824371 L14.601696,13.900044 L14.5490265,13.97406 L14.494054,14.046296 L14.43677,14.116638 L14.377185,14.184982 L14.315326,14.251238 L14.251238,14.315326 L14.184982,14.377185 L14.116638,14.43677 L14.046296,14.494054 L13.97406,14.5490265 L13.900044,14.601696 L13.824371,14.652091 L13.747172,14.700255 L13.668584,14.74625 L13.588745,14.790153 L13.507802,14.832053 L13.425901,14.872057 L13.343191,14.910279 L13.259823,14.946846 L13.175946,14.981893 L13.091715,15.015561 L13.007279,15.048002 L12.922791,15.079369 L12.838399,15.10982 L12.754254,15.13952 L12.670501,15.168629 L12.587283,15.197312 L12.50474,15.225735 L12.423005,15.25406 L12.34221,15.282447 L12.262474,15.311052 L12.183912,15.340032 L12.106629,15.369533 L12.030719,15.399696 L11.956263,15.430662 L11.883329,15.46256 L11.811975,15.495514 L11.742235,15.529646 L11.674135,15.565067 L11.607681,15.60189 L11.542864,15.640217 L11.47966,15.68015 L11.418031,15.72179 L11.357926,15.765232 L11.299287,15.810568 L11.242044,15.857885 L11.18613,15.907266 L11.131464,15.958782 L11.077972,16.012499 L11.025577,16.068466 L10.974201,16.126719 L10.923768,16.187279 L10.874201,16.250147 L10.825422,16.315308 L10.777351,16.382723 L10.729907,16.452337 L10.683004,16.52408 L10.636556,16.59786 L10.590467,16.67357 L10.544644,16.751087 L10.498984,16.830273 L10.453384,16.910982 L10.407736,16.993053 L10.361929,17.076317 L10.315849,17.160595 L10.269384,17.245703 L10.222417,17.331448 L10.174831,17.417637 L10.126512,17.50407 L10.077343,17.590548 L10.027212,17.676863 L9.976009,17.762814 L9.923627,17.848198 L9.869962,17.932812 L9.814914,18.016455 L9.758389,18.09893 L9.700303,18.180044 L9.640573,18.259605 L9.579126,18.337425 L9.515902,18.413324 L9.450844,18.487127 L9.383912,18.558664 L9.315078,18.627773 L9.244324,18.694302 L9.171648,18.758104 L9.097066,18.819052 L9.020606,18.877024 L8.942312,18.931917 L8.862246,18.983646 L8.780481,19.03214 L8.697106,19.077358 L8.612219,19.119268 L8.525928,19.15787 L8.438347,19.193184 L8.349597,19.225254 L8.259801,19.254143 L8.169082,19.279938 L8.07756,19.302744 L7.9853578,19.322685 L7.8925924,19.339901 L7.799377,19.354544 L7.7058225,19.36678 L7.612035,19.376785 L7.518117,19.384745 L7.424168,19.39085 L7.3302827,19.3953 L7.236553,19.398296 L7.143068,19.400045 L7.049911,19.400753 L6.9571652,19.400629 L6.8649073,19.39988 L6.773211,19.39871 L6.682146,19.397324 L6.591777,19.395918 L6.5021634,19.394688 L6.4133596,19.393816 L6.3254123,19.393486 L6.238363,19.393867 L6.152243,19.39512 L6.067078,19.397396 L5.9828825,19.400837 L5.8996625,19.405571 L5.817412,19.411715 L5.736116,19.419378 L5.6557474,19.428654 L5.576269,19.439625 L5.4976335,19.452366 L5.419783,19.466938 L5.3426523,19.483395 L5.2661686,19.501778 L5.1902533,19.52212 L5.1148243,19.544441 L5.039799,19.568754 L4.965092,19.595058 L4.8906217,19.623343 L4.8163056,19.653582 L4.742067,19.685732 L4.6678314,19.719744 L4.593528,19.755548 L4.51909,19.793058 L4.444454,19.832176 L4.369561,19.872787 L4.294353,19.914762 L4.2187753,19.957958 L4.142776,20.002218 L4.0663047,20.047373 L3.989313,20.093246 L3.911754,20.139648 L3.8335826,20.186382 L3.754756,20.233242 L3.6752331,20.28002 L3.5949748,20.326502 L3.5139446,20.372465 L3.4321096,20.417694 L3.349439,20.461964 L3.2659068,20.505053 L3.1814916,20.54674 L3.0961769,20.586805 L3.0099518,20.625034 L2.9228132,20.661215 L2.834765,20.69514 L2.7458198,20.726616 L2.6559997,20.755447 L2.565337,20.781456 L2.4738736,20.804478 L2.3816633,20.824356 L2.2887695,20.84096 L2.1952655,20.854166 L2.101234,20.86388 L2.006764,20.87003 L1.9119508,20.872559 L1.8168926,20.871443 L1.7216889,20.866676 L1.626438,20.858284 L1.5312353,20.84631 L1.4361717,20.830818 L1.3413315,20.811901 L1.2467927,20.789663 L1.1526257,20.76423 L1.0588931,20.735744 L0.9656503,20.704357 L0.87294585,20.670238 L0.78082156,20.633568 L0.68931335,20.594532 L0.59845185,20.55333 L0.50826293,20.510164 L0.4187681,20.46525 L0.32998535,20.418806 L0.24192905,20.371052 L0.15461066,20.322218 L0.068038814,20.272532 L-0.017780425,20.222225 L-0.10284337,20.171532 L-0.18714859,20.120682 L-0.27069676,20.069908 L-0.3534907,20.019436 L-0.4355352,19.969488 L-0.51683706,19.920282 L-0.59740514,19.872032 L-0.6772505,19.824936 L-0.75638646,19.779188 L-0.83482903,19.734968 L-0.91259706,19.692448 L-0.98971295,19.651775 L-1.0662031,19.613096 L-1.1420988,19.576529 L-1.2174368,19.542181 L-1.2922608,19.510141 L-1.3666214,19.480478 L-1.4405776,19.453249 L-1.514197,19.428488 L-1.5875561,19.406216 L-1.6607394,19.386442 L-1.7338394,19.36916 L-1.8069539,19.354353 L-1.8801851,19.341997 L-1.9536362,19.332054 L-2.0274093,19.324486 L-2.1016018,19.319239 L-2.1763053,19.316257 L-2.251602,19.315474 L-2.3275635,19.31681 L-2.4042509,19.320185 L-2.4817126,19.325497 L-2.5599856,19.332634 L-2.6390963,19.341476 L-2.71906,19.351889 L-2.7998824,19.36372 L-2.8815618,19.376814 L-2.9640875,19.390997 L-3.0474439,19.406092 L-3.1316085,19.421906 L-3.2165544,19.438244 L-3.3022504,19.4549 L-3.3886611,19.471668 L-3.4757483,19.488335 L-3.5634696,19.504688 L-3.6517806,19.520512 L-3.7406332,19.535591 L-3.829977,19.549715 L-3.919758,19.562674 L-4.00992,19.574259 L-4.100403,19.584276 L-4.191143,19.59253 L-4.2820735,19.598837 L-4.3731227,19.60302 L-4.4642158,19.60492 L-4.555273,19.604382 L-4.646211,19.601269 L-4.7369432,19.59546 L-4.827378,19.586857 L-4.9174223,19.575367 L-5.0069823,19.560928 L-5.0959625,19.543499 L-5.184271,19.523054 L-5.271817,19.499598 L-5.358516,19.473148 L-5.4442906,19.443752 L-5.529071,19.411476 L-5.6127963,19.376404 L-5.695418,19.33864 L-5.7768974,19.298302 L-5.8572083,19.255527 L-5.9363356,19.210466 L-6.014275,19.163275 L-6.091034,19.114126 L-6.166629,19.0632 L-6.241085,19.010683 L-6.314437,18.956766 L-6.3867264,18.901651 L-6.458,18.84554 L-6.528312,18.788635 L-6.597721,18.73115 L-6.666289,18.67329 L-6.7340813,18.615267 L-6.8011675,18.55729 L-6.867617,18.499563 L-6.9335036,18.44229 L-6.9989004,18.385668 L-7.063882,18.329891 L-7.128524,18.27514 L-7.192901,18.221594 L-7.2570906,18.169415 L-7.321169,18.118757 L-7.385214,18.069757 L-7.4493046,18.022545 L-7.513522,17.977226 L-7.5779505,17.933897 L-7.6426764,17.892632 L-7.707792,17.85349 L-7.7733927,17.816523 L-7.8395786,17.781752 L-7.9064546,17.749199 L-7.9741287,17.718868 L-8.04271,17.690754 L-8.1123085,17.664839 L-8.183031,17.641104 L-8.254979,17.619522 L-8.328244,17.600054 L-8.402911,17.582663 L-8.479048,17.567297 L-8.55671,17.5539 L-8.63594,17.542408 L-8.71676,17.532743 L-8.799178,17.52482 L-8.883189,17.518541 L-8.968772,17.513794 L-9.055891,17.510458 L-9.144502,17.5084 L-9.234544,17.507473 L-9.325952,17.507524 L-9.418648,17.508387 L-9.5125475,17.50989 L-9.607559,17.511852 L-9.703586,17.514086 L-9.800524,17.5164 L-9.898266,17.518597 L-9.996701,17.520481 L-10.095715,17.52185 L-10.195189,17.522509 L-10.295006,17.522251 L-10.395043,17.520884 L-10.495178,17.518211 L-10.595289,17.514044 L-10.6952505,17.508192 L-10.794939,17.500479 L-10.894229,17.49073 L-10.992995,17.478783 L-11.091113,17.46448 L-11.188457,17.447674 L-11.284901,17.428234 L-11.380319,17.406038 L-11.474586,17.38098 L-11.567577,17.35297 L-11.65917,17.321932 L-11.749244,17.287815 L-11.837679,17.250586 L-11.924365,17.210228 L-12.009196,17.166754 L-12.092077,17.12019 L-12.172923,17.070593 L-12.251662,17.018034 L-12.3282385,16.962605 L-12.402612,16.904415 L-12.474759,16.84359 L-12.544676,16.78027 L-12.612375,16.714602 L-12.677887,16.646744 L-12.741258,16.576866 L-12.802549,16.505136 L-12.861838,16.43173 L-12.919211,16.356827 L-12.974771,16.280607 L-13.028623,16.203253 L-13.080885,16.124943 L-13.131681,16.04586 L-13.181141,15.9661875 L-13.229399,15.886101 L-13.27659,15.805779 L-13.322856,15.725396 L-13.368336,15.645124 L-13.413171,15.565128 L-13.457502,15.48557 L-13.50147,15.406606 L-13.54521,15.3283825 L-13.588859,15.25104 L-13.632545,15.174711 L-13.6764,15.099514 L-13.720545,15.025558 L-13.765099,14.952942 L-13.810176,14.881746 L-13.8558855,14.812042 L-13.902332,14.743884 L-13.949616,14.677311 L-13.997833,14.612348 L-14.047074,14.549003 L-14.097425,14.487273 L-14.148972,14.427139 L-14.201788,14.36857 L-14.25595,14.311524 L-14.311524,14.25595 L-14.36857,14.201788 L-14.427139,14.148972 L-14.487273,14.097425 L-14.549003,14.047074 L-14.612348,13.997833 L-14.677311,13.949616 L-14.743884,13.902332 L-14.812042,13.8558855 L-14.881746,13.810176 L-14.952942,13.765099 L-15.025558,13.720545 L-15.099514,13.6764 L-15.174711,13.632545 L-15.25104,13.588859 L-15.3283825,13.54521 L-15.406606,13.50147 L-15.48557,13.457502 L-15.565128,13.413171 L-15.645124,13.368336 L-15.725396,13.322856 L-15.805779,13.27659 L-15.886101,13.229399 L-15.9661875,13.181141 L-16.04586,13.131681 L-16.124943,13.080885 L-16.203253,13.028623 L-16.280607,12.974771 L-16.356827,12.919211 L-16.43173,12.861838 L-16.505136,12.802549 L-16.576866,12.741258 L-16.646744,12.677887 L-16.714602,12.612375 L-16.78027,12.544676 L-16.84359,12.474759 L-16.904415,12.402612 L-16.962605,12.3282385 L-17.018034,12.251662 L-17.070593,12.172923 L-17.12019,12.092077 L-17.166754,12.009196 L-17.210228,11.924365 L-17.250586,11.837679 L-17.287815,11.749244 L-17.321932,11.65917 L-17.35297,11.567577 L-17.38098,11.474586 L-17.406038,11.380319 L-17.428234,11.284901 L-17.447674,11.188457 L-17.46448,11.091113 L-17.478783,10.992995 L-17.49073,10.894229 L-17.500479,10.794939 L-17.508192,10.6952505 L-17.514044,10.595289 L-17.518211,10.495178 L-17.520884,10.395043 L-17.522251,10.295006 L-17.522509,10.195189 L-17.52185,10.095715 L-17.520481,9.996701 L-17.518597,9.898266 L-17.5164,9.800524 L-17.514086,9.703586 L-17.511852,9.607559 L-17.50989,9.5125475 L-17.508387,9.418648 L-17.507524,9.325952 L-17.507473,9.234544 L-17.5084,9.144502 L-17.510458,9.055891 L-17.513794,8.968772 L-17.518541,8.883189 L-17.52482,8.799178 L-17.532743,8.71676 L-17.542408,8.63594 L-17.5539,8.55671 L-17.567297,8.479048 L-17.582663,8.402911 L-17.600054,8.328244 L-17.619522,8.254979 L-17.641104,8.183031 L-17.664839,8.1123085 L-17.690754,8.04271 L-17.718868,7.9741287 L-17.749199,7.9064546 L-17.781752,7.8395786 L-17.816523,7.7733927 L-17.85349,7.707792 L-17.892632,7.6426764 L-17.933897,7.5779505 L-17.977226,7.513522 L-18.022545,7.4493046 L-18.069757,7.385214 L-18.118757,7.321169 L-18.169415,7.2570906 L-18.221594,7.192901 L-18.27514,7.128524 L-18.329891,7.063882 L-18.385668,6.9989004 L-18.44229,6.9335036 L-18.499563,6.867617 L-18.55729,6.8011675 L-18.615267,6.7340813 L-18.67329,6.666289 L-18.73115,6.597721 L-18.788635,6.528312 L-18.84554,6.458 L-18.901651,6.3867264 L-18.956766,6.314437 L-19.010683,6.241085 L-19.0632,6.166629 L-19.114126,6.091034 L-19.163275,6.014275 L-19.210466,5.9363356 L-19.255527,5.8572083 L-19.298302,5.7768974 L-19.33864,5.695418 L-19.376404,5.6127963 L-19.411476,5.529071 L-19.443752,5.4442906 L-19.473148,5.358516 L-19.499598,5.271817 L-19.523054,5.184271 L-19.543499,5.0959625 L-19.560928,5.0069823 L-19.575367,4.9174223 L-19.586857,4.827378 L-19.59546,4.7369432 L-19.601269,4.646211 L-19.604382,4.555273 L-19.60492,4.4642158 L-19.60302,4.3731227 L-19.598837,4.2820735 L-19.59253,4.191143 L-19.584276,4.100403 L-19.574259,4.00992 L-19.562674,3.919758 L-19.549715,3.829977 L-19.535591,3.7406332 L-19.520512,3.6517806 L-19.504688,3.5634696 L-19.488335,3.4757483 L-19.471668,3.3886611 L-19.4549,3.3022504 L-19.438244,3.2165544 L-19.421906,3.1316085 L-19.406092,3.0474439 L-19.390997,2.9640875 L-19.376814,2.8815618 L-19.36372,2.7998824 L-19.351889,2.71906 L-19.341476,2.6390963 L-19.332634,2.5599856 L-19.325497,2.4817126 L-19.320185,2.4042509 L-19.31681,2.3275635 L-19.315474,2.251602 L-19.316257,2.1763053 L-19.319239,2.1016018 L-19.324486,2.0274093 L-19.332054,1.9536362 L-19.341997,1.8801851 L-19.354353,1.8069539 L-19.36916,1.7338394 L-19.386442,1.6607394 L-19.406216,1.5875561 L-19.428488,1.514197 L-19.453249,1.4405776 L-19.480478,1.3666214 L-19.510141,1.2922608 L-19.542181,1.2174368 L-19.576529,1.1420988 L-19.613096,1.0662031 L-19.651775,0.98971295 L-19.692448,0.91259706 L-19.734968,0.83482903 L-19.779188,0.75638646 L-19.824936,0.6772505 L-19.872032,0.59740514 L-19.920282,0.51683706 L-19.969488,0.4355352 L-20.019436,0.3534907 L-20.069908,0.27069676 L-20.120682,0.18714859 L-20.171532,0.10284337 L-20.222225,0.017780425 L-20.272532,-0.068038814 L-20.322218,-0.15461066 L-20.371052,-0.24192905 L-20.418806,-0.32998535 L-20.46525,-0.4187681 L-20.510164,-0.50826293 L-20.55333,-0.59845185 L-20.594532,-0.68931335 L-20.633568,-0.78082156 L-20.670238,-0.87294585 L-20.704357,-0.9656503 L-20.735744,-1.0588931 L-20.76423,-1.1526257 L-20.789663,-1.2467927 L-20.811901,-1.3413315 L-20.830818,-1.4361717 L-20.84631,-1.5312353 L-20.858284,-1.626438 L-20.866676,-1.7216889 L-20.871443,-1.8168926 L-20.872559,-1.9119508 L-20.87003,-2.006764 L-20.86388,-2.101234 L-20.854166,-2.1952655 L-20.84096,-2.2887695 L-20.824356,-2.3816633 L-20.804478,-2.4738736 L-20.781456,-2.565337 L-20.755447,-2.6559997 L-20.726616,-2.7458198 L-20.69514,-2.834765 L-20.661215,-2.9228132 L-20.625034,-3.0099518 L-20.586805,-3.0961769 L-20.54674,-3.1814916 L-20.505053,-3.2659068 L-20.461964,-3.349439 L-20.417694,-3.4321096 L-20.372465,-3.5139446 L-20.326502,-3.5949748 L-20.28002,-3.6752331 L-20.233242,-3.754756 L-20.186382,-3.8335826 L-20.139648,-3.911754 L-20.093246,-3.989313 L-20.047373,-4.0663047 L-20.002218,-4.142776 L-19.957958,-4.2187753 L-19.914762,-4.294353 L-19.872787,-4.369561 L-19.832176,-4.444454 L-19.793058,-4.51909 L-19.755548,-4.593528 L-19.719744,-4.6678314 L-19.685732,-4.742067 L-19.653582,-4.8163056 L-19.623343,-4.8906217 L-19.595058,-4.965092 L-19.568754,-5.039799 L-19.544441,-5.1148243 L-19.52212,-5.1902533 L-19.501778,-5.2661686 L-19.483395,-5.3426523 L-19.466938,-5.419783 L-19.452366,-5.4976335 L-19.439625,-5.576269 L-19.428654,-5.6557474 L-19.419378,-5.736116 L-19.411715,-5.817412 L-19.405571,-5.8996625 L-19.400837,-5.9828825 L-19.397396,-6.067078 L-19.39512,-6.152243 L-19.393867,-6.238363 L-19.393486,-6.3254123 L-19.393816,-6.4133596 L-19.394688,-6.5021634 L-19.395918,-6.591777 L-19.397324,-6.682146 L-19.39871,-6.773211 L-19.39988,-6.8649073 L-19.400629,-6.9571652 L-19.400753,-7.049911 L-19.400045,-7.143068 L-19.398296,-7.236553 L-19.3953,-7.3302827 L-19.39085,-7.424168 L-19.384745,-7.518117 L-19.376785,-7.612035 L-19.36678,-7.7058225 L-19.354544,-7.799377 L-19.339901,-7.8925924 L-19.322685,-7.9853578 L-19.302744,-8.07756 L-19.279938,-8.169082 L-19.254143,-8.259801 L-19.225254,-8.349597 L-19.193184,-8.438347 L-19.15787,-8.525928 L-19.119268,-8.612219 L-19.077358,-8.697106 L-19.03214,-8.780481 L-18.983646,-8.862246 L-18.931917,-8.942312 L-18.877024,-9.020606 L-18.819052,-9.097066 L-18.758104,-9.171648 L-18.694302,-9.244324 L-18.627773,-9.315078 L-18.558664,-9.383912 L-18.487127,-9.450844 L-18.413324,-9.515902 L-18.337425,-9.579126 L-18.259605,-9.640573 L-18.180044,-9.700303 L-18.09893,-9.758389 L-18.016455,-9.814914 L-17.932812,-9.869962 L-17.848198,-9.923627 L-17.762814,-9.976009 L-17.676863,-10.027212 L-17.590548,-10.077343 L-17.50407,-10.126512 L-17.417637,-10.174831 L-17.331448,-10.222417 L-17.245703,-10.269384 L-17.160595,-10.315849 L-17.076317,-10.361929 L-16.993053,-10.407736 L-16.910982,-10.453384 L-16.830273,-10.498984 L-16.751087,-10.544644 L-16.67357,-10.590467 L-16.59786,-10.636556 L-16.52408,-10.683004 L-16.452337,-10.729907 L-16.382723,-10.777351 L-16.315308,-10.825422 L-16.250147,-10.874201 L-16.187279,-10.923768 L-16.126719,-10.974201 L-16.068466,-11.025577 L-16.012499,-11.077972 L-15.958782,-11.131464 L-15.907266,-11.18613 L-15.857885,-11.242044 L-15.810568,-11.299287 L-15.765232,-11.357926 L-15.72179,-11.418031 L-15.68015,-11.47966 L-15.640217,-11.542864 L-15.60189,-11.607681 L-15.565067,-11.674135 L-15.529646,-11.742235 L-15.495514,-11.811975 L-15.46256,-11.883329 L-15.430662,-11.956263 L-15.399696,-12.030719 L-15.369533,-12.106629 L-15.340032,-12.183912 L-15.311052,-12.262474 L-15.282447,-12.34221 L-15.25406,-12.423005 L-15.225735,-12.50474 L-15.197312,-12.587283 L-15.168629,-12.670501 L-15.13952,-12.754254 L-15.10982,-12.838399 L-15.079369,-12.922791 L-15.048002,-13.007279 L-15.015561,-13.091715 L-14.981893,-13.175946 L-14.946846,-13.259823 L-14.910279,-13.343191 L-14.872057,-13.425901 L-14.832053,-13.507802 L-14.790153,-13.588745 L-14.74625,-13.668584 L-14.700255,-13.747172 L-14.652091,-13.824371 L-14.601696,-13.900044 L-14.5490265,-13.97406 L-14.494054,-14.046296 L-14.43677,-14.116638 L-14.377185,-14.184982 L-14.315326,-14.251238 L-14.251238,-14.315326 L-14.184982,-14.377185 L-14.116638,-14.43677 L-14.046296,-14.494054 L-13.97406,-14.5490265 L-13.900044,-14.601696 L-13.824371,-14.652091 L-13.747172,-14.700255 L-13.668584,-14.74625 L-13.588745,-14.790153 L-13.507802,-14.832053 L-13.425901,-14.872057 L-13.343191,-14.910279 L-13.259823,-14.946846 L-13.175946,-14.981893 L-13.091715,-15.015561 L-13.007279,-15.048002 L-12.922791,-15.079369 L-12.838399,-15.10982 L-12.754254,-15.13952 L-12.670501,-15.168629 L-12.587283,-15.197312 L-12.50474,-15.225735 L-12.423005,-15.25406 L-12.34221,-15.282447 L-12.262474,-15.311052 L-12.183912,-15.340032 L-12.106629,-15.369533 L-12.030719,-15.399696 L-11.956263,-15.430662 L-11.883329,-15.46256 L-11.811975,-15.495514 L-11.742235,-15.529646 L-11.674135,-15.565067 L-11.607681,-15.60189 L-11.542864,-15.640217 L-11.47966,-15.68015 L-11.418031,-15.72179 L-11.357926,-15.765232 L-11.299287,-15.810568 L-11.242044,-15.857885 L-11.18613,-15.907266 L-11.131464,-15.958782 L-11.077972,-16.012499 L-11.025577,-16.068466 L-10.974201,-16.126719 L-10.923768,-16.187279 L-10.874201,-16.250147 L-10.825422,-16.315308 L-10.777351,-16.382723 L-10.729907,-16.452337 L-10.683004,-16.52408 L-10.636556,-16.59786 L-10.590467,-16.67357 L-10.544644,-16.751087 L-10.498984,-16.830273 L-10.453384,-16.910982 L-10.407736,-16.993053 L-10.361929,-17.076317 L-10.315849,-17.160595 L-10.269384,-17.245703 L-10.222417,-17.331448 L-10.174831,-17.417637 L-10.126512,-17.50407 L-10.077343,-17.590548 L-10.027212,-17.676863 L-9.976009,-17.762814 L-9.923627,-17.848198 L-9.869962,-17.932812 L-9.814914,-18.016455 L-9.758389,-18.09893 L-9.700303,-18.180044 L-9.640573,-18.259605 L-9.579126,-18.337425 L-9.515902,-18.413324 L-9.450844,-18.487127 L-9.383912,-18.558664 L-9.315078,-18.627773 L-9.244324,-18.694302 L-9.171648,-18.758104 L-9.097066,-18.819052 L-9.020606,-18.877024 L-8.942312,-18.931917 L-8.862246,-18.983646 L-8.780481,-19.03214 L-8.697106,-19.077358 L-8.612219,-19.119268 L-8.525928,-19.15787 L-8.438347,-19.193184 L-8.349597,-19.225254 L-8.259801,-19.254143 L-8.169082,-19.279938 L-8.07756,-19.302744 L-7.9853578,-19.322685 L-7.8925924,-19.339901 L-7.799377,-19.354544 L-7.7058225,-19.36678 L-7.612035,-19.376785 L-7.518117,-19.384745 L-7.424168,-19.39085 L-7.3302827,-19.3953 L-7.236553,-19.398296 L-7.143068,-19.400045 L-7.049911,-19.400753 L-6.9571652,-19.400629 L-6.8649073,-19.39988 L-6.773211,-19.39871 L-6.682146,-19.397324 L-6.591777,-19.395918 L-6.5021634,-19.394688 L-6.4133596,-19.393816 L-6.3254123,-19.393486 L-6.238363,-19.393867 L-6.152243,-19.39512 L-6.067078,-19.397396 L-5.9828825,-19.400837 L-5.8996625,-19.405571 L-5.817412,-19.411715 L-5.736116,-19.419378 L-5.6557474,-19.428654 L-5.576269,-19.439625 L-5.4976335,-19.452366 L-5.419783,-19.466938 L-5.3426523,-19.483395 L-5.2661686,-19.501778 L-5.1902533,-19.52212 L-5.1148243,-19.544441 L-5.039799,-19.568754 L-4.965092,-19.595058 L-4.8906217,-19.623343 L-4.8163056,-19.653582 L-4.742067,-19.685732 L-4.6678314,-19.719744 L-4.593528,-19.755548 L-4.51909,-19.793058 L-4.444454,-19.832176 L-4.369561,-19.872787 L-4.294353,-19.914762 L-4.2187753,-19.957958 L-4.142776,-20.002218 L-4.0663047,-20.047373 L-3.989313,-20.093246 L-3.911754,-20.139648 L-3.8335826,-20.186382 L-3.754756,-20.233242 L-3.6752331,-20.28002 L-3.5949748,-20.326502 L-3.5139446,-20.372465 L-3.4321096,-20.417694 L-3.349439,-20.461964 L-3.2659068,-20.505053 L-3.1814916,-20.54674 L-3.0961769,-20.586805 L-3.0099518,-20.625034 L-2.9228132,-20.661215 L-2.834765,-20.69514 L-2.7458198,-20.726616 L-2.6559997,-20.755447 L-2.565337,-20.781456 L-2.4738736,-20.804478 L-2.3816633,-20.824356 L-2.2887695,-20.84096 L-2.1952655,-20.854166 L-2.101234,-20.86388 L-2.006764,-20.87003 L-1.9119508,-20.872559 L-1.8168926,-20.871443 L-1.7216889,-20.866676 L-1.626438,-20.858284 L-1.5312353,-20.84631 L-1.4361717,-20.830818 L-1.3413315,-20.811901 L-1.2467927,-20.789663 L-1.1526257,-20.76423 L-1.0588931,-20.735744 L-0.9656503,-20.704357 L-0.87294585,-20.670238 L-0.78082156,-20.633568 L-0.68931335,-20.594532 L-0.59845185,-20.55333 L-0.50826293,-20.510164 L-0.4187681,-20.46525 L-0.32998535,-20.418806 L-0.24192905,-20.371052 L-0.15461066,-20.322218 L-0.068038814,-20.272532 L0.017780425,-20.222225 L0.10284337,-20.171532 L0.18714859,-20.120682 L0.27069676,-20.069908 L0.3534907,-20.019436 L0.4355352,-19.969488 L0.51683706,-19.920282 L0.59740514,-19.872032 L0.6772505,-19.824936 L0.75638646,-19.779188 L0.83482903,-19.734968 L0.91259706,-19.692448 L0.98971295,-19.651775 L1.0662031,-19.613096 L1.1420988,-19.576529 L1.2174368,-19.542181 L1.2922608,-19.510141 L1.3666214,-19.480478 L1.4405776,-19.453249 L1.514197,-19.428488 L1.5875561,-19.406216 L1.6607394,-19.386442 L1.7338394,-19.36916 L1.8069539,-19.354353 L1.8801851,-19.341997 L1.9536362,-19.332054 L2.0274093,-19.324486 L2.1016018,-19.319239 L2.1763053,-19.316257 L2.251602,-19.315474 L2.3275635,-19.31681 L2.4042509,-19.320185 L2.4817126,-19.325497 L2.5599856,-19.332634 L2.6390963,-19.341476 L2.71906,-19.351889 L2.7998824,-19.36372 L2.8815618,-19.376814 L2.9640875,-19.390997 L3.0474439,-19.406092 L3.1316085,-19.421906 L3.2165544,-19.438244 L3.3022504,-19.4549 L3.3886611,-19.471668 L3.4757483,-19.488335 L3.5634696,-19.504688 L3.6517806,-19.520512 L3.7406332,-19.535591 L3.829977,-19.549715 L3.919758,-19.562674 L4.00992,-19.574259 L4.100403,-19.584276 L4.191143,-19.59253 L4.2820735,-19.598837 L4.3731227,-19.60302 L4.4642158,-19.60492 L4.555273,-19.604382 L4.646211,-19.601269 L4.7369432,-19.59546 L4.827378,-19.586857 L4.9174223,-19.575367 L5.0069823,-19.560928 L5.0959625,-19.543499 L5.184271,-19.523054 L5.271817,-19.499598 L5.358516,-19.473148 L5.4442906,-19.443752 L5.529071,-19.411476 L5.6127963,-19.376404 L5.695418,-19.33864 L5.7768974,-19.298302 L5.8572083,-19.255527 L5.9363356,-19.210466 L6.014275,-19.163275 L6.091034,-19.114126 L6.166629,-19.0632 L6.241085,-19.010683 L6.314437,-18.956766 L6.3867264,-18.901651 L6.458,-18.84554 L6.528312,-18.788635 L6.597721,-18.73115 L6.666289,-18.67329 L6.7340813,-18.615267 L6.8011675,-18.55729 L6.867617,-18.499563 L6.9335036,-18.44229 L6.9989004,-18.385668 L7.063882,-18.329891 L7.128524,-18.27514 L7.192901,-18.221594 L7.2570906,-18.169415 L7.321169,-18.118757 L7.385214,-18.069757 L7.4493046,-18.022545 L7.513522,-17.977226 L7.5779505,-17.933897 L7.6426764,-17.892632 L7.707792,-17.85349 L7.7733927,-17.816523 L7.8395786,-17.781752 L7.9064546,-17.749199 L7.9741287,-17.718868 L8.04271,-17.690754 L8.1123085,-17.664839 L8.183031,-17.641104 L8.254979,-17.619522 L8.328244,-17.600054 L8.402911,-17.582663 L8.479048,-17.567297 L8.55671,-17.5539 L8.63594,-17.542408 L8.71676,-17.532743 L8.799178,-17.52482 L8.883189,-17.518541 L8.968772,-17.513794 L9.055891,-17.510458 L9.144502,-17.5084 L9.234544,-17.507473 L9.325952,-17.507524 L9.418648,-17.508387 L9.5125475,-17.50989 L9.607559,-17.511852 L9.703586,-17.514086 L9.800524,-17.5164 L9.898266,-17.518597 L9.996701,-17.520481 L10.095715,-17.52185 L10.195189,-17.522509 L10.295006,-17.522251 L10.395043,-17.520884 L10.495178,-17.518211 L10.595289,-17.514044 L10.6952505,-17.508192 L10.794939,-17.500479 L10.894229,-17.49073 L10.992995,-17.478783 L11.091113,-17.46448 L11.188457,-17.447674 L11.284901,-17.428234 L11.380319,-17.406038 L11.474586,-17.38098 L11.567577,-17.35297 L11.65917,-17.321932 L11.749244,-17.287815 L11.837679,-17.250586 L11.924365,-17.210228 L12.009196,-17.166754 L12.092077,-17.12019 L12.172923,-17.070593 L12.251662,-17.018034 L12.3282385,-16.962605 L12.402612,-16.904415 L12.474759,-16.84359 L12.544676,-16.78027 L12.612375,-16.714602 L12.677887,-16.646744 L12.741258,-16.576866 L12.802549,-16.505136 L12.861838,-16.43173 L12.919211,-16.356827 L12.974771,-16.280607 L13.028623,-16.203253 L13.080885,-16.124943 L13.131681,-16.04586 L13.181141,-15.9661875 L13.229399,-15.886101 L13.27659,-15.805779 L13.322856,-15.725396 L13.368336,-15.645124 L13.413171,-15.565128 L13.457502,-15.48557 L13.50147,-15.406606 L13.54521,-15.3283825 L13.588859,-15.25104 L13.632545,-15.174711 L13.6764,-15.099514 L13.720545,-15.025558 L13.765099,-14.952942 L13.810176,-14.881746 L13.8558855,-14.812042 L13.902332,-14.743884 L13.949616,-14.677311 L13.997833,-14.612348 L14.047074,-14.549003 L14.097425,-14.487273 L14.148972,-14.427139 L14.201788,-14.36857 L14.25595,-14.311524 L14.311524,-14.25595 L14.36857,-14.201788 L14.427139,-14.148972 L14.487273,-14.097425 L14.549003,-14.047074 L14.612348,-13.997833 L14.677311,-13.949616 L14.743884,-13.902332 L14.812042,-13.8558855 L14.881746,-13.810176 L14.952942,-13.765099 L15.025558,-13.720545 L15.099514,-13.6764 L15.174711,-13.632545 L15.25104,-13.588859 L15.3283825,-13.54521 L15.406606,-13.50147 L15.48557,-13.457502 L15.565128,-13.413171 L15.645124,-13.368336 L15.725396,-13.322856 L15.805779,-13.27659 L15.886101,-13.229399 L15.9661875,-13.181141 L16.04586,-13.131681 L16.124943,-13.080885 L16.203253,-13.028623 L16.280607,-12.974771 L16.356827,-12.919211 L16.43173,-12.861838 L16.505136,-12.802549 L16.576866,-12.741258 L16.646744,-12.677887 L16.714602,-12.612375 L16.78027,-12.544676 L16.84359,-12.474759 L16.904415,-12.402612 L16.962605,-12.3282385 L17.018034,-12.251662 L17.070593,-12.172923 L17.12019,-12.092077 L17.166754,-12.009196 L17.210228,-11.924365 L17.250586,-11.837679 L17.287815,-11.749244 L17.321932,-11.65917 L17.35297,-11.567577 L17.38098,-11.474586 L17.406038,-11.380319 L17.428234,-11.284901 L17.447674,-11.188457 L17.46448,-11.091113 L17.478783,-10.992995 L17.49073,-10.894229 L17.500479,-10.794939 L17.508192,-10.6952505 L17.514044,-10.595289 L17.518211,-10.495178 L17.520884,-10.395043 L17.522251,-10.295006 L17.522509,-10.195189 L17.52185,-10.095715 L17.520481,-9.996701 L17.518597,-9.898266 L17.5164,-9.800524 L17.514086,-9.703586 L17.511852,-9.607559 L17.50989,-9.5125475 L17.508387,-9.418648 L17.507524,-9.325952 L17.507473,-9.234544 L17.5084,-9.144502 L17.510458,-9.055891 L17.513794,-8.968772 L17.518541,-8.883189 L17.52482,-8.799178 L17.532743,-8.71676 L17.542408,-8.63594 L17.5539,-8.55671 L17.567297,-8.479048 L17.582663,-8.402911 L17.600054,-8.328244 L17.619522,-8.254979 L17.641104,-8.183031 L17.664839,-8.1123085 L17.690754,-8.04271 L17.718868,-7.9741287 L17.749199,-7.9064546 L17.781752,-7.8395786 L17.816523,-7.7733927 L17.85349,-7.707792 L17.892632,-7.6426764 L17.933897,-7.5779505 L17.977226,-7.513522 L18.022545,-7.4493046 L18.069757,-7.385214 L18.118757,-7.321169 L18.169415,-7.2570906 L18.221594,-7.192901 L18.27514,-7.128524 L18.329891,-7.063882 L18.385668,-6.9989004 L18.44229,-6.9335036 L18.499563,-6.867617 L18.55729,-6.8011675 L18.615267,-6.7340813 L18.67329,-6.666289 L18.73115,-6.597721 L18.788635,-6.528312 L18.84554,-6.458 L18.901651,-6.3867264 L18.956766,-6.314437 L19.010683,-6.241085 L19.0632,-6.166629 L19.114126,-6.091034 L19.163275,-6.014275 L19.210466,-5.9363356 L19.255527,-5.8572083 L19.298302,-5.7768974 L19.33864,-5.695418 L19.376404,-5.6127963 L19.411476,-5.529071 L19.443752,-5.4442906 L19.473148,-5.358516 L19.499598,-5.271817 L19.523054,-5.184271 L19.543499,-5.0959625 L19.560928,-5.0069823 L19.575367,-4.9174223 L19.586857,-4.827378 L19.59546,-4.7369432 L19.601269,-4.646211 L19.604382,-4.555273 L19.60492,-4.4642158 L19.60302,-4.3731227 L19.598837,-4.2820735 L19.59253,-4.191143 L19.584276,-4.100403 L19.574259,-4.00992 L19.562674,-3.919758 L19.549715,-3.829977 L19.535591,-3.7406332 L19.520512,-3.6517806 L19.504688,-3.5634696 L19.488335,-3.4757483 L19.471668,-3.3886611 L19.4549,-3.3022504 L19.438244,-3.2165544 L19.421906,-3.1316085 L19.406092,-3.0474439 L19.390997,-2.9640875 L19.376814,-2.8815618 L19.36372,-2.7998824 L19.351889,-2.71906 L19.341476,-2.6390963 L19.332634,-2.5599856 L19.325497,-2.4817126 L19.320185,-2.4042509 L19.31681,-2.3275635 L19.315474,-2.251602 L19.316257,-2.1763053 L19.319239,-2.1016018 L19.324486,-2.0274093 L19.332054,-1.9536362 L19.341997,-1.8801851 L19.354353,-1.8069539 L19.36916,-1.7338394 L19.386442,-1.6607394 L19.406216,-1.5875561 L19.428488,-1.514197 L19.453249,-1.4405776 L19.480478,-1.3666214 L19.510141,-1.2922608 L19.542181,-1.2174368 L19.576529,-1.1420988 L19.613096,-1.0662031 L19.651775,-0.98971295 L19.692448,-0.91259706 L19.734968,-0.83482903 L19.779188,-0.75638646 L19.824936,-0.6772505 L19.872032,-0.59740514 L19.920282,-0.51683706 L19.969488,-0.4355352 L20.019436,-0.3534907 L20.069908,-0.27069676 L20.120682,-0.18714859 L20.171259,-0.103297256" fill="none" stroke="black" stroke-width="0.05"/>
<path d="M19.828196,0.10238876 L19.87788,0.18575233 L19.926527,0.2687399 L19.974197,0.35179567 L20.020681,0.43490425 L20.065771,0.51804566 L20.109272,0.60119563 L20.150997,0.6843264 L20.190763,0.76740706 L20.228403,0.85040456 L20.263763,0.93328446 L20.2967,1.0160122 L20.327082,1.0985535 L20.354797,1.1808769 L20.379747,1.2629529 L20.401846,1.3447573 L20.421024,1.4262707 L20.437225,1.5074797 L20.450413,1.588378 L20.460552,1.6689656 L20.467628,1.7492497 L20.471634,1.8292434 L20.47257,1.9089649 L20.47045,1.9884361 L20.46529,2.0676813 L20.457123,2.1467257 L20.44598,2.2255936 L20.431908,2.3043067 L20.414963,2.3828852 L20.39521,2.4613445 L20.372728,2.539697 L20.347605,2.6179514 L20.31994,2.6961136 L20.289852,2.7741876 L20.257465,2.8521752 L20.222921,2.9300792 L20.186369,3.0079024 L20.14797,3.085649 L20.107899,3.1633258 L20.066332,3.2409432 L20.023457,3.3185143 L19.97947,3.3960571 L19.934563,3.4735932 L19.88894,3.5511491 L19.842804,3.6287553 L19.796356,3.7064466 L19.749802,3.784262 L19.70334,3.862243 L19.65717,3.9404352 L19.611485,4.0188856 L19.566475,4.097643 L19.522322,4.1767564 L19.479206,4.2562737 L19.437296,4.336243 L19.396751,4.416707 L19.357725,4.497707 L19.320356,4.579276 L19.284775,4.6614437 L19.251093,4.744231 L19.219414,4.8276515 L19.189817,4.9117107 L19.16237,4.996406 L19.137123,5.081727 L19.114098,5.1676564 L19.093304,5.254171 L19.074724,5.3412423 L19.058327,5.428838 L19.044052,5.516922 L19.031826,5.6054587 L19.021559,5.6944094 L19.013136,5.783735 L19.006433,5.8733954 L19.001314,5.9633517 L18.997625,6.053562 L18.995205,6.1439843 L18.993885,6.2345743 L18.993486,6.325285 L18.993826,6.4160676 L18.994715,6.50687 L18.995962,6.5976343 L18.997372,6.6883016 L18.99875,6.7788076 L18.999903,6.869085 L19.000633,6.959061 L19.000755,7.0486627 L19.00008,7.137811 L18.998425,7.226427 L18.995615,7.314429 L18.99148,7.4017353 L18.985859,7.4882646 L18.978603,7.5739374 L18.969568,7.6586766 L18.95862,7.742409 L18.94564,7.825067 L18.930517,7.9065895 L18.913149,7.986922 L18.893442,8.066018 L18.871319,8.143843 L18.846704,8.220366 L18.819534,8.295569 L18.78975,8.369442 L18.757301,8.44198 L18.722147,8.513188 L18.684248,8.583073 L18.643576,8.651646 L18.600111,8.718919 L18.55384,8.784909 L18.504765,8.84963 L18.452896,8.913097 L18.39826,8.975325 L18.340895,9.036328 L18.280855,9.096124 L18.21821,9.15473 L18.153046,9.212166 L18.085463,9.268457 L18.015577,9.323634 L17.943514,9.37773 L17.869417,9.430787 L17.793438,9.482854 L17.715738,9.533986 L17.63649,9.584245 L17.55587,9.633702 L17.47406,9.682435 L17.391249,9.730528 L17.307625,9.778073 L17.22338,9.825169 L17.138702,9.871919 L17.053783,9.918432 L16.96881,9.964825 L16.883966,10.011213 L16.79943,10.05772 L16.71538,10.104471 L16.631983,10.151593 L16.549398,10.199214 L16.467787,10.247461 L16.387299,10.296463 L16.308073,10.346344 L16.230247,10.397226 L16.153954,10.449228 L16.07931,10.502459 L16.006433,10.55702 L15.935433,10.613005 L15.86641,10.670492 L15.799455,10.729548 L15.73465,10.790222 L15.672066,10.852549 L15.611762,10.91654 L15.5537815,10.982197 L15.498149,11.049498 L15.444873,11.118406 L15.39394,11.188871 L15.345318,11.260829 L15.298951,11.334207 L15.254766,11.408921 L15.21267,11.484883 L15.172552,11.562001 L15.134286,11.640178 L15.097733,11.719313 L15.062743,11.799305 L15.029159,11.880049 L14.996813,11.961439 L14.965537,12.043365 L14.935158,12.125714 L14.905501,12.208372 L14.876392,12.29122 L14.847658,12.374135 L14.819126,12.456994 L14.790629,12.539669 L14.762005,12.622032 L14.733092,12.703953 L14.703741,12.7853 L14.673803,12.865944 L14.643143,12.945755 L14.611627,13.024609 L14.579134,13.102382 L14.54555,13.178957 L14.510773,13.254224 L14.474703,13.328078 L14.437256,13.400427 L14.398353,13.471183 L14.357922,13.540272 L14.315901,13.607631 L14.272235,13.673207 L14.226872,13.736959 L14.17977,13.798858 L14.130891,13.858883 L14.080201,13.9170265 L14.027674,13.973288 L13.973288,14.027674 L13.9170265,14.080201 L13.858883,14.130891 L13.798858,14.17977 L13.736959,14.226872 L13.673207,14.272235 L13.607631,14.315901 L13.540272,14.357922 L13.471183,14.398353 L13.400427,14.437256 L13.328078,14.474703 L13.254224,14.510773 L13.178957,14.54555 L13.102382,14.579134 L13.024609,14.611627 L12.945755,14.643143 L12.865944,14.673803 L12.7853,14.703741 L12.703953,14.733092 L12.622032,14.762005 L12.539669,14.790629 L12.456994,14.819126 L12.374135,14.847658 L12.29122,14.876392 L12.208372,14.905501 L12.125714,14.935158 L12.043365,14.965537 L11.961439,14.996813 L11.880049,15.029159 L11.799305,15.062743 L11.719313,15.097733 L11.640178,15.134286 L11.562001,15.172552 L11.484883,15.21267 L11.408921,15.254766 L11.334207,15.298951 L11.260829,15.345318 L11.188871,15.39394 L11.118406,15.444873 L11.049498,15.498149 L10.982197,15.5537815 L10.91654,15.611762 L10.852549,15.672066 L10.790222,15.73465 L10.729548,15.799455 L10.670492,15.86641 L10.613005,15.935433 L10.55702,16.006433 L10.502459,16.07931 L10.449228,16.153954 L10.397226,16.230247 L10.346344,16.308073 L10.296463,16.387299 L10.247461,16.467787 L10.199214,16.549398 L10.151593,16.631983 L10.104471,16.71538 L10.05772,16.79943 L10.011213,16.883966 L9.964825,16.96881 L9.918432,17.053783 L9.871919,17.138702 L9.825169,17.22338 L9.778073,17.307625 L9.730528,17.391249 L9.682435,17.47406 L9.633702,17.55587 L9.584245,17.63649 L9.533986,17.715738 L9.482854,17.793438 L9.430787,17.869417 L9.37773,17.943514 L9.323634,18.015577 L9.268457,18.085463 L9.212166,18.153046 L9.15473,18.21821 L9.096124,18.280855 L9.036328,18.340895 L8.975325,18.39826 L8.913097,18.452896 L8.84963,18.504765 L8.784909,18.55384 L8.718919,18.600111 L8.651646,18.643576 L8.583073,18.684248 L8.513188,18.722147 L8.44198,18.757301 L8.369442,18.78975 L8.295569,18.819534 L8.220366,18.846704 L8.143843,18.871319 L8.066018,18.893442 L7.986922,18.913149 L7.9065895,18.930517 L7.825067,18.94564 L7.742409,18.95862 L7.6586766,18.969568 L7.5739374,18.978603 L7.4882646,18.985859 L7.4017353,18.99148 L7.314429,18.995615 L7.226427,18.998425 L7.137811,19.00008 L7.0486627,19.000755 L6.959061,19.000633 L6.869085,18.999903 L6.7788076,18.99875 L6.6883016,18.997372 L6.5976343,18.995962 L6.50687,18.994715 L6.4160676,18.993826 L6.325285,18.993486 L6.2345743,18.993885 L6.1439843,18.995205 L6.053562,18.997625 L5.9633517,19.001314 L5.8733954,19.006433 L5.783735,19.013136 L5.6944094,19.021559 L5.6054587,19.031826 L5.516922,19.044052 L5.428838,19.058327 L5.3412423,19.074724 L5.254171,19.093304 L5.1676564,19.114098 L5.081727,19.137123 L4.996406,19.16237 L4.9117107,19.189817 L4.8276515,19.219414 L4.744231,19.251093 L4.6614437,19.284775 L4.579276,19.320356 L4.497707,19.357725 L4.416707,19.396751 L4.336243,19.437296 L4.2562737,19.479206 L4.1767564,19.522322 L4.097643,19.566475 L4.0188856,19.611485 L3.9404352,19.65717 L3.862243,19.70334 L3.784262,19.749802 L3.7064466,19.796356 L3.6287553,19.842804 L3.5511491,19.88894 L3.4735932,19.934563 L3.3960571,19.97947 L3.3185143,20.023457 L3.2409432,20.066332 L3.1633258,20.107899 L3.085649,20.14797 L3.0079024,20.186369 L2.9300792,20.222921 L2.8521752,20.257465 L2.7741876,20.289852 L2.6961136,20.31994 L2.6179514,20.347605 L2.539697,20.372728 L2.4613445,20.39521 L2.3828852,20.414963 L2.3043067,20.431908 L2.2255936,20.44598 L2.1467257,20.457123 L2.0676813,20.46529 L1.9884361,20.47045 L1.9089649,20.47257 L1.8292434,20.471634 L1.7492497,20.467628 L1.6689656,20.460552 L1.588378,20.450413 L1.5074797,20.437225 L1.4262707,20.421024 L1.3447573,20.401846 L1.2629529,20.379747 L1.1808769,20.354797 L1.0985535,20.327082 L1.0160122,20.2967 L0.93328446,20.263763 L0.85040456,20.228403 L0.76740706,20.190763 L0.6843264,20.150997 L0.60119563,20.109272 L0.51804566,20.065771 L0.43490425,20.020681 L0.35179567,19.974197 L0.2687399,19.926527 L0.18575233,19.87788 L0.10284337,19.828468 L0.020018253,19.778511 L-0.0627231,19.728226 L-0.14538614,19.677832 L-0.22798164,19.62755 L-0.31052557,19.577595 L-0.39303875,19.52818 L-0.47554663,19.479515 L-0.55807865,19.431807 L-0.6406677,19.385254 L-0.72334915,19.340048 L-0.8061602,19.296377 L-0.88913846,19.254421 L-0.97232056,19.214348 L-1.0557411,19.17632 L-1.1394308,19.140488 L-1.2234149,19.106993 L-1.3077124,19.07596 L-1.3923341,19.047503 L-1.4772822,19.021717 L-1.5625495,18.998682 L-1.6481204,18.978453 L-1.7339711,18.96107 L-1.8200712,18.946539 L-1.9063857,18.934855 L-1.9928765,18.92598 L-2.0795054,18.91985 L-2.1662354,18.916384 L-2.2530322,18.915476 L-2.339866,18.917 L-2.426711,18.920816 L-2.5135467,18.926765 L-2.6003563,18.934677 L-2.6871262,18.94437 L-2.7738454,18.955658 L-2.8605037,18.96834 L-2.9470913,18.982218 L-3.0335977,18.997084 L-3.1200097,19.01273 L-3.2063122,19.028944 L-3.2924862,19.045517 L-3.37851,19.062237 L-3.4643574,19.078896 L-3.5499983,19.095287 L-3.6353996,19.111208 L-3.7205243,19.126463 L-3.8053324,19.140858 L-3.889782,19.154211 L-3.973829,19.166344 L-4.057429,19.177092 L-4.1405363,19.186295 L-4.2231083,19.19381 L-4.3051033,19.1995 L-4.386482,19.203243 L-4.4672103,19.204931 L-4.547259,19.20446 L-4.6266036,19.20175 L-4.7052274,19.196722 L-4.783119,19.189312 L-4.8602757,19.17947 L-4.936699,19.167152 L-5.012398,19.152325 L-5.0873847,19.134966 L-5.1616783,19.115059 L-5.235299,19.0926 L-5.3082695,19.06759 L-5.380613,19.040047 L-5.4523535,19.00999 L-5.5235143,18.97746 L-5.5941186,18.942505 L-5.664189,18.90518 L-5.7337475,18.865562 L-5.8028173,18.823738 L-5.8714213,18.779806 L-5.9395857,18.733881 L-6.0073376,18.686087 L-6.0747094,18.636562 L-6.141735,18.585455 L-6.2084556,18.532925 L-6.2749147,18.479136 L-6.341163,18.424265 L-6.407256,18.368492 L-6.4732547,18.312002 L-6.5392265,18.254988 L-6.6052427,18.197636 L-6.6713815,18.140144 L-6.737724,18.082705 L-6.8043566,18.02551 L-6.871369,17.968756 L-6.938853,17.912628 L-7.0069013,17.857317 L-7.0756083,17.803003 L-7.145066,17.74987 L-7.2153635,17.69809 L-7.286587,17.647833 L-7.3588147,17.599262 L-7.432117,17.552536 L-7.5065546,17.5078 L-7.5821767,17.465187 L-7.65902,17.424824 L-7.7371078,17.386816 L-7.816449,17.35126 L-7.897042,17.31822 L-7.9788713,17.287752 L-8.061913,17.259882 L-8.146133,17.234615 L-8.231495,17.211931 L-8.317955,17.191788 L-8.405468,17.174122 L-8.493988,17.158848 L-8.583468,17.145864 L-8.6738615,17.13505 L-8.76512,17.126274 L-8.857194,17.119387 L-8.950033,17.114233 L-9.043585,17.110647 L-9.137792,17.108456 L-9.232593,17.107477 L-9.327922,17.107529 L-9.423708,17.10842 L-9.519875,17.109957 L-9.616337,17.111948 L-9.713008,17.114197 L-9.8097925,17.116507 L-9.906591,17.118683 L-10.003299,17.120535 L-10.099806,17.121872 L-10.195999,17.122509 L-10.291763,17.122265 L-10.386978,17.120966 L-10.481526,17.118444 L-10.575287,17.114544 L-10.668142,17.109112 L-10.759975,17.10201 L-10.850674,17.09311 L-10.94013,17.082293 L-11.028242,17.06945 L-11.114917,17.054493 L-11.200068,17.037334 L-11.283623,17.017902 L-11.365517,16.996138 L-11.445699,16.97199 L-11.524129,16.945417 L-11.600781,16.916388 L-11.675642,16.884874 L-11.748709,16.85086 L-11.819988,16.814333 L-11.889497,16.775284 L-11.957261,16.733711 L-12.02331,16.689621 L-12.08768,16.643024 L-12.15041,16.59394 L-12.211542,16.542398 L-12.271121,16.488434 L-12.329192,16.432098 L-12.385806,16.373451 L-12.441014,16.312567 L-12.494873,16.249527 L-12.547442,16.184433 L-12.598789,16.117392 L-12.648984,16.048523 L-12.698104,15.977957 L-12.746236,15.90583 L-12.79347,15.832288 L-12.839905,15.757482 L-12.885647,15.681565 L-12.930806,15.604699 L-12.975501,15.5270405 L-13.0198555,15.448752 L-13.063996,15.369994 L-13.108055,15.290925 L-13.152168,15.2116995 L-13.196471,15.132472 L-13.241102,15.0533905 L-13.2862,14.974601 L-13.3319,14.896242 L-13.378338,14.818449 L-13.425645,14.741351 L-13.473945,14.665071 L-13.523356,14.589726 L-13.573991,14.515429 L-13.625948,14.442282 L-13.6793165,14.370383 L-13.734172,14.299821 L-13.790575,14.230674 L-13.848575,14.163013 L-13.9082,14.096897 L-13.969466,14.032371 L-14.032371,13.969466 L-14.096897,13.9082 L-14.163013,13.848575 L-14.230674,13.790575 L-14.299821,13.734172 L-14.370383,13.6793165 L-14.442282,13.625948 L-14.515429,13.573991 L-14.589726,13.523356 L-14.665071,13.473945 L-14.741351,13.425645 L-14.818449,13.378338 L-14.896242,13.3319 L-14.974601,13.2862 L-15.0533905,13.241102 L-15.132472,13.196471 L-15.2116995,13.152168 L-15.290925,13.108055 L-15.369994,13.063996 L-15.448752,13.0198555 L-15.5270405,12.975501 L-15.604699,12.930806 L-15.681565,12.885647 L-15.757482,12.839905 L-15.832288,12.79347 L-15.90583,12.746236 L-15.977957,12.698104 L-16.048523,12.648984 L-16.117392,12.598789 L-16.184433,12.547442 L-16.249527,12.494873 L-16.312567,12.441014 L-16.373451,12.385806 L-16.432098,12.329192 L-16.488434,12.271121 L-16.542398,12.211542 L-16.59394,12.15041 L-16.643024,12.08768 L-16.689621,12.02331 L-16.733711,11.957261 L-16.775284,11.889497 L-16.814333,11.819988 L-16.85086,11.748709 L-16.884874,11.675642 L-16.916388,11.600781 L-16.945417,11.524129 L-16.97199,11.445699 L-16.996138,11.365517 L-17.017902,11.283623 L-17.037334,11.200068 L-17.054493,11.114917 L-17.06945,11.028242 L-17.082293,10.94013 L-17.09311,10.850674 L-17.10201,10.759975 L-17.109112,10.668142 L-17.114544,10.575287 L-17.118444,10.481526 L-17.120966,10.386978 L-17.122265,10.291763 L-17.122509,10.195999 L-17.121872,10.099806 L-17.120535,10.003299 L-17.118683,9.906591 L-17.116507,9.8097925 L-17.114197,9.713008 L-17.111948,9.616337 L-17.109957,9.519875 L-17.10842,9.423708 L-17.107529,9.327922 L-17.107477,9.232593 L-17.108456,9.137792 L-17.110647,9.043585 L-17.114233,8.950033 L-17.119387,8.857194 L-17.126274,8.76512 L-17.13505,8.6738615 L-17.145864,8.583468 L-17.158848,8.493988 L-17.174122,8.405468 L-17.191788,8.317955 L-17.211931,8.231495 L-17.234615,8.146133 L-17.259882,8.061913 L-17.287752,7.9788713 L-17.31822,7.897042 L-17.35126,7.816449 L-17.386816,7.7371078 L-17.424824,7.65902 L-17.465187,7.5821767 L-17.5078,7.5065546 L-17.552536,7.432117 L-17.599262,7.3588147 L-17.647833,7.286587 L-17.69809,7.2153635 L-17.74987,7.145066 L-17.803003,7.0756083 L-17.857317,7.0069013 L-17.912628,6.938853 L-17.968756,6.871369 L-18.02551,6.8043566 L-18.082705,6.737724 L-18.140144,6.6713815 L-18.197636,6.6052427 L-18.254988,6.5392265 L-18.312002,6.4732547 L-18.368492,6.407256 L-18.424265,6.341163 L-18.479136,6.2749147 L-18.532925,6.2084556 L-18.585455,6.141735 L-18.636562,6.0747094 L-18.686087,6.0073376 L-18.733881,5.9395857 L-18.779806,5.8714213 L-18.823738,5.8028173 L-18.865562,5.7337475 L-18.90518,5.664189 L-18.942505,5.5941186 L-18.97746,5.5235143 L-19.00999,5.4523535 L-19.040047,5.380613 L-19.06759,5.3082695 L-19.0926,5.235299 L-19.115059,5.1616783 L-19.134966,5.0873847 L-19.152325,5.012398 L-19.167152,4.936699 L-19.17947,4.8602757 L-19.189312,4.783119 L-19.196722,4.7052274 L-19.20175,4.6266036 L-19.20446,4.547259 L-19.204931,4.4672103 L-19.203243,4.386482 L-19.1995,4.3051033 L-19.19381,4.2231083 L-19.186295,4.1405363 L-19.177092,4.057429 L-19.166344,3.973829 L-19.154211,3.889782 L-19.140858,3.8053324 L-19.126463,3.7205243 L-19.111208,3.6353996 L-19.095287,3.5499983 L-19.078896,3.4643574 L-19.062237,3.37851 L-19.045517,3.2924862 L-19.028944,3.2063122 L-19.01273,3.1200097 L-18.997084,3.0335977 L-18.982218,2.9470913 L-18.96834,2.8605037 L-18.955658,2.7738454 L-18.94437,2.6871262 L-18.934677,2.6003563 L-18.926765,2.5135467 L-18.920816,2.426711 L-18.917,2.339866 L-18.915476,2.2530322 L-18.916384,2.1662354 L-18.91985,2.0795054 L-18.92598,1.9928765 L-18.934855,1.9063857 L-18.946539,1.8200712 L-18.96107,1.7339711 L-18.978453,1.6481204 L-18.998682,1.5625495 L-19.021717,1.4772822 L-19.047503,1.3923341 L-19.07596,1.3077124 L-19.106993,1.2234149 L-19.140488,1.1394308 L-19.17632,1.0557411 L-19.214348,0.97232056 L-19.254421,0.88913846 L-19.296377,0.8061602 L-19.340048,0.72334915 L-19.385254,0.6406677 L-19.431807,0.55807865 L-19.479515,0.47554663 L-19.52818,0.39303875 L-19.577595,0.31052557 L-19.62755,0.22798164 L-19.677832,0.14538614 L-19.728226,0.0627231 L-19.778511,-0.020018253 L-19.828468,-0.10284337 L-19.87788,-0.18575233 L-19.926527,-0.2687399 L-19.974197,-0.35179567 L-20.020681,-0.43490425 L-20.065771,-0.51804566 L-20.109272,-0.60119563 L-20.150997,-0.6843264 L-20.190763,-0.76740706 L-20.228403,-0.85040456 L-20.263763,-0.93328446 L-20.2967,-1.0160122 L-20.327082,-1.0985535 L-20.354797,-1.1808769 L-20.379747,-1.2629529 L-20.401846,-1.3447573 L-20.421024,-1.4262707 L-20.437225,-1.5074797 L-20.450413,-1.588378 L-20.460552,-1.6689656 L-20.467628,-1.7492497 L-20.471634,-1.8292434 L-20.47257,-1.9089649 L-20.47045,-1.9884361 L-20.46529,-2.0676813 L-20.457123,-2.1467257 L-20.44598,-2.2255936 L-20.431908,-2.3043067 L-20.414963,-2.3828852 L-20.39521,-2.4613445 L-20.372728,-2.539697 L-20.347605,-2.6179514 L-20.31994,-2.6961136 L-20.289852,-2.7741876 L-20.257465,-2.8521752 L-20.222921,-2.9300792 L-20.186369,-3.0079024 L-20.14797,-3.085649 L-20.107899,-3.1633258 L-20.066332,-3.2409432 L-20.023457,-3.3185143 L-19.97947,-3.3960571 L-19.934563,-3.4735932 L-19.88894,-3.5511491 L-19.842804,-3.6287553 L-19.796356,-3.7064466 L-19.749802,-3.784262 L-19.70334,-3.862243 L-19.65717,-3.9404352 L-19.611485,-4.0188856 L-19.566475,-4.097643 L-19.522322,-4.1767564 L-19.479206,-4.2562737 L-19.437296,-4.336243 L-19.396751,-4.416707 L-19.357725,-4.497707 L-19.320356,-4.579276 L-19.284775,-4.6614437 L-19.251093,-4.744231 L-19.219414,-4.8276515 L-19.189817,-4.9117107 L-19.16237,-4.996406 L-19.137123,-5.081727 L-19.114098,-5.1676564 L-19.093304,-5.254171 L-19.074724,-5.3412423 L-19.058327,-5.428838 L-19.044052,-5.516922 L-19.031826,-5.6054587 L-19.021559,-5.6944094 L-19.013136,-5.783735 L-19.006433,-5.8733954 L-19.001314,-5.9633517 L-18.997625,-6.053562 L-18.995205,-6.1439843 L-18.993885,-6.2345743 L-18.993486,-6.325285 L-18.993826,-6.4160676 L-18.994715,-6.50687 L-18.995962,-6.5976343 L-18.997372,-6.6883016 L-18.99875,-6.7788076 L-18.999903,-6.869085 L-19.000633,-6.959061 L-19.000755,-7.0486627 L-19.00008,-7.137811 L-18.998425,-7.226427 L-18.995615,-7.314429 L-18.99148,-7.4017353 L-18.985859,-7.4882646 L-18.978603,-7.5739374 L-18.969568,-7.6586766 L-18.95862,-7.742409 L-18.94564,-7.825067 L-18.930517,-7.9065895 L-18.913149,-7.986922 L-18.893442,-8.066018 L-18.871319,-8.143843 L-18.846704,-8.220366 L-18.819534,-8.295569 L-18.78975,-8.369442 L-18.757301,-8.44198 L-18.722147,-8.513188 L-18.684248,-8.583073 L-18.643576,-8.651646 L-18.600111,-8.718919 L-18.55384,-8.784909 L-18.504765,-8.84963 L-18.452896,-8.913097 L-18.39826,-8.975325 L-18.340895,-9.036328 L-18.280855,-9.096124 L-18.21821,-9.15473 L-18.153046,-9.212166 L-18.085463,-9.268457 L-18.015577,-9.323634 L-17.943514,-9.37773 L-17.869417,-9.430787 L-17.793438,-9.482854 L-17.715738,-9.533986 L-17.63649,-9.584245 L-17.55587,-9.633702 L-17.47406,-9.682435 L-17.391249,-9.730528 L-17.307625,-9.778073 L-17.22338,-9.825169 L-17.138702,-9.871919 L-17.053783,-9.918432 L-16.96881,-9.964825 L-16.883966,-10.011213 L-16.79943,-10.05772 L-16.71538,-10.104471 L-16.631983,-10.151593 L-16.549398,-10.199214 L-16.467787,-10.247461 L-16.387299,-10.296463 L-16.308073,-10.346344 L-16.230247,-10.397226 L-16.153954,-10.449228 L-16.07931,-10.502459 L-16.006433,-10.55702 L-15.935433,-10.613005 L-15.86641,-10.670492 L-15.799455,-10.729548 L-15.73465,-10.790222 L-15.672066,-10.852549 L-15.611762,-10.91654 L-15.5537815,-10.982197 L-15.498149,-11.049498 L-15.444873,-11.118406 L-15.39394,-11.188871 L-15.345318,-11.260829 L-15.298951,-11.334207 L-15.254766,-11.408921 L-15.21267,-11.484883 L-15.172552,-11.562001 L-15.134286,-11.640178 L-15.097733,-11.719313 L-15.062743,-11.799305 L-15.029159,-11.880049 L-14.996813,-11.961439 L-14.965537,-12.043365 L-14.935158,-12.125714 L-14.905501,-12.208372 L-14.876392,-12.29122 L-14.847658,-12.374135 L-14.819126,-12.456994 L-14.790629,-12.539669 L-14.762005,-12.622032 L-14.733092,-12.703953 L-14.703741,-12.7853 L-14.673803,-12.865944 L-14.643143,-12.945755 L-14.611627,-13.024609 L-14.579134,-13.102382 L-14.54555,-13.178957 L-14.510773,-13.254224 L-14.474703,-13.328078 L-14.437256,-13.400427 L-14.398353,-13.471183 L-14.357922,-13.540272 L-14.315901,-13.607631 L-14.272235,-13.673207 L-14.226872,-13.736959 L-14.17977,-13.798858 L-14.130891,-13.858883 L-14.080201,-13.9170265 L-14.027674,-13.973288 L-13.973288,-14.027674 L-13.9170265,-14.080201 L-13.858883,-14.130891 L-13.798858,-14.17977 L-13.736959,-14.226872 L-13.673207,-14.272235 L-13.607631,-14.315901 L-13.540272,-14.357922 L-13.471183,-14.398353 L-13.400427,-14.437256 L-13.328078,-14.474703 L-13.254224,-14.510773 L-13.178957,-14.54555 L-13.102382,-14.579134 L-13.024609,-14.611627 L-12.945755,-14.643143 L-12.865944,-14.673803 L-12.7853,-14.703741 L-12.703953,-14.733092 L-12.622032,-14.762005 L-12.539669,-14.790629 L-12.456994,-14.819126 L-12.374135,-14.847658 L-12.29122,-14.876392 L-12.208372,-14.905501 L-12.125714,-14.935158 L-12.043365,-14.965537 L-11.961439,-14.996813 L-11.880049,-15.029159 L-11.799305,-15.062743 L-11.719313,-15.097733 L-11.640178,-15.134286 L-11.562001,-15.172552 L-11.484883,-15.21267 L-11.408921,-15.254766 L-11.334207,-15.298951 L-11.260829,-15.345318 L-11.188871,-15.39394 L-11.118406,-15.444873 L-11.049498,-15.498149 L-10.982197,-15.5537815 L-10.91654,-15.611762 L-10.852549,-15.672066 L-10.790222,-15.73465 L-10.729548,-15.799455 L-10.670492,-15.86641 L-10.613005,-15.935433 L-10.55702,-16.006433 L-10.502459,-16.07931 L-10.449228,-16.153954 L-10.397226,-16.230247 L-10.346344,-16.308073 L-10.296463,-16.387299 L-10.247461,-16.467787 L-10.199214,-16.549398 L-10.151593,-16.631983 L-10.104471,-16.71538 L-10.05772,-16.79943 L-10.011213,-16.883966 L-9.964825,-16.96881 L-9.918432,-17.053783 L-9.871919,-17.138702 L-9.825169,-17.22338 L-9.778073,-17.307625 L-9.730528,-17.391249 L-9.682435,-17.47406 L-9.633702,-17.55587 L-9.584245,-17.63649 L-9.533986,-17.715738 L-9.482854,-17.793438 L-9.430787,-17.869417 L-9.37773,-17.943514 L-9.323634,-18.015577 L-9.268457,-18.085463 L-9.212166,-18.153046 L-9.15473,-18.21821 L-9.096124,-18.280855 L-9.036328,-18.340895 L-8.975325,-18.39826 L-8.913097,-18.452896 L-8.84963,-18.504765 L-8.784909,-18.55384 L-8.718919,-18.600111 L-8.651646,-18.643576 L-8.583073,-18.684248 L-8.513188,-18.722147 L-8.44198,-18.757301 L-8.369442,-18.78975 L-8.295569,-18.819534 L-8.220366,-18.846704 L-8.143843,-18.871319 L-8.066018,-18.893442 L-7.986922,-18.913149 L-7.9065895,-18.930517 L-7.825067,-18.94564 L-7.742409,-18.95862 L-7.6586766,-18.969568 L-7.5739374,-18.978603 L-7.4882646,-18.985859 L-7.4017353,-18.99148 L-7.314429,-18.995615 L-7.226427,-18.998425 L-7.137811,-19.00008 L-7.0486627,-19.000755 L-6.959061,-19.000633 L-6.869085,-18.999903 L-6.7788076,-18.99875 L-6.6883016,-18.997372 L-6.5976343,-18.995962 L-6.50687,-18.994715 L-6.4160676,-18.993826 L-6.325285,-18.993486 L-6.2345743,-18.993885 L-6.1439843,-18.995205 L-6.053562,-18.997625 L-5.9633517,-19.001314 L-5.8733954,-19.006433 L-5.783735,-19.013136 L-5.6944094,-19.021559 L-5.6054587,-19.031826 L-5.516922,-19.044052 L-5.428838,-19.058327 L-5.3412423,-19.074724 L-5.254171,-19.093304 L-5.1676564,-19.114098 L-5.081727,-19.137123 L-4.996406,-19.16237 L-4.9117107,-19.189817 L-4.8276515,-19.219414 L-4.744231,-19.251093 L-4.6614437,-19.284775 L-4.579276,-19.320356 L-4.497707,-19.357725 L-4.416707,-19.396751 L-4.336243,-19.437296 L-4.2562737,-19.479206 L-4.1767564,-19.522322 L-4.097643,-19.566475 L-4.0188856,-19.611485 L-3.9404352,-19.65717 L-3.862243,-19.70334 L-3.784262,-19.749802 L-3.7064466,-19.796356 L-3.6287553,-19.842804 L-3.5511491,-19.88894 L-3.4735932,-19.934563 L-3.3960571,-19.97947 L-3.3185143,-20.023457 L-3.2409432,-20.066332 L-3.1633258,-20.107899 L-3.085649,-20.14797 L-3.0079024,-20.186369 L-2.9300792,-20.222921 L-2.8521752,-20.257465 L-2.7741876,-20.289852 L-2.6961136,-20.31994 L-2.6179514,-20.347605 L-2.539697,-20.372728 L-2.4613445,-20.39521 L-2.3828852,-20.414963 L-2.3043067,-20.431908 L-2.2255936,-20.44598 L-2.1467257,-20.457123 L-2.0676813,-20.46529 L-1.9884361,-20.47045 L-1.9089649,-20.47257 L-1.8292434,-20.471634 L-1.7492497,-20.467628 L-1.6689656,-20.460552 L-1.588378,-20.450413 L-1.5074797,-20.437225 L-1.4262707,-20.421024 L-1.3447573,-20.401846 L-1.2629529,-20.379747 L-1.1808769,-20.354797 L-1.0985535,-20.327082 L-1.0160122,-20.2967 L-0.93328446,-20.263763 L-0.85040456,-20.228403 L-0.76740706,-20.190763 L-0.6843264,-20.150997 L-0.60119563,-20.109272 L-0.51804566,-20.065771 L-0.43490425,-20.020681 L-0.35179567,-19.974197 L-0.2687399,-19.926527 L-0.18575233,-19.87788 L-0.10284337,-19.828468 L-0.020018253,-19.778511 L0.0627231,-19.728226 L0.14538614,-19.677832 L0.22798164,-19.62755 L0.31052557,-19.577595 L0.39303875,-19.52818 L0.47554663,-19.479515 L0.55807865,-19.431807 L0.6406677,-19.385254 L0.72334915,-19.340048 L0.8061602,-19.296377 L0.88913846,-19.254421 L0.97232056,-19.214348 L1.0557411,-19.17632 L1.1394308,-19.140488 L1.2234149,-19.106993 L1.3077124,-19.07596 L1.3923341,-19.047503 L1.4772822,-19.021717 L1.5625495,-18.998682 L1.6481204,-18.978453 L1.7339711,-18.96107 L1.8200712,-18.946539 L1.9063857,-18.934855 L1.9928765,-18.92598 L2.0795054,-18.91985 L2.1662354,-18.916384 L2.2530322,-18.915476 L2.339866,-18.917 L2.426711,-18.920816 L2.5135467,-18.926765 L2.6003563,-18.934677 L2.6871262,-18.94437 L2.7738454,-18.955658 L2.8605037,-18.96834 L2.9470913,-18.982218 L3.0335977,-18.997084 L3.1200097,-19.01273 L3.2063122,-19.028944 L3.2924862,-19.045517 L3.37851,-19.062237 L3.4643574,-19.078896 L3.5499983,-19.095287 L3.6353996,-19.111208 L3.7205243,-19.126463 L3.8053324,-19.140858 L3.889782,-19.154211 L3.973829,-19.166344 L4.057429,-19.177092 L4.1405363,-19.186295 L4.2231083,-19.19381 L4.3051033,-19.1995 L4.386482,-19.203243 L4.4672103,-19.204931 L4.547259,-19.20446 L4.6266036,-19.20175 L4.7052274,-19.196722 L4.783119,-19.189312 L4.8602757,-19.17947 L4.936699,-19.167152 L5.012398,-19.152325 L5.0873847,-19.134966 L5.1616783,-19.115059 L5.235299,-19.0926 L5.3082695,-19.06759 L5.380613,-19.040047 L5.4523535,-19.00999 L5.5235143,-18.97746 L5.5941186,-18.942505 L5.664189,-18.90518 L5.7337475,-18.865562 L5.8028173,-18.823738 L5.8714213,-18.779806 L5.9395857,-18.733881 L6.0073376,-18.686087 L6.0747094,-18.636562 L6.141735,-18.585455 L6.2084556,-18.532925 L6.2749147,-18.479136 L6.341163,-18.424265 L6.407256,-18.368492 L6.4732547,-18.312002 L6.5392265,-18.254988 L6.6052427,-18.197636 L6.6713815,-18.140144 L6.737724,-18.082705 L6.8043566,-18.02551 L6.871369,-17.968756 L6.938853,-17.912628 L7.0069013,-17.857317 L7.0756083,-17.803003 L7.145066,-17.74987 L7.2153635,-17.69809 L7.286587,-17.647833 L7.3588147,-17.599262 L7.432117,-17.552536 L7.5065546,-17.5078 L7.5821767,-17.465187 L7.65902,-17.424824 L7.7371078,-17.386816 L7.816449,-17.35126 L7.897042,-17.31822 L7.9788713,-17.287752 L8.061913,-17.259882 L8.146133,-17.234615 L8.231495,-17.211931 L8.317955,-17.191788 L8.405468,-17.174122 L8.493988,-17.158848 L8.583468,-17.145864 L8.6738615,-17.13505 L8.76512,-17.126274 L8.857194,-17.119387 L8.950033,-17.114233 L9.043585,-17.110647 L9.137792,-17.108456 L9.232593,-17.107477 L9.327922,-17.107529 L9.423708,-17.10842 L9.519875,-17.109957 L9.616337,-17.111948 L9.713008,-17.114197 L9.8097925,-17.116507 L9.906591,-17.118683 L10.003299,-17.120535 L10.099806,-17.121872 L10.195999,-17.122509 L10.291763,-17.122265 L10.386978,-17.120966 L10.481526,-17.118444 L10.575287,-17.114544 L10.668142,-17.109112 L10.759975,-17.10201 L10.850674,-17.09311 L10.94013,-17.082293 L11.028242,-17.06945 L11.114917,-17.054493 L11.200068,-17.037334 L11.283623,-17.017902 L11.365517,-16.996138 L11.445699,-16.97199 L11.524129,-16.945417 L11.600781,-16.916388 L11.675642,-16.884874 L11.748709,-16.85086 L11.819988,-16.814333 L11.889497,-16.775284 L11.957261,-16.733711 L12.02331,-16.689621 L12.08768,-16.643024 L12.15041,-16.59394 L12.211542,-16.542398 L12.271121,-16.488434 L12.329192,-16.432098 L12.385806,-16.373451 L12.441014,-16.312567 L12.494873,-16.249527 L12.547442,-16.184433 L12.598789,-16.117392 L12.648984,-16.048523 L12.698104,-15.977957 L12.746236,-15.90583 L12.79347,-15.832288 L12.839905,-15.757482 L12.885647,-15.681565 L12.930806,-15.604699 L12.975501,-15.5270405 L13.0198555,-15.448752 L13.063996,-15.369994 L13.108055,-15.290925 L13.152168,-15.2116995 L13.196471,-15.132472 L13.241102,-15.0533905 L13.2862,-14.974601 L13.3319,-14.896242 L13.378338,-14.818449 L13.425645,-14.741351 L13.473945,-14.665071 L13.523356,-14.589726 L13.573991,-14.515429 L13.625948,-14.442282 L13.6793165,-14.370383 L13.734172,-14.299821 L13.790575,-14.230674 L13.848575,-14.163013 L13.9082,-14.096897 L13.969466,-14.032371 L14.032371,-13.969466 L14.096897,-13.9082 L14.163013,-13.848575 L14.230674,-13.790575 L14.299821,-13.734172 L14.370383,-13.6793165 L14.442282,-13.625948 L14.515429,-13.573991 L14.589726,-13.523356 L14.665071,-13.473945 L14.741351,-13.425645 L14.818449,-13.378338 L14.896242,-13.3319 L14.974601,-13.2862 L15.0533905,-13.241102 L15.132472,-13.196471 L15.2116995,-13.152168 L15.290925,-13.108055 L15.369994,-13.063996 L15.448752,-13.0198555 L15.5270405,-12.975501 L15.604699,-12.930806 L15.681565,-12.885647 L15.757482,-12.839905 L15.832288,-12.79347 L15.90583,-12.746236 L15.977957,-12.698104 L16.048523,-12.648984 L16.117392,-12.598789 L16.184433,-12.547442 L16.249527,-12.494873 L16.312567,-12.441014 L16.373451,-12.385806 L16.432098,-12.329192 L16.488434,-12.271121 L16.542398,-12.211542 L16.59394,-12.15041 L16.643024,-12.08768 L16.689621,-12.02331 L16.733711,-11.957261 L16.775284,-11.889497 L16.814333,-11.819988 L16.85086,-11.748709 L16.884874,-11.675642 L16.916388,-11.600781 L16.945417,-11.524129 L16.97199,-11.445699 L16.996138,-11.365517 L17.017902,-11.283623 L17.037334,-11.200068 L17.054493,-11.114917 L17.06945,-11.028242 L17.082293,-10.94013 L17.09311,-10.850674 L17.10201,-10.759975 L17.109112,-10.668142 L17.114544,-10.575287 L17.118444,-10.481526 L17.120966,-10.386978 L17.122265,-10.291763 L17.122509,-10.195999 L17.121872,-10.099806 L17.120535,-10.003299 L17.118683,-9.906591 L17.116507,-9.8097925 L17.114197,-9.713008 L17.111948,-9.616337 L17.109957,-9.519875 L17.10842,-9.423708 L17.107529,-9.327922 L17.107477,-9.232593 L17.108456,-9.137792 L17.110647,-9.043585 L17.114233,-8.950033 L17.119387,-8.857194 L17.126274,-8.76512 L17.13505,-8.6738615 L17.145864,-8.583468 L17.158848,-8.493988 L17.174122,-8.405468 L17.191788,-8.317955 L17.211931,-8.231495 L17.234615,-8.146133 L17.259882,-8.061913 L17.287752,-7.9788713 L17.31822,-7.897042 L17.35126,-7.816449 L17.386816,-7.7371078 L17.424824,-7.65902 L17.465187,-7.5821767 L17.5078,-7.5065546 L17.552536,-7.432117 L17.599262,-7.3588147 L17.647833,-7.286587 L17.69809,-7.2153635 L17.74987,-7.145066 L17.803003,-7.0756083 L17.857317,-7.0069013 L17.912628,-6.938853 L17.968756,-6.871369 L18.02551,-6.8043566 L18.082705,-6.737724 L18.140144,-6.6713815 L18.197636,-6.6052427 L18.254988,-6.5392265 L18.312002,-6.4732547 L18.368492,-6.407256 L18.424265,-6.341163 L18.479136,-6.2749147 L18.532925,-6.2084556 L18.585455,-6.141735 L18.636562,-6.0747094 L18.686087,-6.0073376 L18.733881,-5.9395857 L18.779806,-5.8714213 L18.823738,-5.8028173 L18.865562,-5.7337475 L18.90518,-5.664189 L18.942505,-5.5941186 L18.97746,-5.5235143 L19.00999,-5.4523535 L19.040047,-5.380613 L19.06759,-5.3082695 L19.0926,-5.235299 L19.115059,-5.1616783 L19.134966,-5.0873847 L19.152325,-5.012398 L19.167152,-4.936699 L19.17947,-4.8602757 L19.189312,-4.783119 L19.196722,-4.7052274 L19.20175,-4.6266036 L19.20446,-4.547259 L19.204931,-4.4672103 L19.203243,-4.386482 L19.1995,-4.3051033 L19.19381,-4.2231083 L19.186295,-4.1405363 L19.177092,-4.057429 L19.166344,-3.973829 L19.154211,-3.889782 L19.140858,-3.8053324 L19.126463,-3.7205243 L19.111208,-3.6353996 L19.095287,-3.5499983 L19.078896,-3.4643574 L19.062237,-3.37851 L19.045517,-3.2924862 L19.028944,-3.2063122 L19.01273,-3.1200097 L18.997084,-3.0335977 L18.982218,-2.9470913 L18.96834,-2.8605037 L18.955658,-2.7738454 L18.94437,-2.6871262 L18.934677,-2.6003563 L18.926765,-2.5135467 L18.920816,-2.426711 L18.917,-2.339866 L18.915476,-2.2530322 L18.916384,-2.1662354 L18.91985,-2.0795054 L18.92598,-1.9928765 L18.934855,-1.9063857 L18.946539,-1.8200712 L18.96107,-1.7339711 L18.978453,-1.6481204 L18.998682,-1.5625495 L19.021717,-1.4772822 L19.047503,-1.3923341 L19.07596,-1.3077124 L19.106993,-1.2234149 L19.140488,-1.1394308 L19.17632,-1.0557411 L19.214348,-0.97232056 L19.254421,-0.88913846 L19.296377,-0.8061602 L19.340048,-0.72334915 L19.385254,-0.6406677 L19.431807,-0.55807865 L19.479515,-0.47554663 L19.52818,-0.39303875 L19.577595,-0.31052557 L19.62755,-0.22798164 L19.677832,-0.14538614 L19.728226,-0.0627231 L19.778511,0.020018253 L19.828741,0.103297256" fill="none" stroke="black" stroke-width="0.05"/>
</svg>