<svg height="51.445125598564886mm" viewBox="-25.722562799282443 -25.722562799282443 51.445125598564886 51.445125598564886" width="51.445125598564886mm" xmlns="http://www.w3.org/2000/svg">
<path d="M20,0 L20.050053,0.083985955 L20.09953,0.16838937 L20.148209,0.25320318 L20.195866,0.33841667 L20.242289,0.4240155 L20.287262,0.5099819 L20.33058,0.59629464 L20.372046,0.68292946 L20.411469,0.76985896 L20.448666,0.85705304 L20.483469,0.944479 L20.51572,1.032102 L20.54527,1.119885 L20.57199,1.2077893 L20.595755,1.295775 L20.616463,1.3838011 L20.634022,1.4718257 L20.648361,1.5598066 L20.659418,1.6477017 L20.667152,1.7354693 L20.671537,1.823068 L20.672564,1.9104578 L20.670238,1.9976001 L20.664585,2.0844576 L20.655643,2.1709957 L20.643469,2.2571814 L20.628132,2.3429852 L20.60972,2.4283795 L20.588333,2.5133407 L20.564087,2.5978484 L20.53711,2.6818857 L20.507542,2.7654393 L20.475533,2.8485003 L20.44125,2.9310637 L20.404863,3.013128 L20.366554,3.094697 L20.326511,3.175778 L20.284931,3.2563825 L20.242014,3.3365264 L20.197962,3.4162295 L20.152985,3.4955158 L20.107292,3.574413 L20.06109,3.6529524 L20.014593,3.731169 L19.968002,3.8091002 L19.921524,3.8867874 L19.875357,3.964274 L19.829693,4.0416055 L19.784721,4.1188307 L19.740618,4.195998 L19.697556,4.2731586 L19.655691,4.350364 L19.615177,4.4276667 L19.57615,4.5051174 L19.538734,4.582769 L19.503044,4.6606717 L19.469177,4.738875 L19.437218,4.817426 L19.407236,4.896372 L19.379286,4.9757547 L19.353407,5.0556154 L19.32962,5.13599 L19.307938,5.2169123 L19.28835,5.298412 L19.270832,5.3805127 L19.255346,5.4632354 L19.241838,5.5465956 L19.23024,5.630603 L19.220469,5.7152624 L19.212425,5.8005733 L19.206001,5.886529 L19.201075,5.9731174 L19.19751,6.06032 L19.195162,6.1481137 L19.193876,6.2364683 L19.193487,6.325349 L19.19382,6.414714 L19.1947,6.5045166 L19.19594,6.5947056 L19.197348,6.6852236 L19.19873,6.776009 L19.19989,6.866996 L19.200632,6.958113 L19.200754,7.049287 L19.200064,7.1404395 L19.19836,7.23149 L19.195457,7.3223557 L19.191164,7.4129515 L19.185303,7.503191 L19.177694,7.592986 L19.168173,7.6822495 L19.156582,7.770893 L19.14277,7.85883 L19.126602,7.945974 L19.107946,8.032241 L19.08669,8.11755 L19.06273,8.201822 L19.035978,8.284982 L19.00636,8.366958 L18.97381,8.447684 L18.938286,8.5271 L18.899752,8.605147 L18.858194,8.681777 L18.81361,8.756946 L18.766014,8.830616 L18.715431,8.902758 L18.66191,8.973349 L18.605501,9.042373 L18.54628,9.109824 L18.484335,9.175703 L18.41976,9.240018 L18.352669,9.302787 L18.283186,9.364034 L18.211445,9.423792 L18.13759,9.482103 L18.061779,9.539017 L17.984175,9.594588 L17.904947,9.648884 L17.824274,9.701974 L17.742344,9.753936 L17.659342,9.804855 L17.575462,9.854823 L17.490898,9.903935 L17.405848,9.952292 L17.320509,10 L17.235075,10.047168 L17.149742,10.093908 L17.064701,10.140337 L16.98014,10.186571 L16.896242,10.232728 L16.81318,10.278928 L16.731127,10.325289 L16.650242,10.371929 L16.570679,10.418964 L16.49258,10.466509 L16.416077,10.514674 L16.341293,10.563567 L16.268337,10.61329 L16.197308,10.66394 L16.12829,10.7156105 L16.061356,10.768387 L15.996565,10.822347 L15.93396,10.8775625 L15.873574,10.934097 L15.815424,10.992006 L15.759514,11.051335 L15.705833,11.112121 L15.654359,11.174392 L15.605053,11.238166 L15.557865,11.303451 L15.512734,11.370245 L15.4695835,11.438536 L15.428328,11.508301 L15.388869,11.579509 L15.351099,11.652118 L15.3149,11.726076 L15.280147,11.801321 L15.246702,11.877784 L15.214427,11.955384 L15.183172,12.034034 L15.152784,12.113639 L15.123105,12.194095 L15.093974,12.2752905 L15.065226,12.357113 L15.036696,12.439437 L15.00822,12.522139 L14.9796295,12.605085 L14.950762,12.688143 L14.921456,12.771176 L14.891555,12.854045 L14.860903,12.936611 L14.829351,13.018735 L14.79676,13.100278 L14.76299,13.181102 L14.727915,13.261074 L14.691415,13.340062 L14.6533785,13.41794 L14.613705,13.494586 L14.572301,13.569883 L14.529089,13.643723 L14.483996,13.7160015 L14.436965,13.786626 L14.387949,13.85551 L14.336912,13.922577 L14.283831,13.987761 L14.228693,14.051004 L14.1715,14.112263 L14.112263,14.1715 L14.051004,14.228693 L13.987761,14.283831 L13.922577,14.336912 L13.85551,14.387949 L13.786626,14.436965 L13.7160015,14.483996 L13.643723,14.529089 L13.569883,14.572301 L13.494586,14.613705 L13.41794,14.6533785 L13.340062,14.691415 L13.261074,14.727915 L13.181102,14.76299 L13.100278,14.79676 L13.018735,14.829351 L12.936611,14.860903 L12.854045,14.891555 L12.771176,14.921456 L12.688143,14.950762 L12.605085,14.9796295 L12.522139,15.00822 L12.439437,15.036696 L12.357113,15.065226 L12.2752905,15.093974 L12.194095,15.123105 L12.113639,15.152784 L12.034034,15.183172 L11.955384,15.214427 L11.877784,15.246702 L11.801321,15.280147 L11.726076,15.3149 L11.652118,15.351099 L11.579509,15.388869 L11.508301,15.428328 L11.438536,15.4695835 L11.370245,15.512734 L11.303451,15.557865 L11.238166,15.605053 L11.174392,15.654359 L11.112121,15.705833 L11.051335,15.759514 L10.992006,15.815424 L10.934097,15.873574 L10.8775625,15.93396 L10.822347,15.996565 L10.768387,16.061356 L10.7156105,16.12829 L10.66394,16.197308 L10.61329,16.268337 L10.563567,16.341293 L10.514674,16.416077 L10.466509,16.49258 L10.418964,16.570679 L10.371929,16.650242 L10.325289,16.731127 L10.278928,16.81318 L10.232728,16.896242 L10.186571,16.98014 L10.140337,17.064701 L10.093908,17.149742 L10.047168,17.235075 L10,17.320509 L9.952292,17.405848 L9.903935,17.490898 L9.854823,17.575462 L9.804855,17.659342 L9.753936,17.742344 L9.701974,17.824274 L9.648884,17.904947 L9.594588,17.984175 L9.539017,18.061779 L9.482103,18.13759 L9.423792,18.211445 L9.364034,18.283186 L9.302787,18.352669 L9.240018,18.41976 L9.175703,18.484335 L9.109824,18.54628 L9.042373,18.605501 L8.973349,18.66191 L8.902758,18.715431 L8.830616,18.766014 L8.756946,18.81361 L8.681777,18.858194 L8.605147,18.899752 L8.5271,18.938286 L8.447684,18.97381 L8.366958,19.00636 L8.284982,19.035978 L8.201822,19.06273 L8.11755,19.08669 L8.032241,19.107946 L7.945974,19.126602 L7.85883,19.14277 L7.770893,19.156582 L7.6822495,19.168173 L7.592986,19.177694 L7.503191,19.185303 L7.4129515,19.191164 L7.3223557,19.195457 L7.23149,19.19836 L7.1404395,19.200064 L7.049287,19.200754 L6.958113,19.200632 L6.866996,19.19989 L6.776009,19.19873 L6.6852236,19.197348 L6.5947056,19.19594 L6.5045166,19.1947 L6.414714,19.19382 L6.325349,19.193487 L6.2364683,19.193876 L6.1481137,19.195162 L6.06032,19.19751 L5.9731174,19.201075 L5.886529,19.206001 L5.8005733,19.212425 L5.7152624,19.220469 L5.630603,19.23024 L5.5465956,19.241838 L5.4632354,19.255346 L5.3805127,19.270832 L5.298412,19.28835 L5.2169123,19.307938 L5.13599,19.32962 L5.0556154,19.353407 L4.9757547,19.379286 L4.896372,19.407236 L4.817426,19.437218 L4.738875,19.469177 L4.6606717,19.503044 L4.582769,19.538734 L4.5051174,19.57615 L4.4276667,19.615177 L4.350364,19.655691 L4.2731586,19.697556 L4.195998,19.740618 L4.1188307,19.784721 L4.0416055,19.829693 L3.964274,19.875357 L3.8867874,19.921524 L3.8091002,19.968002 L3.731169,20.014593 L3.6529524,20.06109 L3.574413,20.107292 L3.4955158,20.152985 L3.4162295,20.197962 L3.3365264,20.242014 L3.2563825,20.284931 L3.175778,20.326511 L3.094697,20.366554 L3.013128,20.404863 L2.9310637,20.44125 L2.8485003,20.475533 L2.7654393,20.507542 L2.6818857,20.53711 L2.5978484,20.564087 L2.5133407,20.588333 L2.4283795,20.60972 L2.3429852,20.628132 L2.2571814,20.643469 L2.1709957,20.655643 L2.0844576,20.664585 L1.9976001,20.670238 L1.9104578,20.672564 L1.823068,20.671537 L1.7354693,20.667152 L1.6477017,20.659418 L1.5598066,20.648361 L1.4718257,20.634022 L1.3838011,20.616463 L1.295775,20.595755 L1.2077893,20.57199 L1.119885,20.54527 L1.032102,20.51572 L0.944479,20.483469 L0.85705304,20.448666 L0.76985896,20.411469 L0.68292946,20.372046 L0.59629464,20.33058 L0.5099819,20.287262 L0.4240155,20.242289 L0.33841667,20.195866 L0.25320318,20.148209 L0.16838937,20.09953 L0.083985955,20.050053 L0.0000000000000056655387,20 L-0.08356516,19.949596 L-0.16670993,19.899067 L-0.24943842,19.848635 L-0.3317584,19.79852 L-0.4136813,19.74894 L-0.49522194,19.700106 L-0.57639855,19.652225 L-0.6572326,19.605497 L-0.7377483,19.560112 L-0.81797314,19.516247 L-0.8979366,19.474077 L-0.9776708,19.433758 L-1.0572096,19.39544 L-1.1365889,19.359251 L-1.2158457,19.325315 L-1.2950182,19.293736 L-1.374145,19.264605 L-1.4532655,19.237995 L-1.5324191,19.213966 L-1.6116445,19.192562 L-1.6909798,19.173807 L-1.7704625,19.157711 L-1.8501282,19.144268 L-1.9300109,19.133455 L-2.0101428,19.125233 L-2.0905538,19.119543 L-2.1712704,19.11632 L-2.252317,19.115475 L-2.3337147,19.116905 L-2.4154809,19.1205 L-2.4976296,19.126131 L-2.580171,19.133656 L-2.6631112,19.142923 L-2.7464526,19.153772 L-2.830193,19.16603 L-2.9143267,19.179516 L-2.9988427,19.19404 L-3.083727,19.20941 L-3.1689603,19.225424 L-3.2545204,19.24188 L-3.3403802,19.258568 L-3.4265091,19.275282 L-3.5128732,19.291811 L-3.5994346,19.30795 L-3.6861525,19.323488 L-3.7729828,19.338224 L-3.8598795,19.351963 L-3.9467936,19.364508 L-4.0336742,19.375675 L-4.1204696,19.385286 L-4.2071257,19.39317 L-4.293588,19.399168 L-4.379802,19.403131 L-4.465713,19.404924 L-4.5512657,19.40442 L-4.6364074,19.401508 L-4.721085,19.396091 L-4.8052487,19.388084 L-4.8888493,19.377419 L-4.9718404,19.36404 L-5.05418,19.347912 L-5.135828,19.32901 L-5.2167478,19.307327 L-5.296908,19.282873 L-5.3762803,19.25567 L-5.4548416,19.225761 L-5.5325747,19.193197 L-5.609466,19.15805 L-5.685508,19.120403 L-5.760699,19.080355 L-5.8350415,19.038013 L-5.908546,18.993507 L-5.9812274,18.946966 L-6.0531073,18.89854 L-6.1242113,18.848385 L-6.1945734,18.796665 L-6.2642307,18.743553 L-6.3332276,18.689232 L-6.4016137,18.633886 L-6.469442,18.577707 L-6.5367727,18.520891 L-6.603668,18.463634 L-6.670197,18.406137 L-6.73643,18.3486 L-6.8024426,18.291216 L-6.8683124,18.234186 L-6.934119,18.1777 L-6.9999466,18.121948 L-7.065877,18.067112 L-7.131996,18.013365 L-7.1983886,17.96088 L-7.2651396,17.909813 L-7.332334,17.860317 L-7.4000545,17.81253 L-7.4683824,17.76658 L-7.537397,17.722584 L-7.6071734,17.680645 L-7.677785,17.640854 L-7.7492995,17.603287 L-7.821781,17.568008 L-7.895289,17.535063 L-7.9698763,17.504486 L-8.04559,17.476295 L-8.122472,17.450493 L-8.200556,17.427069 L-8.279869,17.405993 L-8.360433,17.387226 L-8.442258,17.37071 L-8.52535,17.356375 L-8.609704,17.344137 L-8.695311,17.333897 L-8.782148,17.325546 L-8.870192,17.318964 L-8.959402,17.314014 L-9.049738,17.310553 L-9.141147,17.308428 L-9.233568,17.307476 L-9.326937,17.307526 L-9.421178,17.308403 L-9.516211,17.309923 L-9.611948,17.3119 L-9.708297,17.31414 L-9.805159,17.316452 L-9.902429,17.31864 L-10,17.320509 L-10.09776,17.321861 L-10.195594,17.322508 L-10.293385,17.322258 L-10.39101,17.320925 L-10.488353,17.318329 L-10.585288,17.314293 L-10.681697,17.308651 L-10.777457,17.301245 L-10.872452,17.29192 L-10.966562,17.280537 L-11.059677,17.266966 L-11.151687,17.251083 L-11.242484,17.232784 L-11.33197,17.211971 L-11.420052,17.188559 L-11.506639,17.16248 L-11.59165,17.133675 L-11.675013,17.102102 L-11.75666,17.06773 L-11.836536,17.030544 L-11.914592,16.990543 L-11.9907875,16.947737 L-12.065092,16.902153 L-12.137486,16.853827 L-12.207959,16.802814 L-12.276511,16.749178 L-12.343151,16.692993 L-12.407898,16.634352 L-12.470783,16.573349 L-12.531846,16.510098 L-12.591136,16.444715 L-12.648711,16.377333 L-12.70464,16.308083 L-12.759001,16.23711 L-12.811877,16.164566 L-12.863363,16.090605 L-12.91356,16.015387 L-12.962576,15.9390745 L-13.010523,15.861835 L-13.057523,15.7838335 L-13.103698,15.705239 L-13.1491785,15.626219 L-13.194096,15.546938 L-13.238584,15.467562 L-13.282779,15.3882475 L-13.326818,15.309153 L-13.37084,15.230427 L-13.41498,15.152216 L-13.4593725,15.074656 L-13.50415,14.997878 L-13.549441,14.922004 L-13.595372,14.847146 L-13.64206,14.773409 L-13.689621,14.700885 L-13.738162,14.629657 L-13.787783,14.559796 L-13.838574,14.491365 L-13.890623,14.424412 L-13.944,14.3589735 L-13.998773,14.295076 L-14.054995,14.232734 L-14.112708,14.1719475 L-14.1719475,14.112708 L-14.232734,14.054995 L-14.295076,13.998773 L-14.3589735,13.944 L-14.424412,13.890623 L-14.491365,13.838574 L-14.559796,13.787783 L-14.629657,13.738162 L-14.700885,13.689621 L-14.773409,13.64206 L-14.847146,13.595372 L-14.922004,13.549441 L-14.997878,13.50415 L-15.074656,13.4593725 L-15.152216,13.41498 L-15.230427,13.37084 L-15.309153,13.326818 L-15.3882475,13.282779 L-15.467562,13.238584 L-15.546938,13.194096 L-15.626219,13.1491785 L-15.705239,13.103698 L-15.7838335,13.057523 L-15.861835,13.010523 L-15.9390745,12.962576 L-16.015387,12.91356 L-16.090605,12.863363 L-16.164566,12.811877 L-16.23711,12.759001 L-16.308083,12.70464 L-16.377333,12.648711 L-16.444715,12.591136 L-16.510098,12.531846 L-16.573349,12.470783 L-16.634352,12.407898 L-16.692993,12.343151 L-16.749178,12.276511 L-16.802814,12.207959 L-16.853827,12.137486 L-16.902153,12.065092 L-16.947737,11.9907875 L-16.990543,11.914592 L-17.030544,11.836536 L-17.06773,11.75666 L-17.102102,11.675013 L-17.133675,11.59165 L-17.16248,11.506639 L-17.188559,11.420052 L-17.211971,11.33197 L-17.232784,11.242484 L-17.251083,11.151687 L-17.266966,11.059677 L-17.280537,10.966562 L-17.29192,10.872452 L-17.301245,10.777457 L-17.308651,10.681697 L-17.314293,10.585288 L-17.318329,10.488353 L-17.320925,10.39101 L-17.322258,10.293385 L-17.322508,10.195594 L-17.321861,10.09776 L-17.320509,10 L-17.31864,9.902429 L-17.316452,9.805159 L-17.31414,9.708297 L-17.3119,9.611948 L-17.309923,9.516211 L-17.308403,9.421178 L-17.307526,9.326937 L-17.307476,9.233568 L-17.308428,9.141147 L-17.310553,9.049738 L-17.314014,8.959402 L-17.318964,8.870192 L-17.325546,8.782148 L-17.333897,8.695311 L-17.344137,8.609704 L-17.356375,8.52535 L-17.37071,8.442258 L-17.387226,8.360433 L-17.405993,8.279869 L-17.427069,8.200556 L-17.450493,8.122472 L-17.476295,8.04559 L-17.504486,7.9698763 L-17.535063,7.895289 L-17.568008,7.821781 L-17.603287,7.7492995 L-17.640854,7.677785 L-17.680645,7.6071734 L-17.722584,7.537397 L-17.76658,7.4683824 L-17.81253,7.4000545 L-17.860317,7.332334 L-17.909813,7.2651396 L-17.96088,7.1983886 L-18.013365,7.131996 L-18.067112,7.065877 L-18.121948,6.9999466 L-18.1777,6.934119 L-18.234186,6.8683124 L-18.291216,6.8024426 L-18.3486,6.73643 L-18.406137,6.670197 L-18.463634,6.603668 L-18.520891,6.5367727 L-18.577707,6.469442 L-18.633886,6.4016137 L-18.689232,6.3332276 L-18.743553,6.2642307 L-18.796665,6.1945734 L-18.848385,6.1242113 L-18.89854,6.0531073 L-18.946966,5.9812274 L-18.993507,5.908546 L-19.038013,5.8350415 L-19.080355,5.760699 L-19.120403,5.685508 L-19.15805,5.609466 L-19.193197,5.5325747 L-19.225761,5.4548416 L-19.25567,5.3762803 L-19.282873,5.296908 L-19.307327,5.2167478 L-19.32901,5.135828 L-19.347912,5.05418 L-19.36404,4.9718404 L-19.377419,4.8888493 L-19.388084,4.8052487 L-19.396091,4.721085 L-19.401508,4.6364074 L-19.40442,4.5512657 L-19.404924,4.465713 L-19.403131,4.379802 L-19.399168,4.293588 L-19.39317,4.2071257 L-19.385286,4.1204696 L-19.375675,4.0336742 L-19.364508,3.9467936 L-19.351963,3.8598795 L-19.338224,3.7729828 L-19.323488,3.6861525 L-19.30795,3.5994346 L-19.291811,3.5128732 L-19.275282,3.4265091 L-19.258568,3.3403802 L-19.24188,3.2545204 L-19.225424,3.1689603 L-19.20941,3.083727 L-19.19404,2.9988427 L-19.179516,2.9143267 L-19.16603,2.830193 L-19.153772,2.7464526 L-19.142923,2.6631112 L-19.133656,2.580171 L-19.126131,2.4976296 L-19.1205,2.4154809 L-19.116905,2.3337147 L-19.115475,2.252317 L-19.11632,2.1712704 L-19.119543,2.0905538 L-19.125233,2.0101428 L-19.133455,1.9300109 L-19.144268,1.8501282 L-19.157711,1.7704625 L-19.173807,1.6909798 L-19.192562,1.6116445 L-19.213966,1.5324191 L-19.237995,1.4532655 L-19.264605,1.374145 L-19.293736,1.2950182 L-19.325315,1.2158457 L-19.359251,1.1365889 L-19.39544,1.0572096 L-19.433758,0.9776708 L-19.474077,0.8979366 L-19.516247,0.81797314 L-19.560112,0.7377483 L-19.605497,0.6572326 L-19.652225,0.57639855 L-19.700106,0.49522194 L-19.74894,0.4136813 L-19.79852,0.3317584 L-19.848635,0.24943842 L-19.899067,0.16670993 L-19.949596,0.08356516 L-20,0.000000000000011331077 L-20.050053,-0.083985955 L-20.09953,-0.16838937 L-20.148209,-0.25320318 L-20.195866,-0.33841667 L-20.242289,-0.4240155 L-20.287262,-0.5099819 L-20.33058,-0.59629464 L-20.372046,-0.68292946 L-20.411469,-0.76985896 L-20.448666,-0.85705304 L-20.483469,-0.944479 L-20.51572,-1.032102 L-20.54527,-1.119885 L-20.57199,-1.2077893 L-20.595755,-1.295775 L-20.616463,-1.3838011 L-20.634022,-1.4718257 L-20.648361,-1.5598066 L-20.659418,-1.6477017 L-20.667152,-1.7354693 L-20.671537,-1.823068 L-20.672564,-1.9104578 L-20.670238,-1.9976001 L-20.664585,-2.0844576 L-20.655643,-2.1709957 L-20.643469,-2.2571814 L-20.628132,-2.3429852 L-20.60972,-2.4283795 L-20.588333,-2.5133407 L-20.564087,-2.5978484 L-20.53711,-2.6818857 L-20.507542,-2.7654393 L-20.475533,-2.8485003 L-20.44125,-2.9310637 L-20.404863,-3.013128 L-20.366554,-3.094697 L-20.326511,-3.175778 L-20.284931,-3.2563825 L-20.242014,-3.3365264 L-20.197962,-3.4162295 L-20.152985,-3.4955158 L-20.107292,-3.574413 L-20.06109,-3.6529524 L-20.014593,-3.731169 L-19.968002,-3.8091002 L-19.921524,-3.8867874 L-19.875357,-3.964274 L-19.829693,-4.0416055 L-19.784721,-4.1188307 L-19.740618,-4.195998 L-19.697556,-4.2731586 L-19.655691,-4.350364 L-19.615177,-4.4276667 L-19.57615,-4.5051174 L-19.538734,-4.582769 L-19.503044,-4.6606717 L-19.469177,-4.738875 L-19.437218,-4.817426 L-19.407236,-4.896372 L-19.379286,-4.9757547 L-19.353407,-5.0556154 L-19.32962,-5.13599 L-19.307938,-5.2169123 L-19.28835,-5.298412 L-19.270832,-5.3805127 L-19.255346,-5.4632354 L-19.241838,-5.5465956 L-19.23024,-5.630603 L-19.220469,-5.7152624 L-19.212425,-5.8005733 L-19.206001,-5.886529 L-19.201075,-5.9731174 L-19.19751,-6.06032 L-19.195162,-6.1481137 L-19.193876,-6.2364683 L-19.193487,-6.325349 L-19.19382,-6.414714 L-19.1947,-6.5045166 L-19.19594,-6.5947056 L-19.197348,-6.6852236 L-19.19873,-6.776009 L-19.19989,-6.866996 L-19.200632,-6.958113 L-19.200754,-7.049287 L-19.200064,-7.1404395 L-19.19836,-7.23149 L-19.195457,-7.3223557 L-19.191164,-7.4129515 L-19.185303,-7.503191 L-19.177694,-7.592986 L-19.168173,-7.6822495 L-19.156582,-7.770893 L-19.14277,-7.85883 L-19.126602,-7.945974 L-19.107946,-8.032241 L-19.08669,-8.11755 L-19.06273,-8.201822 L-19.035978,-8.284982 L-19.00636,-8.366958 L-18.97381,-8.447684 L-18.938286,-8.5271 L-18.899752,-8.605147 L-18.858194,-8.681777 L-18.81361,-8.756946 L-18.766014,-8.830616 L-18.715431,-8.902758 L-18.66191,-8.973349 L-18.605501,-9.042373 L-18.54628,-9.109824 L-18.484335,-9.175703 L-18.41976,-9.240018 L-18.352669,-9.302787 L-18.283186,-9.364034 L-18.211445,-9.423792 L-18.13759,-9.482103 L-18.061779,-9.539017 L-17.984175,-9.594588 L-17.904947,-9.648884 L-17.824274,-9.701974 L-17.742344,-9.753936 L-17.659342,-9.804855 L-17.575462,-9.854823 L-17.490898,-9.903935 L-17.405848,-9.952292 L-17.320509,-10 L-17.235075,-10.047168 L-17.149742,-10.093908 L-17.064701,-10.140337 L-16.98014,-10.186571 L-16.896242,-10.232728 L-16.81318,-10.278928 L-16.731127,-10.325289 L-16.650242,-10.371929 L-16.570679,-10.418964 L-16.49258,-10.466509 L-16.416077,-10.514674 L-16.341293,-10.563567 L-16.268337,-10.61329 L-16.197308,-10.66394 L-16.12829,-10.7156105 L-16.061356,-10.768387 L-15.996565,-10.822347 L-15.93396,-10.8775625 L-15.873574,-10.934097 L-15.815424,-10.992006 L-15.759514,-11.051335 L-15.705833,-11.112121 L-15.654359,-11.174392 L-15.605053,-11.238166 L-15.557865,-11.303451 L-15.512734,-11.370245 L-15.4695835,-11.438536 L-15.428328,-11.508301 L-15.388869,-11.579509 L-15.351099,-11.652118 L-15.3149,-11.726076 L-15.280147,-11.801321 L-15.246702,-11.877784 L-15.214427,-11.955384 L-15.183172,-12.034034 L-15.152784,-12.113639 L-15.123105,-12.194095 L-15.093974,-12.2752905 L-15.065226,-12.357113 L-15.036696,-12.439437 L-15.00822,-12.522139 L-14.9796295,-12.605085 L-14.950762,-12.688143 L-14.921456,-12.771176 L-14.891555,-12.854045 L-14.860903,-12.936611 L-14.829351,-13.018735 L-14.79676,-13.100278 L-14.76299,-13.181102 L-14.727915,-13.261074 L-14.691415,-13.340062 L-14.6533785,-13.41794 L-14.613705,-13.494586 L-14.572301,-13.569883 L-14.529089,-13.643723 L-14.483996,-13.7160015 L-14.436965,-13.786626 L-14.387949,-13.85551 L-14.336912,-13.922577 L-14.283831,-13.987761 L-14.228693,-14.051004 L-14.1715,-14.112263 L-14.112263,-14.1715 L-14.051004,-14.228693 L-13.987761,-14.283831 L-13.922577,-14.336912 L-13.85551,-14.387949 L-13.786626,-14.436965 L-13.7160015,-14.483996 L-13.643723,-14.529089 L-13.569883,-14.572301 L-13.494586,-14.613705 L-13.41794,-14.6533785 L-13.340062,-14.691415 L-13.261074,-14.727915 L-13.181102,-14.76299 L-13.100278,-14.79676 L-13.018735,-14.829351 L-12.936611,-14.860903 L-12.854045,-14.891555 L-12.771176,-14.921456 L-12.688143,-14.950762 L-12.605085,-14.9796295 L-12.522139,-15.00822 L-12.439437,-15.036696 L-12.357113,-15.065226 L-12.2752905,-15.093974 L-12.194095,-15.123105 L-12.113639,-15.152784 L-12.034034,-15.183172 L-11.955384,-15.214427 L-11.877784,-15.246702 L-11.801321,-15.280147 L-11.726076,-15.3149 L-11.652118,-15.351099 L-11.579509,-15.388869 L-11.508301,-15.428328 L-11.438536,-15.4695835 L-11.370245,-15.512734 L-11.303451,-15.557865 L-11.238166,-15.605053 L-11.174392,-15.654359 L-11.112121,-15.705833 L-11.051335,-15.759514 L-10.992006,-15.815424 L-10.934097,-15.873574 L-10.8775625,-15.93396 L-10.822347,-15.996565 L-10.768387,-16.061356 L-10.7156105,-16.12829 L-10.66394,-16.197308 L-10.61329,-16.268337 L-10.563567,-16.341293 L-10.514674,-16.416077 L-10.466509,-16.49258 L-10.418964,-16.570679 L-10.371929,-16.650242 L-10.325289,-16.731127 L-10.278928,-16.81318 L-10.232728,-16.896242 L-10.186571,-16.98014 L-10.140337,-17.064701 L-10.093908,-17.149742 L-10.047168,-17.235075 L-10,-17.320509 L-9.952292,-17.405848 L-9.903935,-17.490898 L-9.854823,-17.575462 L-9.804855,-17.659342 L-9.753936,-17.742344 L-9.701974,-17.824274 L-9.648884,-17.904947 L-9.594588,-17.984175 L-9.539017,-18.061779 L-9.482103,-18.13759 L-9.423792,-18.211445 L-9.364034,-18.283186 L-9.302787,-18.352669 L-9.240018,-18.41976 L-9.175703,-18.484335 L-9.109824,-18.54628 L-9.042373,-18.605501 L-8.973349,-18.66191 L-8.902758,-18.715431 L-8.830616,-18.766014 L-8.756946,-18.81361 L-8.681777,-18.858194 L-8.605147,-18.899752 L-8.5271,-18.938286 L-8.447684,-18.97381 L-8.366958,-19.00636 L-8.284982,-19.035978 L-8.201822,-19.06273 L-8.11755,-19.08669 L-8.032241,-19.107946 L-7.945974,-19.126602 L-7.85883,-19.14277 L-7.770893,-19.156582 L-7.6822495,-19.168173 L-7.592986,-19.177694 L-7.503191,-19.185303 L-7.4129515,-19.191164 L-7.3223557,-19.195457 L-7.23149,-19.19836 L-7.1404395,-19.200064 L-7.049287,-19.200754 L-6.958113,-19.200632 L-6.866996,-19.19989 L-6.776009,-19.19873 L-6.6852236,-19.197348 L-6.5947056,-19.19594 L-6.5045166,-19.1947 L-6.414714,-19.19382 L-6.325349,-19.193487 L-6.2364683,-19.193876 L-6.1481137,-19.195162 L-6.06032,-19.19751 L-5.9731174,-19.201075 L-5.886529,-19.206001 L-5.8005733,-19.212425 L-5.7152624,-19.220469 L-5.630603,-19.23024 L-5.5465956,-19.241838 L-5.4632354,-19.255346 L-5.3805127,-19.270832 L-5.298412,-19.28835 L-5.2169123,-19.307938 L-5.13599,-19.32962 L-5.0556154,-19.353407 L-4.9757547,-19.379286 L-4.896372,-19.407236 L-4.817426,-19.437218 L-4.738875,-19.469177 L-4.6606717,-19.503044 L-4.582769,-19.538734 L-4.5051174,-19.57615 L-4.4276667,-19.615177 L-4.350364,-19.655691 L-4.2731586,-19.697556 L-4.195998,-19.740618 L-4.1188307,-19.784721 L-4.0416055,-19.829693 L-3.964274,-19.875357 L-3.8867874,-19.921524 L-3.8091002,-19.968002 L-3.731169,-20.014593 L-3.6529524,-20.06109 L-3.574413,-20.107292 L-3.4955158,-20.152985 L-3.4162295,-20.197962 L-3.3365264,-20.242014 L-3.2563825,-20.284931 L-3.175778,-20.326511 L-3.094697,-20.366554 L-3.013128,-20.404863 L-2.9310637,-20.44125 L-2.8485003,-20.475533 L-2.7654393,-20.507542 L-2.6818857,-20.53711 L-2.5978484,-20.564087 L-2.5133407,-20.588333 L-2.4283795,-20.60972 L-2.3429852,-20.628132 L-2.2571814,-20.643469 L-2.1709957,-20.655643 L-2.0844576,-20.664585 L-1.9976001,-20.670238 L-1.9104578,-20.672564 L-1.823068,-20.671537 L-1.7354693,-20.667152 L-1.6477017,-20.659418 L-1.5598066,-20.648361 L-1.4718257,-20.634022 L-1.3838011,-20.616463 L-1.295775,-20.595755 L-1.2077893,-20.57199 L-1.119885,-20.54527 L-1.032102,-20.51572 L-0.944479,-20.483469 L-0.85705304,-20.448666 L-0.76985896,-20.411469 L-0.68292946,-20.372046 L-0.59629464,-20.33058 L-0.5099819,-20.287262 L-0.4240155,-20.242289 L-0.33841667,-20.195866 L-0.25320318,-20.148209 L-0.16838937,-20.09953 L-0.083985955,-20.050053 L-0.00000000000000367394,-20 L0.08356516,-19.949596 L0.16670993,-19.899067 L0.24943842,-19.848635 L0.3317584,-19.79852 L0.4136813,-19.74894 L0.49522194,-19.700106 L0.57639855,-19.652225 L0.6572326,-19.605497 L0.7377483,-19.560112 L0.81797314,-19.516247 L0.8979366,-19.474077 L0.9776708,-19.433758 L1.0572096,-19.39544 L1.1365889,-19.359251 L1.2158457,-19.325315 L1.2950182,-19.293736 L1.374145,-19.264605 L1.4532655,-19.237995 L1.5324191,-19.213966 L1.6116445,-19.192562 L1.6909798,-19.173807 L1.7704625,-19.157711 L1.8501282,-19.144268 L1.9300109,-19.133455 L2.0101428,-19.125233 L2.0905538,-19.119543 L2.1712704,-19.11632 L2.252317,-19.115475 L2.3337147,-19.116905 L2.4154809,-19.1205 L2.4976296,-19.126131 L2.580171,-19.133656 L2.6631112,-19.142923 L2.7464526,-19.153772 L2.830193,-19.16603 L2.9143267,-19.179516 L2.9988427,-19.19404 L3.083727,-19.20941 L3.1689603,-19.225424 L3.2545204,-19.24188 L3.3403802,-19.258568 L3.4265091,-19.275282 L3.5128732,-19.291811 L3.5994346,-19.30795 L3.6861525,-19.323488 L3.7729828,-19.338224 L3.8598795,-19.351963 L3.9467936,-19.364508 L4.0336742,-19.375675 L4.1204696,-19.385286 L4.2071257,-19.39317 L4.293588,-19.399168 L4.379802,-19.403131 L4.465713,-19.404924 L4.5512657,-19.40442 L4.6364074,-19.401508 L4.721085,-19.396091 L4.8052487,-19.388084 L4.8888493,-19.377419 L4.9718404,-19.36404 L5.05418,-19.347912 L5.135828,-19.32901 L5.2167478,-19.307327 L5.296908,-19.282873 L5.3762803,-19.25567 L5.4548416,-19.225761 L5.5325747,-19.193197 L5.609466,-19.15805 L5.685508,-19.120403 L5.760699,-19.080355 L5.8350415,-19.038013 L5.908546,-18.993507 L5.9812274,-18.946966 L6.0531073,-18.89854 L6.1242113,-18.848385 L6.1945734,-18.796665 L6.2642307,-18.743553 L6.3332276,-18.689232 L6.4016137,-18.633886 L6.469442,-18.577707 L6.5367727,-18.520891 L6.603668,-18.463634 L6.670197,-18.406137 L6.73643,-18.3486 L6.8024426,-18.291216 L6.8683124,-18.234186 L6.934119,-18.1777 L6.9999466,-18.121948 L7.065877,-18.067112 L7.131996,-18.013365 L7.1983886,-17.96088 L7.2651396,-17.909813 L7.332334,-17.860317 L7.4000545,-17.81253 L7.4683824,-17.76658 L7.537397,-17.722584 L7.6071734,-17.680645 L7.677785,-17.640854 L7.7492995,-17.603287 L7.821781,-17.568008 L7.895289,-17.535063 L7.9698763,-17.504486 L8.04559,-17.476295 L8.122472,-17.450493 L8.200556,-17.427069 L8.279869,-17.405993 L8.360433,-17.387226 L8.442258,-17.37071 L8.52535,-17.356375 L8.609704,-17.344137 L8.695311,-17.333897 L8.782148,-17.325546 L8.870192,-17.318964 L8.959402,-17.314014 L9.049738,-17.310553 L9.141147,-17.308428 L9.233568,-17.307476 L9.326937,-17.307526 L9.421178,-17.308403 L9.516211,-17.309923 L9.611948,-17.3119 L9.708297,-17.31414 L9.805159,-17.316452 L9.902429,-17.31864 L10,-17.320509 L10.09776,-17.321861 L10.195594,-17.322508 L10.293385,-17.322258 L10.39101,-17.320925 L10.488353,-17.318329 L10.585288,-17.314293 L10.681697,-17.308651 L10.777457,-17.301245 L10.872452,-17.29192 L10.966562,-17.280537 L11.059677,-17.266966 L11.151687,-17.251083 L11.242484,-17.232784 L11.33197,-17.211971 L11.420052,-17.188559 L11.506639,-17.16248 L11.59165,-17.133675 L11.675013,-17.102102 L11.75666,-17.06773 L11.836536,-17.030544 L11.914592,-16.990543 L11.9907875,-16.947737 L12.065092,-16.902153 L12.137486,-16.853827 L12.207959,-16.802814 L12.276511,-16.749178 L12.343151,-16.692993 L12.407898,-16.634352 L12.470783,-16.573349 L12.531846,-16.510098 L12.591136,-16.444715 L12.648711,-16.377333 L12.70464,-16.308083 L12.759001,-16.23711 L12.811877,-16.164566 L12.863363,-16.090605 L12.91356,-16.015387 L12.962576,-15.9390745 L13.010523,-15.861835 L13.057523,-15.7838335 L13.103698,-15.705239 L13.1491785,-15.626219 L13.194096,-15.546938 L13.238584,-15.467562 L13.282779,-15.3882475 L13.326818,-15.309153 L13.37084,-15.230427 L13.41498,-15.152216 L13.4593725,-15.074656 L13.50415,-14.997878 L13.549441,-14.922004 L13.595372,-14.847146 L13.64206,-14.773409 L13.689621,-14.700885 L13.738162,-14.629657 L13.787783,-14.559796 L13.838574,-14.491365 L13.890623,-14.424412 L13.944,-14.3589735 L13.998773,-14.295076 L14.054995,-14.232734 L14.112708,-14.1719475 L14.1719475,-14.112708 L14.232734,-14.054995 L14.295076,-13.998773 L14.3589735,-13.944 L14.424412,-13.890623 L14.491365,-13.838574 L14.559796,-13.787783 L14.629657,-13.738162 L14.700885,-13.689621 L14.773409,-13.64206 L14.847146,-13.595372 L14.922004,-13.549441 L14.997878,-13.50415 L15.074656,-13.4593725 L15.152216,-13.41498 L15.230427,-13.37084 L15.309153,-13.326818 L15.3882475,-13.282779 L15.467562,-13.238584 L15.546938,-13.194096 L15.626219,-13.1491785 L15.705239,-13.103698 L15.7838335,-13.057523 L15.861835,-13.010523 L15.9390745,-12.962576 L16.015387,-12.91356 L16.090605,-12.863363 L16.164566,-12.811877 L16.23711,-12.759001 L16.308083,-12.70464 L16.377333,-12.648711 L16.444715,-12.591136 L16.510098,-12.531846 L16.573349,-12.470783 L16.634352,-12.407898 L16.692993,-12.343151 L16.749178,-12.276511 L16.802814,-12.207959 L16.853827,-12.137486 L16.902153,-12.065092 L16.947737,-11.9907875 L16.990543,-11.914592 L17.030544,-11.836536 L17.06773,-11.75666 L17.102102,-11.675013 L17.133675,-11.59165 L17.16248,-11.506639 L17.188559,-11.420052 L17.211971,-11.33197 L17.232784,-11.242484 L17.251083,-11.151687 L17.266966,-11.059677 L17.280537,-10.966562 L17.29192,-10.872452 L17.301245,-10.777457 L17.308651,-10.681697 L17.314293,-10.585288 L17.318329,-10.488353 L17.320925,-10.39101 L17.322258,-10.293385 L17.322508,-10.195594 L17.321861,-10.09776 L17.320509,-10 L17.31864,-9.902429 L17.316452,-9.805159 L17.31414,-9.708297 L17.3119,-9.611948 L17.309923,-9.516211 L17.308403,-9.421178 L17.307526,-9.326937 L17.307476,-9.233568 L17.308428,-9.141147 L17.310553,-9.049738 L17.314014,-8.959402 L17.318964,-8.870192 L17.325546,-8.782148 L17.333897,-8.695311 L17.344137,-8.609704 L17.356375,-8.52535 L17.37071,-8.442258 L17.387226,-8.360433 L17.405993,-8.279869 L17.427069,-8.200556 L17.450493,-8.122472 L17.476295,-8.04559 L17.504486,-7.9698763 L17.535063,-7.895289 L17.568008,-7.821781 L17.603287,-7.7492995 L17.640854,-7.677785 L17.680645,-7.6071734 L17.722584,-7.537397 L17.76658,-7.4683824 L17.81253,-7.4000545 L17.860317,-7.332334 L17.909813,-7.2651396 L17.96088,-7.1983886 L18.013365,-7.131996 L18.067112,-7.065877 L18.121948,-6.9999466 L18.1777,-6.934119 L18.234186,-6.8683124 L18.291216,-6.8024426 L18.3486,-6.73643 L18.406137,-6.670197 L18.463634,-6.603668 L18.520891,-6.5367727 L18.577707,-6.469442 L18.633886,-6.4016137 L18.689232,-6.3332276 L18.743553,-6.2642307 L18.796665,-6.1945734 L18.848385,-6.1242113 L18.89854,-6.0531073 L18.946966,-5.9812274 L18.993507,-5.908546 L19.038013,-5.8350415 L19.080355,-5.760699 L19.120403,-5.685508 L19.15805,-5.609466 L19.193197,-5.5325747 L19.225761,-5.4548416 L19.25567,-5.3762803 L19.282873,-5.296908 L19.307327,-5.2167478 L19.32901,-5.135828 L19.347912,-5.05418 L19.36404,-4.9718404 L19.377419,-4.8888493 L19.388084,-4.8052487 L19.396091,-4.721085 L19.401508,-4.6364074 L19.40442,-4.5512657 L19.404924,-4.465713 L19.403131,-4.379802 L19.399168,-4.293588 L19.39317,-4.2071257 L19.385286,-4.1204696 L19.375675,-4.0336742 L19.364508,-3.9467936 L19.351963,-3.8598795 L19.338224,-3.7729828 L19.323488,-3.6861525 L19.30795,-3.5994346 L19.291811,-3.5128732 L19.275282,-3.4265091 L19.258568,-3.3403802 L19.24188,-3.2545204 L19.225424,-3.1689603 L19.20941,-3.083727 L19.19404,-2.9988427 L19.179516,-2.9143267 L19.16603,-2.830193 L19.153772,-2.7464526 L19.142923,-2.6631112 L19.133656,-2.580171 L19.126131,-2.4976296 L19.1205,-2.4154809 L19.116905,-2.3337147 L19.115475,-2.252317 L19.11632,-2.1712704 L19.119543,-2.0905538 L19.125233,-2.0101428 L19.133455,-1.9300109 L19.144268,-1.8501282 L19.157711,-1.7704625 L19.173807,-1.6909798 L19.192562,-1.6116445 L19.213966,-1.5324191 L19.237995,-1.4532655 L19.264605,-1.374145 L19.293736,-1.2950182 L19.325315,-1.2158457 L19.359251,-1.1365889 L19.39544,-1.0572096 L19.433758,-0.9776708 L19.474077,-0.8979366 L19.516247,-0.81797314 L19.560112,-0.7377483 L19.605497,-0.6572326 L19.652225,-0.57639855 L19.700106,-0.49522194 L19.74894,-0.4136813 L19.79852,-0.3317584 L19.848635,-0.24943842 L19.899067,-0.16670993 L19.949596,-0.08356516 L20,-0.000000000000022662155" fill="none" stroke="black" stroke-width="0.1"/>
<path d="M20.042952,-0.02559719 L20.093096,0.05854436 L20.14278,0.14330173 L20.19171,0.22855505 L20.239662,0.31429476 L20.286417,0.40050796 L20.331758,0.48717844 L20.375477,0.5742867 L20.417366,0.66181004 L20.457233,0.74972254 L20.494892,0.8379952 L20.530163,0.92659575 L20.56288,1.0154891 L20.59289,1.1046369 L20.620049,1.1939983 L20.644232,1.2835294 L20.665321,1.3731837 L20.683222,1.4629122 L20.697847,1.5526638 L20.709135,1.6423858 L20.717033,1.7320242 L20.721514,1.8215241 L20.722563,1.9108311 L20.720186,1.999891 L20.714409,2.0886517 L20.705275,2.1770632 L20.69284,2.2650785 L20.677189,2.3526547 L20.65841,2.439753 L20.636614,2.5263398 L20.611927,2.6123862 L20.584486,2.697869 L20.554441,2.7827706 L20.521954,2.8670785 L20.487196,2.9507856 L20.450348,3.0338902 L20.4116,3.1163957 L20.371147,3.1983101 L20.32919,3.2796466 L20.285933,3.3604221 L20.241589,3.4406583 L20.196363,3.5203805 L20.150475,3.5996182 L20.10413,3.6784034 L20.05754,3.7567723 L20.010914,3.8347635 L19.964455,3.9124188 L19.918362,3.9897816 L19.872826,4.0668983 L19.82803,4.143817 L19.784155,4.220587 L19.741364,4.2972593 L19.699814,4.3738866 L19.659647,4.4505224 L19.621,4.5272202 L19.583988,4.6040344 L19.548717,4.6810203 L19.515278,4.7582326 L19.48375,4.8357253 L19.454191,4.913552 L19.426653,4.991766 L19.401165,5.0704174 L19.377745,5.1495557 L19.356398,5.2292266 L19.33711,5.309472 L19.319859,5.3903303 L19.3046,5.471835 L19.291285,5.554014 L19.279842,5.636889 L19.270195,5.7204757 L19.262247,5.804783 L19.255894,5.889812 L19.251015,5.9755588 L19.247482,6.0620093 L19.245152,6.149146 L19.243874,6.236942 L19.243486,6.3253646 L19.24382,6.4143753 L19.244698,6.503928 L19.245935,6.5939736 L19.247341,6.6844544 L19.248726,6.7753096 L19.249887,6.8664737 L19.250631,6.957876 L19.250755,7.049443 L19.25006,7.1410966 L19.248344,7.2327557 L19.245419,7.3243375 L19.241085,7.4157557 L19.235163,7.5069222 L19.227467,7.5977483 L19.217825,7.688143 L19.206072,7.778014 L19.192053,7.8672705 L19.175623,7.9558196 L19.156645,8.0435705 L19.135002,8.130433 L19.110584,8.216316 L19.083298,8.301136 L19.053066,8.384806 L19.019825,8.467245 L18.98353,8.548379 L18.944153,8.628137 L18.901682,8.706453 L18.85612,8.783271 L18.80749,8.85854 L18.755829,8.9322195 L18.701195,9.004277 L18.643652,9.074692 L18.583286,9.143449 L18.520193,9.2105465 L18.454485,9.275991 L18.386284,9.339801 L18.31572,9.402 L18.242939,9.4626255 L18.168095,9.521721 L18.091345,9.579338 L18.012863,9.635539 L17.932823,9.690392 L17.85141,9.743971 L17.768806,9.796359 L17.68521,9.847644 L17.600811,9.897921 L17.51581,9.947288 L17.430403,9.995847 L17.34479,10.043708 L17.259169,10.090981 L17.173733,10.137777 L17.088675,10.184216 L17.004185,10.230411 L16.920444,10.27648 L16.837631,10.322542 L16.755915,10.368712 L16.675453,10.415108 L16.596401,10.461841 L16.5189,10.509021 L16.443077,10.556757 L16.369055,10.605152 L16.296934,10.6543045 L16.226809,10.70431 L16.158754,10.755259 L16.092836,10.807232 L16.029102,10.860311 L15.9675865,10.914566 L15.908305,10.970066 L15.851263,11.026871 L15.796452,11.085033 L15.743846,11.144602 L15.693411,11.205616 L15.645098,11.2681055 L15.598846,11.332096 L15.554588,11.397598 L15.512242,11.464618 L15.471718,11.533146 L15.432919,11.603166 L15.395736,11.674647 L15.360054,11.747551 L15.325749,11.821823 L15.292692,11.897404 L15.260745,11.974217 L15.229762,12.052183 L15.199596,12.131207 L15.170093,12.211189 L15.141092,12.292021 L15.112434,12.373586 L15.083956,12.455763 L15.055492,12.5384245 L15.026879,12.621439 L14.9979515,12.704671 L14.968548,12.787982 L14.938508,12.871232 L14.907678,12.954278 L14.875904,13.03698 L14.843042,13.119195 L14.808954,13.200782 L14.773506,13.281604 L14.736575,13.361523 L14.698047,13.440406 L14.657816,13.518126 L14.615788,13.594559 L14.57188,13.669585 L14.52602,13.7430935 L14.478148,13.8149805 L14.428219,13.885147 L14.376198,13.953506 L14.322065,14.01998 L14.265817,14.084499 L14.207457,14.147006 L14.147006,14.207457 L14.084499,14.265817 L14.01998,14.322065 L13.953506,14.376198 L13.885147,14.428219 L13.8149805,14.478148 L13.7430935,14.52602 L13.669585,14.57188 L13.594559,14.615788 L13.518126,14.657816 L13.440406,14.698047 L13.361523,14.736575 L13.281604,14.773506 L13.200782,14.808954 L13.119195,14.843042 L13.03698,14.875904 L12.954278,14.907678 L12.871232,14.938508 L12.787982,14.968548 L12.704671,14.9979515 L12.621439,15.026879 L12.5384245,15.055492 L12.455763,15.083956 L12.373586,15.112434 L12.292021,15.141092 L12.211189,15.170093 L12.131207,15.199596 L12.052183,15.229762 L11.974217,15.260745 L11.897404,15.292692 L11.821823,15.325749 L11.747551,15.360054 L11.674647,15.395736 L11.603166,15.432919 L11.533146,15.471718 L11.464618,15.512242 L11.397598,15.554588 L11.332096,15.598846 L11.2681055,15.645098 L11.205616,15.693411 L11.144602,15.743846 L11.085033,15.796452 L11.026871,15.851263 L10.970066,15.908305 L10.914566,15.9675865 L10.860311,16.029102 L10.807232,16.092836 L10.755259,16.158754 L10.70431,16.226809 L10.6543045,16.296934 L10.605152,16.369055 L10.556757,16.443077 L10.509021,16.5189 L10.461841,16.596401 L10.415108,16.675453 L10.368712,16.755915 L10.322542,16.837631 L10.27648,16.920444 L10.230411,17.004185 L10.184216,17.088675 L10.137777,17.173733 L10.090981,17.259169 L10.043708,17.34479 L9.995847,17.430403 L9.947288,17.51581 L9.897921,17.600811 L9.847644,17.68521 L9.796359,17.768806 L9.743971,17.85141 L9.690392,17.932823 L9.635539,18.012863 L9.579338,18.091345 L9.521721,18.168095 L9.4626255,18.242939 L9.402,18.31572 L9.339801,18.386284 L9.275991,18.454485 L9.2105465,18.520193 L9.143449,18.583286 L9.074692,18.643652 L9.004277,18.701195 L8.9322195,18.755829 L8.85854,18.80749 L8.783271,18.85612 L8.706453,18.901682 L8.628137,18.944153 L8.548379,18.98353 L8.467245,19.019825 L8.384806,19.053066 L8.301136,19.083298 L8.216316,19.110584 L8.130433,19.135002 L8.0435705,19.156645 L7.9558196,19.175623 L7.8672705,19.192053 L7.778014,19.206072 L7.688143,19.217825 L7.5977483,19.227467 L7.5069222,19.235163 L7.4157557,19.241085 L7.3243375,19.245419 L7.2327557,19.248344 L7.1410966,19.25006 L7.049443,19.250755 L6.957876,19.250631 L6.8664737,19.249887 L6.7753096,19.248726 L6.6844544,19.247341 L6.5939736,19.245935 L6.503928,19.244698 L6.4143753,19.24382 L6.3253646,19.243486 L6.236942,19.243874 L6.149146,19.245152 L6.0620093,19.247482 L5.9755588,19.251015 L5.889812,19.255894 L5.804783,19.262247 L5.7204757,19.270195 L5.636889,19.279842 L5.554014,19.291285 L5.471835,19.3046 L5.3903303,19.319859 L5.309472,19.33711 L5.2292266,19.356398 L5.1495557,19.377745 L5.0704174,19.401165 L4.991766,19.426653 L4.913552,19.454191 L4.8357253,19.48375 L4.7582326,19.515278 L4.6810203,19.548717 L4.6040344,19.583988 L4.5272202,19.621 L4.4505224,19.659647 L4.3738866,19.699814 L4.2972593,19.741364 L4.220587,19.784155 L4.143817,19.82803 L4.0668983,19.872826 L3.9897816,19.918362 L3.9124188,19.964455 L3.8347635,20.010914 L3.7567723,20.05754 L3.6784034,20.10413 L3.5996182,20.150475 L3.5203805,20.196363 L3.4406583,20.241589 L3.3604221,20.285933 L3.2796466,20.32919 L3.1983101,20.371147 L3.1163957,20.4116 L3.0338902,20.450348 L2.9507856,20.487196 L2.8670785,20.521954 L2.7827706,20.554441 L2.697869,20.584486 L2.6123862,20.611927 L2.5263398,20.636614 L2.439753,20.65841 L2.3526547,20.677189 L2.2650785,20.69284 L2.1770632,20.705275 L2.0886517,20.714409 L1.999891,20.720186 L1.9108311,20.722563 L1.8215241,20.721514 L1.7320242,20.717033 L1.6423858,20.709135 L1.5526638,20.697847 L1.4629122,20.683222 L1.3731837,20.665321 L1.2835294,20.644232 L1.1939983,20.620049 L1.1046369,20.59289 L1.0154891,20.56288 L0.92659575,20.530163 L0.8379952,20.494892 L0.74972254,20.457233 L0.66181004,20.417366 L0.5742867,20.375477 L0.48717844,20.331758 L0.40050796,20.286417 L0.31429476,20.239662 L0.22855505,20.19171 L0.14330173,20.14278 L0.05854436,20.093096 L-0.025710842,20.042883 L-0.10946102,19.992369 L-0.19270664,19.941776 L-0.27545148,19.891335 L-0.3577026,19.84126 L-0.43947023,19.791775 L-0.52076775,19.743088 L-0.60161155,19.695404 L-0.682021,19.64892 L-0.7620185,19.603827 L-0.8416291,19.560297 L-0.9208807,19.518501 L-0.99980384,19.478592 L-1.078432,19.44071 L-1.156801,19.404984 L-1.2349495,19.371521 L-1.3129189,19.340422 L-1.3907531,19.311766 L-1.4684985,19.285618 L-1.5462034,19.26203 L-1.6239182,19.241032 L-1.7016947,19.222645 L-1.7795854,19.206871 L-1.8576424,19.1937 L-1.9359173,19.183105 L-2.0144594,19.175045 L-2.0933158,19.169468 L-2.1725292,19.166304 L-2.2521384,19.165474 L-2.332177,19.166882 L-2.4126735,19.170422 L-2.4936504,19.175972 L-2.5751247,19.1834 L-2.6571076,19.192562 L-2.7396045,19.2033 L-2.8226154,19.215452 L-2.9061353,19.22884 L-2.9901538,19.24328 L-3.074656,19.258581 L-3.1596224,19.274546 L-3.245029,19.29097 L-3.3308477,19.307652 L-3.4170473,19.324379 L-3.503592,19.340942 L-3.5904434,19.357134 L-3.6775594,19.372744 L-3.7648954,19.387568 L-3.8524039,19.401402 L-3.9400346,19.41405 L-4.0277357,19.425322 L-4.115453,19.435034 L-4.2031302,19.44301 L-4.2907095,19.449085 L-4.3781323,19.453104 L-4.4653387,19.454924 L-4.5522676,19.45441 L-4.6388583,19.451448 L-4.7250495,19.445934 L-4.810781,19.437777 L-4.8959923,19.426907 L-4.980626,19.413263 L-5.0646257,19.396809 L-5.1479387,19.377522 L-5.230515,19.355394 L-5.3123097,19.330442 L-5.393283,19.302692 L-5.473399,19.27219 L-5.55263,19.238998 L-5.630954,19.203197 L-5.7083554,19.164879 L-5.784826,19.124147 L-5.860365,19.081127 L-5.9349785,19.035948 L-6.0086794,18.988756 L-6.0814877,18.939705 L-6.15343,18.88896 L-6.2245393,18.836689 L-6.2948546,18.783077 L-6.364421,18.728308 L-6.433288,18.672573 L-6.501512,18.616068 L-6.5691514,18.55899 L-6.6362715,18.501543 L-6.7029395,18.443926 L-6.769227,18.386341 L-6.835208,18.328985 L-6.9009595,18.272057 L-6.96656,18.215748 L-7.0320907,18.160246 L-7.097633,18.105732 L-7.1632695,18.052378 L-7.2290835,18.000349 L-7.2951584,17.9498 L-7.3615766,17.900875 L-7.4284215,17.853704 L-7.4957743,17.808409 L-7.563717,17.765095 L-7.632328,17.723856 L-7.701687,17.68477 L-7.771869,17.647903 L-7.8429494,17.613306 L-7.914999,17.581015 L-7.988085,17.551054 L-8.06227,17.523432 L-8.137611,17.498146 L-8.214162,17.475182 L-8.291964,17.454508 L-8.371052,17.436085 L-8.451455,17.419857 L-8.53319,17.405756 L-8.616263,17.393703 L-8.700672,17.38361 L-8.7864065,17.375366 L-8.873441,17.368858 L-8.961745,17.363958 L-9.051276,17.360529 L-9.141985,17.35842 L-9.233812,17.357475 L-9.326691,17.357525 L-9.420546,17.358398 L-9.515295,17.359915 L-9.610851,17.361887 L-9.707119,17.364126 L-9.804,17.366438 L-9.901388,17.36863 L-9.999175,17.3705 L-10.097249,17.371859 L-10.195493,17.372509 L-10.29379,17.372257 L-10.392018,17.370914 L-10.490059,17.3683 L-10.587789,17.364231 L-10.685085,17.358538 L-10.781828,17.351053 L-10.877895,17.341623 L-10.97317,17.3301 L-11.067536,17.316343 L-11.160879,17.300232 L-11.253088,17.281647 L-11.344058,17.260487 L-11.433685,17.236664 L-11.5218725,17.210102 L-11.60853,17.180738 L-11.69357,17.148531 L-11.776916,17.113443 L-11.858494,17.075466 L-11.938243,17.034595 L-12.016109,16.99085 L-12.09205,16.944262 L-12.16603,16.894878 L-12.2380295,16.842762 L-12.308036,16.787987 L-12.376053,16.730642 L-12.442093,16.670832 L-12.506182,16.608662 L-12.5683565,16.54426 L-12.628666,16.477753 L-12.687171,16.409283 L-12.743939,16.338995 L-12.799053,16.26704 L-12.8526,16.193577 L-12.904678,16.118767 L-12.955391,16.042776 L-13.004852,15.965771 L-13.053178,15.887922 L-13.100492,15.809401 L-13.146921,15.730374 L-13.192597,15.651013 L-13.237656,15.571485 L-13.28223,15.491953 L-13.32646,15.412578 L-13.3704815,15.333516 L-13.414433,15.254916 L-13.458449,15.176922 L-13.5026655,15.099669 L-13.547213,15.023287 L-13.592217,14.947892 L-13.637804,14.873595 L-13.68409,14.800493 L-13.731188,14.728674 L-13.779204,14.658214 L-13.828241,14.589175 L-13.878389,14.521611 L-13.929735,14.45556 L-13.982357,14.391048 L-14.036323,14.328092 L-14.091693,14.266693 L-14.148519,14.206841 L-14.206841,14.148519 L-14.266693,14.091693 L-14.328092,14.036323 L-14.391048,13.982357 L-14.45556,13.929735 L-14.521611,13.878389 L-14.589175,13.828241 L-14.658214,13.779204 L-14.728674,13.731188 L-14.800493,13.68409 L-14.873595,13.637804 L-14.947892,13.592217 L-15.023287,13.547213 L-15.099669,13.5026655 L-15.176922,13.458449 L-15.254916,13.414433 L-15.333516,13.3704815 L-15.412578,13.32646 L-15.491953,13.28223 L-15.571485,13.237656 L-15.651013,13.192597 L-15.730374,13.146921 L-15.809401,13.100492 L-15.887922,13.053178 L-15.965771,13.004852 L-16.042776,12.955391 L-16.118767,12.904678 L-16.193577,12.8526 L-16.26704,12.799053 L-16.338995,12.743939 L-16.409283,12.687171 L-16.477753,12.628666 L-16.54426,12.5683565 L-16.608662,12.506182 L-16.670832,12.442093 L-16.730642,12.376053 L-16.787987,12.308036 L-16.842762,12.2380295 L-16.894878,12.16603 L-16.944262,12.09205 L-16.99085,12.016109 L-17.034595,11.938243 L-17.075466,11.858494 L-17.113443,11.776916 L-17.148531,11.69357 L-17.180738,11.60853 L-17.210102,11.5218725 L-17.236664,11.433685 L-17.260487,11.344058 L-17.281647,11.253088 L-17.300232,11.160879 L-17.316343,11.067536 L-17.3301,10.97317 L-17.341623,10.877895 L-17.351053,10.781828 L-17.358538,10.685085 L-17.364231,10.587789 L-17.3683,10.490059 L-17.370914,10.392018 L-17.372257,10.29379 L-17.372509,10.195493 L-17.371859,10.097249 L-17.3705,9.999175 L-17.36863,9.901388 L-17.366438,9.804 L-17.364126,9.707119 L-17.361887,9.610851 L-17.359915,9.515295 L-17.358398,9.420546 L-17.357525,9.326691 L-17.357475,9.233812 L-17.35842,9.141985 L-17.360529,9.051276 L-17.363958,8.961745 L-17.368858,8.873441 L-17.375366,8.7864065 L-17.38361,8.700672 L-17.393703,8.616263 L-17.405756,8.53319 L-17.419857,8.451455 L-17.436085,8.371052 L-17.454508,8.291964 L-17.475182,8.214162 L-17.498146,8.137611 L-17.523432,8.06227 L-17.551054,7.988085 L-17.581015,7.914999 L-17.613306,7.8429494 L-17.647903,7.771869 L-17.68477,7.701687 L-17.723856,7.632328 L-17.765095,7.563717 L-17.808409,7.4957743 L-17.853704,7.4284215 L-17.900875,7.3615766 L-17.9498,7.2951584 L-18.000349,7.2290835 L-18.052378,7.1632695 L-18.105732,7.097633 L-18.160246,7.0320907 L-18.215748,6.96656 L-18.272057,6.9009595 L-18.328985,6.835208 L-18.386341,6.769227 L-18.443926,6.7029395 L-18.501543,6.6362715 L-18.55899,6.5691514 L-18.616068,6.501512 L-18.672573,6.433288 L-18.728308,6.364421 L-18.783077,6.2948546 L-18.836689,6.2245393 L-18.88896,6.15343 L-18.939705,6.0814877 L-18.988756,6.0086794 L-19.035948,5.9349785 L-19.081127,5.860365 L-19.124147,5.784826 L-19.164879,5.7083554 L-19.203197,5.630954 L-19.238998,5.55263 L-19.27219,5.473399 L-19.302692,5.393283 L-19.330442,5.3123097 L-19.355394,5.230515 L-19.377522,5.1479387 L-19.396809,5.0646257 L-19.413263,4.980626 L-19.426907,4.8959923 L-19.437777,4.810781 L-19.445934,4.7250495 L-19.451448,4.6388583 L-19.45441,4.5522676 L-19.454924,4.4653387 L-19.453104,4.3781323 L-19.449085,4.2907095 L-19.44301,4.2031302 L-19.435034,4.115453 L-19.425322,4.0277357 L-19.41405,3.9400346 L-19.401402,3.8524039 L-19.387568,3.7648954 L-19.372744,3.6775594 L-19.357134,3.5904434 L-19.340942,3.503592 L-19.324379,3.4170473 L-19.307652,3.3308477 L-19.29097,3.245029 L-19.274546,3.1596224 L-19.258581,3.074656 L-19.24328,2.9901538 L-19.22884,2.9061353 L-19.215452,2.8226154 L-19.2033,2.7396045 L-19.192562,2.6571076 L-19.1834,2.5751247 L-19.175972,2.4936504 L-19.170422,2.4126735 L-19.166882,2.332177 L-19.165474,2.2521384 L-19.166304,2.1725292 L-19.169468,2.0933158 L-19.175045,2.0144594 L-19.183105,1.9359173 L-19.1937,1.8576424 L-19.206871,1.7795854 L-19.222645,1.7016947 L-19.241032,1.6239182 L-19.26203,1.5462034 L-19.285618,1.4684985 L-19.311766,1.3907531 L-19.340422,1.3129189 L-19.371521,1.2349495 L-19.404984,1.156801 L-19.44071,1.078432 L-19.478592,0.99980384 L-19.518501,0.9208807 L-19.560297,0.8416291 L-19.603827,0.7620185 L-19.64892,0.682021 L-19.695404,0.60161155 L-19.743088,0.52076775 L-19.791775,0.43947023 L-19.84126,0.3577026 L-19.891335,0.27545148 L-19.941776,0.19270664 L-19.992369,0.10946102 L-20.042883,0.025710842 L-20.093096,-0.05854436 L-20.14278,-0.14330173 L-20.19171,-0.22855505 L-20.239662,-0.31429476 L-20.286417,-0.40050796 L-20.331758,-0.48717844 L-20.375477,-0.5742867 L-20.417366,-0.66181004 L-20.457233,-0.74972254 L-20.494892,-0.8379952 L-20.530163,-0.92659575 L-20.56288,-1.0154891 L-20.59289,-1.1046369 L-20.620049,-1.1939983 L-20.644232,-1.2835294 L-20.665321,-1.3731837 L-20.683222,-1.4629122 L-20.697847,-1.5526638 L-20.709135,-1.6423858 L-20.717033,-1.7320242 L-20.721514,-1.8215241 L-20.722563,-1.9108311 L-20.720186,-1.999891 L-20.714409,-2.0886517 L-20.705275,-2.1770632 L-20.69284,-2.2650785 L-20.677189,-2.3526547 L-20.65841,-2.439753 L-20.636614,-2.5263398 L-20.611927,-2.6123862 L-20.584486,-2.697869 L-20.554441,-2.7827706 L-20.521954,-2.8670785 L-20.487196,-2.9507856 L-20.450348,-3.0338902 L-20.4116,-3.1163957 L-20.371147,-3.1983101 L-20.32919,-3.2796466 L-20.285933,-3.3604221 L-20.241589,-3.4406583 L-20.196363,-3.5203805 L-20.150475,-3.5996182 L-20.10413,-3.6784034 L-20.05754,-3.7567723 L-20.010914,-3.8347635 L-19.964455,-3.9124188 L-19.918362,-3.9897816 L-19.872826,-4.0668983 L-19.82803,-4.143817 L-19.784155,-4.220587 L-19.741364,-4.2972593 L-19.699814,-4.3738866 L-19.659647,-4.4505224 L-19.621,-4.5272202 L-19.583988,-4.6040344 L-19.548717,-4.6810203 L-19.515278,-4.7582326 L-19.48375,-4.8357253 L-19.454191,-4.913552 L-19.426653,-4.991766 L-19.401165,-5.0704174 L-19.377745,-5.1495557 L-19.356398,-5.2292266 L-19.33711,-5.309472 L-19.319859,-5.3903303 L-19.3046,-5.471835 L-19.291285,-5.554014 L-19.279842,-5.636889 L-19.270195,-5.7204757 L-19.262247,-5.804783 L-19.255894,-5.889812 L-19.251015,-5.9755588 L-19.247482,-6.0620093 L-19.245152,-6.149146 L-19.243874,-6.236942 L-19.243486,-6.3253646 L-19.24382,-6.4143753 L-19.244698,-6.503928 L-19.245935,-6.5939736 L-19.247341,-6.6844544 L-19.248726,-6.7753096 L-19.249887,-6.8664737 L-19.250631,-6.957876 L-19.250755,-7.049443 L-19.25006,-7.1410966 L-19.248344,-7.2327557 L-19.245419,-7.3243375 L-19.241085,-7.4157557 L-19.235163,-7.5069222 L-19.227467,-7.5977483 L-19.217825,-7.688143 L-19.206072,-7.778014 L-19.192053,-7.8672705 L-19.175623,-7.9558196 L-19.156645,-8.0435705 L-19.135002,-8.130433 L-19.110584,-8.216316 L-19.083298,-8.301136 L-19.053066,-8.384806 L-19.019825,-8.467245 L-18.98353,-8.548379 L-18.944153,-8.628137 L-18.901682,-8.706453 L-18.85612,-8.783271 L-18.80749,-8.85854 L-18.755829,-8.9322195 L-18.701195,-9.004277 L-18.643652,-9.074692 L-18.583286,-9.143449 L-18.520193,-9.2105465 L-18.454485,-9.275991 L-18.386284,-9.339801 L-18.31572,-9.402 L-18.242939,-9.4626255 L-18.168095,-9.521721 L-18.091345,-9.579338 L-18.012863,-9.635539 L-17.932823,-9.690392 L-17.85141,-9.743971 L-17.768806,-9.796359 L-17.68521,-9.847644 L-17.600811,-9.897921 L-17.51581,-9.947288 L-17.430403,-9.995847 L-17.34479,-10.043708 L-17.259169,-10.090981 L-17.173733,-10.137777 L-17.088675,-10.184216 L-17.004185,-10.230411 L-16.920444,-10.27648 L-16.837631,-10.322542 L-16.755915,-10.368712 L-16.675453,-10.415108 L-16.596401,-10.461841 L-16.5189,-10.509021 L-16.443077,-10.556757 L-16.369055,-10.605152 L-16.296934,-10.6543045 L-16.226809,-10.70431 L-16.158754,-10.755259 L-16.092836,-10.807232 L-16.029102,-10.860311 L-15.9675865,-10.914566 L-15.908305,-10.970066 L-15.851263,-11.026871 L-15.796452,-11.085033 L-15.743846,-11.144602 L-15.693411,-11.205616 L-15.645098,-11.2681055 L-15.598846,-11.332096 L-15.554588,-11.397598 L-15.512242,-11.464618 L-15.471718,-11.533146 L-15.432919,-11.603166 L-15.395736,-11.674647 L-15.360054,-11.747551 L-15.325749,-11.821823 L-15.292692,-11.897404 L-15.260745,-11.974217 L-15.229762,-12.052183 L-15.199596,-12.131207 L-15.170093,-12.211189 L-15.141092,-12.292021 L-15.112434,-12.373586 L-15.083956,-12.455763 L-15.055492,-12.5384245 L-15.026879,-12.621439 L-14.9979515,-12.704671 L-14.968548,-12.787982 L-14.938508,-12.871232 L-14.907678,-12.954278 L-14.875904,-13.03698 L-14.843042,-13.119195 L-14.808954,-13.200782 L-14.773506,-13.281604 L-14.736575,-13.361523 L-14.698047,-13.440406 L-14.657816,-13.518126 L-14.615788,-13.594559 L-14.57188,-13.669585 L-14.52602,-13.7430935 L-14.478148,-13.8149805 L-14.428219,-13.885147 L-14.376198,-13.953506 L-14.322065,-14.01998 L-14.265817,-14.084499 L-14.207457,-14.147006 L-14.147006,-14.207457 L-14.084499,-14.265817 L-14.01998,-14.322065 L-13.953506,-14.376198 L-13.885147,-14.428219 L-13.8149805,-14.478148 L-13.7430935,-14.52602 L-13.669585,-14.57188 L-13.594559,-14.615788 L-13.518126,-14.657816 L-13.440406,-14.698047 L-13.361523,-14.736575 L-13.281604,-14.773506 L-13.200782,-14.808954 L-13.119195,-14.843042 L-13.03698,-14.875904 L-12.954278,-14.907678 L-12.871232,-14.938508 L-12.787982,-14.968548 L-12.704671,-14.9979515 L-12.621439,-15.026879 L-12.5384245,-15.055492 L-12.455763,-15.083956 L-12.373586,-15.112434 L-12.292021,-15.141092 L-12.211189,-15.170093 L-12.131207,-15.199596 L-12.052183,-15.229762 L-11.974217,-15.260745 L-11.897404,-15.292692 L-11.821823,-15.325749 L-11.747551,-15.360054 L-11.674647,-15.395736 L-11.603166,-15.432919 L-11.533146,-15.471718 L-11.464618,-15.512242 L-11.397598,-15.554588 L-11.332096,-15.598846 L-11.2681055,-15.645098 L-11.205616,-15.693411 L-11.144602,-15.743846 L-11.085033,-15.796452 L-11.026871,-15.851263 L-10.970066,-15.908305 L-10.914566,-15.9675865 L-10.860311,-16.029102 L-10.807232,-16.092836 L-10.755259,-16.158754 L-10.70431,-16.226809 L-10.6543045,-16.296934 L-10.605152,-16.369055 L-10.556757,-16.443077 L-10.509021,-16.5189 L-10.461841,-16.596401 L-10.415108,-16.675453 L-10.368712,-16.755915 L-10.322542,-16.837631 L-10.27648,-16.920444 L-10.230411,-17.004185 L-10.184216,-17.088675 L-10.137777,-17.173733 L-10.090981,-17.259169 L-10.043708,-17.34479 L-9.995847,-17.430403 L-9.947288,-17.51581 L-9.897921,-17.600811 L-9.847644,-17.68521 L-9.796359,-17.768806 L-9.743971,-17.85141 L-9.690392,-17.932823 L-9.635539,-18.012863 L-9.579338,-18.091345 L-9.521721,-18.168095 L-9.4626255,-18.242939 L-9.402,-18.31572 L-9.339801,-18.386284 L-9.275991,-18.454485 L-9.2105465,-18.520193 L-9.143449,-18.583286 L-9.074692,-18.643652 L-9.004277,-18.701195 L-8.9322195,-18.755829 L-8.85854,-18.80749 L-8.783271,-18.85612 L-8.706453,-18.901682 L-8.628137,-18.944153 L-8.548379,-18.98353 L-8.467245,-19.019825 L-8.384806,-19.053066 L-8.301136,-19.083298 L-8.216316,-19.110584 L-8.130433,-19.135002 L-8.0435705,-19.156645 L-7.9558196,-19.175623 L-7.8672705,-19.192053 L-7.778014,-19.206072 L-7.688143,-19.217825 L-7.5977483,-19.227467 L-7.5069222,-19.235163 L-7.4157557,-19.241085 L-7.3243375,-19.245419 L-7.2327557,-19.248344 L-7.1410966,-19.25006 L-7.049443,-19.250755 L-6.957876,-19.250631 L-6.8664737,-19.249887 L-6.7753096,-19.248726 L-6.6844544,-19.247341 L-6.5939736,-19.245935 L-6.503928,-19.244698 L-6.4143753,-19.24382 L-6.3253646,-19.243486 L-6.236942,-19.243874 L-6.149146,-19.245152 L-6.0620093,-19.247482 L-5.9755588,-19.251015 L-5.889812,-19.255894 L-5.804783,-19.262247 L-5.7204757,-19.270195 L-5.636889,-19.279842 L-5.554014,-19.291285 L-5.471835,-19.3046 L-5.3903303,-19.319859 L-5.309472,-19.33711 L-5.2292266,-19.356398 L-5.1495557,-19.377745 L-5.0704174,-19.401165 L-4.991766,-19.426653 L-4.913552,-19.454191 L-4.8357253,-19.48375 L-4.7582326,-19.515278 L-4.6810203,-19.548717 L-4.6040344,-19.583988 L-4.5272202,-19.621 L-4.4505224,-19.659647 L-4.3738866,-19.699814 L-4.2972593,-19.741364 L-4.220587,-19.784155 L-4.143817,-19.82803 L-4.0668983,-19.872826 L-3.9897816,-19.918362 L-3.9124188,-19.964455 L-3.8347635,-20.010914 L-3.7567723,-20.05754 L-3.6784034,-20.10413 L-3.5996182,-20.150475 L-3.5203805,-20.196363 L-3.4406583,-20.241589 L-3.3604221,-20.285933 L-3.2796466,-20.32919 L-3.1983101,-20.371147 L-3.1163957,-20.4116 L-3.0338902,-20.450348 L-2.9507856,-20.487196 L-2.8670785,-20.521954 L-2.7827706,-20.554441 L-2.697869,-20.584486 L-2.6123862,-20.611927 L-2.5263398,-20.636614 L-2.439753,-20.65841 L-2.3526547,-20.677189 L-2.2650785,-20.69284 L-2.1770632,-20.705275 L-2.0886517,-20.714409 L-1.999891,-20.720186 L-1.9108311,-20.722563 L-1.8215241,-20.721514 L-1.7320242,-20.717033 L-1.6423858,-20.709135 L-1.5526638,-20.697847 L-1.4629122,-20.683222 L-1.3731837,-20.665321 L-1.2835294,-20.644232 L-1.1939983,-20.620049 L-1.1046369,-20.59289 L-1.0154891,-20.56288 L-0.92659575,-20.530163 L-0.8379952,-20.494892 L-0.74972254,-20.457233 L-0.66181004,-20.417366 L-0.5742867,-20.375477 L-0.48717844,-20.331758 L-0.40050796,-20.286417 L-0.31429476,-20.239662 L-0.22855505,-20.19171 L-0.14330173,-20.14278 L-0.05854436,-20.093096 L0.025710842,-20.042883 L0.10946102,-19.992369 L0.19270664,-19.941776 L0.27545148,-19.891335 L0.3577026,-19.84126 L0.43947023,-19.791775 L0.52076775,-19.743088 L0.60161155,-19.695404 L0.682021,-19.64892 L0.7620185,-19.603827 L0.8416291,-19.560297 L0.9208807,-19.518501 L0.99980384,-19.478592 L1.078432,-19.44071 L1.156801,-19.404984 L1.2349495,-19.371521 L1.3129189,-19.340422 L1.3907531,-19.311766 L1.4684985,-19.285618 L1.5462034,-19.26203 L1.6239182,-19.241032 L1.7016947,-19.222645 L1.7795854,-19.206871 L1.8576424,-19.1937 L1.9359173,-19.183105 L2.0144594,-19.175045 L2.0933158,-19.169468 L2.1725292,-19.166304 L2.2521384,-19.165474 L2.332177,-19.166882 L2.4126735,-19.170422 L2.4936504,-19.175972 L2.5751247,-19.1834 L2.6571076,-19.192562 L2.7396045,-19.2033 L2.8226154,-19.215452 L2.9061353,-19.22884 L2.9901538,-19.24328 L3.074656,-19.258581 L3.1596224,-19.274546 L3.245029,-19.29097 L3.3308477,-19.307652 L3.4170473,-19.324379 L3.503592,-19.340942 L3.5904434,-19.357134 L3.6775594,-19.372744 L3.7648954,-19.387568 L3.8524039,-19.401402 L3.9400346,-19.41405 L4.0277357,-19.425322 L4.115453,-19.435034 L4.2031302,-19.44301 L4.2907095,-19.449085 L4.3781323,-19.453104 L4.4653387,-19.454924 L4.5522676,-19.45441 L4.6388583,-19.451448 L4.7250495,-19.445934 L4.810781,-19.437777 L4.8959923,-19.426907 L4.980626,-19.413263 L5.0646257,-19.396809 L5.1479387,-19.377522 L5.230515,-19.355394 L5.3123097,-19.330442 L5.393283,-19.302692 L5.473399,-19.27219 L5.55263,-19.238998 L5.630954,-19.203197 L5.7083554,-19.164879 L5.784826,-19.124147 L5.860365,-19.081127 L5.9349785,-19.035948 L6.0086794,-18.988756 L6.0814877,-18.939705 L6.15343,-18.88896 L6.2245393,-18.836689 L6.2948546,-18.783077 L6.364421,-18.728308 L6.433288,-18.672573 L6.501512,-18.616068 L6.5691514,-18.55899 L6.6362715,-18.501543 L6.7029395,-18.443926 L6.769227,-18.386341 L6.835208,-18.328985 L6.9009595,-18.272057 L6.96656,-18.215748 L7.0320907,-18.160246 L7.097633,-18.105732 L7.1632695,-18.052378 L7.2290835,-18.000349 L7.2951584,-17.9498 L7.3615766,-17.900875 L7.4284215,-17.853704 L7.4957743,-17.808409 L7.563717,-17.765095 L7.632328,-17.723856 L7.701687,-17.68477 L7.771869,-17.647903 L7.8429494,-17.613306 L7.914999,-17.581015 L7.988085,-17.551054 L8.06227,-17.523432 L8.137611,-17.498146 L8.214162,-17.475182 L8.291964,-17.454508 L8.371052,-17.436085 L8.451455,-17.419857 L8.53319,-17.405756 L8.616263,-17.393703 L8.700672,-17.38361 L8.7864065,-17.375366 L8.873441,-17.368858 L8.961745,-17.363958 L9.051276,-17.360529 L9.141985,-17.35842 L9.233812,-17.357475 L9.326691,-17.357525 L9.420546,-17.358398 L9.515295,-17.359915 L9.610851,-17.361887 L9.707119,-17.364126 L9.804,-17.366438 L9.901388,-17.36863 L9.999175,-17.3705 L10.097249,-17.371859 L10.195493,-17.372509 L10.29379,-17.372257 L10.392018,-17.370914 L10.490059,-17.3683 L10.587789,-17.364231 L10.685085,-17.358538 L10.781828,-17.351053 L10.877895,-17.341623 L10.97317,-17.3301 L11.067536,-17.316343 L11.160879,-17.300232 L11.253088,-17.281647 L11.344058,-17.260487 L11.433685,-17.236664 L11.5218725,-17.210102 L11.60853,-17.180738 L11.69357,-17.148531 L11.776916,-17.113443 L11.858494,-17.075466 L11.938243,-17.034595 L12.016109,-16.99085 L12.09205,-16.944262 L12.16603,-16.894878 L12.2380295,-16.842762 L12.308036,-16.787987 L12.376053,-16.730642 L12.442093,-16.670832 L12.506182,-16.608662 L12.5683565,-16.54426 L12.628666,-16.477753 L12.687171,-16.409283 L12.743939,-16.338995 L12.799053,-16.26704 L12.8526,-16.193577 L12.904678,-16.118767 L12.955391,-16.042776 L13.004852,-15.965771 L13.053178,-15.887922 L13.100492,-15.809401 L13.146921,-15.730374 L13.192597,-15.651013 L13.237656,-15.571485 L13.28223,-15.491953 L13.32646,-15.412578 L13.3704815,-15.333516 L13.414433,-15.254916 L13.458449,-15.176922 L13.5026655,-15.099669 L13.547213,-15.023287 L13.592217,-14.947892 L13.637804,-14.873595 L13.68409,-14.800493 L13.731188,-14.728674 L13.779204,-14.658214 L13.828241,-14.589175 L13.878389,-14.521611 L13.929735,-14.45556 L13.982357,-14.391048 L14.036323,-14.328092 L14.091693,-14.266693 L14.148519,-14.206841 L14.206841,-14.148519 L14.266693,-14.091693 L14.328092,-14.036323 L14.391048,-13.982357 L14.45556,-13.929735 L14.521611,-13.878389 L14.589175,-13.828241 L14.658214,-13.779204 L14.728674,-13.731188 L14.800493,-13.68409 L14.873595,-13.637804 L14.947892,-13.592217 L15.023287,-13.547213 L15.099669,-13.5026655 L15.176922,-13.458449 L15.254916,-13.414433 L15.333516,-13.3704815 L15.412578,-13.32646 L15.491953,-13.28223 L15.571485,-13.237656 L15.651013,-13.192597 L15.730374,-13.146921 L15.809401,-13.100492 L15.887922,-13.053178 L15.965771,-13.004852 L16.042776,-12.955391 L16.118767,-12.904678 L16.193577,-12.8526 L16.26704,-12.799053 L16.338995,-12.743939 L16.409283,-12.687171 L16.477753,-12.628666 L16.54426,-12.5683565 L16.608662,-12.506182 L16.670832,-12.442093 L16.730642,-12.376053 L16.787987,-12.308036 L16.842762,-12.2380295 L16.894878,-12.16603 L16.944262,-12.09205 L16.99085,-12.016109 L17.034595,-11.938243 L17.075466,-11.858494 L17.113443,-11.776916 L17.148531,-11.69357 L17.180738,-11.60853 L17.210102,-11.5218725 L17.236664,-11.433685 L17.260487,-11.344058 L17.281647,-11.253088 L17.300232,-11.160879 L17.316343,-11.067536 L17.3301,-10.97317 L17.341623,-10.877895 L17.351053,-10.781828 L17.358538,-10.685085 L17.364231,-10.587789 L17.3683,-10.490059 L17.370914,-10.392018 L17.372257,-10.29379 L17.372509,-10.195493 L17.371859,-10.097249 L17.3705,-9.999175 L17.36863,-9.901388 L17.366438,-9.804 L17.364126,-9.707119 L17.361887,-9.610851 L17.359915,-9.515295 L17.358398,-9.420546 L17.357525,-9.326691 L17.357475,-9.233812 L17.35842,-9.141985 L17.360529,-9.051276 L17.363958,-8.961745 L17.368858,-8.873441 L17.375366,-8.7864065 L17.38361,-8.700672 L17.393703,-8.616263 L17.405756,-8.53319 L17.419857,-8.451455 L17.436085,-8.371052 L17.454508,-8.291964 L17.475182,-8.214162 L17.498146,-8.137611 L17.523432,-8.06227 L17.551054,-7.988085 L17.581015,-7.914999 L17.613306,-7.8429494 L17.647903,-7.771869 L17.68477,-7.701687 L17.723856,-7.632328 L17.765095,-7.563717 L17.808409,-7.4957743 L17.853704,-7.4284215 L17.900875,-7.3615766 L17.9498,-7.2951584 L18.000349,-7.2290835 L18.052378,-7.1632695 L18.105732,-7.097633 L18.160246,-7.0320907 L18.215748,-6.96656 L18.272057,-6.9009595 L18.328985,-6.835208 L18.386341,-6.769227 L18.443926,-6.7029395 L18.501543,-6.6362715 L18.55899,-6.5691514 L18.616068,-6.501512 L18.672573,-6.433288 L18.728308,-6.364421 L18.783077,-6.2948546 L18.836689,-6.2245393 L18.88896,-6.15343 L18.939705,-6.0814877 L18.988756,-6.0086794 L19.035948,-5.9349785 L19.081127,-5.860365 L19.124147,-5.784826 L19.164879,-5.7083554 L19.203197,-5.630954 L19.238998,-5.55263 L19.27219,-5.473399 L19.302692,-5.393283 L19.330442,-5.3123097 L19.355394,-5.230515 L19.377522,-5.1479387 L19.396809,-5.0646257 L19.413263,-4.980626 L19.426907,-4.8959923 L19.437777,-4.810781 L19.445934,-4.7250495 L19.451448,-4.6388583 L19.45441,-4.5522676 L19.454924,-4.4653387 L19.453104,-4.3781323 L19.449085,-4.2907095 L19.44301,-4.2031302 L19.435034,-4.115453 L19.425322,-4.0277357 L19.41405,-3.9400346 L19.401402,-3.8524039 L19.387568,-3.7648954 L19.372744,-3.6775594 L19.357134,-3.5904434 L19.340942,-3.503592 L19.324379,-3.4170473 L19.307652,-3.3308477 L19.29097,-3.245029 L19.274546,-3.1596224 L19.258581,-3.074656 L19.24328,-2.9901538 L19.22884,-2.9061353 L19.215452,-2.8226154 L19.2033,-2.7396045 L19.192562,-2.6571076 L19.1834,-2.5751247 L19.175972,-2.4936504 L19.170422,-2.4126735 L19.166882,-2.332177 L19.165474,-2.2521384 L19.166304,-2.1725292 L19.169468,-2.0933158 L19.175045,-2.0144594 L19.183105,-1.9359173 L19.1937,-1.8576424 L19.206871,-1.7795854 L19.222645,-1.7016947 L19.241032,-1.6239182 L19.26203,-1.5462034 L19.285618,-1.4684985 L19.311766,-1.3907531 L19.340422,-1.3129189 L19.371521,-1.2349495 L19.404984,-1.156801 L19.44071,-1.078432 L19.478592,-0.99980384 L19.518501,-0.9208807 L19.560297,-0.8416291 L19.603827,-0.7620185 L19.64892,-0.682021 L19.695404,-0.60161155 L19.743088,-0.52076775 L19.791775,-0.43947023 L19.84126,-0.3577026 L19.891335,-0.27545148 L19.941776,-0.19270664 L19.992369,-0.10946102 L20.042814,-0.025824314" fill="none" stroke="black" stroke-width="0.05"/>
<path d="M19.957048,0.02559719 L20.00701,0.10942755 L20.056278,0.193477 L20.104706,0.2778513 L20.15207,0.36253855 L20.198158,0.44752303 L20.242765,0.5327853 L20.285685,0.6183026 L20.326725,0.7040489 L20.365702,0.7899954 L20.402441,0.8761109 L20.436777,0.9623623 L20.468561,1.0487149 L20.497652,1.1351329 L20.523928,1.2215801 L20.547277,1.3080206 L20.567602,1.3944185 L20.584824,1.4807392 L20.598873,1.5669495 L20.609701,1.6530178 L20.617271,1.7389144 L20.621561,1.8246119 L20.622566,1.9100846 L20.62029,1.9953091 L20.614761,2.0802636 L20.606014,2.1649282 L20.594097,2.2492845 L20.579077,2.3333154 L20.561031,2.4170058 L20.540052,2.5003417 L20.516247,2.5833106 L20.489733,2.6659021 L20.46064,2.748108 L20.429113,2.8299222 L20.395304,2.9113414 L20.359377,2.9923658 L20.321508,3.0729983 L20.281878,3.1532457 L20.240673,3.2331183 L20.198093,3.3126304 L20.154335,3.3918006 L20.109606,3.4706511 L20.06411,3.5492082 L20.018053,3.6275017 L19.971645,3.7055655 L19.92509,3.7834368 L19.878593,3.861156 L19.832354,3.9387662 L19.786562,4.016313 L19.741411,4.0938444 L19.697083,4.171409 L19.653748,4.2490582 L19.61157,4.326842 L19.570707,4.4048104 L19.531301,4.483015 L19.493483,4.5615034 L19.457373,4.6403227 L19.423077,4.7195168 L19.390688,4.7991276 L19.360281,4.879192 L19.331919,4.959744 L19.305647,5.040813 L19.281496,5.122424 L19.259478,5.2045984 L19.239588,5.2873516 L19.221804,5.370695 L19.20609,5.454636 L19.192392,5.5391774 L19.180637,5.624317 L19.17074,5.710049 L19.162603,5.7963634 L19.15611,5.8832455 L19.151134,5.970676 L19.14754,6.0586305 L19.145174,6.1470814 L19.143879,6.235995 L19.143486,6.3253326 L19.143822,6.4150524 L19.144705,6.505105 L19.145945,6.5954375 L19.147354,6.685993 L19.148735,6.776709 L19.149893,6.867518 L19.150633,6.95835 L19.150755,7.049131 L19.150066,7.1397824 L19.148376,7.230224 L19.145496,7.320374 L19.141243,7.4101477 L19.13544,7.4994593 L19.127922,7.588224 L19.118523,7.6763563 L19.107092,7.763772 L19.093489,7.850389 L19.077581,7.9361277 L19.059246,8.020911 L19.038378,8.104667 L19.014877,8.187327 L18.98866,8.268827 L18.959654,8.349111 L18.927795,8.428123 L18.89304,8.50582 L18.85535,8.582157 L18.814709,8.657101 L18.771103,8.73062 L18.724539,8.802691 L18.675034,8.873296 L18.622623,8.942419 L18.56735,9.010054 L18.509275,9.0762 L18.448475,9.14086 L18.385033,9.204044 L18.319054,9.265773 L18.25065,9.326067 L18.179949,9.384958 L18.107086,9.442486 L18.032213,9.498694 L17.955484,9.553638 L17.87707,9.607376 L17.79714,9.659977 L17.715881,9.7115135 L17.633474,9.762068 L17.550112,9.811727 L17.465986,9.860583 L17.381292,9.908737 L17.296227,9.956292 L17.210981,10.003356 L17.125753,10.050039 L17.04073,10.096458 L16.956097,10.142732 L16.87204,10.188976 L16.78873,10.235313 L16.70634,10.281865 L16.625032,10.32875 L16.544956,10.376088 L16.466259,10.423998 L16.389076,10.472591 L16.313532,10.521982 L16.239742,10.572274 L16.167809,10.6235695 L16.097826,10.675963 L16.029875,10.729541 L15.9640255,10.784383 L15.900333,10.840559 L15.838842,10.8981285 L15.779585,10.957142 L15.722576,11.017636 L15.66782,11.07964 L15.615306,11.143168 L15.565007,11.208226 L15.516884,11.274806 L15.47088,11.342891 L15.426926,11.412453 L15.384937,11.483456 L15.344819,11.555853 L15.306462,11.629589 L15.269747,11.704601 L15.234543,11.780819 L15.200712,11.858164 L15.16811,11.93655 L15.136582,12.015885 L15.105972,12.09607 L15.076118,12.176999 L15.046856,12.258561 L15.018018,12.340639 L14.989437,12.423112 L14.960946,12.505852 L14.93238,12.588731 L14.903573,12.671616 L14.874366,12.754371 L14.844602,12.836859 L14.814128,12.918944 L14.7828,13.00049 L14.750476,13.081361 L14.717026,13.161422 L14.682323,13.240545 L14.646255,13.318603 L14.608709,13.395475 L14.569592,13.471046 L14.528814,13.545208 L14.486297,13.61786 L14.441973,13.688909 L14.395782,13.758271 L14.34768,13.825871 L14.2976265,13.891647 L14.245596,13.955542 L14.19157,14.01751 L14.135544,14.077518 L14.077518,14.135544 L14.01751,14.19157 L13.955542,14.245596 L13.891647,14.2976265 L13.825871,14.34768 L13.758271,14.395782 L13.688909,14.441973 L13.61786,14.486297 L13.545208,14.528814 L13.471046,14.569592 L13.395475,14.608709 L13.318603,14.646255 L13.240545,14.682323 L13.161422,14.717026 L13.081361,14.750476 L13.00049,14.7828 L12.918944,14.814128 L12.836859,14.844602 L12.754371,14.874366 L12.671616,14.903573 L12.588731,14.93238 L12.505852,14.960946 L12.423112,14.989437 L12.340639,15.018018 L12.258561,15.046856 L12.176999,15.076118 L12.09607,15.105972 L12.015885,15.136582 L11.93655,15.16811 L11.858164,15.200712 L11.780819,15.234543 L11.704601,15.269747 L11.629589,15.306462 L11.555853,15.344819 L11.483456,15.384937 L11.412453,15.426926 L11.342891,15.47088 L11.274806,15.516884 L11.208226,15.565007 L11.143168,15.615306 L11.07964,15.66782 L11.017636,15.722576 L10.957142,15.779585 L10.8981285,15.838842 L10.840559,15.900333 L10.784383,15.9640255 L10.729541,16.029875 L10.675963,16.097826 L10.6235695,16.167809 L10.572274,16.239742 L10.521982,16.313532 L10.472591,16.389076 L10.423998,16.466259 L10.376088,16.544956 L10.32875,16.625032 L10.281865,16.70634 L10.235313,16.78873 L10.188976,16.87204 L10.142732,16.956097 L10.096458,17.04073 L10.050039,17.125753 L10.003356,17.210981 L9.956292,17.296227 L9.908737,17.381292 L9.860583,17.465986 L9.811727,17.550112 L9.762068,17.633474 L9.7115135,17.715881 L9.659977,17.79714 L9.607376,17.87707 L9.553638,17.955484 L9.498694,18.032213 L9.442486,18.107086 L9.384958,18.179949 L9.326067,18.25065 L9.265773,18.319054 L9.204044,18.385033 L9.14086,18.448475 L9.0762,18.509275 L9.010054,18.56735 L8.942419,18.622623 L8.873296,18.675034 L8.802691,18.724539 L8.73062,18.771103 L8.657101,18.814709 L8.582157,18.85535 L8.50582,18.89304 L8.428123,18.927795 L8.349111,18.959654 L8.268827,18.98866 L8.187327,19.014877 L8.104667,19.038378 L8.020911,19.059246 L7.9361277,19.077581 L7.850389,19.093489 L7.763772,19.107092 L7.6763563,19.118523 L7.588224,19.127922 L7.4994593,19.13544 L7.4101477,19.141243 L7.320374,19.145496 L7.230224,19.148376 L7.1397824,19.150066 L7.049131,19.150755 L6.95835,19.150633 L6.867518,19.149893 L6.776709,19.148735 L6.685993,19.147354 L6.5954375,19.145945 L6.505105,19.144705 L6.4150524,19.143822 L6.3253326,19.143486 L6.235995,19.143879 L6.1470814,19.145174 L6.0586305,19.14754 L5.970676,19.151134 L5.8832455,19.15611 L5.7963634,19.162603 L5.710049,19.17074 L5.624317,19.180637 L5.5391774,19.192392 L5.454636,19.20609 L5.370695,19.221804 L5.2873516,19.239588 L5.2045984,19.259478 L5.122424,19.281496 L5.040813,19.305647 L4.959744,19.331919 L4.879192,19.360281 L4.7991276,19.390688 L4.7195168,19.423077 L4.6403227,19.457373 L4.5615034,19.493483 L4.483015,19.531301 L4.4048104,19.570707 L4.326842,19.61157 L4.2490582,19.653748 L4.171409,19.697083 L4.0938444,19.741411 L4.016313,19.786562 L3.9387662,19.832354 L3.861156,19.878593 L3.7834368,19.92509 L3.7055655,19.971645 L3.6275017,20.018053 L3.5492082,20.06411 L3.4706511,20.109606 L3.3918006,20.154335 L3.3126304,20.198093 L3.2331183,20.240673 L3.1532457,20.281878 L3.0729983,20.321508 L2.9923658,20.359377 L2.9113414,20.395304 L2.8299222,20.429113 L2.748108,20.46064 L2.6659021,20.489733 L2.5833106,20.516247 L2.5003417,20.540052 L2.4170058,20.561031 L2.3333154,20.579077 L2.2492845,20.594097 L2.1649282,20.606014 L2.0802636,20.614761 L1.9953091,20.62029 L1.9100846,20.622566 L1.8246119,20.621561 L1.7389144,20.617271 L1.6530178,20.609701 L1.5669495,20.598873 L1.4807392,20.584824 L1.3944185,20.567602 L1.3080206,20.547277 L1.2215801,20.523928 L1.1351329,20.497652 L1.0487149,20.468561 L0.9623623,20.436777 L0.8761109,20.402441 L0.7899954,20.365702 L0.7040489,20.326725 L0.6183026,20.285685 L0.5327853,20.242765 L0.44752303,20.198158 L0.36253855,20.15207 L0.2778513,20.104706 L0.193477,20.056278 L0.10942755,20.00701 L0.025710842,19.957117 L-0.057669308,19.906824 L-0.14071323,19.856356 L-0.22342534,19.805933 L-0.30581424,19.755777 L-0.38789237,19.706102 L-0.46967614,19.657124 L-0.55118555,19.609049 L-0.6324441,19.562075 L-0.71347815,19.516397 L-0.7943171,19.472197 L-0.8749925,19.429651 L-0.9555377,19.388924 L-1.0359874,19.350166 L-1.116377,19.313519 L-1.1967419,19.279108 L-1.2771174,19.24705 L-1.3575369,19.217443 L-1.4380327,19.190372 L-1.5186349,19.165905 L-1.5993707,19.144093 L-1.680265,19.124968 L-1.7613397,19.108551 L-1.8426139,19.094835 L-1.9241046,19.083805 L-2.0058262,19.075418 L-2.0877917,19.06962 L-2.1700115,19.066336 L-2.2524958,19.065475 L-2.3352525,19.066929 L-2.4182885,19.07058 L-2.5016088,19.076288 L-2.5852175,19.08391 L-2.669115,19.093285 L-2.753301,19.104244 L-2.8377707,19.116608 L-2.9225178,19.130192 L-3.0075314,19.144802 L-3.0927975,19.16024 L-3.1782982,19.176304 L-3.2640119,19.19279 L-3.3499126,19.209486 L-3.4359713,19.226185 L-3.5221546,19.24268 L-3.6084259,19.258764 L-3.6947453,19.274231 L-3.7810702,19.288883 L-3.867355,19.302525 L-3.9535525,19.314968 L-4.039613,19.326029 L-4.1254864,19.335537 L-4.2111216,19.34333 L-4.296467,19.34925 L-4.381472,19.35316 L-4.4660873,19.354927 L-4.550264,19.354431 L-4.6339564,19.35157 L-4.7171206,19.346249 L-4.7997165,19.33839 L-4.8817058,19.327932 L-4.963055,19.31482 L-5.0437346,19.299015 L-5.1237173,19.280499 L-5.2029805,19.25926 L-5.2815056,19.235306 L-5.3592772,19.20865 L-5.4362845,19.179333 L-5.5125194,19.147396 L-5.587978,19.112904 L-5.6626606,19.07593 L-5.7365713,19.03656 L-5.809718,18.994902 L-5.882114,18.951065 L-5.953776,18.905176 L-6.024727,18.857376 L-6.094993,18.80781 L-6.164607,18.75664 L-6.233607,18.70403 L-6.302035,18.650154 L-6.369939,18.595198 L-6.437372,18.539347 L-6.5043936,18.482792 L-6.571065,18.425728 L-6.637454,18.368351 L-6.7036333,18.310858 L-6.769677,18.253448 L-6.835665,18.196316 L-6.9016786,18.139654 L-6.967802,18.08365 L-7.034121,18.02849 L-7.1007223,17.974354 L-7.1676936,17.921412 L-7.2351213,17.869827 L-7.3030915,17.81976 L-7.371688,17.771355 L-7.4409904,17.72475 L-7.511077,17.68007 L-7.582019,17.637434 L-7.653883,17.596937 L-7.7267294,17.558672 L-7.800613,17.52271 L-7.875579,17.489113 L-7.9516673,17.45792 L-8.028911,17.42916 L-8.107332,17.402842 L-8.186951,17.378956 L-8.267776,17.357477 L-8.349813,17.338366 L-8.433061,17.321562 L-8.517509,17.306993 L-8.603145,17.294569 L-8.689948,17.284185 L-8.777891,17.275728 L-8.866942,17.26907 L-8.95706,17.264069 L-9.0482,17.260576 L-9.140308,17.258434 L-9.233325,17.257475 L-9.327184,17.257526 L-9.421811,17.258408 L-9.517127,17.259932 L-9.613046,17.261911 L-9.709475,17.264154 L-9.806317,17.266466 L-9.903469,17.26865 L-10.000825,17.270515 L-10.098271,17.271864 L-10.195696,17.272509 L-10.292979,17.27226 L-10.390002,17.270935 L-10.486646,17.268358 L-10.5827875,17.264355 L-10.678308,17.258766 L-10.773087,17.251436 L-10.867007,17.242218 L-10.959954,17.230976 L-11.051819,17.217587 L-11.142494,17.201937 L-11.23188,17.183922 L-11.319883,17.163454 L-11.406418,17.140453 L-11.491404,17.114857 L-11.57477,17.08661 L-11.656455,17.055674 L-11.736406,17.022017 L-11.81458,16.985624 L-11.890941,16.94649 L-11.965465,16.904623 L-12.038135,16.860043 L-12.108942,16.812777 L-12.17789,16.762867 L-12.244986,16.71037 L-12.310248,16.655346 L-12.373704,16.597872 L-12.435386,16.538036 L-12.495337,16.475937 L-12.553605,16.411678 L-12.610251,16.34538 L-12.665341,16.27717 L-12.718947,16.20718 L-12.771153,16.135555 L-12.822048,16.062443 L-12.871729,15.987998 L-12.9203,15.912378 L-12.967869,15.835746 L-13.014553,15.758266 L-13.060475,15.680104 L-13.105759,15.601424 L-13.150536,15.522392 L-13.194937,15.44317 L-13.239098,15.363916 L-13.283156,15.284789 L-13.327248,15.205938 L-13.3715105,15.127509 L-13.4160795,15.049643 L-13.461087,14.972469 L-13.506666,14.896115 L-13.55294,14.820698 L-13.600032,14.746325 L-13.648055,14.673095 L-13.69712,14.6011 L-13.747324,14.530418 L-13.79876,14.46112 L-13.85151,14.393264 L-13.905644,14.326899 L-13.961224,14.262061 L-14.018295,14.198774 L-14.076898,14.1370535 L-14.1370535,14.076898 L-14.198774,14.018295 L-14.262061,13.961224 L-14.326899,13.905644 L-14.393264,13.85151 L-14.46112,13.79876 L-14.530418,13.747324 L-14.6011,13.69712 L-14.673095,13.648055 L-14.746325,13.600032 L-14.820698,13.55294 L-14.896115,13.506666 L-14.972469,13.461087 L-15.049643,13.4160795 L-15.127509,13.3715105 L-15.205938,13.327248 L-15.284789,13.283156 L-15.363916,13.239098 L-15.44317,13.194937 L-15.522392,13.150536 L-15.601424,13.105759 L-15.680104,13.060475 L-15.758266,13.014553 L-15.835746,12.967869 L-15.912378,12.9203 L-15.987998,12.871729 L-16.062443,12.822048 L-16.135555,12.771153 L-16.20718,12.718947 L-16.27717,12.665341 L-16.34538,12.610251 L-16.411678,12.553605 L-16.475937,12.495337 L-16.538036,12.435386 L-16.597872,12.373704 L-16.655346,12.310248 L-16.71037,12.244986 L-16.762867,12.17789 L-16.812777,12.108942 L-16.860043,12.038135 L-16.904623,11.965465 L-16.94649,11.890941 L-16.985624,11.81458 L-17.022017,11.736406 L-17.055674,11.656455 L-17.08661,11.57477 L-17.114857,11.491404 L-17.140453,11.406418 L-17.163454,11.319883 L-17.183922,11.23188 L-17.201937,11.142494 L-17.217587,11.051819 L-17.230976,10.959954 L-17.242218,10.867007 L-17.251436,10.773087 L-17.258766,10.678308 L-17.264355,10.5827875 L-17.268358,10.486646 L-17.270935,10.390002 L-17.27226,10.292979 L-17.272509,10.195696 L-17.271864,10.098271 L-17.270515,10.000825 L-17.26865,9.903469 L-17.266466,9.806317 L-17.264154,9.709475 L-17.261911,9.613046 L-17.259932,9.517127 L-17.258408,9.421811 L-17.257526,9.327184 L-17.257475,9.233325 L-17.258434,9.140308 L-17.260576,9.0482 L-17.264069,8.95706 L-17.26907,8.866942 L-17.275728,8.777891 L-17.284185,8.689948 L-17.294569,8.603145 L-17.306993,8.517509 L-17.321562,8.433061 L-17.338366,8.349813 L-17.357477,8.267776 L-17.378956,8.186951 L-17.402842,8.107332 L-17.42916,8.028911 L-17.45792,7.9516673 L-17.489113,7.875579 L-17.52271,7.800613 L-17.558672,7.7267294 L-17.596937,7.653883 L-17.637434,7.582019 L-17.68007,7.511077 L-17.72475,7.4409904 L-17.771355,7.371688 L-17.81976,7.3030915 L-17.869827,7.2351213 L-17.921412,7.1676936 L-17.974354,7.1007223 L-18.02849,7.034121 L-18.08365,6.967802 L-18.139654,6.9016786 L-18.196316,6.835665 L-18.253448,6.769677 L-18.310858,6.7036333 L-18.368351,6.637454 L-18.425728,6.571065 L-18.482792,6.5043936 L-18.539347,6.437372 L-18.595198,6.369939 L-18.650154,6.302035 L-18.70403,6.233607 L-18.75664,6.164607 L-18.80781,6.094993 L-18.857376,6.024727 L-18.905176,5.953776 L-18.951065,5.882114 L-18.994902,5.809718 L-19.03656,5.7365713 L-19.07593,5.6626606 L-19.112904,5.587978 L-19.147396,5.5125194 L-19.179333,5.4362845 L-19.20865,5.3592772 L-19.235306,5.2815056 L-19.25926,5.2029805 L-19.280499,5.1237173 L-19.299015,5.0437346 L-19.31482,4.963055 L-19.327932,4.8817058 L-19.33839,4.7997165 L-19.346249,4.7171206 L-19.35157,4.6339564 L-19.354431,4.550264 L-19.354927,4.4660873 L-19.35316,4.381472 L-19.34925,4.296467 L-19.34333,4.2111216 L-19.335537,4.1254864 L-19.326029,4.039613 L-19.314968,3.9535525 L-19.302525,3.867355 L-19.288883,3.7810702 L-19.274231,3.6947453 L-19.258764,3.6084259 L-19.24268,3.5221546 L-19.226185,3.4359713 L-19.209486,3.3499126 L-19.19279,3.2640119 L-19.176304,3.1782982 L-19.16024,3.0927975 L-19.144802,3.0075314 L-19.130192,2.9225178 L-19.116608,2.8377707 L-19.104244,2.753301 L-19.093285,2.669115 L-19.08391,2.5852175 L-19.076288,2.5016088 L-19.07058,2.4182885 L-19.066929,2.3352525 L-19.065475,2.2524958 L-19.066336,2.1700115 L-19.06962,2.0877917 L-19.075418,2.0058262 L-19.083805,1.9241046 L-19.094835,1.8426139 L-19.108551,1.7613397 L-19.124968,1.680265 L-19.144093,1.5993707 L-19.165905,1.5186349 L-19.190372,1.4380327 L-19.217443,1.3575369 L-19.24705,1.2771174 L-19.279108,1.1967419 L-19.313519,1.116377 L-19.350166,1.0359874 L-19.388924,0.9555377 L-19.429651,0.8749925 L-19.472197,0.7943171 L-19.516397,0.71347815 L-19.562075,0.6324441 L-19.609049,0.55118555 L-19.657124,0.46967614 L-19.706102,0.38789237 L-19.755777,0.30581424 L-19.805933,0.22342534 L-19.856356,0.14071323 L-19.906824,0.057669308 L-19.957117,-0.025710842 L-20.00701,-0.10942755 L-20.056278,-0.193477 L-20.104706,-0.2778513 L-20.15207,-0.36253855 L-20.198158,-0.44752303 L-20.242765,-0.5327853 L-20.285685,-0.6183026 L-20.326725,-0.7040489 L-20.365702,-0.7899954 L-20.402441,-0.8761109 L-20.436777,-0.9623623 L-20.468561,-1.0487149 L-20.497652,-1.1351329 L-20.523928,-1.2215801 L-20.547277,-1.3080206 L-20.567602,-1.3944185 L-20.584824,-1.4807392 L-20.598873,-1.5669495 L-20.609701,-1.6530178 L-20.617271,-1.7389144 L-20.621561,-1.8246119 L-20.622566,-1.9100846 L-20.62029,-1.9953091 L-20.614761,-2.0802636 L-20.606014,-2.1649282 L-20.594097,-2.2492845 L-20.579077,-2.3333154 L-20.561031,-2.4170058 L-20.540052,-2.5003417 L-20.516247,-2.5833106 L-20.489733,-2.6659021 L-20.46064,-2.748108 L-20.429113,-2.8299222 L-20.395304,-2.9113414 L-20.359377,-2.9923658 L-20.321508,-3.0729983 L-20.281878,-3.1532457 L-20.240673,-3.2331183 L-20.198093,-3.3126304 L-20.154335,-3.3918006 L-20.109606,-3.4706511 L-20.06411,-3.5492082 L-20.018053,-3.6275017 L-19.971645,-3.7055655 L-19.92509,-3.7834368 L-19.878593,-3.861156 L-19.832354,-3.9387662 L-19.786562,-4.016313 L-19.741411,-4.0938444 L-19.697083,-4.171409 L-19.653748,-4.2490582 L-19.61157,-4.326842 L-19.570707,-4.4048104 L-19.531301,-4.483015 L-19.493483,-4.5615034 L-19.457373,-4.6403227 L-19.423077,-4.7195168 L-19.390688,-4.7991276 L-19.360281,-4.879192 L-19.331919,-4.959744 L-19.305647,-5.040813 L-19.281496,-5.122424 L-19.259478,-5.2045984 L-19.239588,-5.2873516 L-19.221804,-5.370695 L-19.20609,-5.454636 L-19.192392,-5.5391774 L-19.180637,-5.624317 L-19.17074,-5.710049 L-19.162603,-5.7963634 L-19.15611,-5.8832455 L-19.151134,-5.970676 L-19.14754,-6.0586305 L-19.145174,-6.1470814 L-19.143879,-6.235995 L-19.143486,-6.3253326 L-19.143822,-6.4150524 L-19.144705,-6.505105 L-19.145945,-6.5954375 L-19.147354,-6.685993 L-19.148735,-6.776709 L-19.149893,-6.867518 L-19.150633,-6.95835 L-19.150755,-7.049131 L-19.150066,-7.1397824 L-19.148376,-7.230224 L-19.145496,-7.320374 L-19.141243,-7.4101477 L-19.13544,-7.4994593 L-19.127922,-7.588224 L-19.118523,-7.6763563 L-19.107092,-7.763772 L-19.093489,-7.850389 L-19.077581,-7.9361277 L-19.059246,-8.020911 L-19.038378,-8.104667 L-19.014877,-8.187327 L-18.98866,-8.268827 L-18.959654,-8.349111 L-18.927795,-8.428123 L-18.89304,-8.50582 L-18.85535,-8.582157 L-18.814709,-8.657101 L-18.771103,-8.73062 L-18.724539,-8.802691 L-18.675034,-8.873296 L-18.622623,-8.942419 L-18.56735,-9.010054 L-18.509275,-9.0762 L-18.448475,-9.14086 L-18.385033,-9.204044 L-18.319054,-9.265773 L-18.25065,-9.326067 L-18.179949,-9.384958 L-18.107086,-9.442486 L-18.032213,-9.498694 L-17.955484,-9.553638 L-17.87707,-9.607376 L-17.79714,-9.659977 L-17.715881,-9.7115135 L-17.633474,-9.762068 L-17.550112,-9.811727 L-17.465986,-9.860583 L-17.381292,-9.908737 L-17.296227,-9.956292 L-17.210981,-10.003356 L-17.125753,-10.050039 L-17.04073,-10.096458 L-16.956097,-10.142732 L-16.87204,-10.188976 L-16.78873,-10.235313 L-16.70634,-10.281865 L-16.625032,-10.32875 L-16.544956,-10.376088 L-16.466259,-10.423998 L-16.389076,-10.472591 L-16.313532,-10.521982 L-16.239742,-10.572274 L-16.167809,-10.6235695 L-16.097826,-10.675963 L-16.029875,-10.729541 L-15.9640255,-10.784383 L-15.900333,-10.840559 L-15.838842,-10.8981285 L-15.779585,-10.957142 L-15.722576,-11.017636 L-15.66782,-11.07964 L-15.615306,-11.143168 L-15.565007,-11.208226 L-15.516884,-11.274806 L-15.47088,-11.342891 L-15.426926,-11.412453 L-15.384937,-11.483456 L-15.344819,-11.555853 L-15.306462,-11.629589 L-15.269747,-11.704601 L-15.234543,-11.780819 L-15.200712,-11.858164 L-15.16811,-11.93655 L-15.136582,-12.015885 L-15.105972,-12.09607 L-15.076118,-12.176999 L-15.046856,-12.258561 L-15.018018,-12.340639 L-14.989437,-12.423112 L-14.960946,-12.505852 L-14.93238,-12.588731 L-14.903573,-12.671616 L-14.874366,-12.754371 L-14.844602,-12.836859 L-14.814128,-12.918944 L-14.7828,-13.00049 L-14.750476,-13.081361 L-14.717026,-13.161422 L-14.682323,-13.240545 L-14.646255,-13.318603 L-14.608709,-13.395475 L-14.569592,-13.471046 L-14.528814,-13.545208 L-14.486297,-13.61786 L-14.441973,-13.688909 L-14.395782,-13.758271 L-14.34768,-13.825871 L-14.2976265,-13.891647 L-14.245596,-13.955542 L-14.19157,-14.01751 L-14.135544,-14.077518 L-14.077518,-14.135544 L-14.01751,-14.19157 L-13.955542,-14.245596 L-13.891647,-14.2976265 L-13.825871,-14.34768 L-13.758271,-14.395782 L-13.688909,-14.441973 L-13.61786,-14.486297 L-13.545208,-14.528814 L-13.471046,-14.569592 L-13.395475,-14.608709 L-13.318603,-14.646255 L-13.240545,-14.682323 L-13.161422,-14.717026 L-13.081361,-14.750476 L-13.00049,-14.7828 L-12.918944,-14.814128 L-12.836859,-14.844602 L-12.754371,-14.874366 L-12.671616,-14.903573 L-12.588731,-14.93238 L-12.505852,-14.960946 L-12.423112,-14.989437 L-12.340639,-15.018018 L-12.258561,-15.046856 L-12.176999,-15.076118 L-12.09607,-15.105972 L-12.015885,-15.136582 L-11.93655,-15.16811 L-11.858164,-15.200712 L-11.780819,-15.234543 L-11.704601,-15.269747 L-11.629589,-15.306462 L-11.555853,-15.344819 L-11.483456,-15.384937 L-11.412453,-15.426926 L-11.342891,-15.47088 L-11.274806,-15.516884 L-11.208226,-15.565007 L-11.143168,-15.615306 L-11.07964,-15.66782 L-11.017636,-15.722576 L-10.957142,-15.779585 L-10.8981285,-15.838842 L-10.840559,-15.900333 L-10.784383,-15.9640255 L-10.729541,-16.029875 L-10.675963,-16.097826 L-10.6235695,-16.167809 L-10.572274,-16.239742 L-10.521982,-16.313532 L-10.472591,-16.389076 L-10.423998,-16.466259 L-10.376088,-16.544956 L-10.32875,-16.625032 L-10.281865,-16.70634 L-10.235313,-16.78873 L-10.188976,-16.87204 L-10.142732,-16.956097 L-10.096458,-17.04073 L-10.050039,-17.125753 L-10.003356,-17.210981 L-9.956292,-17.296227 L-9.908737,-17.381292 L-9.860583,-17.465986 L-9.811727,-17.550112 L-9.762068,-17.633474 L-9.7115135,-17.715881 L-9.659977,-17.79714 L-9.607376,-17.87707 L-9.553638,-17.955484 L-9.498694,-18.032213 L-9.442486,-18.107086 L-9.384958,-18.179949 L-9.326067,-18.25065 L-9.265773,-18.319054 L-9.204044,-18.385033 L-9.14086,-18.448475 L-9.0762,-18.509275 L-9.010054,-18.56735 L-8.942419,-18.622623 L-8.873296,-18.675034 L-8.802691,-18.724539 L-8.73062,-18.771103 L-8.657101,-18.814709 L-8.582157,-18.85535 L-8.50582,-18.89304 L-8.428123,-18.927795 L-8.349111,-18.959654 L-8.268827,-18.98866 L-8.187327,-19.014877 L-8.104667,-19.038378 L-8.020911,-19.059246 L-7.9361277,-19.077581 L-7.850389,-19.093489 L-7.763772,-19.107092 L-7.6763563,-19.118523 L-7.588224,-19.127922 L-7.4994593,-19.13544 L-7.4101477,-19.141243 L-7.320374,-19.145496 L-7.230224,-19.148376 L-7.1397824,-19.150066 L-7.049131,-19.150755 L-6.95835,-19.150633 L-6.867518,-19.149893 L-6.776709,-19.148735 L-6.685993,-19.147354 L-6.5954375,-19.145945 L-6.505105,-19.144705 L-6.4150524,-19.143822 L-6.3253326,-19.143486 L-6.235995,-19.143879 L-6.1470814,-19.145174 L-6.0586305,-19.14754 L-5.970676,-19.151134 L-5.8832455,-19.15611 L-5.7963634,-19.162603 L-5.710049,-19.17074 L-5.624317,-19.180637 L-5.5391774,-19.192392 L-5.454636,-19.20609 L-5.370695,-19.221804 L-5.2873516,-19.239588 L-5.2045984,-19.259478 L-5.122424,-19.281496 L-5.040813,-19.305647 L-4.959744,-19.331919 L-4.879192,-19.360281 L-4.7991276,-19.390688 L-4.7195168,-19.423077 L-4.6403227,-19.457373 L-4.5615034,-19.493483 L-4.483015,-19.531301 L-4.4048104,-19.570707 L-4.326842,-19.61157 L-4.2490582,-19.653748 L-4.171409,-19.697083 L-4.0938444,-19.741411 L-4.016313,-19.786562 L-3.9387662,-19.832354 L-3.861156,-19.878593 L-3.7834368,-19.92509 L-3.7055655,-19.971645 L-3.6275017,-20.018053 L-3.5492082,-20.06411 L-3.4706511,-20.109606 L-3.3918006,-20.154335 L-3.3126304,-20.198093 L-3.2331183,-20.240673 L-3.1532457,-20.281878 L-3.0729983,-20.321508 L-2.9923658,-20.359377 L-2.9113414,-20.395304 L-2.8299222,-20.429113 L-2.748108,-20.46064 L-2.6659021,-20.489733 L-2.5833106,-20.516247 L-2.5003417,-20.540052 L-2.4170058,-20.561031 L-2.3333154,-20.579077 L-2.2492845,-20.594097 L-2.1649282,-20.606014 L-2.0802636,-20.614761 L-1.9953091,-20.62029 L-1.9100846,-20.622566 L-1.8246119,-20.621561 L-1.7389144,-20.617271 L-1.6530178,-20.609701 L-1.5669495,-20.598873 L-1.4807392,-20.584824 L-1.3944185,-20.567602 L-1.3080206,-20.547277 L-1.2215801,-20.523928 L-1.1351329,-20.497652 L-1.0487149,-20.468561 L-0.9623623,-20.436777 L-0.8761109,-20.402441 L-0.7899954,-20.365702 L-0.7040489,-20.326725 L-0.6183026,-20.285685 L-0.5327853,-20.242765 L-0.44752303,-20.198158 L-0.36253855,-20.15207 L-0.2778513,-20.104706 L-0.193477,-20.056278 L-0.10942755,-20.00701 L-0.025710842,-19.957117 L0.057669308,-19.906824 L0.14071323,-19.856356 L0.22342534,-19.805933 L0.30581424,-19.755777 L0.38789237,-19.706102 L0.46967614,-19.657124 L0.55118555,-19.609049 L0.6324441,-19.562075 L0.71347815,-19.516397 L0.7943171,-19.472197 L0.8749925,-19.429651 L0.9555377,-19.388924 L1.0359874,-19.350166 L1.116377,-19.313519 L1.1967419,-19.279108 L1.2771174,-19.24705 L1.3575369,-19.217443 L1.4380327,-19.190372 L1.5186349,-19.165905 L1.5993707,-19.144093 L1.680265,-19.124968 L1.7613397,-19.108551 L1.8426139,-19.094835 L1.9241046,-19.083805 L2.0058262,-19.075418 L2.0877917,-19.06962 L2.1700115,-19.066336 L2.2524958,-19.065475 L2.3352525,-19.066929 L2.4182885,-19.07058 L2.5016088,-19.076288 L2.5852175,-19.08391 L2.669115,-19.093285 L2.753301,-19.104244 L2.8377707,-19.116608 L2.9225178,-19.130192 L3.0075314,-19.144802 L3.0927975,-19.16024 L3.1782982,-19.176304 L3.2640119,-19.19279 L3.3499126,-19.209486 L3.4359713,-19.226185 L3.5221546,-19.24268 L3.6084259,-19.258764 L3.6947453,-19.274231 L3.7810702,-19.288883 L3.867355,-19.302525 L3.9535525,-19.314968 L4.039613,-19.326029 L4.1254864,-19.335537 L4.2111216,-19.34333 L4.296467,-19.34925 L4.381472,-19.35316 L4.4660873,-19.354927 L4.550264,-19.354431 L4.6339564,-19.35157 L4.7171206,-19.346249 L4.7997165,-19.33839 L4.8817058,-19.327932 L4.963055,-19.31482 L5.0437346,-19.299015 L5.1237173,-19.280499 L5.2029805,-19.25926 L5.2815056,-19.235306 L5.3592772,-19.20865 L5.4362845,-19.179333 L5.5125194,-19.147396 L5.587978,-19.112904 L5.6626606,-19.07593 L5.7365713,-19.03656 L5.809718,-18.994902 L5.882114,-18.951065 L5.953776,-18.905176 L6.024727,-18.857376 L6.094993,-18.80781 L6.164607,-18.75664 L6.233607,-18.70403 L6.302035,-18.650154 L6.369939,-18.595198 L6.437372,-18.539347 L6.5043936,-18.482792 L6.571065,-18.425728 L6.637454,-18.368351 L6.7036333,-18.310858 L6.769677,-18.253448 L6.835665,-18.196316 L6.9016786,-18.139654 L6.967802,-18.08365 L7.034121,-18.02849 L7.1007223,-17.974354 L7.1676936,-17.921412 L7.2351213,-17.869827 L7.3030915,-17.81976 L7.371688,-17.771355 L7.4409904,-17.72475 L7.511077,-17.68007 L7.582019,-17.637434 L7.653883,-17.596937 L7.7267294,-17.558672 L7.800613,-17.52271 L7.875579,-17.489113 L7.9516673,-17.45792 L8.028911,-17.42916 L8.107332,-17.402842 L8.186951,-17.378956 L8.267776,-17.357477 L8.349813,-17.338366 L8.433061,-17.321562 L8.517509,-17.306993 L8.603145,-17.294569 L8.689948,-17.284185 L8.777891,-17.275728 L8.866942,-17.26907 L8.95706,-17.264069 L9.0482,-17.260576 L9.140308,-17.258434 L9.233325,-17.257475 L9.327184,-17.257526 L9.421811,-17.258408 L9.517127,-17.259932 L9.613046,-17.261911 L9.709475,-17.264154 L9.806317,-17.266466 L9.903469,-17.26865 L10.000825,-17.270515 L10.098271,-17.271864 L10.195696,-17.272509 L10.292979,-17.27226 L10.390002,-17.270935 L10.486646,-17.268358 L10.5827875,-17.264355 L10.678308,-17.258766 L10.773087,-17.251436 L10.867007,-17.242218 L10.959954,-17.230976 L11.051819,-17.217587 L11.142494,-17.201937 L11.23188,-17.183922 L11.319883,-17.163454 L11.406418,-17.140453 L11.491404,-17.114857 L11.57477,-17.08661 L11.656455,-17.055674 L11.736406,-17.022017 L11.81458,-16.985624 L11.890941,-16.94649 L11.965465,-16.904623 L12.038135,-16.860043 L12.108942,-16.812777 L12.17789,-16.762867 L12.244986,-16.71037 L12.310248,-16.655346 L12.373704,-16.597872 L12.435386,-16.538036 L12.495337,-16.475937 L12.553605,-16.411678 L12.610251,-16.34538 L12.665341,-16.27717 L12.718947,-16.20718 L12.771153,-16.135555 L12.822048,-16.062443 L12.871729,-15.987998 L12.9203,-15.912378 L12.967869,-15.835746 L13.014553,-15.758266 L13.060475,-15.680104 L13.105759,-15.601424 L13.150536,-15.522392 L13.194937,-15.44317 L13.239098,-15.363916 L13.283156,-15.284789 L13.327248,-15.205938 L13.3715105,-15.127509 L13.4160795,-15.049643 L13.461087,-14.972469 L13.506666,-14.896115 L13.55294,-14.820698 L13.600032,-14.746325 L13.648055,-14.673095 L13.69712,-14.6011 L13.747324,-14.530418 L13.79876,-14.46112 L13.85151,-14.393264 L13.905644,-14.326899 L13.961224,-14.262061 L14.018295,-14.198774 L14.076898,-14.1370535 L14.1370535,-14.076898 L14.198774,-14.018295 L14.262061,-13.961224 L14.326899,-13.905644 L14.393264,-13.85151 L14.46112,-13.79876 L14.530418,-13.747324 L14.6011,-13.69712 L14.673095,-13.648055 L14.746325,-13.600032 L14.820698,-13.55294 L14.896115,-13.506666 L14.972469,-13.461087 L15.049643,-13.4160795 L15.127509,-13.3715105 L15.205938,-13.327248 L15.284789,-13.283156 L15.363916,-13.239098 L15.44317,-13.194937 L15.522392,-13.150536 L15.601424,-13.105759 L15.680104,-13.060475 L15.758266,-13.014553 L15.835746,-12.967869 L15.912378,-12.9203 L15.987998,-12.871729 L16.062443,-12.822048 L16.135555,-12.771153 L16.20718,-12.718947 L16.27717,-12.665341 L16.34538,-12.610251 L16.411678,-12.553605 L16.475937,-12.495337 L16.538036,-12.435386 L16.597872,-12.373704 L16.655346,-12.310248 L16.71037,-12.244986 L16.762867,-12.17789 L16.812777,-12.108942 L16.860043,-12.038135 L16.904623,-11.965465 L16.94649,-11.890941 L16.985624,-11.81458 L17.022017,-11.736406 L17.055674,-11.656455 L17.08661,-11.57477 L17.114857,-11.491404 L17.140453,-11.406418 L17.163454,-11.319883 L17.183922,-11.23188 L17.201937,-11.142494 L17.217587,-11.051819 L17.230976,-10.959954 L17.242218,-10.867007 L17.251436,-10.773087 L17.258766,-10.678308 L17.264355,-10.5827875 L17.268358,-10.486646 L17.270935,-10.390002 L17.27226,-10.292979 L17.272509,-10.195696 L17.271864,-10.098271 L17.270515,-10.000825 L17.26865,-9.903469 L17.266466,-9.806317 L17.264154,-9.709475 L17.261911,-9.613046 L17.259932,-9.517127 L17.258408,-9.421811 L17.257526,-9.327184 L17.257475,-9.233325 L17.258434,-9.140308 L17.260576,-9.0482 L17.264069,-8.95706 L17.26907,-8.866942 L17.275728,-8.777891 L17.284185,-8.689948 L17.294569,-8.603145 L17.306993,-8.517509 L17.321562,-8.433061 L17.338366,-8.349813 L17.357477,-8.267776 L17.378956,-8.186951 L17.402842,-8.107332 L17.42916,-8.028911 L17.45792,-7.9516673 L17.489113,-7.875579 L17.52271,-7.800613 L17.558672,-7.7267294 L17.596937,-7.653883 L17.637434,-7.582019 L17.68007,-7.511077 L17.72475,-7.4409904 L17.771355,-7.371688 L17.81976,-7.3030915 L17.869827,-7.2351213 L17.921412,-7.1676936 L17.974354,-7.1007223 L18.02849,-7.034121 L18.08365,-6.967802 L18.139654,-6.9016786 L18.196316,-6.835665 L18.253448,-6.769677 L18.310858,-6.7036333 L18.368351,-6.637454 L18.425728,-6.571065 L18.482792,-6.5043936 L18.539347,-6.437372 L18.595198,-6.369939 L18.650154,-6.302035 L18.70403,-6.233607 L18.75664,-6.164607 L18.80781,-6.094993 L18.857376,-6.024727 L18.905176,-5.953776 L18.951065,-5.882114 L18.994902,-5.809718 L19.03656,-5.7365713 L19.07593,-5.6626606 L19.112904,-5.587978 L19.147396,-5.5125194 L19.179333,-5.4362845 L19.20865,-5.3592772 L19.235306,-5.2815056 L19.25926,-5.2029805 L19.280499,-5.1237173 L19.299015,-5.0437346 L19.31482,-4.963055 L19.327932,-4.8817058 L19.33839,-4.7997165 L19.346249,-4.7171206 L19.35157,-4.6339564 L19.354431,-4.550264 L19.354927,-4.4660873 L19.35316,-4.381472 L19.34925,-4.296467 L19.34333,-4.2111216 L19.335537,-4.1254864 L19.326029,-4.039613 L19.314968,-3.9535525 L19.302525,-3.867355 L19.288883,-3.7810702 L19.274231,-3.6947453 L19.258764,-3.6084259 L19.24268,-3.5221546 L19.226185,-3.4359713 L19.209486,-3.3499126 L19.19279,-3.2640119 L19.176304,-3.1782982 L19.16024,-3.0927975 L19.144802,-3.0075314 L19.130192,-2.9225178 L19.116608,-2.8377707 L19.104244,-2.753301 L19.093285,-2.669115 L19.08391,-2.5852175 L19.076288,-2.5016088 L19.07058,-2.4182885 L19.066929,-2.3352525 L19.065475,-2.2524958 L19.066336,-2.1700115 L19.06962,-2.0877917 L19.075418,-2.0058262 L19.083805,-1.9241046 L19.094835,-1.8426139 L19.108551,-1.7613397 L19.124968,-1.680265 L19.144093,-1.5993707 L19.165905,-1.5186349 L19.190372,-1.4380327 L19.217443,-1.3575369 L19.24705,-1.2771174 L19.279108,-1.1967419 L19.313519,-1.116377 L19.350166,-1.0359874 L19.388924,-0.9555377 L19.429651,-0.8749925 L19.472197,-0.7943171 L19.516397,-0.71347815 L19.562075,-0.6324441 L19.609049,-0.55118555 L19.657124,-0.46967614 L19.706102,-0.38789237 L19.755777,-0.30581424 L19.805933,-0.22342534 L19.856356,-0.14071323 L19.906824,-0.057669308 L19.957186,0.025824314" fill="none" stroke="black" stroke-width="0.05"/>
</svg>