<svg height="52.454507866171475mm" viewBox="-25.25 -26.227253933085738 52.13307157196408 52.454507866171475" width="52.13307157196408mm" xmlns="http://www.w3.org/2000/svg">
<path d="M20,0 L20.066832,0.08405624 L20.133234,0.16867173 L20.199125,0.25384304 L20.264427,0.3395655 L20.32906,0.4258331 L20.392946,0.51263857 L20.456007,0.59997344 L20.518166,0.6878278 L20.579346,0.77619076 L20.63947,0.86505 L20.698462,0.9543922 L20.75625,1.0442026 L20.812761,1.1344653 L20.867924,1.2251637 L20.921667,1.3162796 L20.973919,1.407794 L21.024616,1.4996867 L21.073689,1.5919365 L21.121075,1.6845214 L21.16671,1.7774183 L21.210533,1.8706033 L21.252487,1.9640515 L21.292513,2.0577374 L21.330555,2.1516347 L21.36656,2.2457159 L21.400478,2.3399537 L21.432259,2.4343193 L21.461857,2.528784 L21.489227,2.6233182 L21.514328,2.7178917 L21.53712,2.8124743 L21.557566,2.907035 L21.575632,3.001543 L21.591286,3.0959666 L21.604496,3.1902745 L21.615238,3.2844346 L21.623487,3.378415 L21.629223,3.4721842 L21.632423,3.5657103 L21.633078,3.658961 L21.631168,3.7519054 L21.626686,3.8445113 L21.619623,3.936748 L21.609976,4.028584 L21.597742,4.1199894 L21.58292,4.2109337 L21.565514,4.3013873 L21.54553,4.3913207 L21.52298,4.4807053 L21.497871,4.569514 L21.470222,4.6577187 L21.440046,4.7452927 L21.407366,4.832211 L21.372202,4.918448 L21.33458,5.00398 L21.294525,5.088784 L21.252071,5.172838 L21.207249,5.25612 L21.160093,5.338611 L21.110641,5.420292 L21.058935,5.501144 L21.005013,5.5811515 L20.948921,5.660299 L20.890707,5.738571 L20.830416,5.8159566 L20.768103,5.892443 L20.703815,5.968021 L20.63761,6.0426803 L20.569542,6.1164136 L20.499672,6.189216 L20.428057,6.2610817 L20.35476,6.332008 L20.27984,6.401993 L20.203365,6.471036 L20.125399,6.539139 L20.04601,6.6063037 L19.965261,6.6725345 L19.883226,6.7378373 L19.799973,6.8022194 L19.715572,6.865689 L19.630096,6.928256 L19.543617,6.989932 L19.456205,7.0507307 L19.367937,7.110666 L19.278885,7.169753 L19.189123,7.2280107 L19.098726,7.2854567 L19.007769,7.342111 L18.916323,7.3979955 L18.824465,7.453133 L18.73227,7.5075474 L18.63981,7.5612636 L18.54716,7.614309 L18.454391,7.6667104 L18.36158,7.7184973 L18.268793,7.769699 L18.176107,7.820348 L18.083588,7.870475 L17.991308,7.9201136 L17.899336,7.9692984 L17.80774,8.018064 L17.716583,8.066444 L17.625933,8.114479 L17.535854,8.162203 L17.446407,8.209656 L17.357655,8.256875 L17.269655,8.3039 L17.182467,8.350771 L17.096146,8.397527 L17.010748,8.444209 L16.926325,8.490858 L16.842928,8.537514 L16.760607,8.58422 L16.679407,8.631016 L16.599375,8.677943 L16.520552,8.725044 L16.44298,8.772359 L16.3667,8.81993 L16.291742,8.867797 L16.218147,8.916002 L16.145945,8.964584 L16.075165,9.013585 L16.005835,9.063042 L15.937978,9.112995 L15.871619,9.163484 L15.806779,9.214544 L15.743474,9.266214 L15.68172,9.318529 L15.621531,9.371526 L15.562917,9.425238 L15.505886,9.479698 L15.450444,9.53494 L15.396595,9.590995 L15.344339,9.647892 L15.293676,9.705662 L15.244601,9.764332 L15.197109,9.823928 L15.151191,9.884475 L15.106836,9.945998 L15.064031,10.008518 L15.022761,10.072057 L14.983008,10.136634 L14.944755,10.202266 L14.907975,10.2689705 L14.872648,10.3367605 L14.838748,10.405649 L14.806245,10.475648 L14.77511,10.546767 L14.745311,10.619013 L14.716814,10.692391 L14.689585,10.766908 L14.663584,10.842563 L14.638774,10.919357 L14.615114,10.99729 L14.592563,11.076358 L14.5710745,11.156555 L14.550606,11.237875 L14.531109,11.320309 L14.512538,11.403845 L14.4948435,11.488471 L14.477974,11.574173 L14.461881,11.6609335 L14.446509,11.748735 L14.431809,11.837558 L14.417725,11.92738 L14.404202,12.018175 L14.391187,12.109921 L14.378622,12.202589 L14.366451,12.29615 L14.354619,12.390574 L14.343067,12.485828 L14.331739,12.58188 L14.320577,12.678691 L14.309524,12.776226 L14.298521,12.874446 L14.287511,12.97331 L14.276437,13.07278 L14.265242,13.172809 L14.253868,13.273355 L14.24226,13.374372 L14.23036,13.475814 L14.218113,13.577632 L14.205465,13.679778 L14.192361,13.782203 L14.178746,13.884854 L14.164569,13.987681 L14.149777,14.0906315 L14.13432,14.193651 L14.118148,14.296686 L14.101211,14.399682 L14.08346,14.5025835 L14.064851,14.605335 L14.045337,14.70788 L14.024874,14.8101635 L14.003419,14.912127 L13.980931,15.013714 L13.957371,15.114868 L13.932698,15.215532 L13.9068775,15.315648 L13.879873,15.415161 L13.851651,15.514012 L13.822179,15.612146 L13.791426,15.709507 L13.759364,15.806039 L13.725967,15.901686 L13.691208,15.996394 L13.655065,16.09011 L13.617514,16.18278 L13.578538,16.274351 L13.538116,16.36477 L13.496235,16.453993 L13.452878,16.541962 L13.408034,16.628633 L13.361692,16.713959 L13.313844,16.79789 L13.264482,16.880386 L13.213601,16.9614 L13.161198,17.040892 L13.107272,17.118818 L13.051824,17.195143 L12.994854,17.269825 L12.936368,17.342833 L12.876372,17.414127 L12.814874,17.48368 L12.751881,17.551458 L12.687406,17.617432 L12.62146,17.681576 L12.55406,17.743864 L12.485219,17.804274 L12.414957,17.862782 L12.343291,17.91937 L12.270243,17.974022 L12.195834,18.026722 L12.120088,18.077457 L12.043029,18.126215 L11.964684,18.172989 L11.885078,18.21777 L11.804243,18.260555 L11.722206,18.30134 L11.638999,18.340128 L11.554653,18.376917 L11.469202,18.411715 L11.382678,18.444525 L11.295117,18.475355 L11.206554,18.50422 L11.117025,18.53113 L11.026567,18.556099 L10.935219,18.579144 L10.843017,18.600286 L10.75,18.619547 L10.656208,18.636946 L10.561681,18.652514 L10.466457,18.666273 L10.370579,18.678255 L10.274084,18.68849 L10.177015,18.697012 L10.079412,18.703856 L9.981316,18.709059 L9.882766,18.712656 L9.783805,18.714693 L9.684471,18.715206 L9.584806,18.714243 L9.48485,18.711845 L9.384642,18.708063 L9.284221,18.70294 L9.183625,18.69653 L9.082894,18.688877 L8.982066,18.68004 L8.881178,18.670067 L8.780266,18.659014 L8.679365,18.646935 L8.578512,18.633886 L8.477741,18.619926 L8.377086,18.60511 L8.276578,18.589499 L8.17625,18.573149 L8.076134,18.55612 L7.976258,18.538473 L7.8766522,18.520271 L7.777344,18.50157 L7.678361,18.482435 L7.5797276,18.462927 L7.4814696,18.443104 L7.38361,18.42303 L7.286171,18.402767 L7.1891737,18.382376 L7.0926385,18.361916 L6.996583,18.341448 L6.901026,18.321035 L6.805982,18.300734 L6.7114673,18.280605 L6.6174946,18.260708 L6.5240765,18.2411 L6.4312243,18.221838 L6.338948,18.202978 L6.247255,18.184576 L6.156153,18.166687 L6.0656486,18.149364 L5.975745,18.132658 L5.8864474,18.116621 L5.797756,18.101305 L5.7096734,18.086754 L5.622198,18.073017 L5.5353293,18.060143 L5.449064,18.04817 L5.3633976,18.037144 L5.278326,18.027107 L5.193843,18.018095 L5.109941,18.010147 L5.026612,18.0033 L4.9438457,17.997585 L4.861633,17.993038 L4.7799616,17.989685 L4.69882,17.987556 L4.618194,17.98668 L4.5380707,17.987076 L4.4584346,17.988768 L4.3792696,17.991777 L4.30056,17.996122 L4.2222877,18.001816 L4.144436,18.008875 L4.066985,18.01731 L3.989917,18.02713 L3.9132116,18.038343 L3.8368487,18.050953 L3.7608075,18.064964 L3.6850674,18.080378 L3.6096067,18.09719 L3.5344038,18.1154 L3.4594364,18.135002 L3.3846827,18.155985 L3.3101199,18.17834 L3.2357256,18.202059 L3.1614769,18.227123 L3.0873513,18.253517 L3.0133257,18.281223 L2.9393778,18.31022 L2.865485,18.340487 L2.7916243,18.371998 L2.7177737,18.404728 L2.6439111,18.438648 L2.5700145,18.473728 L2.4960625,18.509937 L2.4220338,18.54724 L2.3479075,18.585602 L2.2736633,18.624989 L2.1992812,18.665358 L2.1247416,18.70667 L2.0500255,18.748886 L1.9751146,18.79196 L1.8999912,18.83585 L1.8246379,18.880507 L1.7490383,18.925886 L1.6731766,18.971937 L1.5970377,19.018614 L1.5206071,19.065865 L1.4438713,19.113636 L1.3668175,19.161877 L1.2894336,19.210535 L1.2117084,19.259554 L1.1336317,19.308882 L1.055194,19.35846 L0.9763868,19.408236 L0.8972022,19.45815 L0.8176336,19.508148 L0.73767513,19.55817 L0.6573218,19.60816 L0.57656974,19.658062 L0.49541572,19.707815 L0.41385776,19.757362 L0.3318946,19.806646 L0.2495261,19.85561 L0.16675289,19.904196 L0.08357667,19.952345 L0.0000000000000056655387,20 L-0.08397362,20.047106 L-0.16833976,20.093607 L-0.2530931,20.139448 L-0.33822742,20.184572 L-0.4237356,20.228926 L-0.5096097,20.272457 L-0.59584093,20.315111 L-0.6824196,20.356836 L-0.7693353,20.397585 L-0.8565768,20.437304 L-0.94413203,20.475945 L-1.0319883,20.51346 L-1.120132,20.549805 L-1.2085491,20.584932 L-1.2972249,20.6188 L-1.3861437,20.651363 L-1.4752895,20.682583 L-1.5646456,20.71242 L-1.6541951,20.740833 L-1.7439198,20.767788 L-1.833802,20.79325 L-1.9238229,20.817183 L-2.0139632,20.839558 L-2.104204,20.860344 L-2.194525,20.87951 L-2.2849066,20.897036 L-2.3753283,20.91289 L-2.4657695,20.927052 L-2.5562098,20.9395 L-2.646628,20.950216 L-2.7370028,20.95918 L-2.827314,20.966381 L-2.9175396,20.9718 L-3.007659,20.975426 L-3.097651,20.977251 L-3.1874948,20.977266 L-3.2771692,20.975466 L-3.3666537,20.971842 L-3.4559278,20.966398 L-3.5449712,20.95913 L-3.6337638,20.950037 L-3.722286,20.939127 L-3.8105183,20.926403 L-3.8984418,20.911871 L-3.9860375,20.89554 L-4.073288,20.877422 L-4.160175,20.857529 L-4.246681,20.835875 L-4.3327904,20.812473 L-4.4184866,20.787344 L-4.5037537,20.760506 L-4.5885773,20.73198 L-4.6729426,20.701786 L-4.756837,20.66995 L-4.8402467,20.636497 L-4.92316,20.601454 L-5.0055656,20.56485 L-5.0874524,20.526712 L-5.168811,20.487074 L-5.249632,20.445967 L-5.3299074,20.403423 L-5.40963,20.35948 L-5.488792,20.31417 L-5.567389,20.267534 L-5.645416,20.219606 L-5.7228675,20.170427 L-5.799742,20.120035 L-5.876037,20.068474 L-5.951751,20.015781 L-6.026883,19.962 L-6.101434,19.907175 L-6.175405,19.851347 L-6.2487984,19.794561 L-6.321617,19.736862 L-6.3938656,19.678295 L-6.4655476,19.618902 L-6.5366697,19.558733 L-6.6072383,19.49783 L-6.6772604,19.436241 L-6.7467446,19.374012 L-6.8156996,19.311186 L-6.8841357,19.247812 L-6.952063,19.183937 L-7.019493,19.119602 L-7.0864377,19.054857 L-7.1529107,18.989746 L-7.2189245,18.924313 L-7.2844934,18.858604 L-7.3496327,18.792662 L-7.414358,18.72653 L-7.478685,18.660255 L-7.5426307,18.593876 L-7.6062117,18.527435 L-7.6694455,18.460976 L-7.7323513,18.394537 L-7.794947,18.32816 L-7.857252,18.261879 L-7.919286,18.195738 L-7.9810677,18.129772 L-8.042618,18.064014 L-8.103956,17.998505 L-8.165105,17.933273 L-8.226084,17.868357 L-8.286913,17.803783 L-8.347615,17.739586 L-8.408211,17.675793 L-8.46872,17.612432 L-8.529167,17.549534 L-8.589571,17.48712 L-8.649953,17.425217 L-8.710335,17.363848 L-8.770738,17.303036 L-8.8311825,17.2428 L-8.891689,17.183159 L-8.952279,17.12413 L-9.012972,17.065733 L-9.073787,17.007978 L-9.134745,16.950884 L-9.195864,16.89446 L-9.257164,16.838718 L-9.318662,16.783667 L-9.380376,16.729313 L-9.442324,16.675667 L-9.504522,16.62273 L-9.566987,16.570509 L-9.629735,16.519003 L-9.69278,16.468216 L-9.756135,16.418146 L-9.819817,16.368793 L-9.883836,16.320152 L-9.948206,16.27222 L-10.012938,16.224993 L-10.078042,16.178461 L-10.143529,16.132616 L-10.209408,16.087452 L-10.275686,16.042955 L-10.342372,15.999115 L-10.4094715,15.955919 L-10.476991,15.913353 L-10.544934,15.871403 L-10.613307,15.83005 L-10.68211,15.78928 L-10.751348,15.749074 L-10.821019,15.709413 L-10.891126,15.670277 L-10.961667,15.631644 L-11.03264,15.593495 L-11.104044,15.555807 L-11.175875,15.518557 L-11.248128,15.48172 L-11.320799,15.445273 L-11.39388,15.409191 L-11.467364,15.373447 L-11.541245,15.338017 L-11.615513,15.302874 L-11.690158,15.267989 L-11.765169,15.233337 L-11.840535,15.19889 L-11.9162445,15.1646185 L-11.992283,15.130496 L-12.068638,15.096493 L-12.145292,15.062582 L-12.222233,15.028733 L-12.299443,14.994918 L-12.376905,14.961108 L-12.454601,14.927275 L-12.532515,14.893388 L-12.610625,14.859421 L-12.688913,14.825344 L-12.76736,14.791129 L-12.845943,14.756748 L-12.924643,14.722173 L-13.003436,14.687377 L-13.082302,14.652332 L-13.161218,14.617013 L-13.240159,14.581391 L-13.319104,14.545442 L-13.398029,14.50914 L-13.47691,14.47246 L-13.555721,14.435377 L-13.63444,14.397868 L-13.713041,14.35991 L-13.7915,14.321481 L-13.869792,14.282557 L-13.947891,14.243118 L-14.025774,14.203144 L-14.103415,14.162615 L-14.180787,14.1215105 L-14.257868,14.079815 L-14.334633,14.037509 L-14.411056,13.994577 L-14.487112,13.951002 L-14.562778,13.906771 L-14.638031,13.861868 L-14.712845,13.816281 L-14.787198,13.769998 L-14.861067,13.723005 L-14.934427,13.675294 L-15.007259,13.626855 L-15.07954,13.577679 L-15.151248,13.527758 L-15.2223625,13.477084 L-15.292863,13.425653 L-15.36273,13.373459 L-15.431945,13.3204975 L-15.500488,13.266766 L-15.568342,13.21226 L-15.63549,13.1569805 L-15.701915,13.1009245 L-15.767601,13.044094 L-15.832534,12.986489 L-15.896698,12.928112 L-15.96008,12.868965 L-16.022669,12.809052 L-16.08445,12.748378 L-16.145412,12.686946 L-16.20555,12.6247635 L-16.264847,12.561836 L-16.3233,12.498172 L-16.380898,12.433778 L-16.437635,12.368664 L-16.493505,12.302838 L-16.548504,12.236311 L-16.602625,12.169094 L-16.655869,12.101196 L-16.70823,12.032631 L-16.759705,11.96341 L-16.810297,11.893546 L-16.860004,11.823052 L-16.90883,11.751943 L-16.956774,11.680231 L-17.003838,11.607931 L-17.050028,11.535059 L-17.095346,11.461629 L-17.139801,11.387656 L-17.183395,11.313158 L-17.22614,11.238149 L-17.268036,11.162645 L-17.3091,11.086664 L-17.349333,11.0102215 L-17.388752,10.933335 L-17.427364,10.856021 L-17.465181,10.7782955 L-17.502216,10.700177 L-17.53848,10.621681 L-17.573988,10.542826 L-17.608753,10.463628 L-17.64279,10.384104 L-17.676111,10.30427 L-17.708736,10.224144 L-17.740679,10.143742 L-17.771957,10.063081 L-17.802586,9.982176 L-17.832582,9.901043 L-17.861967,9.819699 L-17.890757,9.73816 L-17.918966,9.65644 L-17.946619,9.5745535 L-17.973732,9.492516 L-18.000324,9.410342 L-18.026413,9.328045 L-18.052021,9.245639 L-18.077168,9.163137 L-18.101868,9.080552 L-18.126146,8.997897 L-18.15002,8.915183 L-18.17351,8.832422 L-18.196632,8.749626 L-18.219412,8.666805 L-18.241863,8.583969 L-18.264008,8.501128 L-18.285864,8.418292 L-18.307451,8.335469 L-18.328787,8.252668 L-18.34989,8.169897 L-18.370777,8.087163 L-18.391468,8.004473 L-18.411978,7.921832 L-18.432323,7.8392487 L-18.452524,7.7567267 L-18.472591,7.6742716 L-18.492546,7.5918875 L-18.512398,7.5095787 L-18.532164,7.4273486 L-18.551857,7.3452 L-18.571493,7.263136 L-18.591084,7.1811585 L-18.610638,7.099269 L-18.63017,7.017469 L-18.649694,6.935759 L-18.669214,6.8541393 L-18.688745,6.7726107 L-18.708292,6.691172 L-18.727867,6.6098223 L-18.747475,6.528561 L-18.767122,6.4473867 L-18.786816,6.366297 L-18.806562,6.2852893 L-18.826366,6.204362 L-18.846231,6.123512 L-18.86616,6.0427356 L-18.886154,5.9620304 L-18.90622,5.8813925 L-18.926352,5.8008175 L-18.946554,5.720302 L-18.966827,5.6398416 L-18.987167,5.5594316 L-19.007574,5.4790673 L-19.028046,5.3987446 L-19.048576,5.318458 L-19.069164,5.238203 L-19.089804,5.157974 L-19.11049,5.077766 L-19.131218,4.997574 L-19.15198,4.9173923 L-19.172768,4.8372164 L-19.193575,4.75704 L-19.214392,4.676859 L-19.23521,4.596667 L-19.256021,4.516459 L-19.276814,4.4362307 L-19.297579,4.3559756 L-19.318302,4.27569 L-19.338974,4.195369 L-19.359583,4.1150064 L-19.380117,4.034599 L-19.40056,3.9541416 L-19.420902,3.87363 L-19.44113,3.79306 L-19.461227,3.7124276 L-19.48118,3.631729 L-19.500977,3.5509605 L-19.5206,3.4701188 L-19.540035,3.3892004 L-19.559269,3.3082027 L-19.578283,3.2271228 L-19.597067,3.1459582 L-19.6156,3.0647066 L-19.633873,2.983366 L-19.651863,2.9019349 L-19.669561,2.8204114 L-19.686949,2.7387946 L-19.70401,2.6570833 L-19.720732,2.575277 L-19.737099,2.4933753 L-19.753094,2.411378 L-19.768703,2.3292851 L-19.783915,2.247097 L-19.79871,2.1648145 L-19.813078,2.0824385 L-19.827003,1.9999698 L-19.840473,1.9174103 L-19.853474,1.8347615 L-19.865992,1.7520252 L-19.878017,1.6692038 L-19.889538,1.5862995 L-19.90054,1.5033151 L-19.91101,1.4202533 L-19.920946,1.3371172 L-19.93033,1.2539101 L-19.939156,1.1706353 L-19.947412,1.0872967 L-19.955093,1.003898 L-19.96219,0.9204432 L-19.968695,0.83693624 L-19.9746,0.7533816 L-19.9799,0.66978365 L-19.98459,0.58614683 L-19.988667,0.5024758 L-19.992123,0.41877526 L-19.994953,0.33505002 L-19.99716,0.25130495 L-19.998737,0.16754495 L-19.999683,0.08377497 L-20,0.000000000000011331077 L-19.999683,-0.08377497 L-19.998737,-0.16754495 L-19.99716,-0.25130495 L-19.994953,-0.33505002 L-19.992123,-0.41877526 L-19.988667,-0.5024758 L-19.98459,-0.58614683 L-19.9799,-0.66978365 L-19.9746,-0.7533816 L-19.968695,-0.83693624 L-19.96219,-0.9204432 L-19.955093,-1.003898 L-19.947412,-1.0872967 L-19.939156,-1.1706353 L-19.93033,-1.2539101 L-19.920946,-1.3371172 L-19.91101,-1.4202533 L-19.90054,-1.5033151 L-19.889538,-1.5862995 L-19.878017,-1.6692038 L-19.865992,-1.7520252 L-19.853474,-1.8347615 L-19.840473,-1.9174103 L-19.827003,-1.9999698 L-19.813078,-2.0824385 L-19.79871,-2.1648145 L-19.783915,-2.247097 L-19.768703,-2.3292851 L-19.753094,-2.411378 L-19.737099,-2.4933753 L-19.720732,-2.575277 L-19.70401,-2.6570833 L-19.686949,-2.7387946 L-19.669561,-2.8204114 L-19.651863,-2.9019349 L-19.633873,-2.983366 L-19.6156,-3.0647066 L-19.597067,-3.1459582 L-19.578283,-3.2271228 L-19.559269,-3.3082027 L-19.540035,-3.3892004 L-19.5206,-3.4701188 L-19.500977,-3.5509605 L-19.48118,-3.631729 L-19.461227,-3.7124276 L-19.44113,-3.79306 L-19.420902,-3.87363 L-19.40056,-3.9541416 L-19.380117,-4.034599 L-19.359583,-4.1150064 L-19.338974,-4.195369 L-19.318302,-4.27569 L-19.297579,-4.3559756 L-19.276814,-4.4362307 L-19.256021,-4.516459 L-19.23521,-4.596667 L-19.214392,-4.676859 L-19.193575,-4.75704 L-19.172768,-4.8372164 L-19.15198,-4.9173923 L-19.131218,-4.997574 L-19.11049,-5.077766 L-19.089804,-5.157974 L-19.069164,-5.238203 L-19.048576,-5.318458 L-19.028046,-5.3987446 L-19.007574,-5.4790673 L-18.987167,-5.5594316 L-18.966827,-5.6398416 L-18.946554,-5.720302 L-18.926352,-5.8008175 L-18.90622,-5.8813925 L-18.886154,-5.9620304 L-18.86616,-6.0427356 L-18.846231,-6.123512 L-18.826366,-6.204362 L-18.806562,-6.2852893 L-18.786816,-6.366297 L-18.767122,-6.4473867 L-18.747475,-6.528561 L-18.727867,-6.6098223 L-18.708292,-6.691172 L-18.688745,-6.7726107 L-18.669214,-6.8541393 L-18.649694,-6.935759 L-18.63017,-7.017469 L-18.610638,-7.099269 L-18.591084,-7.1811585 L-18.571493,-7.263136 L-18.551857,-7.3452 L-18.532164,-7.4273486 L-18.512398,-7.5095787 L-18.492546,-7.5918875 L-18.472591,-7.6742716 L-18.452524,-7.7567267 L-18.432323,-7.8392487 L-18.411978,-7.921832 L-18.391468,-8.004473 L-18.370777,-8.087163 L-18.34989,-8.169897 L-18.328787,-8.252668 L-18.307451,-8.335469 L-18.285864,-8.418292 L-18.264008,-8.501128 L-18.241863,-8.583969 L-18.219412,-8.666805 L-18.196632,-8.749626 L-18.17351,-8.832422 L-18.15002,-8.915183 L-18.126146,-8.997897 L-18.101868,-9.080552 L-18.077168,-9.163137 L-18.052021,-9.245639 L-18.026413,-9.328045 L-18.000324,-9.410342 L-17.973732,-9.492516 L-17.946619,-9.5745535 L-17.918966,-9.65644 L-17.890757,-9.73816 L-17.861967,-9.819699 L-17.832582,-9.901043 L-17.802586,-9.982176 L-17.771957,-10.063081 L-17.740679,-10.143742 L-17.708736,-10.224144 L-17.676111,-10.30427 L-17.64279,-10.384104 L-17.608753,-10.463628 L-17.573988,-10.542826 L-17.53848,-10.621681 L-17.502216,-10.700177 L-17.465181,-10.7782955 L-17.427364,-10.856021 L-17.388752,-10.933335 L-17.349333,-11.0102215 L-17.3091,-11.086664 L-17.268036,-11.162645 L-17.22614,-11.238149 L-17.183395,-11.313158 L-17.139801,-11.387656 L-17.095346,-11.461629 L-17.050028,-11.535059 L-17.003838,-11.607931 L-16.956774,-11.680231 L-16.90883,-11.751943 L-16.860004,-11.823052 L-16.810297,-11.893546 L-16.759705,-11.96341 L-16.70823,-12.032631 L-16.655869,-12.101196 L-16.602625,-12.169094 L-16.548504,-12.236311 L-16.493505,-12.302838 L-16.437635,-12.368664 L-16.380898,-12.433778 L-16.3233,-12.498172 L-16.264847,-12.561836 L-16.20555,-12.6247635 L-16.145412,-12.686946 L-16.08445,-12.748378 L-16.022669,-12.809052 L-15.96008,-12.868965 L-15.896698,-12.928112 L-15.832534,-12.986489 L-15.767601,-13.044094 L-15.701915,-13.1009245 L-15.63549,-13.1569805 L-15.568342,-13.21226 L-15.500488,-13.266766 L-15.431945,-13.3204975 L-15.36273,-13.373459 L-15.292863,-13.425653 L-15.2223625,-13.477084 L-15.151248,-13.527758 L-15.07954,-13.577679 L-15.007259,-13.626855 L-14.934427,-13.675294 L-14.861067,-13.723005 L-14.787198,-13.769998 L-14.712845,-13.816281 L-14.638031,-13.861868 L-14.562778,-13.906771 L-14.487112,-13.951002 L-14.411056,-13.994577 L-14.334633,-14.037509 L-14.257868,-14.079815 L-14.180787,-14.1215105 L-14.103415,-14.162615 L-14.025774,-14.203144 L-13.947891,-14.243118 L-13.869792,-14.282557 L-13.7915,-14.321481 L-13.713041,-14.35991 L-13.63444,-14.397868 L-13.555721,-14.435377 L-13.47691,-14.47246 L-13.398029,-14.50914 L-13.319104,-14.545442 L-13.240159,-14.581391 L-13.161218,-14.617013 L-13.082302,-14.652332 L-13.003436,-14.687377 L-12.924643,-14.722173 L-12.845943,-14.756748 L-12.76736,-14.791129 L-12.688913,-14.825344 L-12.610625,-14.859421 L-12.532515,-14.893388 L-12.454601,-14.927275 L-12.376905,-14.961108 L-12.299443,-14.994918 L-12.222233,-15.028733 L-12.145292,-15.062582 L-12.068638,-15.096493 L-11.992283,-15.130496 L-11.9162445,-15.1646185 L-11.840535,-15.19889 L-11.765169,-15.233337 L-11.690158,-15.267989 L-11.615513,-15.302874 L-11.541245,-15.338017 L-11.467364,-15.373447 L-11.39388,-15.409191 L-11.320799,-15.445273 L-11.248128,-15.48172 L-11.175875,-15.518557 L-11.104044,-15.555807 L-11.03264,-15.593495 L-10.961667,-15.631644 L-10.891126,-15.670277 L-10.821019,-15.709413 L-10.751348,-15.749074 L-10.68211,-15.78928 L-10.613307,-15.83005 L-10.544934,-15.871403 L-10.476991,-15.913353 L-10.4094715,-15.955919 L-10.342372,-15.999115 L-10.275686,-16.042955 L-10.209408,-16.087452 L-10.143529,-16.132616 L-10.078042,-16.178461 L-10.012938,-16.224993 L-9.948206,-16.27222 L-9.883836,-16.320152 L-9.819817,-16.368793 L-9.756135,-16.418146 L-9.69278,-16.468216 L-9.629735,-16.519003 L-9.566987,-16.570509 L-9.504522,-16.62273 L-9.442324,-16.675667 L-9.380376,-16.729313 L-9.318662,-16.783667 L-9.257164,-16.838718 L-9.195864,-16.89446 L-9.134745,-16.950884 L-9.073787,-17.007978 L-9.012972,-17.065733 L-8.952279,-17.12413 L-8.891689,-17.183159 L-8.8311825,-17.2428 L-8.770738,-17.303036 L-8.710335,-17.363848 L-8.649953,-17.425217 L-8.589571,-17.48712 L-8.529167,-17.549534 L-8.46872,-17.612432 L-8.408211,-17.675793 L-8.347615,-17.739586 L-8.286913,-17.803783 L-8.226084,-17.868357 L-8.165105,-17.933273 L-8.103956,-17.998505 L-8.042618,-18.064014 L-7.9810677,-18.129772 L-7.919286,-18.195738 L-7.857252,-18.261879 L-7.794947,-18.32816 L-7.7323513,-18.394537 L-7.6694455,-18.460976 L-7.6062117,-18.527435 L-7.5426307,-18.593876 L-7.478685,-18.660255 L-7.414358,-18.72653 L-7.3496327,-18.792662 L-7.2844934,-18.858604 L-7.2189245,-18.924313 L-7.1529107,-18.989746 L-7.0864377,-19.054857 L-7.019493,-19.119602 L-6.952063,-19.183937 L-6.8841357,-19.247812 L-6.8156996,-19.311186 L-6.7467446,-19.374012 L-6.6772604,-19.436241 L-6.6072383,-19.49783 L-6.5366697,-19.558733 L-6.4655476,-19.618902 L-6.3938656,-19.678295 L-6.321617,-19.736862 L-6.2487984,-19.794561 L-6.175405,-19.851347 L-6.101434,-19.907175 L-6.026883,-19.962 L-5.951751,-20.015781 L-5.876037,-20.068474 L-5.799742,-20.120035 L-5.7228675,-20.170427 L-5.645416,-20.219606 L-5.567389,-20.267534 L-5.488792,-20.31417 L-5.40963,-20.35948 L-5.3299074,-20.403423 L-5.249632,-20.445967 L-5.168811,-20.487074 L-5.0874524,-20.526712 L-5.0055656,-20.56485 L-4.92316,-20.601454 L-4.8402467,-20.636497 L-4.756837,-20.66995 L-4.6729426,-20.701786 L-4.5885773,-20.73198 L-4.5037537,-20.760506 L-4.4184866,-20.787344 L-4.3327904,-20.812473 L-4.246681,-20.835875 L-4.160175,-20.857529 L-4.073288,-20.877422 L-3.9860375,-20.89554 L-3.8984418,-20.911871 L-3.8105183,-20.926403 L-3.722286,-20.939127 L-3.6337638,-20.950037 L-3.5449712,-20.95913 L-3.4559278,-20.966398 L-3.3666537,-20.971842 L-3.2771692,-20.975466 L-3.1874948,-20.977266 L-3.097651,-20.977251 L-3.007659,-20.975426 L-2.9175396,-20.9718 L-2.827314,-20.966381 L-2.7370028,-20.95918 L-2.646628,-20.950216 L-2.5562098,-20.9395 L-2.4657695,-20.927052 L-2.3753283,-20.91289 L-2.2849066,-20.897036 L-2.194525,-20.87951 L-2.104204,-20.860344 L-2.0139632,-20.839558 L-1.9238229,-20.817183 L-1.833802,-20.79325 L-1.7439198,-20.767788 L-1.6541951,-20.740833 L-1.5646456,-20.71242 L-1.4752895,-20.682583 L-1.3861437,-20.651363 L-1.2972249,-20.6188 L-1.2085491,-20.584932 L-1.120132,-20.549805 L-1.0319883,-20.51346 L-0.94413203,-20.475945 L-0.8565768,-20.437304 L-0.7693353,-20.397585 L-0.6824196,-20.356836 L-0.59584093,-20.315111 L-0.5096097,-20.272457 L-0.4237356,-20.228926 L-0.33822742,-20.184572 L-0.2530931,-20.139448 L-0.16833976,-20.093607 L-0.08397362,-20.047106 L-0.00000000000000367394,-20 L0.08357667,-19.952345 L0.16675289,-19.904196 L0.2495261,-19.85561 L0.3318946,-19.806646 L0.41385776,-19.757362 L0.49541572,-19.707815 L0.57656974,-19.658062 L0.6573218,-19.60816 L0.73767513,-19.55817 L0.8176336,-19.508148 L0.8972022,-19.45815 L0.9763868,-19.408236 L1.055194,-19.35846 L1.1336317,-19.308882 L1.2117084,-19.259554 L1.2894336,-19.210535 L1.3668175,-19.161877 L1.4438713,-19.113636 L1.5206071,-19.065865 L1.5970377,-19.018614 L1.6731766,-18.971937 L1.7490383,-18.925886 L1.8246379,-18.880507 L1.8999912,-18.83585 L1.9751146,-18.79196 L2.0500255,-18.748886 L2.1247416,-18.70667 L2.1992812,-18.665358 L2.2736633,-18.624989 L2.3479075,-18.585602 L2.4220338,-18.54724 L2.4960625,-18.509937 L2.5700145,-18.473728 L2.6439111,-18.438648 L2.7177737,-18.404728 L2.7916243,-18.371998 L2.865485,-18.340487 L2.9393778,-18.31022 L3.0133257,-18.281223 L3.0873513,-18.253517 L3.1614769,-18.227123 L3.2357256,-18.202059 L3.3101199,-18.17834 L3.3846827,-18.155985 L3.4594364,-18.135002 L3.5344038,-18.1154 L3.6096067,-18.09719 L3.6850674,-18.080378 L3.7608075,-18.064964 L3.8368487,-18.050953 L3.9132116,-18.038343 L3.989917,-18.02713 L4.066985,-18.01731 L4.144436,-18.008875 L4.2222877,-18.001816 L4.30056,-17.996122 L4.3792696,-17.991777 L4.4584346,-17.988768 L4.5380707,-17.987076 L4.618194,-17.98668 L4.69882,-17.987556 L4.7799616,-17.989685 L4.861633,-17.993038 L4.9438457,-17.997585 L5.026612,-18.0033 L5.109941,-18.010147 L5.193843,-18.018095 L5.278326,-18.027107 L5.3633976,-18.037144 L5.449064,-18.04817 L5.5353293,-18.060143 L5.622198,-18.073017 L5.7096734,-18.086754 L5.797756,-18.101305 L5.8864474,-18.116621 L5.975745,-18.132658 L6.0656486,-18.149364 L6.156153,-18.166687 L6.247255,-18.184576 L6.338948,-18.202978 L6.4312243,-18.221838 L6.5240765,-18.2411 L6.6174946,-18.260708 L6.7114673,-18.280605 L6.805982,-18.300734 L6.901026,-18.321035 L6.996583,-18.341448 L7.0926385,-18.361916 L7.1891737,-18.382376 L7.286171,-18.402767 L7.38361,-18.42303 L7.4814696,-18.443104 L7.5797276,-18.462927 L7.678361,-18.482435 L7.777344,-18.50157 L7.8766522,-18.520271 L7.976258,-18.538473 L8.076134,-18.55612 L8.17625,-18.573149 L8.276578,-18.589499 L8.377086,-18.60511 L8.477741,-18.619926 L8.578512,-18.633886 L8.679365,-18.646935 L8.780266,-18.659014 L8.881178,-18.670067 L8.982066,-18.68004 L9.082894,-18.688877 L9.183625,-18.69653 L9.284221,-18.70294 L9.384642,-18.708063 L9.48485,-18.711845 L9.584806,-18.714243 L9.684471,-18.715206 L9.783805,-18.714693 L9.882766,-18.712656 L9.981316,-18.709059 L10.079412,-18.703856 L10.177015,-18.697012 L10.274084,-18.68849 L10.370579,-18.678255 L10.466457,-18.666273 L10.561681,-18.652514 L10.656208,-18.636946 L10.75,-18.619547 L10.843017,-18.600286 L10.935219,-18.579144 L11.026567,-18.556099 L11.117025,-18.53113 L11.206554,-18.50422 L11.295117,-18.475355 L11.382678,-18.444525 L11.469202,-18.411715 L11.554653,-18.376917 L11.638999,-18.340128 L11.722206,-18.30134 L11.804243,-18.260555 L11.885078,-18.21777 L11.964684,-18.172989 L12.043029,-18.126215 L12.120088,-18.077457 L12.195834,-18.026722 L12.270243,-17.974022 L12.343291,-17.91937 L12.414957,-17.862782 L12.485219,-17.804274 L12.55406,-17.743864 L12.62146,-17.681576 L12.687406,-17.617432 L12.751881,-17.551458 L12.814874,-17.48368 L12.876372,-17.414127 L12.936368,-17.342833 L12.994854,-17.269825 L13.051824,-17.195143 L13.107272,-17.118818 L13.161198,-17.040892 L13.213601,-16.9614 L13.264482,-16.880386 L13.313844,-16.79789 L13.361692,-16.713959 L13.408034,-16.628633 L13.452878,-16.541962 L13.496235,-16.453993 L13.538116,-16.36477 L13.578538,-16.274351 L13.617514,-16.18278 L13.655065,-16.09011 L13.691208,-15.996394 L13.725967,-15.901686 L13.759364,-15.806039 L13.791426,-15.709507 L13.822179,-15.612146 L13.851651,-15.514012 L13.879873,-15.415161 L13.9068775,-15.315648 L13.932698,-15.215532 L13.957371,-15.114868 L13.980931,-15.013714 L14.003419,-14.912127 L14.024874,-14.8101635 L14.045337,-14.70788 L14.064851,-14.605335 L14.08346,-14.5025835 L14.101211,-14.399682 L14.118148,-14.296686 L14.13432,-14.193651 L14.149777,-14.0906315 L14.164569,-13.987681 L14.178746,-13.884854 L14.192361,-13.782203 L14.205465,-13.679778 L14.218113,-13.577632 L14.23036,-13.475814 L14.24226,-13.374372 L14.253868,-13.273355 L14.265242,-13.172809 L14.276437,-13.07278 L14.287511,-12.97331 L14.298521,-12.874446 L14.309524,-12.776226 L14.320577,-12.678691 L14.331739,-12.58188 L14.343067,-12.485828 L14.354619,-12.390574 L14.366451,-12.29615 L14.378622,-12.202589 L14.391187,-12.109921 L14.404202,-12.018175 L14.417725,-11.92738 L14.431809,-11.837558 L14.446509,-11.748735 L14.461881,-11.6609335 L14.477974,-11.574173 L14.4948435,-11.488471 L14.512538,-11.403845 L14.531109,-11.320309 L14.550606,-11.237875 L14.5710745,-11.156555 L14.592563,-11.076358 L14.615114,-10.99729 L14.638774,-10.919357 L14.663584,-10.842563 L14.689585,-10.766908 L14.716814,-10.692391 L14.745311,-10.619013 L14.77511,-10.546767 L14.806245,-10.475648 L14.838748,-10.405649 L14.872648,-10.3367605 L14.907975,-10.2689705 L14.944755,-10.202266 L14.983008,-10.136634 L15.022761,-10.072057 L15.064031,-10.008518 L15.106836,-9.945998 L15.151191,-9.884475 L15.197109,-9.823928 L15.244601,-9.764332 L15.293676,-9.705662 L15.344339,-9.647892 L15.396595,-9.590995 L15.450444,-9.53494 L15.505886,-9.479698 L15.562917,-9.425238 L15.621531,-9.371526 L15.68172,-9.318529 L15.743474,-9.266214 L15.806779,-9.214544 L15.871619,-9.163484 L15.937978,-9.112995 L16.005835,-9.063042 L16.075165,-9.013585 L16.145945,-8.964584 L16.218147,-8.916002 L16.291742,-8.867797 L16.3667,-8.81993 L16.44298,-8.772359 L16.520552,-8.725044 L16.599375,-8.677943 L16.679407,-8.631016 L16.760607,-8.58422 L16.842928,-8.537514 L16.926325,-8.490858 L17.010748,-8.444209 L17.096146,-8.397527 L17.182467,-8.350771 L17.269655,-8.3039 L17.357655,-8.256875 L17.446407,-8.209656 L17.535854,-8.162203 L17.625933,-8.114479 L17.716583,-8.066444 L17.80774,-8.018064 L17.899336,-7.9692984 L17.991308,-7.9201136 L18.083588,-7.870475 L18.176107,-7.820348 L18.268793,-7.769699 L18.36158,-7.7184973 L18.454391,-7.6667104 L18.54716,-7.614309 L18.63981,-7.5612636 L18.73227,-7.5075474 L18.824465,-7.453133 L18.916323,-7.3979955 L19.007769,-7.342111 L19.098726,-7.2854567 L19.189123,-7.2280107 L19.278885,-7.169753 L19.367937,-7.110666 L19.456205,-7.0507307 L19.543617,-6.989932 L19.630096,-6.928256 L19.715572,-6.865689 L19.799973,-6.8022194 L19.883226,-6.7378373 L19.965261,-6.6725345 L20.04601,-6.6063037 L20.125399,-6.539139 L20.203365,-6.471036 L20.27984,-6.401993 L20.35476,-6.332008 L20.428057,-6.2610817 L20.499672,-6.189216 L20.569542,-6.1164136 L20.63761,-6.0426803 L20.703815,-5.968021 L20.768103,-5.892443 L20.830416,-5.8159566 L20.890707,-5.738571 L20.948921,-5.660299 L21.005013,-5.5811515 L21.058935,-5.501144 L21.110641,-5.420292 L21.160093,-5.338611 L21.207249,-5.25612 L21.252071,-5.172838 L21.294525,-5.088784 L21.33458,-5.00398 L21.372202,-4.918448 L21.407366,-4.832211 L21.440046,-4.7452927 L21.470222,-4.6577187 L21.497871,-4.569514 L21.52298,-4.4807053 L21.54553,-4.3913207 L21.565514,-4.3013873 L21.58292,-4.2109337 L21.597742,-4.1199894 L21.609976,-4.028584 L21.619623,-3.936748 L21.626686,-3.8445113 L21.631168,-3.7519054 L21.633078,-3.658961 L21.632423,-3.5657103 L21.629223,-3.4721842 L21.623487,-3.378415 L21.615238,-3.2844346 L21.604496,-3.1902745 L21.591286,-3.0959666 L21.575632,-3.001543 L21.557566,-2.907035 L21.53712,-2.8124743 L21.514328,-2.7178917 L21.489227,-2.6233182 L21.461857,-2.528784 L21.432259,-2.4343193 L21.400478,-2.3399537 L21.36656,-2.2457159 L21.330555,-2.1516347 L21.292513,-2.0577374 L21.252487,-1.9640515 L21.210533,-1.8706033 L21.16671,-1.7774183 L21.121075,-1.6845214 L21.073689,-1.5919365 L21.024616,-1.4996867 L20.973919,-1.407794 L20.921667,-1.3162796 L20.867924,-1.2251637 L20.812761,-1.1344653 L20.75625,-1.0442026 L20.698462,-0.9543922 L20.63947,-0.86505 L20.579346,-0.77619076 L20.518166,-0.6878278 L20.456007,-0.59997344 L20.392946,-0.51263857 L20.32906,-0.4258331 L20.264427,-0.3395655 L20.199125,-0.25384304 L20.133234,-0.16867173 L20.066832,-0.08405624 L20,-0.000000000000022662155" fill="none" stroke="black" stroke-width="0.1"/>
<path d="M20.195686,-0.15558667 L20.263012,-0.07090646 L20.330439,0.015015303 L20.397429,0.101607375 L20.4639,0.18886657 L20.529774,0.27678865 L20.594965,0.36536834 L20.659395,0.4545993 L20.722982,0.5444742 L20.785648,0.63498455 L20.847311,0.72612107 L20.907896,0.8178731 L20.967323,0.9102292 L21.025515,1.0031769 L21.082396,1.0967025 L21.13789,1.1907915 L21.191925,1.2854282 L21.244427,1.3805958 L21.295326,1.4762769 L21.34455,1.5724523 L21.392027,1.6691025 L21.437693,1.7662065 L21.481482,1.8637422 L21.523325,1.9616865 L21.563162,2.060015 L21.60093,2.1587021 L21.636566,2.2577214 L21.670015,2.3570445 L21.701221,2.4566422 L21.730127,2.556484 L21.756683,2.6565375 L21.780836,2.7567697 L21.802538,2.857145 L21.821745,2.957628 L21.838413,3.05818 L21.8525,3.1587622 L21.863976,3.2593336 L21.872797,3.3598526 L21.878939,3.4602752 L21.882372,3.5605574 L21.883072,3.660653 L21.88102,3.760516 L21.8762,3.8600984 L21.868599,3.9593527 L21.858212,4.058231 L21.845034,4.1566844 L21.829065,4.254665 L21.81031,4.352125 L21.788782,4.4490175 L21.764492,4.545297 L21.737457,4.6409183 L21.707703,4.7358384 L21.675253,4.830015 L21.640137,4.92341 L21.60239,5.015984 L21.562046,5.1077023 L21.519148,5.198532 L21.473736,5.2884426 L21.425858,5.377405 L21.37556,5.465394 L21.322895,5.552386 L21.267912,5.63836 L21.210669,5.723298 L21.15122,5.8071833 L21.089626,5.8900023 L21.025944,5.9717426 L20.960236,6.052396 L20.892563,6.1319537 L20.82299,6.210411 L20.751585,6.287764 L20.678408,6.3640113 L20.60353,6.4391527 L20.527018,6.51319 L20.448942,6.586126 L20.36937,6.657966 L20.288372,6.7287173 L20.20602,6.798387 L20.122389,6.866985 L20.037548,6.9345217 L19.951572,7.0010095 L19.864536,7.0664625 L19.776512,7.130895 L19.687576,7.1943235 L19.597803,7.2567654 L19.507269,7.318239 L19.416048,7.3787656 L19.32422,7.438365 L19.231857,7.4970603 L19.139038,7.554874 L19.045837,7.6118317 L18.952333,7.6679583 L18.858599,7.723281 L18.764711,7.7778273 L18.670746,7.8316255 L18.576777,7.884705 L18.48288,7.9370975 L18.389128,7.988833 L18.295595,8.039945 L18.202353,8.090464 L18.109472,8.140426 L18.017025,8.189864 L17.925083,8.238813 L17.833712,8.287309 L17.74298,8.335386 L17.652954,8.383082 L17.5637,8.430433 L17.475279,8.477475 L17.387754,8.524246 L17.30119,8.570783 L17.215637,8.617122 L17.13116,8.6633 L17.047812,8.709355 L16.965643,8.755324 L16.884706,8.801244 L16.80505,8.84715 L16.72672,8.893078 L16.649763,8.939063 L16.574217,8.985143 L16.500122,9.031349 L16.427513,9.077717 L16.356422,9.124281 L16.286879,9.171073 L16.21891,9.218126 L16.152536,9.265473 L16.087776,9.313146 L16.024647,9.3611765 L15.96316,9.4095955 L15.903319,9.458436 L15.845131,9.5077305 L15.788594,9.557509 L15.733704,9.607807 L15.680451,9.658658 L15.628827,9.710095 L15.5788145,9.762156 L15.5303955,9.814875 L15.483549,9.868292 L15.4382515,9.922444 L15.394477,9.977374 L15.3522,10.033121 L15.311389,10.089726 L15.2720175,10.147233 L15.234053,10.205683 L15.197467,10.265117 L15.162228,10.325576 L15.128305,10.3871 L15.09567,10.449727 L15.064291,10.513492 L15.034141,10.578428 L15.005187,10.644566 L14.977402,10.711932 L14.950754,10.78055 L14.925216,10.850441 L14.900755,10.92162 L14.877339,10.994101 L14.8549385,11.067891 L14.833517,11.142997 L14.813042,11.2194195 L14.793475,11.297158 L14.77478,11.376206 L14.756918,11.456556 L14.739848,11.538197 L14.723528,11.621113 L14.707914,11.705287 L14.692963,11.790702 L14.678625,11.877333 L14.664854,11.965157 L14.651601,12.054147 L14.638815,12.144275 L14.626445,12.235509 L14.614437,12.327817 L14.60274,12.421165 L14.591298,12.515518 L14.580056,12.610838 L14.568959,12.707084 L14.557951,12.804217 L14.546976,12.902196 L14.535975,13.000977 L14.524894,13.100513 L14.513674,13.200763 L14.502259,13.301676 L14.490591,13.403206 L14.478614,13.505304 L14.466271,13.60792 L14.453507,13.711002 L14.440266,13.814501 L14.426491,13.918361 L14.412128,14.022531 L14.397125,14.126956 L14.381427,14.231582 L14.364981,14.336353 L14.347736,14.441214 L14.329642,14.546108 L14.310649,14.65098 L14.290707,14.755771 L14.26977,14.860424 L14.247789,14.964882 L14.224722,15.069087 L14.200522,15.172981 L14.175149,15.276506 L14.148559,15.379603 L14.120712,15.482216 L14.091571,15.584285 L14.061097,15.685752 L14.029256,15.786559 L13.996012,15.886648 L13.961333,15.985963 L13.925189,16.084444 L13.887549,16.182037 L13.848388,16.27868 L13.807678,16.374323 L13.765396,16.468906 L13.72152,16.562372 L13.676031,16.654669 L13.62891,16.74574 L13.580142,16.835531 L13.529713,16.923988 L13.4776125,17.011059 L13.423831,17.09669 L13.368362,17.18083 L13.311204,17.263428 L13.252352,17.344435 L13.19181,17.423801 L13.1295805,17.50148 L13.065672,17.577425 L13.0000925,17.65159 L12.932855,17.723936 L12.863974,17.794416 L12.793468,17.862995 L12.721358,17.929636 L12.647668,17.9943 L12.572423,18.056957 L12.495651,18.117579 L12.417384,18.176136 L12.337655,18.232603 L12.256498,18.286963 L12.173953,18.339191 L12.090056,18.38928 L12.004849,18.437212 L11.918375,18.482983 L11.830675,18.526585 L11.741795,18.568016 L11.651778,18.60728 L11.560672,18.64438 L11.468521,18.679325 L11.375373,18.712124 L11.281273,18.742792 L11.18627,18.771349 L11.090409,18.79781 L10.993737,18.822199 L10.896302,18.844542 L10.798148,18.864866 L10.699323,18.883202 L10.59987,18.899578 L10.499836,18.914034 L10.399265,18.926603 L10.2982025,18.937325 L10.1966915,18.946236 L10.094775,18.953382 L9.992497,18.958807 L9.889899,18.962555 L9.787023,18.964672 L9.683909,18.965206 L9.580602,18.964207 L9.477138,18.961727 L9.373558,18.957817 L9.269901,18.95253 L9.166206,18.94592 L9.062512,18.938046 L8.958855,18.928959 L8.855271,18.91872 L8.751798,18.907387 L8.648469,18.89502 L8.54532,18.881674 L8.442384,18.867413 L8.339695,18.852299 L8.237285,18.836391 L8.135185,18.819752 L8.033426,18.802444 L7.932038,18.784533 L7.831049,18.766075 L7.7304873,18.74714 L7.63038,18.727787 L7.530754,18.708082 L7.431633,18.688086 L7.333042,18.667862 L7.2350035,18.647474 L7.13754,18.626986 L7.040672,18.606455 L6.9444194,18.585945 L6.848801,18.56552 L6.753835,18.545235 L6.6595373,18.525152 L6.5659237,18.505331 L6.473008,18.485828 L6.3808036,18.466702 L6.289322,18.448004 L6.198573,18.42979 L6.1085677,18.412117 L6.0193124,18.395033 L5.9308143,18.378588 L5.843079,18.362831 L5.75611,18.34781 L5.66991,18.33357 L5.5844793,18.320156 L5.4998183,18.307608 L5.415924,18.295963 L5.332793,18.285265 L5.25042,18.275543 L5.168797,18.266838 L5.087916,18.259176 L5.007765,18.252588 L4.928332,18.247105 L4.8496013,18.242748 L4.7715573,18.239544 L4.694181,18.237514 L4.617451,18.236677 L4.5413456,18.237055 L4.4658394,18.238659 L4.390907,18.241507 L4.3165193,18.245611 L4.242646,18.250986 L4.1692576,18.257639 L4.0963197,18.265583 L4.023799,18.274824 L3.9516604,18.285368 L3.8798687,18.297224 L3.8083873,18.310396 L3.7371802,18.324886 L3.666211,18.340698 L3.5954428,18.357836 L3.52484,18.376295 L3.4543676,18.396076 L3.3839908,18.41718 L3.3136754,18.439596 L3.2433894,18.463322 L3.1731005,18.48835 L3.1027782,18.514671 L3.0323937,18.542273 L2.9619184,18.571138 L2.8913255,18.601257 L2.8205895,18.632607 L2.7496858,18.665169 L2.6785908,18.69892 L2.6072824,18.733833 L2.5357394,18.769886 L2.4639413,18.807043 L2.3918688,18.845278 L2.3195038,18.884552 L2.2468283,18.924833 L2.1738257,18.96608 L2.10048,19.008255 L2.0267763,19.051315 L1.9526997,19.095217 L1.8782364,19.139914 L1.8033735,19.18536 L1.7280984,19.231506 L1.6523994,19.278303 L1.5762655,19.3257 L1.4996862,19.373646 L1.422652,19.422083 L1.3451537,19.470959 L1.2671831,19.52022 L1.1887324,19.569807 L1.1097949,19.619665 L1.0303642,19.669735 L0.950435,19.719957 L0.8700026,19.770277 L0.7890631,19.820633 L0.7076132,19.870964 L0.62565064,19.921213 L0.54317373,19.97132 L0.4601817,20.021221 L0.3766745,20.070862 L0.29265293,20.12018 L0.20811865,20.169113 L0.12307405,20.217607 L0.037522394,20.265598 L-0.04853223,20.31303 L-0.1350849,20.359844 L-0.22212988,20.40598 L-0.30966058,20.451384 L-0.3976696,20.495995 L-0.4861487,20.53976 L-0.57508874,20.582624 L-0.66447985,20.624533 L-0.7543113,20.66543 L-0.8445715,20.705263 L-0.93524796,20.743984 L-1.0263275,20.781538 L-1.1177961,20.817879 L-1.2096386,20.852955 L-1.3018396,20.88672 L-1.3943825,20.919128 L-1.4872499,20.950138 L-1.5804235,20.9797 L-1.6738845,21.007778 L-1.767613,21.034328 L-1.8615887,21.059313 L-1.95579,21.082695 L-2.0501952,21.10444 L-2.144781,21.124514 L-2.2395241,21.142881 L-2.3344004,21.159517 L-2.429385,21.17439 L-2.5244522,21.187475 L-2.619576,21.198748 L-2.7147298,21.208187 L-2.8098865,21.215773 L-2.9050183,21.221485 L-3.0000975,21.225311 L-3.0950959,21.227238 L-3.1899848,21.227255 L-3.284736,21.22535 L-3.3793204,21.221521 L-3.4737093,21.215765 L-3.5678747,21.208076 L-3.6617877,21.198462 L-3.7554207,21.186922 L-3.8487453,21.173462 L-3.9417353,21.158094 L-4.0343633,21.140825 L-4.126603,21.121672 L-4.21843,21.100647 L-4.3098197,21.07777 L-4.4007483,21.05306 L-4.4911933,21.026539 L-4.581133,20.99823 L-4.6705465,20.968159 L-4.7594147,20.936354 L-4.8477197,20.902845 L-4.9354434,20.867662 L-5.022571,20.83084 L-5.109087,20.792408 L-5.194978,20.752407 L-5.2802324,20.710873 L-5.364838,20.66784 L-5.4487863,20.62335 L-5.5320683,20.577446 L-5.6146765,20.530165 L-5.6966047,20.481552 L-5.777848,20.431648 L-5.8584027,20.380499 L-5.9382663,20.32815 L-6.0174375,20.274643 L-6.095915,20.220028 L-6.1737003,20.164349 L-6.250795,20.107653 L-6.327201,20.049988 L-6.402923,19.9914 L-6.4779654,19.93194 L-6.552334,19.871653 L-6.6260347,19.810589 L-6.6990757,19.748796 L-6.771465,19.686323 L-6.8432117,19.623219 L-6.9143257,19.559528 L-6.9848175,19.495304 L-7.0546994,19.430592 L-7.123983,19.36544 L-7.1926813,19.299896 L-7.260808,19.234009 L-7.3283777,19.167822 L-7.3954043,19.101385 L-7.4619045,19.034744 L-7.5278935,18.967941 L-7.5933886,18.901026 L-7.6584063,18.834038 L-7.722964,18.767023 L-7.7870803,18.700024 L-7.8507733,18.633081 L-7.914062,18.566238 L-7.9769654,18.499535 L-8.039503,18.433008 L-8.101695,18.366697 L-8.163562,18.30064 L-8.225122,18.234873 L-8.286399,18.169428 L-8.34741,18.104343 L-8.408179,18.039648 L-8.468726,17.975376 L-8.529073,17.911554 L-8.589239,17.848213 L-8.649247,17.785378 L-8.709118,17.723078 L-8.768874,17.661333 L-8.828535,17.60017 L-8.8881235,17.539608 L-8.947661,17.479666 L-9.007168,17.420362 L-9.066666,17.361717 L-9.126176,17.303741 L-9.185719,17.246449 L-9.245316,17.189854 L-9.304986,17.133963 L-9.364753,17.078789 L-9.424634,17.024336 L-9.484652,16.970608 L-9.544825,16.917614 L-9.605172,16.86535 L-9.665715,16.813824 L-9.726472,16.76303 L-9.787461,16.712967 L-9.848702,16.663633 L-9.910213,16.615023 L-9.972012,16.56713 L-10.034114,16.519945 L-10.096538,16.473461 L-10.159299,16.427671 L-10.222414,16.38256 L-10.285898,16.33812 L-10.349765,16.294333 L-10.414028,16.251188 L-10.478702,16.208672 L-10.543797,16.166767 L-10.609324,16.125456 L-10.675296,16.084723 L-10.74172,16.04455 L-10.808606,16.004915 L-10.875959,15.965803 L-10.943789,15.927191 L-11.012097,15.889059 L-11.080891,15.851384 L-11.15017,15.814146 L-11.219939,15.777322 L-11.290197,15.740887 L-11.360944,15.704819 L-11.432178,15.669092 L-11.503895,15.633683 L-11.576092,15.598566 L-11.648764,15.563716 L-11.721903,15.529106 L-11.795503,15.49471 L-11.869554,15.460502 L-11.944047,15.426454 L-12.0189705,15.392538 L-12.094313,15.358728 L-12.17006,15.324996 L-12.2462,15.291312 L-12.322716,15.25765 L-12.399593,15.223981 L-12.476814,15.190276 L-12.554362,15.1565075 L-12.632217,15.122646 L-12.7103615,15.088664 L-12.788775,15.054533 L-12.867436,15.020225 L-12.946324,14.98571 L-13.025417,14.950962 L-13.1046915,14.915954 L-13.184126,14.880656 L-13.263695,14.845044 L-13.343375,14.80909 L-13.4231415,14.772766 L-13.50297,14.736048 L-13.582834,14.69891 L-13.662709,14.661327 L-13.742568,14.623276 L-13.822385,14.58473 L-13.902133,14.545669 L-13.981786,14.506068 L-14.0613165,14.465906 L-14.1406975,14.425163 L-14.219903,14.383817 L-14.298904,14.341847 L-14.377676,14.299237 L-14.456189,14.255967 L-14.534418,14.21202 L-14.612335,14.16738 L-14.689913,14.12203 L-14.767126,14.075957 L-14.843948,14.029147 L-14.920352,13.981586 L-14.996312,13.933264 L-15.071802,13.884168 L-15.146798,13.83429 L-15.221275,13.783619 L-15.295208,13.732148 L-15.368572,13.679872 L-15.441346,13.626782 L-15.513505,13.572876 L-15.585027,13.518148 L-15.65589,13.462598 L-15.726074,13.40622 L-15.795558,13.349017 L-15.864321,13.290989 L-15.932345,13.232135 L-15.999612,13.17246 L-16.066103,13.111964 L-16.131804,13.050655 L-16.196695,12.988536 L-16.260765,12.925614 L-16.323997,12.8618965 L-16.386381,12.79739 L-16.4479,12.732104 L-16.508549,12.666049 L-16.568312,12.599235 L-16.627182,12.5316725 L-16.68515,12.463375 L-16.74221,12.394355 L-16.798355,12.324624 L-16.85358,12.254199 L-16.907883,12.183092 L-16.961256,12.1113205 L-17.0137,12.038898 L-17.065214,11.965844 L-17.115797,11.892173 L-17.165451,11.817902 L-17.214178,11.743049 L-17.261982,11.667631 L-17.308865,11.591668 L-17.354832,11.515178 L-17.399889,11.438178 L-17.444046,11.360689 L-17.487307,11.282729 L-17.529684,11.204317 L-17.571184,11.125472 L-17.611818,11.046214 L-17.651598,10.966561 L-17.690536,10.886534 L-17.728643,10.80615 L-17.765936,10.7254305 L-17.802427,10.644392 L-17.83813,10.563055 L-17.873062,10.481438 L-17.90724,10.399558 L-17.940678,10.317435 L-17.973394,10.235086 L-18.005407,10.15253 L-18.036734,10.069782 L-18.067392,9.986861 L-18.097403,9.903784 L-18.126783,9.820565 L-18.155556,9.737223 L-18.183737,9.653771 L-18.211348,9.570227 L-18.238409,9.486603 L-18.26494,9.402915 L-18.290962,9.319176 L-18.316494,9.2354 L-18.34156,9.1516 L-18.366179,9.067788 L-18.39037,8.983976 L-18.414152,8.900177 L-18.437551,8.816399 L-18.460583,8.732654 L-18.48327,8.648951 L-18.505632,8.5653 L-18.527687,8.481709 L-18.549456,8.398187 L-18.57096,8.31474 L-18.592213,8.231377 L-18.613235,8.148103 L-18.634048,8.064923 L-18.654667,7.981845 L-18.67511,7.8988714 L-18.695395,7.816007 L-18.715534,7.733256 L-18.735548,7.65062 L-18.755451,7.5681024 L-18.775257,7.485705 L-18.794983,7.403429 L-18.814638,7.3212757 L-18.834242,7.2392445 L-18.853802,7.157336 L-18.873331,7.0755496 L-18.892843,6.993883 L-18.912348,6.912336 L-18.931854,6.8309054 L-18.951372,6.749589 L-18.970911,6.668384 L-18.990479,6.5872874 L-19.010082,6.5062947 L-19.02973,6.4254017 L-19.049425,6.344605 L-19.069174,6.2638984 L-19.088982,6.183278 L-19.108852,6.102738 L-19.128788,6.022272 L-19.148792,5.9418755 L-19.168865,5.8615413 L-19.189009,5.781264 L-19.20922,5.7010355 L-19.229506,5.620851 L-19.249857,5.540703 L-19.270277,5.460584 L-19.290758,5.380488 L-19.311302,5.300407 L-19.331902,5.220335 L-19.352552,5.140264 L-19.37325,5.0601873 L-19.393988,4.980098 L-19.414759,4.899988 L-19.435555,4.819852 L-19.45637,4.7396817 L-19.477194,4.6594706 L-19.498018,4.579212 L-19.518831,4.4989004 L-19.539627,4.4185276 L-19.56039,4.3380885 L-19.581112,4.2575765 L-19.60178,4.1769857 L-19.622381,4.096311 L-19.642902,4.0155463 L-19.663332,3.9346867 L-19.683657,3.8537269 L-19.703861,3.7726626 L-19.723932,3.691489 L-19.743856,3.6102018 L-19.763615,3.5287976 L-19.783197,3.4472725 L-19.802586,3.3656232 L-19.821764,3.2838466 L-19.840717,3.2019403 L-19.859432,3.1199017 L-19.87789,3.037729 L-19.896076,2.9554203 L-19.913973,2.8729742 L-19.931566,2.79039 L-19.94884,2.7076669 L-19.965778,2.6248043 L-19.982363,2.5418024 L-19.99858,2.4586618 L-20.014418,2.3753827 L-20.029856,2.2919664 L-20.044878,2.2084146 L-20.059475,2.1247282 L-20.073627,2.04091 L-20.087324,1.956962 L-20.10055,1.8728869 L-20.113289,1.7886877 L-20.125532,1.7043679 L-20.137264,1.6199307 L-20.148474,1.5353805 L-20.159147,1.450721 L-20.169277,1.365957 L-20.178848,1.2810931 L-20.18785,1.1961342 L-20.196278,1.1110855 L-20.204119,1.0259526 L-20.211365,0.94074094 L-20.218008,0.8554564 L-20.22404,0.77010506 L-20.229456,0.68469304 L-20.23425,0.5992268 L-20.238413,0.51371264 L-20.241945,0.42815736 L-20.24484,0.34256753 L-20.247097,0.25695 L-20.248709,0.1713116 L-20.249678,0.08565929 L-20.25,0.0000000000000113865885 L-20.249678,-0.08565929 L-20.248709,-0.1713116 L-20.247097,-0.25695 L-20.24484,-0.34256753 L-20.241945,-0.42815736 L-20.238413,-0.51371264 L-20.23425,-0.5992268 L-20.229456,-0.68469304 L-20.22404,-0.77010506 L-20.218008,-0.8554564 L-20.211365,-0.94074094 L-20.204119,-1.0259526 L-20.196278,-1.1110855 L-20.18785,-1.1961342 L-20.178848,-1.2810931 L-20.169277,-1.365957 L-20.159147,-1.450721 L-20.148474,-1.5353805 L-20.137264,-1.6199307 L-20.125532,-1.7043679 L-20.113289,-1.7886877 L-20.10055,-1.8728869 L-20.087324,-1.956962 L-20.073627,-2.04091 L-20.059475,-2.1247282 L-20.044878,-2.2084146 L-20.029856,-2.2919664 L-20.014418,-2.3753827 L-19.99858,-2.4586618 L-19.982363,-2.5418024 L-19.965778,-2.6248043 L-19.94884,-2.7076669 L-19.931566,-2.79039 L-19.913973,-2.8729742 L-19.896076,-2.9554203 L-19.87789,-3.037729 L-19.859432,-3.1199017 L-19.840717,-3.2019403 L-19.821764,-3.2838466 L-19.802586,-3.3656232 L-19.783197,-3.4472725 L-19.763615,-3.5287976 L-19.743856,-3.6102018 L-19.723932,-3.691489 L-19.703861,-3.7726626 L-19.683657,-3.8537269 L-19.663332,-3.9346867 L-19.642902,-4.0155463 L-19.622381,-4.096311 L-19.60178,-4.1769857 L-19.581112,-4.2575765 L-19.56039,-4.3380885 L-19.539627,-4.4185276 L-19.518831,-4.4989004 L-19.498018,-4.579212 L-19.477194,-4.6594706 L-19.45637,-4.7396817 L-19.435555,-4.819852 L-19.414759,-4.899988 L-19.393988,-4.980098 L-19.37325,-5.0601873 L-19.352552,-5.140264 L-19.331902,-5.220335 L-19.311302,-5.300407 L-19.290758,-5.380488 L-19.270277,-5.460584 L-19.249857,-5.540703 L-19.229506,-5.620851 L-19.20922,-5.7010355 L-19.189009,-5.781264 L-19.168865,-5.8615413 L-19.148792,-5.9418755 L-19.128788,-6.022272 L-19.108852,-6.102738 L-19.088982,-6.183278 L-19.069174,-6.2638984 L-19.049425,-6.344605 L-19.02973,-6.4254017 L-19.010082,-6.5062947 L-18.990479,-6.5872874 L-18.970911,-6.668384 L-18.951372,-6.749589 L-18.931854,-6.8309054 L-18.912348,-6.912336 L-18.892843,-6.993883 L-18.873331,-7.0755496 L-18.853802,-7.157336 L-18.834242,-7.2392445 L-18.814638,-7.3212757 L-18.794983,-7.403429 L-18.775257,-7.485705 L-18.755451,-7.5681024 L-18.735548,-7.65062 L-18.715534,-7.733256 L-18.695395,-7.816007 L-18.67511,-7.8988714 L-18.654667,-7.981845 L-18.634048,-8.064923 L-18.613235,-8.148103 L-18.592213,-8.231377 L-18.57096,-8.31474 L-18.549456,-8.398187 L-18.527687,-8.481709 L-18.505632,-8.5653 L-18.48327,-8.648951 L-18.460583,-8.732654 L-18.437551,-8.816399 L-18.414152,-8.900177 L-18.39037,-8.983976 L-18.366179,-9.067788 L-18.34156,-9.1516 L-18.316494,-9.2354 L-18.290962,-9.319176 L-18.26494,-9.402915 L-18.238409,-9.486603 L-18.211348,-9.570227 L-18.183737,-9.653771 L-18.155556,-9.737223 L-18.126783,-9.820565 L-18.097403,-9.903784 L-18.067392,-9.986861 L-18.036734,-10.069782 L-18.005407,-10.15253 L-17.973394,-10.235086 L-17.940678,-10.317435 L-17.90724,-10.399558 L-17.873062,-10.481438 L-17.83813,-10.563055 L-17.802427,-10.644392 L-17.765936,-10.7254305 L-17.728643,-10.80615 L-17.690536,-10.886534 L-17.651598,-10.966561 L-17.611818,-11.046214 L-17.571184,-11.125472 L-17.529684,-11.204317 L-17.487307,-11.282729 L-17.444046,-11.360689 L-17.399889,-11.438178 L-17.354832,-11.515178 L-17.308865,-11.591668 L-17.261982,-11.667631 L-17.214178,-11.743049 L-17.165451,-11.817902 L-17.115797,-11.892173 L-17.065214,-11.965844 L-17.0137,-12.038898 L-16.961256,-12.1113205 L-16.907883,-12.183092 L-16.85358,-12.254199 L-16.798355,-12.324624 L-16.74221,-12.394355 L-16.68515,-12.463375 L-16.627182,-12.5316725 L-16.568312,-12.599235 L-16.508549,-12.666049 L-16.4479,-12.732104 L-16.386381,-12.79739 L-16.323997,-12.8618965 L-16.260765,-12.925614 L-16.196695,-12.988536 L-16.131804,-13.050655 L-16.066103,-13.111964 L-15.999612,-13.17246 L-15.932345,-13.232135 L-15.864321,-13.290989 L-15.795558,-13.349017 L-15.726074,-13.40622 L-15.65589,-13.462598 L-15.585027,-13.518148 L-15.513505,-13.572876 L-15.441346,-13.626782 L-15.368572,-13.679872 L-15.295208,-13.732148 L-15.221275,-13.783619 L-15.146798,-13.83429 L-15.071802,-13.884168 L-14.996312,-13.933264 L-14.920352,-13.981586 L-14.843948,-14.029147 L-14.767126,-14.075957 L-14.689913,-14.12203 L-14.612335,-14.16738 L-14.534418,-14.21202 L-14.456189,-14.255967 L-14.377676,-14.299237 L-14.298904,-14.341847 L-14.219903,-14.383817 L-14.1406975,-14.425163 L-14.0613165,-14.465906 L-13.981786,-14.506068 L-13.902133,-14.545669 L-13.822385,-14.58473 L-13.742568,-14.623276 L-13.662709,-14.661327 L-13.582834,-14.69891 L-13.50297,-14.736048 L-13.4231415,-14.772766 L-13.343375,-14.80909 L-13.263695,-14.845044 L-13.184126,-14.880656 L-13.1046915,-14.915954 L-13.025417,-14.950962 L-12.946324,-14.98571 L-12.867436,-15.020225 L-12.788775,-15.054533 L-12.7103615,-15.088664 L-12.632217,-15.122646 L-12.554362,-15.1565075 L-12.476814,-15.190276 L-12.399593,-15.223981 L-12.322716,-15.25765 L-12.2462,-15.291312 L-12.17006,-15.324996 L-12.094313,-15.358728 L-12.0189705,-15.392538 L-11.944047,-15.426454 L-11.869554,-15.460502 L-11.795503,-15.49471 L-11.721903,-15.529106 L-11.648764,-15.563716 L-11.576092,-15.598566 L-11.503895,-15.633683 L-11.432178,-15.669092 L-11.360944,-15.704819 L-11.290197,-15.740887 L-11.219939,-15.777322 L-11.15017,-15.814146 L-11.080891,-15.851384 L-11.012097,-15.889059 L-10.943789,-15.927191 L-10.875959,-15.965803 L-10.808606,-16.004915 L-10.74172,-16.04455 L-10.675296,-16.084723 L-10.609324,-16.125456 L-10.543797,-16.166767 L-10.478702,-16.208672 L-10.414028,-16.251188 L-10.349765,-16.294333 L-10.285898,-16.33812 L-10.222414,-16.38256 L-10.159299,-16.427671 L-10.096538,-16.473461 L-10.034114,-16.519945 L-9.972012,-16.56713 L-9.910213,-16.615023 L-9.848702,-16.663633 L-9.787461,-16.712967 L-9.726472,-16.76303 L-9.665715,-16.813824 L-9.605172,-16.86535 L-9.544825,-16.917614 L-9.484652,-16.970608 L-9.424634,-17.024336 L-9.364753,-17.078789 L-9.304986,-17.133963 L-9.245316,-17.189854 L-9.185719,-17.246449 L-9.126176,-17.303741 L-9.066666,-17.361717 L-9.007168,-17.420362 L-8.947661,-17.479666 L-8.8881235,-17.539608 L-8.828535,-17.60017 L-8.768874,-17.661333 L-8.709118,-17.723078 L-8.649247,-17.785378 L-8.589239,-17.848213 L-8.529073,-17.911554 L-8.468726,-17.975376 L-8.408179,-18.039648 L-8.34741,-18.104343 L-8.286399,-18.169428 L-8.225122,-18.234873 L-8.163562,-18.30064 L-8.101695,-18.366697 L-8.039503,-18.433008 L-7.9769654,-18.499535 L-7.914062,-18.566238 L-7.8507733,-18.633081 L-7.7870803,-18.700024 L-7.722964,-18.767023 L-7.6584063,-18.834038 L-7.5933886,-18.901026 L-7.5278935,-18.967941 L-7.4619045,-19.034744 L-7.3954043,-19.101385 L-7.3283777,-19.167822 L-7.260808,-19.234009 L-7.1926813,-19.299896 L-7.123983,-19.36544 L-7.0546994,-19.430592 L-6.9848175,-19.495304 L-6.9143257,-19.559528 L-6.8432117,-19.623219 L-6.771465,-19.686323 L-6.6990757,-19.748796 L-6.6260347,-19.810589 L-6.552334,-19.871653 L-6.4779654,-19.93194 L-6.402923,-19.9914 L-6.327201,-20.049988 L-6.250795,-20.107653 L-6.1737003,-20.164349 L-6.095915,-20.220028 L-6.0174375,-20.274643 L-5.9382663,-20.32815 L-5.8584027,-20.380499 L-5.777848,-20.431648 L-5.6966047,-20.481552 L-5.6146765,-20.530165 L-5.5320683,-20.577446 L-5.4487863,-20.62335 L-5.364838,-20.66784 L-5.2802324,-20.710873 L-5.194978,-20.752407 L-5.109087,-20.792408 L-5.022571,-20.83084 L-4.9354434,-20.867662 L-4.8477197,-20.902845 L-4.7594147,-20.936354 L-4.6705465,-20.968159 L-4.581133,-20.99823 L-4.4911933,-21.026539 L-4.4007483,-21.05306 L-4.3098197,-21.07777 L-4.21843,-21.100647 L-4.126603,-21.121672 L-4.0343633,-21.140825 L-3.9417353,-21.158094 L-3.8487453,-21.173462 L-3.7554207,-21.186922 L-3.6617877,-21.198462 L-3.5678747,-21.208076 L-3.4737093,-21.215765 L-3.3793204,-21.221521 L-3.284736,-21.22535 L-3.1899848,-21.227255 L-3.0950959,-21.227238 L-3.0000975,-21.225311 L-2.9050183,-21.221485 L-2.8098865,-21.215773 L-2.7147298,-21.208187 L-2.619576,-21.198748 L-2.5244522,-21.187475 L-2.429385,-21.17439 L-2.3344004,-21.159517 L-2.2395241,-21.142881 L-2.144781,-21.124514 L-2.0501952,-21.10444 L-1.95579,-21.082695 L-1.8615887,-21.059313 L-1.767613,-21.034328 L-1.6738845,-21.007778 L-1.5804235,-20.9797 L-1.4872499,-20.950138 L-1.3943825,-20.919128 L-1.3018396,-20.88672 L-1.2096386,-20.852955 L-1.1177961,-20.817879 L-1.0263275,-20.781538 L-0.93524796,-20.743984 L-0.8445715,-20.705263 L-0.7543113,-20.66543 L-0.66447985,-20.624533 L-0.57508874,-20.582624 L-0.4861487,-20.53976 L-0.3976696,-20.495995 L-0.30966058,-20.451384 L-0.22212988,-20.40598 L-0.1350849,-20.359844 L-0.04853223,-20.31303 L0.037522394,-20.265598 L0.12307405,-20.217607 L0.20811865,-20.169113 L0.29265293,-20.12018 L0.3766745,-20.070862 L0.4601817,-20.021221 L0.54317373,-19.97132 L0.62565064,-19.921213 L0.7076132,-19.870964 L0.7890631,-19.820633 L0.8700026,-19.770277 L0.950435,-19.719957 L1.0303642,-19.669735 L1.1097949,-19.619665 L1.1887324,-19.569807 L1.2671831,-19.52022 L1.3451537,-19.470959 L1.422652,-19.422083 L1.4996862,-19.373646 L1.5762655,-19.3257 L1.6523994,-19.278303 L1.7280984,-19.231506 L1.8033735,-19.18536 L1.8782364,-19.139914 L1.9526997,-19.095217 L2.0267763,-19.051315 L2.10048,-19.008255 L2.1738257,-18.96608 L2.2468283,-18.924833 L2.3195038,-18.884552 L2.3918688,-18.845278 L2.4639413,-18.807043 L2.5357394,-18.769886 L2.6072824,-18.733833 L2.6785908,-18.69892 L2.7496858,-18.665169 L2.8205895,-18.632607 L2.8913255,-18.601257 L2.9619184,-18.571138 L3.0323937,-18.542273 L3.1027782,-18.514671 L3.1731005,-18.48835 L3.2433894,-18.463322 L3.3136754,-18.439596 L3.3839908,-18.41718 L3.4543676,-18.396076 L3.52484,-18.376295 L3.5954428,-18.357836 L3.666211,-18.340698 L3.7371802,-18.324886 L3.8083873,-18.310396 L3.8798687,-18.297224 L3.9516604,-18.285368 L4.023799,-18.274824 L4.0963197,-18.265583 L4.1692576,-18.257639 L4.242646,-18.250986 L4.3165193,-18.245611 L4.390907,-18.241507 L4.4658394,-18.238659 L4.5413456,-18.237055 L4.617451,-18.236677 L4.694181,-18.237514 L4.7715573,-18.239544 L4.8496013,-18.242748 L4.928332,-18.247105 L5.007765,-18.252588 L5.087916,-18.259176 L5.168797,-18.266838 L5.25042,-18.275543 L5.332793,-18.285265 L5.415924,-18.295963 L5.4998183,-18.307608 L5.5844793,-18.320156 L5.66991,-18.33357 L5.75611,-18.34781 L5.843079,-18.362831 L5.9308143,-18.378588 L6.0193124,-18.395033 L6.1085677,-18.412117 L6.198573,-18.42979 L6.289322,-18.448004 L6.3808036,-18.466702 L6.473008,-18.485828 L6.5659237,-18.505331 L6.6595373,-18.525152 L6.753835,-18.545235 L6.848801,-18.56552 L6.9444194,-18.585945 L7.040672,-18.606455 L7.13754,-18.626986 L7.2350035,-18.647474 L7.333042,-18.667862 L7.431633,-18.688086 L7.530754,-18.708082 L7.63038,-18.727787 L7.7304873,-18.74714 L7.831049,-18.766075 L7.932038,-18.784533 L8.033426,-18.802444 L8.135185,-18.819752 L8.237285,-18.836391 L8.339695,-18.852299 L8.442384,-18.867413 L8.54532,-18.881674 L8.648469,-18.89502 L8.751798,-18.907387 L8.855271,-18.91872 L8.958855,-18.928959 L9.062512,-18.938046 L9.166206,-18.94592 L9.269901,-18.95253 L9.373558,-18.957817 L9.477138,-18.961727 L9.580602,-18.964207 L9.683909,-18.965206 L9.787023,-18.964672 L9.889899,-18.962555 L9.992497,-18.958807 L10.094775,-18.953382 L10.1966915,-18.946236 L10.2982025,-18.937325 L10.399265,-18.926603 L10.499836,-18.914034 L10.59987,-18.899578 L10.699323,-18.883202 L10.798148,-18.864866 L10.896302,-18.844542 L10.993737,-18.822199 L11.090409,-18.79781 L11.18627,-18.771349 L11.281273,-18.742792 L11.375373,-18.712124 L11.468521,-18.679325 L11.560672,-18.64438 L11.651778,-18.60728 L11.741795,-18.568016 L11.830675,-18.526585 L11.918375,-18.482983 L12.004849,-18.437212 L12.090056,-18.38928 L12.173953,-18.339191 L12.256498,-18.286963 L12.337655,-18.232603 L12.417384,-18.176136 L12.495651,-18.117579 L12.572423,-18.056957 L12.647668,-17.9943 L12.721358,-17.929636 L12.793468,-17.862995 L12.863974,-17.794416 L12.932855,-17.723936 L13.0000925,-17.65159 L13.065672,-17.577425 L13.1295805,-17.50148 L13.19181,-17.423801 L13.252352,-17.344435 L13.311204,-17.263428 L13.368362,-17.18083 L13.423831,-17.09669 L13.4776125,-17.011059 L13.529713,-16.923988 L13.580142,-16.835531 L13.62891,-16.74574 L13.676031,-16.654669 L13.72152,-16.562372 L13.765396,-16.468906 L13.807678,-16.374323 L13.848388,-16.27868 L13.887549,-16.182037 L13.925189,-16.084444 L13.961333,-15.985963 L13.996012,-15.886648 L14.029256,-15.786559 L14.061097,-15.685752 L14.091571,-15.584285 L14.120712,-15.482216 L14.148559,-15.379603 L14.175149,-15.276506 L14.200522,-15.172981 L14.224722,-15.069087 L14.247789,-14.964882 L14.26977,-14.860424 L14.290707,-14.755771 L14.310649,-14.65098 L14.329642,-14.546108 L14.347736,-14.441214 L14.364981,-14.336353 L14.381427,-14.231582 L14.397125,-14.126956 L14.412128,-14.022531 L14.426491,-13.918361 L14.440266,-13.814501 L14.453507,-13.711002 L14.466271,-13.60792 L14.478614,-13.505304 L14.490591,-13.403206 L14.502259,-13.301676 L14.513674,-13.200763 L14.524894,-13.100513 L14.535975,-13.000977 L14.546976,-12.902196 L14.557951,-12.804217 L14.568959,-12.707084 L14.580056,-12.610838 L14.591298,-12.515518 L14.60274,-12.421165 L14.614437,-12.327817 L14.626445,-12.235509 L14.638815,-12.144275 L14.651601,-12.054147 L14.664854,-11.965157 L14.678625,-11.877333 L14.692963,-11.790702 L14.707914,-11.705287 L14.723528,-11.621113 L14.739848,-11.538197 L14.756918,-11.456556 L14.77478,-11.376206 L14.793475,-11.297158 L14.813042,-11.2194195 L14.833517,-11.142997 L14.8549385,-11.067891 L14.877339,-10.994101 L14.900755,-10.92162 L14.925216,-10.850441 L14.950754,-10.78055 L14.977402,-10.711932 L15.005187,-10.644566 L15.034141,-10.578428 L15.064291,-10.513492 L15.09567,-10.449727 L15.128305,-10.3871 L15.162228,-10.325576 L15.197467,-10.265117 L15.234053,-10.205683 L15.2720175,-10.147233 L15.311389,-10.089726 L15.3522,-10.033121 L15.394477,-9.977374 L15.4382515,-9.922444 L15.483549,-9.868292 L15.5303955,-9.814875 L15.5788145,-9.762156 L15.628827,-9.710095 L15.680451,-9.658658 L15.733704,-9.607807 L15.788594,-9.557509 L15.845131,-9.5077305 L15.903319,-9.458436 L15.96316,-9.4095955 L16.024647,-9.3611765 L16.087776,-9.313146 L16.152536,-9.265473 L16.21891,-9.218126 L16.286879,-9.171073 L16.356422,-9.124281 L16.427513,-9.077717 L16.500122,-9.031349 L16.574217,-8.985143 L16.649763,-8.939063 L16.72672,-8.893078 L16.80505,-8.84715 L16.884706,-8.801244 L16.965643,-8.755324 L17.047812,-8.709355 L17.13116,-8.6633 L17.215637,-8.617122 L17.30119,-8.570783 L17.387754,-8.524246 L17.475279,-8.477475 L17.5637,-8.430433 L17.652954,-8.383082 L17.74298,-8.335386 L17.833712,-8.287309 L17.925083,-8.238813 L18.017025,-8.189864 L18.109472,-8.140426 L18.202353,-8.090464 L18.295595,-8.039945 L18.389128,-7.988833 L18.48288,-7.9370975 L18.576777,-7.884705 L18.670746,-7.8316255 L18.764711,-7.7778273 L18.858599,-7.723281 L18.952333,-7.6679583 L19.045837,-7.6118317 L19.139038,-7.554874 L19.231857,-7.4970603 L19.32422,-7.438365 L19.416048,-7.3787656 L19.507269,-7.318239 L19.597803,-7.2567654 L19.687576,-7.1943235 L19.776512,-7.130895 L19.864536,-7.0664625 L19.951572,-7.0010095 L20.037548,-6.9345217 L20.122389,-6.866985 L20.20602,-6.798387 L20.288372,-6.7287173 L20.36937,-6.657966 L20.448942,-6.586126 L20.527018,-6.51319 L20.60353,-6.4391527 L20.678408,-6.3640113 L20.751585,-6.287764 L20.82299,-6.210411 L20.892563,-6.1319537 L20.960236,-6.052396 L21.025944,-5.9717426 L21.089626,-5.8900023 L21.15122,-5.8071833 L21.210669,-5.723298 L21.267912,-5.63836 L21.322895,-5.552386 L21.37556,-5.465394 L21.425858,-5.377405 L21.473736,-5.2884426 L21.519148,-5.198532 L21.562046,-5.1077023 L21.60239,-5.015984 L21.640137,-4.92341 L21.675253,-4.830015 L21.707703,-4.7358384 L21.737457,-4.6409183 L21.764492,-4.545297 L21.788782,-4.4490175 L21.81031,-4.352125 L21.829065,-4.254665 L21.845034,-4.1566844 L21.858212,-4.058231 L21.868599,-3.9593527 L21.8762,-3.8600984 L21.88102,-3.760516 L21.883072,-3.660653 L21.882372,-3.5605574 L21.878939,-3.4602752 L21.872797,-3.3598526 L21.863976,-3.2593336 L21.8525,-3.1587622 L21.838413,-3.05818 L21.821745,-2.957628 L21.802538,-2.857145 L21.780836,-2.7567697 L21.756683,-2.6565375 L21.730127,-2.556484 L21.701221,-2.4566422 L21.670015,-2.3570445 L21.636566,-2.2577214 L21.60093,-2.1587021 L21.563162,-2.060015 L21.523325,-1.9616865 L21.481482,-1.8637422 L21.437693,-1.7662065 L21.392027,-1.6691025 L21.34455,-1.5724523 L21.295326,-1.4762769 L21.244427,-1.3805958 L21.191925,-1.2854282 L21.13789,-1.1907915 L21.082396,-1.0967025 L21.025515,-1.0031769 L20.967323,-0.9102292 L20.907896,-0.8178731 L20.847311,-0.72612107 L20.785648,-0.63498455 L20.722982,-0.5444742 L20.659395,-0.4545993 L20.594965,-0.36536834 L20.529774,-0.27678865 L20.4639,-0.18886657 L20.397429,-0.101607375 L20.330439,-0.015015303 L20.263012,0.07090646 L20.195686,0.15558667" fill="none" stroke="black" stroke-width="0.05"/>
<path d="M19.804314,0.15558667 L19.870651,0.23901895 L19.93603,0.32232815 L20.00082,0.40607873 L20.064953,0.49026442 L20.128347,0.57487756 L20.190928,0.65990883 L20.25262,0.74534756 L20.313349,0.83118147 L20.373043,0.91739696 L20.431625,1.0039791 L20.489029,1.0909113 L20.54518,1.1781759 L20.60001,1.2657539 L20.653454,1.353625 L20.705442,1.4417678 L20.755913,1.53016 L20.804804,1.6187775 L20.852053,1.7075962 L20.8976,1.7965904 L20.941393,1.885734 L20.983376,1.975 L21.023493,2.0643609 L21.0617,2.1537883 L21.097948,2.2432542 L21.13219,2.3327296 L21.164389,2.422186 L21.194502,2.5115943 L21.222492,2.600926 L21.248327,2.6901524 L21.271975,2.7792459 L21.293406,2.868179 L21.312595,2.9569252 L21.32952,3.0454583 L21.344156,3.1337533 L21.35649,3.2217865 L21.3665,3.3095353 L21.374178,3.3969777 L21.379505,3.4840932 L21.382477,3.570863 L21.383083,3.6572692 L21.381317,3.7432947 L21.377172,3.8289242 L21.370647,3.914143 L21.36174,3.9989376 L21.350449,4.083295 L21.336773,4.1672025 L21.320717,4.250649 L21.30228,4.3336234 L21.28147,4.416114 L21.258287,4.4981093 L21.23274,4.5795984 L21.20484,4.66057 L21.174593,4.741012 L21.142014,4.8209124 L21.107111,4.900258 L21.069902,4.9790363 L21.030405,5.0572333 L20.98864,5.1348357 L20.944626,5.211828 L20.89839,5.2881975 L20.849957,5.363928 L20.799358,5.439005 L20.746622,5.513414 L20.691788,5.5871406 L20.63489,5.660171 L20.575968,5.732491 L20.515066,5.8040876 L20.452229,5.874949 L20.3875,5.9450636 L20.320936,6.0144205 L20.252584,6.083011 L20.1825,6.1508265 L20.11074,6.2178597 L20.037363,6.284106 L19.962427,6.34956 L19.885996,6.41422 L19.808134,6.478084 L19.728905,6.5411534 L19.648375,6.603429 L19.56661,6.664915 L19.48368,6.725617 L19.399658,6.785541 L19.31461,6.844696 L19.228607,6.903092 L19.141722,6.960741 L19.054028,7.0176563 L18.965595,7.073853 L18.876497,7.1293483 L18.786808,7.1841598 L18.696598,7.238308 L18.605942,7.2918134 L18.514908,7.3447003 L18.423573,7.396992 L18.332006,7.448715 L18.240278,7.499897 L18.148458,7.5505657 L18.056618,7.6007514 L17.964825,7.650486 L17.873146,7.6998014 L17.781647,7.7487326 L17.690395,7.797313 L17.599455,7.8455806 L17.508886,7.8935714 L17.418753,7.941324 L17.329115,7.9888787 L17.240028,8.036275 L17.151554,8.083554 L17.063744,8.130759 L16.976654,8.177933 L16.890337,8.225118 L16.80484,8.27236 L16.720215,8.319704 L16.636507,8.367196 L16.553764,8.414882 L16.472027,8.462809 L16.39134,8.511024 L16.311743,8.559576 L16.233274,8.608511 L16.155972,8.657877 L16.079872,8.707724 L16.00501,8.758096 L15.931419,8.809043 L15.859132,8.860611 L15.788178,8.912845 L15.718591,8.965791 L15.650398,9.019493 L15.583629,9.073992 L15.51831,9.129329 L15.454468,9.185542 L15.39213,9.242667 L15.33132,9.300738 L15.27206,9.359784 L15.2143755,9.419834 L15.158283,9.480909 L15.103804,9.543033 L15.050952,9.606218 L14.999741,9.670481 L14.950182,9.735829 L14.902283,9.802269 L14.856045,9.869803 L14.811469,9.938432 L14.768551,10.008151 L14.727281,10.078956 L14.687646,10.15084 L14.649628,10.223793 L14.613204,10.297807 L14.578349,10.372869 L14.5450325,10.448968 L14.513221,10.5260935 L14.482874,10.604233 L14.453953,10.683373 L14.426414,10.763505 L14.400209,10.844614 L14.375291,10.926689 L14.351607,11.009718 L14.329107,11.09369 L14.307736,11.178592 L14.287438,11.26441 L14.268158,11.351133 L14.249838,11.4387455 L14.23242,11.527233 L14.215846,11.61658 L14.200057,11.70677 L14.184994,11.797783 L14.170595,11.889602 L14.156804,11.982204 L14.1435585,12.075568 L14.130798,12.16967 L14.118464,12.264484 L14.106498,12.359983 L14.094836,12.45614 L14.083422,12.552921 L14.072195,12.650297 L14.061095,12.748234 L14.050065,12.846696 L14.039046,12.945645 L14.02798,13.045046 L14.016809,13.1448555 L14.005478,13.245034 L13.993928,13.345537 L13.982105,13.446322 L13.9699545,13.547344 L13.957422,13.648554 L13.944455,13.749905 L13.931002,13.851347 L13.91701,13.952831 L13.902431,14.054306 L13.887215,14.15572 L13.871315,14.257018 L13.854684,14.35815 L13.837278,14.459059 L13.819053,14.55969 L13.799967,14.65999 L13.779978,14.759903 L13.759048,14.859371 L13.737141,14.958341 L13.714219,15.056755 L13.6902485,15.154557 L13.665196,15.251693 L13.639033,15.348105 L13.611731,15.44374 L13.58326,15.538541 L13.5535965,15.632455 L13.522717,15.725429 L13.490601,15.817409 L13.457227,15.908344 L13.422579,15.998183 L13.386641,16.086878 L13.349397,16.174377 L13.310837,16.260637 L13.270949,16.345612 L13.229726,16.429255 L13.187159,16.511526 L13.143244,16.592386 L13.097975,16.671793 L13.051352,16.749714 L13.00337,16.82611 L12.954033,16.900953 L12.90334,16.974209 L12.8512945,17.04585 L12.797898,17.11585 L12.743156,17.184185 L12.687073,17.250832 L12.629655,17.31577 L12.570907,17.37898 L12.510837,17.440447 L12.449452,17.500156 L12.386761,17.558092 L12.32277,17.614246 L12.257491,17.668606 L12.190931,17.721163 L12.123102,17.77191 L12.054013,17.820843 L11.983677,17.867952 L11.912105,17.913239 L11.839311,17.956697 L11.765307,17.998327 L11.690111,18.038128 L11.613737,18.076097 L11.536203,18.11224 L11.457528,18.146555 L11.377732,18.179049 L11.296835,18.209724 L11.214862,18.238588 L11.131835,18.265648 L11.04778,18.29091 L10.962726,18.314386 L10.876699,18.33609 L10.789731,18.356031 L10.701852,18.374226 L10.613094,18.390692 L10.523492,18.405447 L10.433079,18.41851 L10.341891,18.429905 L10.249966,18.439655 L10.157339,18.447788 L10.064049,18.454329 L9.970134,18.459309 L9.875633,18.462759 L9.780587,18.464712 L9.685033,18.465208 L9.589011,18.46428 L9.492562,18.461966 L9.395725,18.45831 L9.298539,18.45335 L9.201044,18.447136 L9.103277,18.43971 L9.005279,18.43112 L8.907084,18.421413 L8.808733,18.41064 L8.710261,18.398851 L8.611705,18.3861 L8.513098,18.372438 L8.414475,18.357922 L8.31587,18.342606 L8.217316,18.326544 L8.118841,18.309795 L8.020478,18.292416 L7.9222555,18.274466 L7.824201,18.256 L7.7263412,18.237083 L7.628701,18.21777 L7.5313063,18.198122 L7.434178,18.178198 L7.3373384,18.15806 L7.2408075,18.137766 L7.1446047,18.117376 L7.0487466,18.09695 L6.95325,18.07655 L6.858129,18.056232 L6.7633967,18.036058 L6.6690655,18.016085 L6.5751452,17.996372 L6.4816456,17.976974 L6.3885736,17.957952 L6.2959366,17.939362 L6.2037387,17.921257 L6.1119843,17.903696 L6.020676,17.886728 L5.9298153,17.870413 L5.8394027,17.854797 L5.749437,17.839937 L5.6599174,17.82588 L5.5708404,17.812677 L5.4822035,17.800377 L5.3940024,17.789024 L5.3062325,17.77867 L5.2188888,17.769352 L5.131966,17.76112 L5.0454583,17.754011 L4.95936,17.748068 L4.8736644,17.743328 L4.7883663,17.739826 L4.7034593,17.7376 L4.6189375,17.736681 L4.534796,17.737097 L4.4510293,17.738878 L4.3676324,17.742048 L4.2846007,17.746632 L4.201929,17.752647 L4.119614,17.76011 L4.037651,17.769037 L3.9560351,17.779436 L3.8747628,17.791317 L3.7938287,17.804684 L3.7132277,17.819534 L3.6329546,17.83587 L3.5530026,17.853683 L3.4733648,17.872967 L3.394033,17.89371 L3.3149977,17.915894 L3.2362492,17.939505 L3.1577756,17.964521 L3.0795646,17.990923 L3.0016022,18.018682 L2.9238734,18.047773 L2.846362,18.078169 L2.7690513,18.109835 L2.691923,18.142738 L2.6149578,18.176847 L2.5381365,18.212126 L2.4614384,18.248537 L2.3848429,18.28604 L2.3083284,18.324594 L2.231874,18.364162 L2.155458,18.4047 L2.0790586,18.446163 L2.0026548,18.488508 L1.9262252,18.53169 L1.849749,18.575665 L1.7732059,18.620382 L1.6965761,18.665796 L1.6198401,18.711857 L1.5429797,18.758516 L1.465977,18.805721 L1.3888148,18.853424 L1.3114771,18.90157 L1.2339486,18.950108 L1.1562151,18.998985 L1.0782632,19.04815 L1.0000805,19.097542 L0.9216557,19.147114 L0.8429787,19.196806 L0.76404023,19.246565 L0.6848322,19.296337 L0.60534763,19.346064 L0.5255806,19.395689 L0.44552618,19.445158 L0.3651808,19.494417 L0.28454176,19.543406 L0.20360753,19.592072 L0.122377686,19.640358 L0.040852845,19.688211 L-0.040965308,19.735575 L-0.12307405,19.782393 L-0.20546962,19.828615 L-0.28814727,19.874186 L-0.3711013,19.919052 L-0.45432493,19.963165 L-0.5378106,20.00647 L-0.62154984,20.048918 L-0.7055332,20.090462 L-0.7897505,20.13105 L-0.87419075,20.170637 L-0.9588423,20.209177 L-1.0436926,20.246624 L-1.1287285,20.282936 L-1.2139366,20.31807 L-1.2993023,20.351986 L-1.3848112,20.384644 L-1.4704478,20.416006 L-1.5561966,20.446037 L-1.6420416,20.4747 L-1.7279667,20.501965 L-1.8139553,20.527798 L-1.899991,20.55217 L-1.9860569,20.575054 L-2.0721364,20.59642 L-2.158213,20.616247 L-2.2442691,20.63451 L-2.3302891,20.65119 L-2.4162562,20.666264 L-2.5021544,20.679714 L-2.5879674,20.691526 L-2.6736796,20.701685 L-2.759276,20.710176 L-2.8447413,20.71699 L-2.9300609,20.722113 L-3.0152204,20.72554 L-3.1002061,20.727264 L-3.1850045,20.72728 L-3.2696025,20.72558 L-3.3539872,20.722164 L-3.4381464,20.717031 L-3.5220678,20.71018 L-3.6057398,20.701612 L-3.6891513,20.691332 L-3.7722912,20.679342 L-3.8551483,20.665648 L-3.9377122,20.650255 L-4.019973,20.633175 L-4.101919,20.614412 L-4.1835427,20.593979 L-4.2648325,20.571888 L-4.3457794,20.548151 L-4.4263744,20.522781 L-4.5066075,20.495798 L-4.5864706,20.467216 L-4.665954,20.437054 L-4.74505,20.40533 L-4.823749,20.372068 L-4.902044,20.33729 L-4.9799266,20.301018 L-5.0573897,20.263277 L-5.1344256,20.224094 L-5.2110286,20.183496 L-5.287191,20.141516 L-5.362908,20.098179 L-5.4381733,20.053516 L-5.5129833,20.007565 L-5.5873327,19.960356 L-5.6612186,19.911922 L-5.7346373,19.862303 L-5.807587,19.811533 L-5.880066,19.759651 L-5.9520736,19.706696 L-6.023609,19.652706 L-6.094674,19.597723 L-6.165269,19.541784 L-6.235397,19.484936 L-6.3050604,19.427216 L-6.374264,19.36867 L-6.4430113,19.309338 L-6.511309,19.249264 L-6.5791636,19.188494 L-6.6465816,19.12707 L-6.713572,19.065035 L-6.780143,19.002432 L-6.846305,18.939308 L-6.912068,18.875706 L-6.9774437,18.811668 L-7.042444,18.74724 L-7.1070824,18.682463 L-7.1713724,18.617382 L-7.2353277,18.552036 L-7.298964,18.486473 L-7.362297,18.420729 L-7.4253426,18.354849 L-7.488118,18.28887 L-7.550641,18.222836 L-7.6129293,18.156784 L-7.675001,18.090752 L-7.7368765,18.02478 L-7.7985735,17.958902 L-7.860113,17.893158 L-7.921515,17.827581 L-7.9827995,17.762205 L-8.043987,17.697063 L-8.1051,17.63219 L-8.166158,17.567616 L-8.227182,17.503372 L-8.288195,17.439487 L-8.3492155,17.375988 L-8.410268,17.312906 L-8.471371,17.250265 L-8.532546,17.18809 L-8.593815,17.126406 L-8.655197,17.065235 L-8.716713,17.004599 L-8.778382,16.944519 L-8.840225,16.885015 L-8.902259,16.826105 L-8.964503,16.767805 L-9.026976,16.710133 L-9.089693,16.653101 L-9.152672,16.596724 L-9.215928,16.541014 L-9.279475,16.485981 L-9.343329,16.431637 L-9.407502,16.377987 L-9.472008,16.325039 L-9.536856,16.272799 L-9.602057,16.221272 L-9.667622,16.170458 L-9.733559,16.120361 L-9.799874,16.07098 L-9.866576,16.022316 L-9.933669,15.974361 L-10.00116,15.927115 L-10.06905,15.880571 L-10.137343,15.834722 L-10.206041,15.789558 L-10.2751465,15.745071 L-10.344657,15.70125 L-10.414573,15.658081 L-10.484893,15.615551 L-10.555614,15.573644 L-10.626735,15.532344 L-10.698249,15.491633 L-10.770154,15.451493 L-10.8424425,15.411904 L-10.915111,15.372845 L-10.98815,15.334293 L-11.061553,15.296227 L-11.135313,15.258622 L-11.20942,15.221455 L-11.283865,15.184699 L-11.358638,15.148329 L-11.433727,15.112319 L-11.509123,15.076641 L-11.584813,15.041268 L-11.660785,15.006172 L-11.737024,14.971325 L-11.8135195,14.936699 L-11.890254,14.902264 L-11.967215,14.8679905 L-12.044386,14.833851 L-12.12175,14.799815 L-12.199293,14.765855 L-12.276996,14.731939 L-12.354841,14.698041 L-12.432812,14.66413 L-12.510888,14.6301775 L-12.589052,14.596154 L-12.667283,14.562034 L-12.745563,14.527786 L-12.823868,14.493384 L-12.902181,14.4588 L-12.980478,14.424008 L-13.05874,14.388981 L-13.136943,14.353693 L-13.215067,14.318118 L-13.293088,14.282231 L-13.370984,14.246009 L-13.448733,14.209427 L-13.526312,14.1724615 L-13.603698,14.13509 L-13.680868,14.097292 L-13.757798,14.059045 L-13.834467,14.020329 L-13.91085,13.981125 L-13.986925,13.941413 L-14.06267,13.901175 L-14.138061,13.860393 L-14.213076,13.819051 L-14.287692,13.777134 L-14.361889,13.734625 L-14.435643,13.691511 L-14.508935,13.6477785 L-14.581742,13.603415 L-14.654044,13.558408 L-14.7258215,13.512747 L-14.797053,13.466421 L-14.867721,13.419421 L-14.937805,13.371739 L-15.007289,13.323367 L-15.076153,13.274297 L-15.144381,13.2245245 L-15.211956,13.174042 L-15.278863,13.122847 L-15.345086,13.070933 L-15.41061,13.0183 L-15.475423,12.964943 L-15.539509,12.910861 L-15.602858,12.856053 L-15.665455,12.800519 L-15.727292,12.74426 L-15.788357,12.687276 L-15.84864,12.629568 L-15.908134,12.571141 L-15.966828,12.511995 L-16.024717,12.452136 L-16.081793,12.391567 L-16.13805,12.330294 L-16.193483,12.268321 L-16.248087,12.205654 L-16.30186,12.142301 L-16.354797,12.078268 L-16.406895,12.013563 L-16.458155,11.9481945 L-16.508575,11.882171 L-16.558155,11.8155 L-16.606895,11.748195 L-16.654797,11.680262 L-16.701862,11.611713 L-16.748095,11.542561 L-16.793497,11.472815 L-16.838074,11.402486 L-16.881828,11.331589 L-16.92477,11.260135 L-16.966902,11.188137 L-17.00823,11.115608 L-17.048765,11.042562 L-17.088512,10.969011 L-17.127483,10.894972 L-17.165686,10.8204565 L-17.20313,10.745481 L-17.239828,10.670058 L-17.275787,10.594204 L-17.311026,10.517933 L-17.345549,10.441259 L-17.379375,10.364201 L-17.412516,10.286769 L-17.444984,10.2089815 L-17.476795,10.130853 L-17.507965,10.052398 L-17.538507,9.973631 L-17.568438,9.894568 L-17.597775,9.815226 L-17.626532,9.735616 L-17.654728,9.655755 L-17.682379,9.575656 L-17.709503,9.495336 L-17.736116,9.414805 L-17.76224,9.334081 L-17.787888,9.253176 L-17.813082,9.172102 L-17.83784,9.090874 L-17.862177,9.009504 L-17.886114,8.928005 L-17.909672,8.84639 L-17.932865,8.764668 L-17.955715,8.682854 L-17.97824,8.600957 L-18.000456,8.518988 L-18.022385,8.436957 L-18.04404,8.354876 L-18.065445,8.272753 L-18.086615,8.190597 L-18.107567,8.1084175 L-18.128319,8.026223 L-18.148886,7.944021 L-18.169287,7.8618197 L-18.189537,7.779626 L-18.209654,7.6974463 L-18.22965,7.6152873 L-18.249542,7.533155 L-18.269344,7.451055 L-18.28907,7.368992 L-18.308733,7.286971 L-18.328348,7.2049966 L-18.347923,7.123072 L-18.367476,7.041202 L-18.387012,6.9593883 L-18.406544,6.8776345 L-18.426083,6.7959433 L-18.445637,6.714316 L-18.465214,6.632755 L-18.484823,6.551261 L-18.504469,6.4698353 L-18.524162,6.3884783 L-18.543903,6.3071914 L-18.563702,6.2259736 L-18.583559,6.144825 L-18.603481,6.0637455 L-18.623466,5.9827337 L-18.643522,5.9017887 L-18.663645,5.8209095 L-18.683838,5.7400937 L-18.704102,5.6593404 L-18.724432,5.5786476 L-18.74483,5.498012 L-18.765291,5.4174323 L-18.785814,5.3369055 L-18.806395,5.2564282 L-18.827026,5.1759987 L-18.847708,5.095613 L-18.86843,5.015268 L-18.889185,4.9349604 L-18.909971,4.854687 L-18.930777,4.774444 L-18.951593,4.6942286 L-18.972414,4.614036 L-18.993227,4.533863 L-19.014025,4.453706 L-19.034796,4.373561 L-19.05553,4.293424 L-19.076214,4.213292 L-19.096838,4.133161 L-19.117388,4.053027 L-19.137854,3.972887 L-19.158218,3.892737 L-19.178474,3.8125734 L-19.198603,3.732393 L-19.218592,3.6521926 L-19.238428,3.571969 L-19.258097,3.491719 L-19.277584,3.4114397 L-19.296873,3.3311281 L-19.315952,3.250782 L-19.334805,3.1703987 L-19.353415,3.0899758 L-19.37177,3.0095115 L-19.389854,2.929003 L-19.407652,2.8484495 L-19.42515,2.7678485 L-19.442331,2.687199 L-19.45918,2.6065 L-19.475687,2.52575 L-19.491835,2.4449482 L-19.507607,2.3640943 L-19.522991,2.2831874 L-19.537973,2.2022276 L-19.552542,2.1212146 L-19.56668,2.0401485 L-19.580378,1.9590297 L-19.59362,1.8778586 L-19.606398,1.796636 L-19.618696,1.7153627 L-19.630503,1.6340398 L-19.64181,1.5526682 L-19.652603,1.4712497 L-19.662874,1.3897855 L-19.672615,1.3082774 L-19.681812,1.226727 L-19.690458,1.1451366 L-19.698547,1.0635079 L-19.706068,0.9818435 L-19.713015,0.90014535 L-19.719381,0.8184161 L-19.72516,0.73665816 L-19.730345,0.6548742 L-19.734934,0.57306683 L-19.738918,0.4912389 L-19.742298,0.40939316 L-19.745068,0.32753253 L-19.747223,0.24565992 L-19.748766,0.1637783 L-19.749691,0.08189066 L-19.75,0.000000000000011275566 L-19.749691,-0.08189066 L-19.748766,-0.1637783 L-19.747223,-0.24565992 L-19.745068,-0.32753253 L-19.742298,-0.40939316 L-19.738918,-0.4912389 L-19.734934,-0.57306683 L-19.730345,-0.6548742 L-19.72516,-0.73665816 L-19.719381,-0.8184161 L-19.713015,-0.90014535 L-19.706068,-0.9818435 L-19.698547,-1.0635079 L-19.690458,-1.1451366 L-19.681812,-1.226727 L-19.672615,-1.3082774 L-19.662874,-1.3897855 L-19.652603,-1.4712497 L-19.64181,-1.5526682 L-19.630503,-1.6340398 L-19.618696,-1.7153627 L-19.606398,-1.796636 L-19.59362,-1.8778586 L-19.580378,-1.9590297 L-19.56668,-2.0401485 L-19.552542,-2.1212146 L-19.537973,-2.2022276 L-19.522991,-2.2831874 L-19.507607,-2.3640943 L-19.491835,-2.4449482 L-19.475687,-2.52575 L-19.45918,-2.6065 L-19.442331,-2.687199 L-19.42515,-2.7678485 L-19.407652,-2.8484495 L-19.389854,-2.929003 L-19.37177,-3.0095115 L-19.353415,-3.0899758 L-19.334805,-3.1703987 L-19.315952,-3.250782 L-19.296873,-3.3311281 L-19.277584,-3.4114397 L-19.258097,-3.491719 L-19.238428,-3.571969 L-19.218592,-3.6521926 L-19.198603,-3.732393 L-19.178474,-3.8125734 L-19.158218,-3.892737 L-19.137854,-3.972887 L-19.117388,-4.053027 L-19.096838,-4.133161 L-19.076214,-4.213292 L-19.05553,-4.293424 L-19.034796,-4.373561 L-19.014025,-4.453706 L-18.993227,-4.533863 L-18.972414,-4.614036 L-18.951593,-4.6942286 L-18.930777,-4.774444 L-18.909971,-4.854687 L-18.889185,-4.9349604 L-18.86843,-5.015268 L-18.847708,-5.095613 L-18.827026,-5.1759987 L-18.806395,-5.2564282 L-18.785814,-5.3369055 L-18.765291,-5.4174323 L-18.74483,-5.498012 L-18.724432,-5.5786476 L-18.704102,-5.6593404 L-18.683838,-5.7400937 L-18.663645,-5.8209095 L-18.643522,-5.9017887 L-18.623466,-5.9827337 L-18.603481,-6.0637455 L-18.583559,-6.144825 L-18.563702,-6.2259736 L-18.543903,-6.3071914 L-18.524162,-6.3884783 L-18.504469,-6.4698353 L-18.484823,-6.551261 L-18.465214,-6.632755 L-18.445637,-6.714316 L-18.426083,-6.7959433 L-18.406544,-6.8776345 L-18.387012,-6.9593883 L-18.367476,-7.041202 L-18.347923,-7.123072 L-18.328348,-7.2049966 L-18.308733,-7.286971 L-18.28907,-7.368992 L-18.269344,-7.451055 L-18.249542,-7.533155 L-18.22965,-7.6152873 L-18.209654,-7.6974463 L-18.189537,-7.779626 L-18.169287,-7.8618197 L-18.148886,-7.944021 L-18.128319,-8.026223 L-18.107567,-8.1084175 L-18.086615,-8.190597 L-18.065445,-8.272753 L-18.04404,-8.354876 L-18.022385,-8.436957 L-18.000456,-8.518988 L-17.97824,-8.600957 L-17.955715,-8.682854 L-17.932865,-8.764668 L-17.909672,-8.84639 L-17.886114,-8.928005 L-17.862177,-9.009504 L-17.83784,-9.090874 L-17.813082,-9.172102 L-17.787888,-9.253176 L-17.76224,-9.334081 L-17.736116,-9.414805 L-17.709503,-9.495336 L-17.682379,-9.575656 L-17.654728,-9.655755 L-17.626532,-9.735616 L-17.597775,-9.815226 L-17.568438,-9.894568 L-17.538507,-9.973631 L-17.507965,-10.052398 L-17.476795,-10.130853 L-17.444984,-10.2089815 L-17.412516,-10.286769 L-17.379375,-10.364201 L-17.345549,-10.441259 L-17.311026,-10.517933 L-17.275787,-10.594204 L-17.239828,-10.670058 L-17.20313,-10.745481 L-17.165686,-10.8204565 L-17.127483,-10.894972 L-17.088512,-10.969011 L-17.048765,-11.042562 L-17.00823,-11.115608 L-16.966902,-11.188137 L-16.92477,-11.260135 L-16.881828,-11.331589 L-16.838074,-11.402486 L-16.793497,-11.472815 L-16.748095,-11.542561 L-16.701862,-11.611713 L-16.654797,-11.680262 L-16.606895,-11.748195 L-16.558155,-11.8155 L-16.508575,-11.882171 L-16.458155,-11.9481945 L-16.406895,-12.013563 L-16.354797,-12.078268 L-16.30186,-12.142301 L-16.248087,-12.205654 L-16.193483,-12.268321 L-16.13805,-12.330294 L-16.081793,-12.391567 L-16.024717,-12.452136 L-15.966828,-12.511995 L-15.908134,-12.571141 L-15.84864,-12.629568 L-15.788357,-12.687276 L-15.727292,-12.74426 L-15.665455,-12.800519 L-15.602858,-12.856053 L-15.539509,-12.910861 L-15.475423,-12.964943 L-15.41061,-13.0183 L-15.345086,-13.070933 L-15.278863,-13.122847 L-15.211956,-13.174042 L-15.144381,-13.2245245 L-15.076153,-13.274297 L-15.007289,-13.323367 L-14.937805,-13.371739 L-14.867721,-13.419421 L-14.797053,-13.466421 L-14.7258215,-13.512747 L-14.654044,-13.558408 L-14.581742,-13.603415 L-14.508935,-13.6477785 L-14.435643,-13.691511 L-14.361889,-13.734625 L-14.287692,-13.777134 L-14.213076,-13.819051 L-14.138061,-13.860393 L-14.06267,-13.901175 L-13.986925,-13.941413 L-13.91085,-13.981125 L-13.834467,-14.020329 L-13.757798,-14.059045 L-13.680868,-14.097292 L-13.603698,-14.13509 L-13.526312,-14.1724615 L-13.448733,-14.209427 L-13.370984,-14.246009 L-13.293088,-14.282231 L-13.215067,-14.318118 L-13.136943,-14.353693 L-13.05874,-14.388981 L-12.980478,-14.424008 L-12.902181,-14.4588 L-12.823868,-14.493384 L-12.745563,-14.527786 L-12.667283,-14.562034 L-12.589052,-14.596154 L-12.510888,-14.6301775 L-12.432812,-14.66413 L-12.354841,-14.698041 L-12.276996,-14.731939 L-12.199293,-14.765855 L-12.12175,-14.799815 L-12.044386,-14.833851 L-11.967215,-14.8679905 L-11.890254,-14.902264 L-11.8135195,-14.936699 L-11.737024,-14.971325 L-11.660785,-15.006172 L-11.584813,-15.041268 L-11.509123,-15.076641 L-11.433727,-15.112319 L-11.358638,-15.148329 L-11.283865,-15.184699 L-11.20942,-15.221455 L-11.135313,-15.258622 L-11.061553,-15.296227 L-10.98815,-15.334293 L-10.915111,-15.372845 L-10.8424425,-15.411904 L-10.770154,-15.451493 L-10.698249,-15.491633 L-10.626735,-15.532344 L-10.555614,-15.573644 L-10.484893,-15.615551 L-10.414573,-15.658081 L-10.344657,-15.70125 L-10.2751465,-15.745071 L-10.206041,-15.789558 L-10.137343,-15.834722 L-10.06905,-15.880571 L-10.00116,-15.927115 L-9.933669,-15.974361 L-9.866576,-16.022316 L-9.799874,-16.07098 L-9.733559,-16.120361 L-9.667622,-16.170458 L-9.602057,-16.221272 L-9.536856,-16.272799 L-9.472008,-16.325039 L-9.407502,-16.377987 L-9.343329,-16.431637 L-9.279475,-16.485981 L-9.215928,-16.541014 L-9.152672,-16.596724 L-9.089693,-16.653101 L-9.026976,-16.710133 L-8.964503,-16.767805 L-8.902259,-16.826105 L-8.840225,-16.885015 L-8.778382,-16.944519 L-8.716713,-17.004599 L-8.655197,-17.065235 L-8.593815,-17.126406 L-8.532546,-17.18809 L-8.471371,-17.250265 L-8.410268,-17.312906 L-8.3492155,-17.375988 L-8.288195,-17.439487 L-8.227182,-17.503372 L-8.166158,-17.567616 L-8.1051,-17.63219 L-8.043987,-17.697063 L-7.9827995,-17.762205 L-7.921515,-17.827581 L-7.860113,-17.893158 L-7.7985735,-17.958902 L-7.7368765,-18.02478 L-7.675001,-18.090752 L-7.6129293,-18.156784 L-7.550641,-18.222836 L-7.488118,-18.28887 L-7.4253426,-18.354849 L-7.362297,-18.420729 L-7.298964,-18.486473 L-7.2353277,-18.552036 L-7.1713724,-18.617382 L-7.1070824,-18.682463 L-7.042444,-18.74724 L-6.9774437,-18.811668 L-6.912068,-18.875706 L-6.846305,-18.939308 L-6.780143,-19.002432 L-6.713572,-19.065035 L-6.6465816,-19.12707 L-6.5791636,-19.188494 L-6.511309,-19.249264 L-6.4430113,-19.309338 L-6.374264,-19.36867 L-6.3050604,-19.427216 L-6.235397,-19.484936 L-6.165269,-19.541784 L-6.094674,-19.597723 L-6.023609,-19.652706 L-5.9520736,-19.706696 L-5.880066,-19.759651 L-5.807587,-19.811533 L-5.7346373,-19.862303 L-5.6612186,-19.911922 L-5.5873327,-19.960356 L-5.5129833,-20.007565 L-5.4381733,-20.053516 L-5.362908,-20.098179 L-5.287191,-20.141516 L-5.2110286,-20.183496 L-5.1344256,-20.224094 L-5.0573897,-20.263277 L-4.9799266,-20.301018 L-4.902044,-20.33729 L-4.823749,-20.372068 L-4.74505,-20.40533 L-4.665954,-20.437054 L-4.5864706,-20.467216 L-4.5066075,-20.495798 L-4.4263744,-20.522781 L-4.3457794,-20.548151 L-4.2648325,-20.571888 L-4.1835427,-20.593979 L-4.101919,-20.614412 L-4.019973,-20.633175 L-3.9377122,-20.650255 L-3.8551483,-20.665648 L-3.7722912,-20.679342 L-3.6891513,-20.691332 L-3.6057398,-20.701612 L-3.5220678,-20.71018 L-3.4381464,-20.717031 L-3.3539872,-20.722164 L-3.2696025,-20.72558 L-3.1850045,-20.72728 L-3.1002061,-20.727264 L-3.0152204,-20.72554 L-2.9300609,-20.722113 L-2.8447413,-20.71699 L-2.759276,-20.710176 L-2.6736796,-20.701685 L-2.5879674,-20.691526 L-2.5021544,-20.679714 L-2.4162562,-20.666264 L-2.3302891,-20.65119 L-2.2442691,-20.63451 L-2.158213,-20.616247 L-2.0721364,-20.59642 L-1.9860569,-20.575054 L-1.899991,-20.55217 L-1.8139553,-20.527798 L-1.7279667,-20.501965 L-1.6420416,-20.4747 L-1.5561966,-20.446037 L-1.4704478,-20.416006 L-1.3848112,-20.384644 L-1.2993023,-20.351986 L-1.2139366,-20.31807 L-1.1287285,-20.282936 L-1.0436926,-20.246624 L-0.9588423,-20.209177 L-0.87419075,-20.170637 L-0.7897505,-20.13105 L-0.7055332,-20.090462 L-0.62154984,-20.048918 L-0.5378106,-20.00647 L-0.45432493,-19.963165 L-0.3711013,-19.919052 L-0.28814727,-19.874186 L-0.20546962,-19.828615 L-0.12307405,-19.782393 L-0.040965308,-19.735575 L0.040852845,-19.688211 L0.122377686,-19.640358 L0.20360753,-19.592072 L0.28454176,-19.543406 L0.3651808,-19.494417 L0.44552618,-19.445158 L0.5255806,-19.395689 L0.60534763,-19.346064 L0.6848322,-19.296337 L0.76404023,-19.246565 L0.8429787,-19.196806 L0.9216557,-19.147114 L1.0000805,-19.097542 L1.0782632,-19.04815 L1.1562151,-18.998985 L1.2339486,-18.950108 L1.3114771,-18.90157 L1.3888148,-18.853424 L1.465977,-18.805721 L1.5429797,-18.758516 L1.6198401,-18.711857 L1.6965761,-18.665796 L1.7732059,-18.620382 L1.849749,-18.575665 L1.9262252,-18.53169 L2.0026548,-18.488508 L2.0790586,-18.446163 L2.155458,-18.4047 L2.231874,-18.364162 L2.3083284,-18.324594 L2.3848429,-18.28604 L2.4614384,-18.248537 L2.5381365,-18.212126 L2.6149578,-18.176847 L2.691923,-18.142738 L2.7690513,-18.109835 L2.846362,-18.078169 L2.9238734,-18.047773 L3.0016022,-18.018682 L3.0795646,-17.990923 L3.1577756,-17.964521 L3.2362492,-17.939505 L3.3149977,-17.915894 L3.394033,-17.89371 L3.4733648,-17.872967 L3.5530026,-17.853683 L3.6329546,-17.83587 L3.7132277,-17.819534 L3.7938287,-17.804684 L3.8747628,-17.791317 L3.9560351,-17.779436 L4.037651,-17.769037 L4.119614,-17.76011 L4.201929,-17.752647 L4.2846007,-17.746632 L4.3676324,-17.742048 L4.4510293,-17.738878 L4.534796,-17.737097 L4.6189375,-17.736681 L4.7034593,-17.7376 L4.7883663,-17.739826 L4.8736644,-17.743328 L4.95936,-17.748068 L5.0454583,-17.754011 L5.131966,-17.76112 L5.2188888,-17.769352 L5.3062325,-17.77867 L5.3940024,-17.789024 L5.4822035,-17.800377 L5.5708404,-17.812677 L5.6599174,-17.82588 L5.749437,-17.839937 L5.8394027,-17.854797 L5.9298153,-17.870413 L6.020676,-17.886728 L6.1119843,-17.903696 L6.2037387,-17.921257 L6.2959366,-17.939362 L6.3885736,-17.957952 L6.4816456,-17.976974 L6.5751452,-17.996372 L6.6690655,-18.016085 L6.7633967,-18.036058 L6.858129,-18.056232 L6.95325,-18.07655 L7.0487466,-18.09695 L7.1446047,-18.117376 L7.2408075,-18.137766 L7.3373384,-18.15806 L7.434178,-18.178198 L7.5313063,-18.198122 L7.628701,-18.21777 L7.7263412,-18.237083 L7.824201,-18.256 L7.9222555,-18.274466 L8.020478,-18.292416 L8.118841,-18.309795 L8.217316,-18.326544 L8.31587,-18.342606 L8.414475,-18.357922 L8.513098,-18.372438 L8.611705,-18.3861 L8.710261,-18.398851 L8.808733,-18.41064 L8.907084,-18.421413 L9.005279,-18.43112 L9.103277,-18.43971 L9.201044,-18.447136 L9.298539,-18.45335 L9.395725,-18.45831 L9.492562,-18.461966 L9.589011,-18.46428 L9.685033,-18.465208 L9.780587,-18.464712 L9.875633,-18.462759 L9.970134,-18.459309 L10.064049,-18.454329 L10.157339,-18.447788 L10.249966,-18.439655 L10.341891,-18.429905 L10.433079,-18.41851 L10.523492,-18.405447 L10.613094,-18.390692 L10.701852,-18.374226 L10.789731,-18.356031 L10.876699,-18.33609 L10.962726,-18.314386 L11.04778,-18.29091 L11.131835,-18.265648 L11.214862,-18.238588 L11.296835,-18.209724 L11.377732,-18.179049 L11.457528,-18.146555 L11.536203,-18.11224 L11.613737,-18.076097 L11.690111,-18.038128 L11.765307,-17.998327 L11.839311,-17.956697 L11.912105,-17.913239 L11.983677,-17.867952 L12.054013,-17.820843 L12.123102,-17.77191 L12.190931,-17.721163 L12.257491,-17.668606 L12.32277,-17.614246 L12.386761,-17.558092 L12.449452,-17.500156 L12.510837,-17.440447 L12.570907,-17.37898 L12.629655,-17.31577 L12.687073,-17.250832 L12.743156,-17.184185 L12.797898,-17.11585 L12.8512945,-17.04585 L12.90334,-16.974209 L12.954033,-16.900953 L13.00337,-16.82611 L13.051352,-16.749714 L13.097975,-16.671793 L13.143244,-16.592386 L13.187159,-16.511526 L13.229726,-16.429255 L13.270949,-16.345612 L13.310837,-16.260637 L13.349397,-16.174377 L13.386641,-16.086878 L13.422579,-15.998183 L13.457227,-15.908344 L13.490601,-15.817409 L13.522717,-15.725429 L13.5535965,-15.632455 L13.58326,-15.538541 L13.611731,-15.44374 L13.639033,-15.348105 L13.665196,-15.251693 L13.6902485,-15.154557 L13.714219,-15.056755 L13.737141,-14.958341 L13.759048,-14.859371 L13.779978,-14.759903 L13.799967,-14.65999 L13.819053,-14.55969 L13.837278,-14.459059 L13.854684,-14.35815 L13.871315,-14.257018 L13.887215,-14.15572 L13.902431,-14.054306 L13.91701,-13.952831 L13.931002,-13.851347 L13.944455,-13.749905 L13.957422,-13.648554 L13.9699545,-13.547344 L13.982105,-13.446322 L13.993928,-13.345537 L14.005478,-13.245034 L14.016809,-13.1448555 L14.02798,-13.045046 L14.039046,-12.945645 L14.050065,-12.846696 L14.061095,-12.748234 L14.072195,-12.650297 L14.083422,-12.552921 L14.094836,-12.45614 L14.106498,-12.359983 L14.118464,-12.264484 L14.130798,-12.16967 L14.1435585,-12.075568 L14.156804,-11.982204 L14.170595,-11.889602 L14.184994,-11.797783 L14.200057,-11.70677 L14.215846,-11.61658 L14.23242,-11.527233 L14.249838,-11.4387455 L14.268158,-11.351133 L14.287438,-11.26441 L14.307736,-11.178592 L14.329107,-11.09369 L14.351607,-11.009718 L14.375291,-10.926689 L14.400209,-10.844614 L14.426414,-10.763505 L14.453953,-10.683373 L14.482874,-10.604233 L14.513221,-10.5260935 L14.5450325,-10.448968 L14.578349,-10.372869 L14.613204,-10.297807 L14.649628,-10.223793 L14.687646,-10.15084 L14.727281,-10.078956 L14.768551,-10.008151 L14.811469,-9.938432 L14.856045,-9.869803 L14.902283,-9.802269 L14.950182,-9.735829 L14.999741,-9.670481 L15.050952,-9.606218 L15.103804,-9.543033 L15.158283,-9.480909 L15.2143755,-9.419834 L15.27206,-9.359784 L15.33132,-9.300738 L15.39213,-9.242667 L15.454468,-9.185542 L15.51831,-9.129329 L15.583629,-9.073992 L15.650398,-9.019493 L15.718591,-8.965791 L15.788178,-8.912845 L15.859132,-8.860611 L15.931419,-8.809043 L16.00501,-8.758096 L16.079872,-8.707724 L16.155972,-8.657877 L16.233274,-8.608511 L16.311743,-8.559576 L16.39134,-8.511024 L16.472027,-8.462809 L16.553764,-8.414882 L16.636507,-8.367196 L16.720215,-8.319704 L16.80484,-8.27236 L16.890337,-8.225118 L16.976654,-8.177933 L17.063744,-8.130759 L17.151554,-8.083554 L17.240028,-8.036275 L17.329115,-7.9888787 L17.418753,-7.941324 L17.508886,-7.8935714 L17.599455,-7.8455806 L17.690395,-7.797313 L17.781647,-7.7487326 L17.873146,-7.6998014 L17.964825,-7.650486 L18.056618,-7.6007514 L18.148458,-7.5505657 L18.240278,-7.499897 L18.332006,-7.448715 L18.423573,-7.396992 L18.514908,-7.3447003 L18.605942,-7.2918134 L18.696598,-7.238308 L18.786808,-7.1841598 L18.876497,-7.1293483 L18.965595,-7.073853 L19.054028,-7.0176563 L19.141722,-6.960741 L19.228607,-6.903092 L19.31461,-6.844696 L19.399658,-6.785541 L19.48368,-6.725617 L19.56661,-6.664915 L19.648375,-6.603429 L19.728905,-6.5411534 L19.808134,-6.478084 L19.885996,-6.41422 L19.962427,-6.34956 L20.037363,-6.284106 L20.11074,-6.2178597 L20.1825,-6.1508265 L20.252584,-6.083011 L20.320936,-6.0144205 L20.3875,-5.9450636 L20.452229,-5.874949 L20.515066,-5.8040876 L20.575968,-5.732491 L20.63489,-5.660171 L20.691788,-5.5871406 L20.746622,-5.513414 L20.799358,-5.439005 L20.849957,-5.363928 L20.89839,-5.2881975 L20.944626,-5.211828 L20.98864,-5.1348357 L21.030405,-5.0572333 L21.069902,-4.9790363 L21.107111,-4.900258 L21.142014,-4.8209124 L21.174593,-4.741012 L21.20484,-4.66057 L21.23274,-4.5795984 L21.258287,-4.4981093 L21.28147,-4.416114 L21.30228,-4.3336234 L21.320717,-4.250649 L21.336773,-4.1672025 L21.350449,-4.083295 L21.36174,-3.9989376 L21.370647,-3.914143 L21.377172,-3.8289242 L21.381317,-3.7432947 L21.383083,-3.6572692 L21.382477,-3.570863 L21.379505,-3.4840932 L21.374178,-3.3969777 L21.3665,-3.3095353 L21.35649,-3.2217865 L21.344156,-3.1337533 L21.32952,-3.0454583 L21.312595,-2.9569252 L21.293406,-2.868179 L21.271975,-2.7792459 L21.248327,-2.6901524 L21.222492,-2.600926 L21.194502,-2.5115943 L21.164389,-2.422186 L21.13219,-2.3327296 L21.097948,-2.2432542 L21.0617,-2.1537883 L21.023493,-2.0643609 L20.983376,-1.975 L20.941393,-1.885734 L20.8976,-1.7965904 L20.852053,-1.7075962 L20.804804,-1.6187775 L20.755913,-1.53016 L20.705442,-1.4417678 L20.653454,-1.353625 L20.60001,-1.2657539 L20.54518,-1.1781759 L20.489029,-1.0909113 L20.431625,-1.0039791 L20.373043,-0.91739696 L20.313349,-0.83118147 L20.25262,-0.74534756 L20.190928,-0.65990883 L20.128347,-0.57487756 L20.064953,-0.49026442 L20.00082,-0.40607873 L19.93603,-0.32232815 L19.870651,-0.23901895 L19.804314,-0.15558667" fill="none" stroke="black" stroke-width="0.05"/>
</svg>