<svg height="53.26835702789489mm" viewBox="-25.05 -26.634178513947443 52.694381306539114 53.26835702789489" width="52.694381306539114mm" xmlns="http://www.w3.org/2000/svg">
<path d="M20,0 L20.100336,0.08419658 L20.200201,0.16923277 L20.299477,0.25510418 L20.398043,0.34180447 L20.495783,0.42932546 L20.592577,0.5176569 L20.688309,0.60678685 L20.782864,0.6967012 L20.876123,0.78738433 L20.967976,0.8788185 L21.058306,0.97098434 L21.147007,1.0638607 L21.233967,1.1574244 L21.319077,1.251651 L21.402231,1.3465143 L21.48333,1.4419862 L21.562265,1.5380373 L21.638945,1.6346368 L21.713266,1.7317519 L21.785137,1.829349 L21.854465,1.927393 L21.921162,2.0258472 L21.985142,2.124674 L22.046322,2.2238348 L22.10462,2.3232892 L22.159964,2.4229968 L22.212275,2.5229151 L22.261486,2.6230018 L22.307531,2.7232134 L22.350346,2.8235052 L22.389872,2.9238327 L22.42605,3.0241501 L22.458834,3.1244116 L22.488173,3.224571 L22.51402,3.3245814 L22.536339,3.4243958 L22.555092,3.5239675 L22.570248,3.623249 L22.581778,3.7221937 L22.589655,3.8207543 L22.593864,3.918884 L22.594385,4.016536 L22.59121,4.1136656 L22.58433,4.2102256 L22.57374,4.306171 L22.559443,4.401458 L22.541441,4.4960423 L22.519747,4.589881 L22.494371,4.682932 L22.465332,4.7751536 L22.432652,4.8665066 L22.396355,4.956951 L22.35647,5.046449 L22.313034,5.1349645 L22.266079,5.2224617 L22.215649,5.3089066 L22.161789,5.394267 L22.104548,5.478512 L22.043976,5.5616117 L21.980131,5.6435385 L21.913073,5.724267 L21.842863,5.8037724 L21.769567,5.882033 L21.693254,5.9590273 L21.613998,6.034737 L21.531876,6.1091456 L21.446962,6.1822386 L21.359343,6.254003 L21.269096,6.324428 L21.176313,6.393506 L21.081081,6.46123 L20.983494,6.527596 L20.883642,6.5926023 L20.781622,6.656249 L20.677534,6.7185383 L20.571476,6.7794747 L20.463549,6.8390656 L20.353857,6.8973203 L20.242504,6.9542494 L20.129595,7.0098667 L20.01524,7.0641885 L19.899544,7.1172323 L19.782616,7.1690183 L19.664568,7.219569 L19.545507,7.2689095 L19.425549,7.3170652 L19.3048,7.364066 L19.183374,7.409942 L19.06138,7.4547267 L18.938932,7.498454 L18.816141,7.5411615 L18.693115,7.582887 L18.569967,7.623672 L18.446804,7.6635585 L18.323736,7.70259 L18.200872,7.7408123 L18.078316,7.778273 L17.956175,7.815021 L17.83455,7.851106 L17.71355,7.886581 L17.593271,7.921498 L17.473814,7.955911 L17.355276,7.9898763 L17.237755,8.023451 L17.12134,8.056691 L17.006124,8.089656 L16.892199,8.122405 L16.779648,8.154999 L16.668556,8.187497 L16.559006,8.219961 L16.451075,8.252454 L16.34484,8.285037 L16.240374,8.317774 L16.137747,8.350725 L16.037025,8.383954 L15.938276,8.417525 L15.841558,8.451499 L15.746929,8.48594 L15.654445,8.520908 L15.564155,8.556466 L15.476107,8.592675 L15.390347,8.629597 L15.306913,8.66729 L15.225844,8.705813 L15.147175,8.745226 L15.070934,8.785584 L14.997148,8.826945 L14.92584,8.869364 L14.85703,8.912893 L14.790732,8.957586 L14.72696,9.003493 L14.665721,9.050663 L14.60702,9.099145 L14.550859,9.148984 L14.497235,9.200225 L14.446141,9.25291 L14.39757,9.307078 L14.351506,9.362769 L14.307934,9.420019 L14.266834,9.478862 L14.228183,9.53933 L14.191954,9.601452 L14.158116,9.665256 L14.126637,9.730765 L14.097481,9.798004 L14.070607,9.866992 L14.045975,9.937745 L14.023538,10.01028 L14.003246,10.084606 L13.985052,10.160735 L13.968899,10.238672 L13.954732,10.318422 L13.942492,10.399986 L13.932117,10.483361 L13.923544,10.568545 L13.916707,10.655529 L13.911539,10.744304 L13.907968,10.834857 L13.905923,10.927171 L13.90533,11.021229 L13.906114,11.117009 L13.908197,11.214487 L13.911503,11.313637 L13.915949,11.414428 L13.921454,11.516829 L13.927939,11.620804 L13.935318,11.726316 L13.943507,11.833324 L13.952422,11.941786 L13.961978,12.051656 L13.972087,12.162886 L13.982664,12.275425 L13.993622,12.389221 L14.004873,12.50422 L14.016333,12.620362 L14.027912,12.73759 L14.039524,12.855842 L14.0510845,12.975052 L14.062506,13.095156 L14.073703,13.216086 L14.084592,13.337774 L14.095087,13.460148 L14.105107,13.583135 L14.11457,13.706659 L14.123393,13.830647 L14.131497,13.955022 L14.138804,14.079704 L14.145238,14.204615 L14.150722,14.329672 L14.155182,14.454796 L14.1585455,14.579904 L14.160743,14.704912 L14.161705,14.829738 L14.161365,14.954297 L14.1596575,15.078504 L14.156521,15.202274 L14.151895,15.325524 L14.14572,15.448167 L14.13794,15.570118 L14.128504,15.691293 L14.117357,15.811606 L14.104453,15.930976 L14.0897455,16.049316 L14.07319,16.166544 L14.054745,16.282578 L14.034372,16.397337 L14.012037,16.51074 L13.987705,16.622707 L13.961348,16.733162 L13.932935,16.842026 L13.902444,16.949223 L13.869851,17.054682 L13.835138,17.158327 L13.798288,17.26009 L13.759288,17.359901 L13.718126,17.457695 L13.674795,17.553404 L13.629289,17.646967 L13.581605,17.738323 L13.531744,17.827414 L13.479708,17.914185 L13.425503,17.998579 L13.369137,18.080547 L13.310621,18.160042 L13.249969,18.237017 L13.187195,18.311428 L13.122319,18.383236 L13.055363,18.452404 L12.986347,18.518896 L12.915299,18.58268 L12.842247,18.64373 L12.7672205,18.702019 L12.690251,18.757524 L12.611376,18.810226 L12.530628,18.860111 L12.448048,18.907164 L12.363674,18.951374 L12.277552,18.992739 L12.189721,19.03125 L12.100231,19.066912 L12.009126,19.099728 L11.916456,19.1297 L11.82227,19.156841 L11.726622,19.181166 L11.62956,19.202688 L11.531142,19.221426 L11.431421,19.237408 L11.330452,19.250654 L11.228292,19.261196 L11.125,19.269066 L11.020632,19.274298 L10.915248,19.276932 L10.808906,19.277008 L10.701667,19.27457 L10.59359,19.269669 L10.484735,19.262348 L10.375163,19.252666 L10.264934,19.240675 L10.154109,19.226433 L10.042747,19.210003 L9.930908,19.191446 L9.818653,19.170828 L9.706041,19.148214 L9.59313,19.12368 L9.479979,19.097294 L9.366645,19.06913 L9.253184,19.039265 L9.139654,19.007776 L9.02611,18.974745 L8.912605,18.94025 L8.799193,18.904377 L8.685926,18.867208 L8.572856,18.828829 L8.460031,18.789328 L8.3475,18.748793 L8.235311,18.70731 L8.123508,18.664972 L8.012138,18.621866 L7.901242,18.578087 L7.79086,18.533724 L7.681034,18.48887 L7.5718007,18.443617 L7.4631963,18.398056 L7.3552556,18.352282 L7.248011,18.306385 L7.141494,18.26046 L7.0357327,18.214594 L6.930756,18.168882 L6.8265877,18.123415 L6.7232523,18.078281 L6.6207714,18.03357 L6.519164,17.98937 L6.418449,17.945768 L6.318641,17.902851 L6.219755,17.860704 L6.1218023,17.819408 L6.0247936,17.779047 L5.9287367,17.739702 L5.8336377,17.70145 L5.739501,17.664368 L5.6463294,17.62853 L5.5541234,17.594011 L5.4628816,17.56088 L5.3726015,17.52921 L5.2832775,17.49906 L5.194904,17.470499 L5.107472,17.443586 L5.020972,17.418383 L4.9353924,17.394945 L4.8507195,17.373323 L4.7669387,17.353573 L4.6840343,17.335741 L4.601988,17.31987 L4.520781,17.306005 L4.4403925,17.294188 L4.3608007,17.284449 L4.281983,17.276827 L4.2039146,17.271349 L4.12657,17.268044 L4.049923,17.266935 L3.973946,17.268044 L3.8986108,17.271387 L3.8238876,17.27698 L3.7497463,17.284834 L3.676156,17.294954 L3.603085,17.307348 L3.5305014,17.322016 L3.4583719,17.338957 L3.3866632,17.358164 L3.3153417,17.37963 L3.2443733,17.403341 L3.1737235,17.429287 L3.1033578,17.457445 L3.0332413,17.487795 L2.9633393,17.520315 L2.893617,17.554974 L2.8240395,17.591745 L2.7545722,17.630592 L2.6851804,17.671478 L2.6158302,17.714369 L2.5464876,17.759216 L2.477119,17.805977 L2.4076912,17.854605 L2.338172,17.90505 L2.2685292,17.957256 L2.1987312,18.011173 L2.1287477,18.066738 L2.0585485,18.123894 L1.9881045,18.182575 L1.9173872,18.242722 L1.8463695,18.304264 L1.7750248,18.367132 L1.7033273,18.43126 L1.6312529,18.49657 L1.558778,18.562992 L1.4858804,18.63045 L1.4125389,18.698864 L1.3387336,18.768158 L1.2644455,18.838251 L1.1896574,18.909063 L1.1143531,18.98051 L1.0385175,19.052513 L0.962137,19.124983 L0.8851994,19.197838 L0.8076939,19.270992 L0.72961086,19.34436 L0.65094227,19.417854 L0.57168126,19.49139 L0.49182263,19.56488 L0.4113624,19.638237 L0.33029816,19.711374 L0.24862874,19.784204 L0.16635452,19.856644 L0.08347723,19.928604 L0.0000000000000056655387,20 L-0.08407264,20.070747 L-0.1687348,20.140762 L-0.25397924,20.20996 L-0.33979735,20.278263 L-0.4261792,20.345583 L-0.5131136,20.411844 L-0.6005881,20.476965 L-0.6885889,20.54087 L-0.77710116,20.603481 L-0.86610866,20.664726 L-0.9555941,20.72453 L-1.0455391,20.78282 L-1.1359243,20.839529 L-1.2267293,20.894588 L-1.3179321,20.947931 L-1.4095107,20.999495 L-1.5014416,21.049217 L-1.5937005,21.09704 L-1.6862624,21.142902 L-1.7791014,21.186754 L-1.8721911,21.228539 L-1.9655042,21.268206 L-2.059013,21.30571 L-2.1526887,21.341005 L-2.246503,21.374048 L-2.3404262,21.4048 L-2.4344287,21.433222 L-2.5284803,21.45928 L-2.6225507,21.48294 L-2.7166095,21.504177 L-2.8106256,21.522963 L-2.9045682,21.539272 L-2.9984064,21.553085 L-3.0921094,21.564384 L-3.1856463,21.573154 L-3.2789862,21.579382 L-3.3720987,21.58306 L-3.4649534,21.584179 L-3.5575202,21.582737 L-3.6497693,21.578732 L-3.7416718,21.572168 L-3.8331983,21.563047 L-3.924321,21.551378 L-4.015012,21.53717 L-4.105243,21.52044 L-4.194989,21.501198 L-4.284224,21.479464 L-4.372922,21.455261 L-4.4610596,21.428612 L-4.5486126,21.39954 L-4.635559,21.368076 L-4.7218776,21.334253 L-4.8075466,21.2981 L-4.8925476,21.259655 L-4.9768615,21.218956 L-5.06047,21.176043 L-5.143358,21.130957 L-5.22551,21.083744 L-5.306911,21.034449 L-5.3875494,20.983118 L-5.4674125,20.929806 L-5.5464897,20.874563 L-5.624773,20.81744 L-5.702254,20.758495 L-5.778925,20.697784 L-5.854782,20.635365 L-5.929821,20.571295 L-6.004039,20.505638 L-6.077434,20.438454 L-6.150007,20.369804 L-6.2217584,20.299757 L-6.292692,20.228374 L-6.362811,20.155724 L-6.432121,20.081867 L-6.500628,20.006876 L-6.568341,19.930817 L-6.635268,19.853756 L-6.7014213,19.775763 L-6.766811,19.696905 L-6.8314505,19.617252 L-6.895354,19.536875 L-6.958537,19.455837 L-7.0210166,19.374212 L-7.0828104,19.292065 L-7.143936,19.209467 L-7.2044153,19.126482 L-7.264268,19.04318 L-7.323516,18.959627 L-7.3821826,18.875889 L-7.440292,18.792032 L-7.497868,18.708118 L-7.5549374,18.624214 L-7.611526,18.540382 L-7.6676617,18.456682 L-7.7233715,18.373175 L-7.778684,18.289919 L-7.8336296,18.206976 L-7.888237,18.1244 L-7.942537,18.042246 L-7.99656,17.960567 L-8.050338,17.87942 L-8.103902,17.798851 L-8.157284,17.718912 L-8.210515,17.639648 L-8.26363,17.561108 L-8.316659,17.483332 L-8.369636,17.406364 L-8.422593,17.330248 L-8.475562,17.255016 L-8.528578,17.180708 L-8.581671,17.107359 L-8.634873,17.035 L-8.688217,16.963661 L-8.741735,16.893373 L-8.795458,16.82416 L-8.849417,16.756046 L-8.903642,16.689056 L-8.958162,16.623209 L-9.013008,16.558521 L-9.068209,16.49501 L-9.123792,16.43269 L-9.179784,16.37157 L-9.236213,16.311663 L-9.293103,16.252974 L-9.350481,16.195509 L-9.40837,16.13927 L-9.466793,16.08426 L-9.525772,16.03048 L-9.585329,15.977923 L-9.645484,15.926587 L-9.706255,15.876464 L-9.76766,15.827544 L-9.829717,15.7798195 L-9.89244,15.733275 L-9.955843,15.687899 L-10.019941,15.643672 L-10.084744,15.600579 L-10.150264,15.5585985 L-10.216508,15.517711 L-10.283486,15.477891 L-10.351204,15.4391165 L-10.419666,15.4013605 L-10.488877,15.364595 L-10.558839,15.328793 L-10.629553,15.293922 L-10.701018,15.259953 L-10.773233,15.2268505 L-10.846195,15.194584 L-10.9199,15.1631155 L-10.99434,15.132411 L-11.069509,15.102432 L-11.145398,15.073142 L-11.221997,15.044501 L-11.299294,15.016471 L-11.377278,14.989011 L-11.455934,14.96208 L-11.535246,14.9356365 L-11.615197,14.909638 L-11.695771,14.884044 L-11.776947,14.858809 L-11.8587055,14.833893 L-11.941026,14.80925 L-12.023883,14.784838 L-12.107256,14.760612 L-12.191117,14.736529 L-12.275443,14.712547 L-12.360207,14.688621 L-12.445378,14.664706 L-12.5309305,14.640761 L-12.616834,14.616743 L-12.703057,14.592608 L-12.78957,14.5683155 L-12.87634,14.543822 L-12.963334,14.519088 L-13.05052,14.494071 L-13.137863,14.468732 L-13.225328,14.443031 L-13.312881,14.416931 L-13.400488,14.390392 L-13.488111,14.3633795 L-13.575714,14.335855 L-13.663262,14.307783 L-13.750717,14.27913 L-13.838044,14.249864 L-13.925204,14.21995 L-14.012161,14.189359 L-14.098879,14.15806 L-14.185319,14.126023 L-14.271445,14.093223 L-14.357222,14.05963 L-14.442612,14.025221 L-14.527577,13.989971 L-14.612085,13.953856 L-14.696098,13.916857 L-14.779581,13.878951 L-14.8625,13.840119 L-14.944821,13.800346 L-15.02651,13.759613 L-15.107534,13.717907 L-15.187862,13.675212 L-15.267461,13.631517 L-15.3463,13.586812 L-15.42435,13.541086 L-15.501582,13.494331 L-15.577967,13.446541 L-15.653478,13.397708 L-15.728088,13.347831 L-15.801773,13.296905 L-15.874508,13.244928 L-15.946269,13.191901 L-16.017035,13.137825 L-16.086784,13.082702 L-16.155497,13.026535 L-16.223154,12.969328 L-16.28974,12.911089 L-16.355236,12.851823 L-16.419628,12.791538 L-16.4829,12.730246 L-16.545044,12.667954 L-16.606047,12.604675 L-16.665897,12.540422 L-16.724588,12.475207 L-16.78211,12.409045 L-16.83846,12.341951 L-16.893633,12.273942 L-16.947622,12.205034 L-17.000431,12.135244 L-17.052053,12.064592 L-17.102493,11.993097 L-17.151752,11.920778 L-17.199833,11.847657 L-17.246742,11.773753 L-17.292482,11.699089 L-17.33706,11.623687 L-17.38049,11.547569 L-17.422773,11.470758 L-17.463926,11.393279 L-17.50396,11.315154 L-17.542887,11.236408 L-17.58072,11.157065 L-17.617477,11.077149 L-17.653175,10.996685 L-17.687828,10.915697 L-17.721457,10.834211 L-17.754078,10.752252 L-17.785715,10.669844 L-17.81639,10.587011 L-17.84612,10.503779 L-17.874933,10.420173 L-17.902851,10.336216 L-17.929897,10.251932 L-17.956099,10.167347 L-17.981478,10.082483 L-18.006065,9.997364 L-18.029884,9.912013 L-18.052963,9.826452 L-18.075333,9.740704 L-18.097017,9.654791 L-18.118046,9.568733 L-18.13845,9.482553 L-18.158257,9.396269 L-18.177496,9.309902 L-18.196196,9.223472 L-18.214388,9.136996 L-18.232101,9.050494 L-18.249367,8.963982 L-18.26621,8.877477 L-18.282665,8.790995 L-18.298761,8.704551 L-18.314524,8.618161 L-18.329987,8.531838 L-18.345173,8.445597 L-18.360117,8.359448 L-18.374844,8.273406 L-18.38938,8.187479 L-18.403753,8.10168 L-18.417994,8.016017 L-18.432121,7.9304996 L-18.446167,7.845136 L-18.460154,7.759934 L-18.474106,7.6749 L-18.488045,7.59004 L-18.501997,7.5053596 L-18.515982,7.420863 L-18.530022,7.3365545 L-18.544136,7.252437 L-18.558346,7.1685133 L-18.572668,7.0847845 L-18.58712,7.0012527 L-18.60172,6.9179177 L-18.616484,6.83478 L-18.631426,6.7518387 L-18.646557,6.6690917 L-18.661894,6.5865383 L-18.677448,6.504175 L-18.693226,6.422 L-18.709242,6.3400087 L-18.725502,6.258198 L-18.742012,6.1765623 L-18.758781,6.0950975 L-18.775814,6.013798 L-18.793114,5.9326587 L-18.810682,5.8516726 L-18.828524,5.770834 L-18.846638,5.690135 L-18.865023,5.6095695 L-18.883678,5.52913 L-18.902603,5.4488087 L-18.921791,5.3685975 L-18.941238,5.288489 L-18.960941,5.2084746 L-18.98089,5.1285458 L-19.001078,5.0486946 L-19.021498,4.968912 L-19.042137,4.8891897 L-19.062986,4.8095193 L-19.084036,4.7298913 L-19.10527,4.650298 L-19.126677,4.57073 L-19.148243,4.49118 L-19.169952,4.4116383 L-19.19179,4.3320966 L-19.213737,4.2525473 L-19.23578,4.172982 L-19.2579,4.093393 L-19.280075,4.0137725 L-19.30229,3.9341125 L-19.324524,3.8544066 L-19.346758,3.7746475 L-19.368969,3.6948283 L-19.391136,3.6149426 L-19.413239,3.534984 L-19.435257,3.4549475 L-19.457165,3.3748264 L-19.478943,3.2946165 L-19.500566,3.2143123 L-19.522015,3.13391 L-19.543264,3.0534046 L-19.564291,2.972793 L-19.585073,2.892072 L-19.605587,2.811238 L-19.625809,2.730289 L-19.645718,2.6492224 L-19.665289,2.5680368 L-19.684502,2.4867308 L-19.703331,2.4053032 L-19.721758,2.3237536 L-19.739758,2.2420816 L-19.757313,2.160288 L-19.774397,2.078373 L-19.790995,1.9963377 L-19.807081,1.9141834 L-19.822641,1.831912 L-19.837652,1.7495259 L-19.852098,1.6670272 L-19.86596,1.584419 L-19.87922,1.5017046 L-19.891861,1.4188873 L-19.903868,1.335971 L-19.915228,1.2529598 L-19.925922,1.1698585 L-19.935942,1.0866715 L-19.94527,1.0034039 L-19.953897,0.9200608 L-19.961813,0.83664787 L-19.969006,0.7531706 L-19.975466,0.66963494 L-19.981186,0.58604693 L-19.986158,0.50241274 L-19.990376,0.4187387 L-19.993834,0.33503127 L-19.996529,0.25129703 L-19.998457,0.16754259 L-19.999615,0.08377468 L-20,0.000000000000011331077 L-19.999615,-0.08377468 L-19.998457,-0.16754259 L-19.996529,-0.25129703 L-19.993834,-0.33503127 L-19.990376,-0.4187387 L-19.986158,-0.50241274 L-19.981186,-0.58604693 L-19.975466,-0.66963494 L-19.969006,-0.7531706 L-19.961813,-0.83664787 L-19.953897,-0.9200608 L-19.94527,-1.0034039 L-19.935942,-1.0866715 L-19.925922,-1.1698585 L-19.915228,-1.2529598 L-19.903868,-1.335971 L-19.891861,-1.4188873 L-19.87922,-1.5017046 L-19.86596,-1.584419 L-19.852098,-1.6670272 L-19.837652,-1.7495259 L-19.822641,-1.831912 L-19.807081,-1.9141834 L-19.790995,-1.9963377 L-19.774397,-2.078373 L-19.757313,-2.160288 L-19.739758,-2.2420816 L-19.721758,-2.3237536 L-19.703331,-2.4053032 L-19.684502,-2.4867308 L-19.665289,-2.5680368 L-19.645718,-2.6492224 L-19.625809,-2.730289 L-19.605587,-2.811238 L-19.585073,-2.892072 L-19.564291,-2.972793 L-19.543264,-3.0534046 L-19.522015,-3.13391 L-19.500566,-3.2143123 L-19.478943,-3.2946165 L-19.457165,-3.3748264 L-19.435257,-3.4549475 L-19.413239,-3.534984 L-19.391136,-3.6149426 L-19.368969,-3.6948283 L-19.346758,-3.7746475 L-19.324524,-3.8544066 L-19.30229,-3.9341125 L-19.280075,-4.0137725 L-19.2579,-4.093393 L-19.23578,-4.172982 L-19.213737,-4.2525473 L-19.19179,-4.3320966 L-19.169952,-4.4116383 L-19.148243,-4.49118 L-19.126677,-4.57073 L-19.10527,-4.650298 L-19.084036,-4.7298913 L-19.062986,-4.8095193 L-19.042137,-4.8891897 L-19.021498,-4.968912 L-19.001078,-5.0486946 L-18.98089,-5.1285458 L-18.960941,-5.2084746 L-18.941238,-5.288489 L-18.921791,-5.3685975 L-18.902603,-5.4488087 L-18.883678,-5.52913 L-18.865023,-5.6095695 L-18.846638,-5.690135 L-18.828524,-5.770834 L-18.810682,-5.8516726 L-18.793114,-5.9326587 L-18.775814,-6.013798 L-18.758781,-6.0950975 L-18.742012,-6.1765623 L-18.725502,-6.258198 L-18.709242,-6.3400087 L-18.693226,-6.422 L-18.677448,-6.504175 L-18.661894,-6.5865383 L-18.646557,-6.6690917 L-18.631426,-6.7518387 L-18.616484,-6.83478 L-18.60172,-6.9179177 L-18.58712,-7.0012527 L-18.572668,-7.0847845 L-18.558346,-7.1685133 L-18.544136,-7.252437 L-18.530022,-7.3365545 L-18.515982,-7.420863 L-18.501997,-7.5053596 L-18.488045,-7.59004 L-18.474106,-7.6749 L-18.460154,-7.759934 L-18.446167,-7.845136 L-18.432121,-7.9304996 L-18.417994,-8.016017 L-18.403753,-8.10168 L-18.38938,-8.187479 L-18.374844,-8.273406 L-18.360117,-8.359448 L-18.345173,-8.445597 L-18.329987,-8.531838 L-18.314524,-8.618161 L-18.298761,-8.704551 L-18.282665,-8.790995 L-18.26621,-8.877477 L-18.249367,-8.963982 L-18.232101,-9.050494 L-18.214388,-9.136996 L-18.196196,-9.223472 L-18.177496,-9.309902 L-18.158257,-9.396269 L-18.13845,-9.482553 L-18.118046,-9.568733 L-18.097017,-9.654791 L-18.075333,-9.740704 L-18.052963,-9.826452 L-18.029884,-9.912013 L-18.006065,-9.997364 L-17.981478,-10.082483 L-17.956099,-10.167347 L-17.929897,-10.251932 L-17.902851,-10.336216 L-17.874933,-10.420173 L-17.84612,-10.503779 L-17.81639,-10.587011 L-17.785715,-10.669844 L-17.754078,-10.752252 L-17.721457,-10.834211 L-17.687828,-10.915697 L-17.653175,-10.996685 L-17.617477,-11.077149 L-17.58072,-11.157065 L-17.542887,-11.236408 L-17.50396,-11.315154 L-17.463926,-11.393279 L-17.422773,-11.470758 L-17.38049,-11.547569 L-17.33706,-11.623687 L-17.292482,-11.699089 L-17.246742,-11.773753 L-17.199833,-11.847657 L-17.151752,-11.920778 L-17.102493,-11.993097 L-17.052053,-12.064592 L-17.000431,-12.135244 L-16.947622,-12.205034 L-16.893633,-12.273942 L-16.83846,-12.341951 L-16.78211,-12.409045 L-16.724588,-12.475207 L-16.665897,-12.540422 L-16.606047,-12.604675 L-16.545044,-12.667954 L-16.4829,-12.730246 L-16.419628,-12.791538 L-16.355236,-12.851823 L-16.28974,-12.911089 L-16.223154,-12.969328 L-16.155497,-13.026535 L-16.086784,-13.082702 L-16.017035,-13.137825 L-15.946269,-13.191901 L-15.874508,-13.244928 L-15.801773,-13.296905 L-15.728088,-13.347831 L-15.653478,-13.397708 L-15.577967,-13.446541 L-15.501582,-13.494331 L-15.42435,-13.541086 L-15.3463,-13.586812 L-15.267461,-13.631517 L-15.187862,-13.675212 L-15.107534,-13.717907 L-15.02651,-13.759613 L-14.944821,-13.800346 L-14.8625,-13.840119 L-14.779581,-13.878951 L-14.696098,-13.916857 L-14.612085,-13.953856 L-14.527577,-13.989971 L-14.442612,-14.025221 L-14.357222,-14.05963 L-14.271445,-14.093223 L-14.185319,-14.126023 L-14.098879,-14.15806 L-14.012161,-14.189359 L-13.925204,-14.21995 L-13.838044,-14.249864 L-13.750717,-14.27913 L-13.663262,-14.307783 L-13.575714,-14.335855 L-13.488111,-14.3633795 L-13.400488,-14.390392 L-13.312881,-14.416931 L-13.225328,-14.443031 L-13.137863,-14.468732 L-13.05052,-14.494071 L-12.963334,-14.519088 L-12.87634,-14.543822 L-12.78957,-14.5683155 L-12.703057,-14.592608 L-12.616834,-14.616743 L-12.5309305,-14.640761 L-12.445378,-14.664706 L-12.360207,-14.688621 L-12.275443,-14.712547 L-12.191117,-14.736529 L-12.107256,-14.760612 L-12.023883,-14.784838 L-11.941026,-14.80925 L-11.8587055,-14.833893 L-11.776947,-14.858809 L-11.695771,-14.884044 L-11.615197,-14.909638 L-11.535246,-14.9356365 L-11.455934,-14.96208 L-11.377278,-14.989011 L-11.299294,-15.016471 L-11.221997,-15.044501 L-11.145398,-15.073142 L-11.069509,-15.102432 L-10.99434,-15.132411 L-10.9199,-15.1631155 L-10.846195,-15.194584 L-10.773233,-15.2268505 L-10.701018,-15.259953 L-10.629553,-15.293922 L-10.558839,-15.328793 L-10.488877,-15.364595 L-10.419666,-15.4013605 L-10.351204,-15.4391165 L-10.283486,-15.477891 L-10.216508,-15.517711 L-10.150264,-15.5585985 L-10.084744,-15.600579 L-10.019941,-15.643672 L-9.955843,-15.687899 L-9.89244,-15.733275 L-9.829717,-15.7798195 L-9.76766,-15.827544 L-9.706255,-15.876464 L-9.645484,-15.926587 L-9.585329,-15.977923 L-9.525772,-16.03048 L-9.466793,-16.08426 L-9.40837,-16.13927 L-9.350481,-16.195509 L-9.293103,-16.252974 L-9.236213,-16.311663 L-9.179784,-16.37157 L-9.123792,-16.43269 L-9.068209,-16.49501 L-9.013008,-16.558521 L-8.958162,-16.623209 L-8.903642,-16.689056 L-8.849417,-16.756046 L-8.795458,-16.82416 L-8.741735,-16.893373 L-8.688217,-16.963661 L-8.634873,-17.035 L-8.581671,-17.107359 L-8.528578,-17.180708 L-8.475562,-17.255016 L-8.422593,-17.330248 L-8.369636,-17.406364 L-8.316659,-17.483332 L-8.26363,-17.561108 L-8.210515,-17.639648 L-8.157284,-17.718912 L-8.103902,-17.798851 L-8.050338,-17.87942 L-7.99656,-17.960567 L-7.942537,-18.042246 L-7.888237,-18.1244 L-7.8336296,-18.206976 L-7.778684,-18.289919 L-7.7233715,-18.373175 L-7.6676617,-18.456682 L-7.611526,-18.540382 L-7.5549374,-18.624214 L-7.497868,-18.708118 L-7.440292,-18.792032 L-7.3821826,-18.875889 L-7.323516,-18.959627 L-7.264268,-19.04318 L-7.2044153,-19.126482 L-7.143936,-19.209467 L-7.0828104,-19.292065 L-7.0210166,-19.374212 L-6.958537,-19.455837 L-6.895354,-19.536875 L-6.8314505,-19.617252 L-6.766811,-19.696905 L-6.7014213,-19.775763 L-6.635268,-19.853756 L-6.568341,-19.930817 L-6.500628,-20.006876 L-6.432121,-20.081867 L-6.362811,-20.155724 L-6.292692,-20.228374 L-6.2217584,-20.299757 L-6.150007,-20.369804 L-6.077434,-20.438454 L-6.004039,-20.505638 L-5.929821,-20.571295 L-5.854782,-20.635365 L-5.778925,-20.697784 L-5.702254,-20.758495 L-5.624773,-20.81744 L-5.5464897,-20.874563 L-5.4674125,-20.929806 L-5.3875494,-20.983118 L-5.306911,-21.034449 L-5.22551,-21.083744 L-5.143358,-21.130957 L-5.06047,-21.176043 L-4.9768615,-21.218956 L-4.8925476,-21.259655 L-4.8075466,-21.2981 L-4.7218776,-21.334253 L-4.635559,-21.368076 L-4.5486126,-21.39954 L-4.4610596,-21.428612 L-4.372922,-21.455261 L-4.284224,-21.479464 L-4.194989,-21.501198 L-4.105243,-21.52044 L-4.015012,-21.53717 L-3.924321,-21.551378 L-3.8331983,-21.563047 L-3.7416718,-21.572168 L-3.6497693,-21.578732 L-3.5575202,-21.582737 L-3.4649534,-21.584179 L-3.3720987,-21.58306 L-3.2789862,-21.579382 L-3.1856463,-21.573154 L-3.0921094,-21.564384 L-2.9984064,-21.553085 L-2.9045682,-21.539272 L-2.8106256,-21.522963 L-2.7166095,-21.504177 L-2.6225507,-21.48294 L-2.5284803,-21.45928 L-2.4344287,-21.433222 L-2.3404262,-21.4048 L-2.246503,-21.374048 L-2.1526887,-21.341005 L-2.059013,-21.30571 L-1.9655042,-21.268206 L-1.8721911,-21.228539 L-1.7791014,-21.186754 L-1.6862624,-21.142902 L-1.5937005,-21.09704 L-1.5014416,-21.049217 L-1.4095107,-20.999495 L-1.3179321,-20.947931 L-1.2267293,-20.894588 L-1.1359243,-20.839529 L-1.0455391,-20.78282 L-0.9555941,-20.72453 L-0.86610866,-20.664726 L-0.77710116,-20.603481 L-0.6885889,-20.54087 L-0.6005881,-20.476965 L-0.5131136,-20.411844 L-0.4261792,-20.345583 L-0.33979735,-20.278263 L-0.25397924,-20.20996 L-0.1687348,-20.140762 L-0.08407264,-20.070747 L-0.00000000000000367394,-20 L0.08347723,-19.928604 L0.16635452,-19.856644 L0.24862874,-19.784204 L0.33029816,-19.711374 L0.4113624,-19.638237 L0.49182263,-19.56488 L0.57168126,-19.49139 L0.65094227,-19.417854 L0.72961086,-19.34436 L0.8076939,-19.270992 L0.8851994,-19.197838 L0.962137,-19.124983 L1.0385175,-19.052513 L1.1143531,-18.98051 L1.1896574,-18.909063 L1.2644455,-18.838251 L1.3387336,-18.768158 L1.4125389,-18.698864 L1.4858804,-18.63045 L1.558778,-18.562992 L1.6312529,-18.49657 L1.7033273,-18.43126 L1.7750248,-18.367132 L1.8463695,-18.304264 L1.9173872,-18.242722 L1.9881045,-18.182575 L2.0585485,-18.123894 L2.1287477,-18.066738 L2.1987312,-18.011173 L2.2685292,-17.957256 L2.338172,-17.90505 L2.4076912,-17.854605 L2.477119,-17.805977 L2.5464876,-17.759216 L2.6158302,-17.714369 L2.6851804,-17.671478 L2.7545722,-17.630592 L2.8240395,-17.591745 L2.893617,-17.554974 L2.9633393,-17.520315 L3.0332413,-17.487795 L3.1033578,-17.457445 L3.1737235,-17.429287 L3.2443733,-17.403341 L3.3153417,-17.37963 L3.3866632,-17.358164 L3.4583719,-17.338957 L3.5305014,-17.322016 L3.603085,-17.307348 L3.676156,-17.294954 L3.7497463,-17.284834 L3.8238876,-17.27698 L3.8986108,-17.271387 L3.973946,-17.268044 L4.049923,-17.266935 L4.12657,-17.268044 L4.2039146,-17.271349 L4.281983,-17.276827 L4.3608007,-17.284449 L4.4403925,-17.294188 L4.520781,-17.306005 L4.601988,-17.31987 L4.6840343,-17.335741 L4.7669387,-17.353573 L4.8507195,-17.373323 L4.9353924,-17.394945 L5.020972,-17.418383 L5.107472,-17.443586 L5.194904,-17.470499 L5.2832775,-17.49906 L5.3726015,-17.52921 L5.4628816,-17.56088 L5.5541234,-17.594011 L5.6463294,-17.62853 L5.739501,-17.664368 L5.8336377,-17.70145 L5.9287367,-17.739702 L6.0247936,-17.779047 L6.1218023,-17.819408 L6.219755,-17.860704 L6.318641,-17.902851 L6.418449,-17.945768 L6.519164,-17.98937 L6.6207714,-18.03357 L6.7232523,-18.078281 L6.8265877,-18.123415 L6.930756,-18.168882 L7.0357327,-18.214594 L7.141494,-18.26046 L7.248011,-18.306385 L7.3552556,-18.352282 L7.4631963,-18.398056 L7.5718007,-18.443617 L7.681034,-18.48887 L7.79086,-18.533724 L7.901242,-18.578087 L8.012138,-18.621866 L8.123508,-18.664972 L8.235311,-18.70731 L8.3475,-18.748793 L8.460031,-18.789328 L8.572856,-18.828829 L8.685926,-18.867208 L8.799193,-18.904377 L8.912605,-18.94025 L9.02611,-18.974745 L9.139654,-19.007776 L9.253184,-19.039265 L9.366645,-19.06913 L9.479979,-19.097294 L9.59313,-19.12368 L9.706041,-19.148214 L9.818653,-19.170828 L9.930908,-19.191446 L10.042747,-19.210003 L10.154109,-19.226433 L10.264934,-19.240675 L10.375163,-19.252666 L10.484735,-19.262348 L10.59359,-19.269669 L10.701667,-19.27457 L10.808906,-19.277008 L10.915248,-19.276932 L11.020632,-19.274298 L11.125,-19.269066 L11.228292,-19.261196 L11.330452,-19.250654 L11.431421,-19.237408 L11.531142,-19.221426 L11.62956,-19.202688 L11.726622,-19.181166 L11.82227,-19.156841 L11.916456,-19.1297 L12.009126,-19.099728 L12.100231,-19.066912 L12.189721,-19.03125 L12.277552,-18.992739 L12.363674,-18.951374 L12.448048,-18.907164 L12.530628,-18.860111 L12.611376,-18.810226 L12.690251,-18.757524 L12.7672205,-18.702019 L12.842247,-18.64373 L12.915299,-18.58268 L12.986347,-18.518896 L13.055363,-18.452404 L13.122319,-18.383236 L13.187195,-18.311428 L13.249969,-18.237017 L13.310621,-18.160042 L13.369137,-18.080547 L13.425503,-17.998579 L13.479708,-17.914185 L13.531744,-17.827414 L13.581605,-17.738323 L13.629289,-17.646967 L13.674795,-17.553404 L13.718126,-17.457695 L13.759288,-17.359901 L13.798288,-17.26009 L13.835138,-17.158327 L13.869851,-17.054682 L13.902444,-16.949223 L13.932935,-16.842026 L13.961348,-16.733162 L13.987705,-16.622707 L14.012037,-16.51074 L14.034372,-16.397337 L14.054745,-16.282578 L14.07319,-16.166544 L14.0897455,-16.049316 L14.104453,-15.930976 L14.117357,-15.811606 L14.128504,-15.691293 L14.13794,-15.570118 L14.14572,-15.448167 L14.151895,-15.325524 L14.156521,-15.202274 L14.1596575,-15.078504 L14.161365,-14.954297 L14.161705,-14.829738 L14.160743,-14.704912 L14.1585455,-14.579904 L14.155182,-14.454796 L14.150722,-14.329672 L14.145238,-14.204615 L14.138804,-14.079704 L14.131497,-13.955022 L14.123393,-13.830647 L14.11457,-13.706659 L14.105107,-13.583135 L14.095087,-13.460148 L14.084592,-13.337774 L14.073703,-13.216086 L14.062506,-13.095156 L14.0510845,-12.975052 L14.039524,-12.855842 L14.027912,-12.73759 L14.016333,-12.620362 L14.004873,-12.50422 L13.993622,-12.389221 L13.982664,-12.275425 L13.972087,-12.162886 L13.961978,-12.051656 L13.952422,-11.941786 L13.943507,-11.833324 L13.935318,-11.726316 L13.927939,-11.620804 L13.921454,-11.516829 L13.915949,-11.414428 L13.911503,-11.313637 L13.908197,-11.214487 L13.906114,-11.117009 L13.90533,-11.021229 L13.905923,-10.927171 L13.907968,-10.834857 L13.911539,-10.744304 L13.916707,-10.655529 L13.923544,-10.568545 L13.932117,-10.483361 L13.942492,-10.399986 L13.954732,-10.318422 L13.968899,-10.238672 L13.985052,-10.160735 L14.003246,-10.084606 L14.023538,-10.01028 L14.045975,-9.937745 L14.070607,-9.866992 L14.097481,-9.798004 L14.126637,-9.730765 L14.158116,-9.665256 L14.191954,-9.601452 L14.228183,-9.53933 L14.266834,-9.478862 L14.307934,-9.420019 L14.351506,-9.362769 L14.39757,-9.307078 L14.446141,-9.25291 L14.497235,-9.200225 L14.550859,-9.148984 L14.60702,-9.099145 L14.665721,-9.050663 L14.72696,-9.003493 L14.790732,-8.957586 L14.85703,-8.912893 L14.92584,-8.869364 L14.997148,-8.826945 L15.070934,-8.785584 L15.147175,-8.745226 L15.225844,-8.705813 L15.306913,-8.66729 L15.390347,-8.629597 L15.476107,-8.592675 L15.564155,-8.556466 L15.654445,-8.520908 L15.746929,-8.48594 L15.841558,-8.451499 L15.938276,-8.417525 L16.037025,-8.383954 L16.137747,-8.350725 L16.240374,-8.317774 L16.34484,-8.285037 L16.451075,-8.252454 L16.559006,-8.219961 L16.668556,-8.187497 L16.779648,-8.154999 L16.892199,-8.122405 L17.006124,-8.089656 L17.12134,-8.056691 L17.237755,-8.023451 L17.355276,-7.9898763 L17.473814,-7.955911 L17.593271,-7.921498 L17.71355,-7.886581 L17.83455,-7.851106 L17.956175,-7.815021 L18.078316,-7.778273 L18.200872,-7.7408123 L18.323736,-7.70259 L18.446804,-7.6635585 L18.569967,-7.623672 L18.693115,-7.582887 L18.816141,-7.5411615 L18.938932,-7.498454 L19.06138,-7.4547267 L19.183374,-7.409942 L19.3048,-7.364066 L19.425549,-7.3170652 L19.545507,-7.2689095 L19.664568,-7.219569 L19.782616,-7.1690183 L19.899544,-7.1172323 L20.01524,-7.0641885 L20.129595,-7.0098667 L20.242504,-6.9542494 L20.353857,-6.8973203 L20.463549,-6.8390656 L20.571476,-6.7794747 L20.677534,-6.7185383 L20.781622,-6.656249 L20.883642,-6.5926023 L20.983494,-6.527596 L21.081081,-6.46123 L21.176313,-6.393506 L21.269096,-6.324428 L21.359343,-6.254003 L21.446962,-6.1822386 L21.531876,-6.1091456 L21.613998,-6.034737 L21.693254,-5.9590273 L21.769567,-5.882033 L21.842863,-5.8037724 L21.913073,-5.724267 L21.980131,-5.6435385 L22.043976,-5.5616117 L22.104548,-5.478512 L22.161789,-5.394267 L22.215649,-5.3089066 L22.266079,-5.2224617 L22.313034,-5.1349645 L22.35647,-5.046449 L22.396355,-4.956951 L22.432652,-4.8665066 L22.465332,-4.7751536 L22.494371,-4.682932 L22.519747,-4.589881 L22.541441,-4.4960423 L22.559443,-4.401458 L22.57374,-4.306171 L22.58433,-4.2102256 L22.59121,-4.1136656 L22.594385,-4.016536 L22.593864,-3.918884 L22.589655,-3.8207543 L22.581778,-3.7221937 L22.570248,-3.623249 L22.555092,-3.5239675 L22.536339,-3.4243958 L22.51402,-3.3245814 L22.488173,-3.224571 L22.458834,-3.1244116 L22.42605,-3.0241501 L22.389872,-2.9238327 L22.350346,-2.8235052 L22.307531,-2.7232134 L22.261486,-2.6230018 L22.212275,-2.5229151 L22.159964,-2.4229968 L22.10462,-2.3232892 L22.046322,-2.2238348 L21.985142,-2.124674 L21.921162,-2.0258472 L21.854465,-1.927393 L21.785137,-1.829349 L21.713266,-1.7317519 L21.638945,-1.6346368 L21.562265,-1.5380373 L21.48333,-1.4419862 L21.402231,-1.3465143 L21.319077,-1.251651 L21.233967,-1.1574244 L21.147007,-1.0638607 L21.058306,-0.97098434 L20.967976,-0.8788185 L20.876123,-0.78738433 L20.782864,-0.6967012 L20.688309,-0.60678685 L20.592577,-0.5176569 L20.495783,-0.42932546 L20.398043,-0.34180447 L20.299477,-0.25510418 L20.200201,-0.16923277 L20.100336,-0.08419658 L20,-0.000000000000022662155" fill="none" stroke="black" stroke-width="0.1"/>
<path d="M20.03214,-0.038301278 L20.132614,0.0460114 L20.232763,0.13129018 L20.332344,0.21742438 L20.431232,0.30440822 L20.529312,0.3922341 L20.626465,0.4808926 L20.722572,0.57037246 L20.81752,0.6606606 L20.91119,0.75174224 L21.003468,0.8436008 L21.094242,0.93621796 L21.1834,1.0295738 L21.270832,1.1236466 L21.35643,1.2184132 L21.440086,1.3138489 L21.521698,1.4099271 L21.601164,1.5066203 L21.678381,1.603899 L21.753252,1.7017328 L21.825682,1.8000895 L21.895576,1.898936 L21.962849,1.9982378 L22.027407,2.0979593 L22.089169,2.1980634 L22.14805,2.2985122 L22.203974,2.3992667 L22.25686,2.5002868 L22.306643,2.6015313 L22.353245,2.7029583 L22.396603,2.8045244 L22.436653,2.9061856 L22.473335,3.0078971 L22.506594,3.1096127 L22.536375,3.2112858 L22.56263,3.3128684 L22.585312,3.414312 L22.604382,3.5155666 L22.619802,3.6165822 L22.631538,3.7173073 L22.63956,3.8176906 L22.643848,3.917679 L22.64438,4.01722 L22.641144,4.11626 L22.634125,4.214746 L22.623322,4.3126245 L22.608734,4.4098434 L22.590366,4.5063496 L22.568232,4.602092 L22.542345,4.6970205 L22.512726,4.791086 L22.4794,4.8842416 L22.4424,4.976442 L22.401756,5.0676427 L22.357512,5.1578035 L22.309708,5.2468843 L22.258392,5.3348484 L22.203617,5.421662 L22.145435,5.507292 L22.083904,5.591708 L22.019087,5.674884 L21.951048,5.7567935 L21.879852,5.837414 L21.805573,5.9167247 L21.728283,5.9947066 L21.648056,6.071344 L21.564974,6.146622 L21.479116,6.2205296 L21.390566,6.2930555 L21.299408,6.3641925 L21.205732,6.4339347 L21.10963,6.5022783 L21.011194,6.569222 L20.910515,6.634766 L20.807693,6.6989136 L20.702827,6.7616687 L20.596014,6.8230386 L20.48736,6.8830323 L20.376963,6.9416604 L20.26493,6.9989367 L20.15137,7.0548763 L20.036386,7.1094966 L19.920086,7.162817 L19.802582,7.214859 L19.68398,7.265647 L19.564394,7.315206 L19.443932,7.3635635 L19.322704,7.4107504 L19.200825,7.4567976 L19.078403,7.5017395 L18.955553,7.545611 L18.832384,7.5884495 L18.709005,7.6302953 L18.58553,7.671189 L18.462065,7.7111726 L18.33872,7.750292 L18.215607,7.788592 L18.092827,7.8261213 L17.970488,7.8629284 L17.848696,7.899064 L17.727554,7.93458 L17.607162,7.9695296 L17.487621,8.003967 L17.36903,8.037948 L17.251486,8.071528 L17.13508,8.104766 L17.019909,8.137718 L16.90606,8.170445 L16.793621,8.203006 L16.682678,8.235461 L16.573315,8.26787 L16.465612,8.300294 L16.359646,8.332795 L16.255491,8.365433 L16.153221,8.39827 L16.052906,8.431366 L15.954609,8.464783 L15.858394,8.49858 L15.764321,8.532817 L15.672447,8.567554 L15.582824,8.60285 L15.4955015,8.638761 L15.410525,8.6753435 L15.327937,8.712655 L15.247774,8.750748 L15.170071,8.789676 L15.094856,8.82949 L15.022156,8.870242 L14.951989,8.911981 L14.884372,8.954755 L14.819316,8.9986105 L14.756825,9.043593 L14.696901,9.08975 L14.63954,9.137126 L14.58473,9.185764 L14.532459,9.235711 L14.482708,9.28701 L14.435454,9.339708 L14.390672,9.39385 L14.348331,9.449481 L14.308403,9.506648 L14.270852,9.565394 L14.235644,9.625765 L14.2027445,9.6878 L14.172115,9.751543 L14.143721,9.817028 L14.11752,9.884289 L14.093475,9.953356 L14.071545,10.024253 L14.051685,10.097003 L14.033853,10.171621 L14.017999,10.248119 L14.004074,10.326506 L13.992027,10.406783 L13.981804,10.488953 L13.973345,10.573008 L13.966591,10.658941 L13.961479,10.746742 L13.957944,10.836395 L13.955917,10.927882 L13.95533,11.021182 L13.956108,11.11627 L13.9581785,11.21312 L13.961465,11.311702 L13.965889,11.411984 L13.971371,11.51393 L13.97783,11.617504 L13.985185,11.722664 L13.993351,11.829369 L14.002244,11.937572 L14.011781,12.047227 L14.021874,12.158283 L14.032439,12.27069 L14.043387,12.384391 L14.054634,12.4993305 L14.066091,12.615451 L14.077671,12.73269 L14.089288,12.850985 L14.100856,12.970272 L14.1122875,13.090485 L14.123497,13.211554 L14.1344,13.33341 L14.144914,13.455981 L14.154952,13.579195 L14.1644335,13.702975 L14.173277,13.827248 L14.181402,13.951934 L14.188729,14.076956 L14.195182,14.202233 L14.200683,14.327686 L14.205157,14.453234 L14.208533,14.578793 L14.210739,14.70428 L14.211704,14.829614 L14.211363,14.954708 L14.209648,15.079481 L14.206496,15.203846 L14.201846,15.327719 L14.195639,15.451015 L14.187816,15.57365 L14.178323,15.69554 L14.167108,15.8166 L14.1541195,15.936747 L14.139311,16.055895 L14.122636,16.173965 L14.104052,16.290873 L14.083518,16.406538 L14.060998,16.52088 L14.036455,16.63382 L14.009857,16.745277 L13.9811735,16.855179 L13.950378,16.963446 L13.917445,17.070004 L13.882354,17.17478 L13.845084,17.277702 L13.80562,17.3787 L13.7639475,17.477705 L13.720057,17.574652 L13.673938,17.669472 L13.625588,17.762102 L13.575005,17.852484 L13.522188,17.940556 L13.467143,18.026258 L13.409876,18.109537 L13.350396,18.19034 L13.288719,18.268614 L13.224859,18.344313 L13.158837,18.417389 L13.090675,18.4878 L13.020399,18.555508 L12.948037,18.620472 L12.873621,18.682661 L12.797186,18.742044 L12.718768,18.798595 L12.638408,18.85229 L12.556148,18.903109 L12.472031,18.951036 L12.386105,18.996061 L12.298417,19.038176 L12.209019,19.077377 L12.11796,19.113665 L12.025293,19.147041 L11.931074,19.177515 L11.835357,19.2051 L11.738196,19.229807 L11.63965,19.25166 L11.539775,19.270676 L11.438629,19.286884 L11.33627,19.300314 L11.2327585,19.310995 L11.128151,19.318966 L11.022509,19.324263 L10.915891,19.326927 L10.808356,19.327005 L10.6999655,19.324543 L10.590779,19.31959 L10.480857,19.312199 L10.370258,19.302425 L10.259044,19.290327 L10.147273,19.275965 L10.035005,19.2594 L9.922299,19.240698 L9.809216,19.219929 L9.69581,19.197157 L9.582144,19.172459 L9.468271,19.145903 L9.354251,19.117569 L9.240139,19.087532 L9.125989,19.055872 L9.011857,19.02267 L8.897796,18.988007 L8.783858,18.951967 L8.670096,18.914637 L8.55656,18.876099 L8.443297,18.836445 L8.330358,18.795761 L8.217787,18.754139 L8.105631,18.711666 L7.993934,18.668436 L7.8827386,18.624538 L7.772085,18.580065 L7.662013,18.53511 L7.552561,18.489767 L7.4437647,18.444126 L7.335659,18.398283 L7.2282767,18.352327 L7.121649,18.306353 L7.0158052,18.260452 L6.910774,18.214716 L6.8065805,18.169237 L6.703249,18.124105 L6.600802,18.079409 L6.4992595,18.035238 L6.398641,17.991678 L6.298963,17.948816 L6.2002406,17.906738 L6.1024876,17.865526 L6.005714,17.825264 L5.9099307,17.78603 L5.815145,17.747904 L5.721363,17.710962 L5.628589,17.675278 L5.5368257,17.640924 L5.4460726,17.607971 L5.35633,17.576487 L5.2675943,17.546537 L5.179861,17.518183 L5.093124,17.491484 L5.0073743,17.4665 L4.9226027,17.443281 L4.8387976,17.421883 L4.7559447,17.40235 L4.674029,17.38473 L4.5930324,17.369062 L4.5129366,17.355387 L4.4337196,17.34374 L4.3553576,17.334152 L4.2778263,17.326653 L4.201097,17.32127 L4.125141,17.318024 L4.0499263,17.316935 L3.9754195,17.318022 L3.9015856,17.321299 L3.8283873,17.326777 L3.7557867,17.334467 L3.683744,17.344376 L3.612219,17.356506 L3.5411706,17.370865 L3.4705575,17.38745 L3.400338,17.406258 L3.330471,17.427286 L3.2609155,17.450525 L3.1916313,17.47597 L3.1225789,17.503603 L3.0537193,17.53341 L2.9850147,17.565372 L2.9164286,17.599468 L2.8479242,17.635672 L2.779467,17.673954 L2.7110229,17.714283 L2.6425579,17.756624 L2.5740397,17.80094 L2.5054364,17.847185 L2.4367168,17.895317 L2.3678508,17.945288 L2.298808,17.997046 L2.2295601,18.050537 L2.160078,18.105705 L2.0903347,18.162489 L2.020303,18.220829 L1.9499567,18.280659 L1.8792706,18.341913 L1.8082199,18.404524 L1.7367811,18.46842 L1.6649314,18.533527 L1.5926491,18.599771 L1.5199131,18.66708 L1.4467038,18.73537 L1.3730023,18.804567 L1.2987909,18.87459 L1.2240531,18.945353 L1.1487737,19.016777 L1.0729382,19.08878 L0.9965339,19.161272 L0.91954887,19.23417 L0.8419729,19.307392 L0.7637966,19.380848 L0.6850124,19.45445 L0.6056135,19.528114 L0.5255949,19.601751 L0.44495264,19.675274 L0.36368427,19.748594 L0.28178856,19.821627 L0.19926578,19.894285 L0.116117395,19.96648 L0.032346323,20.038128 L-0.052043248,20.109142 L-0.13704579,20.179438 L-0.22265446,20.248934 L-0.30886114,20.317543 L-0.3956564,20.385185 L-0.4830296,20.45178 L-0.5709688,20.517248 L-0.65946096,20.581509 L-0.74849176,20.644487 L-0.83804566,20.706108 L-0.9281061,20.766296 L-1.0186555,20.824978 L-1.1096749,20.882084 L-1.2011447,20.937546 L-1.2930439,20.991297 L-1.3853506,21.04327 L-1.4780422,21.093405 L-1.5710952,21.141638 L-1.6644849,21.187912 L-1.7581859,21.232168 L-1.8521719,21.274355 L-1.9464163,21.314419 L-2.040891,21.35231 L-2.135568,21.387983 L-2.2304177,21.42139 L-2.325411,21.452492 L-2.4205174,21.481247 L-2.515706,21.50762 L-2.6109457,21.531576 L-2.7062044,21.553083 L-2.8014503,21.572113 L-2.8966503,21.58864 L-2.9917722,21.602642 L-3.0867822,21.6141 L-3.1816478,21.622993 L-3.276335,21.629313 L-3.3708107,21.633043 L-3.4650414,21.634178 L-3.5589938,21.632715 L-3.652635,21.62865 L-3.7459323,21.621986 L-3.8388534,21.612726 L-3.9313662,21.60088 L-4.02344,21.586456 L-4.115043,21.56947 L-4.206147,21.549936 L-4.296722,21.527878 L-4.38674,21.503313 L-4.4761744,21.476273 L-4.564999,21.44678 L-4.6531887,21.414865 L-4.7407203,21.380566 L-4.827571,21.343916 L-4.9137197,21.304953 L-4.9991465,21.263716 L-5.083833,21.22025 L-5.1677628,21.174597 L-5.250919,21.126806 L-5.3332872,21.076925 L-5.4148555,21.025003 L-5.495611,20.971096 L-5.575545,20.915255 L-5.6546474,20.857534 L-5.7329116,20.797993 L-5.8103313,20.73669 L-5.886902,20.673683 L-5.9626203,20.609034 L-6.0374846,20.542803 L-6.111495,20.475058 L-6.1846514,20.405857 L-6.256957,20.33527 L-6.328415,20.26336 L-6.39903,20.190193 L-6.468809,20.115837 L-6.537759,20.040361 L-6.6058893,19.963833 L-6.6732097,19.88632 L-6.739732,19.807892 L-6.8054676,19.728617 L-6.870432,19.648565 L-6.934639,19.567804 L-6.998105,19.486404 L-7.0608478,19.404436 L-7.1228848,19.321966 L-7.184236,19.239061 L-7.244922,19.155794 L-7.304964,19.07223 L-7.364384,18.988434 L-7.4232063,18.904472 L-7.4814544,18.820415 L-7.5391536,18.736324 L-7.59633,18.652262 L-7.65301,18.568295 L-7.7092214,18.48448 L-7.7649913,18.400883 L-7.820349,18.31756 L-7.8753242,18.234571 L-7.929946,18.151974 L-7.984245,18.069822 L-8.038251,17.98817 L-8.091996,17.90707 L-8.145512,17.826576 L-8.198828,17.746733 L-8.251979,17.667591 L-8.304995,17.589195 L-8.357908,17.511591 L-8.410751,17.434816 L-8.463556,17.358917 L-8.5163555,17.283928 L-8.5691805,17.209887 L-8.622064,17.136827 L-8.675036,17.064781 L-8.728129,16.993778 L-8.781375,16.923847 L-8.834804,16.855013 L-8.888445,16.7873 L-8.94233,16.72073 L-8.996488,16.655321 L-9.050946,16.59109 L-9.105736,16.528051 L-9.160884,16.466217 L-9.216416,16.4056 L-9.272362,16.346205 L-9.328746,16.288038 L-9.385593,16.231106 L-9.442929,16.175404 L-9.500777,16.120937 L-9.55916,16.0677 L-9.618101,16.015686 L-9.677621,15.9648905 L-9.7377405,15.915305 L-9.798479,15.866917 L-9.859856,15.819715 L-9.921888,15.773684 L-9.9845915,15.728807 L-10.047983,15.685068 L-10.112076,15.642447 L-10.176883,15.600924 L-10.242415,15.560475 L-10.308685,15.521077 L-10.3757,15.482704 L-10.443468,15.445332 L-10.511994,15.40893 L-10.581285,15.373471 L-10.651342,15.338924 L-10.722169,15.305259 L-10.793763,15.272442 L-10.866124,15.24044 L-10.939249,15.20922 L-11.013134,15.178744 L-11.087772,15.148977 L-11.163156,15.119883 L-11.239275,15.091421 L-11.316121,15.063555 L-11.393681,15.036244 L-11.47194,15.009449 L-11.550884,14.983128 L-11.630497,14.95724 L-11.710761,14.931744 L-11.7916565,14.906597 L-11.873163,14.881757 L-11.95526,14.857181 L-12.037925,14.832826 L-12.121132,14.808648 L-12.204857,14.784605 L-12.289074,14.7606535 L-12.373755,14.73675 L-12.458875,14.71285 L-12.5444,14.688912 L-12.630304,14.664894 L-12.716555,14.640752 L-12.803121,14.616444 L-12.889969,14.5919285 L-12.977067,14.567164 L-13.064381,14.542111 L-13.151876,14.516728 L-13.239518,14.490975 L-13.327272,14.464816 L-13.415101,14.43821 L-13.50297,14.41112 L-13.590841,14.383511 L-13.6786785,14.355347 L-13.766445,14.326592 L-13.854103,14.2972145 L-13.941616,14.2671795 L-14.028945,14.236458 L-14.116054,14.205017 L-14.202905,14.172829 L-14.28946,14.139865 L-14.375683,14.106097 L-14.461535,14.071502 L-14.546982,14.036052 L-14.631986,13.999725 L-14.716511,13.9625 L-14.80052,13.9243555 L-14.883979,13.885271 L-14.966853,13.84523 L-15.0491085,13.804215 L-15.130711,13.762212 L-15.211626,13.719204 L-15.291822,13.675181 L-15.371269,13.630131 L-15.449935,13.584044 L-15.52779,13.536912 L-15.604803,13.488728 L-15.680948,13.439486 L-15.756197,13.389181 L-15.8305235,13.337812 L-15.903901,13.285376 L-15.976307,13.2318735 L-16.047716,13.177305 L-16.118109,13.121674 L-16.187462,13.064982 L-16.255756,13.007237 L-16.322973,12.948444 L-16.389097,12.888612 L-16.45411,12.827746 L-16.517996,12.76586 L-16.580744,12.702963 L-16.64234,12.639068 L-16.702774,12.574186 L-16.762037,12.508335 L-16.820122,12.441528 L-16.87702,12.373781 L-16.932728,12.305112 L-16.98724,12.2355385 L-17.040554,12.16508 L-17.092669,12.093755 L-17.143585,12.0215845 L-17.193306,11.948588 L-17.24183,11.87479 L-17.289167,11.800211 L-17.335321,11.724873 L-17.380297,11.6488 L-17.424105,11.572015 L-17.466755,11.494543 L-17.508255,11.416409 L-17.548622,11.337635 L-17.587866,11.258247 L-17.626001,11.178272 L-17.663044,11.097734 L-17.699013,11.016658 L-17.733923,10.935069 L-17.767794,10.852994 L-17.800646,10.770458 L-17.8325,10.687486 L-17.863377,10.604103 L-17.893301,10.520335 L-17.922293,10.436207 L-17.950378,10.351743 L-17.977583,10.266969 L-18.003931,10.181908 L-18.02945,10.096584 L-18.054163,10.011022 L-18.078102,9.925244 L-18.101292,9.839273 L-18.123762,9.753133 L-18.145542,9.666843 L-18.16666,9.580427 L-18.187143,9.493905 L-18.207026,9.407298 L-18.226332,9.320625 L-18.245094,9.233906 L-18.263344,9.147159 L-18.28111,9.060402 L-18.298422,8.973653 L-18.31531,8.886928 L-18.331802,8.800243 L-18.347933,8.713614 L-18.363728,8.627056 L-18.379215,8.540583 L-18.394426,8.4542055 L-18.409391,8.367939 L-18.424133,8.281794 L-18.438686,8.19578 L-18.453072,8.10991 L-18.46732,8.024192 L-18.481457,7.938634 L-18.495506,7.853245 L-18.509495,7.7680316 L-18.523445,7.683 L-18.537382,7.598157 L-18.551329,7.513506 L-18.565308,7.4290524 L-18.579338,7.3447986 L-18.593441,7.2607474 L-18.607637,7.176902 L-18.621944,7.093262 L-18.63638,7.009829 L-18.65096,6.9266033 L-18.665703,6.843583 L-18.680622,6.760768 L-18.69573,6.6781554 L-18.71104,6.5957437 L-18.726564,6.5135283 L-18.742315,6.431507 L-18.758299,6.3496747 L-18.774525,6.2680273 L-18.791002,6.1865587 L-18.807737,6.105264 L-18.824734,6.0241375 L-18.841995,5.943172 L-18.859528,5.862361 L-18.877329,5.781697 L-18.895403,5.7011724 L-18.91375,5.62078 L-18.932365,5.5405116 L-18.95125,5.460358 L-18.9704,5.380312 L-18.989809,5.300364 L-19.009472,5.2205057 L-19.029383,5.1407275 L-19.049536,5.061021 L-19.06992,4.981376 L-19.090525,4.901785 L-19.111341,4.8222375 L-19.13236,4.742725 L-19.153566,4.6632376 L-19.174948,4.583767 L-19.19649,4.504304 L-19.218178,4.424839 L-19.239998,4.3453646 L-19.26193,4.265871 L-19.28396,4.186351 L-19.30607,4.106795 L-19.32824,4.0271955 L-19.350452,3.9475455 L-19.372686,3.8678367 L-19.394924,3.788062 L-19.417143,3.708215 L-19.439322,3.6282883 L-19.46144,3.5482762 L-19.483475,3.4681723 L-19.505405,3.3879712 L-19.527208,3.3076675 L-19.548862,3.2272565 L-19.570343,3.1467338 L-19.591627,3.0660949 L-19.612692,2.985336 L-19.633514,2.9044545 L-19.654074,2.8234468 L-19.674341,2.7423105 L-19.6943,2.661044 L-19.713923,2.579645 L-19.733189,2.4981124 L-19.752073,2.4164457 L-19.770557,2.3346446 L-19.788616,2.2527084 L-19.806229,2.1706383 L-19.823374,2.088435 L-19.840033,2.0060995 L-19.85618,1.9236335 L-19.871801,1.8410393 L-19.886873,1.7583191 L-19.901379,1.6754761 L-19.9153,1.5925133 L-19.928617,1.5094342 L-19.941317,1.4262428 L-19.95338,1.3429434 L-19.964792,1.2595406 L-19.97554,1.1760391 L-19.985607,1.0924443 L-19.994984,1.0087615 L-20.003654,0.9249966 L-20.01161,0.84115547 L-20.018839,0.7572442 L-20.025333,0.67326933 L-20.031084,0.5892374 L-20.036081,0.50515515 L-20.040323,0.42102954 L-20.0438,0.33686754 L-20.04651,0.25267634 L-20.048449,0.16846314 L-20.049612,0.08423525 L-20.05,0.00000000000001134218 L-20.049612,-0.08423525 L-20.048449,-0.16846314 L-20.04651,-0.25267634 L-20.0438,-0.33686754 L-20.040323,-0.42102954 L-20.036081,-0.50515515 L-20.031084,-0.5892374 L-20.025333,-0.67326933 L-20.018839,-0.7572442 L-20.01161,-0.84115547 L-20.003654,-0.9249966 L-19.994984,-1.0087615 L-19.985607,-1.0924443 L-19.97554,-1.1760391 L-19.964792,-1.2595406 L-19.95338,-1.3429434 L-19.941317,-1.4262428 L-19.928617,-1.5094342 L-19.9153,-1.5925133 L-19.901379,-1.6754761 L-19.886873,-1.7583191 L-19.871801,-1.8410393 L-19.85618,-1.9236335 L-19.840033,-2.0060995 L-19.823374,-2.088435 L-19.806229,-2.1706383 L-19.788616,-2.2527084 L-19.770557,-2.3346446 L-19.752073,-2.4164457 L-19.733189,-2.4981124 L-19.713923,-2.579645 L-19.6943,-2.661044 L-19.674341,-2.7423105 L-19.654074,-2.8234468 L-19.633514,-2.9044545 L-19.612692,-2.985336 L-19.591627,-3.0660949 L-19.570343,-3.1467338 L-19.548862,-3.2272565 L-19.527208,-3.3076675 L-19.505405,-3.3879712 L-19.483475,-3.4681723 L-19.46144,-3.5482762 L-19.439322,-3.6282883 L-19.417143,-3.708215 L-19.394924,-3.788062 L-19.372686,-3.8678367 L-19.350452,-3.9475455 L-19.32824,-4.0271955 L-19.30607,-4.106795 L-19.28396,-4.186351 L-19.26193,-4.265871 L-19.239998,-4.3453646 L-19.218178,-4.424839 L-19.19649,-4.504304 L-19.174948,-4.583767 L-19.153566,-4.6632376 L-19.13236,-4.742725 L-19.111341,-4.8222375 L-19.090525,-4.901785 L-19.06992,-4.981376 L-19.049536,-5.061021 L-19.029383,-5.1407275 L-19.009472,-5.2205057 L-18.989809,-5.300364 L-18.9704,-5.380312 L-18.95125,-5.460358 L-18.932365,-5.5405116 L-18.91375,-5.62078 L-18.895403,-5.7011724 L-18.877329,-5.781697 L-18.859528,-5.862361 L-18.841995,-5.943172 L-18.824734,-6.0241375 L-18.807737,-6.105264 L-18.791002,-6.1865587 L-18.774525,-6.2680273 L-18.758299,-6.3496747 L-18.742315,-6.431507 L-18.726564,-6.5135283 L-18.71104,-6.5957437 L-18.69573,-6.6781554 L-18.680622,-6.760768 L-18.665703,-6.843583 L-18.65096,-6.9266033 L-18.63638,-7.009829 L-18.621944,-7.093262 L-18.607637,-7.176902 L-18.593441,-7.2607474 L-18.579338,-7.3447986 L-18.565308,-7.4290524 L-18.551329,-7.513506 L-18.537382,-7.598157 L-18.523445,-7.683 L-18.509495,-7.7680316 L-18.495506,-7.853245 L-18.481457,-7.938634 L-18.46732,-8.024192 L-18.453072,-8.10991 L-18.438686,-8.19578 L-18.424133,-8.281794 L-18.409391,-8.367939 L-18.394426,-8.4542055 L-18.379215,-8.540583 L-18.363728,-8.627056 L-18.347933,-8.713614 L-18.331802,-8.800243 L-18.31531,-8.886928 L-18.298422,-8.973653 L-18.28111,-9.060402 L-18.263344,-9.147159 L-18.245094,-9.233906 L-18.226332,-9.320625 L-18.207026,-9.407298 L-18.187143,-9.493905 L-18.16666,-9.580427 L-18.145542,-9.666843 L-18.123762,-9.753133 L-18.101292,-9.839273 L-18.078102,-9.925244 L-18.054163,-10.011022 L-18.02945,-10.096584 L-18.003931,-10.181908 L-17.977583,-10.266969 L-17.950378,-10.351743 L-17.922293,-10.436207 L-17.893301,-10.520335 L-17.863377,-10.604103 L-17.8325,-10.687486 L-17.800646,-10.770458 L-17.767794,-10.852994 L-17.733923,-10.935069 L-17.699013,-11.016658 L-17.663044,-11.097734 L-17.626001,-11.178272 L-17.587866,-11.258247 L-17.548622,-11.337635 L-17.508255,-11.416409 L-17.466755,-11.494543 L-17.424105,-11.572015 L-17.380297,-11.6488 L-17.335321,-11.724873 L-17.289167,-11.800211 L-17.24183,-11.87479 L-17.193306,-11.948588 L-17.143585,-12.0215845 L-17.092669,-12.093755 L-17.040554,-12.16508 L-16.98724,-12.2355385 L-16.932728,-12.305112 L-16.87702,-12.373781 L-16.820122,-12.441528 L-16.762037,-12.508335 L-16.702774,-12.574186 L-16.64234,-12.639068 L-16.580744,-12.702963 L-16.517996,-12.76586 L-16.45411,-12.827746 L-16.389097,-12.888612 L-16.322973,-12.948444 L-16.255756,-13.007237 L-16.187462,-13.064982 L-16.118109,-13.121674 L-16.047716,-13.177305 L-15.976307,-13.2318735 L-15.903901,-13.285376 L-15.8305235,-13.337812 L-15.756197,-13.389181 L-15.680948,-13.439486 L-15.604803,-13.488728 L-15.52779,-13.536912 L-15.449935,-13.584044 L-15.371269,-13.630131 L-15.291822,-13.675181 L-15.211626,-13.719204 L-15.130711,-13.762212 L-15.0491085,-13.804215 L-14.966853,-13.84523 L-14.883979,-13.885271 L-14.80052,-13.9243555 L-14.716511,-13.9625 L-14.631986,-13.999725 L-14.546982,-14.036052 L-14.461535,-14.071502 L-14.375683,-14.106097 L-14.28946,-14.139865 L-14.202905,-14.172829 L-14.116054,-14.205017 L-14.028945,-14.236458 L-13.941616,-14.2671795 L-13.854103,-14.2972145 L-13.766445,-14.326592 L-13.6786785,-14.355347 L-13.590841,-14.383511 L-13.50297,-14.41112 L-13.415101,-14.43821 L-13.327272,-14.464816 L-13.239518,-14.490975 L-13.151876,-14.516728 L-13.064381,-14.542111 L-12.977067,-14.567164 L-12.889969,-14.5919285 L-12.803121,-14.616444 L-12.716555,-14.640752 L-12.630304,-14.664894 L-12.5444,-14.688912 L-12.458875,-14.71285 L-12.373755,-14.73675 L-12.289074,-14.7606535 L-12.204857,-14.784605 L-12.121132,-14.808648 L-12.037925,-14.832826 L-11.95526,-14.857181 L-11.873163,-14.881757 L-11.7916565,-14.906597 L-11.710761,-14.931744 L-11.630497,-14.95724 L-11.550884,-14.983128 L-11.47194,-15.009449 L-11.393681,-15.036244 L-11.316121,-15.063555 L-11.239275,-15.091421 L-11.163156,-15.119883 L-11.087772,-15.148977 L-11.013134,-15.178744 L-10.939249,-15.20922 L-10.866124,-15.24044 L-10.793763,-15.272442 L-10.722169,-15.305259 L-10.651342,-15.338924 L-10.581285,-15.373471 L-10.511994,-15.40893 L-10.443468,-15.445332 L-10.3757,-15.482704 L-10.308685,-15.521077 L-10.242415,-15.560475 L-10.176883,-15.600924 L-10.112076,-15.642447 L-10.047983,-15.685068 L-9.9845915,-15.728807 L-9.921888,-15.773684 L-9.859856,-15.819715 L-9.798479,-15.866917 L-9.7377405,-15.915305 L-9.677621,-15.9648905 L-9.618101,-16.015686 L-9.55916,-16.0677 L-9.500777,-16.120937 L-9.442929,-16.175404 L-9.385593,-16.231106 L-9.328746,-16.288038 L-9.272362,-16.346205 L-9.216416,-16.4056 L-9.160884,-16.466217 L-9.105736,-16.528051 L-9.050946,-16.59109 L-8.996488,-16.655321 L-8.94233,-16.72073 L-8.888445,-16.7873 L-8.834804,-16.855013 L-8.781375,-16.923847 L-8.728129,-16.993778 L-8.675036,-17.064781 L-8.622064,-17.136827 L-8.5691805,-17.209887 L-8.5163555,-17.283928 L-8.463556,-17.358917 L-8.410751,-17.434816 L-8.357908,-17.511591 L-8.304995,-17.589195 L-8.251979,-17.667591 L-8.198828,-17.746733 L-8.145512,-17.826576 L-8.091996,-17.90707 L-8.038251,-17.98817 L-7.984245,-18.069822 L-7.929946,-18.151974 L-7.8753242,-18.234571 L-7.820349,-18.31756 L-7.7649913,-18.400883 L-7.7092214,-18.48448 L-7.65301,-18.568295 L-7.59633,-18.652262 L-7.5391536,-18.736324 L-7.4814544,-18.820415 L-7.4232063,-18.904472 L-7.364384,-18.988434 L-7.304964,-19.07223 L-7.244922,-19.155794 L-7.184236,-19.239061 L-7.1228848,-19.321966 L-7.0608478,-19.404436 L-6.998105,-19.486404 L-6.934639,-19.567804 L-6.870432,-19.648565 L-6.8054676,-19.728617 L-6.739732,-19.807892 L-6.6732097,-19.88632 L-6.6058893,-19.963833 L-6.537759,-20.040361 L-6.468809,-20.115837 L-6.39903,-20.190193 L-6.328415,-20.26336 L-6.256957,-20.33527 L-6.1846514,-20.405857 L-6.111495,-20.475058 L-6.0374846,-20.542803 L-5.9626203,-20.609034 L-5.886902,-20.673683 L-5.8103313,-20.73669 L-5.7329116,-20.797993 L-5.6546474,-20.857534 L-5.575545,-20.915255 L-5.495611,-20.971096 L-5.4148555,-21.025003 L-5.3332872,-21.076925 L-5.250919,-21.126806 L-5.1677628,-21.174597 L-5.083833,-21.22025 L-4.9991465,-21.263716 L-4.9137197,-21.304953 L-4.827571,-21.343916 L-4.7407203,-21.380566 L-4.6531887,-21.414865 L-4.564999,-21.44678 L-4.4761744,-21.476273 L-4.38674,-21.503313 L-4.296722,-21.527878 L-4.206147,-21.549936 L-4.115043,-21.56947 L-4.02344,-21.586456 L-3.9313662,-21.60088 L-3.8388534,-21.612726 L-3.7459323,-21.621986 L-3.652635,-21.62865 L-3.5589938,-21.632715 L-3.4650414,-21.634178 L-3.3708107,-21.633043 L-3.276335,-21.629313 L-3.1816478,-21.622993 L-3.0867822,-21.6141 L-2.9917722,-21.602642 L-2.8966503,-21.58864 L-2.8014503,-21.572113 L-2.7062044,-21.553083 L-2.6109457,-21.531576 L-2.515706,-21.50762 L-2.4205174,-21.481247 L-2.325411,-21.452492 L-2.2304177,-21.42139 L-2.135568,-21.387983 L-2.040891,-21.35231 L-1.9464163,-21.314419 L-1.8521719,-21.274355 L-1.7581859,-21.232168 L-1.6644849,-21.187912 L-1.5710952,-21.141638 L-1.4780422,-21.093405 L-1.3853506,-21.04327 L-1.2930439,-20.991297 L-1.2011447,-20.937546 L-1.1096749,-20.882084 L-1.0186555,-20.824978 L-0.9281061,-20.766296 L-0.83804566,-20.706108 L-0.74849176,-20.644487 L-0.65946096,-20.581509 L-0.5709688,-20.517248 L-0.4830296,-20.45178 L-0.3956564,-20.385185 L-0.30886114,-20.317543 L-0.22265446,-20.248934 L-0.13704579,-20.179438 L-0.052043248,-20.109142 L0.032346323,-20.038128 L0.116117395,-19.96648 L0.19926578,-19.894285 L0.28178856,-19.821627 L0.36368427,-19.748594 L0.44495264,-19.675274 L0.5255949,-19.601751 L0.6056135,-19.528114 L0.6850124,-19.45445 L0.7637966,-19.380848 L0.8419729,-19.307392 L0.91954887,-19.23417 L0.9965339,-19.161272 L1.0729382,-19.08878 L1.1487737,-19.016777 L1.2240531,-18.945353 L1.2987909,-18.87459 L1.3730023,-18.804567 L1.4467038,-18.73537 L1.5199131,-18.66708 L1.5926491,-18.599771 L1.6649314,-18.533527 L1.7367811,-18.46842 L1.8082199,-18.404524 L1.8792706,-18.341913 L1.9499567,-18.280659 L2.020303,-18.220829 L2.0903347,-18.162489 L2.160078,-18.105705 L2.2295601,-18.050537 L2.298808,-17.997046 L2.3678508,-17.945288 L2.4367168,-17.895317 L2.5054364,-17.847185 L2.5740397,-17.80094 L2.6425579,-17.756624 L2.7110229,-17.714283 L2.779467,-17.673954 L2.8479242,-17.635672 L2.9164286,-17.599468 L2.9850147,-17.565372 L3.0537193,-17.53341 L3.1225789,-17.503603 L3.1916313,-17.47597 L3.2609155,-17.450525 L3.330471,-17.427286 L3.400338,-17.406258 L3.4705575,-17.38745 L3.5411706,-17.370865 L3.612219,-17.356506 L3.683744,-17.344376 L3.7557867,-17.334467 L3.8283873,-17.326777 L3.9015856,-17.321299 L3.9754195,-17.318022 L4.0499263,-17.316935 L4.125141,-17.318024 L4.201097,-17.32127 L4.2778263,-17.326653 L4.3553576,-17.334152 L4.4337196,-17.34374 L4.5129366,-17.355387 L4.5930324,-17.369062 L4.674029,-17.38473 L4.7559447,-17.40235 L4.8387976,-17.421883 L4.9226027,-17.443281 L5.0073743,-17.4665 L5.093124,-17.491484 L5.179861,-17.518183 L5.2675943,-17.546537 L5.35633,-17.576487 L5.4460726,-17.607971 L5.5368257,-17.640924 L5.628589,-17.675278 L5.721363,-17.710962 L5.815145,-17.747904 L5.9099307,-17.78603 L6.005714,-17.825264 L6.1024876,-17.865526 L6.2002406,-17.906738 L6.298963,-17.948816 L6.398641,-17.991678 L6.4992595,-18.035238 L6.600802,-18.079409 L6.703249,-18.124105 L6.8065805,-18.169237 L6.910774,-18.214716 L7.0158052,-18.260452 L7.121649,-18.306353 L7.2282767,-18.352327 L7.335659,-18.398283 L7.4437647,-18.444126 L7.552561,-18.489767 L7.662013,-18.53511 L7.772085,-18.580065 L7.8827386,-18.624538 L7.993934,-18.668436 L8.105631,-18.711666 L8.217787,-18.754139 L8.330358,-18.795761 L8.443297,-18.836445 L8.55656,-18.876099 L8.670096,-18.914637 L8.783858,-18.951967 L8.897796,-18.988007 L9.011857,-19.02267 L9.125989,-19.055872 L9.240139,-19.087532 L9.354251,-19.117569 L9.468271,-19.145903 L9.582144,-19.172459 L9.69581,-19.197157 L9.809216,-19.219929 L9.922299,-19.240698 L10.035005,-19.2594 L10.147273,-19.275965 L10.259044,-19.290327 L10.370258,-19.302425 L10.480857,-19.312199 L10.590779,-19.31959 L10.6999655,-19.324543 L10.808356,-19.327005 L10.915891,-19.326927 L11.022509,-19.324263 L11.128151,-19.318966 L11.2327585,-19.310995 L11.33627,-19.300314 L11.438629,-19.286884 L11.539775,-19.270676 L11.63965,-19.25166 L11.738196,-19.229807 L11.835357,-19.2051 L11.931074,-19.177515 L12.025293,-19.147041 L12.11796,-19.113665 L12.209019,-19.077377 L12.298417,-19.038176 L12.386105,-18.996061 L12.472031,-18.951036 L12.556148,-18.903109 L12.638408,-18.85229 L12.718768,-18.798595 L12.797186,-18.742044 L12.873621,-18.682661 L12.948037,-18.620472 L13.020399,-18.555508 L13.090675,-18.4878 L13.158837,-18.417389 L13.224859,-18.344313 L13.288719,-18.268614 L13.350396,-18.19034 L13.409876,-18.109537 L13.467143,-18.026258 L13.522188,-17.940556 L13.575005,-17.852484 L13.625588,-17.762102 L13.673938,-17.669472 L13.720057,-17.574652 L13.7639475,-17.477705 L13.80562,-17.3787 L13.845084,-17.277702 L13.882354,-17.17478 L13.917445,-17.070004 L13.950378,-16.963446 L13.9811735,-16.855179 L14.009857,-16.745277 L14.036455,-16.63382 L14.060998,-16.52088 L14.083518,-16.406538 L14.104052,-16.290873 L14.122636,-16.173965 L14.139311,-16.055895 L14.1541195,-15.936747 L14.167108,-15.8166 L14.178323,-15.69554 L14.187816,-15.57365 L14.195639,-15.451015 L14.201846,-15.327719 L14.206496,-15.203846 L14.209648,-15.079481 L14.211363,-14.954708 L14.211704,-14.829614 L14.210739,-14.70428 L14.208533,-14.578793 L14.205157,-14.453234 L14.200683,-14.327686 L14.195182,-14.202233 L14.188729,-14.076956 L14.181402,-13.951934 L14.173277,-13.827248 L14.1644335,-13.702975 L14.154952,-13.579195 L14.144914,-13.455981 L14.1344,-13.33341 L14.123497,-13.211554 L14.1122875,-13.090485 L14.100856,-12.970272 L14.089288,-12.850985 L14.077671,-12.73269 L14.066091,-12.615451 L14.054634,-12.4993305 L14.043387,-12.384391 L14.032439,-12.27069 L14.021874,-12.158283 L14.011781,-12.047227 L14.002244,-11.937572 L13.993351,-11.829369 L13.985185,-11.722664 L13.97783,-11.617504 L13.971371,-11.51393 L13.965889,-11.411984 L13.961465,-11.311702 L13.9581785,-11.21312 L13.956108,-11.11627 L13.95533,-11.021182 L13.955917,-10.927882 L13.957944,-10.836395 L13.961479,-10.746742 L13.966591,-10.658941 L13.973345,-10.573008 L13.981804,-10.488953 L13.992027,-10.406783 L14.004074,-10.326506 L14.017999,-10.248119 L14.033853,-10.171621 L14.051685,-10.097003 L14.071545,-10.024253 L14.093475,-9.953356 L14.11752,-9.884289 L14.143721,-9.817028 L14.172115,-9.751543 L14.2027445,-9.6878 L14.235644,-9.625765 L14.270852,-9.565394 L14.308403,-9.506648 L14.348331,-9.449481 L14.390672,-9.39385 L14.435454,-9.339708 L14.482708,-9.28701 L14.532459,-9.235711 L14.58473,-9.185764 L14.63954,-9.137126 L14.696901,-9.08975 L14.756825,-9.043593 L14.819316,-8.9986105 L14.884372,-8.954755 L14.951989,-8.911981 L15.022156,-8.870242 L15.094856,-8.82949 L15.170071,-8.789676 L15.247774,-8.750748 L15.327937,-8.712655 L15.410525,-8.6753435 L15.4955015,-8.638761 L15.582824,-8.60285 L15.672447,-8.567554 L15.764321,-8.532817 L15.858394,-8.49858 L15.954609,-8.464783 L16.052906,-8.431366 L16.153221,-8.39827 L16.255491,-8.365433 L16.359646,-8.332795 L16.465612,-8.300294 L16.573315,-8.26787 L16.682678,-8.235461 L16.793621,-8.203006 L16.90606,-8.170445 L17.019909,-8.137718 L17.13508,-8.104766 L17.251486,-8.071528 L17.36903,-8.037948 L17.487621,-8.003967 L17.607162,-7.9695296 L17.727554,-7.93458 L17.848696,-7.899064 L17.970488,-7.8629284 L18.092827,-7.8261213 L18.215607,-7.788592 L18.33872,-7.750292 L18.462065,-7.7111726 L18.58553,-7.671189 L18.709005,-7.6302953 L18.832384,-7.5884495 L18.955553,-7.545611 L19.078403,-7.5017395 L19.200825,-7.4567976 L19.322704,-7.4107504 L19.443932,-7.3635635 L19.564394,-7.315206 L19.68398,-7.265647 L19.802582,-7.214859 L19.920086,-7.162817 L20.036386,-7.1094966 L20.15137,-7.0548763 L20.26493,-6.9989367 L20.376963,-6.9416604 L20.48736,-6.8830323 L20.596014,-6.8230386 L20.702827,-6.7616687 L20.807693,-6.6989136 L20.910515,-6.634766 L21.011194,-6.569222 L21.10963,-6.5022783 L21.205732,-6.4339347 L21.299408,-6.3641925 L21.390566,-6.2930555 L21.479116,-6.2205296 L21.564974,-6.146622 L21.648056,-6.071344 L21.728283,-5.9947066 L21.805573,-5.9167247 L21.879852,-5.837414 L21.951048,-5.7567935 L22.019087,-5.674884 L22.083904,-5.591708 L22.145435,-5.507292 L22.203617,-5.421662 L22.258392,-5.3348484 L22.309708,-5.2468843 L22.357512,-5.1578035 L22.401756,-5.0676427 L22.4424,-4.976442 L22.4794,-4.8842416 L22.512726,-4.791086 L22.542345,-4.6970205 L22.568232,-4.602092 L22.590366,-4.5063496 L22.608734,-4.4098434 L22.623322,-4.3126245 L22.634125,-4.214746 L22.641144,-4.11626 L22.64438,-4.01722 L22.643848,-3.917679 L22.63956,-3.8176906 L22.631538,-3.7173073 L22.619802,-3.6165822 L22.604382,-3.5155666 L22.585312,-3.414312 L22.56263,-3.3128684 L22.536375,-3.2112858 L22.506594,-3.1096127 L22.473335,-3.0078971 L22.436653,-2.9061856 L22.396603,-2.8045244 L22.353245,-2.7029583 L22.306643,-2.6015313 L22.25686,-2.5002868 L22.203974,-2.3992667 L22.14805,-2.2985122 L22.089169,-2.1980634 L22.027407,-2.0979593 L21.962849,-1.9982378 L21.895576,-1.898936 L21.825682,-1.8000895 L21.753252,-1.7017328 L21.678381,-1.603899 L21.601164,-1.5066203 L21.521698,-1.4099271 L21.440086,-1.3138489 L21.35643,-1.2184132 L21.270832,-1.1236466 L21.1834,-1.0295738 L21.094242,-0.93621796 L21.003468,-0.8436008 L20.91119,-0.75174224 L20.81752,-0.6606606 L20.722572,-0.57037246 L20.626465,-0.4808926 L20.529312,-0.3922341 L20.431232,-0.30440822 L20.332344,-0.21742438 L20.232763,-0.13129018 L20.132614,-0.0460114 L20.03214,0.038301278" fill="none" stroke="black" stroke-width="0.05"/>
<path d="M19.96786,0.038301278 L20.068058,0.12238176 L20.167637,0.20717534 L20.26661,0.29278398 L20.364855,0.37920076 L20.462254,0.4664168 L20.55869,0.55442125 L20.654045,0.6432012 L20.748207,0.73274183 L20.841057,0.8230264 L20.932482,0.9140363 L21.022371,1.0057508 L21.110615,1.0981475 L21.1971,1.1912022 L21.281723,1.2848889 L21.364378,1.3791797 L21.44496,1.4740453 L21.523369,1.5694544 L21.599508,1.6653744 L21.67328,1.761771 L21.74459,1.8586085 L21.813353,1.9558498 L21.879477,2.0534565 L21.942877,2.151389 L22.003475,2.2496061 L22.061192,2.3480663 L22.115953,2.4467266 L22.167688,2.5455434 L22.216331,2.6444724 L22.261818,2.7434685 L22.304089,2.8424861 L22.343088,2.9414797 L22.378767,3.0404031 L22.411074,3.1392107 L22.439968,3.2378561 L22.465412,3.3362942 L22.487368,3.4344797 L22.505804,3.5323684 L22.520695,3.629916 L22.532017,3.7270799 L22.53975,3.823818 L22.543879,3.920089 L22.54439,4.015853 L22.541277,4.111071 L22.534534,4.2057047 L22.524158,4.2997174 L22.510149,4.3930726 L22.492516,4.485735 L22.47126,4.57767 L22.446398,4.6688433 L22.417938,4.7592216 L22.385902,4.8487716 L22.350311,4.93746 L22.311184,5.0252557 L22.268555,5.112126 L22.22245,5.198039 L22.172905,5.2829647 L22.119963,5.3668723 L22.063662,5.449732 L22.00405,5.5315146 L21.941177,5.6121936 L21.8751,5.6917405 L21.805872,5.770131 L21.73356,5.847341 L21.658226,5.9233475 L21.57994,5.99813 L21.498777,6.071669 L21.41481,6.1439476 L21.32812,6.21495 L21.238785,6.2846637 L21.146894,6.3530774 L21.052532,6.4201818 L20.955793,6.48597 L20.856768,6.5504384 L20.75555,6.613584 L20.65224,6.6754074 L20.546936,6.735911 L20.439737,6.7950993 L20.33075,6.8529797 L20.220076,6.9095616 L20.10782,6.964857 L19.994093,7.0188804 L19.879,7.0716476 L19.762651,7.1231775 L19.645155,7.1734915 L19.526623,7.222613 L19.407167,7.270567 L19.286896,7.3173814 L19.165922,7.3630867 L19.044357,7.407714 L18.922312,7.4512973 L18.799898,7.493873 L18.677227,7.535479 L18.554405,7.5761557 L18.431545,7.615944 L18.308752,7.6548877 L18.186138,7.6930323 L18.063805,7.730425 L17.94186,7.7671137 L17.820408,7.8031487 L17.699547,7.8385816 L17.579382,7.873466 L17.460009,7.907855 L17.341524,7.9418054 L17.224022,7.975373 L17.1076,8.008616 L16.99234,8.041594 L16.878338,8.074365 L16.765675,8.106991 L16.654432,8.139533 L16.544695,8.172053 L16.436537,8.204615 L16.330032,8.23728 L16.225254,8.270114 L16.12227,8.30318 L16.021147,8.336543 L15.921944,8.370268 L15.824722,8.404419 L15.729537,8.439062 L15.636442,8.474261 L15.545485,8.510082 L15.456712,8.546591 L15.370167,8.58385 L15.28589,8.621924 L15.203916,8.660878 L15.124279,8.700776 L15.047011,8.741678 L14.97214,8.7836485 L14.899692,8.826746 L14.829687,8.871032 L14.762149,8.916562 L14.697095,8.963392 L14.634541,9.011577 L14.574501,9.061165 L14.516988,9.112205 L14.46201,9.164739 L14.4095745,9.218808 L14.359685,9.274447 L14.31234,9.331688 L14.267536,9.390556 L14.2252655,9.4510765 L14.1855135,9.513266 L14.148263,9.577139 L14.113487,9.64271 L14.081159,9.709988 L14.051241,9.778981 L14.023695,9.849695 L13.998474,9.922135 L13.97553,9.996305 L13.954807,10.072209 L13.936251,10.149849 L13.9198,10.229225 L13.90539,10.310339 L13.892956,10.393188 L13.882431,10.477771 L13.873744,10.564083 L13.866824,10.652118 L13.861598,10.741866 L13.857991,10.833318 L13.855927,10.926459 L13.85533,11.0212755 L13.856119,11.117747 L13.858216,11.215855 L13.86154,11.315572 L13.866009,11.416872 L13.871539,11.519728 L13.878048,11.6241045 L13.885451,11.729968 L13.893664,11.83728 L13.9026,11.946 L13.912174,12.056085 L13.922299,12.167488 L13.932889,12.280161 L13.943855,12.3940525 L13.955113,12.509109 L13.966575,12.625275 L13.978152,12.742491 L13.989761,12.860698 L14.001313,12.979832 L14.012725,13.099828 L14.023909,13.22062 L14.034782,13.342139 L14.045261,13.464314 L14.055263,13.587074 L14.064705,13.710343 L14.073508,13.834048 L14.081593,13.958111 L14.088881,14.082453 L14.095295,14.206995 L14.100761,14.331657 L14.1052065,14.456358 L14.108558,14.581015 L14.110747,14.705544 L14.111705,14.829863 L14.111366,14.953885 L14.109667,15.077527 L14.106545,15.200704 L14.101943,15.323329 L14.095801,15.445318 L14.088065,15.566586 L14.078684,15.687045 L14.067607,15.806614 L14.054788,15.925205 L14.04018,16.042736 L14.023743,16.159122 L14.005437,16.274282 L13.985226,16.388136 L13.963076,16.500599 L13.938955,16.611595 L13.912838,16.721045 L13.884696,16.82887 L13.854509,16.935 L13.822257,17.039358 L13.787923,17.141874 L13.751493,17.242477 L13.712956,17.341103 L13.672306,17.437683 L13.629535,17.532156 L13.58464,17.624462 L13.537622,17.714542 L13.488483,17.802343 L13.437227,17.887812 L13.383863,17.9709 L13.328399,18.051558 L13.270845,18.129745 L13.211218,18.20542 L13.14953,18.278543 L13.085801,18.349083 L13.020049,18.417006 L12.952295,18.482283 L12.882562,18.544888 L12.810873,18.6048 L12.737255,18.661993 L12.661736,18.716454 L12.584343,18.768164 L12.505108,18.817114 L12.424064,18.86329 L12.341244,18.906689 L12.256685,18.9473 L12.170424,18.985125 L12.082501,19.02016 L11.992959,19.052412 L11.901838,19.081884 L11.809185,19.108585 L11.715047,19.132524 L11.619472,19.153715 L11.52251,19.172178 L11.424212,19.18793 L11.324634,19.200993 L11.223827,19.211395 L11.121849,19.219164 L11.018756,19.224333 L10.914605,19.226936 L10.809456,19.22701 L10.703368,19.2246 L10.5964,19.219748 L10.488613,19.2125 L10.380068,19.202908 L10.270824,19.191023 L10.160944,19.176903 L10.050488,19.160606 L9.939517,19.142193 L9.828092,19.121725 L9.716271,19.099274 L9.604116,19.074902 L9.491686,19.048683 L9.379038,19.020689 L9.26623,18.990995 L9.153319,18.95968 L9.040363,18.926819 L8.927414,18.892494 L8.814528,18.856787 L8.7017565,18.81978 L8.589152,18.781559 L8.476765,18.742212 L8.364643,18.701822 L8.252835,18.660482 L8.141386,18.618277 L8.030342,18.575298 L7.9197445,18.531637 L7.8096356,18.487383 L7.7000546,18.442629 L7.59104,18.397467 L7.482628,18.351988 L7.3748517,18.306282 L7.2677455,18.260445 L7.161339,18.214567 L7.0556602,18.168737 L6.950738,18.123049 L6.8465953,18.077593 L6.743256,18.032457 L6.640741,17.987732 L6.539069,17.943502 L6.4382567,17.89986 L6.3383193,17.856886 L6.2392693,17.814669 L6.1411176,17.77329 L6.043873,17.732832 L5.947542,17.693373 L5.85213,17.654995 L5.7576385,17.617773 L5.6640697,17.581783 L5.571421,17.5471 L5.4796906,17.513792 L5.3888726,17.48193 L5.298961,17.451584 L5.209947,17.422815 L5.1218204,17.39569 L5.0345697,17.370268 L4.9481816,17.346607 L4.8626413,17.324766 L4.777933,17.304798 L4.69404,17.286753 L4.610944,17.27068 L4.5286255,17.256626 L4.447066,17.244635 L4.366244,17.234747 L4.2861395,17.227 L4.206732,17.221428 L4.1279993,17.218065 L4.04992,17.216936 L3.972473,17.218065 L3.895636,17.221476 L3.819388,17.227182 L3.743706,17.235199 L3.6685681,17.245533 L3.5939512,17.25819 L3.5198321,17.273169 L3.446186,17.290464 L3.3729882,17.31007 L3.3002124,17.331974 L3.227831,17.356157 L3.1558156,17.382603 L3.0841367,17.411287 L3.0127633,17.44218 L2.941664,17.475256 L2.8708055,17.51048 L2.8001547,17.54782 L2.7296772,17.58723 L2.6593382,17.628675 L2.5891027,17.672112 L2.5189354,17.717491 L2.4488015,17.764769 L2.3786657,17.813892 L2.3084934,17.86481 L2.2382503,17.917467 L2.1679025,17.971807 L2.097417,18.027771 L2.0267622,18.085297 L1.9559059,18.144323 L1.8848178,18.204784 L1.8134686,18.266613 L1.7418296,18.329742 L1.6698736,18.3941 L1.5975744,18.459614 L1.524907,18.526213 L1.4518477,18.593819 L1.378374,18.662357 L1.3044647,18.731749 L1.2301002,18.801914 L1.1552618,18.872774 L1.0799325,18.944246 L1.0040966,19.016247 L0.9277401,19.088696 L0.85085,19.161505 L0.7734149,19.234592 L0.6954251,19.307873 L0.61687213,19.38126 L0.537749,19.454668 L0.45805037,19.52801 L0.37777218,19.6012 L0.29691204,19.674154 L0.21546891,19.746782 L0.13344327,19.819002 L0.05083706,19.890728 L-0.032346323,19.961872 L-0.11610204,20.032354 L-0.20042382,20.102087 L-0.285304,20.17099 L-0.37073356,20.238981 L-0.45670202,20.30598 L-0.54319763,20.371906 L-0.63020736,20.436682 L-0.7177169,20.50023 L-0.80571055,20.562475 L-0.8941716,20.623344 L-0.98308206,20.682764 L-1.0724229,20.740662 L-1.1621739,20.796974 L-1.2523137,20.85163 L-1.3428205,20.904566 L-1.4336709,20.95572 L-1.5248408,21.005032 L-1.6163057,21.05244 L-1.7080399,21.097895 L-1.800017,21.141338 L-1.8922102,21.18272 L-1.9845922,21.221992 L-2.0771348,21.25911 L-2.1698098,21.294027 L-2.2625883,21.326706 L-2.3554413,21.357107 L-2.44834,21.385197 L-2.5412545,21.410938 L-2.6341558,21.434307 L-2.7270143,21.455273 L-2.8198009,21.473812 L-2.9124858,21.489902 L-3.0050406,21.503527 L-3.0974364,21.51467 L-3.1896448,21.523314 L-3.2816374,21.529453 L-3.3733866,21.533075 L-3.4648652,21.534178 L-3.5560465,21.532759 L-3.6469038,21.528814 L-3.737411,21.522348 L-3.8275433,21.513369 L-3.9172757,21.501877 L-4.0065837,21.487886 L-4.0954432,21.471409 L-4.1838317,21.452457 L-4.2717257,21.431051 L-4.3591037,21.407207 L-4.4459443,21.38095 L-4.5322266,21.352303 L-4.61793,21.32129 L-4.703035,21.28794 L-4.787523,21.252285 L-4.8713756,21.21436 L-4.954576,21.174198 L-5.0371075,21.131836 L-5.1189537,21.087317 L-5.200101,21.04068 L-5.280535,20.99197 L-5.360243,20.941235 L-5.4392133,20.888517 L-5.517435,20.833872 L-5.5948987,20.777348 L-5.6715956,20.718998 L-5.747519,20.658878 L-5.822663,20.597046 L-5.897022,20.533556 L-5.9705925,20.468472 L-6.043373,20.40185 L-6.115362,20.333754 L-6.18656,20.264246 L-6.256969,20.19339 L-6.326592,20.121252 L-6.3954325,20.047897 L-6.463497,19.97339 L-6.5307927,19.897799 L-6.597327,19.82119 L-6.6631107,19.743633 L-6.7281537,19.665194 L-6.7924685,19.585941 L-6.856069,19.505943 L-6.9189696,19.42527 L-6.981186,19.343988 L-7.0427356,19.262165 L-7.1036367,19.17987 L-7.1639085,19.09717 L-7.223572,19.014132 L-7.2826476,18.93082 L-7.341159,18.847305 L-7.399129,18.763649 L-7.4565825,18.679914 L-7.513545,18.596167 L-7.570042,18.51247 L-7.626102,18.428883 L-7.6817513,18.345465 L-7.737019,18.26228 L-7.791935,18.17938 L-7.846528,18.096825 L-7.9008293,18.01467 L-7.9548693,17.932966 L-8.008679,17.851768 L-8.062292,17.771128 L-8.115739,17.69109 L-8.169052,17.611706 L-8.222265,17.533018 L-8.27541,17.455074 L-8.328521,17.377913 L-8.381629,17.301577 L-8.43477,17.226103 L-8.487974,17.15153 L-8.541277,17.07789 L-8.594709,17.005219 L-8.648305,16.933544 L-8.702095,16.862898 L-8.756113,16.793306 L-8.810388,16.724794 L-8.864953,16.657383 L-8.919837,16.591097 L-8.97507,16.525953 L-9.030682,16.46197 L-9.0866995,16.39916 L-9.14315,16.33754 L-9.200063,16.277119 L-9.257461,16.217907 L-9.315369,16.159912 L-9.373811,16.103136 L-9.432809,16.047586 L-9.492385,15.99326 L-9.552558,15.940161 L-9.613347,15.888283 L-9.674769,15.837623 L-9.736841,15.788173 L-9.799577,15.739924 L-9.862991,15.692868 L-9.927094,15.64699 L-9.991899,15.602277 L-10.057413,15.55871 L-10.123645,15.5162735 L-10.190601,15.474946 L-10.258287,15.434706 L-10.326708,15.395528 L-10.3958645,15.3573885 L-10.465759,15.32026 L-10.536392,15.284114 L-10.607763,15.2489195 L-10.679868,15.214646 L-10.752705,15.18126 L-10.826267,15.148726 L-10.90055,15.117011 L-10.975546,15.086078 L-11.051246,15.055887 L-11.127641,15.0264015 L-11.204719,14.9975815 L-11.282469,14.969387 L-11.360877,14.941777 L-11.439928,14.914711 L-11.519608,14.8881445 L-11.599897,14.862037 L-11.680781,14.836344 L-11.762238,14.811022 L-11.844248,14.786028 L-11.92679,14.761319 L-12.009842,14.73685 L-12.09338,14.712576 L-12.177379,14.688455 L-12.261813,14.664441 L-12.346657,14.6404915 L-12.431882,14.616562 L-12.517461,14.592609 L-12.603363,14.568591 L-12.68956,14.544464 L-12.77602,14.520186 L-12.862711,14.495715 L-12.949602,14.47101 L-13.036659,14.446031 L-13.123849,14.420736 L-13.211139,14.395087 L-13.2984915,14.369047 L-13.385875,14.342576 L-13.473251,14.315639 L-13.560587,14.2881975 L-13.647845,14.260219 L-13.734989,14.231668 L-13.821984,14.202513 L-13.9087925,14.17272 L-13.995378,14.142261 L-14.081703,14.111102 L-14.167733,14.079218 L-14.253431,14.04658 L-14.338761,14.013164 L-14.423687,13.978941 L-14.508173,13.94389 L-14.592184,13.907988 L-14.675686,13.871213 L-14.758642,13.833546 L-14.841022,13.794969 L-14.92279,13.755462 L-15.003912,13.715012 L-15.084359,13.673602 L-15.164098,13.631221 L-15.243098,13.587854 L-15.321331,13.543493 L-15.398766,13.498128 L-15.475374,13.45175 L-15.55113,13.404353 L-15.626007,13.35593 L-15.69998,13.306479 L-15.773024,13.255997 L-15.845115,13.20448 L-15.916232,13.15193 L-15.986354,13.098346 L-16.05546,13.04373 L-16.123533,12.988087 L-16.190554,12.931418 L-16.256506,12.873733 L-16.321375,12.815034 L-16.385145,12.75533 L-16.447807,12.694632 L-16.509346,12.632945 L-16.569754,12.570284 L-16.62902,12.506658 L-16.687138,12.44208 L-16.744099,12.376563 L-16.7999,12.3101225 L-16.854538,12.242772 L-16.908007,12.174529 L-16.960306,12.10541 L-17.011438,12.035431 L-17.061401,11.964611 L-17.1102,11.892968 L-17.157837,11.820523 L-17.204315,11.747295 L-17.249641,11.6733055 L-17.293825,11.598574 L-17.336872,11.523123 L-17.378794,11.446975 L-17.419598,11.370151 L-17.4593,11.292674 L-17.49791,11.214569 L-17.535442,11.135858 L-17.571913,11.056564 L-17.607338,10.976712 L-17.641733,10.896325 L-17.675117,10.815429 L-17.70751,10.734046 L-17.738932,10.652202 L-17.769402,10.56992 L-17.79894,10.487224 L-17.827574,10.404139 L-17.855324,10.320688 L-17.882212,10.2368965 L-17.908264,10.152786 L-17.933508,10.068382 L-17.957966,9.983706 L-17.981667,9.898782 L-18.004637,9.81363 L-18.026901,9.728275 L-18.04849,9.642737 L-18.069433,9.557039 L-18.089756,9.471199 L-18.109488,9.38524 L-18.128658,9.29918 L-18.147297,9.213038 L-18.165432,9.126835 L-18.183094,9.0405855 L-18.20031,8.95431 L-18.217112,8.868025 L-18.233528,8.781745 L-18.24959,8.695487 L-18.265322,8.609265 L-18.280756,8.523095 L-18.295921,8.436988 L-18.310843,8.350959 L-18.325552,8.265018 L-18.340073,8.179178 L-18.354435,8.09345 L-18.368666,8.007842 L-18.382788,7.9223657 L-18.39683,7.8370275 L-18.410814,7.751837 L-18.424767,7.6668 L-18.43871,7.5819235 L-18.452665,7.4972134 L-18.466658,7.4126744 L-18.480707,7.328311 L-18.494833,7.244127 L-18.509054,7.160125 L-18.523392,7.0763073 L-18.53786,6.9926763 L-18.55248,6.9092326 L-18.567265,6.825977 L-18.58223,6.742909 L-18.597385,6.660028 L-18.61275,6.577333 L-18.62833,6.494822 L-18.644138,6.412493 L-18.660185,6.330343 L-18.676477,6.2483683 L-18.693022,6.166566 L-18.709826,6.084931 L-18.726894,6.0034595 L-18.74423,5.922146 L-18.761839,5.840985 L-18.779718,5.7599707 L-18.79787,5.6790977 L-18.816296,5.598359 L-18.834991,5.517749 L-18.853954,5.437259 L-18.873182,5.356883 L-18.89267,5.2766137 L-18.91241,5.196443 L-18.932396,5.116364 L-18.952621,5.036368 L-18.973076,4.9564476 L-18.99375,4.8765945 L-19.014631,4.7968006 L-19.035711,4.717058 L-19.056973,4.6373587 L-19.078407,4.557694 L-19.099997,4.478056 L-19.121727,4.398437 L-19.143583,4.3188286 L-19.165546,4.2392235 L-19.187601,4.1596136 L-19.209728,4.079991 L-19.23191,4.000349 L-19.25413,3.9206798 L-19.276361,3.8409767 L-19.29859,3.7612329 L-19.320793,3.6814415 L-19.342949,3.6015968 L-19.365038,3.5216923 L-19.387037,3.4417226 L-19.408924,3.361682 L-19.430676,3.2815654 L-19.45227,3.2013683 L-19.473688,3.1210861 L-19.494902,3.0407145 L-19.51589,2.9602501 L-19.53663,2.8796895 L-19.5571,2.7990294 L-19.577276,2.7182674 L-19.597136,2.637401 L-19.616655,2.556429 L-19.635813,2.475349 L-19.654589,2.3941605 L-19.672958,2.3128626 L-19.6909,2.2314548 L-19.708395,2.1499376 L-19.72542,2.068311 L-19.741957,1.9865758 L-19.757982,1.9047333 L-19.773481,1.8227849 L-19.788431,1.7407326 L-19.802816,1.6585784 L-19.816618,1.5763248 L-19.82982,1.4939749 L-19.842405,1.4115316 L-19.854357,1.3289984 L-19.865662,1.2463793 L-19.876307,1.1636779 L-19.886276,1.0808986 L-19.89556,0.99804616 L-19.904142,0.915125 L-19.912016,0.83214027 L-19.91917,0.749097 L-19.925598,0.66600055 L-19.931288,0.5828564 L-19.936234,0.49967027 L-19.940428,0.41644782 L-19.943869,0.33319497 L-19.946548,0.24991772 L-19.948465,0.16662206 L-19.949615,0.083314106 L-19.95,0.000000000000011319975 L-19.949615,-0.083314106 L-19.948465,-0.16662206 L-19.946548,-0.24991772 L-19.943869,-0.33319497 L-19.940428,-0.41644782 L-19.936234,-0.49967027 L-19.931288,-0.5828564 L-19.925598,-0.66600055 L-19.91917,-0.749097 L-19.912016,-0.83214027 L-19.904142,-0.915125 L-19.89556,-0.99804616 L-19.886276,-1.0808986 L-19.876307,-1.1636779 L-19.865662,-1.2463793 L-19.854357,-1.3289984 L-19.842405,-1.4115316 L-19.82982,-1.4939749 L-19.816618,-1.5763248 L-19.802816,-1.6585784 L-19.788431,-1.7407326 L-19.773481,-1.8227849 L-19.757982,-1.9047333 L-19.741957,-1.9865758 L-19.72542,-2.068311 L-19.708395,-2.1499376 L-19.6909,-2.2314548 L-19.672958,-2.3128626 L-19.654589,-2.3941605 L-19.635813,-2.475349 L-19.616655,-2.556429 L-19.597136,-2.637401 L-19.577276,-2.7182674 L-19.5571,-2.7990294 L-19.53663,-2.8796895 L-19.51589,-2.9602501 L-19.494902,-3.0407145 L-19.473688,-3.1210861 L-19.45227,-3.2013683 L-19.430676,-3.2815654 L-19.408924,-3.361682 L-19.387037,-3.4417226 L-19.365038,-3.5216923 L-19.342949,-3.6015968 L-19.320793,-3.6814415 L-19.29859,-3.7612329 L-19.276361,-3.8409767 L-19.25413,-3.9206798 L-19.23191,-4.000349 L-19.209728,-4.079991 L-19.187601,-4.1596136 L-19.165546,-4.2392235 L-19.143583,-4.3188286 L-19.121727,-4.398437 L-19.099997,-4.478056 L-19.078407,-4.557694 L-19.056973,-4.6373587 L-19.035711,-4.717058 L-19.014631,-4.7968006 L-18.99375,-4.8765945 L-18.973076,-4.9564476 L-18.952621,-5.036368 L-18.932396,-5.116364 L-18.91241,-5.196443 L-18.89267,-5.2766137 L-18.873182,-5.356883 L-18.853954,-5.437259 L-18.834991,-5.517749 L-18.816296,-5.598359 L-18.79787,-5.6790977 L-18.779718,-5.7599707 L-18.761839,-5.840985 L-18.74423,-5.922146 L-18.726894,-6.0034595 L-18.709826,-6.084931 L-18.693022,-6.166566 L-18.676477,-6.2483683 L-18.660185,-6.330343 L-18.644138,-6.412493 L-18.62833,-6.494822 L-18.61275,-6.577333 L-18.597385,-6.660028 L-18.58223,-6.742909 L-18.567265,-6.825977 L-18.55248,-6.9092326 L-18.53786,-6.9926763 L-18.523392,-7.0763073 L-18.509054,-7.160125 L-18.494833,-7.244127 L-18.480707,-7.328311 L-18.466658,-7.4126744 L-18.452665,-7.4972134 L-18.43871,-7.5819235 L-18.424767,-7.6668 L-18.410814,-7.751837 L-18.39683,-7.8370275 L-18.382788,-7.9223657 L-18.368666,-8.007842 L-18.354435,-8.09345 L-18.340073,-8.179178 L-18.325552,-8.265018 L-18.310843,-8.350959 L-18.295921,-8.436988 L-18.280756,-8.523095 L-18.265322,-8.609265 L-18.24959,-8.695487 L-18.233528,-8.781745 L-18.217112,-8.868025 L-18.20031,-8.95431 L-18.183094,-9.0405855 L-18.165432,-9.126835 L-18.147297,-9.213038 L-18.128658,-9.29918 L-18.109488,-9.38524 L-18.089756,-9.471199 L-18.069433,-9.557039 L-18.04849,-9.642737 L-18.026901,-9.728275 L-18.004637,-9.81363 L-17.981667,-9.898782 L-17.957966,-9.983706 L-17.933508,-10.068382 L-17.908264,-10.152786 L-17.882212,-10.2368965 L-17.855324,-10.320688 L-17.827574,-10.404139 L-17.79894,-10.487224 L-17.769402,-10.56992 L-17.738932,-10.652202 L-17.70751,-10.734046 L-17.675117,-10.815429 L-17.641733,-10.896325 L-17.607338,-10.976712 L-17.571913,-11.056564 L-17.535442,-11.135858 L-17.49791,-11.214569 L-17.4593,-11.292674 L-17.419598,-11.370151 L-17.378794,-11.446975 L-17.336872,-11.523123 L-17.293825,-11.598574 L-17.249641,-11.6733055 L-17.204315,-11.747295 L-17.157837,-11.820523 L-17.1102,-11.892968 L-17.061401,-11.964611 L-17.011438,-12.035431 L-16.960306,-12.10541 L-16.908007,-12.174529 L-16.854538,-12.242772 L-16.7999,-12.3101225 L-16.744099,-12.376563 L-16.687138,-12.44208 L-16.62902,-12.506658 L-16.569754,-12.570284 L-16.509346,-12.632945 L-16.447807,-12.694632 L-16.385145,-12.75533 L-16.321375,-12.815034 L-16.256506,-12.873733 L-16.190554,-12.931418 L-16.123533,-12.988087 L-16.05546,-13.04373 L-15.986354,-13.098346 L-15.916232,-13.15193 L-15.845115,-13.20448 L-15.773024,-13.255997 L-15.69998,-13.306479 L-15.626007,-13.35593 L-15.55113,-13.404353 L-15.475374,-13.45175 L-15.398766,-13.498128 L-15.321331,-13.543493 L-15.243098,-13.587854 L-15.164098,-13.631221 L-15.084359,-13.673602 L-15.003912,-13.715012 L-14.92279,-13.755462 L-14.841022,-13.794969 L-14.758642,-13.833546 L-14.675686,-13.871213 L-14.592184,-13.907988 L-14.508173,-13.94389 L-14.423687,-13.978941 L-14.338761,-14.013164 L-14.253431,-14.04658 L-14.167733,-14.079218 L-14.081703,-14.111102 L-13.995378,-14.142261 L-13.9087925,-14.17272 L-13.821984,-14.202513 L-13.734989,-14.231668 L-13.647845,-14.260219 L-13.560587,-14.2881975 L-13.473251,-14.315639 L-13.385875,-14.342576 L-13.2984915,-14.369047 L-13.211139,-14.395087 L-13.123849,-14.420736 L-13.036659,-14.446031 L-12.949602,-14.47101 L-12.862711,-14.495715 L-12.77602,-14.520186 L-12.68956,-14.544464 L-12.603363,-14.568591 L-12.517461,-14.592609 L-12.431882,-14.616562 L-12.346657,-14.6404915 L-12.261813,-14.664441 L-12.177379,-14.688455 L-12.09338,-14.712576 L-12.009842,-14.73685 L-11.92679,-14.761319 L-11.844248,-14.786028 L-11.762238,-14.811022 L-11.680781,-14.836344 L-11.599897,-14.862037 L-11.519608,-14.8881445 L-11.439928,-14.914711 L-11.360877,-14.941777 L-11.282469,-14.969387 L-11.204719,-14.9975815 L-11.127641,-15.0264015 L-11.051246,-15.055887 L-10.975546,-15.086078 L-10.90055,-15.117011 L-10.826267,-15.148726 L-10.752705,-15.18126 L-10.679868,-15.214646 L-10.607763,-15.2489195 L-10.536392,-15.284114 L-10.465759,-15.32026 L-10.3958645,-15.3573885 L-10.326708,-15.395528 L-10.258287,-15.434706 L-10.190601,-15.474946 L-10.123645,-15.5162735 L-10.057413,-15.55871 L-9.991899,-15.602277 L-9.927094,-15.64699 L-9.862991,-15.692868 L-9.799577,-15.739924 L-9.736841,-15.788173 L-9.674769,-15.837623 L-9.613347,-15.888283 L-9.552558,-15.940161 L-9.492385,-15.99326 L-9.432809,-16.047586 L-9.373811,-16.103136 L-9.315369,-16.159912 L-9.257461,-16.217907 L-9.200063,-16.277119 L-9.14315,-16.33754 L-9.0866995,-16.39916 L-9.030682,-16.46197 L-8.97507,-16.525953 L-8.919837,-16.591097 L-8.864953,-16.657383 L-8.810388,-16.724794 L-8.756113,-16.793306 L-8.702095,-16.862898 L-8.648305,-16.933544 L-8.594709,-17.005219 L-8.541277,-17.07789 L-8.487974,-17.15153 L-8.43477,-17.226103 L-8.381629,-17.301577 L-8.328521,-17.377913 L-8.27541,-17.455074 L-8.222265,-17.533018 L-8.169052,-17.611706 L-8.115739,-17.69109 L-8.062292,-17.771128 L-8.008679,-17.851768 L-7.9548693,-17.932966 L-7.9008293,-18.01467 L-7.846528,-18.096825 L-7.791935,-18.17938 L-7.737019,-18.26228 L-7.6817513,-18.345465 L-7.626102,-18.428883 L-7.570042,-18.51247 L-7.513545,-18.596167 L-7.4565825,-18.679914 L-7.399129,-18.763649 L-7.341159,-18.847305 L-7.2826476,-18.93082 L-7.223572,-19.014132 L-7.1639085,-19.09717 L-7.1036367,-19.17987 L-7.0427356,-19.262165 L-6.981186,-19.343988 L-6.9189696,-19.42527 L-6.856069,-19.505943 L-6.7924685,-19.585941 L-6.7281537,-19.665194 L-6.6631107,-19.743633 L-6.597327,-19.82119 L-6.5307927,-19.897799 L-6.463497,-19.97339 L-6.3954325,-20.047897 L-6.326592,-20.121252 L-6.256969,-20.19339 L-6.18656,-20.264246 L-6.115362,-20.333754 L-6.043373,-20.40185 L-5.9705925,-20.468472 L-5.897022,-20.533556 L-5.822663,-20.597046 L-5.747519,-20.658878 L-5.6715956,-20.718998 L-5.5948987,-20.777348 L-5.517435,-20.833872 L-5.4392133,-20.888517 L-5.360243,-20.941235 L-5.280535,-20.99197 L-5.200101,-21.04068 L-5.1189537,-21.087317 L-5.0371075,-21.131836 L-4.954576,-21.174198 L-4.8713756,-21.21436 L-4.787523,-21.252285 L-4.703035,-21.28794 L-4.61793,-21.32129 L-4.5322266,-21.352303 L-4.4459443,-21.38095 L-4.3591037,-21.407207 L-4.2717257,-21.431051 L-4.1838317,-21.452457 L-4.0954432,-21.471409 L-4.0065837,-21.487886 L-3.9172757,-21.501877 L-3.8275433,-21.513369 L-3.737411,-21.522348 L-3.6469038,-21.528814 L-3.5560465,-21.532759 L-3.4648652,-21.534178 L-3.3733866,-21.533075 L-3.2816374,-21.529453 L-3.1896448,-21.523314 L-3.0974364,-21.51467 L-3.0050406,-21.503527 L-2.9124858,-21.489902 L-2.8198009,-21.473812 L-2.7270143,-21.455273 L-2.6341558,-21.434307 L-2.5412545,-21.410938 L-2.44834,-21.385197 L-2.3554413,-21.357107 L-2.2625883,-21.326706 L-2.1698098,-21.294027 L-2.0771348,-21.25911 L-1.9845922,-21.221992 L-1.8922102,-21.18272 L-1.800017,-21.141338 L-1.7080399,-21.097895 L-1.6163057,-21.05244 L-1.5248408,-21.005032 L-1.4336709,-20.95572 L-1.3428205,-20.904566 L-1.2523137,-20.85163 L-1.1621739,-20.796974 L-1.0724229,-20.740662 L-0.98308206,-20.682764 L-0.8941716,-20.623344 L-0.80571055,-20.562475 L-0.7177169,-20.50023 L-0.63020736,-20.436682 L-0.54319763,-20.371906 L-0.45670202,-20.30598 L-0.37073356,-20.238981 L-0.285304,-20.17099 L-0.20042382,-20.102087 L-0.11610204,-20.032354 L-0.032346323,-19.961872 L0.05083706,-19.890728 L0.13344327,-19.819002 L0.21546891,-19.746782 L0.29691204,-19.674154 L0.37777218,-19.6012 L0.45805037,-19.52801 L0.537749,-19.454668 L0.61687213,-19.38126 L0.6954251,-19.307873 L0.7734149,-19.234592 L0.85085,-19.161505 L0.9277401,-19.088696 L1.0040966,-19.016247 L1.0799325,-18.944246 L1.1552618,-18.872774 L1.2301002,-18.801914 L1.3044647,-18.731749 L1.378374,-18.662357 L1.4518477,-18.593819 L1.524907,-18.526213 L1.5975744,-18.459614 L1.6698736,-18.3941 L1.7418296,-18.329742 L1.8134686,-18.266613 L1.8848178,-18.204784 L1.9559059,-18.144323 L2.0267622,-18.085297 L2.097417,-18.027771 L2.1679025,-17.971807 L2.2382503,-17.917467 L2.3084934,-17.86481 L2.3786657,-17.813892 L2.4488015,-17.764769 L2.5189354,-17.717491 L2.5891027,-17.672112 L2.6593382,-17.628675 L2.7296772,-17.58723 L2.8001547,-17.54782 L2.8708055,-17.51048 L2.941664,-17.475256 L3.0127633,-17.44218 L3.0841367,-17.411287 L3.1558156,-17.382603 L3.227831,-17.356157 L3.3002124,-17.331974 L3.3729882,-17.31007 L3.446186,-17.290464 L3.5198321,-17.273169 L3.5939512,-17.25819 L3.6685681,-17.245533 L3.743706,-17.235199 L3.819388,-17.227182 L3.895636,-17.221476 L3.972473,-17.218065 L4.04992,-17.216936 L4.1279993,-17.218065 L4.206732,-17.221428 L4.2861395,-17.227 L4.366244,-17.234747 L4.447066,-17.244635 L4.5286255,-17.256626 L4.610944,-17.27068 L4.69404,-17.286753 L4.777933,-17.304798 L4.8626413,-17.324766 L4.9481816,-17.346607 L5.0345697,-17.370268 L5.1218204,-17.39569 L5.209947,-17.422815 L5.298961,-17.451584 L5.3888726,-17.48193 L5.4796906,-17.513792 L5.571421,-17.5471 L5.6640697,-17.581783 L5.7576385,-17.617773 L5.85213,-17.654995 L5.947542,-17.693373 L6.043873,-17.732832 L6.1411176,-17.77329 L6.2392693,-17.814669 L6.3383193,-17.856886 L6.4382567,-17.89986 L6.539069,-17.943502 L6.640741,-17.987732 L6.743256,-18.032457 L6.8465953,-18.077593 L6.950738,-18.123049 L7.0556602,-18.168737 L7.161339,-18.214567 L7.2677455,-18.260445 L7.3748517,-18.306282 L7.482628,-18.351988 L7.59104,-18.397467 L7.7000546,-18.442629 L7.8096356,-18.487383 L7.9197445,-18.531637 L8.030342,-18.575298 L8.141386,-18.618277 L8.252835,-18.660482 L8.364643,-18.701822 L8.476765,-18.742212 L8.589152,-18.781559 L8.7017565,-18.81978 L8.814528,-18.856787 L8.927414,-18.892494 L9.040363,-18.926819 L9.153319,-18.95968 L9.26623,-18.990995 L9.379038,-19.020689 L9.491686,-19.048683 L9.604116,-19.074902 L9.716271,-19.099274 L9.828092,-19.121725 L9.939517,-19.142193 L10.050488,-19.160606 L10.160944,-19.176903 L10.270824,-19.191023 L10.380068,-19.202908 L10.488613,-19.2125 L10.5964,-19.219748 L10.703368,-19.2246 L10.809456,-19.22701 L10.914605,-19.226936 L11.018756,-19.224333 L11.121849,-19.219164 L11.223827,-19.211395 L11.324634,-19.200993 L11.424212,-19.18793 L11.52251,-19.172178 L11.619472,-19.153715 L11.715047,-19.132524 L11.809185,-19.108585 L11.901838,-19.081884 L11.992959,-19.052412 L12.082501,-19.02016 L12.170424,-18.985125 L12.256685,-18.9473 L12.341244,-18.906689 L12.424064,-18.86329 L12.505108,-18.817114 L12.584343,-18.768164 L12.661736,-18.716454 L12.737255,-18.661993 L12.810873,-18.6048 L12.882562,-18.544888 L12.952295,-18.482283 L13.020049,-18.417006 L13.085801,-18.349083 L13.14953,-18.278543 L13.211218,-18.20542 L13.270845,-18.129745 L13.328399,-18.051558 L13.383863,-17.9709 L13.437227,-17.887812 L13.488483,-17.802343 L13.537622,-17.714542 L13.58464,-17.624462 L13.629535,-17.532156 L13.672306,-17.437683 L13.712956,-17.341103 L13.751493,-17.242477 L13.787923,-17.141874 L13.822257,-17.039358 L13.854509,-16.935 L13.884696,-16.82887 L13.912838,-16.721045 L13.938955,-16.611595 L13.963076,-16.500599 L13.985226,-16.388136 L14.005437,-16.274282 L14.023743,-16.159122 L14.04018,-16.042736 L14.054788,-15.925205 L14.067607,-15.806614 L14.078684,-15.687045 L14.088065,-15.566586 L14.095801,-15.445318 L14.101943,-15.323329 L14.106545,-15.200704 L14.109667,-15.077527 L14.111366,-14.953885 L14.111705,-14.829863 L14.110747,-14.705544 L14.108558,-14.581015 L14.1052065,-14.456358 L14.100761,-14.331657 L14.095295,-14.206995 L14.088881,-14.082453 L14.081593,-13.958111 L14.073508,-13.834048 L14.064705,-13.710343 L14.055263,-13.587074 L14.045261,-13.464314 L14.034782,-13.342139 L14.023909,-13.22062 L14.012725,-13.099828 L14.001313,-12.979832 L13.989761,-12.860698 L13.978152,-12.742491 L13.966575,-12.625275 L13.955113,-12.509109 L13.943855,-12.3940525 L13.932889,-12.280161 L13.922299,-12.167488 L13.912174,-12.056085 L13.9026,-11.946 L13.893664,-11.83728 L13.885451,-11.729968 L13.878048,-11.6241045 L13.871539,-11.519728 L13.866009,-11.416872 L13.86154,-11.315572 L13.858216,-11.215855 L13.856119,-11.117747 L13.85533,-11.0212755 L13.855927,-10.926459 L13.857991,-10.833318 L13.861598,-10.741866 L13.866824,-10.652118 L13.873744,-10.564083 L13.882431,-10.477771 L13.892956,-10.393188 L13.90539,-10.310339 L13.9198,-10.229225 L13.936251,-10.149849 L13.954807,-10.072209 L13.97553,-9.996305 L13.998474,-9.922135 L14.023695,-9.849695 L14.051241,-9.778981 L14.081159,-9.709988 L14.113487,-9.64271 L14.148263,-9.577139 L14.1855135,-9.513266 L14.2252655,-9.4510765 L14.267536,-9.390556 L14.31234,-9.331688 L14.359685,-9.274447 L14.4095745,-9.218808 L14.46201,-9.164739 L14.516988,-9.112205 L14.574501,-9.061165 L14.634541,-9.011577 L14.697095,-8.963392 L14.762149,-8.916562 L14.829687,-8.871032 L14.899692,-8.826746 L14.97214,-8.7836485 L15.047011,-8.741678 L15.124279,-8.700776 L15.203916,-8.660878 L15.28589,-8.621924 L15.370167,-8.58385 L15.456712,-8.546591 L15.545485,-8.510082 L15.636442,-8.474261 L15.729537,-8.439062 L15.824722,-8.404419 L15.921944,-8.370268 L16.021147,-8.336543 L16.12227,-8.30318 L16.225254,-8.270114 L16.330032,-8.23728 L16.436537,-8.204615 L16.544695,-8.172053 L16.654432,-8.139533 L16.765675,-8.106991 L16.878338,-8.074365 L16.99234,-8.041594 L17.1076,-8.008616 L17.224022,-7.975373 L17.341524,-7.9418054 L17.460009,-7.907855 L17.579382,-7.873466 L17.699547,-7.8385816 L17.820408,-7.8031487 L17.94186,-7.7671137 L18.063805,-7.730425 L18.186138,-7.6930323 L18.308752,-7.6548877 L18.431545,-7.615944 L18.554405,-7.5761557 L18.677227,-7.535479 L18.799898,-7.493873 L18.922312,-7.4512973 L19.044357,-7.407714 L19.165922,-7.3630867 L19.286896,-7.3173814 L19.407167,-7.270567 L19.526623,-7.222613 L19.645155,-7.1734915 L19.762651,-7.1231775 L19.879,-7.0716476 L19.994093,-7.0188804 L20.10782,-6.964857 L20.220076,-6.9095616 L20.33075,-6.8529797 L20.439737,-6.7950993 L20.546936,-6.735911 L20.65224,-6.6754074 L20.75555,-6.613584 L20.856768,-6.5504384 L20.955793,-6.48597 L21.052532,-6.4201818 L21.146894,-6.3530774 L21.238785,-6.2846637 L21.32812,-6.21495 L21.41481,-6.1439476 L21.498777,-6.071669 L21.57994,-5.99813 L21.658226,-5.9233475 L21.73356,-5.847341 L21.805872,-5.770131 L21.8751,-5.6917405 L21.941177,-5.6121936 L22.00405,-5.5315146 L22.063662,-5.449732 L22.119963,-5.3668723 L22.172905,-5.2829647 L22.22245,-5.198039 L22.268555,-5.112126 L22.311184,-5.0252557 L22.350311,-4.93746 L22.385902,-4.8487716 L22.417938,-4.7592216 L22.446398,-4.6688433 L22.47126,-4.57767 L22.492516,-4.485735 L22.510149,-4.3930726 L22.524158,-4.2997174 L22.534534,-4.2057047 L22.541277,-4.111071 L22.54439,-4.015853 L22.543879,-3.920089 L22.53975,-3.823818 L22.532017,-3.7270799 L22.520695,-3.629916 L22.505804,-3.5323684 L22.487368,-3.4344797 L22.465412,-3.3362942 L22.439968,-3.2378561 L22.411074,-3.1392107 L22.378767,-3.0404031 L22.343088,-2.9414797 L22.304089,-2.8424861 L22.261818,-2.7434685 L22.216331,-2.6444724 L22.167688,-2.5455434 L22.115953,-2.4467266 L22.061192,-2.3480663 L22.003475,-2.2496061 L21.942877,-2.151389 L21.879477,-2.0534565 L21.813353,-1.9558498 L21.74459,-1.8586085 L21.67328,-1.761771 L21.599508,-1.6653744 L21.523369,-1.5694544 L21.44496,-1.4740453 L21.364378,-1.3791797 L21.281723,-1.2848889 L21.1971,-1.1912022 L21.110615,-1.0981475 L21.022371,-1.0057508 L20.932482,-0.9140363 L20.841057,-0.8230264 L20.748207,-0.73274183 L20.654045,-0.6432012 L20.55869,-0.55442125 L20.462254,-0.4664168 L20.364855,-0.37920076 L20.26661,-0.29278398 L20.167637,-0.20717534 L20.068058,-0.12238176 L19.96786,-0.038301278" fill="none" stroke="black" stroke-width="0.05"/>
</svg>